<svg xmlns="http://www.w3.org/2000/svg" width="246" height="420" viewBox="0 0 246 420"><path d="M61.75 418.25c33.688-.146 88.813-.146 122.5 0 33.688.146 6.125.266-61.25.266s-94.938-.12-61.25-.266zm87.967-7.867c-.147-.147-32.206-.406-71.242-.575L7.5 409.5l-.77-5.5c-.424-3.025-1.038-93.363-1.365-200.751C4.806 19.322 4.872 7.844 6.5 5.359l1.73-2.638 23.635.656c13 .361 63.345.723 111.88.803 85.812.143 88.29.2 89.99 2.078 1.648 1.822 1.758 13.163 1.951 202.05.15 145.947-.096 200.483-.91 201.462-.906 1.092-8.94 1.3-42.952 1.112-23.011-.127-41.959-.351-42.106-.498zM180 407.358c-9.354-.663-85-.828-85-.186 0 .37 20.138.635 44.75.589 24.613-.047 42.725-.228 40.25-.403zm13.73.038c-.333-.332-1.196-.368-1.917-.08-.798.32-.561.557.604.605 1.054.043 1.644-.193 1.312-.525zm13.52-.12c-1.788-.221-4.713-.221-6.5 0-1.788.222-.325.404 3.25.404s5.037-.182 3.25-.403zm25.75-.194c0-.505.28-1.743.623-2.75.48-1.41.245-1.326-1.02.366-1.243 1.662-2.921 2.288-6.874 2.565l-5.229.367 6.25.185c3.438.102 6.25-.228 6.25-.733zm-216.978-.827c-3.013-.207-5.819-.91-6.235-1.565-.508-.8-.761-.615-.772.56-.013 1.501.874 1.724 6.235 1.565l6.25-.185zm16.74.058c-.956-.25-2.756-.26-4-.02-1.244.239-.462.444 1.738.455 2.2.01 3.218-.185 2.262-.435zm9.488.025c-.688-.278-1.813-.278-2.5 0-.688.277-.125.504 1.25.504s1.937-.227 1.25-.504zm36 0c-.688-.278-1.813-.278-2.5 0-.688.277-.125.504 1.25.504s1.938-.227 1.25-.504zm12.014-.042c-1.23-.237-3.48-.243-5-.014-1.52.23-.514.425 2.236.432 2.75.007 3.994-.18 2.764-.418zm138.29-1.656c1.916-.609 1.943-2.668 1.777-135.38-.093-74.118-.493-162.772-.89-197.01l-.72-62.25-5.61.023c-3.086.012-24.961-.195-48.611-.461s-70.225-.56-103.5-.655l-60.5-.171-.143 4.382c-.24 7.35-.044 318.402.21 333.382.13 7.7.35 21.65.488 31 .139 9.35.453 19.134.698 21.743l.447 4.744 70.65.256c38.858.141 87.1.428 107.204.637 20.105.208 37.43.1 38.5-.24zM110.5 400.603c-10.522-4.803-16.09-14.575-15.293-26.843.522-8.055 2.008-11.613 6.957-16.665 9.881-10.085 28.624-10.153 38.636-.141 5.803 5.802 7.665 10.55 7.669 19.546.004 9.023-1.083 11.773-7.27 18.41-7.377 7.91-20.506 10.345-30.699 5.693zm3.417-1.925c-1.617-1.25-9.917-5.666-9.917-5.277 0 .665 8.277 5.578 9.417 5.59.504.005.729-.136.5-.313zm22.583-2.838c1.65-1.127 3.857-3.24 4.904-4.695 1.424-1.978.92-1.728-2 .99-2.147 2-5.254 4.39-6.904 5.314-1.65.923-2.1 1.4-1 1.06 1.1-.34 3.35-1.541 5-2.669zm-5 .26c7.39-3.428 13.5-12.564 13.5-20.182 0-3.772-4.191-12.825-7.232-15.622-9.207-8.467-23.32-8.474-32.518-.016-2.656 2.442-3.02 1.258-.5-1.623.963-1.1 1.208-1.685.547-1.299-.662.386-2.22 2.151-3.461 3.922-1.516 2.162-1.695 2.769-.547 1.848 2.159-1.732 2.141-1.371-.194 3.995-6.42 14.754 4.241 30.87 20.405 30.843 3.722-.006 7.518-.714 10-1.866zm-18.564-1.85c-8-4.057-11.293-9.271-11.539-18.274-.104-3.837.205-6.976.687-6.976.483 0 .622 1.913.31 4.25-.996 7.434 4.863 17.288 12.068 20.298 8.167 3.413 18.533.439 23.235-6.667 2.373-3.586 2.803-5.267 2.803-10.965 0-5.99-.33-7.137-3-10.426-3.99-4.917-10.54-8.49-15.56-8.49-5.246 0-13.622 4.276-15.77 8.05-.918 1.616-2.008 2.94-2.42 2.944-1.307.01-.825-1.207 1.884-4.758 6.447-8.453 21.785-9.756 29.893-2.54 3.276 2.915 6.427 8.734 7.321 13.522.695 3.72.447 5.256-1.507 9.304-3.227 6.688-5.79 9.128-12.043 11.468-7.122 2.664-9.896 2.539-16.363-.74zm13.56-5.803l-4.768-3.39-2.834 2.018c-1.558 1.11-3.099 2.447-3.423 2.972-.894 1.447-4.186 1.139-4.795-.45-.296-.771.09-3.492.858-6.045l1.397-4.642-4.506-3.176c-3.197-2.253-4.422-3.766-4.216-5.205.245-1.707 1.225-2.108 6.176-2.529l5.885-.5 1.526-4.798c1.235-3.883 1.916-4.742 3.57-4.5 1.466.214 2.46 1.64 3.514 5.048l1.471 4.75h5.856c8.042 0 8.74 1.968 2.553 7.19-4.461 3.766-4.543 3.938-3.177 6.676.771 1.546 1.674 4.169 2.006 5.829.894 4.47-1.505 4.725-7.093.752zm-9.18-2.816c1.752-1.302 4.534-2.666 6.184-3.03 2.114-.466 2.566-.373 1.529.314-.81.537-1.26 1.118-1 1.291.259.174 1.517 1.198 2.795 2.277 1.278 1.078 2.237 1.524 2.132.989-.106-.535-.133-1.647-.06-2.472.12-1.333.254-1.333 1.214 0 .867 1.205.94 1.107.37-.5a81.744 81.744 0 0 1-1.21-3.75c-.946-3.29-2.145-1.757-1.566 2 .744 4.817-.221 3.953-1.117-1-.53-2.932-.359-3.75.784-3.75.804 0 1.612-.354 1.796-.786.183-.432 1.83-1.838 3.66-3.123 4.808-3.377 2.926-4.483-5.988-3.516-4.036.438-7.677.712-8.089.61-.413-.102-.75.667-.75 1.708s-.661 2.147-1.47 2.457c-1.826.701-6.77-1.75-5.765-2.859.404-.446.104-.446-.666.001-1.096.636-.737 1.379 1.649 3.41 4.964 4.228 6.881 9.297 3.252 8.598-1.1-.212-2 .039-2 .557 0 .519.562.95 1.25.958.833.01.75.339-.25.985-.825.533-1.133.976-.683.985.449.008 2.249-1.05 4-2.354zM116.5 379c-.34-.55-.168-1 .382-1s1.278.45 1.618 1c.34.55.168 1-.382 1s-1.278-.45-1.618-1zm3.167-.667c-1.45-1.45-.546-4.427 1.583-5.213 3.807-1.405 13.964-2.276 13.26-1.137-.345.56-2.964 1.049-5.819 1.087-3.823.052-4.664.297-3.191.93 1.785.767 1.806.867.191.93-1.063.041-1.526.529-1.122 1.182 1.137 1.84-3.282 3.842-4.902 2.221zM122.5 376c.34-.55.141-1-.441-1s-1.059.45-1.059 1 .198 1 .441 1 .72-.45 1.059-1zm-3.478-6.487c.577.357.941-.955.888-3.204l-.09-3.809-.926 3.2c-1.161 4.017-2.33 4.735-7.366 4.524l-4.028-.168 4 1.367c2.2.752 3.636 1.414 3.191 1.472-.445.058-.471.651-.059 1.32.493.796 1.208.092 2.08-2.047.732-1.792 1.771-2.987 2.31-2.655zM124.29 368c-.288-1.1-.969-2-1.514-2-.544 0-.722.698-.394 1.552.341.89.173 1.291-.393.94-.544-.335-.989-.133-.989.449 0 .582.858 1.059 1.906 1.059 1.414 0 1.772-.517 1.384-2zm-21.59 22.22c-.887-.979-2.289-3.341-3.117-5.25-.827-1.908-1.522-2.878-1.544-2.154-.069 2.307 4.252 9.184 5.771 9.184.275 0-.225-.8-1.11-1.78zm42.107-4.746c-.308-.308-.867.247-1.243 1.233-.542 1.425-.428 1.54.56.56.684-.679.99-1.486.683-1.793zm.876-3.661c-.32-.798-.556-.561-.604.604-.043 1.054.193 1.644.525 1.312.332-.332.368-1.195.08-1.916zm-48-3c-.32-.798-.556-.561-.604.604-.043 1.054.193 1.644.525 1.312.332-.332.368-1.195.08-1.916zm49.023-5.063c-.239-1.238-.434-.225-.434 2.25s.195 3.487.434 2.25c.238-1.238.238-3.263 0-4.5zM98.859 368c0-.945-.317-.76-.859.5-.473 1.1-.86 2.675-.86 3.5 0 .945.318.76.86-.5.473-1.1.86-2.675.86-3.5zm46.141-.809c0-.445-.682-1.682-1.516-2.75-1.406-1.8-1.43-1.741-.34.809 1.178 2.751 1.856 3.461 1.856 1.941zm-5.076-7.786c-1.333-1.427-3.774-3.234-5.424-4.014-1.694-.802-2.167-.87-1.086-.155 1.053.695 3.303 2.488 5 3.985 3.919 3.455 4.65 3.544 1.51.184zM116 353c1.333-.862 1.333-.97 0-.97-.825 0-2.175.437-3 .97-1.333.862-1.333.97 0 .97.825 0 2.175-.437 3-.97zm14 0c-.825-.533-2.4-.945-3.5-.914l-2 .055 2 .859c1.1.473 2.675.884 3.5.914 1.333.05 1.333-.052 0-.914zm-6.27-.604c-.333-.332-1.196-.368-1.918-.08-.797.32-.56.557.605.605 1.054.043 1.644-.193 1.312-.525zm-9.23-28.273c-8.833-2.322-17.678-11.063-19.422-19.193-1.439-6.71-1.36-9.614.417-15.602 2.005-6.75 8.034-13.449 14.677-16.307 9.74-4.19 21.897-1.845 30.204 5.823 7.271 6.713 9.88 20.8 5.632 30.405-2.242 5.07-8.528 11.235-13.625 13.364-4.194 1.753-13.858 2.569-17.883 1.51zm12-2.123l3-.763-3.5-.221-3.5-.22 3.168-.755c10.527-2.508 17.343-10.626 17.317-20.629-.01-3.758-.334-5.41-.889-4.534-.48.758-1.278 1.128-1.774.821-.961-.594-9.852 4.968-9.778 6.118.024.376.616 2.643 1.316 5.038.7 2.395 1.024 5.006.718 5.802-.924 2.408 1.344.434 4.488-3.907 1.614-2.227 2.934-5.108 2.934-6.4 0-1.293.45-2.35 1-2.35 2.64 0-.973 8.847-5.153 12.618-5.006 4.516-7.602 5.53-14.256 5.569-7.79.045-14.119-3.07-17.564-8.643-2.736-4.427-4.173-9.336-2.953-10.09.51-.314.926.285.926 1.333 0 5.268 6.973 13.157 13.5 15.272 4.609 1.494 5.744 1.49 11.398-.031l4.14-1.115-4.527-3.457c-2.49-1.9-5.004-3.456-5.586-3.456-.582 0-2.533 1.125-4.336 2.5-6.1 4.653-8.665 2.8-6.117-4.42.84-2.382 1.528-4.472 1.528-4.644 0-.171-2.025-1.766-4.5-3.543-2.475-1.778-4.5-4.034-4.5-5.015 0-1.483 1.026-1.833 6.116-2.08l6.115-.298 1.976-5.308c2.618-7.034 5.252-6.928 7.642.308l1.651 5 5.5.277c3.025.153 6.175.558 7 .901 2.78 1.156 4 1.151 3.996-.016-.006-2.003-4.1-8.046-7.365-10.871-1.722-1.49-2.658-2.728-2.081-2.75.578-.023 1.656.522 2.397 1.209 1.065.988 1.2.99.644.005-.386-.685-1.632-1.742-2.767-2.35-1.534-.82-1.884-.812-1.36.035.496.804-.132.942-2.13.47-3.982-.94-5.718-2.858-1.834-2.026 2.375.51 2.637.422 1.256-.417-2.581-1.569-10.82-2.202-14.256-1.095-2.416.778-1.734.894 3.5.597 5.56-.316 5.85-.258 2 .402-14.03 2.403-22 10.786-22 23.138 0 10.928 6.754 19.44 17.5 22.056l3 .73-3 .22-3 .221 3 .764c1.65.42 3.9.763 5 .763s3.35-.344 5-.763zm-25.352-27.5c-.27-7.053 8.218-15.762 16.64-17.072 8.155-1.268 18.113 3.611 21.759 10.662 1.937 3.746.415 3.809-1.791.074-.922-1.56-3.57-4.147-5.884-5.75-3.632-2.514-5.111-2.908-10.79-2.871-4.26.027-7.73.655-9.837 1.778-3.668 1.956-8.432 8.661-9.363 13.179l-.619 3-.115-3zm9.352 24.845c-1.65-.866-4.797-3.21-6.994-5.21l-3.993-3.635 2.993 3.377c3.1 3.496 8.248 7.143 9.994 7.08.55-.02-.35-.746-2-1.612zm29.004-4.502c1.912-2.26 1.876-2.255-1.011.142-4.796 3.982-5.106 4.318-2.982 3.23 1.106-.566 2.903-2.084 3.993-3.372zM143 310c.589-1.1.845-2 .57-2s-.981.9-1.57 2c-.589 1.1-.845 2-.57 2s.981-.9 1.57-2zm-15.964-1.456c-1.276-1.538-.636-3.544 1.13-3.544.585 0 .754.773.382 1.75-.482 1.266-.363 1.45.43.663.793-.787.795-1.88.006-3.956-.956-2.513-.807-3.082 1.198-4.594 1.258-.95 1.92-2.094 1.471-2.543-.449-.45-1.387-.037-2.084.916-.696.953-1.56 1.44-1.918 1.082-.678-.679-.95.776-.782 4.182l.098 2-.878-2c-.589-1.34-.41-2.743.54-4.25 1.222-1.94 1.222-2.25.001-2.25-1.633 0-2.63 2.115-2.63 5.582 0 1.33-.534 2.418-1.187 2.418s.106 1.35 1.687 3c2.954 3.083 4.692 4.141 2.536 1.544zm-6.678-3.774c-.267-.431.219-1.054 1.079-1.384 2.419-.928 1.846-2.386-.937-2.386-2 0-2.5-.5-2.5-2.5 0-1.375.338-2.537.75-2.581 6.028-.653 10.224-1.56 11.052-2.388.292-.292-.406-.531-1.552-.531s-2.962-1.206-4.035-2.68c-1.95-2.677-1.953-2.678-3.099-.537-.643 1.201-1.754 1.91-2.53 1.612-.761-.292-1.68-.05-2.044.537-.363.587-1.785 1.068-3.16 1.068-1.424 0-2.232.434-1.878 1.007.343.554-.08 1.277-.94 1.607-1.285.493-1.119.948.937 2.565 2.546 2.003 3.305 5.205 1.499 6.321-.55.34-1 1.352-1 2.25 0 1.37.237 1.32 1.468-.309.808-1.067 1.483-1.525 1.5-1.017.018.509 1.155-.13 2.528-1.42s2.71-2.132 2.97-1.871c.74.74-5.297 5.693-6.086 4.991-.385-.343-.393-.088-.018.567.508.886 1.425.765 3.581-.473 1.595-.915 2.681-2.017 2.415-2.448zM117.5 294c-.34-.55-.141-1 .441-1s1.059.45 1.059 1-.198 1-.441 1-.72-.45-1.059-1zm3.25-.662c.688-.278 1.813-.278 2.5 0 .688.277.125.504-1.25.504s-1.938-.227-1.25-.504zm-22.665 11.557c-.527-1.317-.987-1.87-1.022-1.227-.084 1.56 1.08 4.522 1.582 4.02.219-.219-.033-1.475-.56-2.793zm47.631-8.645c-.229-1.512-.416-.275-.416 2.75s.187 4.263.416 2.75c.23-1.512.23-3.987 0-5.5zm-49.054.5c-.277-.688-.504-.125-.504 1.25s.227 1.938.504 1.25c.278-.688.278-1.813 0-2.5zM122 298c0-.55-.45-1-1-1s-1 .45-1 1 .45 1 1 1 1-.45 1-1zm13.5-3c.995-1.1 1.585-2 1.31-2-.275 0-1.315.9-2.31 2-.995 1.1-1.585 2-1.31 2 .275 0 1.315-.9 2.31-2zm-28.317-1.217c-.717-.717-1.183-.776-1.183-.15 0 1.335 1.183 2.518 1.85 1.85.284-.284-.016-1.049-.667-1.7zm-8.077-5.26c.637-2.002.618-2.647-.06-1.969-.555.555-1.246 2.57-1.537 4.477-.537 3.522-.113 2.857 1.597-2.508zm20.894-1.69c0-3.64-.437-3.509-1.378.417-.392 1.633-.246 2.75.359 2.75.56 0 1.019-1.425 1.019-3.167zm21.632-2.813c-3.587-5.42-4.24-5.13-.844.375 1.492 2.417 2.89 4.226 3.108 4.02.218-.206-.8-2.183-2.264-4.395zM108 277.706c2.404-1.724 2.372-1.724-.845 0-1.84.987-4.269 3.144-5.397 4.794l-2.05 3 2.896-3c1.593-1.65 4.021-3.807 5.396-4.794zm-64.061 6.988c-19.223-5.433-25.373-30.302-11.129-45.002 9.776-10.09 26.436-10.439 37.432-.784 9.505 8.345 11.167 26.128 3.397 36.363-6.324 8.33-19.158 12.403-29.7 9.423zm10.33-1.35c-.677-.274-2.027-.29-3-.037-.973.253-.419.478 1.231.498 1.65.02 2.446-.187 1.769-.461zm1.586-2.89c1.158.367 2.901.204 3.875-.363 2.123-1.236 2.074-1.242-8.977-1.27-4.81-.013-8.567-.315-8.348-.672.22-.357-1.11-1.774-2.954-3.149-3.7-2.758-8.557-10.746-8.299-13.647.09-1.02.08-2.978-.024-4.353-.163-2.152-.327-2.264-1.179-.803-1.1 1.888-.174 9.803 1.147 9.803.463 0 .594.645.291 1.434-.557 1.45 7.448 11.065 8.41 10.102.278-.278 1.076.276 1.774 1.23.924 1.263 2.513 1.687 5.849 1.56 2.93-.11 4.586.25 4.595 1 .01.761.318.697.875-.183.536-.846 1.653-1.105 2.965-.689zm-17.983-5.204c-1.243-1.586-1.208-1.621.378-.378 1.666 1.307 2.195 2.128 1.372 2.128-.207 0-.995-.787-1.75-1.75zM39 279.622c0-.207-.787-.995-1.75-1.75-1.586-1.243-1.621-1.208-.378.378 1.307 1.666 2.128 2.195 2.128 1.372zm28.128-1.372c1.243-1.586 1.208-1.621-.378-.378-.963.755-1.75 1.543-1.75 1.75 0 .823.821.294 2.128-1.372zm-3.151-.765c1.17.724 8.208-7.376 7.461-8.585-.377-.611-1.157-.299-1.945.78-.724.988-1.097 2.152-.83 2.584.267.432.093.662-.386.51-1.261-.397-7.293 4.877-6.492 5.677.37.37.834.193 1.03-.395.196-.588.718-.844 1.162-.57zm-5.566-.627l2.506-1.141-4.601-3.513c-3.746-2.86-4.9-3.298-6.209-2.353-8.062 5.824-11.281 4.995-8.884-2.287 1.66-5.039 1.3-5.95-3.527-8.942-1.542-.956-3.232-2.725-3.757-3.93-.697-1.605-.872-.394-.65 4.52.257 5.745.741 7.26 3.351 10.5 5.805 7.209 15.006 10.229 21.771 7.146zm10.403-9.358c.893-1.65 1.93-5.7 2.303-9l.68-6-.01 7c-.011 8.942.064 9.36 1.304 7.23.567-.974.748-2.661.403-3.75-.359-1.13-.17-1.98.439-1.98.587 0 1.067-.9 1.067-2s-.405-2-.901-2-.86-1.48-.808-3.29c.134-4.73-5.135-11.972-10.656-14.645-2.423-1.172-6.707-2.405-9.52-2.738-5.34-.632-6.722.132-2.865 1.585 2.012.758 1.774.976-2.25 2.06-5.386 1.451-10.465 5.094-12.448 8.927l-1.446 2.796 5.197.147c2.858.081 5.662-.188 6.23-.597.569-.41 1.716-2.995 2.55-5.745.854-2.816 2.112-5 2.88-5 1.524 0 4.349 4.57 5.378 8.702.63 2.531 1.069 2.722 6.906 3 8.156.39 8.92 2.538 2.323 6.523-4.99 3.014-5.401 4.35-3.063 9.946 1.203 2.88 1.26 3.932.28 5.218-.674.886.04.486 1.588-.889s3.546-3.85 4.439-5.5zm-1.317-19.326c-2.7-4.08-8.902-8.174-12.383-8.174-1.163 0-2.114-.45-2.114-1 0-1.46 2.668-1.223 6.079.54 1.639.848 3.529 1.226 4.2.84.672-.385.908-.353.526.07-.382.425.607 1.867 2.197 3.205s3.173 3.32 3.517 4.403c.344 1.084 1.037 1.716 1.542 1.405.504-.312.648.131.32.985-.828 2.16-1.028 2.042-3.884-2.274zm-7.434 18.944c-1.897-3.545-1.28-6.698 1.566-7.995 1.446-.659 2.346-1.482 1.999-1.829s-1.763-.025-3.146.716c-1.771.948-2.696 2.476-3.126 5.168-.686 4.29-.974 4.477-3.443 2.244-1.589-1.438-1.959-1.438-4.158.004-1.328.87-2.66 1.336-2.96 1.036-.3-.3-.761.582-1.025 1.961l-.48 2.507 2.76-1.965c3.388-2.413 3.823-2.411 6.95.035 1.375 1.076 2.95 1.959 3.5 1.962.55.004.4-.373-.334-.838-1.074-.68-1.025-.964.25-1.453 1.137-.437 1.617.018 1.7 1.61.084 1.61.239 1.753.563.521.246-.933-.031-2.591-.616-3.684zm14.744 1.356c-.308-.308-.867.247-1.243 1.233-.542 1.425-.428 1.54.56.56.684-.679.99-1.486.683-1.793zm-29.364-4.566c-.309-.5-.124-.908.41-.908 1.711 0 .629-2.788-1.9-4.893-1.35-1.122-1.946-2.055-1.325-2.074.62-.018 1.687.642 2.372 1.467 1.881 2.267 2.76 1.81 2.397-1.25-.179-1.512-.083-1.962.212-1 .606 1.973 2.496 2.44 2.024.5-.168-.688-.116-.912.114-.5.23.412 1.013.75 1.738.75.725 0 2.292 1.462 3.481 3.25 1.586 2.384 1.994 2.65 1.531 1-.466-1.659-.212-2.25.967-2.25.88 0 1.844-.64 2.145-1.423.3-.782 1.21-1.677 2.02-1.988.83-.318 1.207-.133.864.422-.336.544-.183.989.341.989s1.224-.709 1.557-1.575c.506-1.32-.165-1.528-4.143-1.28-4.552.282-4.79.163-5.79-2.897l-1.04-3.192-1.288 3.222c-1.163 2.91-1.364 3.028-2.072 1.222-.537-1.368-.354-2.102.579-2.323.75-.178 1.363-.767 1.363-1.31 0-.541-.45-.707-1-.367-1.284.794-1.267-.079.055-2.816 1.014-2.099.995-2.11-.487-.26-.848 1.058-1.82 3.404-2.16 5.214-.724 3.862-2.162 5.281-5.64 5.57-2.996.247-2.991 2.003.011 4.8 1.779 1.658 1.989 2.472 1.185 4.588-.538 1.414-.676 3.061-.306 3.659.4.649 1.009.174 1.509-1.176.46-1.245.584-2.672.276-3.171zm3.014 1.161c.317-.512.118-1.213-.44-1.559-.56-.345-1.017.074-1.017.931 0 1.757.6 2.015 1.457.628zm7.002-2.315c-.358-.934-1.346-1.335-2.529-1.025-1.067.279-2.573-.018-3.346-.66-.83-.689-1.642-.783-1.984-.23-.93 1.504 1.67 2.986 4.65 2.648 1.512-.17 2.75.174 2.75.768 0 .593.236.843.524.555.287-.288.258-1.213-.065-2.056zm-27.752-5.992c-.239-1.244-.444-.462-.455 1.738-.01 2.2.185 3.218.435 2.262s.26-2.756.02-4zm48.986 1.507c-.254-.973-.478-.419-.498 1.231-.02 1.65.187 2.446.46 1.769.275-.677.292-2.027.038-3zM53 259.559c0-.243-.45-.72-1-1.059-.55-.34-1-.141-1 .441S51.45 260 52 260s1-.198 1-.441zm-15.046-4.645c-.614-1.147-1.369-1.833-1.678-1.524-.308.309.008 1.248.704 2.086 1.798 2.166 2.284 1.886.974-.562zm29.637-.657c-.694-.693-2.591.716-2.591 1.924 0 .664.574.588 1.524-.201.838-.696 1.318-1.47 1.067-1.723zM33.04 250.9c1.177-2.842 8.06-11.924 8.339-11.003.253.837 4.62-1.083 4.62-2.032 0-1.344-3.798-.097-7.369 2.419-3.023 2.13-8.631 10.195-8.631 12.412 0 2.377 1.738 1.351 3.042-1.796zm1.96-6.278c0-.207.787-.995 1.75-1.75 1.586-1.243 1.621-1.208.378.378-1.307 1.666-2.128 2.195-2.128 1.372zm7.25 8.716c-.688-.278-1.813-.278-2.5 0-.688.277-.125.504 1.25.504s1.938-.227 1.25-.504zM29.914 248.5c.03-.55-.38-.325-.914.5-.533.825-.945 2.175-.914 3 .058 1.584 1.724-1.606 1.828-3.5zm5.089-6.998l3.497-3.998-3.336 2.998c-1.835 1.649-3.802 3.898-4.372 4.998-.57 1.1-.643 1.55-.162 1l4.373-4.998zm30.136-3.535c-1.298-1.082-2.873-1.965-3.5-1.962-.626.003.211.87 1.861 1.927 3.897 2.496 4.612 2.512 1.64.035zm-10.875-3.67c-1.23-.238-3.48-.244-5-.015-1.52.23-.514.425 2.236.432 2.75.007 3.994-.18 2.764-.418zm127.1 49.673c-6.226-1.922-12.664-7.226-15.577-12.834-2.347-4.518-2.784-6.57-2.765-13 .032-11.244 3.61-17.722 13.094-23.71 4.782-3.018 14.384-4.196 20.557-2.522 6.18 1.676 14.39 8.284 17.226 13.864 1.918 3.774 2.424 6.383 2.503 12.888.095 7.949-.004 8.304-3.902 13.963-5.695 8.268-11.445 11.591-20.761 12.001-3.982.175-8.65-.117-10.374-.65zm6.905-1.626c-.677-.274-2.027-.29-3-.037-.973.253-.419.478 1.231.498 1.65.02 2.446-.187 1.769-.461zm5.981-.006c-.687-.277-1.812-.277-2.5 0-.687.277-.125.504 1.25.504s1.938-.227 1.25-.504zm2.026-2.397c2.322-.645 3.513-1.472 3.095-2.15-.427-.69-.217-.813.565-.33 1.475.911 8.789-5.775 10.165-9.295 1.472-3.76-.235-4.752-1.795-1.042-.78 1.857-1.471 3.601-1.535 3.876-.063.275-2.28 1.895-4.926 3.6-2.647 1.705-4.602 3.31-4.345 3.567.256.256-2.564.4-6.267.32-7.82-.169-11.052.554-7.233 1.618 3.791 1.056 8.09.998 12.276-.164zm6.863-1l2.361-2.06-3 1.757c-3.948 2.312-4.007 2.362-2.777 2.362.58 0 2.118-.927 3.416-2.06zm-22.848-2.63c-1.535-.794-3.724-2.318-4.865-3.386-1.141-1.069-2.416-1.601-2.834-1.184-.417.418-.668.31-.557-.24.424-2.1-.088-3.167-1.52-3.167-1.185 0-1.245.318-.3 1.583 3.488 4.663 6.14 6.885 7.564 6.338 1.102-.423 1.313-.212.73.73-.544.881-.432 1.086.336.61.635-.392 1.155-.25 1.155.315s.693.762 1.54.436c1.184-.454.894-.926-1.25-2.035zm14.939.043c6.44-2.483 11.463-7.787 13.275-14.019.948-3.261 1.213-5.972.691-7.063-3.614-7.554-5.476-10.153-9.155-12.772-3.6-2.563-5.122-3-10.463-3-5.176 0-6.925.469-10.184 2.728-2.165 1.5-4.74 4.087-5.722 5.75L171.887 251h11.699l1.87-5.5c1.528-4.498 2.281-5.5 4.135-5.5 1.93 0 2.448.814 3.496 5.5 1.33 5.941 1.456 6.018 9.161 5.554 2.78-.167 3.922.225 4.418 1.518.664 1.73-1.221 3.899-6.456 7.428-2.21 1.489-2.213 1.539-.525 6.757 2.197 6.788.983 8.481-3.867 5.396-7.297-4.644-7.453-4.669-11.217-1.798-5.984 4.564-8.33 3.094-5.951-3.73 1.866-5.357 1.892-5.284-3.176-8.856-2.49-1.755-4.328-3.708-4.085-4.34.254-.663-.474-1.102-1.724-1.038-1.94.098-2.172.69-2.234 5.692-.04 3.337.362 5.584 1 5.585.641 0 1-2.034.896-5.083l-.173-5.085.774 4.5c1.686 9.81 5.474 14.791 13.683 17.997 6.062 2.368 6.377 2.377 11.619.357zm12.898-1.104c1.243-1.586 1.208-1.621-.378-.377-1.666 1.306-2.195 2.127-1.372 2.127.207 0 .995-.787 1.75-1.75zM171 273.622c0-.207-.787-.995-1.75-1.75-1.586-1.243-1.621-1.208-.378.378 1.307 1.666 2.128 2.195 2.128 1.372zm42-5.9c0-1.23-.05-1.17-2.362 2.778l-1.757 3 2.06-2.36c1.132-1.3 2.059-2.837 2.059-3.417zm-31.847-.14c.434-2.397 2.847-3.335 2.847-1.106 0 .903-.375 1.41-.833 1.127-.459-.283-.834.117-.834.89 0 .966.911.638 2.918-1.051 2.968-2.497 3.287-2.47 7.832.671 2.04 1.41 2.584 1.49 2.584.38 0-.774-.565-1.624-1.256-1.889-1.467-.563-.788-4.047 1.094-5.608.709-.588 1.058-1.953.775-3.033-.282-1.08-.025-1.963.572-1.963s.826-.675.51-1.5c-.317-.825-1.004-1.5-1.528-1.5s-.674.45-.334 1 .159 1-.402 1c-.562 0-1.521-1.857-2.132-4.127-.8-2.967-1.417-3.822-2.196-3.043-.78.78-.754 1.484.091 2.503.962 1.159.718 1.417-1.342 1.417-1.824 0-2.519-.534-2.519-1.934 0-1.207.434-1.666 1.155-1.22.744.46.881.272.387-.529-.979-1.583-2.1-.342-2.953 3.267-.438 1.855-.31 2.612.37 2.19.573-.353 1.041-.113 1.041.534 0 .77-.774.921-2.25.437-4.423-1.451-11.055-1.798-10.276-.538.4.649 1.395.923 2.21.61.905-.346 1.322-.084 1.07.672-.228.682.635 2.065 1.916 3.073 2.298 1.808 3.163 6.055 1.45 7.114-.485.3-1.104 1.71-1.376 3.135-.273 1.425-.145 2.219.283 1.765.428-.454.935-1.689 1.126-2.743zm5.514-7.249c-1.124-1.124-.74-4.142.583-4.587 2.527-.85 4.75.493 4.75 2.87 0 1.83-.542 2.384-2.333 2.384-1.284 0-2.634-.3-3-.667zM193 259.06c0-1.132.45-2.059 1-2.059s1 .648 1 1.441-.45 1.72-1 2.059c-.55.34-1-.309-1-1.441zm-14-3.618c0-.857.457-1.276 1.016-.93.56.345.758 1.046.441 1.558-.857 1.387-1.457 1.129-1.457-.628zm18.261 8.736l-.796-2.152-1.306 2.092c-.719 1.15-.82 1.792-.226 1.424.595-.367 1.386.126 1.758 1.095.372.97.831 1.297 1.021.728.19-.57-.013-2.004-.45-3.187zm-26.864 1.656c-.283-.458-.938-.833-1.456-.833s-.941.375-.941.833c0 .459.655.834 1.456.834.8 0 1.224-.375.941-.834zm41.973-10.63c-.336-1.813-.844-3.062-1.13-2.776-.738.738-1.085 9.88-.418 11.033.967 1.672 2.183-4.818 1.548-8.257zm2.337 1.559c-.239-1.244-.444-.462-.455 1.738-.01 2.2.185 3.218.435 2.262s.26-2.756.02-4zm-14.148.664c1.067-.866 1.426-1.319.796-1.006-.63.313-1.423-.154-1.762-1.037-.495-1.29-.134-1.485 1.834-.99 1.348.338 2.66.275 2.914-.14.255-.414-1.098-.868-3.007-1.008-3.068-.225-3.398-.021-2.836 1.75.366 1.152.183 2.005-.43 2.005-.588 0-1.068.45-1.068 1 0 1.446 1.334 1.23 3.559-.574zm-34.876-5.613c-.32-.798-.556-.561-.604.604-.043 1.054.193 1.644.525 1.312.332-.332.368-1.195.08-1.917zm43.953-4.55c-2.23-4.311-8.276-9.338-10.3-8.562-1.082.415-1.423.249-.974-.477.43-.697-.73-1.51-3.086-2.164-4.875-1.354-8.582-1.363-7.751-.02.417.675-.352.828-2.191.437-2.504-.533-2.611-.463-.923.6 1.442.907 2.36.923 3.737.063 1.004-.627 2.618-1.108 3.588-1.07 1.538.062 1.508.192-.236 1.019-1.532.726-1.118.84 1.772.488 2.075-.252 3.531-.068 3.236.41-.608.983 3.283 2.543 5.342 2.142.743-.144 1.094.152.781.659-.75 1.214 3.79 5.454 4.788 4.471.424-.417.64-.084.48.741-.488 2.516 1.18 6.322 2.285 5.216.648-.648.46-2.004-.548-3.953zm-5.231-4.513l-1.905-2.25 2.25 1.905c1.238 1.048 2.25 2.06 2.25 2.25 0 .8-.805.21-2.595-1.905zm-34.39 6.75c.025.55.523.179 1.107-.825s.758-2.128.388-2.498c-.754-.755-3.518 2.619-3.495 4.264.008.583.452.384.985-.441.533-.825.99-1.05 1.015-.5zm-1.633-3.052c.341-.89.173-1.291-.393-.94-.544.335-.989 1.033-.989 1.551 0 1.438.717 1.121 1.382-.61zm42.74-1.198c-.523-.963-2.422-3.1-4.222-4.75-2.93-2.687-2.861-2.508.664 1.717 4.248 5.092 5.04 5.766 3.557 3.033zm-35.42-2.426c.989-.866 3.093-2.235 4.675-3.043 2.365-1.209 2.578-1.584 1.198-2.114-1.124-.431-1.442-.261-.963.514.481.78.158.945-.986.506-1.052-.404-1.918-.09-2.269.824-.311.813-.904 1.269-1.316 1.014-.413-.255-1.763.615-3.001 1.933-1.668 1.775-1.848 2.337-.694 2.167.857-.125 2.367-.936 3.356-1.801zm-4.574-.574c1.243-1.586 1.208-1.621-.378-.378-.963.755-1.75 1.543-1.75 1.75 0 .823.821.294 2.128-1.372zm4-4c1.243-1.586 1.208-1.621-.378-.378-.963.755-1.75 1.543-1.75 1.75 0 .823.821.294 2.128-1.372zM182.5 235c1.319-.567 1.49-.878.5-.914-.825-.03-2.175.38-3 .914-1.828 1.181-.25 1.181 2.5 0zm9.75-1.706c-1.238-.238-3.263-.238-4.5 0-1.238.239-.225.434 2.25.434s3.487-.195 2.25-.434zm-77.347 11.693c-6.003-1.015-9.561-2.952-14.17-7.714C96.596 232.998 93 224.503 93 219c0-5.49 3.59-13.988 7.734-18.31 11.118-11.598 28.62-11.673 39.623-.17 10.401 10.874 9.937 26.872-1.095 37.71-3.728 3.662-6.056 5.014-10.722 6.224-6.458 1.675-6.806 1.689-13.637.533zm7.347-1.65c-.688-.277-1.813-.277-2.5 0-.688.278-.125.505 1.25.505s1.938-.227 1.25-.504zm-10.333-1.702c-.23-.2-1.542-.9-2.917-1.555-2.357-1.122-2.39-1.102-.559.365 1.593 1.276 4.848 2.391 3.476 1.19zm20.439-3.546c2.01-1.243 3.408-2.662 3.104-3.154-.308-.498-1.39-.371-2.442.286-1.039.648-1.67 1.534-1.401 1.968.268.433-.285.492-1.23.13-1.032-.397-1.468-.26-1.095.344.398.644-2.766 1.004-8.836 1.004-5.2 0-9.249-.207-8.996-.46.253-.253-.974-1.426-2.726-2.607-3.852-2.596-7.734-8.118-7.733-10.998 0-1.48.603-.885 2.034 2.006 1.118 2.259 3.215 5.184 4.66 6.5 1.445 1.315 2.229 1.717 1.741.892-.976-1.652-.69-4.94.564-6.5 2.275-2.826 1.437-5.394-2.75-8.43-2.488-1.805-4.25-3.89-4.25-5.029 0-1.683.825-1.986 6.104-2.243l6.105-.298 1.895-5c2.46-6.492 2.41-6.842-.854-6.048-7.611 1.853-13.8 8.89-15.216 17.3l-.799 4.748-.095-4c-.123-5.134 2.719-11.362 6.721-14.73 1.914-1.61 2.724-2.908 2.069-3.313-2.43-1.502-10.466 8.982-9.272 12.094.467 1.218.313 1.55-.488 1.054-.84-.519-1.17.846-1.17 4.836 0 3.273.439 5.559 1.067 5.559.59 0 .8.842.47 1.883-.837 2.637 4.974 9.951 9.963 12.54 5.782 3.002 17.742 2.827 22.856-.334zm-27.951-4.339l-1.905-2.25 2.25 1.905c2.114 1.79 2.705 2.595 1.905 2.595-.19 0-1.202-1.012-2.25-2.25zm33.099 3.093c1.912-2.26 1.876-2.255-1.011.142-4.796 3.982-5.106 4.318-2.982 3.23 1.106-.566 2.903-2.084 3.993-3.372zM106 238.687c0-.172-1.462-1.635-3.25-3.25L99.5 232.5l2.937 3.25c2.738 3.03 3.563 3.71 3.563 2.937zm22.98-2.937c6.974-3.563 10.357-8.587 10.797-16.037.322-5.44.026-6.732-2.38-10.388-1.778-2.702-4.542-5.083-7.836-6.75-7.313-3.7-7.73-3.443-5.174 3.175l2.222 5.75 5.937.5c7.53.634 7.988 2.343 1.836 6.855-3.994 2.928-4.49 3.69-3.907 6 1.859 7.362 1.817 9.145-.216 9.145-1.077 0-3.744-1.293-5.925-2.873l-3.967-2.874-4.774 3.537-4.774 3.536 2.84 1.256c4.475 1.978 10.456 1.653 15.321-.832zm11.627-5.957c.811-1.568 1.205-3.289.875-3.822-.33-.534-.123-.971.459-.971.582 0 1.059-.45 1.059-1 0-1.906-1.868-.99-2.549 1.25-.376 1.238-1.736 3.657-3.024 5.377-1.287 1.72-2.064 3.403-1.726 3.74.886.887 3.196-1.268 4.906-4.574zM142 232c.589-1.1.845-2 .57-2s-.981.9-1.57 2c-.589 1.1-.845 2-.57 2s.981-.9 1.57-2zm-43.184-2.504c-.627-1.378-1.33-2.316-1.56-2.086-.467.467 1.561 4.59 2.258 4.59.244 0-.07-1.127-.698-2.504zm18.646-.989l2.962-2.42 3.354 2.557c1.844 1.407 3.624 2.288 3.954 1.957.33-.33-.036-.608-.815-.616-1.183-.013-1.174-.17.057-.948.969-.613 1.771-.522 2.344.266.54.741.612.435.191-.803-1.978-5.822-1.724-7.96 1.164-9.825 2.45-1.581 2.527-1.76.577-1.343-2.485.53-2.89-.292-1.05-2.132.933-.933.525-1.2-1.84-1.2-2.255 0-3.327-.632-4.156-2.451-.775-1.7-1.74-2.33-3.156-2.058-1.96.377-1.978.274-.47-2.642.863-1.67 1.311-3.293.996-3.609-.316-.315-.574-.022-.574.652s-.395.982-.878.683c-1.16-.716-2.248 4.908-1.601 8.273.431 2.243.364 2.343-.435.652-.52-1.1-.977-1.437-1.016-.75-.044.78-1.67 1.28-4.32 1.329-2.338.043-3.575.341-2.75.662.825.321 2.054 1.298 2.731 2.171 1.003 1.294 1.394 1.34 2.11.254.712-1.077.997-1.03 1.488.25.335.871.247 1.584-.194 1.584-.44 0-.802.675-.802 1.5 0 .858.892 1.493 2.084 1.485 1.174-.01 1.626-.336 1.035-.75-1.862-1.305-1.45-5.002.617-5.543 1.06-.277 2.181-.096 2.489.402.308.498 1.546.913 2.751.921 1.583.011 1.82.25.856.862-.735.466-1.297 1.134-1.25 1.485.256 1.917-.032 2.638-1.055 2.638-.627 0-1.785.788-2.574 1.75-.789.963-1.151 1.19-.805.507.43-.853-.175-1.177-1.926-1.032-1.772.146-2.555.795-2.555 2.116 0 1.663.222 1.732 1.75.549 1.35-1.046 1.293-.788-.25 1.127-1.1 1.366-2.45 2.814-3 3.218-.667.49-.667.727 0 .714.55-.012 2.333-1.11 3.962-2.442zM125 227c-1.213-.784-1.07-.972.75-.985 1.238-.008 2.25.435 2.25.985 0 1.253-1.061 1.253-3 0zm-11.244-.75c.183-2.625.125-2.662-1.282-.809-1.813 2.388-1.876 3.559-.192 3.559.705 0 1.368-1.238 1.474-2.75zm30.927-1.438c-.32-.797-.556-.56-.604.605-.043 1.054.193 1.644.525 1.312.332-.332.368-1.195.08-1.917zm-30.05-3.062c-.352-2.323-1.617-3.549-4.81-4.662l-3.18-1.108 3.929 3.468c4.587 4.05 4.302 3.89 4.061 2.302zM144 219c0-1.035-.397-2.127-.883-2.427-.485-.3-.829.759-.764 2.354.128 3.125 1.647 3.192 1.647.073zm1.69-1.75c-.252-.963-.458-.175-.458 1.75s.206 2.712.457 1.75c.252-.963.252-2.538 0-3.5zM122 219.559c0-1.055-1.92-1.499-2.49-.575-.345.559.073 1.016.931 1.016.857 0 1.559-.198 1.559-.441zM143 214c0-.55-.45-1-1-1s-1 .45-1 1 .45 1 1 1 1-.45 1-1zm-2.477-5.956c-2.27-4.39-9.525-10.178-11.837-9.444-1.275.404-1.703.236-1.252-.493.78-1.262.398-1.363-1.867-.494-1.117.428.137 1.436 4.168 3.349 4.424 2.1 6.305 3.705 8.087 6.902 2.566 4.603 5.074 4.77 2.7.18zM98.92 208c1.122-2.357 1.102-2.39-.365-.559-.855 1.068-1.555 2.38-1.555 2.917 0 1.27.462.703 1.92-2.358zm24.08-1c0-.55-.198-1-.441-1s-.72.45-1.059 1c-.34.55-.141 1 .441 1s1.059-.45 1.059-1zm-14.5-9.37c.55-.481.1-.408-1 .162s-3.35 2.537-4.998 4.372l-2.998 3.336 3.998-3.497 4.998-4.373zm4.953 2.21c2.506-1.143 3.46-2.84 1.594-2.84-1.94 0-5.967 2.321-5.457 3.146.675 1.092.817 1.081 3.863-.307zm10.185-3.144c.382-.383-1.067-.664-3.221-.626-2.987.054-3.442.259-1.917.864 2.24.888 4.098.802 5.138-.238zm8.862.304c-.34-.55-1.154-.993-1.809-.985-.716.01-.592.403.309.985 1.921 1.242 2.267 1.242 1.5 0zm-9.738-2.687c-.956-.25-2.756-.26-4-.02-1.244.239-.462.444 1.738.455 2.2.01 3.218-.185 2.262-.435zm55.7 10.321c-5.999-2.793-12.65-9.983-14.286-15.44-1.462-4.88-1.524-14.136-.12-17.879 1.942-5.179 6.13-10.225 11.164-13.456 4.235-2.718 6.159-3.27 12.721-3.65 8.835-.51 14.042 1.203 20.273 6.674 6.107 5.362 8.22 10.395 8.237 19.617.016 8.65-1.67 13.21-6.93 18.757-7.36 7.76-20.906 10.105-31.06 5.377zm15.306-.349c-1.503-.228-4.203-.232-6-.01-1.797.223-.568.41 2.732.415 3.3.006 4.77-.176 3.268-.405zm2.42-2.615c.731-.732 1.86-1.154 2.508-.938.649.216 2.07-.498 3.158-1.586 1.089-1.089 2.165-1.794 2.392-1.567.614.614 4.554-3.845 4.93-5.579.178-.825.72-1.787 1.202-2.138.483-.351.531-1.2.108-1.885-1.03-1.666-3.483 2.823-2.719 4.973.304.852.193 1.225-.246.828-.44-.397-2.12.39-3.737 1.75-1.615 1.36-3.38 2.472-3.92 2.472s-.707.445-.371.989c.338.547-.024.745-.812.442-.783-.3-2.158.19-3.057 1.088-1.035 1.034-2.896 1.525-5.075 1.337-1.893-.163-3.766.027-4.162.424-.396.396 1.348.72 3.875.72s5.194-.599 5.925-1.33zm7.812-5.048c0-.207.787-.995 1.75-1.75 1.586-1.243 1.621-1.208.378.378-1.307 1.666-2.128 2.195-2.128 1.372zm-19.117 4.471c1.026-.649.62-1.043-1.565-1.523-2.696-.592-12.466-7.718-12.362-9.017.167-2.098-.094-2.586-1.063-1.987-.608.376-.721.965-.25 1.309s.98 1.3 1.131 2.125c.412 2.257 8.38 9.155 9.9 8.572.73-.28 1.326-.073 1.326.46 0 1.193 1.06 1.216 2.883.061zm-10.959-5.843l-2.424-2.75 2.75 2.424c2.57 2.266 3.209 3.076 2.424 3.076-.179 0-1.416-1.238-2.75-2.75zm2.076 5.446c0-.167-1.688-1.854-3.75-3.75l-3.75-3.446 3.446 3.75c3.208 3.49 4.054 4.21 4.054 3.446zm32-3.196c1.866-1.925 3.167-3.5 2.892-3.5-.275 0-2.026 1.575-3.892 3.5s-3.167 3.5-2.892 3.5c.275 0 2.026-1.575 3.892-3.5zm-6.722-1.763c3.846-2.933 8.228-10.892 7.937-14.415-.102-1.223.212-2.468.696-2.767 1.38-.853 2.25 2.547 1.027 4.02-.796.959-.788 1.813.03 3.123.978 1.564 1.04 1.488.473-.573-.445-1.612-.3-2.155.452-1.691 1.605.992 1.403-4.345-.354-9.324-4.064-11.518-16.254-18.437-27.278-15.483-4.248 1.139-1.361 1.982 6.16 1.8 4.15-.1 7.36.117 7.134.483-.226.366.943 1.265 2.597 1.997 1.655.732 4.262 3.063 5.795 5.179 1.533 2.116 3.144 3.524 3.58 3.13.437-.394.443-.11.014.631-.58 1.003-1.927.182-5.274-3.212-3.278-3.325-5.975-4.99-9.962-6.149-5.063-1.472-5.813-1.462-10.136.125-4.455 1.636-11.169 6.826-11.169 8.635 0 .47 2.531.719 5.625.554l5.625-.3 1.755-4.5c1.196-3.07 2.34-4.5 3.596-4.5 1.271 0 2.356 1.395 3.498 4.5 1.59 4.317 1.835 4.51 6.029 4.764 10.468.631 11.768 3.148 4.284 8.297-3.73 2.566-4.469 3.557-3.948 5.298 3.052 10.206 1.08 12.807-5.907 7.789l-4.33-3.11-3.751 2.981c-2.063 1.64-4.23 2.981-4.814 2.981-1.594 0 .483 1.711 2.838 2.338 1.1.292 4.758.43 8.13.307 4.896-.18 6.838-.765 9.648-2.908zM209 175.56c0-.857.45-1.559 1-1.559s1 .423 1 .941-.45 1.22-1 1.559c-.55.34-1-.084-1-.941zm-30.48 19.473c-.33-.533.056-3.476.856-6.541l1.455-5.572-3.665-2.422c-5.379-3.553-6.7-4.773-7.585-6.997l-.796-2-.822 2c-.991 2.41-1.197 8.726-.356 10.918 1.2 3.13 2.14 1.49 1.817-3.168l-.33-4.75.805 4c1.135 5.63 2.497 8.628 5.592 12.306 2.539 3.018 4.333 4.336 3.029 2.226zM189.965 188c.378 0 1.743 1.125 3.035 2.5s2.806 2.5 3.365 2.5c.56 0 .144-.66-.924-1.468-1.067-.808-1.548-1.483-1.069-1.5.48-.018.375-.632-.234-1.365-.837-1.01-.746-1.334.378-1.334.816 0 1.484.375 1.484.834 0 .458.413.833.918.833 1.082 0 .704-7.168-.482-9.139-.683-1.134-.549-1.141.805-.044 1.36 1.101 2.045 1.042 4.192-.365 3.338-2.187 3.238-2.505-.452-1.447-1.852.531-2.796.504-2.441-.07.324-.524-1.093-.884-3.231-.819-2.095.064-3.022.322-2.059.573 1.86.486 2.37 2.81.826 3.764-.509.314-1.131-.222-1.384-1.19-.35-1.342-.488-1.225-.576.487-.064 1.237-.593 2.25-1.175 2.25-.582 0-.776.457-.43 1.016.345.56 1.046.758 1.558.441.512-.316.931-.099.931.484 0 .582-.563 1.128-1.25 1.211-.688.084-1.7.22-2.25.303-2.449.368-7.167 3.555-7.167 4.841 0 1.043.918.795 3.473-.94 1.91-1.295 3.782-2.356 4.16-2.356zm4.035-3.382c0-.825.45-1.778 1-2.118.55-.34 1 .057 1 .882s-.45 1.778-1 2.118c-.55.34-1-.057-1-.882zm-11.212 1.245c-.25-.749-.703-.295-1.057 1.057-.435 1.663-.305 2.054.437 1.312.582-.582.86-1.647.62-2.369zm6.835-.214c1.412.514 1.282.188-.524-1.314-1.864-1.55-2.253-2.585-1.742-4.622.762-3.034 5.265-4.357 11.449-3.363 2.741.44 3.307.322 2.194-.457-1.167-.817-.897-.953 1.22-.616 1.636.261 2.476.04 2.107-.556-.626-1.013-13.532-.347-16.68.86-.906.348-1.647 1.56-1.647 2.693 0 1.132-.338 1.719-.75 1.302-.412-.416-.75-1.729-.75-2.916 0-1.751-.663-2.21-3.5-2.426-2.918-.222-3.2-.083-1.69.834.997.605 2.46.85 3.25.547.792-.304 1.44-.116 1.44.416 0 .533-.702.969-1.559.969-.885 0-1.263.478-.875 1.107.812 1.314-3.326.24-5.363-1.391-1.063-.852-1.063-1.188 0-1.862.965-.613.849-.827-.453-.839-2.965-.026-1.956 1.881 2.75 5.198 2.475 1.745 4.5 3.562 4.5 4.039 0 .476.52.545 1.155.153.715-.443.883-.275.44.44-1.106 1.792.324 3.467 1.867 2.186.707-.586 2.129-.758 3.161-.382zm25.095-7.385c-.23-1.52-.424-.514-.432 2.236-.007 2.75.18 3.994.418 2.764.237-1.23.243-3.48.014-5zM191 179.94c0-.518-.45-.941-1-.941s-1 .702-1 1.559.45 1.28 1 .941c.55-.34 1-1.041 1-1.559zm-25.317-5.129c-.32-.797-.556-.56-.604.605-.043 1.054.193 1.644.525 1.312.332-.332.368-1.195.08-1.917zm6.155-2.912c-1.319-.815 5.51-8.558 8.34-9.457 1.537-.487 1.743-.918.855-1.792-.883-.87-1.517-.677-2.6.79-.788 1.068-1.433 1.546-1.433 1.063 0-.483-1.345.41-2.99 1.986-1.644 1.575-2.776 3.078-2.515 3.338.26.26-.248 1.002-1.13 1.647-1.37 1.002-1.41 1.481-.268 3.309.925 1.48 1.559 1.773 2.066.953.402-.652.256-1.478-.325-1.837zm15.671 2.115c-.374-.605.665-.794 2.691-.49 1.815.272 2.633.193 1.818-.176-1.746-.79-4.444-3.349-3.53-3.349.346 0 .294-.544-.118-1.21-.482-.78-1.02-.189-1.516 1.664-.717 2.681-.404 4.546.764 4.546.275 0 .226-.443-.109-.985zm4.908-4.372c-.347-.904-1.019-1.643-1.493-1.643-.474 0-.62-.63-.324-1.399.295-.77.06-1.693-.52-2.052-.665-.41-.813-.016-.399 1.063.471 1.226.297 1.492-.61.931-1.024-.632-1.028-.324-.021 1.586 1.976 3.75 4.693 4.972 3.367 1.514zM213 171.191c0-.445-.682-1.682-1.516-2.75-1.406-1.8-1.43-1.741-.34.809 1.178 2.751 1.856 3.461 1.856 1.941zm-43.511-3.814c.945-1.443 1.224-2.318.62-1.944-1.154.713-3.483 4.567-2.76 4.567.232 0 1.194-1.18 2.14-2.623zM210 165.655c0-.19-1.012-1.202-2.25-2.25l-2.25-1.905 1.905 2.25c1.79 2.114 2.595 2.705 2.595 1.905zm-5.564-4.76c-1.2-1.941-8.818-4.854-12.436-4.755-3.117.085-2.977.183 1.27.898 2.625.441 6.225 1.7 8 2.8 3.903 2.413 4.029 2.455 3.166 1.058zm-24.91-2.702c-.307-.308-1.114 0-1.793.683-.98.988-.865 1.102.56.56.986-.376 1.541-.935 1.233-1.243zm7.724-1.855c-.688-.278-1.813-.278-2.5 0-.688.277-.125.504 1.25.504s1.938-.227 1.25-.504zM47.975 204.935c-10.484-1.184-17.23-6.691-21.073-17.203-1.974-5.402-2.554-14.628-1.023-16.282.484-.522 1.415-2.627 2.07-4.676 2.452-7.674 13.962-14.768 23.98-14.779 11.183-.012 22.508 8.004 25.49 18.042 6.147 20.702-7.885 37.333-29.444 34.898zm5.754-1.54c-.332-.331-1.195-.367-1.916-.078-.798.32-.561.556.604.604 1.054.043 1.644-.193 1.312-.525zm6-1c-.332-.331-1.195-.367-1.916-.078-.798.32-.561.556.604.604 1.054.043 1.644-.193 1.312-.525zm-21.438-3.947c-1.765-1.391-4.39-3.974-5.831-5.739-1.442-1.765-2.16-2.27-1.594-1.123 1.107 2.244 8.653 9.421 9.887 9.403.41-.006-.697-1.15-2.462-2.54zm21.518 1.689c.72-.075 1.095-.484.833-.908-.262-.424-4.346-.68-9.075-.57-5.097.119-8.364-.178-8.024-.73.52-.84-.837-1.296-2.024-.679-.264.138-1.195-.77-2.068-2.017-.888-1.267-2.109-1.968-2.77-1.59-.65.373-.86.321-.466-.114.974-1.08-1.08-4.73-2.254-4.005-.53.328-.652-.167-.28-1.136.447-1.164.283-1.484-.511-.993-1.344.83-1.396-.043-.17-2.895.643-1.497.877-1.597.93-.4.145 3.306 6.135 10 10.7 11.955 9.802 4.202 18.308 1.008 24.685-9.27 2.533-4.08 2.244-12.669-.565-16.794-3.058-4.493-8.565-8.663-12.518-9.482l-3.269-.676 2.099 5.324c1.154 2.928 2.625 5.659 3.268 6.068.644.41 3.307.751 5.92.76 6.115.02 6.358 2.29.694 6.48-3.562 2.637-3.937 3.304-3.37 6 .35 1.67 1.04 3.463 1.531 3.985 1.432 1.52 1.034 4.56-.684 5.219-.925.355-3.406-.683-6-2.511L52 188.04l-4.421 3.117c-6.893 4.858-9.291 2.384-6.168-6.364l1.323-3.706-3.914-2.713c-2.768-1.918-3.828-3.322-3.617-4.794.248-1.74 1.184-2.163 5.7-2.581l5.404-.5 1.706-5.25c.938-2.887 1.274-5.25.747-5.25-2.513 0-8.171 3.663-11.293 7.31-1.907 2.227-3.467 3.714-3.467 3.304 0-1.57 2.415-5.153 4.668-6.925 1.293-1.017 2.088-2.275 1.767-2.795-.78-1.263-6.918 5.233-6.572 6.956.149.743-.204 1.057-.785.698-.663-.41-.81-.014-.397 1.064.444 1.157.281 1.483-.5 1-.77-.476-.947-.167-.53.92.502 1.31.796 1.37 1.473.302.636-1.003.85-.871.86.533.012 1.345-.515 1.727-1.888 1.368-1.489-.389-1.996.13-2.327 2.384-.597 4.067.267 8.977 1.45 8.246.604-.374.745.174.358 1.392-.878 2.768 4.79 10.002 9.923 12.667 3.6 1.868 10.575 2.52 18.309 1.713zM32.252 178.5c.011-2.2.216-2.982.455-1.738.24 1.244.23 3.044-.02 4s-.446-.062-.435-2.262zm37.084 14.55c2.015-2.23 3.689-4.617 3.72-5.303.552-12.493.078-18.175-1.62-19.417-1-.731-1.423-1.33-.94-1.33 1.395 0-4.718-6.033-7.683-7.582-1.477-.772-3.464-1.106-4.414-.741-1.174.45-1.496.288-1.004-.507.797-1.29-.646-1.477-4.145-.54-1.238.332-2.25.959-2.25 1.393 0 .434.87.562 1.934.284 5.255-1.374 15.97 5.84 18.054 12.156.98 2.968 1.184 18.043.232 17.09-.21-.21-1.955 1.361-3.878 3.49-1.924 2.13-4.422 4.165-5.552 4.524-1.56.494-1.734.85-.726 1.473 1.796 1.11 3.917-.17 8.272-4.99zM68.5 192c.995-1.1 2.035-2 2.31-2 .275 0-.315.9-1.31 2-.995 1.1-2.035 2-2.31 2-.275 0 .315-.9 1.31-2zm-.628-26.75c-1.243-1.586-1.208-1.621.378-.378.963.755 1.75 1.543 1.75 1.75 0 .823-.821.294-2.128-1.372zm2.256 31c1.243-1.586 1.208-1.621-.378-.378-.963.755-1.75 1.543-1.75 1.75 0 .823.821.294 2.128-1.372zm-25.304-6.025c.728-.15 2.603-1.22 4.167-2.377l2.844-2.102 3.198 2.278c2.818 2.006 3.079 2.051 2.192.376-.553-1.045-.898-3.617-.765-5.716.132-2.1-.03-3.416-.36-2.927-1.392 2.062-4.423 2.101-8.656.112-5.456-2.565-6.306-3.766-3.906-5.52C45.21 173.125 45.042 173 41.75 173c-1.998 0-3.957.526-4.355 1.17-.49.794-.171.958.993.511.995-.381 1.466-.253 1.12.306-.327.53.835 2.241 2.583 3.803 2.743 2.45 3.023 3.128 2.047 4.952-.622 1.162-.831 2.895-.464 3.85.453 1.182.292 1.505-.504 1.013-.765-.473-1.165.075-1.155 1.586.009 1.27.346 1.859.75 1.309s1.33-1.124 2.059-1.275zm.176-3.154c0-1.139.338-2 .75-1.915.412.086 1.875-.335 3.25-.936 2.307-1.01 2.336-1.098.372-1.157-1.17-.035-2.708-.763-3.418-1.618-1.152-1.389-.978-1.421 1.628-.305 1.605.688 3.401 1.602 3.992 2.032.59.43 1.603.251 2.25-.396.901-.901 1.176-.896 1.176.024 0 .66-.563 1.232-1.25 1.27-.688.039-.35.457.75.93 1.63.7 1.688.872.309.93-.93.038-1.97-.381-2.31-.933-.704-1.137-3.374.021-5.921 2.568-1.437 1.437-1.578 1.393-1.578-.494zm16.051 1.655c-.406-1.8-1.257-4.243-1.892-5.429-.994-1.858-.79-2.442 1.478-4.226 2.038-1.603 2.244-2.071.915-2.071-.945 0-1.52-.563-1.276-1.25.243-.688 1.685-1.158 3.205-1.045 4.917.365 1.654-1.053-4.25-1.847-8.009-1.077-8.731-1.274-8.731-2.38 0-.538.342-.864.76-.724.42.139.197-.65-.493-1.755-1.203-1.926-1.295-1.887-2.26.967-.554 1.637-1.825 3.93-2.825 5.095-1.756 2.049-1.756 2.165 0 3.483 1.552 1.164 1.99 1.137 3-.187.649-.853.944-2.295.655-3.204-.313-.986-.185-1.24.319-.63 1.626 1.97 5.86 4.177 7.532 3.926 1.37-.206 1.524.178.816 2.041-.996 2.62-.261 6.51 1.23 6.51.55 0 .787 1.11.528 2.465-.26 1.356.026 2.67.633 2.921.608.25 1.17.492 1.25.535.08.043-.188-1.394-.594-3.195zM75.914 186c-.036-.99-.347-.819-.914.5-1.181 2.75-1.181 4.328 0 2.5.533-.825.945-2.175.914-3zm.77-4.188c-.32-.797-.557-.56-.605.605-.043 1.054.193 1.644.525 1.312.332-.332.368-1.195.08-1.917zm-1.995-4.562c-.251-.963-.457-.175-.457 1.75s.206 2.712.457 1.75c.252-.963.252-2.538 0-3.5zm-47-1c-.251-.963-.457-.175-.457 1.75s.206 2.712.457 1.75c.252-.963.252-2.538 0-3.5zM53 179c0-.55-.477-1-1.059-1s-.78.45-.441 1c.34.55.816 1 1.059 1s.441-.45.441-1zm23.662-3.25c-.277-.688-.504-.125-.504 1.25s.227 1.938.504 1.25c.278-.688.278-1.813 0-2.5zM55 170.059c0-.518-.45-1.22-1-1.559-.55-.34-1 .084-1 .941S53.45 171 54 171s1-.423 1-.941zM30.92 167c1.122-2.357 1.102-2.39-.365-.559-.855 1.068-1.555 2.38-1.555 2.917 0 1.27.462.703 1.92-2.358zm43.204.733c-.988-.98-1.102-.865-.56.56.376.986.935 1.541 1.243 1.233.308-.307 0-1.114-.683-1.793zM51.667 164.5c0-.825-.375-1.5-.834-1.5-.998 0-1.098 1.401-.166 2.333.927.927 1 .866 1-.833zM72 163.622c0-.207-.787-.995-1.75-1.75-1.586-1.243-1.621-1.208-.378.378 1.307 1.666 2.128 2.195 2.128 1.372zm-36.872-2.372c1.243-1.586 1.208-1.621-.378-.378-.963.755-1.75 1.543-1.75 1.75 0 .823.821.294 2.128-1.372zm7.493-1.054c-.273-.442 1.022-.846 2.878-.899 1.857-.052 4.416-.867 5.688-1.81l2.313-1.715-2.5.6c-1.375.33-3.314.607-4.309.614-1.125.008-1.536.457-1.086 1.184.494.799.166.956-1.031.497-2.047-.786-3.864.055-3.031 1.402.316.512.8.931 1.075.931.275 0 .277-.362.003-.804zm.296-3.831c1.372-1.201-1.883-.086-3.476 1.19-1.83 1.467-1.798 1.487.559.365 1.375-.655 2.688-1.355 2.917-1.555zm9.833-2.054c-.963-.252-2.538-.252-3.5 0-.963.251-.175.457 1.75.457s2.712-.206 1.75-.457zm-9.78-26.784C27.766 122.63 20.43 103.99 27.89 89.22c3.138-6.21 4.531-7.679 10.61-11.185 5.59-3.224 15.88-3.927 22.195-1.515 5.87 2.242 13.038 8.734 15.434 13.979 2.331 5.104 2.504 17.045.322 22.282-1.944 4.668-7.788 10.787-12.743 13.344-5.043 2.603-14.932 3.27-20.739 1.4zm11.28-1.233c-1.238-.238-3.263-.238-4.5 0-1.238.239-.225.434 2.25.434s3.487-.195 2.25-.434zm.292-2.362c.363-.588 1.316-.817 2.117-.51 3.7 1.42 13.125-6.246 15.884-12.922 1.944-4.703 1.112-15.704-1.509-19.944-2.6-4.208-4.683-3.849-2.252.388.915 1.594 1.987 2.699 2.381 2.455.395-.244.682 3.034.638 7.284-.057 5.582-.581 8.552-1.888 10.701-.995 1.636-1.536 3.456-1.2 4.045.334.59.235.733-.222.319-1.144-1.039-4.594 2.256-3.807 3.636.35.614.301.815-.109.448-1.021-.916-6.701 1.155-6.051 2.206.286.464-1.04.59-2.946.281-1.906-.31-5.179-.208-7.272.226l-3.806.788 3 .715c4.556 1.086 6.317 1.057 7.042-.116zm-10.107-1.827c.708-1.146-2.273-2.323-3.68-1.454-.672.416-.766.176-.255-.651.579-.936.41-1.081-.595-.508-.996.568-1.11.478-.392-.309.74-.81 2.091-.726 5 .31 10.015 3.566 19.989-.42 24.52-9.798C71.123 105.37 71.609 98.49 70 96c-.862-1.333-.97-1.333-.97 0 0 .825-1.907 3.14-4.239 5.146l-4.239 3.647 1.684 5.264c.925 2.896 1.45 5.642 1.165 6.104-.998 1.613-4.076.816-7.924-2.053l-3.879-2.893-4.41 3.368c-3.539 2.701-4.787 3.167-6.309 2.352-2.009-1.075-1.88-3.208.562-9.388 1.076-2.723.93-3.152-1.887-5.524-7.32-6.164-6.864-6.238-6.402 1.029.335 5.248.973 7.245 3.285 10.277 2.33 3.054 2.625 3.99 1.57 4.967-1.03.954-1.134.912-.5-.2.586-1.027.424-1.186-.602-.59-.773.448-1.083.458-.69.023.974-1.08-1.08-4.73-2.254-4.005-.53.327-.652-.167-.28-1.136.444-1.157.281-1.483-.5-1-.78.482-.943.156-.5-1 .444-1.157.281-1.483-.5-1-.756.468-.952.178-.563-.836.328-.854.098-1.552-.511-1.552-3.214 0 2.427 9.931 7.66 13.488 4.032 2.74 4.833 2.968 5.668 1.617zm22.693-.855c1.243-1.586 1.208-1.621-.378-.378-.963.755-1.75 1.543-1.75 1.75 0 .823.821.294 2.128-1.372zM37 121.674c0-.179-1.238-1.416-2.75-2.75L31.5 116.5l2.424 2.75c2.266 2.57 3.076 3.209 3.076 2.424zm22.588-13.746c-1.52-3.799-1.499-4.02.549-5.69 3.362-2.742 6.62-5.846 4.912-4.681-2.664 1.817-7.214 3.518-6.554 2.45.343-.554.259-1.013-.186-1.02-.445-.008-1.791-.278-2.991-.6-1.835-.492-2.095-.25-1.634 1.514.302 1.154.995 2.099 1.54 2.099.544 0 .716-.787.38-1.75-.507-1.459-.359-1.427.894.191.826 1.068 1.495 2.418 1.487 3-.009.583-.452.384-.985-.441-.862-1.333-.97-1.333-.978 0-.005.825.885 2.85 1.978 4.5s2.042 4.125 2.11 5.5c.088 1.8.253 1.994.59.69.259-.995-.242-3.588-1.112-5.762zM51.902 109c.412 0 1.806 1.125 3.098 2.5 1.292 1.375 2.833 2.486 3.424 2.47.592-.017.279-.495-.695-1.062-.974-.567-1.53-1.42-1.236-1.897.295-.477-.377-1.157-1.493-1.511-1.116-.354-1.81-1-1.54-1.434.268-.435-.288-.726-1.236-.648-2.118.176-9.24 4.573-7.415 4.578.788.002 1.005.502.545 1.254-.421.688.712.013 2.517-1.5 1.805-1.512 3.62-2.75 4.031-2.75zM45 108.071c0-.589-.45-1.071-1-1.071s-1 .413-1 .918c0 .505-.312 1.743-.694 2.75-.65 1.716-.587 1.726 1 .153.932-.923 1.694-2.16 1.694-2.75zm6.69-1.715c.744.744 3.31-1.204 3.31-2.514 0-.502-.937-.411-2.082.202-1.678.898-2.327.779-3.347-.616-.832-1.139-1.496-1.358-1.94-.64-.37.599.124 1.553 1.098 2.12 1.445.841 1.485 1.037.221 1.062-.853.016-2.09-.51-2.75-1.17-1.335-1.335-1.63-.083-.607 2.58.531 1.386.843 1.38 3.03-.053 1.342-.879 2.721-1.316 3.066-.971zm-23.972-6.092c-.23-1.52-.424-.514-.432 2.236-.007 2.75.18 3.994.418 2.764.237-1.23.243-3.48.014-5zm2.5.556c.2-2.024.008-3.46-.427-3.19-.435.268-.755 2.374-.712 4.679.089 4.704.593 4.045 1.14-1.489zm17.107 1.522c.362-.362.148-1.272-.475-2.023-.883-1.064-.806-1.24.348-.796 1.874.718 3.474-1.183 4.23-5.029.557-2.828.507-2.8-.91.506l-1.5 3.5.606-3.5c.334-1.925.998-3.987 1.476-4.583.547-.683.311-1.084-.639-1.084-1.563 0-2.969 3.69-2.729 7.167.11 1.6.037 1.65-.37.25-.396-1.362-1.545-1.731-5.185-1.664-4.389.08-4.492.142-1.677.995 1.65.5 3.562.7 4.25.446.688-.256 1.25-.028 1.25.504 0 .533-.498.969-1.107.969s-.855.656-.548 1.457c.468 1.22.12 1.27-2.143.304-1.486-.633-3.264-1.57-3.952-2.079-.688-.51-1.25-.663-1.25-.34 0 .855 7.27 5.658 8.565 5.658.606 0 1.398-.296 1.76-.658zm4.675-.901c0-.857-.457-1.276-1.016-.93-.56.345-.758 1.046-.441 1.558.857 1.387 1.457 1.129 1.457-.628zm23.683-5.629c-.32-.797-.556-.56-.604.605-.043 1.054.193 1.644.525 1.312.332-.332.368-1.195.08-1.916zm-10.766-.454c.229-.197-1.71-.358-4.31-.358-2.673 0-4.474.406-4.148.934.51.825 7.373.358 8.458-.576zm-31.993-1.5c-1.07-2-1.227-3.494-.264-2.531.735.734 3.965-3.393 3.582-4.577-.133-.412.32-.638 1.008-.5s1.126-.346.975-1.074c-.164-.793.199-1.032.905-.596.789.488.911.296.37-.58-.51-.827-.417-1.067.255-.651 1.377.85 4.395-.297 3.707-1.41-.29-.468-1.3-.581-2.244-.25-2.367.827-8.244 6.46-7.685 7.365.25.405-.248 1.006-1.108 1.336-1.075.413-1.352 1.265-.887 2.73.455 1.434.315 1.907-.43 1.446-.61-.376-1.108-.235-1.108.313s.866.931 1.924.852c1.5-.113 1.72-.526 1-1.872zm12.823-1.108c.546-.688 1.535-2.934 2.198-4.992.663-2.059 1.959-4.182 2.88-4.72 2.316-1.351 1.463-1.255-4.252.478-5.22 1.584-7.57 3.275-10.749 7.734L33.864 94h5.445c3.161 0 5.862-.524 6.438-1.25zm8.498-1.25c-.263-1.375-.65-2.5-.862-2.5-.21 0-.383 1.125-.383 2.5s.388 2.5.861 2.5c.474 0 .647-1.125.384-2.5zm12.783-.46c-2.755-3.87-7.092-6.903-10.981-7.68l-3.122-.625 2.037 5.17C56.083 90.747 57 93.281 57 93.536c0 .255 2.73.463 6.068.463h6.068zM35 84.5c1.866-1.925 3.167-3.5 2.892-3.5-.275 0-2.026 1.575-3.892 3.5S30.833 88 31.108 88c.275 0 2.026-1.575 3.892-3.5zm16.382 1.948c.341-.89.173-1.291-.393-.94-.544.335-.989 1.033-.989 1.551 0 1.438.717 1.121 1.382-.61zm15.584-.989c-.622-.749-3.432-2.509-6.245-3.91-4.982-2.483-9.917-3.14-14.46-1.922-2.395.642-2.135 2.373.357 2.373.825 0 1.222-.45.882-1-.378-.612 1.176-1 4-1 2.551 0 4.364.411 4.05.919-.312.505.683 1.193 2.211 1.529 1.528.335 4.12 1.679 5.758 2.986 3.062 2.44 5.467 2.459 3.447.025zM72 87.687c0-.172-1.462-1.635-3.25-3.25L65.5 81.5l2.937 3.25C71.175 87.78 72 88.46 72 87.687zM53.75 77.284c-1.512-.23-3.987-.23-5.5 0-1.512.229-.275.416 2.75.416s4.263-.187 2.75-.416zm126.653 49.637c-4.231-1.228-12.017-8.279-14.677-13.293-3.274-6.168-3.146-18.327.263-25.003 4.681-9.165 12.786-13.969 23.511-13.935 16.444.051 27.528 10.844 27.478 26.756-.05 16.275-10.424 26.638-26.478 26.454-3.85-.044-8.393-.485-10.097-.979zm13.325-1.65c-2.075-.217-5.225-.214-7 .007-1.776.221-.078.398 3.772.394 3.85-.004 5.302-.185 3.228-.402zM201 124c.825-.533 1.05-.97.5-.97s-1.675.437-2.5.97c-.825.533-1.05.97-.5.97s1.675-.437 2.5-.97zm-3.684-1.202c1.201-.661 2.805-1.305 3.565-1.43 2.364-.392 8.275-6.678 10.22-10.868 1.788-3.855 2.774-16.427 1.079-13.756-.435.683-.722 3.255-.64 5.713.096 2.806-.226 4.237-.864 3.843-.612-.379-.762.033-.377 1.036.351.916.155 1.664-.437 1.664-.607 0-.788.75-.416 1.72.363.945.351 1.41-.026 1.033-.775-.774-4.42 3.476-4.42 5.155 0 .6-.338 1.013-.75.917-1.18-.274-6.25 2.406-6.25 3.304 0 .445-.749.52-1.664.17-1.065-.41-1.421-.245-.988.455.46.746-1.076 1.052-4.836.964-3.032-.071-5.512-.388-5.512-.704 0-.317-1.433-1.116-3.184-1.777-4.125-1.557-2.927-2.82 1.282-1.353 13.103 4.568 25.902-3.838 25.902-17.011v-3.997l-4.533 3.255c-2.802 2.013-4.329 3.788-3.998 4.65.295.766.824 3.2 1.177 5.408.908 5.68-.901 6.42-6.415 2.626l-4.404-3.03-4.327 3.108c-5.84 4.194-7.96 4.151-7.098-.143 2.018-10.066 2.04-9.977-3.39-13.507-2.986-1.94-5.018-2.75-5.027-2-.01.85-.334.772-1-.243-.876-1.333-1.094-1.333-1.97 0-1.6 2.439-1.241 7 .552 7 1.14 0 1.401-.615.959-2.25-.563-2.078-.494-2.059.897.25.828 1.375 1.522 3.253 1.542 4.173.02.92 1.57 3.684 3.445 6.14 2.31 3.029 3.082 4.795 2.392 5.485-.69.69-.338 1.38 1.09 2.145 1.16.62 2.108.854 2.108.52 0-.333.707.101 1.571.966 1.91 1.91 11.508 2.15 14.745.37zm8.684-7.176c0-.207.787-.995 1.75-1.75 1.586-1.243 1.621-1.208.378.378-1.307 1.666-2.128 2.195-2.128 1.372zm-.872 5.628c1.243-1.586 1.208-1.621-.378-.378-1.666 1.307-2.195 2.128-1.372 2.128.207 0 .995-.787 1.75-1.75zm-29.128.446c0-.167-1.688-1.854-3.75-3.75l-3.75-3.446 3.446 3.75c3.208 3.49 4.054 4.21 4.054 3.446zm-.569-5.772c-.934-1.032-2.165-1.589-2.735-1.236-.63.39-.791.002-.41-.992.683-1.778-.788-3.31-1.724-1.797-.782 1.266 4.372 7.26 5.594 6.504.57-.351.268-1.382-.725-2.479zm15.24-8.1c-1.301-.838-4.974 1.632-5.253 3.536-.15 1.022.685.823 3.047-.726 1.884-1.236 2.813-2.418 2.207-2.81zm6.996 3.72c0-.8-.32-1.258-.712-1.016-1.01.624-1.955-4.811-1.284-7.38.34-1.298.097-2.148-.613-2.148-.647 0-.906.437-.576.97 1.04 1.683-4.499 2.442-6.103.837-2.288-2.288-.664-5.118 2.512-4.379 1.435.334 3.284.76 4.109.944.874.196 1.548 1.545 1.615 3.232.192 4.821.344 5.396 1.42 5.396.701 0 .713-.603.035-1.869-.55-1.027-.854-2.04-.675-2.25.178-.21.62-1.619.983-3.131.615-2.563.443-2.75-2.526-2.75-4.577 0-3.2-.624 2.898-1.313 4.363-.493 5.25-.326 5.25.983 0 1.308.262 1.357 1.547.29 2.41-2-.044-2.927-7.797-2.945-4.717-.01-6.755-.392-6.765-1.265-.01-.846-.317-.774-.947.222-.643 1.017-.87.09-.734-3 .127-2.89.626-4.388 1.41-4.234.715.14.972-.392.626-1.295-.88-2.293-3.231 1.448-3.572 5.684-.158 1.972-1.257 4.276-2.684 5.625-2.356 2.228-2.368 2.321-.5 3.735 1.054.797 1.444 1.464.866 1.481-.577.018-1.531-.45-2.12-1.037-.587-.588-1.915-1.229-2.95-1.424-2.968-.559-2.99-.597-.88-1.56l2-.914-2 .208c-1.1.115-2.675-.155-3.5-.601-1.312-.708 3.406 3.795 6.686 6.384.803.633.913 1.889.339 3.89-.723 2.521-.604 2.868.814 2.358.913-.329 2.98-1.513 4.592-2.631 1.611-1.12 2.55-1.42 2.086-.668-.63 1.018-.407 1.199.87.708 1.02-.39 1.469-.257 1.106.33-.336.544.203 1.025 1.198 1.068 1.282.056 1.401.24.41.633-1.055.418-.81 1.008 1 2.399 1.32 1.014 2.437 1.855 2.482 1.867.046.012.084-.633.084-1.434zm-12.915-4.794c-.385-.978-.236-1.75.338-1.75.566 0 .69-.563.277-1.25-.51-.85-.209-.81.941.122 1.788 1.451 2.335 2.643.768 1.675-.509-.314-1.084.222-1.28 1.19-.337 1.674-.39 1.675-1.044.013zM186 98c0-1.1.408-2 .906-2 .499 0 .671.9.384 2-.288 1.1-.696 2-.907 2-.21 0-.383-.9-.383-2zm-15.193 10.474c-.308-.308-.867.247-1.243 1.233-.542 1.425-.428 1.54.56.56.684-.679.99-1.486.683-1.793zm43.923-10.202c-.217-2.074-.397-.622-.402 3.228-.004 3.85.173 5.548.394 3.772.22-1.775.224-4.925.008-7zm-49.005.496c-.223-1.797-.41-.568-.415 2.732-.006 3.3.176 4.77.405 3.268.228-1.503.232-4.203.01-6zM192 101.559c0-.243-.45-.72-1-1.059-.55-.34-1-.141-1 .441s.45 1.059 1 1.059 1-.198 1-.441zm9.663-.809c.983-1.573 1.336-3.75.609-3.75-.709 0-3.198 3.266-3.24 4.25-.052 1.21 1.78.86 2.63-.5zM184 96c0-.55-1.688-.947-3.75-.882-3.732.118-3.736.122-.75.882 4.33 1.102 4.5 1.102 4.5 0zm27.382-.552c.341-.89.173-1.291-.393-.94-.544.335-.989 1.033-.989 1.551 0 1.438.717 1.121 1.382-.61zM170 95.56c0-.243-.45-.72-1-1.059-.55-.34-1-.141-1 .441S168.45 96 169 96s1-.198 1-.441zm15.937-5.742c.663-2.214 1.447-4.653 1.741-5.421.717-1.867-2.923-1.838-6.58.053-2.751 1.423-9.096 7.932-9.1 9.336-.001.393 2.863.567 6.365.386l6.368-.33 1.206-4.024zm-9.083-4.04c1.724-1.452 4.044-2.927 5.155-3.28 1.111-.352 1.762-1.059 1.447-1.569-.316-.51.803-.928 2.485-.928 2.052 0 3.059.494 3.059 1.5 0 .825.66 1.5 1.469 1.5.959 0 1.247-.577.83-1.664-.352-.915-.225-1.422.281-1.125.506.296 1.82.177 2.92-.266 1.343-.54-.067-.828-4.29-.875-7.146-.08-11.95 1.893-16.647 6.838-1.615 1.7-2.596 3.092-2.179 3.092.418 0 .048.711-.822 1.58-.87.87-1.302 2.032-.96 2.584.34.551 1.406-.292 2.368-1.874.961-1.581 3.16-4.062 4.884-5.514zm16.445 4.26c-.584-2.235-.69-2.274-1.329-.483-.83 2.33-.048 4.924 1.13 3.746.459-.459.549-1.928.2-3.264zM208 93.502c0-.274-1.605-2.273-3.566-4.444-3.292-3.644-9.828-6.999-11.119-5.707-.303.303.266 2.822 1.265 5.6L196.395 94h5.803c3.19 0 5.802-.224 5.802-.497zm1.983-3.535c-1.83-3.418-8.91-8.933-10.625-8.275-1.138.437-1.451.267-.963-.523.398-.644.273-1.17-.277-1.17-2.402 0-1.773 1.809 1.175 3.376 5.616 2.987 7.837 4.36 7.678 4.748-.086.207.414 1.626 1.11 3.154.862 1.891 1.508 2.388 2.023 1.554.416-.673.361-1.962-.121-2.864zm-7.11-5.718c-1.244-1.586-1.21-1.621.377-.378 1.666 1.307 2.195 2.128 1.372 2.128-.207 0-.995-.787-1.75-1.75zm10.25 7.075c-1.18-2.027-1.464-1.378-.5 1.136.343.894.835 1.415 1.092 1.157.258-.257-.009-1.29-.593-2.293zM212 88.655c0-.19-1.012-1.202-2.25-2.25L207.5 84.5l1.905 2.25c1.79 2.114 2.595 2.705 2.595 1.905zm-5-5.033c0-.207-.787-.995-1.75-1.75-1.586-1.243-1.621-1.208-.378.378 1.307 1.666 2.128 2.195 2.128 1.372zm-30.872-2.372c1.243-1.586 1.208-1.621-.378-.378-1.666 1.307-2.195 2.128-1.372 2.128.207 0 .995-.787 1.75-1.75zM202.5 80c-.34-.55-1.154-.993-1.809-.985-.716.01-.592.403.309.985 1.921 1.242 2.267 1.242 1.5 0zm-16.25-2.662c-.688-.278-1.813-.278-2.5 0-.688.277-.125.504 1.25.504s1.938-.227 1.25-.504zm10 0c-.688-.278-1.813-.278-2.5 0-.688.277-.125.504 1.25.504s1.938-.227 1.25-.504zm-5.52-.942c-.333-.332-1.196-.368-1.917-.08-.798.32-.561.557.604.605 1.054.043 1.644-.193 1.312-.525zM110 85.92c-12.256-5.54-18.253-18.36-14.977-32.016 1.48-6.17 7.893-13.789 14.452-17.168 5.219-2.688 17.32-2.903 22.564-.4 10.179 4.86 16.05 13.981 16.156 25.097.104 11.03-5.681 20.134-15.695 24.699-5.635 2.568-16.579 2.466-22.5-.212zm14.728-.65c-2.075-.217-5.225-.214-7 .007-1.776.221-.078.398 3.772.394 3.85-.005 5.302-.185 3.228-.402zm2.684-1.876c1.63-.625 1.237-2.395-.53-2.395-.55 0-.732.433-.405.963.356.576-1.655.936-5.004.896-3.079-.037-5.334-.332-5.01-.655.322-.323-.887-1.085-2.688-1.694-1.801-.61-3.151-1.682-3-2.383.152-.707-.216-.973-.824-.597-1.43.884-5.461-2.933-6.987-6.616-.658-1.589-1.481-2.712-1.83-2.497-.349.216-.634-2.897-.634-6.917s.386-7.07.857-6.78c.472.292.536-.482.143-1.72-.487-1.533-.361-2.032.393-1.566 1.007.622 1.565-.66 1.2-2.758-.078-.454.258-.577.749-.274 1.048.648 4.096-2.45 3.837-3.9-.099-.55.496-1.01 1.321-1.021 2.167-.032 6-1.5 6.003-2.298 0-.376 2.908-.724 6.46-.775 3.553-.05 6.252.244 6 .653-.609.984 5.151 2.97 6.112 2.107.41-.367.464-.173.12.431-.644 1.13 4.212 6.056 5.555 5.636.412-.13.697.102.632.515-.315 1.995.22 3.306 1.12 2.748.644-.397.665-1.252.06-2.382-1.498-2.8-7.284-8.097-8.215-7.521-.466.288-.847.119-.847-.375 0-3.382-14.041-4.293-20.556-1.334-3.862 1.755-11.363 9.273-11.516 11.544-.898 13.31.31 21.57 3.157 21.57.568 0 .792.39.498.866-.295.477.354 1.672 1.44 2.655 1.088.984 1.99 1.382 2.007.884.017-.498.495-.108 1.062.866.567.974 1.453 1.51 1.97 1.191.516-.319.938-.077.938.538s.45.84 1 .5c.55-.34 1-.174 1 .368s.787 1.191 1.75 1.443c2.7.705 10.901.76 12.662.084zm-18.962-1.153c-.522-.417-2.32-1.879-3.996-3.25-2.89-2.365-2.879-2.326.235.758 1.805 1.788 3.603 3.25 3.996 3.25.393 0 .287-.341-.235-.758zm27.678-.992c1.243-1.586 1.208-1.621-.378-.378-1.666 1.307-2.195 2.128-1.372 2.128.207 0 .995-.787 1.75-1.75zM132 80.941c0-.582.398-.813.884-.513 1.196.74 9.353-8.217 8.852-9.72-.218-.654.202-1.789.934-2.52.833-.834 1.28-3.452 1.194-7.01-.075-3.123-.331-4.665-.57-3.428-.429 2.228-2.818 3.128-3.46 1.304-.184-.52-2.452.596-5.042 2.48l-4.707 3.424 1.457 3.489c1.71 4.09 1.873 7.178.428 8.071-.566.35-3.009-.523-5.428-1.94C124.123 73.16 121.764 72 121.3 72c-.464 0-2.585 1.435-4.712 3.188-3.444 2.839-3.66 3.27-1.978 3.93 2.858 1.122 10.9 1.018 14.075-.182C134.387 76.782 140 69.646 140 64.55c0-1.6.559-2.55 1.5-2.55 1.927 0 1.955 3.688.043 5.6-.802.802-1.18 2.232-.841 3.179.34.947.284 1.422-.123 1.057s-2.314 1.078-4.237 3.207c-1.924 2.13-4.37 4.148-5.434 4.486-1.066.338-1.679 1.033-1.363 1.543.78 1.264 2.455 1.175 2.455-.131zm4-4.441c1.866-1.925 3.617-3.5 3.892-3.5.275 0-1.026 1.575-2.892 3.5-1.866 1.925-3.617 3.5-3.892 3.5-.275 0 1.026-1.575 2.892-3.5zm-24.446-8.123c.599-3.755.473-3.969-4.015-6.802-3.426-2.162-4.555-3.464-4.336-5 .257-1.798 1.1-2.114 6.317-2.367 5.985-.29 6.026-.313 7.18-4 .64-2.04 1.466-4.495 1.838-5.458.527-1.363.155-1.75-1.681-1.746-3.484.005-8.393 3.373-11.827 8.113-2.448 3.38-3.03 5.181-3.03 9.38 0 5.098 1.81 10.283 4.802 13.754 1.434 1.663 1.574 1.657 2.821-.124.722-1.03 1.591-3.618 1.931-5.75zm1.108 3.373c-.277-.688-.504-.125-.504 1.25s.227 1.938.504 1.25c.278-.688.278-1.813 0-2.5zm9.005-3.347c0-.748-1.09-.41-2.834.878-1.558 1.152-2.84 2.573-2.848 3.157-.008.584-.439.393-.956-.425-.746-1.18-.907-1.043-.778.666.16 2.132.199 2.127 3.789-.453 1.995-1.434 3.627-3.154 3.627-3.823zM145 69.643c0-1.271-.462-.704-1.92 2.357-1.122 2.357-1.102 2.39.365.559.855-1.068 1.555-2.38 1.555-2.917zm-19.052.607c-.409-4.018.264-5.184 4.382-7.597 8.512-4.989 8.435-7.915-.195-7.464-3.976.207-4.471-.033-5.559-2.694-.739-1.809-1.464-2.486-1.901-1.778-.39.63-.25 1.427.309 1.773 1.905 1.178 1.021 2.205-1.97 2.29-1.643.047-3.443.367-4 .712-1.333.823-1.303 2.508.045 2.508.583 0 .774-.563.426-1.25-.348-.688-.037-.536.69.337.73.873 2.338 1.51 3.575 1.417 1.238-.093 2.25.205 2.25.663 0 .458.675.833 1.5.833s1.5.675 1.5 1.5-.477 1.5-1.059 1.5-.78-.45-.441-1c.34-.55.141-1-.441-1S124 61.69 124 62.531c0 2.094-2.697 2.965-4.513 1.458-.818-.678-1.52-1.066-1.561-.861-.763 3.824-.759 4.872.021 4.872.514 0 1.213-.45 1.553-1 .956-1.547 2.497-1.184 3.187.75.693 1.945 2.32 4.25 2.998 4.25.243 0 .36-.787.263-1.75zM128 61.752c0-.744.54-1.892 1.2-2.552.933-.933.656-1.23-1.25-1.332-1.8-.096-1.522-.301 1.05-.771 1.925-.352 3.787-.236 4.138.26.351.494 1.251.53 2 .08 1.031-.622 1.007-.383-.101.98-.926 1.14-1.605 1.38-1.848.651-.223-.671-1.384-.071-2.786 1.442-1.406 1.518-2.403 2.033-2.403 1.242zm-12.784 5.6c-.394-2.066-.199-2.471.889-1.84.767.445 1.073.452.68.017-.393-.435-.055-1.733.75-2.883 1.86-2.656 1.873-4.016.03-3.31-.79.304-1.604.047-1.81-.57-.205-.616-.93-.776-1.613-.354-.961.594-.972 1.088-.05 2.2.967 1.164.882 1.315-.45.804-.903-.347-1.642-.935-1.642-1.309 0-.373-.88-.678-1.956-.678-1.644 0-1.46.412 1.153 2.595 2.461 2.054 3.002 3.155 2.595 5.285-.332 1.735-.08 2.691.708 2.691.783 0 1.04-.952.716-2.649zm14.106-.23c-.435-1.66-.82-1.933-1.404-.99-.443.717-.317 1.888.282 2.609 1.45 1.746 1.85 1.168 1.122-1.62zm16.34-2.372c-.277-.688-.504-.125-.504 1.25s.227 1.938.504 1.25c.278-.688.278-1.813 0-2.5zm-48.979-.938c-.32-.797-.556-.56-.604.605-.043 1.054.193 1.644.525 1.312.332-.332.368-1.195.08-1.916zm2.024-4.05c-.239-1.244-.444-.462-.455 1.738-.01 2.2.185 3.218.435 2.262s.26-2.756.02-4zM122 62c0-.55-.477-1-1.059-1s-.78.45-.441 1c.34.55.816 1 1.059 1s.441-.45.441-1zm-25.317-4.188c-.32-.797-.556-.56-.604.605-.043 1.054.193 1.644.525 1.312.332-.332.368-1.195.08-1.917zm12.567-.395c4.821-.23 5.818-.499 5.25-1.417-.827-1.339-7.5-1.286-7.5.059 0 .582-.45.78-1 .441-.55-.34-1-.216-1 .274 0 1.359 1.29 2.355 1.932 1.491.312-.42 1.356-.802 2.318-.848zm-.438-1.1c.722-.289 1.585-.253 1.917.079.332.332-.258.568-1.312.525-1.165-.048-1.402-.285-.605-.604zm36.871.495c-.32-.797-.556-.56-.604.605-.043 1.054.193 1.644.525 1.312.332-.332.368-1.195.08-1.917zm-8.194-5.828c-2.872-4.144-8.753-7.584-14.513-8.49-2.798-.44-3.052-.359-1.301.42 1.426.633 2.642 2.623 3.53 5.776l1.354 4.81 5.771.301c4.248.222 5.94.737 6.405 1.95.43 1.122.765 1.249 1.049.397.23-.688-.804-3.012-2.295-5.164zM143 53.882c0-.55-.45-.722-1-.382-.55.34-1 1.068-1 1.618s.45.722 1 .382c.55-.34 1-1.068 1-1.618zm-23-2.441c0-.857-.45-1.28-1-.941-.55.34-1 1.041-1 1.559s.45.941 1 .941 1-.702 1-1.559zm-17.872-5.191c1.243-1.586 1.208-1.621-.378-.378-.963.755-1.75 1.543-1.75 1.75 0 .823.821.294 2.128-1.372zm20.217.207c-.326-.849-.807-1.329-1.069-1.067-.262.262-.18.957.183 1.543.986 1.596 1.562 1.286.886-.476zM141 45.655c0-.19-1.012-1.202-2.25-2.25L136.5 41.5l1.905 2.25c1.79 2.114 2.595 2.705 2.595 1.905zm-33.872-4.405c1.243-1.586 1.208-1.621-.378-.378-.963.755-1.75 1.543-1.75 1.75 0 .823.821.294 2.128-1.372zM112 39c.825-.533 1.05-.97.5-.97s-1.675.437-2.5.97c-.825.533-1.05.97-.5.97s1.675-.437 2.5-.97zm4.73-1.604c-.333-.332-1.196-.368-1.918-.08-.797.32-.56.557.605.605 1.054.043 1.644-.193 1.312-.525zm11 0c-.333-.332-1.196-.368-1.918-.08-.797.32-.56.557.605.605 1.054.043 1.644-.193 1.312-.525zm-4.98-1.085c-.963-.252-2.538-.252-3.5 0-.963.251-.175.457 1.75.457s2.712-.206 1.75-.457zm-11.082-9.66c.55-5.887.438-6.39-1.537-6.907-2.975-.777-2.656-2.421.82-4.218 4.137-2.14 6.049-1.935 6.049.648v2.175l2.314-2.175c2.307-2.167 7.057-2.861 9.397-1.374.666.424 1.926 2.48 2.8 4.57 3.865 9.252-5.404 17.828-12.067 11.165l-2.464-2.465.618 2.465c.571 2.275.344 2.465-2.952 2.465h-3.57zm3.5-2.649c-.43-9.08-1.668-9.082-1.668-.002 0 3.998.429 7.001 1 7.002.603.002.868-2.776.668-7zm7.832 6.62c0-.207-.787-.995-1.75-1.75-1.586-1.243-1.621-1.208-.378.378 1.307 1.666 2.128 2.195 2.128 1.372zm5.128-1.372c1.27-1.619 1.222-1.64-.628-.283-1.1.807-2.188 1.594-2.417 1.75-.229.156.054.283.628.283s1.662-.787 2.417-1.75zm-1.327-6.164c-.237-2.82-.729-3.586-2.301-3.586-1.534 0-2.074.773-2.318 3.315-.175 1.824.222 3.967.882 4.763 1.946 2.344 4.093-.238 3.737-4.492zm2.888-.836c-.251-.962-.457-.175-.457 1.75s.206 2.712.457 1.75c.252-.963.252-2.538 0-3.5zm-9.76.5c-.056-2.647-.216-2.879-.86-1.25-.436 1.1-.581 2.563-.324 3.25.805 2.145 1.258 1.38 1.185-2zm-3.246.063c-.32-.798-.556-.561-.604.604-.043 1.054.193 1.644.525 1.312.332-.332.368-1.195.08-1.916zM124.5 17c1.155 0 2.73.563 3.502 1.25 1.192 1.063 1.204.989.077-.5-.728-.962-2.339-1.75-3.579-1.75-1.24 0-2.851.787-3.58 1.75-1.126 1.489-1.114 1.563.078.5.771-.688 2.347-1.25 3.502-1.25zM8.747 364.75c-.176-6.188-.32-1.125-.32 11.25s.144 17.438.32 11.25c.175-6.188.175-16.313 0-22.5zm223.992 16.5c-.198-3.163-.36-.575-.36 5.75s.162 8.912.36 5.75c.198-3.163.198-8.338 0-11.5zm-.021-20.986c-.23-1.52-.424-.514-.432 2.236-.007 2.75.18 3.994.418 2.764.237-1.23.243-3.48.014-5zm-.035-6.451c-.32-.798-.556-.561-.604.604-.043 1.054.193 1.644.525 1.312.332-.332.368-1.195.079-1.916zm-224-13c-.32-.798-.556-.561-.604.604-.043 1.054.193 1.644.525 1.312.332-.332.368-1.195.08-1.916zm224.01-63.544c-.254-.973-.478-.419-.498 1.231-.02 1.65.187 2.446.46 1.769.275-.677.292-2.027.038-3zm.042-27.019c-.206-2.612-.375-.475-.375 4.75s.169 7.362.375 4.75.206-6.888 0-9.5zm-225.073 4.5c-.277-.688-.504-.125-.504 1.25s.227 1.938.504 1.25c.278-.688.278-1.813 0-2.5zm.03-10.481c-.253-.973-.477-.419-.497 1.231-.02 1.65.187 2.446.46 1.769.275-.677.292-2.027.038-3zm225.024-7.019c-.229-1.512-.416-.275-.416 2.75s.187 4.263.416 2.75c.23-1.512.23-3.987 0-5.5zm-225.023-.981c-.254-.973-.478-.419-.498 1.231-.02 1.65.187 2.446.46 1.769.275-.677.292-2.027.038-3zm.014-7.507c-.239-1.244-.444-.462-.455 1.738-.01 2.2.185 3.218.435 2.262s.26-2.756.02-4zm225.01-2.498c-.23-1.52-.423-.514-.431 2.236-.007 2.75.18 3.994.418 2.764.237-1.23.243-3.48.014-5zM7.75 116.75c-.152-19.938-.276-3.625-.276 36.25s.124 56.188.276 36.25c.151-19.938.151-52.563 0-72.5zm224.933 96.063c-.32-.798-.556-.561-.604.604-.043 1.054.193 1.644.525 1.312.332-.332.368-1.195.08-1.917zm.04-13.063c-.221-1.788-.403-.325-.403 3.25s.182 5.037.403 3.25c.222-1.788.222-4.713 0-6.5zm-.04-7.938c-.32-.797-.556-.56-.604.605-.043 1.054.193 1.644.525 1.312.332-.332.368-1.195.08-1.917zm0-40c-.32-.797-.556-.56-.604.605-.043 1.054.193 1.644.525 1.312.332-.332.368-1.195.08-1.917zm.33-72.488c.02-37.968-.248-69.773-.595-70.678-.385-1.003-1.665-1.6-3.275-1.53-2.096.092-2.229.22-.643.616 1.1.275 2.33 1.01 2.735 1.634.404.624.741 32.372.75 70.55.008 38.18.235 69.197.504 68.928.269-.269.505-31.553.525-69.52zM7.69 75.25c-.251-.963-.457-.175-.457 1.75s.206 2.712.457 1.75c.252-.963.252-2.538 0-3.5zm-.006-5.438c-.32-.797-.556-.56-.604.605-.043 1.054.193 1.644.525 1.312.332-.332.368-1.195.08-1.916zM204.2 7.255c-5.115-.182-13.215-.18-18 .002-4.784.183-.599.332 9.301.33 9.9 0 13.815-.15 8.7-.332zM60.917 6.627c-.23-.204-11.892-.59-25.917-.858-14.025-.268-21.675-.184-17 .186 9.294.735 43.588 1.273 42.917.672zm11.352-.283c-.677-.274-2.027-.29-3-.037-.973.254-.419.478 1.231.498 1.65.02 2.446-.187 1.769-.46zm51.981-.006c-.688-.278-1.813-.278-2.5 0-.688.277-.125.504 1.25.504s1.938-.227 1.25-.504zM244.286 42.5c.008-2.75.202-3.756.432-2.236.23 1.52.223 3.77-.014 5-.237 1.23-.425-.014-.418-2.764zm-.054-11.5c0-1.925.206-2.712.457-1.75.252.963.252 2.538 0 3.5-.251.962-.457.175-.457-1.75zm-.153-5.583c.048-1.165.285-1.402.604-.605.289.722.253 1.585-.079 1.917-.332.332-.568-.258-.525-1.312zm.079-4.417c0-1.375.227-1.938.504-1.25.278.688.278 1.813 0 2.5-.277.688-.504.125-.504-1.25zm.197-11.5c-.003-4.95.166-7.101.376-4.78.21 2.32.212 6.37.006 9-.207 2.629-.379.73-.382-4.22z"/></svg>