<svg xmlns="http://www.w3.org/2000/svg" width="244" height="420" viewBox="0 0 244 420"><path d="M60.762 418.293c1.244-.24 3.044-.23 4 .02s-.062.446-2.262.435c-2.2-.011-2.982-.216-1.738-.455zm8.05.024c.722-.289 1.585-.253 1.917.079.332.332-.258.568-1.312.525-1.165-.048-1.402-.285-.604-.604zm4 0c.722-.289 1.585-.253 1.917.079.332.332-.258.568-1.312.525-1.165-.048-1.402-.285-.604-.604zm5 0c.722-.289 1.585-.253 1.917.079.332.332-.258.568-1.312.525-1.165-.048-1.402-.285-.604-.604zm43.438-.067c22.413-.15 59.087-.15 81.5 0 22.413.15 4.075.273-40.75.273s-63.163-.123-40.75-.273zM6.422 404.434c-1.141-6.082-1.16-9.046-1.31-204.811-.11-145.358.136-191.217 1.034-192.3C7.156 6.109 23.503 5.94 119.26 6.162c75.63.175 112.354.596 113.231 1.299 1.05.84 1.416 30.353 1.912 154.04.337 84.15.807 173.358 1.044 198.24.377 39.41.238 45.433-1.078 46.75-1.33 1.329-15.035 1.51-114.394 1.51H7.09zm6.847.91c-.677-.274-2.027-.29-3-.037-.973.253-.419.478 1.231.498 1.65.02 2.446-.187 1.769-.461zm8.481-.033c-.963-.252-2.538-.252-3.5 0-.963.251-.175.457 1.75.457s2.712-.206 1.75-.457zm4.98.085c-.333-.332-1.196-.368-1.917-.079-.798.32-.561.556.604.604 1.054.044 1.644-.193 1.312-.525zm9.02-.112c-1.512-.23-3.987-.23-5.5 0-1.512.229-.275.416 2.75.416s4.263-.187 2.75-.416zm47.06-.031c-7.529-.17-20.129-.17-28-.001-7.87.17-1.71.308 13.69.308 15.4 0 21.84-.137 14.31-.307zM232.83 404c.406-1.229.223-1.275-1.011-.257-1.16.957-16.894 1.304-68.413 1.51l-66.906.268 67.917-.01c59.477-.01 67.978-.197 68.412-1.511zm-129.33-1.136l7-.104-4.3-1.033c-3.499-.84-4.243-1.412-4-3.07.197-1.336 1.394-2.32 3.474-2.857 2.042-.526 3.943-2.063 5.331-4.309 1.187-1.92 2.571-3.491 3.077-3.491.518 0 .918-6.765.918-15.535v-15.534l-8.36-8.716C97.372 338.551 96 336.485 96 332.188c0-5.326 1.431-5.688 22.499-5.688 20.683 0 22.501.417 22.501 5.162 0 3.967-3.47 9.481-9.845 15.647-7.853 7.594-9.159 11.396-9.143 26.62l.012 11.571 4.661 4.84c2.564 2.663 5.709 5.24 6.989 5.726 2.956 1.124 3.208 4.934.326 4.934-1.1 0-2-.477-2-1.059s.45-.78 1-.441c.55.34 1 .216 1-.274 0-1.603-1.29-2.23-2.508-1.22-.69.573-6.816.885-14.54.742-7.342-.136-12.58-.101-11.638.078.94.179 1.456.737 1.145 1.24-.33.534 3.737.881 9.738.832 13.709-.11 14.034-.081 13.241 1.202-.491.795 12.566 1.011 47.191.78 26.33-.175 49.221-.58 50.871-.901 2.844-.552 2.988-.815 2.764-5.03-.13-2.447-.52-89.949-.87-194.449-.348-104.5-.761-190.144-.917-190.32-.703-.793-217.68-.66-218.17.133-.759 1.227-.498 385.08.264 388.113.377 1.503 1.456 2.58 2.773 2.767 1.803.257 66.8.02 90.156-.329zm.25-80.553c-1.049-.274-1.75-1.412-1.75-2.839 0-1.89.67-2.512 3.25-3.014 2.282-.443 4.218-1.933 6.5-5.003l3.25-4.37-.005-13.793c-.006-16.085-.55-17.477-10.295-26.32-6.675-6.058-8.7-9.42-8.7-14.447 0-4.08 2.356-5.548 8.815-5.495 3.058.026 3.378.21 1.882 1.08-.992.577-3.191 1.225-4.887 1.44-1.695.214-3.359.691-3.696 1.06-.338.37.661.365 2.22-.01 1.75-.42 2.603-.308 2.23.295-.33.536.87 1.157 2.667 1.38 2.806.347 2.657.427-1.054.565-3.535.13-4.262.48-3.986 1.91.254 1.312 1.334 1.756 4.323 1.773 2.193.012 4.517.357 5.167.766.65.409 1.486.25 1.859-.354.373-.603 1.663-.85 2.868-.548 1.204.302 6.388.834 11.52 1.181 7.276.492 9.519.334 10.186-.718 1.449-2.287.982-3.85-1.15-3.85-1.646 0-1.851-.342-1.075-1.793.882-1.648.423-1.776-5.715-1.584-5.826.182-6.102.117-2.174-.516l4.5-.724-3.5-.607c-1.925-.334-.244-.481 3.735-.326 3.98.154 7.917.846 8.75 1.538 3.902 3.238.434 10.93-8.894 19.727-3.8 3.583-6.591 7.053-6.591 8.191 0 1.087-.45 2.254-1 2.594-.584.36-1 6.042-1 13.655v13.038l4.07 4.623c2.237 2.542 5.387 5.177 7 5.855 3.205 1.348 3.76 3.395 1.443 5.318-1.645 1.365-4.989.59-4.044-.938.327-.53 1.256-.71 2.063-.4.904.346 1.468-.036 1.468-.997 0-1.149-.786-1.46-2.987-1.181-1.643.208-3.287-.108-3.655-.702-.425-.688-.192-.787.642-.271.848.524 1.067.417.622-.302-.704-1.14-2.38-.855-6.437 1.096-1.72.828-2.498.817-3.03-.042-.84-1.36-14.087-.72-15.56.752-1.265 1.266 1.782 2.348 4.922 1.748 2.74-.524 3.403.68.901 1.64-1.702.654-2.921.636-5.668-.081zm12.35-7.5c1.595.121 2.9-.236 2.9-.795s-.638-1.016-1.417-1.016-1.574-.472-1.766-1.049c-.192-.577-1.692.419-3.333 2.212-1.641 1.793-2.152 2.623-1.134 1.844 1.017-.78 3.154-1.318 4.75-1.196zm8.9-.689c0-.482-.655-1.421-1.456-2.086-1.593-1.321-3.553-.614-3.529 1.273.01.812.284.767.861-.143.68-1.074.964-1.025 1.453.25.64 1.669 2.671 2.206 2.671.706zm-6.258-22.872c-.193-3.712-.35-.675-.35 6.75s.157 10.463.35 6.75c.192-3.712.192-9.787 0-13.5zm-1.8-15.128c-1.266-2.623-1.44.45-.985 17.378l.456 17 .597-16.5c.329-9.075.298-17.12-.068-17.878zm4.064 21.13l-.494-12.752-.29 11.439c-.256 10.062.027 14.057.997 14.063.154 0 .059-5.737-.213-12.75zM121.18 279c.569 0 .753-.732.41-1.627-.37-.964.095-2.192 1.143-3.015 1.116-.876 1.26-1.29.392-1.122-.756.145-1.57-.262-1.807-.906-.25-.676.33-1.045 1.375-.874 2.204.36 5.505-2.327 4.62-3.76-.384-.62-.017-.796.916-.438.933.358 2.473-.376 3.839-1.83 1.776-1.891 1.936-2.428.721-2.428-1.935 0-8.788 2.907-6.98 2.96.72.022 1.03.49.691 1.04-1.086 1.757-2.497 1.074-2.586-1.25-.078-2.03-.165-1.988-.895.431-.445 1.475-1.583 3.725-2.528 5l-1.72 2.319.696-2.5c1.628-5.86 1.703-7.09.518-8.518-.95-1.146-1.578-1.235-2.618-.372-1.588 1.319-1.828 5.487-.367 6.39.55.34 1 1.293 1 2.118 0 .88-.478 1.205-1.155.787-.715-.443-.883-.275-.44.44.647 1.049-.599 1.619-2.73 1.249-.453-.08-.538.319-.189.884.434.701 1.258.694 2.595-.022 3-1.605 4.118-.217 3.542 4.397-.285 2.28-.284 3.36.003 2.397.286-.963.986-1.75 1.555-1.75zm2.82-8.378c0-.207.787-.995 1.75-1.75 1.586-1.243 1.621-1.208.378.378-1.307 1.666-2.128 2.195-2.128 1.372zm-9.765-.453c-.416-1.082-.182-1.266.845-.661 1.008.593.95.279-.2-1.086-.89-1.057-1.486-2.496-1.325-3.197.162-.701.067-.817-.21-.258-.337.677-1.124.687-2.353.029-1.016-.544-2.629-.689-3.584-.322-1.182.453-1.505.292-1.013-.504.398-.644.281-1.17-.26-1.17-.54 0-2.479-1.203-4.308-2.674-1.83-1.471-.263.479 3.48 4.333 6.389 6.576 10.251 8.96 8.928 5.51zm-4.136-1.563c-2.809-2.99-1.16-4.306 2.047-1.634 1.336 1.113 1.788 1.976 1.045 1.995-.72.018-1.03.483-.691 1.033 1.083 1.753-.078 1.078-2.4-1.395zM128 261.77c0-.586-.635-.489-1.5.229-.825.685-1.5 1.4-1.5 1.591 0 .19.675.087 1.5-.23.825-.316 1.5-1.032 1.5-1.59zm-17 .23c-.825-.533-1.95-.97-2.5-.97s-.325.437.5.97c.825.533 1.95.97 2.5.97s.325-.437-.5-.97zm14-2.24c0-.546-.836-.775-1.858-.507-1.022.267-2.567.089-3.433-.396-.96-.537-1.82-.486-2.201.13-.344.557.252 1.013 1.326 1.013s2.23.726 2.57 1.613c.502 1.306.903 1.377 2.108.377.818-.68 1.488-1.682 1.488-2.23zm-9.899.77c-.027-.507-1.298-1.085-2.825-1.284-2.679-.349-2.706-.308-.776 1.162 2.11 1.608 3.683 1.661 3.601.121zm20.399.47c.34-.55.141-1-.441-1s-1.059.45-1.059 1 .198 1 .441 1 .72-.45 1.059-1zm-28.301-1.355c1.491-1.133 1.289-1.282-1.66-1.218-2.567.056-3.116.368-2.327 1.323 1.276 1.544 1.837 1.53 3.987-.105zm22.051-.307c-.688-.278-1.813-.278-2.5 0-.688.277-.125.504 1.25.504s1.938-.227 1.25-.504zM49.5 283c-.34-.55-.168-1 .382-1s1.278.45 1.618 1c.34.55.168 1-.382 1s-1.278-.45-1.618-1zm127.043.07c-.333-.54 2.438-.94 6.603-.953 4.77-.015 7.454-.458 8-1.32.673-1.06.826-1.057.839.012.008.72.444 1.044.969.72 1.278-.79 6.046.455 6.046 1.58 0 1.189-21.72 1.152-22.457-.04zm-116.112-1.173c-1.417-.555-.911-.775 1.902-.827 4.022-.073 4.823-2.234 1.084-2.923-1.054-.195-2.782-1.095-3.839-2-1.057-.906-1.617-1.123-1.244-.482.373.64.338 1.354-.078 1.586-.416.232-.17.275.546.097.716-.179 1.027.12.69.663-.335.544-2.496.957-4.801.919-3.258-.055-3.746-.262-2.191-.93 1.558-.67 1.115-.86-2-.86s-3.558.19-2 .86c1.1.473 1.408.891.684.93-.723.038-2.186-.396-3.25-.965-1.364-.73-1.934-.713-1.934.059 0 .602-.523.77-1.162.376-2.53-1.564 2.655-3.929 8.48-3.868 5.93.063 7.067-.72 3.682-2.532-1.356-.726-2-.737-2-.035 0 .57-1.125 1.035-2.5 1.035s-2.5-.541-2.5-1.203-1.706.463-3.792 2.5c-2.116 2.066-4.794 3.703-6.06 3.703-1.458 0-2.012.412-1.553 1.155.479.773.25.89-.69.353-.97-.554-1.096-.473-.405.26.55.585 2.125 1.264 3.5 1.511 1.821.327 1.482.486-1.25.585-3.08.112-3.75-.207-3.75-1.786 0-1.291 1.091-2.283 3.32-3.019 2.096-.691 4.494-2.76 6.5-5.607l3.18-4.51-.004-13.721c-.004-16.105-.125-16.406-10.864-26.955-5.268-5.175-7.13-7.739-7.656-10.544-.383-2.039-.446-4.357-.141-5.152.764-1.99 7.07-3.581 13.665-3.446 4.482.092 4.945.245 2.5.83l-3 .717 3 .598c1.65.329-.045.42-3.766.2-6.469-.38-6.72-.31-5.715 1.567.89 1.663.729 1.964-1.057 1.964-1.47 0-2.006.53-1.77 1.75.249 1.287 1.391 1.786 4.323 1.887 2.192.075 4.435.241 4.985.368.55.128 1.45.143 2 .035 1.147-.227 10.53-.008 18.28.424 4.266.238 5.465-.053 6.25-1.519 1.41-2.635 1.245-2.945-1.565-2.945-2.106 0-2.376-.296-1.596-1.75.86-1.6.287-1.74-6.714-1.624l-7.655.125 6-.675 6-.674-4.5-.567c-2.802-.352-1.414-.497 3.677-.383 8.592.191 11.323 1.326 11.323 4.704 0 3.779-5.034 11.753-10.109 16.015C55.246 234.59 54 238.273 54 254.446v13.28l4.957 4.637c2.727 2.55 5.603 4.637 6.393 4.637 1.532 0 2.981 2.655 2.168 3.97-.755 1.222-4.937 1.769-7.087.927zm-7.825-42.574c.966-.72 1.338-1.925.962-3.11-.388-1.22.155-2.817 1.468-4.324l2.083-2.389-1.81 2.99c-1.01 1.67 1.172-.071 4.941-3.941 3.712-3.813 6.736-7.408 6.72-7.99-.017-.583-.49-.271-1.05.691-.56.963-1.699 1.75-2.529 1.75-.849 0-1.21.484-.825 1.107.446.722.031.904-1.19.523-1.032-.321-2.551-.152-3.376.378-.846.542-.994.968-.338.977.638.008 1.064.677.945 1.486-.263 1.796-1.607 3.287-1.607 1.784 0-1.676-3.109-.812-4.219 1.172-1.609 2.875-1.999 7.153-2.194 24.073l-.185 16 .315-15c.256-12.232.605-15.217 1.89-16.177zm6.727-12.779c0-.8.383-1.22.85-.93.467.288.59.943.274 1.455-.808 1.308-1.124 1.161-1.124-.525zm-10.261 25.607c.147-14.623.463-17.883 2.051-21.17 2.187-4.525 2.266-5.386.754-8.21l-1.122-2.098-1.793 2.377c-1.63 2.162-1.657 2.639-.292 5.278.971 1.88 1.158 3.244.528 3.874-.63.63-1.243.535-1.74-.27-.516-.835-.357-.988.487-.466.978.605 1.011.32.15-1.29-.608-1.135-1.534-2.33-2.057-2.652-.523-.324-.82-1.136-.658-1.806.16-.67.105-.884-.125-.476-.229.408-1.247.297-2.263-.246-1.016-.544-2.564-.714-3.44-.377-1.284.492-.762 1.515 2.677 5.246 2.349 2.549 4.603 4.524 5.008 4.389.406-.135.672.54.592 1.5-.342 4.09.211 34.54.62 34.13.247-.246.527-8.226.623-17.733zm-5.862-22.152c-3.6-4.193-2.925-6.136 1.047-3.011 1.482 1.165 2.493 2.985 2.493 4.486 0 1.39-.056 2.488-.125 2.441-.069-.046-1.606-1.808-3.415-3.916zm2.79-.44c0-.243-.45-.72-1-1.059-.55-.34-1-.141-1 .441S44.45 230 45 230s1-.198 1-.441zm6.743 18.191c-.19-3.987-.346-.725-.346 7.25s.156 11.238.346 7.25c.19-3.987.19-10.512 0-14.5zM37.25 222.969c-2.761-1.11-2.954-2.969-.309-2.969 1.068 0 2.169-.369 2.447-.82.279-.45-.82-.623-2.44-.386-1.622.238-2.948.967-2.948 1.62 0 1.695 2.133 3.597 3.95 3.523.95-.04.68-.413-.7-.968zm21.721.07c.81-.512 1.258-1.143.998-1.403s-1.345.166-2.412.946c-2.133 1.56-.94 1.946 1.414.457zM43.5 222c-.34-.55-1.041-1-1.559-1s-.941.45-.941 1 .702 1 1.559 1 1.28-.45.941-1zm3.33-2.705c-1.623-1.956-2.985-.454-1.725 1.9.87 1.625 1.291 1.782 1.945.724.478-.773.383-1.897-.22-2.624zm9.47-.395c-.82-.82-1.395-.591-2.172.861-1.368 2.555-.192 3.731 1.77 1.77 1.115-1.115 1.221-1.812.402-2.631zm-3.3.707c0-.949-2.993-1.427-3.527-.563-.325.526.336.956 1.468.956s2.059-.177 2.059-.393zm10.762-.294c-.956-.25-2.756-.26-4-.02-1.244.239-.462.444 1.738.455 2.2.01 3.218-.185 2.262-.435zm-32.64-2.988c-1.179-2.027-1.463-1.378-.498 1.136.342.894.834 1.415 1.091 1.157.258-.257-.01-1.29-.593-2.293zM70.97 214.5c0-.55-.436-.325-.969.5-.533.825-.97 1.95-.97 2.5s.437.325.97-.5c.533-.825.97-1.95.97-2.5zm100.698 67.833c-1.5-1.5-.617-4.333 1.35-4.333 2.843 0 10.958-8.732 11.085-11.929.09-2.25.2-2.159.884.73.98 4.137 1.862 5.053 3.053 3.17.512-.809.944-1.021.961-.471.017.55.412.398.88-.339.638-1.008 2.104-.082 5.936 3.75 2.799 2.8 5.785 5.089 6.636 5.089.985 0 1.548.91 1.548 2.5 0 1.598-.563 2.5-1.559 2.5-.857 0-1.28-.45-.941-1 .362-.585-.676-1-2.5-1-1.824 0-2.862-.415-2.5-1 .378-.61-1.156-1-3.941-1-2.507 0-4.559.45-4.559 1s-.787.993-1.75.985c-1.496-.013-1.532-.157-.25-.985 1.097-.709.342-.973-2.809-.985-2.621-.009-4.067.377-3.691.985.35.565-.47 1-1.882 1-1.375 0-2.778.45-3.118 1-.714 1.155-1.875 1.291-2.833.333zM183 277.617c0-.888-4.046-1.352-4.558-.523-.308.498.592.906 1.999.906s2.559-.173 2.559-.383zm11.7-.25c-1.039-1.039-5.7-1.266-5.7-.279 0 .502 1.425.912 3.167.912 1.741 0 2.881-.285 2.532-.634zm-8.909-2.933c1.122.356 2.306.218 2.63-.307.334-.54-.788-.883-2.584-.79-1.868.096-3.341.78-3.581 1.663-.33 1.214-.227 1.241.543.143.575-.82 1.758-1.1 2.992-.71zM193.5 274c-.995-1.1-2.303-1.99-2.905-1.978-.602.012.03.902 1.405 1.978 3.221 2.52 3.78 2.52 1.5 0zm-139.75 6.338c.688-.278 1.813-.278 2.5 0 .688.277.125.504-1.25.504s-1.938-.227-1.25-.504zM186.158 266c0-1.375.227-1.938.504-1.25.278.688.278 1.813 0 2.5-.277.688-.504.125-.504-1.25zm-66.43-12.722c1.775-.22 4.925-.224 7-.008 2.074.217.622.397-3.228.402-3.85.004-5.548-.173-3.772-.394zm.536-1.996c1.52-.23 3.77-.223 5 .014 1.23.237-.014.425-2.764.418-2.75-.008-3.756-.202-2.236-.432zm-6.502-2.99c1.244-.238 3.044-.23 4 .02.956.251-.062.447-2.262.436-2.2-.011-2.982-.216-1.738-.455zm-.012-1.998c1.237-.238 3.262-.238 4.5 0 1.237.239.225.434-2.25.434s-3.488-.195-2.25-.434zm72.166-1.575c-.525-1.369-.222-11.225.319-10.374.404.635.741.774.75.31.027-1.519-4.117-6.692-4.948-6.178-1.134.7-3.184-1.98-2.278-2.978.407-.45-.047-.535-1.009-.19-.963.346-1.75.236-1.75-.243 0-.478-1.408-1.361-3.13-1.961l-3.129-1.091 2.694 2.694c1.482 1.481 3.362 2.792 4.18 2.912 1.934.284 4.385 2.339 4.385 3.677 0 .578-1.238-.038-2.75-1.369-2.637-2.321-2.627-2.277.248 1.076 1.65 1.923 3.464 3.946 4.034 4.496.58.56.743 2.318.37 4l-.665 3-.119-2.9c-.09-2.219-1.848-4.572-7.466-10-4.041-3.905-8.204-8.596-9.25-10.424-1.873-3.274-1.873-3.346.039-4.75 1.689-1.24 1.721-1.426.25-1.426-2.305 0-2.14-2.69.243-3.965 2.581-1.381 8.2-1.414 6.066-.035-.825.533-1.084.976-.576.985.509.008-.11 1.117-1.376 2.464-4.198 4.468-2.504 5.284 10.354 4.982 6.368-.15 11.775.046 12.014.434.24.387 2.832.464 5.76.17 4.561-.458 5.37-.857 5.643-2.78.252-1.775-.044-2.106-1.414-1.58-1.135.435-1.497.282-1.048-.444.377-.61-.112-1.572-1.086-2.14-1.384-.805-1.443-1.04-.271-1.076 1.333-.04 1.333-.153 0-1.015-1.164-.752-.87-.973 1.316-.985 10.305-.056 8.461 10.815-3.592 21.178-4.317 3.711-5.698 5.645-6.605 9.25-1.412 5.606-2.573 5.98-1.851.596.388-2.892.103-4.309-1.056-5.25-1.358-1.103-1.49-1.03-.91.513.405 1.082.28 1.558-.314 1.19-.59-.364-.988 1.05-.988 3.508 0 2.49.395 3.874 1 3.5.55-.34 1-.19 1 .334 0 .803-2.834 2.535-3.084 1.885zm17.324-22.605c1.376-1.672 1.444-2.114.324-2.114-.78 0-1.563.75-1.74 1.668-.179.917-1.224 1.759-2.324 1.87-1.1.112-2.9.571-4 1.02-1.78.727-1.85.631-.628-.87 1.788-2.198.96-2.163-1.5.062-1.063.963-1.869 2.75-1.79 3.974.08 1.243-.295 1.954-.85 1.61-.545-.336-.764.013-.487.777.278.764 1.045 1.265 1.704 1.114.66-.15.901.208.536.799-.465.753-1.084.723-2.074-.098-1.61-1.335-1.945.14-.386 1.699.953.953 8.025-5.206 13.215-11.511zm-9.842 8.136c.404-.701.201-1.25-.461-1.25-.875 0-.893-.348-.068-1.342.612-.738.893-1.563.623-1.833s.4-.425 1.488-.345c3.128.23 3.204 1.004.355 3.6-1.462 1.33-2.333 1.857-1.937 1.17zm2.73-3c1.243-1.586 1.208-1.621-.378-.378-.963.755-1.75 1.543-1.75 1.75 0 .823.821.294 2.128-1.372zm-7.006-2.881c-1.374-3.016-2.871-3.013-4.248.008-.86 1.889-.718 2.933.696 5.09l1.779 2.715 1.426-2.722c1.083-2.067 1.167-3.292.347-5.09zM180 222.5c-1.394-1.68-3-1.986-3-.573 0 .51.787 1.132 1.75 1.384.963.251 1.918.51 2.122.573.205.064-.187-.559-.872-1.384zm3.788-2.631c-.609-.376-1.723-.447-2.477-.158-1.076.413-.99.803.403 1.822 1.302.952 1.96.994 2.477.158.387-.626.205-1.446-.403-1.822zM194 221.5c1.613-.922 1.968-1.478 1-1.566-8.242-.752-9.421-.733-7.25.119 1.238.485 2.25 1.347 2.25 1.915 0 1.37.987 1.255 4-.468zm-17.379-.978l2.85-1.479-3.973.15c-2.185.082-3.413.335-2.729.563.684.228.99.826.678 1.33-.782 1.266-.13 1.15 3.174-.564zm24.108.874c-.332-.332-1.195-.368-1.917-.08-.797.32-.56.557.605.605 1.054.043 1.644-.193 1.312-.525zm6.078-4.922c-.308-.308-.867.247-1.243 1.233-.542 1.425-.428 1.54.56.56.684-.679.99-1.486.683-1.793zM105 243.263c-4.788-.89-4.797-4.654-.013-5.61 1.849-.37 4.124-2.228 6.436-5.256l3.577-4.685-.022-12.606c-.027-15.606-1.22-18.705-10.548-27.394-7.296-6.797-9.43-10.107-9.43-14.627 0-3.337 2.212-5.085 6.434-5.085 3.227 0 2.952 1.822-.697 4.617-2.401 1.839-2.566 2.28-1.259 3.365 1.75 1.452 10.272 2.048 12.64.884.89-.438 1.903-.512 2.25-.165s2.64.69 5.097.764c2.456.072 4.668.335 4.916.583.248.249 2.747.296 5.552.104 3.662-.25 5.375-.86 6.073-2.162.923-1.726.173-1.796-15.268-1.423-9.449.228-16.865-.011-17.738-.572-1.151-.74-.802-.972 1.5-.995 2.307-.024 2.654-.254 1.5-1-1.251-.809-1.178-.972.441-.985 1.922-.015 1.922-.03 0-1.444-1.858-1.367-1.863-1.459-.113-2.137 2.733-1.059 28.946.107 31.352 1.395 3.336 1.785 3.507 4.004.777 10.087-1.83 4.078-3.992 6.829-7.583 9.645-7.773 6.096-8.874 9.25-8.874 25.411v13.596l5.25 5.076c2.888 2.792 6.037 5.35 7 5.685 2.588.9 2.123 3.579-.815 4.696-3.117 1.185-16.435 1.305-16.435.148 0-.455 1.35-.628 3-.386s3 .051 3-.424c-.001-.474 2.362-.797 5.25-.717 2.887.08 3.779-.06 1.981-.314-1.798-.254-3.07-.783-2.827-1.176.243-.393-1.08-1.191-2.94-1.773-1.86-.583-3.149-.682-2.864-.22.285.46-.409.837-1.541.837s-2.059-.45-2.059-1-.675-1-1.5-1-1.5.468-1.5 1.04c0 .6-.59.493-1.395-.25-2.052-1.898-.917-2.874 3.032-2.608 2.159.146 3.824-.31 4.371-1.195.74-1.199.991-1.152 1.543.285.362.944 1.09 1.45 1.617 1.124.527-.325 1.727.015 2.666.756.94.741.124-.227-1.813-2.152-3.197-3.178-3.591-3.328-4.284-1.628-.585 1.436-1.43 1.74-3.623 1.3-2.242-.448-3.374-.007-5.237 2.04-1.307 1.436-1.846 2.306-1.196 1.933.65-.373 1.463-.22 1.809.339.345.559-.186 1.048-1.181 1.086-1.615.063-1.594.163.191.93 1.552.667.992.902-2.5 1.047l-4.5.188 4.936.826c2.716.455 5.303.6 5.75.324.448-.277.814-.026.814.556 0 1.052-6.11 1.23-11 .322zm1.137-4.05c-.722-.241-1.787.037-2.369.619-.742.742-.351.872 1.312.437 1.352-.354 1.806-.807 1.057-1.057zm12.606-28.463c-.19-3.987-.346-.725-.346 7.25s.156 11.238.346 7.25c.19-3.987.19-10.512 0-14.5zm-.215-8.122c1.252-.48 1.472 1.474 1.472 13.07 0 7.5.202 13.433.449 13.187.247-.247.527-8.179.622-17.626.095-9.448.456-17.114.801-17.036.345.078 2.878-2.017 5.628-4.656 4.224-4.054 4.61-4.71 2.492-4.224-3.414.781-5.915-.727-3.472-2.094 2.197-1.23 1.286-2.862-1.94-3.479-3.347-.64-5.502.708-3.822 2.388.966.966 1.509.975 2.442.042.66-.66 1.897-1.186 2.75-1.168 1.213.025 1.115.364-.45 1.562-1.903 1.456-1.914 1.594-.22 2.85 1.705 1.265 1.705 1.352 0 2.101-.98.43-2.23.821-2.78.869-.55.047-1 .761-1 1.586 0 .825.546 1.393 1.214 1.262.727-.143.972.393.61 1.334-.485 1.267-.766 1.313-1.448.238-.465-.734-.852-.907-.86-.384-.01.54-.469.497-1.064-.098-.73-.73-.687-1.839.142-3.659.987-2.167.894-3.063-.548-5.264l-1.738-2.652-1.717 2.838c-1.677 2.772-1.651 2.936 1.096 7.007 1.547 2.292 2.813 4.753 2.813 5.469 0 .715-1.34-.813-2.978-3.395-1.638-2.583-3.303-4.696-3.7-4.696-.397 0-.182.54.478 1.2 2.657 2.657.99 2.973-1.764.334-1.63-1.562-2.67-3.334-2.308-3.937.36-.603-.19-.422-1.223.403-1.704 1.36-1.819 1.337-1.228-.24.484-1.29.012-1.9-1.825-2.361-1.363-.342-2.948-1.36-3.523-2.26-.799-1.253-.954-1.286-.658-.14.213.826 1.476 2.057 2.808 2.736 1.332.68 1.992 1.242 1.468 1.25-.524.008.787 1.796 2.913 3.974 2.126 2.177 4.272 3.707 4.77 3.4.497-.308.82.048.718.79-.102.743-.118 2.026-.036 2.85.119 1.2.356 1.145 1.18-.27 1.296-2.226 2.93-1.315 2.838 1.58-.066 2.032-.125 2.051-.825.264-.7-1.788-.804-1.8-1.43-.168-.892 2.324-.857 3.826.075 3.248.412-.255.717 6.13.678 14.191l-.073 14.656.35-13.154c.278-10.429.655-13.27 1.823-13.718zm-3.964-8.921c.376-.986.935-1.541 1.243-1.233.308.307 0 1.114-.683 1.793-.988.98-1.102.865-.56-.56zm-4.64-4.457l-2.424-2.75 2.75 2.424c2.57 2.266 3.209 3.076 2.424 3.076-.179 0-1.416-1.238-2.75-2.75zm14.672.36c.307-.8 1.263-1.726 2.124-2.056 2.437-.935 2.314-.226-.299 1.728-1.795 1.343-2.245 1.423-1.825.328zm6.404-6.717c0-1.438-1.735-1.026-2.342.556-.372.969-.076 1.265.893.893.797-.306 1.449-.958 1.449-1.449zm-20.557-.311c-1.067-.78-2.153-1.206-2.412-.946-.55.55 2.028 2.326 3.41 2.349.518.008.068-.623-.998-1.403zm27.478-5.52c-.068-1.345-.155-1.354-.625-.062-.3.825-1.727 2.85-3.17 4.5l-2.626 3 3.25-2.937c1.788-1.615 3.214-3.64 3.171-4.5zM118 179.775c.825-.268-1.951-.494-6.17-.503-6.568-.015-7.583.209-7.066 1.555.395 1.03.741 1.159 1.003.373.568-1.704 4.75-1.486 6.254.326 1.087 1.31 1.493 1.328 2.872.13.884-.766 2.282-1.613 3.107-1.881zm14.266.976c.301-.785-.41-1.25-1.912-1.25-2.158 0-2.224.122-.681 1.25.94.688 1.8 1.25 1.911 1.25.111 0 .418-.563.682-1.25zm-18.016-8.412c-.688-.278-1.813-.278-2.5 0-.688.277-.125.504 1.25.504s1.938-.227 1.25-.504zm18.881-.68c-.612-.738-.818-1.638-.456-2 1.092-1.092-4.06-.708-5.675.423-1.174.822-1.011.913.75.417 1.266-.356 2.25-.191 2.25.377 0 .556-1.913 1.182-4.25 1.393-3.28.295-2.796.422 2.122.557 5.23.144 6.173-.066 5.26-1.167zm-17.402-1.262c-.332-.332-1.195-.368-1.916-.08-.798.32-.561.557.604.605 1.054.043 1.644-.193 1.312-.525zm0-2c-.332-.332-1.195-.368-1.916-.08-.798.32-.561.557.604.605 1.054.043 1.644-.193 1.312-.525zm2.084 71.92c.721-.288 1.584-.252 1.916.08.332.332-.258.568-1.312.525-1.165-.048-1.402-.285-.604-.604zm65.119-5.816c-.054-.55-.211-2.013-.348-3.25-.302-2.721.033-2.835 1.311-.446.59 1.102.61 2.366.05 3.25-.503.795-.959.996-1.013.446zM43.5 213.93c-2.93-.473-1.616-.684 4.917-.788 4.904-.078 8.715.06 8.468.306-.828.828-9.346 1.135-13.385.482zm130.636.34l-2.364-.439 2.728-1.415c1.5-.779 3.465-1.46 4.364-1.516.915-.055.567-.398-.79-.777-1.334-.373-2.61-1.228-2.833-1.9-.306-.919 2.599-1.223 11.676-1.223 9.798 0 12.083.27 12.083 1.427 0 .784-.787 1.632-1.75 1.884-1.617.422-1.613.466.059.573.995.064 1.53.566 1.191 1.116-.34.55-.029 1.007.691 1.015 1.017.012.998.213-.085.898-1.41.893-20.614 1.168-24.97.358zm16.114-3.932c-.688-.278-1.813-.278-2.5 0-.688.277-.125.504 1.25.504s1.938-.227 1.25-.504zm-1-2.044c-1.238-.238-3.263-.238-4.5 0-1.238.239-.225.434 2.25.434s3.487-.195 2.25-.434zm-129.981 5.013c.973-.254 2.323-.237 3 .037.677.274-.119.481-1.769.461-1.65-.02-2.204-.244-1.231-.498zm-12.541-2.029c1.775-.22 4.925-.224 7-.008 2.074.217.622.397-3.228.402-3.85.004-5.548-.173-3.772-.394zm12.085.039c.721-.289 1.584-.253 1.916.079.332.332-.258.568-1.312.525-1.165-.048-1.402-.285-.604-.604zm-24.63-9.067c.246-2.132.913-2.819 2.972-3.057 1.798-.208 3.497-1.58 5.264-4.25 1.435-2.169 3.053-3.943 3.595-3.943.595 0 .986-4.91.986-12.374 0-16.344-.95-18.883-10.884-29.09-6.17-6.337-7.978-8.875-8.556-12.007-.626-3.39-.412-4.23 1.464-5.75 1.42-1.15 3.663-1.722 6.337-1.619 3.57.138 3.703.215.963.558-3.47.434-6.894 3.282-3.946 3.282.892 0 1.622-.536 1.622-1.191 0-.693.523-.513 1.25.43.688.89 2.375 1.815 3.75 2.054 1.375.24.16.496-2.7.57-3.866.102-5.434-.28-6.112-1.491-.618-1.105-1.134-1.268-1.604-.508-.38.616-.232 1.911.331 2.878.753 1.293 1.032 1.377 1.055.317.022-1.06.389-.95 1.388.416 1.189 1.626 2.774 1.851 12.75 1.813 6.266-.024 11.914.373 12.553.883.719.573 1.392.552 1.768-.057.334-.54 2.22-.72 4.19-.401 2.49.404 3.85.155 4.466-.816C68.52 136.63 68.153 136 65.393 136c-1.862 0-2.449-.413-2.052-1.445.417-1.087-.485-1.54-3.643-1.825l-4.198-.38 4.691-.175c2.58-.096 4.936.22 5.234.704.54.874 4.575 2.262 4.575 1.574 0-.847-6.79-3.39-10-3.746-2.638-.292-2.223-.426 1.685-.547 6.983-.216 10.315 1.137 10.315 4.188 0 4.74-3.96 11.462-9.578 16.263-5.344 4.565-8.422 9.525-8.422 13.57 0 1.065-.39 1.696-.866 1.402-.476-.294-.65-1.666-.386-3.047.339-1.77-.364-3.527-2.384-5.953A757.12 757.12 0 0 1 46 151.296c-.825-1.016-1.163-1.408-.75-.871 1.767 2.298.542 2.729-1.72.604-1.357-1.276-2.188-2.774-1.845-3.329.355-.573.125-.7-.53-.295-.635.392-1.155.21-1.155-.405s-.51-.803-1.134-.417c-.784.485-.995-.253-.681-2.388.25-1.7.085-2.862-.366-2.583-.45.278-.819 1.154-.819 1.947 0 2.162-2.11 1.735-2.707-.548-.286-1.094-.934-1.733-1.44-1.42-1.124.694 5.037 7.904 6.769 7.922 1.562.016 2.878 1.306 2.878 2.82 0 .642.637 1.167 1.417 1.167.779 0 1.625.625 1.88 1.39.295.885.026 1.119-.741.645-.87-.538-.849-.176.079 1.31.994 1.592 1.59 1.798 2.65.918 2.563-2.127 3.055 1.295 2.682 18.661-.218 10.177-.035 15.662.452 13.576l.818-3.5.25 3 .25 3 .763-3c.42-1.65.817-2.29.882-1.423.167 2.236 8.225 10.66 10.607 11.088 2.365.426 3.274 3.736 1.36 4.95-.742.47-3.374.794-5.849.72l-4.5-.135 4.422-.6c2.433-.33 4.6-1.14 4.817-1.8.288-.876-.415-.967-2.616-.335-2.425.695-3.07.547-3.323-.763-.208-1.082-1.398-1.652-3.556-1.704-1.784-.043-3.244.2-3.244.539 0 .34-1.35.418-3 .176-1.68-.246-3-1.05-3-1.826 0-1.727 2.652-1.836 3.338-.137.382.949.523.956.583.031.045-.697.827-.978 1.829-.655 1.333.429 1.427.332.393-.407-.956-.683-1.027-1.173-.242-1.658.613-.379 1.84.037 2.726.923.886.886 1.868 1.354 2.183 1.04.314-.314-.173-1.316-1.083-2.225-1.393-1.394-2.077-1.46-4.35-.425-1.748.797-2.913.878-3.313.23-.733-1.187-1.863-.474-4.564 2.879-1.543 1.915-1.6 2.173-.25 1.127 1.156-.895 1.75-.974 1.75-.232 0 .617-.562 1.174-1.25 1.237-.687.064-1.7.22-2.25.348-.55.128-2.275.3-3.833.385-4.146.223-2.793 2.53 1.911 3.26l3.922.608-4.816.142c-4.693.138-4.809.072-4.5-2.608zm15.019-41.489c-.61-2.47-2.202-1.126-2.202 1.857 0 1.375.338 2.291.75 2.036.412-.256.69 5.905.618 13.69l-.132 14.156.697-15c.384-8.25.504-15.782.269-16.739zm9.017-8.398c1.962-2.083 2.573-3.373 1.82-3.84-.83-.512-.787-1.135.162-2.314 1.117-1.387.952-1.375-1.174.089-3.499 2.409-5.025 2.076-2.027-.443 2.274-1.91 2.29-1.976.184-.728-1.274.755-2.278 1.715-2.23 2.133.135 1.189-3.047 6.98-3.556 6.472-.25-.25.02-1.703.6-3.228.827-2.174.713-3.296-.524-5.185l-1.58-2.41-1.988 2.295c-1.828 2.112-1.963 2.137-1.688.321.165-1.086 1.395-2.521 2.734-3.189 2.375-1.183 2.35-1.211-1.009-1.142-1.893.039-3.74.237-4.101.44-.842.474 4.39 10.81 6.258 12.366.33.275 1.172 1.584 1.871 2.91 1.21 2.294 1.319 2.318 2.281.5.556-1.05 2.341-3.322 3.967-5.047zm-5.748 3.59c-.853-1.38.472-3.106 1.768-2.305.705.435.875.091.473-.955-.612-1.596 1.566-4.693 3.3-4.693 2.108 0 1.569 1.79-1.57 5.215-1.86 2.03-3.647 3.262-3.971 2.738zm5.96-6.856c-.263-.263-1.255.333-2.205 1.324-1.65 1.722-1.628 1.744.479.479 1.212-.729 1.989-1.54 1.726-1.803zm5.521-2.403c1.186-1.546 1.182-1.763-.033-1.5-1.801.388-2.947 1.952-2.253 3.075.294.475.617.722.717.548.1-.175.807-1.13 1.57-2.123zm-21.379-2.215c-2.055-1.555-3.203-1.308-2.114.454.362.587 1.42 1.053 2.35 1.035 1.485-.028 1.456-.21-.236-1.49zm13.25-1.812c.187-.964-.315-1.667-1.19-1.667-1.858 0-2.98 1.63-2.1 3.053.904 1.463 2.9.623 3.29-1.386zm4.86-.854c-.32-.798-.556-.561-.604.604-.043 1.054.193 1.644.525 1.312.332-.332.368-1.195.08-1.916zm9.315-4.619c0-.932-.803-.119-1.783 1.806-.98 1.925-2.362 3.376-3.073 3.225-.772-.164-.995.203-.556.914.92 1.487 5.415-3.45 5.412-5.945zm102.154 66.92c-1.92-1.216-1.002-4.531 1.36-4.91 1.093-.177 3.865-2.42 6.16-4.988l4.172-4.667 2.248 1.976c1.968 1.73 2.168 1.757 1.609.225-.358-.982-.163-1.75.444-1.75.743 0 .961-4.395.697-14.024-.212-7.714-.07-13.226.316-12.25.386.975.738 6.949.784 13.274l.082 11.5 4.661 4.84c2.564 2.663 5.709 5.24 6.989 5.726 2.41.916 3.105 3.335 1.282 4.461-.574.355-1.68.117-2.459-.53-.818-.678-2.804-.93-4.706-.597-1.81.317-2.729.32-2.041.005.687-.315 1.25-1.236 1.25-2.047 0-.812-.419-1.217-.93-.9-.513.316-1.214.117-1.56-.442-.345-.559-1.303-1.016-2.128-1.016-.825 0-1.222.45-.882 1 .34.55-.196 1.007-1.191 1.015-1.534.013-1.58.163-.309.985 1.065.688 1.125.974.208.985-.71.008-2.203-.834-3.318-1.873-1.707-1.59-2.489-1.712-4.97-.776-2.688 1.015-2.77 1.176-.932 1.855 1.107.41 2.012 1.033 2.012 1.385 0 .59-2.48.182-7.5-1.236-1.662-.47-1.781-.335-.704.798.906.952 5.265 1.53 14.5 1.92l13.204.556-13.5.178c-7.425.098-14.107-.207-14.848-.677zM198 200.156c0-.465-1.012-1.702-2.25-2.75-2.248-1.903-2.249-1.903-.498.176.964 1.145 1.451 2.382 1.084 2.75-.368.368-.144.669.497.669.642 0 1.167-.38 1.167-.845zm-9.34-4.437c.638-.399 1.988-.414 3-.034 1.613.605 1.673.485.483-.978-1.203-1.479-1.594-1.503-3.432-.216-1.569 1.099-2.408 1.176-3.443.317-1.04-.862-1.73-.773-2.873.37-1.34 1.34-1.143 1.492 1.8 1.385 1.818-.066 3.827-.446 4.465-.844zm-1.964-23.527c-.337-7.046-.783-13.458-.99-14.25-.208-.793-.189-1.1.043-.685.232.416.73.565 1.109.332.377-.233.81 5.839.96 13.494.15 7.655.097 13.918-.118 13.918s-.667-5.764-1.004-12.81zM53.232 172c0-1.925.206-2.712.457-1.75.252.963.252 2.538 0 3.5-.251.963-.457.175-.457-1.75zm129.904-8.285c-.186-3.807-2.552-7.188-9.779-13.975-11.688-10.977-12.687-19.997-2.173-19.622l3.316.119-3 .641c-5.12 1.095-2.328 2.63 4.5 2.473 3.575-.082 4.925.082 3 .364-3.016.442-3.224.633-1.5 1.385 1.38.602.216.799-3.751.636-3.916-.16-5.751.144-5.75.955 0 .655.424 1.452.941 1.772.517.32 8.583.76 17.925.977 14.333.334 17.073.165 17.552-1.085.314-.819 1.089-1.16 1.73-.764.723.446.892.281.448-.436-.392-.635-2.31-1.155-4.261-1.155-2.672 0-3.412-.354-2.997-1.435.303-.79.013-1.654-.643-1.921-.657-.268.07-.522 1.615-.565 1.634-.046 2.55.34 2.191.921-.34.55.083 1 .941 1 2.389 0 1.852-1.9-.691-2.442l-4.25-.903c-1.1-.233-.058-.475 2.316-.539 2.373-.064 5.186.35 6.25.92 4.475 2.394.514 11.797-8.584 20.373-4.127 3.89-6.482 6.903-6.482 8.292 0 3.01-1.646 3.762-2.349 1.074-.317-1.212-.085-2.507.515-2.877 1.504-.93.106-2.898-2.058-2.898-.976 0-2.088-.313-2.47-.696-1.075-1.074-3.72-1.247-3.074-.2.316.51.988.673 1.494.36.505-.312.652.128.326.978-.327.85-.978 1.309-1.449 1.018-.47-.29-.388.81.182 2.447.57 1.636.84 4.014.596 5.284-.387 2.028-.457 1.97-.577-.476zm17.26-17.883c-1.157-1.872-3.199-.79-2.677 1.418.521 2.209.503 2.213-1.005.261-.845-1.094-1.325-2.331-1.066-2.75.258-.419.02-.761-.53-.761s-1.278.45-1.618 1c-.34.55-.181 1 .352 1 .534 0 .879.63.766 1.4-.294 1.998-2.696 4.67-3.662 4.073-1.465-.906-2.162 1.574-.878 3.121 1.08 1.3 1.907.861 6.041-3.212 2.635-2.595 4.56-5.093 4.277-5.55zm-8.58 7.586c1.246-2.414 4.02-4.916 4.698-4.238.256.256-.938 1.783-2.654 3.393-2.365 2.219-2.86 2.423-2.044.845zm-11.492-.668c-.436-.688-.857-1.587-.934-2-.077-.412-.252-.975-.39-1.25s-.306-.912-.375-1.417c-.259-1.898-1.602-2.305-2.228-.675-.41 1.067.202 2.6 1.65 4.143 2.486 2.645 3.552 3.207 2.277 1.199zm8.4-2.045c.788-1.727.674-3.006-.458-5.167l-1.505-2.872-1.804 2.391c-1.688 2.237-1.698 2.572-.165 5.168 1.992 3.372 2.582 3.444 3.933.48zm-6.13-1.286c-.584-1.237-1.428-2.022-1.876-1.745-.448.277-.347 1.068.225 1.757.572.69.819 1.474.548 1.744-.27.27.106.492.836.492 1.024 0 1.085-.514.267-2.248zm9.755-1.951c-.793-2.067-1.349-1.824-1.349.591 0 1.132.43 1.793.956 1.468.526-.325.703-1.252.393-2.059zM175 146c0-.55-.648-1-1.441-1-2.1 0-3.042-2.07-1.437-3.157 1.047-.709.898-.868-.622-.663-1.1.149-2.675-.124-3.5-.605-.825-.482.05.767 1.946 2.775 3.465 3.67 5.054 4.503 5.054 2.65zm5-.893c0-.491-.739-1.176-1.641-1.523-1.373-.527-1.435-.38-.378.893 1.44 1.735 2.019 1.916 2.019.63zm2.79-4.237c-.7-.433-1.727-.3-2.282.297-.684.735-.606 1.23.242 1.541.687.252 1.279 1.209 1.313 2.125.042 1.1.394.842 1.032-.755.7-1.753.616-2.638-.305-3.208zm10.014 1.547c.253-1.597.13-1.667-.735-.417-.571.825-1.045 1.033-1.054.463-.008-.57-.885-1.103-1.948-1.183-1.82-.137-1.835-.039-.25 1.698 2.041 2.236 3.578 2.02 3.987-.56zm3.722-1.224c-.307-.308-1.114 0-1.793.683-.98.988-.865 1.102.56.56.986-.376 1.541-.935 1.233-1.243zM46.5 156c.34-.55.816-1 1.059-1s.441.45.441 1-.477 1-1.059 1-.78-.45-.441-1zm.25-19.706c1.238-.238 3.263-.238 4.5 0 1.238.239.225.434-2.25.434s-3.487-.195-2.25-.434zm-9.938-2.977c.722-.289 1.585-.253 1.917.079.332.332-.258.568-1.312.525-1.165-.048-1.402-.285-.605-.604zm11.95-2.024c1.244-.24 3.044-.23 4 .02s-.062.446-2.262.435c-2.2-.011-2.982-.216-1.738-.455zM179.5 131c1.65-.709 1.402-.872-1.417-.93-5.572-.114-3.066-.912 4.439-1.412 3.838-.256 7.878-.09 8.978.368 1.433.597.298.902-4 1.076l-6 .243 6.5.655 6.5.655-8.5.102c-5.542.067-7.804-.197-6.5-.757zm-134.25-1.728c2.063-.216 5.438-.216 7.5 0 2.063.215.375.392-3.75.392s-5.813-.177-3.75-.392zm2.21-2.208c.688-1.113 4.54-.986 4.54.149 0 .433-1.152.787-2.559.787-1.407 0-2.299-.421-1.98-.936zm-13.588-1.751c-1.208-1.485-1.153-1.605.46-1 1.007.378 2.946.687 4.309.687 1.397 0 2.207.436 1.859 1-.983 1.59-5.125 1.16-6.628-.687zm24.783.437c.255-.412 1.786-.75 3.404-.75 1.925 0 2.941-.51 2.941-1.475 0-1.092-.748-1.325-2.879-.9-1.79.359-3.172.102-3.654-.679-.536-.866-.37-1.004.533-.446.772.477 1.065.415.715-.152-.326-.528-2.192-.774-4.146-.546-1.954.228-3.307.813-3.006 1.3.3.486-.603.79-2.008.673-1.405-.116-2.555-.746-2.555-1.4 0-1.313-3.673-.734-5.773.91-.97.76-1.104.547-.563-.894.577-1.536.44-1.683-.727-.782-1.523 1.176-7.937 2.677-7.937 1.858 0-.266 1.688-1.164 3.75-1.995 4.673-1.885 8.553-7.48 9.343-13.472l.593-4.5.227 5.5c.163 3.949.456 4.936 1.039 3.5.716-1.765.866-1.647 1.28 1 .741 4.746.839-15.363.116-23.912-.786-9.297-2.25-8.166-2.473 1.912l-.155 7-.739-7.74c-.86-9.013-1.466-10.096-10.799-19.323-7.014-6.936-9.404-11.81-7.818-15.944.81-2.112 4.981-3.519 9.951-3.357 2.472.08 3.162.298 1.685.53-6.339.999-7.443 1.442-5.948 2.387.796.504.998.977.448 1.05-.55.074.35.477 2 .897 2.849.725 2.791.77-1.143.882-2.843.08-4.34.634-4.774 1.761-.346.904-.394 1.879-.107 2.167.288.288.524-.057.524-.766 0-.916.362-.99 1.25-.255 1.444 1.194 9.834 1.895 11.363.95.568-.35 3.024-.443 5.46-.206 17.231 1.68 17.923 1.652 18.826-.762.75-2.002.48-2.344-2.275-2.89-1.718-.34-2.31-.677-1.315-.75 1.05-.076 1.522-.595 1.125-1.238-.464-.751.08-.897 1.69-.452 1.927.53 2.06.455.705-.399-1.12-.705-2.518-.73-4.241-.075-1.414.537-3.33.686-4.256.33-1.515-.581-1.49-.723.241-1.402 1.684-.66 1.612-.765-.573-.84-1.375-.047-3.082-.455-3.793-.906-1.45-.92 8.663-.356 13.21.735 4.691 1.126 5.231 3.09 2.62 9.525-1.688 4.159-3.737 6.89-7.733 10.303-8.069 6.893-8.648 8.47-9.1 24.788l-.388 14 4.35 4.5c2.393 2.475 5.585 5.053 7.093 5.729 2.892 1.296 3.586 3.606 1.491 4.962-1.575 1.02-7.72 1.07-7.095.059zm-10.479-7.287c1.472-.14 3.15-.546 3.73-.905.579-.358 2.074-.129 3.323.51l2.271 1.16-2.215-2.301c-2.112-2.194-2.303-2.22-4.13-.567-1.663 1.505-2.107 1.545-3.348.305-1.24-1.24-1.754-1.09-3.868 1.136-2.116 2.228-2.174 2.458-.439 1.741 1.1-.454 3.204-.94 4.676-1.08zm3.565-22.674c-.195-3.459-.357-.889-.36 5.711-.001 6.6.159 9.43.357 6.29.198-3.142.2-8.542.003-12zm-1.058-8.977c-.32-.797-.556-.56-.604.605-.043 1.054.193 1.644.525 1.312.332-.332.368-1.195.08-1.916zm1.912-6.425c-.323-.842-.142-1.225.416-.88.544.336.989.115.989-.49 0-.607 2.138-3.401 4.75-6.21 2.94-3.163 4.274-5.274 3.5-5.541-.688-.238-1.25-1.295-1.25-2.35 0-1.355-.659-1.882-2.25-1.8-1.518.078-1.715.258-.606.553 2.253.599 3.155 5.334.96 5.043-.882-.116-1.604.056-1.604.384 0 1.248-2.764 3.859-3.563 3.365-1.11-.686-3.203 3.3-2.409 4.584.341.553.081.88-.579.73-.66-.151-1.426.35-1.704 1.114-.309.851-.067 1.119.625.691.751-.464 1.14.412 1.16 2.611.026 2.803.192 3.032 1.084 1.498.58-.996.796-2.482.481-3.302zm.121-3.685c-.292-.76-.13-2.018.361-2.793.49-.775.9-1.002.908-.504.008.498.802.229 1.765-.598 3.86-3.315 4.549-2.884 1.25.782-1.925 2.139-3.557 4.026-3.626 4.193-.07.167-.366-.318-.658-1.08zm-2.207-2.574c1.8-4.07 1.887-6.332.305-7.914-.915-.915-1.601-.811-3 .455-2.207 1.996-2.306 3.678-.314 5.331.825.685 1.498 2.202 1.496 3.372-.003 1.795-.314 1.619-1.985-1.122-1.867-3.063-3.157-4.178-2.893-2.5.301 1.906-.19 3.51-.868 2.833-.412-.412-.757-1.05-.765-1.416-.009-.367-.373-1.23-.81-1.917-.485-.765-.285-1.266.516-1.29.72-.022.072-.711-1.441-1.532-3.513-1.906-3.925-5.923-.5-4.873 1.238.38 2.799 1.128 3.47 1.664.831.665 1.992.366 3.656-.943l2.438-1.918-6.947.194c-3.82.107-7.229.476-7.574.821-.344.345-.101.627.54.627.642 0 1.167.675 1.167 1.5 0 2.037-1.67 1.894-2.92-.25-.56-.963-1.033-1.272-1.05-.687-.032 1.14 5.39 6.697 6.377 6.535.326-.054.48.08.343.297-.515.813 3.553 4.536 4.39 4.018.481-.297 1.143.161 1.472 1.018.329.857 1.07 1.266 1.647.909.628-.388.751-.166.306.554-.578.936-1.069.933-2.21-.014-1.272-1.056-1.302-.858-.225 1.507l1.241 2.723 1.323-2.305c.728-1.268 1.995-3.822 2.815-5.677zm-5.05.805c-.363-.586-.445-1.28-.183-1.543.262-.262.743.218 1.07 1.067.675 1.762.099 2.072-.887.476zM42 66.5c-.685-.825-1.726-1.5-2.314-1.5-.587 0-.195.66.873 1.468 2.508 1.898 2.998 1.908 1.441.032zm13-2.681c0-1.613-.293-1.82-1.342-.95-.738.612-1.7.78-2.135.372-.437-.407-.26.284.392 1.537 1.361 2.615 3.085 2.08 3.085-.96zm3.493 2.192c.35-.566-.051-.734-.941-.393-1.732.665-2.05 1.382-.611 1.382.518 0 1.216-.445 1.552-.989zm6.889-.563c.341-.89.173-1.291-.393-.94-.544.335-.989 1.033-.989 1.551 0 1.438.717 1.121 1.382-.61zm-35.458-9.72c1.183-1.544 1.146-1.692-.283-1.144-.902.347-1.641 1.332-1.641 2.19 0 .857.127 1.372.283 1.143.156-.23.894-1.215 1.641-2.19zM178 126.097c-4.431-1.223-.016-1.624 11.5-1.046 6.05.304 10.1.695 9 .87-4.447.703-18.16.82-20.5.175zm-8-2.897c0-1.157 1.282-2.263 3.591-3.098 2.223-.804 4.357-2.595 5.6-4.7 1.103-1.872 2.412-3.403 2.908-3.403 1.562 0 1.092-27.308-.536-31.128-.79-1.855-4.826-6.61-8.967-10.566-7.262-6.939-10.369-12.215-7.712-13.1.915-.306.924-.733.035-1.803-1.605-1.934.533-4.403 3.812-4.403 2.152 0 2.402.335 1.858 2.5l-.627 2.5h16.019c8.81 0 16.02-.338 16.02-.75.001-.412-6.636-.717-14.75-.677l-14.751.073 14-.573c17.904-.733 18.423-2.549.753-2.636l-12.753-.063 12.5.61 12.5.61-12.643.203c-10.805.174-12.733-.03-13.259-1.402-.553-1.44 1.008-1.569 15.24-1.25C205.78 50.525 208 51.149 208 55.54c0 4.715-3.714 10.973-9.391 15.823-7.81 6.672-8.609 9.042-8.609 25.547v13.665l4.784 4.713c2.632 2.591 5.509 4.712 6.393 4.712 1.933 0 3.272 2.951 1.943 4.28-.52.52-1.483.614-2.14.208-.902-.558-.862-.972.163-1.694.937-.66.507-.77-1.393-.356-1.512.33-3.971.294-5.464-.08-2.455-.617-2.526-.755-.75-1.45 1.514-.591 1.161-.78-1.536-.822-2.372-.038-3.055.227-2.118.82 1.976 1.251-1.34 2.169-7.058 1.952-2.48-.094-5.03.151-5.667.545-.636.393-1.157.247-1.157-.325 0-.572 1.168-1.333 2.595-1.691 1.729-.434 2.184-.905 1.365-1.412-1.657-1.024 2.605-3.322 5-2.696.966.253 2.414.091 3.219-.36.873-.488 2.643-.212 4.392.686l2.929 1.503-2.208-2.234c-1.84-1.862-2.6-2.055-4.564-1.16-1.619.738-2.927.754-4.182.052-1.49-.834-2.456-.355-5.25 2.606-1.882 1.995-4.406 3.68-5.609 3.744-1.71.09-1.803.216-.425.576 2.239.584 1.252 2.308-1.321 2.308-1.202 0-1.941-.685-1.941-1.8zm28-1.642c0-.243-.45-.72-1-1.059-.55-.34-1-.141-1 .441s.45 1.059 1 1.059 1-.198 1-.441zm-10.75-1.221c-.688-.278-1.813-.278-2.5 0-.688.277-.125.504 1.25.504s1.938-.227 1.25-.504zm-.507-26.544c-.19-4.012-.347-.994-.348 6.706-.002 7.7.154 10.982.346 7.294.191-3.689.193-9.989.003-14zM185.96 86c.496 0 1.097-1.012 1.335-2.25.239-1.238.495 4.688.57 13.167.075 8.479.338 15.214.586 14.967.247-.247.526-8.416.62-18.152.093-9.736.5-17.498.904-17.248.405.25 1.813-.766 3.13-2.258 2.21-2.5 2.221-2.564.146-.814-2.768 2.335-3.02.594-.274-1.89 1.087-.984 1.765-2.132 1.506-2.55-.259-.42.171-1.009.955-1.31.989-.379 1.313.04 1.058 1.365-.316 1.639-.102 1.744 1.504.742 1.03-.643 1.65-1.53 1.377-1.97-.272-.44-.102-.799.377-.799s1.888-1.462 3.132-3.25l2.26-3.25-2.524 2.75c-1.389 1.512-3.334 2.752-4.323 2.754-1.996.004-8.298 3.56-8.298 4.681 0 .393.54.175 1.2-.485 2.029-2.029 3.224-1.326 1.321.776-.983 1.087-2.131 1.765-2.55 1.506-.419-.259-1.044.266-1.39 1.167-.345.9-.898 1.367-1.229 1.037-.33-.33.325-2.169 1.456-4.086 1.346-2.281 1.593-3.307.715-2.97-.77.295-1.623-.37-2-1.558-.878-2.765-1.956-2.613-3.363.476-.932 2.046-.85 3.15.413 5.593.866 1.675 1.353 3.267 1.082 3.538-.271.27-1.002-.459-1.624-1.621-.622-1.163-1.499-1.887-1.948-1.61-1.147.71-4.252-2.935-3.335-3.915.414-.442-.373-.238-1.748.454-2.037 1.025-2.275 1.02-1.285-.03.96-1.017.855-1.555-.5-2.561-1.405-1.044-1.5-1.627-.525-3.226 1.043-1.71.946-1.888-.778-1.437-1.44.377-1.798 1.052-1.333 2.516.461 1.454.29 1.788-.626 1.222-.827-.51-1.012-.376-.538.39.398.645 1.172.894 1.721.555.549-.34.855.045.68.853-.36 1.675 8.725 11.857 9.705 10.876.353-.352.331.596-.048 2.107-.38 1.511-.304 2.747.169 2.747.472-.001.83 6.636.795 14.75l-.063 14.751.341-13.25c.188-7.287.747-13.25 1.244-13.25zm-1.156-7.192c-.193-1.27-.836-2.218-1.428-2.107-.593.11-2.583-1.353-4.423-3.25-1.84-1.898-2.876-3.451-2.303-3.451.572 0 1.858.903 2.857 2.006.998 1.104 2.04 1.781 2.315 1.506.275-.274 1.145.422 1.933 1.548 1.328 1.896 1.608 1.933 3.788.504 1.496-.98 2.582-1.172 2.98-.528.345.557.07.89-.61.739-.679-.151-1.512.817-1.851 2.15-.82 3.23-2.818 3.772-3.258.883zM179 65.5c-.685-.825-1.752-1.486-2.372-1.468-.62.017-.254.692.813 1.5 2.494 1.886 3.14 1.873 1.559-.032zm16.469-1.55c-.323-.523-.148-.95.389-.95.536 0 1.184.563 1.439 1.25.34.916.953.783 2.295-.497 1.75-1.67 1.519-1.738-5.247-1.523-6.498.207-6.987.37-5.97 1.998 1.248 2 2.218 2.239 3.125.772.34-.55 1.352-1 2.25-1 1.377 0 1.329.243-.309 1.555-1.86 1.49-1.845 1.509.337.45 1.253-.608 2.014-1.533 1.691-2.055zm-11.646-.236c.816-.984.492-1.334-1.378-1.49-2.365-.195-3.151.737-1.778 2.11 1 1 1.969.81 3.156-.62zm15.218-3.234c3.229.409 4.908-.604 4.943-2.98.01-.631-6.809-1-18.485-1-10.175 0-18.493.225-18.484.5.068 2.157 2.13 3.238 5.22 2.737 1.89-.307 4.058-.174 4.817.295.803.496 1.9.423 2.62-.175.683-.566 1.82-.67 2.53-.232.71.439 3.192.725 5.516.636 2.324-.089 4.503.288 4.843.837.409.662 1.033.654 1.85-.024.679-.563 2.762-.83 4.63-.594zM116 115.167c0-.459 1.35-.834 3-.834s3 .375 3 .834c0 .458-1.35.833-3 .833s-3-.375-3-.833zm-14.298-1.798c-1.023-1.024 1.23-4.369 2.942-4.369.865 0 3.544-2.138 5.954-4.75l4.38-4.75.082-11.5c.044-6.325.386-12.273.76-13.219.374-.945.64 4.455.591 12l-.088 13.719.636-12 .636-12 .353 13.5c.256 9.8.544 12.267 1.052 9 .691-4.445.704-4.457 1.022-1 .236 2.553.5 1.74.978-3l.655-6.5.172 5.538c.163 5.208.455 5.809 4.923 10.109 2.613 2.514 5.538 4.846 6.5 5.18.963.336 1.75 1.524 1.75 2.642 0 1.701-.608 2.012-3.75 1.913-3.633-.115-3.656-.139-.75-.76 1.65-.353 2.775-1.087 2.5-1.632-.552-1.092-9.064-1.397-13-.466-1.375.326-3.85.282-5.5-.098-1.65-.379-2.325-.774-1.5-.878 1.058-.133.91-.426-.5-.995-1.147-.462-2.54-.374-3.268.208-.697.558-2.235 1.064-3.417 1.126-3.174.167-3.547 2.613-.398 2.613 1.42 0 2.583-.388 2.583-.861 0-.474 1.238-.616 2.75-.316l2.75.546-2.5.716c-3.247.93-8.492 1.09-9.298.284zm20.298-3.81c0-1.055-1.92-1.499-2.49-.575-.345.559.073 1.016.931 1.016.857 0 1.559-.198 1.559-.441zm7 .063c0-.207-.787-.995-1.75-1.75-1.586-1.243-1.621-1.208-.378.378 1.307 1.666 2.128 2.195 2.128 1.372zm-9.163-4.014a1.996 1.996 0 0 1 2.45.28c1.986 1.985 3.079 1.174 1.206-.896-1.694-1.872-1.941-1.897-3.637-.362-1.51 1.368-2.084 1.426-3.387.344-1.3-1.078-1.829-1.043-3.074.203-1.34 1.34-1.143 1.492 1.8 1.385 1.818-.066 3.907-.495 4.642-.954zm-73.758-5.191c.048-1.165.285-1.402.604-.605.289.722.253 1.585-.079 1.917-.332.332-.568-.258-.525-1.312zM48.158 94c0-1.375.227-1.938.504-1.25.278.688.278 1.813 0 2.5-.277.688-.504.125-.504-1.25zm72.99-15.5c-.201-8.99-.206-9.007-4.675-14.924-2.46-3.259-4.473-5.544-4.473-5.079 0 .465.737 1.66 1.638 2.656 1.263 1.396 1.374 2.128.483 3.201-1.273 1.534-.445 4.965.984 4.081.492-.304.895-1.003.895-1.553s-.52-.679-1.155-.287c-.731.453-.882.274-.41-.49.537-.868 1.104-.903 2.043-.123 1.537 1.276 2.627 6.018 1.383 6.018-.473 0-.861-.702-.861-1.559 0-2.407-1.99-.614-2.074 1.868-.05 1.477-.62.76-1.75-2.2-1.165-3.054-3.761-6.247-8.518-10.478C97.018 52.836 95 49.706 95 44.657c0-4.079 2.156-5.362 5.304-3.157 1.177.825 1.703 1.532 1.169 1.57-.535.039-.073.457 1.027.93 1.786.767 1.712.867-.691.93-1.48.038-2.938.469-3.239.957-.941 1.522 1.792 2.958 5.186 2.723 1.787-.124 3.795.113 4.463.525.668.413 1.828.24 2.579-.382.894-.742 1.94-.809 3.033-.193.918.517 6.169.94 11.669.94 9.609 0 10.012-.088 10.32-2.25.214-1.513-.195-2.25-1.25-2.25-1.42 0-2.023-1.173-1.681-3.27.157-.97-4.963.21-6.639 1.53-.833.656-1.25.632-1.25-.074 0-.583-1.462-1.24-3.25-1.463-3.11-.386-3.079-.415.75-.695l4-.291-3.5-.817c-2.476-.578-1.125-.716 4.623-.472 9.772.416 12.377 1.565 12.377 5.461 0 4.17-4.426 11.38-9.578 15.602-6.868 5.627-7.846 7.693-8.497 17.937l-.574 9.052zm.295-11.75c-.38-1.238-.325-1.902.122-1.477.973.924 9.435-7.13 9.435-8.981 0-1.612-1.99-1.617-4.1-.01-2.122 1.617-2.358 2.817-.748 3.812.902.558.604.763-.94.647-1.243-.094-2.067-.677-1.83-1.296.239-.62-.01-1.76-.55-2.536-.825-1.181-.911-1.167-.533.091.248.825-.344 2.85-1.317 4.5-1.25 2.123-1.516 3.658-.907 5.25.473 1.237 1.13 2.25 1.46 2.25.33 0 .289-1.013-.092-2.25zm.033-2.789c-.958-1.55.738-3.065 2.33-2.081 1.031.637.997 1.038-.17 2.007-1.077.894-1.641.913-2.16.074zm5.95-5.652c.136-.935.783-1.804 1.436-1.93.654-.126.724 0 .157.281s-.796.891-.509 1.356c.287.465.105 1.104-.406 1.42-.51.315-.816-.192-.679-1.127zm-13.979 4.606c-.322-.521-.973-.708-1.447-.415-.914.565-2.317-1.166-2.633-3.25-.105-.688.333-1.257.971-1.265.656-.009.508-.435-.338-.977-.825-.53-2.244-.731-3.153-.449-1.404.437-1.54.011-.9-2.827.732-3.241.669-3.33-2.096-2.923-1.568.23-2.851.916-2.851 1.526 0 1.607 11.188 12.667 12.188 12.049.465-.287.581-.948.26-1.47zm-5.904-3.846c-.317-.512-.193-1.167.274-1.456.467-.289.85.13.85.931 0 1.686-.316 1.833-1.124.525zm-4.876-4.736c-1.151-1.15-.729-2.333.833-2.333.825 0 1.5.675 1.5 1.5 0 1.562-1.183 1.984-2.333.833zm17.08 6.7c.838-1.34.934-2.742.303-4.403-1.37-3.6-2.634-3.913-4.475-1.105-1.534 2.342-1.524 2.672.141 4.96 2.177 2.992 2.48 3.033 4.031.548zM110.2 53.8c-.642-.642-1.499-.835-1.904-.429-.406.406-.09 1.139.704 1.629 1.868 1.154 2.71.31 1.2-1.2zm4.3.2c.783-2.466 4.316-2.634 6.032-.288 1.066 1.46 1.493 1.512 2.884.358.898-.745 1.946-1.041 2.33-.658.382.383.034 1.115-.775 1.627-.898.568-1.007.936-.28.946 1.793.023 2.684-2.01 1.43-3.264-1.346-1.346-8.435-2.173-15.594-1.819-1.862.093-1.847.185.267 1.666 1.232.863 1.98 1.988 1.664 2.5-.317.513-.13.932.416.932.545 0 1.277-.9 1.626-2zm16.5-1.122c0-.829.353-.83 1.348-.004 1.035.859 1.79.596 3.25-1.128L137.5 49.5l-2.25 1.905c-1.268 1.074-2.25 1.401-2.25.75 0-1.615-1.859-1.44-3.643.345-1.333 1.333-1.325 1.5.072 1.5.864 0 1.571-.505 1.571-1.122zm-34.317-8.066c-.32-.797-.556-.56-.604.605-.043 1.054.193 1.644.525 1.312.332-.332.368-1.195.08-1.917zm22.57 37.688c.01-2.2.215-2.982.454-1.738.24 1.244.23 3.044-.02 4s-.446-.062-.435-2.262zm-71.44-25.183c.721-.289 1.584-.253 1.916.079.332.332-.258.568-1.312.525-1.165-.048-1.402-.285-.605-.604zM36.25 53.31c.963-.252 2.538-.252 3.5 0 .963.251.175.457-1.75.457s-2.712-.206-1.75-.457zm11-3c.963-.252 2.538-.252 3.5 0 .963.251.175.457-1.75.457s-2.712-.206-1.75-.457zm68.25-4.381l-5-.616 6-.32 6-.32L117 44l-5.5-.674 5.75-.163c4.326-.123 5.75.182 5.75 1.23 0 1.915-1.66 2.256-7.5 1.537zm10.313-.613c.721-.289 1.584-.253 1.916.079.332.332-.258.568-1.312.525-1.165-.048-1.402-.285-.605-.604zm-23.578-4.025c-3.905-.75-1.339-2.298 3.574-2.156 2.608.076 3.62.338 2.279.591-1.867.352-2.093.657-1 1.348 1.09.69.957.867-.588.774-1.1-.067-3.02-.317-4.265-.557zm6.478-6.913c-1.103-1.103-.841-15.27.322-17.445 1.225-2.29 3.52-2.537 4.315-.465.31.807.373 3.845.14 6.75l-.423 5.281.913-4.955c1.058-5.744 3.87-8.49 8.731-8.523 3.235-.022 7.158 2.976 7.414 5.667.577 6.056-.158 9.435-2.58 11.856-3.262 3.263-7.893 3.262-10.918-.002-2.267-2.446-2.276-2.447-2.202-.25.056 1.643-.573 2.283-2.462 2.503-1.396.163-2.859-.025-3.25-.417zm12.872-2.423c-1.603-.479-3.283-1.453-3.734-2.164-.589-.927-.825-.953-.836-.092-.02 1.548 2.921 3.255 5.485 3.184 1.378-.039 1.093-.327-.915-.928zM111.07 24l-.957-4.5.398 5.5c.517 7.125.682 7.92 1.139 5.5.208-1.1-.053-4.025-.58-6.5zM125 25.569c0-3.704-2.18-7.194-3.848-6.163-1.584.979-1.5 10.302.098 10.876 2.084.75 3.75-1.345 3.75-4.713zm-8.31-2.319c-.252-.962-.458-.175-.458 1.75s.206 2.712.457 1.75c.252-.963.252-2.538 0-3.5zm9.758-4.308C125.48 17.874 124.21 17 123.623 17c-.588 0-.068.7 1.154 1.557 1.223.856 2.259 2.318 2.302 3.25.053 1.13.253 1.259.603.385.288-.72-.268-2.182-1.234-3.25zm-8.066.506c.341-.89.173-1.291-.393-.94-.544.335-.989 1.033-.989 1.551 0 1.438.717 1.121 1.382-.61zM8.662 399.75c-.277-.688-.504-.125-.504 1.25s.227 1.938.504 1.25c.278-.688.278-1.813 0-2.5zm109.088 2.56c-.963-.25-2.538-.25-3.5 0-.963.252-.175.458 1.75.458s2.712-.206 1.75-.457zm-2.078-5.649c.364-.364-.426-.675-1.755-.693-2.342-.03-2.357-.077-.474-1.501 1.068-.808 3.093-1.405 4.5-1.327 1.406.078 3.232-.034 4.057-.249.825-.215 1.42.075 1.321.645-.098.57.678 1.035 1.723 1.035 1.8 0 1.788-.12-.234-2.273-1.616-1.72-2.457-2.006-3.46-1.174-.728.605-2.342.85-3.587.546-2.319-.566-3.992.36-6.942 3.846-1.617 1.91-1.57 1.98 1.256 1.895 1.614-.049 3.232-.386 3.595-.75zm14.756.589c-.497-.412-1.24-1.2-1.651-1.75-.426-.57-.753-.249-.762.75-.009.973.725 1.75 1.652 1.75.916 0 1.26-.338.761-.75zm-6.428-.643c0-.216-.698-.661-1.552-.989-.89-.341-1.291-.173-.94.393.586.95 2.492 1.406 2.492.596zm-6.833-25.26c.187-10.203.703-17.648 1.177-17 .547.747.664.583.332-.466-.282-.891.297-2.952 1.287-4.58 1.627-2.676 1.66-3.287.349-6.38l-1.452-3.421-1.91 2.337c-1.774 2.168-1.8 2.554-.358 5.34 1.886 3.649 1.233 5.867-1.569 5.327-1.163-.224-1.814.024-1.48.565.327.53 1.013.705 1.525.39.51-.317.858.238.772 1.233-.336 3.874.184 35.618.577 35.224.23-.229.567-8.585.75-18.57zm1.576-.055c-.193-3.736-.353-.942-.354 6.208-.002 7.15.156 10.206.35 6.792.195-3.415.196-9.265.003-13zm2.263 4.96l-.494-12.752-.29 11.439c-.256 10.062.027 14.057.997 14.063.154 0 .059-5.737-.213-12.75zM232.75 284.75c-.153-18.288-.278-3.325-.278 33.25s.125 51.538.278 33.25c.152-18.288.152-48.212 0-66.5zm-111.583 74.326c.717 1.02.84.487.432-1.876-.353-2.046-.195-3.068.416-2.69.946.584 1.383-.707 1.077-3.185-.08-.646.386-1.503 1.036-1.904.816-.504.913-.296.314.674-.476.773 1.05-.112 3.392-1.966 2.342-1.853 4.076-3.552 3.854-3.774-.222-.222 1.332-2.14 3.454-4.262 2.122-2.122 3.84-4.473 3.818-5.225-.022-.753-.73-.095-1.573 1.46-.858 1.584-2.107 2.61-2.836 2.33-.772-.296-1.251.18-1.177 1.171.07.92-.549 1.693-1.374 1.72-1.982.065-7.9 3.36-6.128 3.411 1.107.032 1.131.33.128 1.54-1.81 2.18-2.882 1.838-2.352-.75.264-1.284-.21-.795-1.102 1.137-1.27 2.75-1.328 3.689-.305 5 1.118 1.432 1.063 1.46-.491.24-.963-.754-1.773-1.204-1.8-1-.345 2.55-.576 11.579-.242 9.449.359-2.288.676-2.615 1.46-1.5zm5.589-11.931c1.562-1.368 1.869-2.13 1-2.48-.9-.363-.918-.53-.065-.586 2.452-.163 2.196 1.76-.45 3.371l-2.741 1.669zM7.689 355.25c-.251-.962-.457-.175-.457 1.75s.206 2.712.457 1.75c.252-.963.252-2.538 0-3.5zm108.677-5.466c-.277-.45-.858-.598-1.29-.331-.432.267-1.83-.626-3.105-1.984-2.658-2.83-1.65-3.335 1.433-.719 1.976 1.677 2.003 1.675.652-.066-2.227-2.868-7.168-5.12-8.061-3.675-1.028 1.663 5.653 7.591 8.556 7.591 1.276 0 2.093-.367 1.815-.816zm-6.192-2.098c-2.436-2.593-2.734-3.686-1.007-3.686.641 0 .862.304.49.676-.371.372.307 1.722 1.508 3S113.124 350 112.85 350c-.275 0-1.479-1.042-2.675-2.314zm-6.521-6.517c-.912-1.007-1.319-2.204-.905-2.66.414-.457.22-.525-.43-.153-.659.378-1.874-.312-2.75-1.562-.862-1.231-1.568-1.823-1.568-1.314 0 .509 1.438 2.409 3.196 4.222 3.348 3.455 5.322 4.633 2.457 1.467zm7.888-.102c-.362-.587-1.42-1.053-2.35-1.035-1.485.028-1.456.21.236 1.49 2.055 1.554 3.203 1.307 2.114-.455zm15.985.126c-.307-.308-1.114 0-1.793.683-.98.988-.865 1.102.56.56.986-.376 1.541-.935 1.233-1.243zm-4.096-1.514c-.265-.692-1.34-1.322-2.389-1.4-1.772-.134-1.793-.012-.295 1.737 1.71 1.997 3.494 1.773 2.684-.337zm-7.66-.492c.22-.659-.516-1.187-1.655-1.187-1.438 0-1.875.461-1.46 1.542.655 1.707 2.499 1.497 3.116-.355zm-8.452-.574c.374-.973-.042-1.236-1.393-.883-2.214.579-2.61 2.27-.532 2.27.766 0 1.632-.624 1.925-1.387zm20.009-1.203c-.463-1.207-.034-1.542 1.781-1.39 4.831.406 6.97-.058 7.578-1.644 1.078-2.81-2.364-3.575-16.528-3.672l-13.658-.094 11.5-.3c12.719-.332 16.38-.886 15.482-2.34-.343-.553-6.717-.97-14.853-.97h-14.253l-2.188 2.96c-3.85 5.206-3.125 6.052 5.062 5.91 12.06-.207 17.659.315 18.858 1.76 1.507 1.816 1.968 1.732 1.219-.22zm-15.031-5.154c4.287-.188 11.037-.187 15 .003 3.962.19.454.343-7.796.342-8.25-.001-11.492-.157-7.204-.345zm-.046-3.998c3.713-.192 9.788-.192 13.5 0 3.713.193.675.35-6.75.35s-10.462-.157-6.75-.35zm-11.724.935c-.307-.308-1.114 0-1.793.683-.98.988-.865 1.102.56.56.986-.376 1.541-.935 1.233-1.243zm-92.843-4.38c-.32-.798-.556-.561-.604.604-.043 1.054.193 1.644.525 1.312.332-.332.368-1.195.08-1.916zm.067-115.137c-.152-20.447-.275-3.426-.275 37.824s.124 57.98.275 37.176c.15-20.803.15-54.553 0-75zm0-163.353C7.597 28.27 7.472 42.75 7.472 78.5s.124 50.52.277 32.823c.153-17.698.153-46.948 0-65zM231.662 65.75c-.277-.688-.504-.125-.504 1.25s.227 1.938.504 1.25c.278-.688.278-1.813 0-2.5zm.045-6.988c-.239-1.244-.444-.462-.455 1.738-.01 2.2.185 3.218.435 2.262s.26-2.756.02-4zm.033-23.475c-.199-3.183-.364-.837-.366 5.213-.002 6.05.16 8.654.362 5.787.201-2.868.203-7.818.004-11zm-.022-13.023c-.23-1.52-.424-.514-.432 2.236-.007 2.75.18 3.994.418 2.764.237-1.23.243-3.48.014-5zm-1.123-12.818C228.625 8.005 219 7.62 219 8.982c0 .578 2.595 1.018 6 1.018h6l.175 4.75.174 4.75.394-4.464c.283-3.213-.039-4.78-1.148-5.59zM216.333 9c.274-.275-46.488-.642-103.917-.815C54.987 8.012 8 8.237 8.001 8.685 8 9.545 215.474 9.86 216.333 9z"/></svg>