<svg xmlns="http://www.w3.org/2000/svg" width="488" height="843" viewBox="0 0 488 843"><path d="M122.25 841.25c66.963-.142 176.537-.142 243.5 0s12.175.258-121.75.258-188.713-.116-121.75-.258zM15.01 816.512c-.905-1.09-1.287-22.958-1.56-89.228-.2-48.281-.589-104.209-.865-124.284-.276-20.075-.627-158.675-.78-308-.223-216.924-.026-271.948.98-273.727C15.623 16.26 5.252 16.507 218 16.389c109.725-.061 210.075-.419 223-.795 14.74-.43 24.037-.322 24.94.288 1.172.79 1.232 1.65.323 4.612-1.277 4.16-1.27 2.49-1.262 296.506.003 113.575.224 225.85.492 249.5.268 23.65.713 89.186.988 145.635.43 88.014.299 102.803-.922 103.816-1.067.886-17.434 1.146-65.242 1.038-116.725-.264-268.1-.05-326.463.461-49.45.433-57.817.3-58.844-.938zM266 814.628c108.075-.07 197.098-.514 197.828-.985 1.083-.7 1.223-7.997.761-39.5-1.39-94.705-2.116-384.852-1.661-663.143l.153-93.5-9.29.375c-5.11.206-87.816.493-183.791.638-273.19.412-250.437.21-252.954 2.248-2.064 1.672-2.21 2.828-2.86 22.75-.692 21.166-.753 67.613-.203 153.989.165 25.85.21 57.575.1 70.5-.217 25.599.553 241.549 1.445 405.5.309 56.65.604 111.648.657 122.219l.096 19.218 11.11.305c6.11.168 18.084.127 26.609-.09 8.525-.218 103.925-.453 212-.524zM19.797 808c-.585-1.518-1.11-40.601-1.337-99.5-.205-53.35-.638-151.225-.961-217.5-1.06-217.015-.718-432.532.716-451.5l1.285-17 23.5-.215c62.111-.57 416.238-.708 416.575-.164.211.342.506 132.417.655 293.5.148 161.084.495 332.479.77 380.879.275 48.4.364 93.881.197 101.07l-.303 13.069-220.067-.07-220.066-.069zm215.703.061c86.9-.002 172.808.097 190.907.218l32.907.221-.684-148.5c-.376-81.675-.673-258.18-.66-392.232l.025-243.731-2.491-.625c-1.37-.344-8.232-.365-15.248-.047s-74.181.574-149.256.57c-164.704-.012-198.233.066-238.5.553l-31 .375-.934 9.819c-1.896 19.948-.603 766.467 1.337 771.557l.862 2.261 27.367-.218c15.053-.12 98.468-.219 185.368-.22zm-9.516-12.922c-2.448-1.308-3.58-2.67-3.808-4.579-.222-1.863-.77-2.546-1.743-2.173-.78.3-1.984-.151-2.676-1.002-2.632-3.236-9.618-10.032-14.01-13.628-4.267-3.494-4.892-3.702-9.409-3.13-5.163.654-9.025 2.574-11.145 5.543-1.856 2.6-8.749 2.529-10.158-.104-1.855-3.467-1.122-4.93 4.896-9.784 3.262-2.63 5.962-5.6 6-6.602.038-1-2.969-5.643-6.681-10.316-3.712-4.673-7.872-9.93-9.243-11.68-1.371-1.751-6.547-8.134-11.501-14.184a3884.17 3884.17 0 0 1-15.007-18.441c-3.3-4.093-12.074-14.957-19.499-24.141-7.425-9.185-21.79-26.987-31.923-39.559-10.132-12.572-19.695-24.337-21.25-26.144-2.435-2.83-2.827-4.13-2.827-9.39v-6.104l5.25.597c5.022.571 5.597.962 13.25 9.01 4.4 4.626 13.85 14.86 21 22.743C128.543 657.473 141.264 671 142.11 671c.454 0 1.422 1.137 2.15 2.526.728 1.39 3.812 5.102 6.854 8.25 3.041 3.148 10.223 10.887 15.958 17.197 5.735 6.31 11.103 12.183 11.928 13.051.825.868 3.69 4.03 6.367 7.027 8.226 9.211 18.832 19.985 20.609 20.936 1.29.69 3.14-.27 7.848-4.08 5.23-4.233 6.464-4.823 8.168-3.911 1.461.782 2.008 2.093 2.008 4.817 0 4.537-1.914 7.495-5.927 9.157-5.824 2.412-5.73 8.316.287 18.03 5.723 9.24 6.68 10.451 8.91 11.288.974.366 2.035 1.986 2.358 3.6.343 1.715 1.372 3.14 2.477 3.43 1.04.271 2.27 1.522 2.736 2.78.843 2.28.847 2.28 1.521-.406.372-1.48 1.343-2.692 2.157-2.692.815 0 1.481-.847 1.481-1.881 0-1.035 1.522-3.043 3.383-4.462 1.86-1.419 4.847-5.174 6.636-8.344 1.79-3.17 4.518-6.947 6.065-8.392l2.812-2.627-2.36-5.897c-1.605-4.014-3.424-6.637-5.695-8.214-4.215-2.928-5.041-4.43-4.653-8.455.255-2.638.79-3.283 2.923-3.531 1.973-.229 3.964.933 8.14 4.75 3.477 3.177 6.435 5.053 7.967 5.053 1.9 0 7.733-5.684 26.425-25.75 13.193-14.162 28.882-31.15 34.865-37.75 5.982-6.6 16.978-18.529 24.435-26.509 7.456-7.98 17.382-18.778 22.057-23.995 4.675-5.218 11.65-12.741 15.5-16.719 6.868-7.096 7.103-7.238 12.5-7.505l5.5-.272.293 6.082.294 6.082-9.95 12.418c-5.473 6.83-13.705 16.953-18.294 22.495-4.588 5.543-15.68 19.043-24.646 30-30.383 37.129-45.007 54.888-55.11 66.923-6.857 8.168-10.075 12.798-10.08 14.5-.004 1.767 1.476 3.776 5.05 6.854 4.05 3.487 4.995 4.88 4.75 7-.277 2.384-.765 2.676-4.936 2.946-4.317.28-4.861.03-8.053-3.7-5.898-6.89-12.379-8.069-15.673-2.85-1.128 1.788-4.378 5.05-7.223 7.25-2.844 2.2-6.176 5.8-7.403 8-1.743 3.123-2.811 3.991-4.875 3.96-2.117-.031-2.644.428-2.644 2.302 0 4.948-14.818 7.221-22.016 3.377zm17.766-1.982c1.435-.783 2.25-2.162 2.25-3.809 0-2.233.347-2.515 2.572-2.09 2.02.387 2.764-.01 3.463-1.85 1.258-3.309 5.82-8.25 10.18-11.024 2.042-1.3 4.742-4.165 6-6.366 2.547-4.46 3.357-4.658 10.376-2.529 2.7.82 4.982 1.494 5.07 1.5.948.064-.7-3.478-1.748-3.76-1.105-.298-1.086-.15.087.68 1.251.885 1.145 1.063-.643 1.076-2.095.015-3.809-2.2-2.621-3.387 1.345-1.345 4.046-.435 6.59 2.221 1.487 1.551 2.473 3.05 2.192 3.33-.28.28.726 1.599 2.236 2.93l2.746 2.421-2.424-2.75c-3.195-3.624-1.23-3.563 2.25.07 2.77 2.89 2.653 4.18-.378 4.18-1.775 0-4.988-4.066-5.393-6.825-.126-.861-.717-1.729-1.312-1.927-1.812-.604-.85 2.09 2.15 6.024 1.845 2.417 3.66 3.728 5.167 3.728 4.195 0 3.76-2.114-1.545-7.485-4.83-4.89-5.168-5.542-4.49-8.652.418-1.923 3.15-6.147 6.375-9.863 9.46-10.896 15.28-18 14.751-18-.277 0-3.964 4.162-8.194 9.25-11.73 14.108-13.331 15.043-13.593 7.941-.086-2.326-.297-2.859-.57-1.441-.238 1.237-1.095 2.25-1.904 2.25-1.634 0-7.39-3.967-7.39-5.093 0-1.036 11.095-7.145 11.764-6.477.308.309.02 1.747-.639 3.195-.66 1.448-1.037 2.797-.837 2.996.2.2 1.39-1.91 2.646-4.69 1.256-2.778 4.799-7.837 7.873-11.242 9.624-10.657 10.047-11.57.941-2.03-5.862 6.142-11.092 10.52-15.841 13.258-6.971 4.019-8.907 4.356-8.907 1.55 0-.777 8.887-10.996 19.75-22.708 10.862-11.711 24.458-26.46 30.211-32.776 10.532-11.56 18.502-20.16 31.494-33.983 3.877-4.125 11.743-12.675 17.48-19 5.737-6.325 12.47-13.637 14.96-16.25 2.492-2.612 4.24-4.75 3.886-4.75-.579 0-13.788 14.188-56.33 60.5-14.297 15.563-57.659 62.448-63 68.117l-3.048 3.236 3.08.578c4.879.915 12.497 8.316 13.196 12.819.46 2.963.26 3.75-.958 3.75-3.332 0-18.483-13.958-17.274-15.914.41-.664-.244-1.086-1.684-1.086-1.398 0-4.97-2.213-8.786-5.442-4.03-3.412-6.685-5.031-7.112-4.34-1.128 1.826.435 4.511 4.054 6.965 1.88 1.274 4.004 3.892 4.72 5.817l1.302 3.5-.582-3.75c-.64-4.124.05-4.552 3.476-2.153 3.104 2.174 2.695 6.94-.585 6.824-2.611-.093-2.875.815-.75 2.579 2.312 1.919 1.797 4.345-1.607 7.563-1.708 1.615-4.447 5.292-6.086 8.17-1.639 2.88-4.403 6.425-6.143 7.88-1.74 1.456-3.414 3.826-3.72 5.267-.305 1.44-1.084 2.51-1.73 2.376-.647-.134-1.911.879-2.81 2.25-.899 1.372-2.257 2.494-3.019 2.494s-1.385.848-1.385 1.883c0 2.19-2.98 3.267-5.358 1.937-4.016-2.248-.239-7.74 3.832-5.571 1.79.953 1.873.892.703-.525-.727-.882-2.302-1.743-3.5-1.914-1.636-.233-2.254-1.105-2.487-3.512-.19-1.974-.976-3.413-2.05-3.753-.957-.304-3.292-3.031-5.19-6.06-1.897-3.03-4.464-6.966-5.703-8.747-1.239-1.78-2.517-3.981-2.84-4.89-.476-1.334-1.294-.872-4.248 2.403-4.218 4.674-7.68 6.351-15.155 7.343-4.054.538-6.22 1.51-9.039 4.057-3.83 3.46-6.965 4.36-6.965 1.999 0-.743 2.718-3.714 6.04-6.604 5.528-4.807 6.34-5.197 9.576-4.59 1.945.365 4.064.248 4.71-.259.646-.506 2.412-1.217 3.924-1.578 2.972-.71 3.46-2.508 1.525-5.608-.953-1.526-.959-2.227-.024-3.162.936-.936 1.65-.796 3.225.63 1.964 1.777 2.028 1.775 2.166-.074.218-2.94.499-5.794.687-6.994.094-.6 1.335-1.62 2.758-2.269l2.587-1.178-2.087 2.653c-1.148 1.459-2.069 3.155-2.047 3.768.022.613.711-.122 1.532-1.635.82-1.512 2.018-2.75 2.66-2.75.873 0 .865.303-.032 1.2-2.26 2.26-1.203 2.712 1.178.505 1.309-1.213 3.559-3.013 5-4.002 2.54-1.74 3.615-5.971 1.802-7.092-.452-.279-3.26 1.495-6.243 3.941-7.646 6.272-10.31 5.849-17.762-2.818-7.28-8.469-46.351-50.734-46.899-50.734-.576 0 2.45 3.387 18.759 21 25.963 28.04 29.953 32.602 29.959 34.25.009 2.46-1.538 2.198-7.764-1.316-2.988-1.686-5.598-2.9-5.8-2.698-.202.203 2.092 1.695 5.098 3.316 3.006 1.621 5.467 3.4 5.468 3.951.006 1.654-5.933 6.736-7.263 6.215-.678-.265-2.054-2.827-3.057-5.693-1.003-2.866-2.005-5.03-2.226-4.808-.222.221.487 2.743 1.574 5.603 1.087 2.86 1.976 5.647 1.976 6.19 0 2.2-3.49.77-6.737-2.76-1.898-2.063-1.158-.898 1.644 2.587 2.892 3.6 5.093 7.357 5.093 8.696 0 1.66-1.7 3.742-5.75 7.041-3.72 3.03-5.75 5.433-5.75 6.805 0 3.448 3.828 3.232 7.229-.407 2.378-2.545 4.315-3.403 10.216-4.528l7.28-1.387 4.497 3.722c9.252 7.658 14.278 12.536 14.278 13.858 0 .777 1.046 1.363 2.434 1.363 1.905 0 2.502.592 2.75 2.725.482 4.15 6.387 7.105 12.565 6.289 2.613-.346 5.764-1.181 7.001-1.857zm-5.566-2.83c.374-3.163 1.735-3.838 4.16-2.064 2.407 1.76 1.138 4.737-2.017 4.737-2.078 0-2.41-.414-2.143-2.673zm12.938-11.605c-1.523-1.523-1.418-3.722.178-3.722 1.383 0 3.7 1.937 3.7 3.093 0 1.305-2.755 1.752-3.878.629zm12.533-14.55c-2.216-2.45-2.116-5.172.19-5.172 2.23 0 5.155 3.023 5.155 5.329 0 2.238-3.264 2.142-5.345-.158zm3.345-.55c0-.207-.787-.995-1.75-1.75-1.586-1.243-1.621-1.208-.378.378 1.307 1.666 2.128 2.195 2.128 1.372zm-73.244-3.199c-1.012-1.013.342-3.423 1.924-3.423.832 0 1.327.722 1.143 1.667-.347 1.79-2.055 2.768-3.067 1.756zm-4.747-3.406c-1.411-2.637-.209-4.834 5.159-9.429 4.342-3.716 10.832-5.09 10.832-2.29 0 1.442-5.525 6.881-11.206 11.03-3.64 2.658-3.724 2.67-4.785.69zm9.244-7.74c2.064-1.803 4.276-3.277 4.917-3.277.64 0 .866-.297.503-.66-.888-.888-10.055 5.44-11.693 8.07-1.223 1.964-1.186 2.001.61.616 1.05-.81 3.599-2.948 5.663-4.75zm70.817 7.473c.067-2.133.112-2.146.865-.25l.795 2 .52-2c.472-1.824.528-1.802.634.25.071 1.385-.46 2.25-1.384 2.25-.91 0-1.472-.885-1.43-2.25zm-52.57-15.221c2.276-1.999 2.457-2.372.75-1.547-1.56.755-2.25.765-2.25.032 0-1.286 4.76-3.587 5.628-2.72 1.202 1.203-.565 3.621-3.827 5.235l-3.301 1.634 3-2.634zm15.5 49.03c0-1.055-1.92-1.499-2.49-.575-.345.559.073 1.016.931 1.016.857 0 1.559-.198 1.559-.441zM183.271 769.5c3.191-2.731 4.983-3.508 8.159-3.535 2.239-.02 5.195-.726 6.57-1.57 1.477-.906 1.682-1.216.5-.758-1.1.426-3.893.811-6.206.856-3.39.066-5.21.899-9.385 4.294-2.848 2.317-4.852 4.213-4.453 4.213.4 0 2.566-1.575 4.815-3.5zM205 760.43c0-.275-.9-.019-2 .57s-2 1.295-2 1.57c0 .275.9.019 2-.57s2-1.295 2-1.57zm4.864-8.836c-.132-2.034-.148-2.032-.56.083-.736 3.778-3.007 4.882-5.573 2.711-2.226-1.883-2.227-1.883-.481.19.963 1.144 1.75 2.719 1.751 3.5 0 .834 1.036.22 2.5-1.484 1.375-1.598 2.438-3.848 2.363-5zm71.443 2.33c-.994-1.693-2.257-3.445-2.807-3.894-1.677-1.37-8.718-5.148-8.999-4.829-.325.369 12.35 11.799 13.084 11.799.29 0-.285-1.385-1.278-3.077zm-69.614-2.655c-.254-.973-.478-.419-.498 1.231-.02 1.65.187 2.446.46 1.769.275-.677.292-2.027.038-3zm49.475-5.5c-.742-.743-.872-.352-.437 1.311.354 1.352.807 1.806 1.057 1.057.24-.722-.038-1.787-.62-2.369zm38.934-10.393a5016.272 5016.272 0 0 1 17.446-20.75c4.95-5.831 25.891-31.746 36.393-45.037 1.343-1.699 4.16-5.114 6.26-7.589a710.608 710.608 0 0 0 5.06-6.013c.681-.832 5.35-6.457 10.374-12.5 24.847-29.884 27.96-34.226 25.966-36.22-1.996-1.996-5.692 1.553-31.492 30.233-2.474 2.75-12.876 14-23.117 25-10.24 11-23.503 25.4-29.473 32-5.97 6.6-15.874 17.4-22.01 24-6.135 6.6-13.147 14.217-15.582 16.927l-4.427 4.927 3.416-1.927c8.044-4.538 23.73-20.797 51.084-52.947 7.425-8.727 16.2-18.827 19.5-22.445 3.3-3.618 7.62-8.406 9.598-10.641 4.525-5.11 6.91-6.19 6.88-3.113-.014 1.302-2.805 5.345-6.75 9.778-3.7 4.157-13.478 15.36-21.728 24.894a9387.822 9387.822 0 0 1-22.52 25.941c-11.44 13.09-22.505 27.15-24.863 31.591-1.853 3.488-2.799 7.515-1.765 7.515.193 0 5.48-6.131 11.75-13.624zm-118.507 6.051c-1.435-3.135-4.069-7.367-5.852-9.403-1.784-2.036-5.649-6.795-8.59-10.576-2.94-3.78-8.34-10.234-12-14.34l-10.285-11.536c-1.998-2.24-6.273-7.274-9.5-11.187-3.227-3.914-11.341-13.432-18.03-21.152-14.008-16.167-15.212-17.96-12.701-18.924 1.862-.714 3.511.936 17.173 17.191 4.16 4.95 7.841 9.225 8.18 9.5.339.275 2.901 3.271 5.694 6.659 2.792 3.387 6.487 7.662 8.21 9.5 1.722 1.837 6.551 7.391 10.732 12.341 4.18 4.95 8.787 10.393 10.237 12.096 1.45 1.703 4.881 5.778 7.624 9.055 6.026 7.202 12.155 12.398 19.513 16.544l5.5 3.099-4.908-5.397c-2.7-2.968-5.419-5.847-6.042-6.397-.623-.55-5.389-5.715-10.591-11.477-5.203-5.762-10.134-11.196-10.959-12.074-.825-.88-8.475-9.171-17-18.427s-22.925-24.81-32-34.565c-9.075-9.755-21.9-23.792-28.5-31.194-11.769-13.198-15.171-16.425-16.217-15.379-1.037 1.037.728 5.177 3.46 8.116 2.46 2.646 12.045 14.589 19.257 23.993 1.375 1.793 5.044 6.353 8.153 10.133 3.109 3.78 9.09 11.149 13.292 16.374s8.395 10.4 9.317 11.5c3.938 4.693 34.817 42.936 52.704 65.272 3.203 4 6.03 7.066 6.281 6.814.252-.252-.716-3.023-2.152-6.159zm10.052 1.263c-1.18-.446-3.22-1.796-4.532-3l-2.386-2.19 1.134 2.183c.625 1.2 1.583 3.36 2.13 4.8.982 2.581 1.03 2.593 3.398.818l2.402-1.801zm93.117-1.19l1.49-3-2.877 2.5c-1.582 1.375-3.054 2.602-3.27 2.726-.215.124.218.96.964 1.86 1.076 1.296 1.443 1.352 1.78.274.233-.748 1.094-2.71 1.913-4.36zM171 736.5c-3.37-4.125-6.353-7.5-6.628-7.5-.275 0 2.257 3.375 5.628 7.5 3.37 4.125 6.353 7.5 6.628 7.5.275 0-2.257-3.375-5.628-7.5zm12.928-.25c-.04-.412-1.727-2.1-3.75-3.75l-3.678-3 3 3.678c2.858 3.503 4.585 4.702 4.428 3.072zm135.188-18.75l2.05-3-2.333 2.63c-1.283 1.448-4.291 5.048-6.684 8l-4.352 5.37 4.635-5c2.548-2.75 5.556-6.35 6.684-8zm-156.793 8.222C149.81 710.086 139.82 698 139.41 698c-.281 0 4.95 6.75 11.623 15 6.674 8.25 12.354 15 12.623 15 .27 0-.331-1.025-1.333-2.278zM176 727.674c0-.179-1.238-1.416-2.75-2.75l-2.75-2.424 2.424 2.75c2.266 2.57 3.076 3.209 3.076 2.424zM166 716c-2.859-3.3-5.423-6-5.698-6-.275 0 1.84 2.7 4.698 6 2.859 3.3 5.423 6 5.698 6 .275 0-1.84-2.7-4.698-6zm146-5.5c1.866-1.925 3.167-3.5 2.892-3.5-.275 0-2.026 1.575-3.892 3.5s-3.167 3.5-2.892 3.5c.275 0 2.026-1.575 3.892-3.5zm12.563.25l2.937-3.25-3.25 2.937c-3.03 2.738-3.71 3.563-2.937 3.563.172 0 1.635-1.462 3.25-3.25zm-172.255-10.911c-4.294-5.039-10-11.452-12.679-14.25l-4.87-5.089 5.07 6c10.632 12.58 19.371 22.5 19.82 22.5.257 0-3.047-4.123-7.341-9.161zM329.5 705c.995-1.1 1.585-2 1.31-2-.275 0-1.315.9-2.31 2-.995 1.1-1.585 2-1.31 2 .275 0 1.315-.9 2.31-2zm-7.409-6.25c3.51-3.987 5.59-6.623 4.62-5.856-2.104 1.664-12.106 13.106-11.456 13.106.25 0 3.326-3.263 6.836-7.25zM338 694.5c3.37-4.125 5.903-7.5 5.628-7.5-.275 0-3.257 3.375-6.628 7.5-3.37 4.125-5.903 7.5-5.628 7.5.275 0 3.257-3.375 6.628-7.5zM133.43 690c-3.11-3.85-5.885-7-6.165-7-.593 0 .577 1.554 6.59 8.75 2.414 2.888 4.578 5.25 4.81 5.25.231 0-2.124-3.15-5.235-7zm198.133-2.25l2.937-3.25-3.25 2.937c-3.03 2.738-3.71 3.563-2.937 3.563.172 0 1.635-1.462 3.25-3.25zM346.5 684c.995-1.1 1.585-2 1.31-2-.275 0-1.315.9-2.31 2-.995 1.1-1.585 2-1.31 2 .275 0 1.315-.9 2.31-2zm-200.23-4.25a2469.706 2469.706 0 0 0-8.251-8.75c-2.348-2.475-15.69-16.963-29.65-32.195-13.96-15.232-25.941-28.027-26.625-28.433-.684-.406 1.681 2.428 5.256 6.298s18.875 20.575 34 37.123 27.895 30.114 28.377 30.147c.483.033-.915-1.853-3.106-4.19zm195.854-3.898c2.234-2.669 3.84-4.852 3.568-4.852-.272 0-2.9 2.813-5.841 6.25-2.941 3.438-4.547 5.62-3.568 4.852.978-.769 3.607-3.581 5.84-6.25zM127 681.674c0-.179-1.238-1.416-2.75-2.75l-2.75-2.424 2.424 2.75c2.266 2.57 3.076 3.209 3.076 2.424zM350.5 679c.995-1.1 1.585-2 1.31-2-.275 0-1.315.9-2.31 2-.995 1.1-1.585 2-1.31 2 .275 0 1.315-.9 2.31-2zm-220.044-4.5c-2.584-3.025-4.948-5.5-5.252-5.5-.52 0 .818 1.643 6.716 8.25 4.468 5.006 3.32 2.85-1.464-2.75zm-9.65-.301c-.718-.99-8.056-10.07-16.306-20.178-15.425-18.899-23.595-28.37-16.827-19.51C93.42 642.036 121.307 676 121.738 676c.207 0-.213-.81-.931-1.801zM355 673.5c1.292-1.375 2.124-2.5 1.849-2.5-.275 0-1.557 1.125-2.849 2.5-1.292 1.375-2.124 2.5-1.849 2.5.275 0 1.557-1.125 2.849-2.5zm0-12.208c0-.751-.898.043-5.042 4.458l-4.458 4.75 4.75-4.458c2.612-2.452 4.75-4.59 4.75-4.75zm19.191-11.042c21.03-25.376 24.152-29.25 23.577-29.25-.26 0-6.117 6.862-13.016 15.25a13615.435 13615.435 0 0 1-20.197 24.5c-4.21 5.088-7.446 9.25-7.193 9.25.254 0 7.827-8.887 16.83-19.75zm-255.195 10.745c-2.861-3.302-5.718-6.297-6.349-6.654-1.097-.622 1.385 2.377 7.787 9.409 5.086 5.587 4.021 3.547-1.438-2.755zm242.007-6.998c2.3-2.748 3.971-4.997 3.712-4.997-.26 0-2.664 2.57-5.344 5.71-2.679 3.14-4.35 5.388-3.712 4.996.638-.392 3.043-2.96 5.344-5.709zM112 652.697c0-.168-1.688-1.855-3.75-3.75l-3.75-3.447 3.446 3.75c3.208 3.49 4.054 4.21 4.054 3.446zM82.177 626.25c-1.078-1.512-3.828-4.775-6.112-7.25-2.96-3.208-2.525-2.419 1.519 2.75 5.538 7.08 8.495 9.977 4.593 4.5zM400.5 618c.995-1.1 1.585-2 1.31-2-.275 0-1.315.9-2.31 2-.995 1.1-1.585 2-1.31 2 .275 0 1.315-.9 2.31-2zm4.385-9.441c-.114-3.043-.119-3.04-.807.475-.381 1.944-1.038 4.194-1.46 5-.421.806-.058.592.808-.475.866-1.068 1.522-3.318 1.459-5zm-334.23 3.612c-2.278-2.517-2.214-8.878.095-9.482 1.317-.344 1.193-.486-.5-.573-1.992-.103-2.25.362-2.25 4.055 0 3.614 2.051 7.829 3.81 7.829.275 0-.245-.823-1.155-1.829zM399 604.721l2.5-.449-2.563-.136c-1.731-.092-3.516.919-5.5 3.114l-2.937 3.25 3-2.665c1.65-1.466 4.125-2.867 5.5-3.114zM78.5 606c-1.58-1.65-3.577-2.971-4.437-2.937-1.107.045-.979.303.437.882 1.1.45 2.857 1.772 3.905 2.937 1.048 1.165 2.144 2.118 2.437 2.118.293 0-.761-1.35-2.342-3zm229.7 31.8c-.73-.73-1.2-4.277-1.2-9.045 0-6.888-.285-8.131-2.335-10.181-2.328-2.328-2.44-2.337-36.25-2.97-18.653-.349-46.065-1.065-60.915-1.593-14.85-.527-38.475-1.223-52.5-1.547-38.133-.88-40.718-1.109-45.717-4.039-5.478-3.21-5.859-6.556-1.033-9.06 1.788-.927 4.375-1.884 5.75-2.127 2.442-.43 30.185-1.962 38.872-2.146 3.775-.08 4.202-.298 3.124-1.597-.687-.828-1.21-3.508-1.16-5.955.07-3.512-.644-5.54-3.388-9.617l-3.477-5.167-7.235-.455c-3.98-.251-10.454-.392-14.386-.313-4.15.083-7.428-.305-7.811-.925-.466-.753-1.276-.74-2.747.048-2.468 1.32-8.803-.214-10.796-2.616-.682-.822-2.28-1.495-3.55-1.495-1.449 0-3.145-1.173-4.55-3.145-2.378-3.34-2.652-6.31-4.324-46.855-.33-7.975-.812-19.45-1.074-25.5-.26-6.05-.76-21.8-1.109-35-.348-13.2-.774-24.77-.946-25.71-.303-1.655-.739-11.095-2.031-43.978-.506-12.882-.917-15.959-2.294-17.206-1.156-1.045-4.316-1.61-10.148-1.812-7.984-.277-8.489-.426-8.797-2.602-.793-5.591 5.386-9.06 12.337-6.927 2.771.85 3.79.555 8.285-2.398 4.856-3.19 5.097-3.551 4.58-6.867-.313-2.017.121-5.407 1.026-8 1.888-5.41 1.984-8.293.422-12.613-.947-2.618-.907-3.581.205-4.92.76-.917 1.276-3.309 1.147-5.317-.342-5.313 3.012-10.377 6.6-9.964 3.552.41 7.75 7.965 6.118 11.014-.75 1.401-.672 2.364.288 3.524.778.942 1.381 4.5 1.47 8.686.084 3.9.353 10.24.598 14.09l.445 7 4.903 2.762c3.904 2.2 5.616 2.623 8.403 2.08 7.73-1.507 12 .55 12 5.778 0 3.848-2.41 4.88-11.4 4.88-6.173 0-7.7.318-8.475 1.766-1.055 1.972-1.19 5.498-4.15 108.734-1.313 45.78-2.79 78.391-3.61 79.72-.46.742-.1.892 1.064.446 3.93-1.509 6.389-1.77 7.02-.747.95 1.536 2.551 1.34 2.551-.312 0-2.061 2.465-2.646 7.325-1.739 2.472.462 5.359.405 6.747-.134 1.336-.518 5.682-1.019 9.66-1.113l7.23-.17 3.052-4.813c2.838-4.474 2.964-5.056 1.795-8.289-1.101-3.046-1.013-3.932.717-7.163 1.297-2.422 2.812-3.804 4.418-4.03 3.792-.536 5.056 2.204 5.056 10.958v7.73l3.25.992c2.996.913 14.164 1.288 81.25 2.727 13.2.283 27.92.698 32.71.923 4.79.225 23.915.707 42.5 1.071 36.373.713 35.72.613 41.097 6.331l2.455 2.612-1.712-3.358c-1.718-3.369-1.443-8.142.469-8.142 1.913 0 .948-2.775-1.156-3.326-1.89-.494-2.062-1.03-1.482-4.653.36-2.251.351-8.403-.019-13.671-.637-9.062-.813-9.639-3.268-10.717-1.426-.627-3.926-2.039-5.554-3.137-2.196-1.48-4.62-1.996-9.381-1.996-5.858 0-6.604-.244-8.512-2.786-3.527-4.699-1.596-6.122 9.107-6.714 11.46-.633 12.892-1.718 13.643-10.342.296-3.387.778-19.433 1.073-35.658.295-16.225.754-32.875 1.02-37 .265-4.125.992-29.508 1.614-56.406 1.085-46.856 1.223-49.098 3.302-53.5 5.007-10.6 6.655-11.298 11.258-4.769l3.048 4.325.674 19.925c.37 10.959.887 26 1.149 33.425.261 7.425.935 35.775 1.497 63 1.49 72.1 1.487 72.062 4.343 74.588 1.83 1.619 3.894 2.138 9.184 2.31 3.752.12 7.187.445 7.632.72 1.447.894.856 4.053-1.264 6.747-1.62 2.06-2.942 2.635-6.065 2.635-2.197 0-4.77-.416-5.719-.923-1.318-.706-2.92.008-6.785 3.018l-5.059 3.942-.623 9.488c-.343 5.219-.35 10.855-.016 12.525.465 2.323.077 3.602-1.65 5.44-2.085 2.219-2.134 2.53-.634 4.028 2.113 2.114 2.05 3.199-.464 7.997-2.826 5.392-4.508 6.589-7.608 5.41-2.073-.788-3.136-.434-6.359 2.118l-3.869 3.065-21.788.912c-11.983.502-22.383.927-23.11.946-.994.026-.932.423.25 1.605 1.048 1.048 1.586 3.466 1.613 7.25.034 4.758.5 6.217 2.876 8.993 2.56 2.992 3.453 3.351 9.209 3.705 3.506.216 8.601.804 11.324 1.308 3.918.726 5.253.613 6.408-.542.957-.957 2.348-1.226 4.05-.784 1.426.37 3.942.791 5.592.935 1.65.144 3.753.33 4.673.413 2.837.256 7.827 5.147 7.827 7.672 0 4.063-10.58 9.587-12.478 6.515-.52-.842-1.239-.697-2.586.522-1.293 1.17-2.72 1.488-4.65 1.036-3.368-.79-8.276-.786-18.454.014-7.254.57-7.703.745-8.31 3.247-.354 1.455-1.741 4.323-3.083 6.374-1.766 2.7-2.439 5.113-2.439 8.75 0 6.93-4.34 11.282-7.8 7.821zm4.805-3.809c.591-1.105.983-3.692.87-5.75-.14-2.58.778-5.569 2.96-9.632 1.741-3.24 3.165-6.451 3.165-7.137 0-.812 2.352-1.458 6.75-1.855 3.712-.334 8.887-.88 11.5-1.213l4.75-.605v-4.4c0-4.2-.133-4.399-2.935-4.399-1.614 0-4.202-.49-5.75-1.088-1.548-.599-5.334-1.06-8.413-1.025l-5.598.063-3.152-4.865c-2.422-3.737-3.152-5.976-3.152-9.66 0-3.382-.576-5.41-1.954-6.876-3.429-3.65-1.401-4.47 12.501-5.06 32.171-1.362 33.303-1.492 36.494-4.177 3.645-3.067 3.665-3.627.209-5.852-2.723-1.752-2.733-1.75-1 .214 4.452 5.046.576 7.004-15.25 7.704-35.05 1.55-43.2 2.074-40 2.574l3.5.548.287 8.648c.41 12.31.476 12.27-21.364 12.704-9.308.184-22.998.706-30.423 1.16-12.683.773-12.35.798 5.5.404 20.036-.442 32.512-.61 36.25-.49 2.593.085 3.021 2.543.672 3.858-1.196.669-.87.883 1.344.883 2.29 0 3.153-.613 3.99-2.834.589-1.558 1.784-2.833 2.657-2.833 1.358 0 1.587 1.675 1.587 11.622v11.622l-2.25-1.486c-1.543-1.02-2.439-2.865-2.85-5.872-.33-2.412-.667-3.373-.75-2.136-.1 1.494-.79 2.25-2.056 2.25-1.426 0-1.772.514-1.374 2.036.528 2.02.318 2.032-29.844 1.608-23.578-.331-26.46-.255-12.876.34 9.625.421 24.072.823 32.104.891 14.032.12 14.708.221 17.25 2.577 2.43 2.252 2.646 3.096 2.646 10.334 0 4.334.3 8.18.667 8.547 1.16 1.16 2.229.73 3.338-1.342zm-2.869-4.908c.11-2.885.237-3.096.653-1.083l.516 2.5.748-2.5c.668-2.234.758-2.12.847 1.083.072 2.563-.327 3.584-1.4 3.584-1.08 0-1.462-1.005-1.364-3.584zm.092-8.583c.264-4.845.373-5.01 3.522-5.313 1.788-.173 3.25.119 3.25.648 0 1.638-4.974 9.756-5.003 8.165-.025-1.333-.14-1.333-1.035 0-.728 1.085-.931.116-.734-3.5zm4.363-3.243c-.694-.693-2.591.716-2.591 1.924 0 .664.574.588 1.524-.201.838-.696 1.318-1.47 1.067-1.723zm-3.548-6.09c-.574-.184-1.043-1.149-1.043-2.145 0-1.394.982-1.917 4.25-2.267 4.907-.526 6.208.227 5.305 3.07-.497 1.567-1.417 1.987-4.056 1.85-1.877-.096-3.882-.325-4.456-.508zm4.686-2.771c-.332-.332-1.195-.368-1.916-.08-.798.32-.561.557.604.605 1.054.043 1.644-.193 1.312-.525zm-.226-7.387c-.348-1.095-.357-2.436-.021-2.98.996-1.61-1.394-5.029-3.517-5.029-1.799 0-1.965-.717-1.965-8.469 0-7.116.24-8.376 1.5-7.893 1.066.41 1.5 2.073 1.5 5.746 0 2.844.622 6.059 1.382 7.143.76 1.085 1.368 2.198 1.353 2.473-.103 1.813 1.59 4.92 2.576 4.73.675-.13 1.325 1.176 1.502 3.02.26 2.686-.033 3.25-1.682 3.25-1.115 0-2.275-.88-2.628-1.991zm-3.778-20.241c-.223-1.797-.41-.568-.415 2.732-.006 3.3.176 4.77.405 3.268.228-1.503.232-4.203.01-6zm-1.087 18.732c.317-.825.964-1.5 1.438-1.5.473 0 .602.675.286 1.5-.317.825-.964 1.5-1.438 1.5-.473 0-.602-.675-.286-1.5zM238 612.617c0-.849-5.085-1.288-5.583-.483-.294.476.842.866 2.524.866s3.059-.173 3.059-.383zm-16.704-1.359c-3.963-.189-10.713-.19-15-.003-4.288.188-1.046.343 7.204.345 8.25 0 11.758-.153 7.796-.342zm-25.358-.601c-.241-.212-9.663-.613-20.938-.891-11.275-.279-19.375-.175-18 .23 2.523.744 39.75 1.375 38.938.66zM293 609.385c-7.219-3.17-14.63-3.564-65.25-3.462-50.224.101-50.75.082-50.75-1.91 0-1.975.613-2.014 32.75-2.06 63.849-.09 81.638-1.17 85.75-5.208.917-.9-41.08-.299-53.5.767-6.177.53-28.758 1.342-58 2.088-13.475.344-24.828.925-25.23 1.292-.401.367-3.101.429-6 .138-7.382-.742-36.25.58-38.352 1.756-3.623 2.027 2.098 3.013 21.082 3.63 40.85 1.33 118.242 3.556 136 3.913 6.6.132 14.925.32 18.5.417l6.5.176zm13.921-5.635c-.067-6.168-.232-6.83-1.104-4.437-.922 2.528-.339 11.687.744 11.687.242 0 .403-3.263.36-7.25zm-153.004 5.884c-.23-.201-9.192-.582-19.917-.847-10.725-.264-16.125-.18-12 .186 8.291.737 32.575 1.24 31.917.66zm202.368-2.75c1.58.847 3.068.932 4.794.276 2.846-1.082 5.838-4.16 4.043-4.16-.617 0-1.122.378-1.122.84 0 1.166-4.23 2.95-5.75 2.425-1.77-.611-1.551-4.82.35-6.721 1.465-1.466 1.266-1.546-2.375-.964-2.488.398-4.23.221-4.658-.472-.983-1.59-4.567-1.369-4.567.28 0 .765.787 1.327 1.75 1.25 1.33-.105 1.791.7 1.923 3.362l.173 3.5-.805-3-.804-3-.164 3.5-.163 3.5-1.374-3-1.374-3-.08 2.679c-.045 1.473.65 3.41 1.545 4.305 1.502 1.502 1.808 1.456 3.996-.6 2.043-1.919 2.686-2.057 4.662-1zm-244.161-.983c-2.187-2.038-2.2-2.16-.439-4.137 1.812-2.035 1.81-2.035-1.435-.375-1.787.914-3.25 1.832-3.25 2.038 0 .423 6.255 4.53 6.939 4.556.24.01-.576-.928-1.815-2.082zm181.626.527c-3.29-1.785-3.467-2.974-.664-4.474 3.332-1.783 1.57-2.126-2.4-.467-3.048 1.273-11.747 1.549-54.904 1.737l-51.282.224 52 .526c46.616.472 52.31.703 55 2.236 1.65.94 3.45 1.71 4 1.71.55 0-.237-.671-1.75-1.492zm7.25-1.761c0-3.19-.785-3.722-3.6-2.44-2.98 1.358-3.009 1.997-.15 3.413 3.37 1.669 3.75 1.57 3.75-.973zm43.707-2.905c-.239-1.244-.444-.462-.455 1.738-.01 2.2.185 3.218.435 2.262s.26-2.756.02-4zm-162.457 1.576c-.688-.278-1.813-.278-2.5 0-.688.277-.125.504 1.25.504s1.938-.227 1.25-.504zM361.5 603c.34-.55.141-1-.441-1s-1.059.45-1.059 1 .198 1 .441 1 .72-.45 1.059-1zm2.5-2.5c-.685-.825-1.726-1.5-2.314-1.5-.587 0-.195.66.873 1.468 2.508 1.898 2.998 1.908 1.441.032zm-243.75-1.206c-1.238-.238-3.263-.238-4.5 0-1.238.239-.225.434 2.25.434s3.487-.195 2.25-.434zm69.25-2.351c11.795-.667 10.732-.715-6.75-.303-14.301.336-20.75.157-20.75-.576 0-.585-.702-1.064-1.559-1.064s-1.28.45-.941 1c.355.575-.576 1.007-2.191 1.017-7.457.044-28.868 1.294-29.309 1.71-.596.563 41.65-.663 61.5-1.784zm45.25-1.685c-3.712-.192-9.787-.192-13.5 0-3.712.193-.675.35 6.75.35s10.463-.157 6.75-.35zM206 593.497c8.525-.28 21.575-.737 29-1.018 80.728-3.047 72.273-1.584 71.791-12.421l-.291-6.558-5.5.005c-5.065.005-29.024 1.025-47 2.002-4.125.224-15.375.67-25 .994-9.625.322-24.025 1.007-32 1.522-7.975.514-18.122.945-22.55.956-4.901.012-8.52.49-9.25 1.22-.702.703-1.2 4.07-1.2 8.114v6.914l13.25-.611c7.287-.336 20.225-.84 28.75-1.12zm-44.2-7.035c.166-3.783.783-7.46 1.373-8.17.646-.779 3.706-1.364 7.7-1.472 5.617-.153 5.903-.238 1.877-.555-4.134-.326-4.75-.664-4.75-2.604 0-1.832 1.29-2.749 7.25-5.147 5.957-2.398 9.3-3.03 18.75-3.541 12.136-.657 11.617-1.183-1-1.014-5.385.072-9.015-.484-12.874-1.972-2.955-1.14-5.587-1.86-5.847-1.6-.26.261 1.383 1.03 3.651 1.71 2.27.68 3.983 1.663 3.81 2.184-.174.522-2.55 1.8-5.278 2.84-9.109 3.47-8.462 3.664-8.462-2.554 0-4.63.295-5.57 1.75-5.582 1.432-.013 1.49-.18.32-.92-.786-.498-1.54-1.659-1.675-2.58-.228-1.55 2.125-1.622 31.43-.958 17.421.395 31.45.487 31.175.205-.275-.283-15.125-.829-33-1.214-37.866-.817-36.438-.415-36.585-10.297-.135-9.165-.33-10.221-1.892-10.221-.812 0-2.226 1.143-3.142 2.541-1.346 2.054-1.446 3.021-.523 5.047 1.752 3.845 1.401 5.96-1.869 11.275l-3.01 4.893-9.24.73c-5.081.402-12.029.794-15.438.872-4.99.114-6.289.483-6.657 1.892-.504 1.932-4.134 2.385-5.206.65-.655-1.06-4.024-.78-7.688.637-1.273.492-1.767.17-1.813-1.18-.053-1.551-.213-1.487-.968.393-1.006 2.502-2.917 2.898-4.828 1-1.01-1.002-1.127-.903-.593.5.372.977 1.698 1.75 3 1.75 1.284 0 2.614.453 2.956 1.007.343.554 2.016 1.727 3.718 2.608 2.657 1.374 3.65 1.417 7.013.307 3.249-1.072 4.06-1.063 4.75.054.562.909 3.224 1.393 8.174 1.486 22.698.43 21.476.243 22.827 3.505.676 1.632 1.866 3.495 2.643 4.14.778.646.285-.802-1.095-3.216-2.613-4.571-3.22-9.954-1.604-14.207.77-2.026 1.629-2.456 5-2.502 3.379-.047 4.07.272 4.07 1.88 0 1.339-.696 1.943-2.25 1.953-3.194.022-5.145 1.513-4.427 3.384.399 1.039 1.823 1.601 4.057 1.601 2.71 0 3.388.372 3.186 1.75-.141.962-.776 1.806-1.411 1.875-.635.069-1.605.181-2.155.25-1.975.247-.95 3.19 1.5 4.307 2.035.927 2.5 1.853 2.5 4.979 0 4.363-1.283 4.852-4.17 1.589l-1.99-2.25 1.475 2.323c.957 1.506 1.29 3.7.95 6.24-.54 4.026 1.023 7.338 3.135 6.64.617-.203 1.232-3.384 1.4-7.241zM160.232 589c0-1.925.206-2.712.457-1.75.252.963.252 2.538 0 3.5-.251.963-.457.175-.457-1.75zm-2.037-.5c.02-1.65.244-2.204.498-1.231.254.973.237 2.323-.037 3-.274.677-.481-.119-.461-1.769zm3.697-14.75c-.513-5.949-.545-10.03-.113-14.546.393-4.102.86-5.228 2.07-4.995.86.166 1.876 1.424 2.257 2.796 1.059 3.804 1.012 12.553-.081 15.43-.999 2.627-3.939 3.562-4.133 1.315zm2.815-10.988c-.239-1.244-.444-.462-.455 1.738-.01 2.2.185 3.218.435 2.262s.26-2.756.02-4zm-56.484 3.681c-1.223-.856-2.223-1.937-2.223-2.402 0-.674 5.176-3.041 6.65-3.041.192 0 .35 1.575.35 3.5 0 3.886-1.268 4.401-4.777 1.943zm2.506-2.047c-.332-.332-1.195-.368-1.917-.08-.797.32-.56.557.605.605 1.054.043 1.644-.193 1.312-.525zM156 551.122c0-2.87 2.444-4.497 3.98-2.647 1.661 2.002.575 4.525-1.949 4.525-1.32 0-2.031-.657-2.031-1.878zm.98-10.16c-1.32-2.466-.39-5.962 1.587-5.962 1.005 0 1.433 1.195 1.433 4 0 4.347-1.294 5.188-3.02 1.962zm1.682-3.212c-.277-.688-.504-.125-.504 1.25s.227 1.938.504 1.25c.278-.688.278-1.813 0-2.5zm-.494 39.502c-.733-.26-2.193-1.886-3.246-3.613-1.053-1.726-1.916-2.611-1.918-1.966-.005 1.671 5.12 7.548 5.87 6.732.344-.373.027-.892-.706-1.153zm36.582-1.987c-2.612-.206-6.888-.206-9.5 0s-.475.374 4.75.374 7.362-.168 4.75-.374zm25.5-1.002c-2.888-.202-7.612-.202-10.5 0s-.525.367 5.25.367 8.137-.165 5.25-.367zm43.667-1.15c4.629-.062 8.136-.394 7.793-.737-.82-.82-45.809.654-45.298 1.485.216.351 6.85.352 14.74.002 7.892-.35 18.136-.688 22.765-.75zm-69.417-.616c9.9-.321 23.175-.796 29.5-1.055 112.701-4.604 132.38-5.637 134.435-7.054 1.831-1.264 1.75-1.41-1.5-2.734-2.61-1.062-12.21-1.556-39.935-2.053-20.075-.36-48.65-1.073-63.5-1.583-14.85-.51-39.375-1.153-54.5-1.428-27.403-.498-27.485-.493-23.388 1.356 8.628 3.892 13.264 4.15 71.515 3.981 67.456-.196 62.873-.31 62.873 1.573 0 .825-.113 1.544-.25 1.599-.138.054-24.325.275-53.75.49-62.093.455-71.698 1.097-80.445 5.38-5.437 2.662-5.698 2.921-2.555 2.54 1.925-.235 11.6-.69 21.5-1.012zm95.787-1.233c-2.868-.201-7.818-.203-11-.004-3.183.2-.837.364 5.213.366 6.05.002 8.654-.16 5.787-.362zM154 568.559c0-.243-.45-.72-1-1.059-.55-.34-1-.141-1 .441s.45 1.059 1 1.059 1-.198 1-.441zm4.25-1.221c-.688-.278-1.813-.278-2.5 0-.688.277-.125.504 1.25.504s1.938-.227 1.25-.504zm16.117-1.714l3.867-1.347-3.266-1.138c-4.551-1.587-4.968-1.473-4.968 1.361 0 1.375.113 2.493.25 2.485.138-.008 1.99-.62 4.117-1.361zm-22.122-2.124c.263-1.375.09-2.5-.384-2.5-.473 0-.861 1.125-.861 2.5s.173 2.5.383 2.5c.211 0 .599-1.125.862-2.5zm63.672 1.133c-.943-.83-9.838-1.314-9.34-.508.298.481 2.614.875 5.149.875 2.534 0 4.42-.165 4.19-.367zm5.833-1.322c-.963-.252-2.538-.252-3.5 0-.963.251-.175.457 1.75.457s2.712-.206 1.75-.457zm67-.06c-11.412-.16-30.087-.16-41.5 0-11.412.16-2.075.292 20.75.292s32.163-.131 20.75-.292zm84.421-.906c1.006-.91 1.829-2.085 1.829-2.61 0-.526-.9.106-2 1.404-1.982 2.34-2.012 2.344-3.537.368-.846-1.096-1.409-2.896-1.25-4 .385-2.69 4.733-3.301 6.481-.91 1.211 1.656 1.306 1.66 1.306.063 0-.948-.628-1.964-1.396-2.258-.829-.318-1.313-1.727-1.192-3.469.154-2.237-.226-2.933-1.605-2.933-1.592 0-2.146 1.504-1.717 4.66.049.363-.626 1.06-1.5 1.55-2.025 1.133-2.04 4.702-.033 7.567 1.863 2.661 2.249 2.709 4.614.568zM96.97 553l-.664-6.5-.153 5.168c-.128 4.367.626 9.132 1.288 8.125.106-.161-.106-3.218-.471-6.793zm5.381 5.529c.635-1.653 1.5-17.107 2.13-38.029.232-7.7.658-19.4.947-26 .744-16.992 1.477-45.034 2.116-81 .303-17.05.743-32.237.979-33.75.589-3.781-.867-3.462-2.278.5-2.554 7.17-3.17 18.094-3.365 59.676-.112 23.885-.486 44.807-.831 46.494-.36 1.763-1.355 3.208-2.338 3.397-1.595.308-1.71-3.068-1.71-50.306 0-44.474-.202-51.266-1.663-55.823-2.909-9.07-4.094-9.694-3.713-1.953.75 15.255 1.366 32.026 2.783 75.765 1.719 53.037 3.47 94.564 4.187 99.25.523 3.424 1.807 4.253 2.757 1.779zm54.919.815c-.677-.274-2.027-.29-3-.037-.973.253-.419.478 1.231.498 1.65.02 2.446-.187 1.769-.461zm214.414-1.532c-.32-.797-.556-.56-.604.605-.043 1.054.193 1.644.525 1.312.332-.332.368-1.195.08-1.917zm-14.683.283c-.825-.464-17.925-1.061-38-1.326-20.075-.265-34.25-.305-31.5-.087 2.75.217 19.175.756 36.5 1.199 17.325.442 32.175.86 33 .93 1.333.114 1.333.034 0-.716zm-251.293-5.333c-.239-1.244-.444-.462-.455 1.738-.01 2.2.185 3.218.435 2.262s.26-2.756.02-4zm134.022 2.634c-.332-.332-1.195-.368-1.917-.08-.797.32-.56.557.605.605 1.054.043 1.644-.193 1.312-.525zm27.47-.142c-5.115-.182-13.215-.18-18 .002-4.784.183-.599.332 9.301.33 9.9 0 13.815-.15 8.7-.332zM106.825 535.5c-.16-13.278-.618-11.459-1.046 4.158-.154 5.587.052 9.637.456 9 .404-.637.67-6.558.59-13.158zm269.951 10.324c.85-.85.876-1.539.093-2.481-.632-.762-.837-3.083-.492-5.574.325-2.348.88-7.49 1.232-11.427.63-7.02.727-7.222 5.017-10.436 4.784-3.585 5.274-4.18 2.624-3.187-1.586.594-1.611.474-.267-1.282 1.462-1.91 1.451-1.91-.75-.032-2.212 1.887-2.798 1.23-1.626-1.823 1.158-3.018 5.823-1.836 5.595 1.418-.02.275 1.165.543 2.631.596 1.467.053 4.056.432 5.753.842 2.286.553 3.518.315 4.75-.917 3.466-3.466 2.145-4.521-5.662-4.521-6.32 0-7.608-.309-9.385-2.25-1.132-1.237-2.359-3.24-2.725-4.449-.448-1.479-1.183-2-2.243-1.594-.981.377-2.245-.28-3.347-1.74l-1.77-2.347.526 2.747.525 2.746-5.378-.306c-4.696-.268-5.334-.553-5.038-2.253.288-1.652.105-1.752-1.206-.664-.85.705-2.015.992-2.59.637-.606-.375-1.043.298-1.043 1.61 0 1.24-1.186 3.492-2.636 5.005l-2.636 2.752 2.636.661c1.45.364 2.692 1.063 2.761 1.553.069.49.238 1.342.375 1.892.138.55.306 1.45.375 2s.848 1 1.732 1c1.018 0 1.396-.55 1.031-1.5-.789-2.057.28-4.5 1.969-4.5.766 0 1.416.338 1.443.75.028.413.216 2.663.418 5 .349 4.033.231 4.25-2.3 4.235-3.35-.02-6.763-1.911-3.668-2.033 1.786-.07 1.75-.18-.344-1.018-1.29-.517-2.58-1.838-2.867-2.937-.298-1.14-1.364-1.997-2.482-1.997-1.653 0-1.47.412 1.159 2.624 4.274 3.597 2.98 4.267-1.946 1.008-4.26-2.819-5.164-5.186-2.27-5.943.963-.251-1.7-.51-5.918-.573-9.473-.143-11.172.38-9.768 3.004.864 1.614 2.018 1.89 7.232 1.726 5.58-.175 6.808.178 12.204 3.508 5.855 3.613 6.015 3.828 6.628 8.924 2.03 16.88 2.123 18.715 1.023 20.04-.623.751-.838 1.662-.476 2.024 1.128 1.128 9.863.72 11.101-.518zm-7.526-17.54c1.512-.23 3.987-.23 5.5 0 1.512.229.275.416-2.75.416s-4.263-.187-2.75-.416zm0-2c1.512-.23 3.987-.23 5.5 0 1.512.229.275.416-2.75.416s-4.263-.187-2.75-.416zm4.263-8.263c-.333-.539-.158-1.816.39-2.839.547-1.022.753-2.78.459-3.907-.295-1.127-.017-2.37.618-2.762.672-.416 1.076-.15.968.637-.102.742-.078 2.25.052 3.35.174 1.475.437 1.212 1-1 .593-2.332.79-2.512.882-.809.065 1.205.575 2.474 1.134 2.82.56.345.758 1.046.441 1.558-.316.512.014.947.734.966 1.563.043-3.163 2.878-4.882 2.93-.655.02-1.463-.406-1.796-.944zm21.487-7c-1.171-.773-.842-1.016 1.5-1.105 2.947-.113 2.956-.13.5-.916-2.346-.751-2.295-.807.823-.9 2.654-.08 3.256.253 2.99 1.65-.384 2.016-3.615 2.722-5.813 1.271zm-51.731-.714c.973-.254 2.323-.237 3 .037.677.274-.119.481-1.769.461-1.65-.02-2.204-.244-1.231-.498zm-1-2c.973-.254 2.323-.237 3 .037.677.274-.119.481-1.769.461-1.65-.02-2.204-.244-1.231-.498zM362 505.161c0-3.726 9.115-5.368 17.25-3.108 2.698.749 3.75 1.589 3.75 2.994 0 1.813-.75 1.953-10.5 1.953-9.528 0-10.5-.17-10.5-1.84zm14.157-1.345c-2.812-.628-5.633-.627-8 .004-3.21.855-2.68.973 4.343.97 7.491-.004 7.724-.066 3.657-.974zM95.732 523.75c-.21-2.337-.383-.425-.383 4.25s.173 6.588.383 4.25c.21-2.337.21-6.162 0-8.5zm271.974-13c-.239-1.238-.434-.225-.434 2.25s.195 3.487.434 2.25c.238-1.238.238-3.263 0-4.5zm-259.974-8c-.21-2.337-.383-.425-.383 4.25s.173 6.588.383 4.25c.21-2.337.21-6.162 0-8.5zm-12.994-7.966c-.202-2.906-.37-.784-.373 4.716-.002 5.5.163 7.878.369 5.284.205-2.595.207-7.095.004-10zm278.129-1.177l-1.23-2.698-1.158 2.795c-.969 2.338-.898 2.9.431 3.432 2.458.985 3.312-.555 1.957-3.53zm7.723-5.357c-.302-4.263-.783-19.675-1.07-34.25-1.018-51.633-1.58-75.627-2.017-86-.244-5.775-.712-19.725-1.041-31-.559-19.146-1.497-26-3.558-26-.469 0-1.486 1.238-2.26 2.75-1.04 2.033-1.583 9.399-2.081 28.25-.37 14.025-1.1 40.35-1.623 58.5-.521 18.15-1.171 41.325-1.444 51.5-.273 10.175-.714 24.125-.982 31-.54 13.897.203 14.192 3.861 1.532 1.876-6.489 2.057-10.314 2.339-49.532.168-23.375.302-49.846.296-58.823-.009-15.01.13-16.297 1.74-15.987 1.638.315 1.782 4.383 2.25 63.823l.5 63.487 2.27 4.25c1.249 2.337 2.517 4.25 2.82 4.25.3 0 .3-3.487 0-7.75zm3.1 3c-.252-.963-.458-.175-.458 1.75s.206 2.712.457 1.75c.252-.963.252-2.538 0-3.5zm-20.947-21.5c-.19-3.987-.346-.725-.346 7.25s.156 11.238.346 7.25c.19-3.987.19-10.512 0-14.5zm8.342 18.803c.503.31.922-.024.93-.744.012-.957.289-.905 1.03.191.742 1.096.836.692.347-1.5-1.077-4.831-1.584-4.978-3.013-.875-1.278 3.671-1.799 6.307-.715 3.619.279-.691.918-1.002 1.421-.691zM93.744 464.75c-.185-4.537-.337-.825-.337 8.25s.152 12.787.337 8.25c.185-4.537.185-11.963 0-16.5zm14.999 2c-.19-3.987-.346-.725-.346 7.25s.156 11.238.346 7.25c.19-3.987.19-10.512 0-14.5zm-8.006 0c-.202-2.888-.367-.525-.367 5.25s.165 8.137.367 5.25c.202-2.888.202-7.612 0-10.5zm271.97 7.012c-.239-1.244-.444-.462-.455 1.738-.01 2.2.185 3.218.435 2.262s.26-2.756.02-4zm9.176-23.182c-.88-.807-1.014-.617-.53.752.356 1.007.745 7.532.865 14.5l.219 12.668.312-13.42c.217-9.374-.044-13.745-.866-14.5zm-9.2 14.233c-.32-.798-.556-.561-.604.604-.043 1.054.193 1.644.525 1.312.332-.332.368-1.195.08-1.916zM102.75 384.315c.688-1.202 1.214-2.777 1.171-3.5-.043-.724-.53-.078-1.083 1.434-1.35 3.695-2.448 3.462-3.86-.817-.648-1.962-1.362-3.382-1.588-3.156-.226.226.268 2.338 1.1 4.693 1.225 3.474 1.549 11.186 1.715 40.906l.206 36.624.544-37c.396-26.9.886-37.596 1.795-39.184zM110.688 408l-.052-13.5-.68 16.5c-.373 9.075-.66 23.7-.636 32.5l.043 16 .688-19c.379-10.45.665-25.075.637-32.5zm262.005 46.269c-.254-.973-.478-.419-.498 1.231-.02 1.65.187 2.446.46 1.769.275-.677.292-2.027.038-3zM92.739 439.25c-.198-3.163-.36-.575-.36 5.75s.162 8.912.36 5.75c.198-3.163.198-8.338 0-11.5zm279.954 6.019c-.254-.973-.478-.419-.498 1.231-.02 1.65.187 2.446.46 1.769.275-.677.292-2.027.038-3zm9.052-26.519c-.181-5.088-.33-.925-.33 9.25s.149 14.338.33 9.25c.182-5.088.182-13.412 0-18.5zm-18.006 8.5c-.198-3.163-.36-.575-.36 5.75s.162 8.912.36 5.75c.198-3.163.198-8.338 0-11.5zm8.996 0c-.206-2.612-.374-.475-.374 4.75s.168 7.362.374 4.75.206-6.888 0-9.5zM91.733 414.776c-.21-2.352-.387-.676-.39 3.724-.004 4.4.169 6.324.384 4.276s.218-5.648.006-8zm281.015-38.026c-.167-8.387-.304-1.525-.304 15.25s.137 23.637.304 15.25c.167-8.387.167-22.113 0-30.5zm8.482 19.001c-.428-21.04-.866-22.7-1.055-4.001-.096 9.488.162 17.25.575 17.251.412.001.629-5.961.48-13.25zm-16.488-6.46c-.192-3.735-.352-.941-.353 6.209-.002 7.15.156 10.206.35 6.792.195-3.415.196-9.265.003-13zM90.786 385.75c-.408-11.327-.277-12.75 1.177-12.75.9 0 2.177.54 2.837 1.2.933.933 1.2.822 1.2-.5 0-1.379.968-1.7 5.117-1.7 5.454 0 5.317-.218 3.46 5.5-.357 1.1.131.522 1.085-1.285 2.205-4.177 4.633-3.823 5.47.796.484 2.678.608 2.152.535-2.26-.13-7.801.889-8.632 11.159-9.091 4.556-.204 8.706-.792 9.22-1.306 1.616-1.616-1.847-5.366-4.853-5.254l-2.693.1 2.495.694c1.372.381 2.642 1.461 2.823 2.4.266 1.383-.443 1.706-3.745 1.706-2.847 0-4.073-.426-4.073-1.417 0-.779.563-1.643 1.25-1.92.688-.278-.157-.54-1.876-.584-1.719-.043-5.6-1.173-8.624-2.51l-5.499-2.433-.587-8.818c-.323-4.85-.782-10.843-1.02-13.318-.238-2.475-.031-4.994.458-5.598.561-.692.152-1.767-1.106-2.905-2.285-2.068-2.496-3.724-.817-6.412.947-1.517.837-2.412-.563-4.548-2.104-3.211-4.513-2.975-6.543.641-1.277 2.276-1.297 3.036-.133 5.21 1.152 2.153 1.148 2.8-.025 4.215-.945 1.138-1.285 3.652-1.068 7.884.18 3.492-.316 8.359-1.132 11.113-.915 3.09-1.142 5.732-.615 7.151 1.265 3.405.237 4.868-5.822 8.287-5.046 2.848-6.056 3.068-11.294 2.46-5.226-.606-5.896-.462-7.326 1.58-.866 1.236-1.342 2.625-1.057 3.085.284.46 4.246.837 8.803.837 11.483 0 11.248-.385 12.206 20 .426 9.075.969 15.6 1.205 14.5.237-1.1.224-7.737-.03-14.75zm1.714-16.035C87.878 366.908 89.71 366 100 366c7.912 0 10 .293 10 1.402 0 3.13-13.267 4.883-17.5 2.313zm9.262-1.402c-.956-.25-2.756-.26-4-.02-1.244.239-.462.444 1.738.455 2.2.01 3.218-.185 2.262-.435zM84 363.125c0-1.125 1.3-2.507 3.25-3.455 3.543-1.722 4.315-1.055 3.329 2.873-.483 1.922-1.266 2.457-3.598 2.457-2.248 0-2.981-.461-2.981-1.875zm4.493-1.114c.35-.566-.051-.734-.941-.393-1.732.665-2.05 1.382-.611 1.382.518 0 1.216-.445 1.552-.989zm21.085.443c-.91-3.626-.037-4.446 3.618-3.398 4.015 1.152 5.034 2.182 4.23 4.277-.418 1.088-1.781 1.667-3.925 1.667-2.685 0-3.4-.464-3.923-2.546zM115 362c-1.939-1.253-3-1.253-3 0 0 .55 1.012.993 2.25.985 1.82-.013 1.963-.201.75-.985zm-41.5 0c-1.63-.7-1.688-.872-.309-.93.93-.038 1.97.38 2.309.93.71 1.15.676 1.15-2 0zm24.176-44.75c-.796-1.353 1.226-5.25 2.724-5.25 1.632 0 3.075 3.422 2.106 4.991-.726 1.174-4.182 1.359-4.83.259zm268.069 38c-.184-4.813-.334-.875-.334 8.75s.15 13.563.334 8.75c.183-4.813.183-12.688 0-17.5zM102.694 377c.989-2.62.911-3-.614-3-2.428 0-2.866.666-2.32 3.523.629 3.29 1.557 3.125 2.934-.523zm277.99-5.188c-.32-.797-.557-.56-.605.605-.043 1.054.193 1.644.525 1.312.332-.332.368-1.195.08-1.916zm-.991-8.543c-.254-.973-.478-.419-.498 1.231-.02 1.65.187 2.446.46 1.769.275-.677.292-2.027.038-3zm-251.943-.958c-.963-.252-2.538-.252-3.5 0-.963.251-.175.457 1.75.457s2.712-.206 1.75-.457zm251.989-18.061c-.198-3.163-.36-.575-.36 5.75s.162 8.912.36 5.75c.198-3.163.198-8.338 0-11.5zm-13-15c-.198-3.163-.36-.575-.36 5.75s.162 8.912.36 5.75c.198-3.163.198-8.338 0-11.5zm11.954-9.981c-.254-.973-.478-.419-.498 1.231-.02 1.65.187 2.446.46 1.769.275-.677.292-2.027.038-3zm-2.101-9.31c-2.822-4.264-4.085-4.294-7.012-.166l-1.92 2.707 2.485-2.25c1.366-1.238 2.905-2.247 3.42-2.244 1.161.008 4.394 5.565 4.551 7.825.098 1.402.191 1.378.587-.15.259-1.002-.691-3.576-2.111-5.721zm-67.8 31.3c-1.376-.314-1.764-1.761-2-7.47-.266-6.446-.546-7.272-3.114-9.186-3.073-2.29 2.135-2.021-78.178-4.022-13.75-.343-31.975-.829-40.5-1.08-8.525-.25-24.725-.723-36-1.05-11.275-.327-23.65-.697-27.5-.823-6.824-.223-10.183-1.3-13.75-4.411-2.936-2.562-2.012-4.64 3.5-7.875l5.25-3.08 45-1.697c24.75-.934 52.65-2.105 62-2.603 14.494-.772 48.092-2.294 71.58-3.242 4.198-.17 7.545-.9 9.25-2.016 2.439-1.598 2.67-2.311 2.67-8.227 0-6.452.011-6.477 2.845-6.477 4.43 0 6.411 2.95 6.002 8.938-.293 4.272.107 5.734 2.544 9.315 2.79 4.099 3.086 4.253 8.5 4.405 9.855.277 20.524 1.43 23.36 2.524 2.013.777 3.132.745 4.174-.12 1.903-1.579 8.603.206 11.091 2.956 1.728 1.91 1.739 2.224.187 5.478-1.83 3.838-4.823 5.07-10.195 4.199-2.238-.363-3.775-.079-4.537.84-.746.899-2.642 1.272-5.37 1.057-2.319-.183-7.115.285-10.659 1.04-3.543.754-8.13 1.106-10.192.782-2.112-.332-3.75-.175-3.75.359 0 .521-1.138 2.625-2.529 4.675-1.965 2.896-2.39 4.467-1.905 7.052.343 1.83.324 4.27-.042 5.424-.765 2.411-5.217 4.907-7.732 4.334zm4.218-4.27c1.593-1.592 1.884-2.803 1.399-5.835-.502-3.135-.038-4.84 2.568-9.46l3.18-5.634 4.326.593c2.379.326 6.529.064 9.223-.582 2.693-.647 7.257-1.23 10.142-1.295 3.383-.077 5.526-.622 6.038-1.536.658-1.176 1.477-1.212 4.827-.208 3.027.907 4.503.926 5.91.075 1.622-.98 1.51-1.051-.83-.523-2.299.519-2.802.229-3.344-1.93-.848-3.38.267-4.941 3.138-4.393 1.294.248 2.115.065 1.824-.405-.73-1.182-3.176-1.07-7.024.321-2.602.94-3.582.906-4.882-.172-.894-.743-4.411-1.463-7.815-1.601-3.405-.138-9.795-.562-14.201-.942l-8.012-.691-3.316-5.122c-2.913-4.497-3.238-5.651-2.665-9.474.507-3.376.265-4.781-1.076-6.264-.952-1.051-2.09-1.911-2.53-1.911-.439 0-.932 2.991-1.094 6.647-.438 9.833-.91 10.05-23.296 10.752-24.654.772-25.582.883-13 1.552 6.05.321 11.428.239 11.95-.183 1.545-1.249 15.343-.912 16.15.394 1.088 1.76-2.872 4.433-10.163 6.859-5.386 1.792-8.927 2.181-20.233 2.222l-13.704.05 14 .658c8.125.381 14.967 1.186 16.305 1.918 1.268.693 2.843 1.042 3.5.775.69-.28.5-.52-.448-.565-.904-.043-1.883-.706-2.177-1.472-.374-.972 1.327-2.1 5.643-3.74 3.397-1.29 6.514-2.502 6.927-2.69.412-.19.75 2.394.75 5.74 0 3.389-.443 6.083-1 6.083-.55 0-.947.337-.882.75.474 2.997-.436 3.204-15.368 3.502l-15.25.304 16.817.222c16.44.217 16.893.28 20.25 2.84 3.324 2.537 3.433 2.837 3.433 9.5 0 7.298.715 8.167 4.01 4.872zm-2.892-4.827l.119-3.662.763 3 .763 3 .182-3c.18-2.96.194-2.968 1.147-.586 1.198 2.997.796 4.338-1.396 4.66-1.348.198-1.672-.502-1.578-3.412zm-.048-7.912c-.067-4.043.072-4.25 2.842-4.25 3.017 0 3.533 1.497 1.428 4.15-.59.742-1.321 2.025-1.627 2.85-.406 1.097-.595.963-.704-.5l-.15-2-.859 2c-.666 1.549-.875 1.042-.93-2.25zm-6.08-5.5c-3.878-6.359-1.783-21.75 2.959-21.75 1.959 0 2.051.563 2.051 12.5 0 10.498-.243 12.5-1.515 12.5-.833 0-2.406-1.462-3.496-3.25zm2.929-10c-.076-8.664-.168-9.06-1.455-6.25-1.703 3.718-1.84 9.58-.303 12.953.638 1.4 1.313 2.547 1.5 2.547.186 0 .302-4.162.258-9.25zm8.681 6.485c.605-.404 1.357-1.41 1.671-2.235.382-1.002.597-.753.65.75.053 1.512-.495 2.245-1.671 2.235-1.08-.01-1.328-.297-.65-.75zm15.794-1.65c-.299-.78-.352-2.692-.118-4.25.356-2.379.473-2.191.724 1.165l.3 4 .7-4.5.7-4.5.15 4.75c.143 4.523-1.266 6.436-2.456 3.334zM310 296.5c0-4.173 1.126-4.427 3.914-.882 2.396 3.046 1.947 4.382-1.473 4.382-2.123 0-2.441-.456-2.441-3.5zm4 1.059c0-.243-.45-.72-1-1.059-.55-.34-1-.141-1 .441s.45 1.059 1 1.059 1-.198 1-.441zm-3.805-13.059c.02-1.65.244-2.204.498-1.231.254.973.237 2.323-.037 3-.274.677-.481-.119-.461-1.769zm1.963.5c0-1.375.227-1.938.504-1.25.278.688.278 1.813 0 2.5-.277.688-.504.125-.504-1.25zM239 317.953c-28.483-1.17-79.54-2.25-79-1.673.275.294 15.125.857 33 1.251 17.875.395 32.688.886 32.917 1.093.229.207 7.204.302 15.5.212l15.083-.164zm50-3.802l-7.5-2.651-51.5-.044-51.5-.043-.316-2.183-.317-2.183 47.817-.033c27.551-.019 50.57-.467 54.316-1.057 7.497-1.181 15.714-3.685 16.554-5.045.817-1.32-9.474-.391-10.846.98-1.442 1.442-4.397 1.42-5.299-.039-.654-1.059-22.727-.68-35.909.617-2.2.217-12.55.667-23 1-10.45.333-22.6.802-27 1.04a2224.783 2224.783 0 0 1-44.5 1.99c-23.382.818-31.21 1.534-33.377 3.052-2.903 2.033-1.51 2.236 19.877 2.9 21.618.672 39.814 1.325 56.5 2.028 6.325.267 27.7.773 47.5 1.126 19.8.352 36.188.81 36.417 1.017.229.207 4.729.333 10 .278l9.583-.098zm-137.704 1.107c-3.963-.189-10.713-.19-15-.003-4.288.188-1.046.343 7.204.345 8.25 0 11.758-.153 7.796-.342zm-33.103-1.182c-4.957-.6-7.723-2.41-6.56-4.293.277-.446 2.16-1.638 4.185-2.648 2.82-1.405 6.376-1.89 15.18-2.067 6.325-.128 11.687-.42 11.917-.65.23-.23-5.099-.418-11.842-.418-12.006 0-12.371.066-17.6 3.193l-5.338 3.193 3.127 2.307c2.294 1.693 4.34 2.27 7.682 2.166l4.556-.14zM296 313.5c-1.375-.786-2.95-1.43-3.5-1.43-.55 0 .125.644 1.5 1.43 1.375.786 2.95 1.43 3.5 1.43.55 0-.125-.644-1.5-1.43zm3-3.92v-3.42l-4.153 1.632-4.152 1.631 3.103.804c1.707.443 3.377 1.248 3.712 1.789 1.076 1.74 1.49 1.063 1.49-2.436zm65.134-1.234c-.94-1.618-1.077-1.482-1.104 1.104-.022 2.151.269 2.651 1.074 1.846.79-.79.8-1.626.03-2.95zm-128.352 1.102c-.675-.674-54.958-.605-55.634.07-.265.265 12.269.482 27.852.482s28.085-.248 27.782-.552zM361 309.56c0-.243-.45-.72-1-1.059-.55-.34-1-.141-1 .441s.45 1.059 1 1.059 1-.198 1-.441zm-116.731-1.215c-.677-.274-2.027-.29-3-.037-.973.253-.419.478 1.231.498 1.65.02 2.446-.187 1.769-.461zm7.981-.05c-1.238-.238-3.263-.238-4.5 0-1.238.239-.225.434 2.25.434s3.487-.195 2.25-.434zm-91-5.026c-2.337-.21-6.162-.21-8.5 0-2.337.21-.425.383 4.25.383s6.588-.173 4.25-.383zm41.25-1.213l13-.716-11.5-.056c-6.325-.03-17.35.268-24.5.662l-13 .716 11.5.056c6.325.03 17.35-.268 24.5-.662zm28.75-1.792c-2.888-.202-7.612-.202-10.5 0s-.525.367 5.25.367 8.137-.165 5.25-.367zm21.5-.998c-2.612-.206-6.888-.206-9.5 0s-.475.374 4.75.374 7.362-.168 4.75-.374zm-99.295-1.72c-2.013-2.012-2.455-3.447-2.455-7.964 0-4.39-.569-6.345-2.797-9.612-2.689-3.944-3.047-4.124-9.25-4.657-3.55-.305-9.954-.613-14.234-.683-5.509-.091-8.037-.541-8.659-1.541-.739-1.188-1.155-1.136-2.613.322-2.032 2.033-5.362 1.499-9.636-1.545-3.954-2.815-3.8-6.854.393-10.383 2.68-2.255 3.898-2.618 7.443-2.218 3.014.34 4.39.081 4.764-.893.626-1.63 6.178-1.844 7.148-.275.421.681 2.049.84 4.31.421 1.997-.37 6.87-.898 10.83-1.173l7.197-.498 2.928-5.188c2.495-4.42 2.854-5.953 2.43-10.358-.449-4.681-.234-5.414 2.271-7.736 1.522-1.41 3.773-2.564 5.002-2.564 2.111 0 2.275.541 2.96 9.75.399 5.362 1.122 10.497 1.606 11.41 1.065 2.006 7.479 2.541 39.907 3.327 27.239.66 50.06 1.384 63.5 2.013 5.5.257 27.55.941 49 1.52 32.798.885 39.557 1.317 42.5 2.717 8.7 4.136 9.443 7.876 2.25 11.312-4.22 2.015-6.59 2.308-21.25 2.619-16.236.345-53.105 1.498-106.764 3.34-14.996.515-36.146.988-47 1.052-23.788.14-23.236-.107-23.236 10.395 0 4.224-.49 7.636-1.2 8.345-1.89 1.89-4.678 1.413-7.345-1.255zm6.545-8.839c0-10.964-.557-10.706 23.096-10.706 10.882 0 19.995-.338 20.25-.75.256-.412-7.818-.596-17.94-.407-16.568.308-18.406.178-18.406-1.305 0-1.99 9.358-6.508 15.068-7.274 4.261-.571 5.426-2.264 1.558-2.264-1.306 0-4.301-.68-6.656-1.51-2.355-.832-4.46-1.334-4.677-1.116-.217.217.973.872 2.646 1.455 3.943 1.375 3.202 3.19-2.213 5.421-5.861 2.415-6.379 2.269-7.084-2-1.053-6.37-.968-6.561 2.608-5.892 2.514.47 2.854.374 1.5-.425-.963-.568-1.75-1.745-1.75-2.617 0-1.421 2.918-1.532 28.25-1.07 16.658.303 23.531.207 16.75-.235-6.325-.411-18.25-.846-26.5-.967-20.677-.302-24.628-.912-26.209-4.044-.702-1.392-1.275-1.835-1.292-1-.048 2.425-1.337 3.796-4.259 4.53-2.407.603-2.74.4-2.735-1.672.003-1.297 1.117-3.708 2.476-5.358 2.077-2.52 2.633-2.76 3.48-1.5.716 1.065 1.004-.965.994-7l-.014-8.5-3.04 3.345c-1.769 1.944-2.801 3.972-2.467 4.843 1.704 4.441 1.401 6.11-2.233 12.312l-3.809 6.5-7.446.342c-4.095.188-10.675.374-14.622.414-6.086.062-7.25.352-7.657 1.908-.56 2.14-4.207 2.476-4.981.46-.701-1.827-4.92-.986-7.606 1.516-2.698 2.514-2.624 3.287.555 5.787 3.315 2.608 5.535 2.631 7.133.073 1.618-2.592 4.272-2.565 4.955.05.481 1.84 1.268 2.038 7.657 1.933 3.916-.064 10.515.183 14.665.55l7.545.665 2.915 5.568c2.15 4.107 2.866 6.771 2.727 10.151-.104 2.52.139 5.1.54 5.732 1.096 1.73 1.273-9.697.18-11.737-1.37-2.563-.08-5.072 2.425-4.715 1.94.277 2.148 1.014 2.414 8.569.235 6.693-.001 8.378-1.245 8.855-.844.324-1.272 1.013-.951 1.532.349.565 1.15.474 1.994-.227.97-.805 1.411-3.372 1.411-8.22zM148.638 273.5c-1.383-3.604-.745-4.204 4.356-4.1 4.472.09 4.994.335 5 2.34.005 1.68-.556 2.22-2.244 2.162-1.238-.042-3.2.224-4.362.592-1.477.467-2.304.169-2.75-.994zm7.631-2.155c-.677-.274-2.027-.29-3-.037-.973.253-.419.478 1.231.498 1.65.02 2.446-.187 1.769-.461zm3.365.578c-.817-4.089-.82-12.403-.003-13.22.348-.347 1.492-.171 2.543.391 1.656.886 1.872 1.983 1.619 8.204-.231 5.667-.634 7.247-1.909 7.49-1.118.213-1.81-.668-2.25-2.865zm2.593-5.672c-.576-5.805-1.061-6.228-1.148-1-.043 2.612.28 4.75.72 4.75.44 0 .632-1.688.428-3.75zm-56.308 2.669c-1.983-1.983-2-2.173-.345-4 3.497-3.865 6.601-1.74 5.598 3.831-.506 2.812-2.544 2.878-5.253.169zM109 267c0-.55-.45-1-1-1s-1 .45-1 1 .45 1 1 1 1-.45 1-1zm32.142-.833c-.1-3.066.224-4.214 1.108-3.923.688.225 1.292 1.725 1.343 3.333l.093 2.923-.526-3c-.515-2.934-.542-2.912-1.202 1l-.674 4-.142-4.333zm-12.026 0c-.125-2.506 1.976-2.588 2.648-.104.328 1.215.238 1.222-.587.042-.795-1.138-1.064-1.046-1.46.5-.398 1.555-.506 1.477-.601-.438zm19.9-3.917c.008-.999.335-1.32.761-.75.41.55 1.154 1.337 1.651 1.75.498.412.155.75-.761.75-.927 0-1.66-.777-1.652-1.75zm8.328 27.25c.424-2.788.334-3.394-.297-2-.87 1.92-1.437 7.276-.68 6.417.202-.23.642-2.217.977-4.417zm-.344-7c0-.825-.436-1.5-.969-1.5-.532 0-.71.675-.393 1.5.317.825.753 1.5.969 1.5.216 0 .393-.675.393-1.5zm82-6.25c0-.728-31.496-.52-33.5.222-.55.204 6.763.406 16.25.45 9.488.042 17.25-.26 17.25-.672zm19.75-.989c-3.163-.198-8.338-.198-11.5 0-3.163.198-.575.36 5.75.36s8.912-.162 5.75-.36zM230 273.514a6331.61 6331.61 0 0 1 64.5-2.004c48.164-1.238 60.059-1.78 61.313-2.796 2.274-1.842-1.088-2.78-11.56-3.225-28.917-1.232-36.62-1.502-56.753-1.989-25.336-.612-42.158-1.166-76.5-2.517-31.805-1.251-40.36-1.211-37 .174 8.04 3.315 18.391 3.9 68.697 3.883 27.609-.01 50.896.25 51.75.578 3.11 1.193 1.689 3.382-2.197 3.383-2.062.001-27.15.188-55.75.414-45.008.358-52.74.639-57.5 2.09-3.025.922-5.95 2.12-6.5 2.661-.937.922 20.64.678 57.5-.652zm43.762.799c-.956-.25-2.756-.26-4-.02-1.244.239-.462.444 1.738.455 2.2.01 3.218-.185 2.262-.435zm72.738-1.315c10.58-.88-30.076-.11-54.5 1.034-11.349.532-6.822.608 14.5.244 17.05-.29 35.05-.865 40-1.278zm13.824-2.873l2.825-1.863-2.737-2.153c-3.056-2.404-6.664-3.57-8.62-2.786-.71.286-.104.555 1.347.598 1.452.043 3.702.979 5 2.079l2.361 2-2.36 2c-2.972 2.517-1.565 2.597 2.184.125zm-187.407-2.75c.603-.543-.117-1.034-2.667-1.818-1.847-.568-2.25-.31-2.25 1.443 0 1.752.403 2.01 2.25 1.443 1.238-.38 2.438-.86 2.667-1.067zm95.333-.124c-14.438-.156-38.063-.156-52.5 0-14.438.156-2.625.284 26.25.284s40.688-.128 26.25-.284zm64.25-5.29c-15.409-.798-72.317-1.965-63.5-1.303 8.795.66 53.426 2.032 66 2.03l11.5-.004-14-.724zm-82.25-2.704c-3.987-.19-10.512-.19-14.5 0-3.987.19-.725.346 7.25.346s11.238-.156 7.25-.346zm-94.709-5.324c1.076-1.741-.15-2.11-1.52-.457-.79.95-.866 1.524-.202 1.524.584 0 1.36-.48 1.722-1.067zm-86.917 19.259c-1.656-.342-1.801-1.025-1.239-5.813.609-5.176 1.386-6.367 16.876-25.851 8.932-11.235 19.839-25.02 24.239-30.637 11.479-14.65 49.067-61.214 65.467-81.1 8.262-10.017 10.031-12.472 10.05-13.95.01-.737-2.949-4.041-6.575-7.341-7.518-6.842-7.79-8.928-1.306-10.023 4.997-.844 8.873.705 10.98 4.39 1.384 2.422 2.444 2.923 7.414 3.508 5.716.671 5.84.632 8.624-2.746 1.554-1.884 4.742-4.553 7.085-5.93 2.381-1.399 5.523-4.508 7.121-7.046 1.683-2.673 3.737-4.668 4.99-4.848 1.173-.168 2.695-1.486 3.385-2.93 1.225-2.564 9.213-6.875 12.74-6.875 3.262 0 9.489 4.008 10.117 6.512.344 1.368 1.008 2.488 1.476 2.488.468 0 2.557 1.852 4.642 4.116 2.084 2.264 6.124 5.615 8.976 7.447 2.853 1.832 5.696 4.283 6.32 5.447 1.024 1.914 1.676 2.05 6.813 1.428 6.704-.813 8.955-1.812 11.762-5.223 2.268-2.756 7.353-3.345 9.988-1.157 2.899 2.405 1.593 5.501-4.59 10.878-5.992 5.212-6.012 5.248-4.25 7.568 1.773 2.334 20.757 25.778 40.017 49.42 77.192 94.745 76.715 94.127 77.607 100.636.922 6.724-.663 8.318-6.39 6.428-4.427-1.461-6.155-3.202-68.504-68.988-52.393-55.28-65.724-69-67.046-69-.71 0-3.368 1.797-5.905 3.993-7.818 6.767-10.885 7.336-12.16 2.256-.96-3.826.827-7.573 4.423-9.273 3.943-1.864 5.854-4.46 6.733-9.147.596-3.174.343-3.802-2.282-5.67-1.623-1.157-3.89-4.253-5.037-6.88-1.147-2.629-4.113-6.933-6.59-9.565-2.478-2.632-4.274-5.386-3.992-6.12.801-2.09-2.631-2.806-5.244-1.094-1.398.917-2.359 2.527-2.359 3.956 0 1.455-.724 2.639-1.828 2.99-1.005.318-3.962 3.895-6.57 7.947-2.609 4.052-5.994 8.566-7.522 10.03-2.618 2.509-2.715 2.904-1.68 6.82.716 2.704 2.608 5.604 5.415 8.297 3.953 3.791 4.29 4.501 4 8.441-.25 3.412-.787 4.475-2.596 5.14-1.922.706-3.22-.026-8.241-4.642-3.4-3.125-6.893-5.479-8.13-5.479-1.396 0-4.166 2.22-7.76 6.22-3.073 3.421-13.958 15.009-24.187 25.75-10.23 10.742-22.78 24.03-27.888 29.53l-14.9 16.043a9426.204 9426.204 0 0 0-16.613 17.969c-10.38 11.253-17.644 19.043-30.758 32.988-5.645 6.002-11.59 9.42-15.118 8.692zm2.573-5.642c-.349-3.161.629-4.798 10.185-17.05 7.885-10.109 42.71-53.995 51.976-65.5 15.041-18.675 18.572-23.222 15.143-19.5-3.806 4.13-13.49 16.123-43.603 54-34.81 43.784-34.303 43.09-35.267 48.33-.445 2.418-.273 3.211.628 2.895.691-.242 1.107-1.649.938-3.175zM405 266.073c0-3.508-1.29-5.563-12.088-19.25-6.648-8.428-13.228-16.448-14.621-17.823-1.394-1.375 3.82 5.502 11.587 15.281C401.91 259.43 404 262.576 404 265.531c0 1.908-.158 3.469-.35 3.469-3.483 0-9.031-4.966-27.698-24.789-11.763-12.491-25.624-26.986-30.802-32.211-5.178-5.225 1.558 2.152 14.968 16.394 13.41 14.242 26.842 28.595 29.848 31.896 5.765 6.33 10.377 9.7 13.284 9.706 1.37.003 1.75-.848 1.75-3.923zM82.029 262.25l6.471-6.75-6.5 6.134c-3.575 3.373-7.175 6.375-8 6.67-1.314.471-1.31.548.029.617.84.043 4.44-2.959 8-6.671zm18.349-24.256c10.517-11.279 24.072-25.89 30.122-32.468 6.05-6.58 15.748-16.926 21.552-22.994A3460.56 3460.56 0 0 0 171.51 162c4.899-5.225 12.389-13.086 16.645-17.47 4.257-4.383 7.573-8.136 7.37-8.34-.204-.203-3.218 1.531-6.698 3.853-7.256 4.843-13.991 11.49-28.83 28.457-5.774 6.6-10.988 12.45-11.587 13-.6.55-7.512 8.313-15.361 17.25-7.85 8.938-14.645 16.25-15.101 16.25-1.847 0-2.02-2.242-.372-4.794 2.287-3.54 14.396-17.763 26.924-31.623 32.813-36.303 41.66-47.605 40.345-51.548-.213-.639-6.228 6.093-13.366 14.96-16.092 19.986-18.05 22.395-27.979 34.418a1717.306 1717.306 0 0 0-37.172 46.677c-3.205 4.175-8.172 10.475-11.038 14-13.779 16.954-22.288 28.116-22.263 29.208.014.66 1.872-.823 4.127-3.298 2.256-2.475 12.706-13.728 23.224-25.006zm301.62 26.756c-.004-1.467-37.298-48.44-64.51-81.25-12.491-15.061-45.464-55.897-48.294-59.811l-2.305-3.189.725 3c2.31 9.566 7.64 17.52 25.004 37.318 17.342 19.774 18.193 20.737 23.499 26.59 2.54 2.8 9.263 10.492 14.942 17.092 5.678 6.6 11.586 13.35 13.128 15 3.2 3.423 3.544 5.282 1.15 6.2-1.184.455-2.838-.768-5.75-4.252-2.248-2.69-9.487-11.01-16.087-18.49-6.6-7.48-19.875-22.563-29.5-33.518-24.853-28.29-26.377-29.83-33.027-33.374-3.285-1.75-5.973-2.89-5.973-2.532 0 .732 23 25.297 44.956 48.014 8 8.277 20.59 21.552 27.981 29.5 31.72 34.115 51.878 54.952 53.16 54.952.497 0 .902-.563.9-1.25zm-285.949-38.79c45.059-48.238 58.293-62.362 66.96-71.46 5.239-5.5 11.611-12.363 14.161-15.25 4.133-4.681 5.068-5.25 8.625-5.25 3.332 0 4.83.757 9.108 4.603 3.112 2.798 5.703 4.378 6.608 4.031 2.543-.976 1.652-3.714-2.439-7.5-2.72-2.517-4.535-5.455-5.903-9.556-2.215-6.642-2.051-7.77 1.462-10.072 1.354-.887 4.074-4.177 6.044-7.31 1.97-3.133 5.15-7.343 7.068-9.356 1.918-2.013 3.24-4.06 2.938-4.547-.807-1.306.44-2.806 3.764-4.528 4.073-2.11 8.32-.623 8.746 3.062.21 1.823.862 2.63 2.048 2.536.957-.075 1.546.176 1.31.558-.237.383.651 2.02 1.972 3.637 1.322 1.618 3.532 5.21 4.912 7.983 1.38 2.772 3.829 6.016 5.442 7.208 2.708 2.003 2.865 2.46 2.053 5.96-1.101 4.742-1.148 6.132-.163 4.791 1.41-1.918 3.204-1.47 3.812.949.761 3.034-.117 4.551-2.636 4.551-1.334 0-1.954-.703-1.981-2.25-.038-2.16-.098-2.144-1.476.394-.79 1.454-2.763 3.106-4.383 3.67-3.305 1.153-5.401 4.24-4.49 6.614.906 2.36 1.858 1.984 7.372-2.913 8.65-7.682 8.385-7.77 22.841 7.598 6.926 7.363 17.741 18.562 24.033 24.887 6.291 6.325 3.556 3.175-6.08-7-27.762-29.319-29.048-31-23.718-31 1.213 0 1.941-.685 1.941-1.826 0-1.696 2.823-4.926 5.758-6.59.843-.477 1.867.71 3.105 3.602 3.208 7.492 3.455 8.814 1.645 8.814-.894 0-1.373-.41-1.063-.911.31-.502-.226-2.414-1.19-4.25l-1.94-3.691c-.102-.194-1.154.326-2.337 1.155-2.09 1.464-2.096 1.525-.197 2.128 1.97.625 6.134 4.569 4.824 4.569-.387 0-2.074-.708-3.748-1.574-1.673-.865-3.225-1.392-3.447-1.17-.222.223 1.957 1.451 4.843 2.73 3.188 1.413 7.334 4.52 10.567 7.92l5.32 5.594-4.46-6c-5.964-8.026-11.08-23.5-7.767-23.5.502 0 3.708 3.038 7.126 6.75l6.213 6.75-6.626-8.147c-3.644-4.48-6.626-8.937-6.626-9.904 0-.966 2.714-4.213 6.03-7.214 4.827-4.368 5.8-5.735 4.878-6.846-1.82-2.194-4.357-1.636-7.23 1.589-1.46 1.638-3.897 3.233-5.416 3.545-1.52.313-4.39.997-6.378 1.522-5.73 1.513-6.883 1.197-10.949-2.992-2.107-2.171-5.316-4.707-7.133-5.635-3.056-1.563-8.802-7.02-8.802-8.361 0-.32-.978-1.027-2.174-1.57-1.195-.543-2.29-1.84-2.433-2.884-.45-3.299-3.201-5.103-7.777-5.103-5.203 0-9.524 2.128-10.722 5.279-.485 1.276-2.235 2.793-3.888 3.369-1.653.576-3.006 1.484-3.006 2.017 0 1.89-5.374 7.977-8.414 9.528-1.697.867-4.962 3.603-7.254 6.08l-4.169 4.506-4.524-1.14c-2.489-.626-5.69-1.139-7.116-1.139-1.885 0-3.136-.924-4.592-3.393-1.101-1.866-2.886-3.623-3.966-3.906-2.167-.566-5.95.17-5.993 1.166-.015.348 2.446 2.883 5.47 5.633 8.207 7.465 8.116 8.18-2.774 21.776-5.042 6.295-12.083 14.973-15.645 19.284-3.563 4.312-5.969 7.525-5.347 7.14.621-.384 6.77-7.595 13.665-16.026 6.895-8.43 13.22-15.894 14.054-16.587 2.325-1.929 3.815-.345 3.066 3.258-.613 2.952-.56 3.03.828 1.2 1.454-1.916 1.56-1.897 5.25.917l3.766 2.873-2.259 1.828-2.258 1.83 3.106-.622c6.448-1.29 6.435-1.273-29.894 37.093-12.375 13.07-29.475 31.297-38 40.507a6770.706 6770.706 0 0 1-27.25 29.255C94.287 248.106 89 253.982 89 254.282c0 .577 2.476-2.016 27.05-28.323zM217.2 139.8c-1.21-1.21-1.684-4.8-.634-4.8 1.842 0 4.434 2.359 4.434 4.035 0 2.198-1.97 2.594-3.8.765zm34.55-1.831c1.238-.498 2.25-1.192 2.25-1.544 0-.351-.675-.38-1.5-.063-.825.316-1.5.14-1.5-.393 0-1.2 2.036-1.232 3.885-.061 1.111.703.976 1.096-.684 1.985-1.138.609-2.662 1.078-3.385 1.044-.724-.035-.303-.47.934-.968zm-42.561-5.008c-2.604-2.425-2.704-3.303-.618-5.39 2.297-2.296 3.263-1.956 4.774 1.679 2.308 5.552.016 7.598-4.156 3.711zm2.156-2.504c-.326-.849-.807-1.329-1.069-1.067-.262.262-.18.957.183 1.543.986 1.596 1.562 1.286.886-.476zm-15.742-1.597c-2.607-1.726-5.421-4.18-6.254-5.45-1.66-2.533-1.509-5.525.308-6.13 1.783-.593 14.33 11.59 13.68 13.283-.82 2.14-2.486 1.774-7.734-1.703zm2.242-2.417c-2.39-1.957-5.132-4.482-6.095-5.611-.962-1.13-1.75-1.595-1.75-1.035 0 1.248 9.832 10.203 11.203 10.203.542 0-.969-1.6-3.358-3.557zm72.705 1.743c6.189-5.3 11.627-9.342 12.029-8.94.805.805-9.642 9.754-11.387 9.754-.93 0-1.197-.338-.642-.814zm-67.521-1.147c-.81-.512-1.21-1.19-.893-1.509.319-.318 1.148.108 1.844.946 1.443 1.738 1.166 1.902-.951.563zm1.11-2.072c-1.75-1.458-1.953-1.967-.785-1.967.867 0 2.057.9 2.646 2 1.314 2.455 1.122 2.452-1.86-.033zm68.835-2.093c5.418-4.896 8.24-6.595 7.424-4.47-.684 1.784-9.314 8.612-10.812 8.555-.597-.023.927-1.86 3.388-4.085zm-5.988-.9c-.631-1.18-1.385-1.909-1.674-1.62-.289.29-1.104-.01-1.812-.664-1.125-1.04-.702-3.37.992-5.464.617-.762 3.508 1.171 3.508 2.346 0 .747.86 1.818 1.913 2.382 2.238 1.197 2.112 4.406-.19 4.856-.873.171-2.105-.655-2.737-1.835zm.834-2.608c-1.668-1.668-2.814-2.185-3.256-1.47-.383.62-.015 1.104.842 1.104.838 0 2.026.939 2.64 2.086.614 1.147 1.393 1.808 1.732 1.47.339-.34-.542-1.775-1.958-3.19zm-74.32-.943c-1.65-1.383-4.012-3.359-5.248-4.391-3.13-2.613-1.97-5.032 2.414-5.032 2.047 0 3.2.407 2.834 1-.34.55-.086 1 .563 1 .908 0 .908.33 0 1.425-.954 1.15-.59 1.864 1.877 3.688 1.683 1.245 3.06 2.707 3.06 3.25 0 .542-1.041.007-2.314-1.189-3.2-3.007-4.568-2.742-1.686.326 2.99 3.182 2.35 3.15-1.5-.077zm-2-6.423c.34-.55-.11-1-1-1s-1.34.45-1 1c.34.55.79 1 1 1 .21 0 .66-.45 1-1zm9.107 7.418c-.88-2.294-.81-2.418 1.393-2.418 1.333 0 2 .667 2 2 0 2.373-2.523 2.684-3.393.418zm5.472-.002c.048-1.165.285-1.402.604-.604.289.722.253 1.584-.079 1.917-.332.332-.568-.259-.525-1.313zm2 0c.048-1.165.285-1.402.604-.604.289.722.253 1.584-.079 1.917-.332.332-.568-.259-.525-1.313zm67.171-1.148c-2.183-.76-1.432-4.103 1-4.45 1.855-.263 2.208-.874 2.008-3.482-.227-2.972.002-3.204 3.794-3.845 2.705-.457 5.128-1.805 7.344-4.086 1.818-1.873 3.797-3.405 4.396-3.405 3.123 0 1.683 2.712-4.46 8.395-10.119 9.362-12.698 11.354-14.082 10.873zM280 114.5c.694-.837.803-1.5.245-1.5-.55 0-1.56.675-2.245 1.5-.694.837-.803 1.5-.245 1.5.55 0 1.56-.675 2.245-1.5zm4.667-6.166c-.779-.78-3.633.911-3.072 1.82.348.562 1.163.462 2.018-.248.79-.655 1.264-1.362 1.054-1.572zm6.981-5.242c2.194-3.132 1.16-2.533-2.702 1.566-2.277 2.417-2.652 3.126-1.104 2.092 1.288-.862 3-2.508 3.806-3.658zM269 111.607c0-1.943 2.633-2.754 3.918-1.206 1.276 1.538.425 2.599-2.085 2.599-1.008 0-1.833-.627-1.833-1.393zm-88.786-5.17c-2.95-2.066-2.854-4.437.179-4.437 2.616 0 4.067 2.355 2.822 4.58-.67 1.197-1.12 1.175-3.001-.143zm51.336-20.381c-1.495-1.653-1.598-2.293-.566-3.537.694-.836 2.36-1.519 3.702-1.519 2.15 0 2.403.386 2.127 3.242-.375 3.887-2.67 4.678-5.263 1.814zM235 84c0-.55-.477-1-1.059-1s-.78.45-.441 1c.34.55.816 1 1.059 1s.441-.45.441-1zm4.709 2.376c-1.487-1.488-.732-5.376 1.041-5.36 2.747.023 4.48 1.551 4.088 3.604-.36 1.893-3.811 3.074-5.13 1.756zM242.5 84c.34-.55.141-1-.441-1S241 83.45 241 84s.198 1 .441 1 .72-.45 1.059-1zM376 225.655c0-.19-1.012-1.202-2.25-2.25l-2.25-1.905 1.905 2.25c1.79 2.114 2.595 2.705 2.595 1.905zm-11-2c0-.19-1.012-1.202-2.25-2.25l-2.25-1.905 1.905 2.25c1.79 2.114 2.595 2.705 2.595 1.905zm-7.626-20.905c-8.069-10.037-15.8-19.375-17.18-20.75l-2.511-2.5 2.408 3.155c8.19 10.727 30.916 38.345 31.553 38.345.22 0-6.201-8.213-14.27-18.25zM361 218.696c0-.167-1.688-1.854-3.75-3.75l-3.75-3.446 3.446 3.75c3.208 3.49 4.054 4.21 4.054 3.446zM128.097 201.25c4.612-5.362 10.865-12.45 13.894-15.75 3.03-3.3 4.435-5.1 3.123-4-1.313 1.1-6.903 7.175-12.423 13.5-5.52 6.325-10.937 12.512-12.038 13.75-1.1 1.238-1.763 2.25-1.471 2.25.291 0 4.303-4.388 8.915-9.75zM354 210.687c0-.172-1.462-1.635-3.25-3.25l-3.25-2.937 2.937 3.25c2.738 3.03 3.563 3.71 3.563 2.937zm-7-7.99c0-.168-1.688-1.855-3.75-3.75l-3.75-3.447 3.446 3.75c3.208 3.49 4.054 4.21 4.054 3.446zm-11-.97c0-.149-3.938-4.086-8.75-8.75l-8.75-8.477 8.478 8.75c7.874 8.127 9.022 9.206 9.022 8.478zm4-7.03c0-.168-1.688-1.855-3.75-3.75l-3.75-3.447 3.446 3.75c3.208 3.49 4.054 4.21 4.054 3.446zm-7-8c0-.168-1.688-1.855-3.75-3.75l-3.75-3.447 3.446 3.75c3.208 3.49 4.054 4.21 4.054 3.446zm-15-3.075c0-.207-.787-.995-1.75-1.75-1.586-1.243-1.621-1.208-.378.378 1.307 1.666 2.128 2.195 2.128 1.372zM151.5 175c2.148-2.2 3.68-4 3.406-4-.275 0-2.258 1.8-4.406 4-2.148 2.2-3.68 4-3.406 4 .275 0 2.258-1.8 4.406-4zm174.5 3.696c0-.167-1.688-1.854-3.75-3.75l-3.75-3.446 3.446 3.75c3.208 3.49 4.054 4.21 4.054 3.446zm7.903-4.696c-2.319-2.75-4.44-5-4.715-5-.514 0 1.437 2.473 5.72 7.25 4.178 4.66 3.454 3.038-1.005-2.25zm-165.296-18.158c7.03-7.787 14.078-14.875 15.662-15.75 4.434-2.45 6.644-4.389 2.981-2.615-2.962 1.435-3.25 1.434-3.25-.01 0-.872.419-1.326.93-1.01.513.317 1.217.114 1.566-.45.348-.564 2.175-1.816 4.058-2.783 3.242-1.663 3.32-1.822 1.458-2.984-1.73-1.081-2.148-.877-3.482 1.702-2.02 3.905-3.938 5.082-3.15 1.933.328-1.306-.288-.527-1.368 1.733-1.08 2.259-8.077 10.922-15.548 19.25S155.093 170 155.353 170c.26 0 6.225-6.371 13.254-14.158zM318 169.696c0-.167-1.688-1.854-3.75-3.75l-3.75-3.446 3.446 3.75c3.208 3.49 4.054 4.21 4.054 3.446zm-1.646-17.446c-6.958-8.662-13.77-16.875-15.14-18.25-2.783-2.792 20.632 26.923 24.624 31.25 5.35 5.8 2.719 2.194-9.484-13zM311 161.696c0-.167-1.688-1.854-3.75-3.75l-3.75-3.446 3.446 3.75c3.208 3.49 4.054 4.21 4.054 3.446zM154.5 159c.995-1.1 1.585-2 1.31-2-.275 0-1.315.9-2.31 2-.995 1.1-1.585 2-1.31 2 .275 0 1.315-.9 2.31-2zm149.5-5.313c0-.172-1.462-1.635-3.25-3.25l-3.25-2.937 2.937 3.25c2.738 3.03 3.563 3.71 3.563 2.937zm-41.015-26.496c-.014-1.457-.15-1.484-.985-.191-1.266 1.958-1.266 3.282 0 2.5.55-.34.993-1.379.985-2.309zM237.02 62.716c-4.148-2.098-6.986-8.338-7.005-15.4-.019-7.218 1.131-10.789 4.67-14.499 5.125-5.372 14.67-4.338 19.245 2.086 2.724 3.825 3.345 14.638 1.155 20.097-2.522 6.284-5.856 9.002-11.023 8.985-2.51-.008-5.678-.579-7.042-1.269zm12.614-3.966c3.038-3.446 4.365-7.353 4.365-12.847C254 37.407 249.609 32 242.71 32c-7.939 0-13.482 13.582-9.102 22.3 2.345 4.666 5.309 6.652 9.968 6.678 2.99.016 4.603-.577 6.059-2.228zm-10.732-.367c-.848-1.022-1.486-5.21-1.734-11.388-.358-8.9-.204-9.96 1.72-11.883 1.16-1.162 3.031-2.112 4.156-2.112 2.948 0 6.948 4.407 6.993 7.705.022 1.537.28 5.575.573 8.973.46 5.338.251 6.46-1.539 8.25-2.516 2.516-8.246 2.772-10.169.455zm7.56-1.732c1.62-1.184 1.775-2.343 1.282-9.536-.583-8.517-1.713-11.115-4.832-11.115-3.035 0-4.197 3.665-3.687 11.624.614 9.564 2.79 12.278 7.236 9.027zm-28.903 4.645c-.471-1.226-.035-2.231 1.375-3.168 1.716-1.14 2.063-2.408 2.051-7.5-.019-8.58-.684-10.456-3.838-10.821-4.11-.476-3.427-3.73 1.352-6.442 6.271-3.558 6.414-3.612 8-3.003 1.224.47 1.5 2.906 1.5 13.246 0 10.906.244 12.853 1.75 13.973 1.38 1.027 1.517 1.683.646 3.11-1.627 2.669-11.859 3.15-12.836.605zM226 60c1.375-.44 1.938-.845 1.25-.9-.934-.075-1.25-3.555-1.25-13.774V31.65l-2.314 2.175c-1.273 1.196-3.047 2.174-3.941 2.174-.895 0-1.949.52-2.342 1.158-.489.79-.043.981 1.404.603 3.262-.853 3.991.981 4.352 10.949.298 8.254.125 9.367-1.663 10.718-1.994 1.507-1.994 1.508.004 1.44 1.1-.037 3.125-.428 4.5-.868z"/></svg>