<svg xmlns="http://www.w3.org/2000/svg" width="246" height="420" viewBox="0 0 246 420"><path d="M61.75 418.25c33.688-.146 88.813-.146 122.5 0 33.688.146 6.125.266-61.25.266s-94.938-.12-61.25-.266zm-55.649-9.92C4.642 407.266 4.5 389.517 4.5 208.617 4.5 28.305 4.646 9.925 6.093 8.478c1.438-1.438 12.585-1.6 114.284-1.668 61.98-.041 112.864.098 113.075.308.21.211.59 81.608.843 180.883.253 99.274.627 189.499.832 200.498l.373 19.999-5.5.783c-9.294 1.323-222.023.42-223.899-.95zm213.649-1.299L233 407l-.228-22.25-.228-22.25-.293 20.423c-.196 13.661-.679 20.888-1.458 21.826-.988 1.191-17.833 1.353-111.978 1.077C57.866 405.646 8 405.833 8 406.24c0 .87 66.002 1.35 143.5 1.041 30.25-.12 60.962-.232 68.25-.25zm2.5-3.834l6.75-.368V13.17l-6.75-.446c-12.964-.858-210.328-.046-211.226.869-.683.696-1.633 324.099-1.115 379.645l.091 9.739 39.25.261c59.688.398 165.397.373 173-.041zm-110.75-7.744c-4.8-2.651-6.4-4.19-8-7.687-2.624-5.737-16.731-23.095-19.969-24.57-1.438-.655-2.531-1.988-2.531-3.088 0-1.07-3.574-5.586-8-10.108-4.4-4.496-8-8.728-8-9.406 0-1.768-16.833-18.827-21.539-21.829-3.003-1.915-4.505-3.892-6.211-8.169-2.489-6.242-2.952-11.605-1-11.58.688.009 4.4 1.729 8.249 3.823 6.023 3.278 7.213 4.388 8.537 7.972 1.62 4.387 17.659 24.187 19.593 24.188.62 0 1.66 1.284 2.31 2.853.65 1.568 4.754 6.502 9.12 10.964 4.368 4.462 7.941 8.431 7.941 8.82 0 .617 4.147 5.63 12.947 15.649 1.345 1.532 4.591 4.105 7.213 5.718 3.456 2.127 4.995 3.816 5.6 6.147 1.143 4.414 2.588 4.541 4.1.36.868-2.399 2.844-4.547 6.215-6.754 2.718-1.78 5.186-4.004 5.485-4.944.298-.94 1.38-1.976 2.404-2.3 2.386-.758 12.684-12.45 13.168-14.95.203-1.045 1.57-2.612 3.04-3.481 3.578-2.116 12.52-12.138 13.774-15.44.553-1.452 1.62-2.641 2.373-2.641 2.436 0 15.371-16.286 19.31-24.314 2.201-4.486 3.474-5.692 9.424-8.936 10.961-5.976 12.222-5.156 8.443 5.49-3.211 9.045-3.04 8.804-8.527 11.972-4.887 2.821-20.252 18.941-21.346 22.395-.367 1.159-1.494 2.509-2.505 3-2.145 1.042-13.118 13.216-13.118 14.554 0 .5-3.038 3.954-6.75 7.676-10.606 10.633-14.345 15.124-16.332 19.615-2.103 4.755-3.57 6.208-10.006 9.91-5.788 3.328-7.975 3.2-15.412-.909zm14.5-1.757c4.019-2.408 6.215-4.608 8.156-8.17 1.46-2.681 3.524-5.584 4.584-6.45 1.061-.867 4.126-4.051 6.811-7.076 4.227-4.762 4.344-4.997.873-1.75-4.022 3.763-7.1 4.954-6.106 2.364.442-1.152.04-1.14-2.393.073-2.979 1.486-3.652 2.746-2.01 3.76.503.311 1.132 0 1.398-.69.266-.692.433-.245.372.993-.078 1.593-.582 2.1-1.727 1.737-2.93-.93-10.206 4.964-12.436 10.073-1.796 4.112-2.465 4.731-5.36 4.959-2.353.185-3.454-.214-3.809-1.38-.274-.901-.896-2.388-1.381-3.304-.587-1.107-.425-2.044.484-2.798 1.8-1.494 2.887.22 2.043 3.222-.494 1.756-.403 1.917.42.741.868-1.24 1.053-1.254 1.066-.083.008.779.253 1.179.543.888.772-.772-1.117-4.925-3.55-7.805l-2.112-2.5 1.183 2.402c1.033 2.095.97 2.32-.485 1.761-.981-.377-1.416-.233-1.057.349 1.264 2.045-.895.878-3.587-1.938-3.145-3.291-5.354-2.326-3.837 1.676.96 2.536 1.482 2.763 2.512 1.096.443-.716.275-.883-.44-.441-.635.392-1.155.312-1.155-.18 0-1.67 1.312-2.21 2.658-1.094 1.853 1.538 1.684 3.87-.28 3.87-1.351 0-1.408.258-.339 1.546.929 1.12 1.484 1.225 2.004.384.545-.882 1.171-.875 2.588.028 1.598 1.02 1.615 1.113.119.648-1.011-.314-1.742-.03-1.73.674.016.956 7.58 5.22 9.98 5.626.275.047 2.975-1.398 6-3.21zm-17.605-12.866c-.486-.787-.178-.96.941-.531 2.274.872 2.104.007-.246-1.25-1.566-.839-1.85-.71-1.576.714.443 2.313.408 2.237 1.045 2.237.307 0 .234-.526-.164-1.17zm-3.742-2.367c.874-2.279-2.514-5.642-4.536-4.501-1.185.668-2.399.194-4.545-1.775-1.619-1.486-.949-.341 1.5 2.563 4.561 5.407 6.556 6.384 7.58 3.713zm-3.574-2.046c.048-1.165.285-1.402.604-.604.289.721.253 1.584-.079 1.916-.332.332-.568-.258-.525-1.312zM99 372.622c0-.207-.787-.995-1.75-1.75-1.586-1.243-1.621-1.208-.378.378 1.307 1.666 2.128 2.195 2.128 1.372zm.176-3.372c-1.078-1.512-2.995-3.65-4.26-4.75-1.265-1.1-.543.138 1.604 2.75 4.298 5.23 5.723 6.303 2.656 2zm47.387-1.5l2.937-3.25-3.25 2.937c-1.788 1.615-3.25 3.078-3.25 3.25 0 .773.825.092 3.563-2.937zM96 368.703c0-.163-1.913-2.076-4.25-4.25L87.5 360.5l3.953 4.25c3.676 3.952 4.547 4.71 4.547 3.953zm49.563-2.953l2.937-3.25-3.25 2.937c-3.03 2.738-3.71 3.563-2.937 3.563.172 0 1.635-1.462 3.25-3.25zm-56.565-1.252c-2.675-2.76-3.135-3.76-2.171-4.725.964-.964 1.694-.934 3.448.144l2.225 1.366-1.99-2.391c-1.093-1.316-2.062-2.536-2.152-2.711-.09-.176-1.082.254-2.205.955-1.734 1.084-2.388.981-4.347-.68L79.5 354.5l1.966 2.5c2.8 3.56 9.86 11 10.438 11 .269 0-1.04-1.576-2.906-3.502zM151.5 362c.995-1.1 1.585-2 1.31-2-.275 0-1.315.9-2.31 2-.995 1.1-1.585 2-1.31 2 .275 0 1.315-.9 2.31-2zm2.628.25c1.243-1.586 1.208-1.621-.378-.378-.963.755-1.75 1.543-1.75 1.75 0 .823.821.294 2.128-1.372zm.367-3.254c2.136 1.772 2.925.649 1.334-1.899-1.415-2.265-3.829-2.84-3.829-.911 0 .652-1.012 2.34-2.25 3.75l-2.25 2.564 2.72-2.397c2.278-2.006 2.974-2.187 4.275-1.107zM162 353.5c1.866-1.925 3.167-3.5 2.892-3.5-.275 0-2.026 1.575-3.892 3.5s-3.167 3.5-2.892 3.5c.275 0 2.026-1.575 3.892-3.5zm-82.514-3.735c-6.474-7.076-7.027-7.609-5.39-5.19 2.376 3.51 9.38 11.257 9.805 10.845.22-.214-1.766-2.759-4.415-5.655zm85.987-1.035c.466.423.503.174.083-.554-.47-.812.116-2.262 1.514-3.75 1.253-1.334 2.055-2.426 1.782-2.426-.273 0-3.13 3.038-6.35 6.75-3.908 4.508-4.528 5.498-1.864 2.98 2.193-2.074 4.37-3.424 4.835-3zM80 353.687c0-.172-1.462-1.635-3.25-3.25L73.5 347.5l2.937 3.25c2.738 3.03 3.563 3.71 3.563 2.937zm6 0c0-.172-1.462-1.635-3.25-3.25L79.5 347.5l2.937 3.25c2.738 3.03 3.563 3.71 3.563 2.937zM163 346c2.859-3.3 4.973-6 4.698-6-.275 0-2.84 2.7-5.698 6-2.859 3.3-4.973 6-4.698 6 .275 0 2.84-2.7 5.698-6zm-91.012-1.513c-1.82-1.937-2.09-2.785-1.177-3.698.913-.913 2.03-.394 4.866 2.263 2.025 1.896 1.046.41-2.176-3.302-3.22-3.712-6.08-6.75-6.353-6.75-.273 0 .594 1.161 1.928 2.58 2.373 2.527 2.384 2.61.485 3.999-1.885 1.379-1.86 1.5.937 4.42 1.582 1.65 3.095 3.001 3.363 3.001.268 0-.575-1.131-1.873-2.513zM169.5 345c.995-1.1 1.585-2 1.31-2-.275 0-1.315.9-2.31 2-.995 1.1-1.585 2-1.31 2 .275 0 1.315-.9 2.31-2zm3.468-3.75c-.069-1.626-2.894-4.414-3.865-3.814-.648.4-.394 1.335.683 2.517 1.802 1.977 3.236 2.561 3.182 1.297zM67 338.674c0-.179-1.238-1.416-2.75-2.75L61.5 333.5l2.424 2.75c2.266 2.57 3.076 3.209 3.076 2.424zm110-2.174c1.292-1.375 2.124-2.5 1.849-2.5-.275 0-1.557 1.125-2.849 2.5-1.292 1.375-2.124 2.5-1.849 2.5.275 0 1.557-1.125 2.849-2.5zm-109 .155c0-.19-1.012-1.202-2.25-2.25L63.5 332.5l1.905 2.25c1.79 2.114 2.595 2.705 2.595 1.905zM175.5 335c.995-1.1 1.585-2 1.31-2-.275 0-1.315.9-2.31 2-.995 1.1-1.585 2-1.31 2 .275 0 1.315-.9 2.31-2zm-1.5-1.5c1.292-1.375 2.124-2.5 1.849-2.5-.275 0-1.557 1.125-2.849 2.5-1.292 1.375-2.124 2.5-1.849 2.5.275 0 1.557-1.125 2.849-2.5zm-113-1.813c0-.172-1.462-1.635-3.25-3.25L54.5 325.5l2.937 3.25c2.738 3.03 3.563 3.71 3.563 2.937zm3 .01c0-.168-1.688-1.856-3.75-3.75L56.5 324.5l3.446 3.75c3.208 3.49 4.054 4.21 4.054 3.446zm117-3.197c1.292-1.375 2.124-2.5 1.849-2.5-.275 0-1.557 1.125-2.849 2.5-1.292 1.375-2.124 2.5-1.849 2.5.275 0 1.557-1.125 2.849-2.5zm2.5.5c.995-1.1 1.585-2 1.31-2-.275 0-1.315.9-2.31 2-.995 1.1-1.585 2-1.31 2 .275 0 1.315-.9 2.31-2zm-118.5.696c0-.167-1.688-1.854-3.75-3.75L57.5 322.5l3.446 3.75c3.208 3.49 4.054 4.21 4.054 3.446zM183.805 324c.657 0 1.21.563 1.227 1.25.017.688 1.077.063 2.355-1.387s3.327-3.175 4.554-3.831c1.227-.657 1.97-1.454 1.653-1.771-.317-.317-.018-1.267.665-2.111 1.032-1.275.988-1.38-.259-.617-.825.504-2.337.78-3.36.61-1.129-.185-1.596.119-1.19.776.367.594.229 1.081-.308 1.081-.536 0-1.202-.562-1.48-1.25-.301-.747-.536-.545-.583.5-.043.963-.417 1.75-.829 1.75s-2.742 2.363-5.178 5.25c-2.557 3.032-3.167 4.088-1.445 2.5 1.64-1.512 3.52-2.75 4.178-2.75zm1.738-1.93c-.317-.513-.193-1.168.274-1.457.467-.289.85.13.85.931 0 1.686-.316 1.833-1.124.525zm5.457-4.13c0-.582.45-.78 1-.441.55.34 1 .816 1 1.059s-.45.441-1 .441-1-.477-1-1.059zm-135.469 2.094c-1.514-1.673-2.114-1.81-3.433-.781-1.354 1.056-1.424 1.017-.454-.254.878-1.15.734-2.54-.616-5.964-1.466-3.72-2.735-5.005-7.608-7.703-3.216-1.78-5.963-3.124-6.103-2.983-.14.14.83 2.93 2.156 6.202 1.826 4.504 3.335 6.53 6.219 8.35 2.094 1.32 3.966 2.808 4.16 3.306.194.497 1.297 1.785 2.452 2.86 1.855 1.728 2.273 1.784 3.581.476 1.308-1.309 1.267-1.718-.354-3.51zm141.995-3.842c-.307-.308-1.114 0-1.793.683-.98.988-.865 1.102.56.56.986-.376 1.541-.935 1.233-1.243zm-7.51-2.193c.035 1.179.264 1.123 1.069-.258.563-.967.747-2.204.41-2.75-.337-.546-.084-.992.563-.992.704 0 .99.97.712 2.422-.441 2.308-.355 2.352 1.8.94 2.045-1.34 2.36-1.31 3.272.32.563 1.006 1.372 1.414 1.833.923.454-.483.263-1.08-.425-1.325-1.795-.641-1.54-3.8.437-5.408 1.46-1.187 1.608-1.158 1.096.211-.352.94-.06 1.584.717 1.584.72 0 1.08-.6.798-1.334-.282-.733.024-1.333.678-1.333 1.804 0 .662-2.29-1.285-2.575-.935-.137-1.459.141-1.164.619.295.477-.626 1.63-2.046 2.56-1.945 1.275-2.867 1.41-3.732.545-1.75-1.75-2.408-1.436-4.667 2.219-2.022 3.27-3.025 6.638-1.082 3.632.862-1.333.974-1.333 1.015 0zm6.379-8.17c-.47-.76-.2-.969.774-.595.875.335 1.498.012 1.498-.776 0-1.008-.474-1.098-1.862-.355-1.587.85-1.72 2.896-.187 2.896.275 0 .175-.526-.223-1.17zM204.5 302c.34-.55.141-1-.441-1s-1.059.45-1.059 1 .198 1 .441 1 .72-.45 1.059-1zm-144 2.602c-4.51-1.616-6.076-2.68-6.307-4.282-.255-1.766.643-2.49 5.209-4.197 8.573-3.208 9.918-3.363 15.818-1.822 3.756.98 9.641 1.36 18.4 1.185 15.711-.314 13.896-.317 25.357.049 5.212.166 9.937.015 10.5-.337.563-.351 7.665-.496 15.784-.322 11.992.258 15.654-.004 19.52-1.394 4.715-1.696 4.829-1.686 12.539 1.05 6.532 2.32 7.732 3.087 7.48 4.785-.223 1.505-2.067 2.65-7.22 4.48-6.63 2.357-7.215 2.403-14 1.1-3.894-.749-11.355-1.289-16.58-1.2-5.225.088-22.55.243-38.5.343-21.592.136-30.022.533-33 1.557-5.19 1.783-7.717 1.615-15-.995zm7-.602c-2.75-1.181-4.328-1.181-2.5 0 .825.533 2.175.945 3 .914.99-.036.819-.347-.5-.914zm10.334-.876c1.067-.677 1.007-.971-.302-1.473-1.087-.417-1.396-.24-.92.53.485.785.153.943-1.03.489-.96-.369-2.145-.67-2.632-.67-.488 0-.628-.675-.312-1.5.317-.825.078-1.5-.531-1.5S71 298.1 71 297c0-1.442-.628-1.968-2.25-1.884-1.604.083-1.764.244-.555.563 2.094.552 1.244 3.293-1.052 3.391-1.379.06-1.35.186.181.79 1.003.395 1.764 1.15 1.691 1.679-.247 1.788 6.567 3.012 8.819 1.585zm97.294-1.25c3.208-1.17 5.602-2.503 5.319-2.96-.284-.459-2.962-1.605-5.952-2.547-4.378-1.38-5.94-1.485-8.013-.54-1.538.7-8.706 1.253-17.78 1.37l-15.202.198 11 .553c6.05.303 10.887.89 10.75 1.302-.663 1.989-.04 2.75 2.25 2.75 1.375 0 2.507-.563 2.515-1.25.012-.916.212-.941.752-.093.58.913 4.2 2.36 8.13 3.253.219.05 3.023-.867 6.23-2.037zm-111.635.137c.35-.566-.051-.734-.941-.393-1.732.665-2.05 1.382-.611 1.382.518 0 1.216-.445 1.552-.989zM109.5 302c.34-.55.184-1-.347-1-.531 0-.73-.9-.443-2 .293-1.118.031-2-.593-2-.615 0-1.117 1.35-1.117 3 0 2.946 1.282 3.971 2.5 2zm-49.833-1.5c0-1.664-1.236-2.006-2.114-.585-.311.503 0 1.142.69 1.42.692.28 1.294.543 1.34.586.046.043.084-.596.084-1.421zm26.963.353c-1.51-.877-1.606-1.254-.5-1.955.917-.58.13-.872-2.38-.883-3.088-.012-3.75.338-3.75 1.985 0 1.691.657 1.995 4.25 1.97 3.547-.026 3.94-.21 2.38-1.117zm6.62.485c-.688-.278-1.813-.278-2.5 0-.688.277-.125.504 1.25.504s1.938-.227 1.25-.504zm9.014-.042c-1.23-.237-3.48-.243-5-.014-1.52.23-.514.424 2.236.432 2.75.007 3.994-.18 2.764-.418zm22.486-.031c-2.612-.206-6.888-.206-9.5 0s-.475.374 4.75.374 7.362-.168 4.75-.374zm17.892-.012c-10.224-.304-10.827-.437-10.343-2.288.283-1.08.158-1.965-.276-1.965-.434 0-1.005 1.125-1.268 2.5l-.478 2.5 11.612-.212 11.611-.213zm-77.913-1.857c-.332-.333-1.195-.368-1.917-.08-.797.32-.56.557.605.605 1.054.043 1.644-.193 1.312-.525zm28 0c-.332-.333-1.195-.368-1.917-.08-.797.32-.56.557.605.605 1.054.043 1.644-.193 1.312-.525zm5 0c-.332-.333-1.195-.368-1.917-.08-.797.32-.56.557.605.605 1.054.043 1.644-.193 1.312-.525zm5.521-.058c-.688-.278-1.813-.278-2.5 0-.688.277-.125.504 1.25.504s1.937-.227 1.25-.504zm21.5-.073c-2.613-.206-6.888-.206-9.5 0-2.613.206-.475.374 4.75.374s7.362-.168 4.75-.374zm23 0c-2.612-.206-6.888-.206-9.5 0s-.475.374 4.75.374 7.362-.168 4.75-.374zm-81.705-2.619c-.47-.471-1.661-.4-2.659.158-1.553.87-1.434.988.853.853 1.468-.087 2.277-.54 1.806-1.01zm11.035.228c-1.386-.536-2.793-.56-3.296-.058-.503.503.53.902 2.42.935 3.085.055 3.14-.002.876-.877zm26.67.437c-.963-.252-2.538-.252-3.5 0-.963.251-.175.457 1.75.457s2.712-.206 1.75-.457zm21.53-.042c-2.32-.21-6.37-.212-9-.006-2.629.207-.73.379 4.22.382 4.95.003 7.101-.166 4.78-.376zm-64.014-8.926c-7.174-2.478-7.247-2.54-8.659-7.293-.782-2.636-2.2-6.297-3.15-8.133-1.626-3.145-1.629-3.634-.042-8.379 1.498-4.478 1.643-9.598 1.307-46.038-.284-30.794-.714-42.028-1.725-45.131-1.26-3.866-1.157-4.638 1.607-11.98 2.91-7.73 3.028-7.875 7.925-9.66 2.734-.996 6.46-2.502 8.28-3.345 2.999-1.39 3.806-1.377 8.631.141 4.858 1.528 20.292 2.385 31.56 1.752 1.925-.108 7.775-.243 13-.3 5.225-.058 10.625-.147 12-.2 1.375-.051 9.09.019 17.144.156 9.155.157 15.41-.159 16.685-.841 3.303-1.768 8.245-1.211 14.998 1.69l6.327 2.718 3.016 7.5c2.768 6.883 2.922 7.87 1.862 12-2.436 9.492-2.91 16.148-2.529 35.5.216 11 .359 21.125.317 22.5-.5 16.22.08 28.185 1.586 32.717 1.91 5.752 1.59 7.873-2.452 16.216l-2.78 5.74-8.12 2.312c-6.8 1.936-8.724 2.133-11.837 1.21-2.455-.728-18.237-1.1-46.493-1.095-34.749.006-43.546.279-46.876 1.454-2.255.795-4.155 1.41-4.224 1.367-.068-.043-3.38-1.204-7.358-2.578zm12.504-1.762c2.362-.833 5.715-1.191 8.126-.868 3.675.493 4.104.331 4.104-1.545 0-1.962.623-2.116 9.75-2.422 8.124-.273 7.376-.362-4.486-.537-7.83-.115-16.2-.735-18.602-1.377-3.657-.978-5.043-.897-8.534.5-5.751 2.301-6.84 2.125-8.665-1.404-1.253-2.423-1.334-3.378-.383-4.524 1.336-1.61 1.145-2.05-1.11-2.559-2.55-.575-2.543.414.046 6.337 2.39 5.467 2.712 5.76 8.484 7.707 7.298 2.463 6.406 2.408 11.27.692zm5.699-2.631c-.368-.596-.4-1.353-.07-1.683.33-.33.608.037.616.816.013 1.167.187 1.152.985-.083.582-.901.975-1.025.985-.309.021 1.684-1.716 2.553-2.516 1.259zm3.61-.533c.048-1.165.285-1.402.604-.604.289.721.253 1.584-.079 1.916-.332.332-.568-.258-.525-1.312zM171 285.614c0-2.07.611-2.479 4.592-3.075 2.525-.38 4.85-.43 5.166-.114.317.316.099.575-.484.575s-1.312.658-1.621 1.462c-.462 1.204.073 1.16 3.036-.25 2.795-1.33 3.175-1.791 1.704-2.068-1.041-.196-3.78-1.209-6.088-2.25-2.307-1.042-5.134-1.894-6.282-1.894-2.9 0-4.186 3.821-2.27 6.745 1.377 2.102 1.33 2.255-.697 2.255-1.196 0-1.925-.403-1.62-.895.603-.977-2.394-2.48-3.246-1.629-.288.288.028.524.702.524.674 0 .972.412.66.915-.665 1.077 1.048 1.896 4.198 2.006 1.727.06 2.25-.476 2.25-2.307zm-.362-5.114c-.405-1.058.079-1.495 1.643-1.485 1.846.013 1.967.196.719 1.087-1.205.86-1.058.975.75.578 1.238-.27 2.25-.085 2.25.414 0 1.529-4.749 1.003-5.362-.594zm-62.178 4.375c-.397-1.252-.185-2.427.517-2.86.858-.531.748-.907-.393-1.344-1.258-.483-1.584.106-1.584 2.86 0 1.908.48 3.469 1.067 3.469.634 0 .793-.864.393-2.125zM176 286c-.825-.533-1.95-.97-2.5-.97s-.325.437.5.97c.825.533 1.95.97 2.5.97s.325-.437-.5-.97zm-14.74-2.114c-.469-1.793-.227-2.01 1.594-1.432 1.594.506 2.146.263 2.146-.946 0-.894.45-1.348 1-1.008.55.34 1 .141 1-.441 0-1.343-2.678-1.388-3.5-.059-.34.55-2.616 1-5.059 1-3.718 0-4.441.314-4.441 1.927 0 1.06-.787 2.132-1.75 2.384-.963.251.795.51 3.906.573 5.29.108 5.621-.02 5.104-1.998zm-59.98-.617c-2.32-.21-6.37-.212-9-.006-2.629.207-.73.379 4.22.382 4.95.003 7.101-.166 4.78-.376zm23.47-.004c-2.612-.206-6.887-.206-9.5 0-2.612.206-.475.375 4.75.375s7.363-.169 4.75-.375zm23 0c-2.612-.206-6.888-.206-9.5 0s-.475.375 4.75.375 7.362-.169 4.75-.375zM133 281.56c0-.243-.45-.72-1-1.059-.55-.34-1-.141-1 .441s.45 1.059 1 1.059 1-.198 1-.441zm55.588-7.878c1.551-4.618 1.525-5.108-.62-11.781-1.231-3.83-1.953-7.248-1.603-7.598.35-.35.635.43.635 1.731 0 1.742.295 2.072 1.116 1.251 1.921-1.921-1.11-5.2-3.866-4.181-1.238.458-2.218 1.635-2.18 2.615.062 1.56.177 1.534.93-.218 1.684-3.92 1.083 4.716-.643 9.235-1.588 4.158-1.564 4.502.716 10.243 2.566 6.46 2.94 6.372 5.515-1.297zm-131.15 3.569c-.462-2.118-.355-2.405.466-1.25 1.265 1.78 1.45.107.206-1.857-1.268-2.001-2.446.384-1.685 3.414.846 3.37 1.755 3.094 1.013-.307zm122.8-2.462c-1.417-3.938-1.494-5.52-.509-10.464.773-3.88 1.131-19.137 1.074-45.73-.072-33.148-.349-40.726-1.639-44.76-1.471-4.6-1.442-5.115.556-9.844 1.16-2.745 2.002-4.99 1.872-4.99-.13 0-2.294.701-4.81 1.558-4.138 1.41-5.082 1.41-9.927.004-7.813-2.268-82.891-2.006-90.15.316-4.39 1.403-5.404 1.397-11.02-.072-3.402-.89-6.303-1.503-6.448-1.365-.145.139.457 1.977 1.338 4.084 1.117 2.673 1.387 5.064.895 7.904-.388 2.24-.896 22.296-1.128 44.571-.36 34.57-.19 41.452 1.164 47 1.437 5.895 1.44 6.91.029 10.906-.856 2.424-1.382 4.58-1.17 4.793.213.213 2.017-.39 4.008-1.34 3.402-1.622 3.94-1.625 8.92-.055 4.624 1.457 10.588 1.655 46.753 1.553 32.572-.092 42.177-.41 44.826-1.487 4.39-1.783 7.711-1.632 12.628.572 2.2.986 4.091 1.724 4.203 1.64.112-.085-.548-2.242-1.465-4.794zm-122.268-4.75c2.077-1.314.53-2.45-3.52-2.585-5.292-.175-4.357 2.87 1.049 3.415.55.055 1.662-.318 2.471-.83zM54 268.941c0-.582.45-.78 1-.441.55.34 1 .816 1 1.059s-.45.441-1 .441-1-.477-1-1.059zm6.24-4.475c-.875-1.564-.988-1.566-1.58-.024-.374.977-.23 1.41.351 1.05.544-.335.989-.058.989.616s.266.96.592.634c.325-.326.167-1.35-.351-2.276zm-4.557-.653c-.32-.798-.556-.561-.604.604-.043 1.054.193 1.644.525 1.312.332-.332.368-1.195.08-1.916zm-1.094-4.545c.698-.697 1.75-1.268 2.34-1.268.606 0 1.037-1.845.992-4.25-.043-2.337-.306-3.687-.583-3-.278.688-1.381 1.25-2.453 1.25-1.554 0-1.925.656-1.833 3.25.063 1.788-.153 4.375-.48 5.75-.327 1.375-.292 1.833.078 1.018s1.242-2.053 1.94-2.75zm129.094-9.455c-.32-.798-.556-.561-.604.604-.043 1.054.193 1.644.525 1.312.332-.332.368-1.195.08-1.917zm4.052-12.563c-.206-2.612-.375-.475-.375 4.75s.169 7.362.375 4.75.206-6.888 0-9.5zM56 241.941c0-5.022-.37-7.83-.983-7.452-.553.342-.806 3.535-.58 7.31.51 8.49.472 8.201 1.063 8.201.275 0 .5-3.627.5-8.059zm-3.267-4.165c-.21-2.352-.387-.676-.39 3.724-.004 4.4.169 6.324.384 4.276s.218-5.648.006-8zm132.997 1.496c-.217-2.074-.397-.622-.402 3.228-.004 3.85.173 5.548.394 3.772.22-1.775.224-4.925.008-7zm-128.037.997c-.254-.973-.478-.419-.498 1.231-.02 1.65.187 2.446.46 1.769.275-.677.292-2.027.038-3zm.307-9.402c0-.349-1.125-.849-2.5-1.112-1.454-.278-2.5-.013-2.5.634 0 .61 1.125 1.111 2.5 1.111s2.5-.285 2.5-.633zm130-.367c0-.924-.938-1.5-2.441-1.5-3.482 0-4.128 1.783-.826 2.282 1.522.23 2.88.486 3.017.568.138.083.25-.525.25-1.35zm-130.338-4.75c-.277-.688-.504-.125-.504 1.25s.227 1.938.504 1.25c.278-.688.278-1.813 0-2.5zm-4.931-12.03c-.21-2.321-.38-.17-.376 4.78.003 4.95.175 6.849.381 4.22.207-2.63.204-6.68-.005-9zM56 219c0-4.4-.338-8-.75-8-.412-.001-.665 2.361-.56 5.25.104 2.887.217 6.487.25 8 .033 1.512.285 2.75.56 2.75.275 0 .5-3.6.5-8zm131.735-5.75c-.206-2.612-.375-.475-.375 4.75s.169 7.362.375 4.75.206-6.888 0-9.5zm-2.073 8.5c-.277-.688-.504-.125-.504 1.25s.227 1.938.504 1.25c.278-.688.278-1.813 0-2.5zm-127.979-1.938c-.32-.797-.556-.56-.604.605-.043 1.054.193 1.644.525 1.312.332-.332.368-1.195.08-1.917zm128-5c-.32-.797-.556-.56-.604.605-.043 1.054.193 1.644.525 1.312.332-.332.368-1.195.08-1.917zm-128-3c-.32-.797-.556-.56-.604.605-.043 1.054.193 1.644.525 1.312.332-.332.368-1.195.08-1.917zm.134-11.562l-.184-9.75-.566 8c-.483 6.811-.827 7.98-2.317 7.861-.963-.076-1.75.155-1.75.513 0 .543.903 1.114 4.75 3.003.138.068.167-4.265.067-9.627zM184.5 207c.34-.55.141-1-.441-1s-1.059.45-1.059 1 .198 1 .441 1 .72-.45 1.059-1zm3.5 0c0-.55-.45-1-1-1s-1 .45-1 1 .45 1 1 1 1-.45 1-1zM52.735 190.25c-.206-2.612-.375-.475-.375 4.75s.169 7.362.375 4.75.206-6.888 0-9.5zM56 195.5c0-5-.412-8.5-1-8.5-1.109 0-1.42 15.247-.333 16.333 1.238 1.24 1.333.684 1.333-7.833zm131.732-3.75c-.21-2.337-.383-.425-.383 4.25s.173 6.588.383 4.25c.21-2.337.21-6.162 0-8.5zm.086-9.667c.26-2.63-.007-3.147-1.5-2.892-2.982.507-4.43 2.513-3.756 5.2.935 3.725 4.827 2.015 5.256-2.308zm-130.376-.604c-.17-2.553.318-5.708 1.122-7.25 1.848-3.543 1.811-4.183-.542-9.37-1.088-2.397-1.988-5.424-2-6.726-.022-2.389.02-2.397 4.978-.91.825.247 1.162.26.75.03-.413-.23-.75-1.11-.75-1.953 0-1.08.71-1.397 2.409-1.073 1.734.332 2.263.081 1.888-.894-.367-.958.001-1.156 1.256-.674 1.216.466 1.547.312 1.052-.49-.402-.65-.179-1.169.503-1.169.674 0 .967-.259.65-.575-.315-.316-3.518.845-7.116 2.58l-6.541 3.155-2.386 7.358c-2.123 6.546-2.239 7.709-1.05 10.535.734 1.747 1.335 4.973 1.335 7.169 0 3.099.328 3.866 1.468 3.429.807-.31 1.734-.133 2.059.393 1.052 1.702 1.223 1.038.915-3.565zm126.643-4.926c.503.31.922-.474.93-1.744.022-3.2 1.066-4.53 3.985-5.072 1.855-.345 1.534-.5-1.244-.6-3.725-.136-3.741-.156-3.273-3.887.33-2.637.185-3.305-.491-2.25-.855 1.333-.97 1.333-1.04 0-.043-.825-.524-.383-1.069.982-.675 1.692-.655 2.594.063 2.833 1.598.533 1.26 2.185-.446 2.185-1.985 0-1.926 1.9.084 2.67.972.374 1.18.858.537 1.255-.575.356-.759 1.744-.408 3.085.35 1.341.822 1.885 1.048 1.208.225-.677.821-.976 1.324-.665zm3.945-11.132c.561-1.477.615-3.234.124-4.11-.755-1.349-.931-1.333-1.494.131-.374.977-.23 1.41.351 1.05 1.237-.763 1.239-.279.014 2.943-.537 1.41-.75 2.565-.476 2.565.275 0 .942-1.16 1.481-2.58zm-116.76-6.077c-.677-.274-2.027-.29-3-.037-.973.254-.419.478 1.231.498 1.65.02 2.446-.187 1.769-.461zm4.46.052c-.332-.332-1.195-.368-1.917-.079-.797.32-.56.556.605.604 1.054.044 1.644-.193 1.312-.525zm110.456-.782c.645.399.626-.098-.05-1.363-1.762-3.292-11.346-6.618-16.912-5.87-2.598.349-21.823.713-42.723.809-20.9.095-33.867.333-28.815.529 8.276.32 9.217.553 9.5 2.357.32 2.036 2.211 2.752 2.44.924l.25-2c.074-.595 4.375-1 10.625-1 9.833 0 10.5.127 10.5 2 0 1.1.408 2 .906 2 .499 0 .671-.9.384-2-.501-1.915-.031-2 11.093-2 10.81 0 11.617.134 11.617 1.93 0 1.609.708 1.926 4.25 1.904 2.337-.015 6.363.537 8.947 1.226 4.06 1.083 5.31 1.018 9.226-.477 4.808-1.836 6.528-1.52 6.656 1.226.049 1.051.27 1.216.585.435.279-.691.963-.974 1.521-.63zm-108.518-.977c0-.877-.724-1.173-2.03-.832-1.985.52-1.987.548-.083 1.293 1.07.419 1.984.793 2.03.832.045.038.083-.543.083-1.293zm-4.938-.241c-.332-.332-1.195-.368-1.916-.08-.798.32-.561.557.604.605 1.054.043 1.644-.193 1.312-.525zm14.348-2.646c-.592-1.551-1.555-2.169-3.101-1.988-1.234.144-2.745-.142-3.36-.635-.613-.493-2.466-1.103-4.116-1.357-1.65-.253-2.372-.26-1.605-.014 1.194.382 1.194.58 0 1.376-.958.638-.587.742 1.186.332 1.95-.45 3.173.027 5 1.953 1.33 1.401 3.417 2.556 4.637 2.566 1.89.014 2.09-.316 1.359-2.233zm63.203 1.52c-2.32-.21-6.37-.213-9-.007-2.629.207-.73.379 4.22.382 4.95.003 7.101-.166 4.78-.376zm-76.445-1.147c1.004-.636.786-.989-.88-1.425-1.494-.39-2.02-1.086-1.616-2.138.329-.858.162-1.56-.37-1.56-.533 0-.969.9-.969 2 0 1.211-.69 2.028-1.75 2.07-1.496.06-1.46.195.25.93 2.616 1.124 3.716 1.15 5.335.123zm50.415-.855c-2.337-.21-6.162-.21-8.5 0-2.337.21-.425.383 4.25.383s6.588-.173 4.25-.383zm25.03 0c-2.32-.209-6.37-.211-9-.005-2.629.206-.73.378 4.22.381 4.95.003 7.101-.166 4.78-.376zM62.5 141.963c-9.928-3.97-9.663-3.79-8.57-5.831.553-1.033 3.985-3.145 7.627-4.693 6.585-2.798 6.657-2.805 12.513-1.236 4.837 1.296 10.324 1.507 30.66 1.18 13.624-.218 31.985-.358 40.803-.31 12.735.068 16.884-.255 20.169-1.57 4.285-1.714 6.023-1.357 19.548 4.017.963.382 1.75 1.488 1.75 2.458 0 1.29-1.992 2.47-7.407 4.393-8.445 2.998-10.978 3.197-15.72 1.235-5.205-2.154-82.47-2.125-88.269.032-6.492 2.415-7.796 2.448-13.104.325zm11-2.433c2.2-.793 5.96-1.461 8.357-1.485 3.452-.035 4.237-.356 3.781-1.544-.316-.825-.027-1.529.643-1.563.67-.035.148-.492-1.16-1.016-1.547-.619-2.806-.597-3.6.061-.844.7-2.98.408-6.921-.948l-5.7-1.96-5.2 2.335c-2.86 1.285-5.875 2.555-6.7 2.824-.825.268 1.425 1.425 5 2.571 7.89 2.53 6.7 2.454 11.5.725zm93.5.47c-1.235-.798-1.25-.972-.083-.985.779-.008 1.21-.222.956-.475-.253-.254-1.542-.178-2.863.168-2.235.584-2.267.681-.456 1.39 2.795 1.094 4.203 1.037 2.446-.098zm4.245-1.5c-.367-1.92-.045-2.527 1.388-2.616 1.677-.104 1.689-.163.117-.573-2.501-.654-2.163-3.092.5-3.605 1.238-.239.09-.495-2.55-.57-2.66-.075-6.147.56-7.823 1.427-1.908.987-4.103 1.327-5.953.92-2.455-.539-3.07-.266-3.802 1.687-.754 2.015-.517 2.406 1.753 2.893 3.248.697 5.125.125 5.125-1.563 0-.707.675-1.545 1.5-1.862.825-.316 1.5-.204 1.5.249 0 .453 1.462 1.254 3.25 1.78 2.113.623 3.201 1.548 3.111 2.645-.076.929.424 1.688 1.111 1.688.795 0 1.076-.912.773-2.5zM156 135.833c0-.458.675-.833 1.5-.833s1.5.375 1.5.833c0 .459-.675.834-1.5.834s-1.5-.375-1.5-.834zm11.015-1c-.008-.916-.577-1.893-1.265-2.17-.688-.278-.237-.54 1-.584 2.448-.086 2.745.608 1.25 2.921-.838 1.297-.971 1.275-.985-.167zm12.451 3.482c3.702-1.766 4.625-3.315 1.975-3.315-.857 0-1.28.45-.941 1 .589.953-.674 1.396-3.136 1.1-.625-.074-1.399.548-1.719 1.382-.73 1.905-.503 1.895 3.821-.167zM109 137.582c0-.78.273-2.13.607-3 .398-1.038.054-1.582-1-1.582-1.119 0-1.607.911-1.607 3 0 1.65.45 3 1 3s1-.638 1-1.418zm23.644-2.083c.08-1.374-.258-2.499-.75-2.499s-.894 1.125-.894 2.5c0 3.258 1.456 3.257 1.644 0zm14.132-.226c-2.048-.215-5.648-.218-8-.007-2.352.211-.676.387 3.724.39 4.4.005 6.324-.168 4.276-.383zm-20.008-1.988c-1.503-.228-4.203-.232-6-.01-1.797.223-.568.41 2.732.415 3.3.006 4.77-.176 3.268-.405zm20.982-.02c-2.613-.206-6.888-.206-9.5 0-2.613.206-.475.375 4.75.375s7.362-.169 4.75-.375zm32.25.352c0-.211-.9-.62-2.001-.907-1.101-.288-1.75-.115-1.441.383.538.871 3.442 1.313 3.442.524zm20.588 2.33c-7.362-3.649-8.953-5.08-11.44-10.293-2.148-4.503-18.024-23.009-20.58-23.99-.862-.33-1.568-1.224-1.568-1.984 0-1.784-11.61-14.97-13.956-15.85-.983-.369-2.051-1.723-2.374-3.01-.737-2.936-16.909-19.729-21.853-22.693-2.813-1.686-4.072-3.379-5.33-7.167-.906-2.728-1.962-4.96-2.347-4.96s-1.565 2.23-2.623 4.956c-1.536 3.958-3.173 5.874-8.128 9.512-6.933 5.09-17.784 16.81-19.33 20.877-.555 1.46-1.596 2.655-2.312 2.655-1.609 0-10.863 10.39-13.09 14.696-.9 1.74-2.427 3.441-3.396 3.783-.969.34-4.236 3.765-7.261 7.61-3.025 3.843-6.677 8.434-8.115 10.2-1.438 1.766-2.956 4.336-3.372 5.711-1.117 3.686-2.058 4.56-8.54 7.934-5.61 2.92-9.986 3.937-9.962 2.316.023-1.593 2.905-10.187 4.36-12.999.84-1.625 2.787-3.767 4.328-4.76 3.76-2.425 16.525-15.742 20.005-20.871 1.538-2.266 3.203-4.293 3.7-4.504 1.526-.65 11.003-11.085 12.65-13.931.855-1.477 4.833-6.024 8.84-10.105s7.706-8.356 8.221-9.5c.515-1.144 1.937-3.493 3.16-5.22 1.224-1.727 2.958-4.48 3.853-6.118 2.285-4.181 14.274-10.542 18.372-9.747 5.935 1.152 13.849 6.773 16.247 11.54 2.484 4.936 4.019 7.01 12.624 17.054 3.229 3.77 6.716 7.121 7.75 7.45 1.033.327 1.879 1.279 1.879 2.113 0 1.976 11.674 15.11 14.12 15.886 1.034.328 1.88 1.289 1.88 2.135 0 3.115 16.128 20.331 21.717 23.183 3.332 1.7 4.626 3.28 7.218 8.818 3.033 6.482 3.675 11.377 1.565 11.937-.55.146-3.66-1.053-6.912-2.665zm6.174-.697c-.49-1.03-2.292-5.005-4.334-9.554-1.224-2.727-3.012-4.473-6.317-6.167-2.536-1.3-5.404-3.313-6.374-4.473-1.45-1.734-2.014-1.882-3.166-.833-1.191 1.084-1.046 1.654.96 3.777 1.3 1.375 3.025 4.084 3.833 6.02 1.787 4.278 3.638 5.979 10.136 9.318 5.657 2.906 5.75 2.94 5.262 1.912zm-160.655-4.326c2.452-1.746 2.68-2.293 1.644-3.95-.946-1.515-.926-2.195.091-3.199 1.05-1.035 1.562-.91 2.725.666.788 1.068 1.433 1.442 1.433.832s.234-1.719.52-2.464c.301-.785-.7-2.075-2.382-3.069-2.774-1.638-3.012-1.627-5.393.246-2.738 2.154-5.16 6.735-6.22 11.77-.676 3.205-.644 3.24 2.025 2.225 1.491-.567 3.992-1.943 5.557-3.057zM40 131.5c0-.825.436-1.5.969-1.5.532 0 .71.675.393 1.5-.317.825-.753 1.5-.969 1.5-.216 0-.393-.675-.393-1.5zm2-4.5c-.604-1.128-.666-2-.142-2 .51 0 1.174.64 1.474 1.422.3.783 1.586 1.621 2.857 1.864 2.082.398 2.042.455-.404.578-1.786.09-3.08-.548-3.785-1.864zm1.221-4.164c.214-.64 1.312-1.778 2.44-2.527 1.791-1.19 2.356-1.109 4.445.631 1.317 1.096 1.832 2.008 1.144 2.027-.687.018-1.25-.487-1.25-1.122 0-.691-.735-.49-1.829.5-2.092 1.893-5.53 2.234-4.95.49zm3.907-1.586c1.243-1.586 1.208-1.621-.378-.378-.963.755-1.75 1.543-1.75 1.75 0 .823.821.294 2.128-1.372zm8.043-2.905C57.141 116.563 57.63 114 56 114c-.55 0-1-.434-1-.965 0-1.378 6.157-8.211 6.81-7.558.3.299-.745 1.89-2.32 3.533-1.575 1.645-2.6 2.99-2.276 2.99.323 0 2.973-2.813 5.889-6.25 2.915-3.438 3.94-5.006 2.28-3.486-1.662 1.52-3.265 2.52-3.562 2.224-.496-.497-3.189 2.295-9.875 10.237-2.236 2.656-2.36 3.165-1 4.095 2.086 1.426 2.13 1.421 4.225-.475zM184 113.696c0-.167-1.688-1.854-3.75-3.75l-3.75-3.446 3.446 3.75c3.208 3.49 4.054 4.21 4.054 3.446zM180 106c-2.859-3.3-5.457-6-5.773-6-.569 0 1.419 2.415 7.2 8.75 5.08 5.567 4.038 3.558-1.427-2.75zm-116.5 3c.995-1.1 1.585-2 1.31-2-.275 0-1.315.9-2.31 2-.995 1.1-1.585 2-1.31 2 .275 0 1.315-.9 2.31-2zm123.5 1.622c0-.207-.787-.995-1.75-1.75-1.586-1.243-1.621-1.208-.378.378 1.307 1.666 2.128 2.195 2.128 1.372zM73.099 97.755c3.327-3.924 4.062-5.137 1.971-3.255-2.217 1.995-3.485 2.581-3.785 1.75-.806-2.23-2.715-1.3-6.206 3.018l-3.421 4.232 3.639-3.415c3.14-2.946 3.73-3.18 4.298-1.7.42 1.096-.202 2.661-1.718 4.327-1.308 1.436-1.86 2.315-1.23 1.954.631-.361 3.534-3.471 6.452-6.911zm102.901 6.9c0-.19-1.012-1.202-2.25-2.25l-2.25-1.905 1.905 2.25c1.79 2.114 2.595 2.705 2.595 1.905zm6 0c0-.19-1.012-1.202-2.25-2.25l-2.25-1.905 1.905 2.25c1.79 2.114 2.595 2.705 2.595 1.905zm-8.75-6.047c2.367-1.796 2.17-2.761-1.031-5.061-2.4-1.725-2.548-1.741-1.257-.142 1.299 1.609 1.26 1.96-.35 3.137-.997.729-1.516 1.805-1.153 2.391.85 1.376 1.64 1.308 3.791-.325zM168 95.674c0-.179-1.238-1.416-2.75-2.75L162.5 90.5l2.424 2.75c2.266 2.57 3.076 3.209 3.076 2.424zM75 92.5c1.292-1.375 2.124-2.5 1.849-2.5-.275 0-1.557 1.125-2.849 2.5-1.292 1.375-2.124 2.5-1.849 2.5.275 0 1.557-1.125 2.849-2.5zm95 2.174c0-.179-1.238-1.416-2.75-2.75L164.5 89.5l2.424 2.75c2.266 2.57 3.076 3.209 3.076 2.424zM73 91.5c1.292-1.375 2.124-2.5 1.849-2.5-.275 0-1.557 1.125-2.849 2.5-1.292 1.375-2.124 2.5-1.849 2.5.275 0 1.557-1.125 2.849-2.5zm10-5c1.866-1.925 3.167-3.5 2.892-3.5-.275 0-2.026 1.575-3.892 3.5S78.833 90 79.108 90c.275 0 2.026-1.575 3.892-3.5zm82-1c-2.429-2.475-4.641-4.5-4.916-4.5-.275 0 1.487 2.025 3.916 4.5s4.641 4.5 4.916 4.5c.275 0-1.487-2.025-3.916-4.5zm-3.134-.327c-1.851-2.105-3.56-3.673-3.798-3.485-.44.35 5.981 7.312 6.744 7.312.231 0-1.095-1.722-2.946-3.827zm-80.303-.423L84.5 81.5l-3.25 2.937C78.22 87.175 77.54 88 78.313 88c.172 0 1.635-1.462 3.25-3.25zm77.026.173c-3.003-3.569-3.17-4.498-1.026-5.698 1.394-.78 1.374-1.03-.192-2.3-1.131-.918-1.486-.978-1-.168 1.477 2.458-2.414 2.549-5.124.12l-2.651-2.377 2.452 3.015C154.637 81.928 160.255 88 160.75 88c.235 0-.737-1.385-2.161-3.077zM80 83.5c1.866-1.925 3.167-3.5 2.892-3.5-.275 0-2.026 1.575-3.892 3.5S75.833 87 76.108 87c.275 0 2.026-1.575 3.892-3.5zm10.422-5.25c2.51-3.222 2.573-3.434.443-1.507-1.912 1.73-2.75 1.972-3.665 1.057s-.68-1.771 1.027-3.743c1.408-1.626 1.007-1.424-1.1.556-2.998 2.816-3.187 3.318-1.98 5.25C85.88 81.038 86.71 82 86.99 82s1.824-1.688 3.431-3.75zm61.737-4c-1.087-1.512-3.448-4.1-5.247-5.75-2.1-1.926-1.527-.942 1.6 2.75 5.18 6.118 6.912 7.541 3.647 3zM95.066 69.5c3.233-3.694 3.51-4.216 1.063-2-1.821 1.65-4.243 4.35-5.382 6-2.447 3.545-1.582 2.744 4.32-4zM148 72.674c0-.179-1.238-1.416-2.75-2.75L142.5 67.5l2.424 2.75c2.266 2.57 3.076 3.209 3.076 2.424zm6 0c0-.179-1.238-1.416-2.75-2.75L148.5 67.5l2.424 2.75c2.266 2.57 3.076 3.209 3.076 2.424zM98 69.5c1.292-1.375 2.124-2.5 1.849-2.5-.275 0-1.557 1.125-2.849 2.5-1.292 1.375-2.124 2.5-1.849 2.5.275 0 1.557-1.125 2.849-2.5zm-4-2c1.866-1.925 3.167-3.5 2.892-3.5-.275 0-2.026 1.575-3.892 3.5S89.833 71 90.108 71c.275 0 2.026-1.575 3.892-3.5zm16.835-10.915c1.973-1.02 3.64-3.407 5.6-8.018 3.103-7.304 6.016-8.861 7.139-3.817 1.224 5.499 1.59 6.267 2.668 5.6.695-.429.874-.094.487.913-.647 1.687 1.853 4.488 2.99 3.35 1.072-1.07 1.186-3.554.192-4.168-.501-.31-.918.026-.926.746-.011.951-.28.899-.985-.191-1.261-1.951-1.267-3.283-.011-2.507.566.35.734-.051.393-.941-.328-.854-.098-1.552.511-1.552 2.654 0 .734-2.23-3.47-4.033l-4.576-1.962-4.653 2.748c-2.56 1.51-5.562 3.203-6.674 3.76-1.11.556-3.145 3.093-4.52 5.636-1.375 2.543-3.601 6.106-4.947 7.918-1.345 1.812-1.939 2.98-1.319 2.597.62-.383 1.42-.224 1.777.353.394.639 1.993-.13 4.082-1.965 1.889-1.658 4.698-3.668 6.242-4.467zm16.672-3.574c-.35-.566.051-.734.941-.393 1.732.665 2.05 1.382.611 1.382-.518 0-1.216-.445-1.552-.989zM125 46.06c0-1.682.173-3.059.383-3.059.849 0 1.288 5.085.483 5.583-.476.294-.866-.842-.866-2.524zm17.425 17.046c1.867-.731 1.86-.82-.25-2.93C140.98 58.98 139.133 58 138.073 58c-2.624 0-5.537-5.735-3.91-7.697.94-1.133 1.317-1.152 1.983-.1 1.134 1.786 1.06 3.042-.135 2.304-.58-.359-.725.074-.35 1.05.578 1.51.72 1.515 1.53.066.98-1.752-.114-4.485-2.636-6.578-1.338-1.11-1.555-.932-1.555 1.274 0 1.41-.518 2.883-1.151 3.275-.801.494-.604 1.112.648 2.027 1.485 1.086 1.577 1.584.529 2.848-.867 1.044-.914 1.531-.148 1.531 2.191 0 2.642.325 4.357 3.147 1.84 3.025 2.16 3.145 5.19 1.958zm-31.794-35.622c.539-4.583.33-5.868-1.228-7.59-1.836-2.03-1.835-2.104.051-3.483 2.715-1.985 5.644-1.751 6.232.498.49 1.876.53 1.876 2.406 0C122.527 12.473 129 16.06 129 22.953c0 7.822-4.05 11.712-9.574 9.195-1.495-.681-2.426-.73-2.426-.127 0 .539-1.579.979-3.509.979h-3.508zM114 29.5c0-.825-.177-1.5-.393-1.5-.216 0-.652.675-.969 1.5-.316.825-.14 1.5.393 1.5s.969-.675.969-1.5zm8.35.506c-1.525-.615-2.36-2.109-2.871-5.13-.624-3.69-.42-4.505 1.511-6.07 1.227-.993 1.764-1.806 1.193-1.806-1.504 0-5.183 4.969-5.183 7 0 2.453 3.827 7.012 5.823 6.937 1.25-.048 1.13-.285-.473-.931zm-6.07-2.046c-.294-1.121-.757-1.816-1.03-1.543-.542.541.414 3.583 1.125 3.583.24 0 .198-.918-.096-2.04zm7.72-3.4c0-1.893-.45-3.72-1-4.059-.604-.373-1 .99-1 3.441 0 2.232.45 4.059 1 4.059s1-1.548 1-3.441zm2.69-2.309c-.252-.962-.458-.175-.458 1.75s.206 2.712.457 1.75c.252-.963.252-2.538 0-3.5zM7.501 203.75c.002-104.638-.254-183.5-.569-175.25-1.387 36.435-.978 365.502.455 365.5.061 0 .113-85.613.114-190.25zm224.243-96c-.181-5.088-.33-.925-.33 9.25s.149 14.338.33 9.25c.182-5.088.182-13.412 0-18.5zm-.062-40.938c-.32-.797-.556-.56-.604.605-.043 1.054.193 1.644.525 1.312.332-.332.368-1.195.079-1.916zm-113.59-56.771c62.789-.016 108.807.357 110.688.896 2.53.726 3.219.624 3.219-.475C232 8.719 183.055 8.252 78.583 9c-60.963.436-69.98.692-70.413 2-.401 1.215-.215 1.269.979.284 1.136-.937 26.084-1.222 108.943-1.243z"/></svg>