<svg xmlns="http://www.w3.org/2000/svg" width="245" height="420" viewBox="0 0 245 420"><path d="M60.12 418.317c.723-.289 1.585-.253 1.918.079.332.332-.259.568-1.313.525-1.165-.048-1.402-.285-.604-.604zm38 0c.723-.289 1.585-.253 1.918.079.332.332-.259.568-1.313.525-1.165-.048-1.402-.285-.604-.604zm12 0c.723-.289 1.585-.253 1.918.079.332.332-.259.568-1.313.525-1.165-.048-1.402-.285-.604-.604zm6 0c.723-.289 1.585-.253 1.918.079.332.332-.259.568-1.313.525-1.165-.048-1.402-.285-.604-.604zm35.938-.067c17.188-.153 45.313-.153 62.5 0 17.188.154 3.125.28-31.25.28s-48.437-.126-31.25-.28zm-102.97-9.011l-39.721-.262-1.28-2.238C7.063 404.945 6.76 365.199 6.56 207 6.403 81.663 6.664 8.952 7.275 8c.848-1.32 14.591-1.476 115.119-1.296 62.786.112 114.363.41 114.615.664.253.252.536 90.723.63 201.045l.17 200.587-16 .043c-8.8.024-42.326.136-74.5.25-32.176.114-76.375.09-98.222-.055zm-35.78-2.632c0-.216-.698-.661-1.552-.989-.89-.341-1.29-.173-.94.393.587.95 2.492 1.406 2.492.596zm9.73-.211c-.333-.332-1.195-.368-1.917-.08-.798.32-.56.557.604.605 1.054.043 1.645-.193 1.313-.525zm195.52-.058c-.687-.278-1.812-.278-2.5 0-.687.277-.125.504 1.25.504s1.938-.227 1.25-.504zm17.013-.088c.21-.412.064-2.1-.323-3.75l-.703-3-.118 3.2c-.118 3.171-.17 3.204-5.869 3.561l-5.75.36 6.191.19c3.405.104 6.363-.148 6.572-.561zM231.659 324c-.082-43.725-.221-83.325-.31-88-.087-4.675.063-56.99.333-116.254l.492-107.755-110.183.255-110.183.254.068 187c.038 102.85.416 190.94.84 195.754l.773 8.755 109.16-.255 109.16-.254zm-120.089 7.924c-10.013-4.857-14.597-12.366-14.617-23.946-.01-5.976.485-8.518 2.412-12.376 4.539-9.09 14.984-15.602 25.02-15.602 2.117 0 6.228.89 9.136 1.98 11.427 4.278 17.792 13.215 17.782 24.966-.008 9.208-1.375 13.148-6.562 18.917-8.457 9.407-21.397 11.77-33.17 6.06zm14.007.42c-.677-.274-2.027-.29-3-.037-.973.254-.419.478 1.231.498 1.65.02 2.446-.187 1.77-.461zm.731-2.344c1.114-.72.519-.973-2.309-.985-2.288-.009-3.562.384-3.19.985.78 1.264 3.544 1.264 5.5 0zm-8-1c0-.872-2.083-1.438-4.189-1.139-.379.054-.971-.792-1.317-1.881-.346-1.09-1.09-1.98-1.653-1.98-.98 0-5.969-3.527-5.92-4.184.086-1.17-1.271-4.816-1.793-4.816-.351 0-.67-3.15-.708-7-.037-3.85.303-7 .756-7s.824-.572.824-1.272c0-2.767 6.56-9.087 11.936-11.499 3.06-1.373 5.023-2.691 4.362-2.93-1.671-.603-10.298 3.338-10.298 4.704 0 .613-.39.874-.866.58-2.507-1.55-8.392 10.185-8.49 16.93-.075 5.173 1.87 11.487 3.537 11.487.515 0 .702.381.414.847-.738 1.193 4.861 6.347 5.885 5.417.463-.42.512-.193.11.505-.484.84.39 1.755 2.59 2.71 4.005 1.74 4.82 1.828 4.82.521zm17.39-.174c-.228-.37.924-1.625 2.559-2.79 3.663-2.608 7.124-7.344 7.326-10.027.083-1.105.49-2.009.904-2.009 1.494 0-.12-12.963-2.095-16.836-2.262-4.435-7.054-8.826-11.801-10.816-5.931-2.485-5.844-1.325.144 1.93 3.26 1.772 7.31 4.95 9 7.062 2.8 3.5 3.09 4.55 3.256 11.808.192 8.371-1.164 12.263-5.704 16.372-2.958 2.677-3.423 1.165-.66-2.144 3.912-4.688 5.681-8.992 5.681-13.825v-4.548l-4.998 3.591c-2.749 1.975-5.19 3.903-5.426 4.283-.235.381.31 3.345 1.213 6.587 1.336 4.802 1.394 5.975.313 6.336-1.097.365-1.094.587.019 1.274.972.601.307 1.267-2.387 2.393-2.053.858-3.734 1.7-3.734 1.871 0 .172 1.53.278 3.401.237 1.87-.041 3.215-.378 2.988-.749zm-26.39-1.139c0-.172-1.462-1.635-3.25-3.25l-3.25-2.937 2.937 3.25c2.738 3.03 3.563 3.71 3.563 2.937zm21.75-1.317c1.238-.332 2.239-.888 2.225-1.237-.015-.348-2.24-2.135-4.946-3.97l-4.92-3.337-4.68 3.573c-4.592 3.506-4.635 3.59-2.304 4.523 2.709 1.085 11.272 1.346 14.625.448zm11.75-1.37c.996-1.1 1.585-2 1.31-2-.275 0-1.314.9-2.31 2-.995 1.1-1.585 2-1.31 2 .275 0 1.315-.9 2.31-2zm-28.255-5.5c-.279-1.46-.013-2.5.639-2.5.614 0 1.106-1.012 1.094-2.25-.02-1.936-.246-1.799-1.615.98-.876 1.776-1.33 3.913-1.009 4.75.906 2.36 1.421 1.793.891-.98zm18.716-2.048c-.663-.799-1.713-1.438-2.333-1.422-.62.017-.34.49.622 1.05.963.56 1.803 2.01 1.866 3.22.093 1.764.209 1.844.583.402.257-.989-.076-2.451-.738-3.25zm-30.616 2.005c-.325-.849-.806-1.329-1.068-1.067s-.18.957.182 1.543c.986 1.596 1.563 1.286.886-.476zm9.087-1.707c2.893-7.076 2.88-7.145-1.957-10.555-3.846-2.71-4.63-2.953-5.153-1.59-1.293 3.369 2.913 15.395 5.384 15.395.218 0 .995-1.462 1.726-3.25zm11.846-3.25c-.274-.55.565.158 1.863 1.573 2.853 3.111 5.86 5.42 5.86 4.502 0-.369-1.212-1.793-2.692-3.165-1.505-1.394-1.95-2.21-1.008-1.848 1.082.415 1.914.044 2.33-1.042.522-1.361.833-1.43 1.603-.354.904 1.262.524-.362-.886-3.785-.253-.615.352-1.41 1.346-1.766 2.089-.748 6.016-2.991 7.053-4.028.391-.392-.404-.298-1.768.207-1.363.505-3 .735-3.637.51-.637-.225-1.448.059-1.802.632-.396.64.05.817 1.158.458 1.454-.47 1.522-.384.35.446-1.633 1.156-3.388.52-2.505-.91.317-.511.099-.93-.484-.93-.582 0-1.059.702-1.059 1.559 0 .957-.482 1.286-1.25.853-1-.564-1-.436 0 .641.688.741 1.244 2.045 1.235 2.897-.012 1.183-.208 1.246-.83.266-.448-.706-1.563-.996-2.479-.645-.915.351-1.41 1.049-1.1 1.55.31.501.93.684 1.38.406.45-.278 1.431.251 2.181 1.176 1.174 1.447 1.155 1.554-.137.767-.825-.503-2.102-1.005-2.837-1.116-.736-.112-2.121-.912-3.079-1.778-2.214-2.004-3.73-2.059-2.084-.076.86 1.036.898 1.5.123 1.5-.617 0-1.123.436-1.123.969 0 .532.788.715 1.75.407 1.45-.466 1.4-.245-.293 1.28-4.463 4.027-4.95 5.665-.82 2.757 2.276-1.602 3.914-3.363 3.64-3.913zm25.637-2c.03-.55-.381-.325-.915.5-.533.825-.944 2.175-.914 3 .058 1.584 1.725-1.606 1.829-3.5zm-30.625 1.501c.287-1.1.115-2.251-.383-2.559-.499-.308-.907.592-.907 1.999 0 3.064.57 3.312 1.29.56zm-18.606-1.188c-.32-.798-.557-.561-.605.604-.043 1.054.193 1.644.526 1.312.332-.332.367-1.195.078-1.916zm-1.021-6.063c-.278-.687-.505-.125-.505 1.25s.227 1.938.505 1.25c.277-.687.277-1.812 0-2.5zm16.837.835c-3.028-2.428-4.29-2.673-2.997-.581.602.974 3.925 2.744 5.497 2.928.275.032-.85-1.024-2.5-2.347zm6.172-5.002c-.212-.596-.016-2.08.434-3.298s.429-2.455-.046-2.748c-.476-.294-1.335.815-1.91 2.464-.793 2.275-1.661 2.999-3.598 2.999-1.403 0-2.552.502-2.552 1.117s.877.887 1.952.606c1.074-.281 2.164.004 2.422.633.257.63.504.33.547-.665.044-.995.551-1.518 1.128-1.161 1.808 1.117-.9 3.319-3.335 2.712-2.141-.534-2.133-.485.244 1.48l2.457 2.032 1.32-2.544c.726-1.4 1.148-3.032.937-3.627zm3.328 5.417c0-.55-.675-1-1.5-1s-1.5.45-1.5 1 .675 1 1.5 1 1.5-.45 1.5-1zm10.5-5.243c.677-.688-.58-.813-3.89-.387-2.688.347-5.726.63-6.75.63-1.022 0-1.86.375-1.86.832 0 1.15 11.265.181 12.5-1.075zm-35.837-2.007c-.278-.687-.505-.125-.505 1.25s.227 1.938.505 1.25c.277-.687.277-1.812 0-2.5zm12.349-.75h5.845l2.107-5.631c1.159-3.098 1.903-5.835 1.655-6.084-.56-.56-8.563 3.125-10.655 4.907-2.051 1.746-5.984 7.401-5.885 8.462.044.465.306.284.584-.404.322-.8 2.609-1.25 6.349-1.25zm14.988 1.287c-.825-.306-2.062-1-2.75-1.544-.892-.705-1.25-.524-1.25.635 0 1.122.848 1.598 2.75 1.543 1.568-.045 2.105-.318 1.25-.634zm-.397-4.524c-.356-1.78-1.421-3.917-2.368-4.75-1.283-1.128-1.404-1.144-.477-.063.683.797 1.242 2.935 1.242 4.75s.507 3.3 1.125 3.3c.735 0 .901-1.122.478-3.237zm14.45 1.487c-2.08-3.573-4.803-6.082-8.832-8.137-6.62-3.378-7.51-2.954-5.185 2.47 1.08 2.52 1.964 5.22 1.964 6 0 1.078 1.563 1.417 6.536 1.417 5.945 0 6.443-.158 5.516-1.75zm-17.708-3.793c-.325-.849-.806-1.329-1.068-1.067s-.18.957.182 1.543c.986 1.596 1.563 1.286.886-.476zm21.655-.76c0-.168-1.687-1.855-3.75-3.75l-3.75-3.447 3.447 3.75c3.207 3.49 4.053 4.21 4.053 3.446zm-25.27-10.301c-.333-.332-1.195-.368-1.917-.08-.798.32-.56.557.604.605 1.054.043 1.645-.193 1.313-.525zm-5.405-146.034c-5.685-2.014-12.34-8.1-15.268-13.964-3.278-6.562-3.407-17.93-.273-24.014 5.381-10.447 13.465-15.422 24.904-15.328 10.909.09 17.971 3.94 24.04 13.107 2.545 3.845 2.772 4.973 2.772 13.762 0 7.329-.436 10.453-1.86 13.319-5.857 11.782-21.36 17.709-34.315 13.118zm21.168-3.35c.35-.567-.05-.735-.94-.394-1.733.665-2.05 1.382-.612 1.382.518 0 1.216-.445 1.552-.989zm-19.733-2.306c-2.057-1.213-3.744-2.729-3.75-3.368-.005-.638-.797-1.045-1.76-.902-1.613.238-3.468-1.943-6.803-8.003-.626-1.137-1.021-4.857-.878-8.266.498-11.863 8.122-20.052 19.855-21.328l6.076-.66-7.193.19c-6.384.169-7.622.535-11 3.253-5.117 4.118-7.865 8.369-9.313 14.405-1.027 4.279-.953 5.802.496 10.23.936 2.861 2.627 6.502 3.759 8.092 2.31 3.245 10.32 8.674 12.697 8.607.855-.025-.129-1.037-2.186-2.25zm21.479-1.394c4.198-3.016 9.1-9.954 8.137-11.513-.271-.44-.07-.799.45-.799.518 0 .787-2.138.597-4.75-.433-5.968.357-9.13 1.781-7.132.752 1.055.844.949.39-.45-.326-1.007-.596-2.357-.6-3-.003-.642-.646.059-1.428 1.558-.782 1.5-1.526 5.55-1.654 9-.401 10.874-7.525 18.179-19.412 19.904-4.937.717-4.922.723 1.239.485 5.142-.199 6.987-.78 10.5-3.303zm-29.239.343c0-.19-1.012-1.202-2.25-2.25l-2.25-1.905 1.905 2.25c1.79 2.114 2.595 2.705 2.595 1.905zm24.5-1.119c1.65-.755 2.302-1.41 1.447-1.455-.854-.044-3.447-1.474-5.762-3.177l-4.21-3.096-5.081 3.26c-5.04 3.235-5.062 3.272-2.738 4.561 3.07 1.703 12.54 1.649 16.344-.093zm9.628-.286c1.244-1.586 1.208-1.621-.378-.378-.962.755-1.75 1.543-1.75 1.75 0 .823.822.294 2.128-1.372zM115.375 121c.513 0 .93-1.012.927-2.25-.006-2.061-.131-2.01-1.5.614-.821 1.576-1.426 3.826-1.344 5 .11 1.556.263 1.39.567-.614.229-1.512.836-2.75 1.35-2.75zm26.847-1.54c1.211-2.576 2.086-6.457 2.086-9.25 0-2.645.456-5.265 1.012-5.821 1.264-1.265-3.986-9.487-7.55-11.822-2.685-1.76-7.462-3.76-7.462-3.124 0 .217 1.688 1.4 3.75 2.631 5.853 3.492 12.273 11.176 10.337 12.372-.49.303-1.783-.96-2.873-2.808-2.547-4.317-7.968-8.439-12.215-9.288-2.992-.599-3.259-.471-2.597 1.241.405 1.05 1.265 3.597 1.91 5.659 1.113 3.55 1.399 3.75 5.367 3.75 5.313 0 9.321 1.503 9.321 3.496 0 .85-2.054 2.994-4.566 4.764-4.242 2.99-4.522 3.457-3.938 6.568 1.707 9.102 3.7 9.54 7.418 1.632zm-29.525-.086c.866-2.543 1.378-4.943 1.137-5.332-1.005-1.626-8.616-6.285-9.243-5.658-.985.985 1.392 11.47 3.238 14.288 1.998 3.05 2.917 2.427 4.868-3.298zm8.236 1.863l4.036-3.764-2.373-1.986c-1.677-1.404-2.267-2.779-2.011-4.684.199-1.484-.007-2.47-.458-2.191-.45.278-.819-.223-.819-1.113 0-1.223.673-1.495 2.75-1.11 4.853.899 7.25 1.82 7.25 2.787 0 .518-.45.664-1 .324-1.587-.981-1.156.744 1 4 1.093 1.65 1.99 3.788 1.994 4.75.004.963.394 1.75.868 1.75 1.072 0 .222-4.83-.981-5.574-.484-.3-.88-.994-.88-1.544s.415-.743.923-.43c1.336.827 8.19-3.458 7.45-4.657-.402-.65-.88-.592-1.347.162-.954 1.543-7.027 2.497-7.027 1.103 0-.583 1.463-1.12 3.25-1.192l3.25-.131-3-.638c-3.325-.707-9.483-4.177-9.493-5.349-.003-.413-.414-.75-.913-.75-.498 0-.667 1.012-.375 2.25.526 2.229.515 2.231-1.156.25-1.089-1.29-1.546-1.467-1.288-.5.468 1.751-2.008 3.922-4.525 3.968-.962.018-1.75.509-1.75 1.091s.563.735 1.25.34c.688-.396.932-.367.543.065-.39.431.17 1.516 1.244 2.41 1.498 1.247 1.698 1.975.863 3.126-.953 1.313-1.027 1.304-.594-.072.506-1.607-1.482-3.284-5.872-4.953-3.454-1.314-3.013-.515 1.034 1.873 1.983 1.17 3.747 3.158 4.12 4.643.606 2.417 3.198 3.066 2.674.67-.13-.599.425-.835 1.236-.524 1.183.454 1.033.933-.762 2.431-1.23 1.026-1.763 1.88-1.186 1.899.578.018 1.59-.507 2.25-1.167.66-.66 1.2-.878 1.2-.485s-1.462 1.606-3.25 2.696c-1.787 1.09-2.8 1.99-2.25 2 .55.011.325.456-.5.989-.825.533-1.03.976-.455.985.574.008 2.86-1.679 5.08-3.749zM131.076 123c-.687-1.1-1.59-2-2.008-2-.418 0-.76-.675-.76-1.5s.436-1.5.969-1.5c.533 0 .71-.672.395-1.494-.315-.822-.976-1.246-1.468-.941-.493.304-.896.09-.896-.475s-.686-.764-1.525-.442c-1.077.413-1.227.946-.509 1.81.56.675.686 1.557.282 1.961-.404.404.837 2.038 2.759 3.631 4.179 3.464 4.373 3.531 2.761.95zm2.916-1.188c-.32-.797-.557-.56-.605.605-.043 1.054.193 1.644.526 1.312.332-.332.367-1.195.078-1.917zm15.23-5.312c.031-.55-.38-.325-.914.5-.533.825-.944 2.175-.914 3 .058 1.584 1.725-1.606 1.829-3.5zm-49.251-.75c-.278-.688-.505-.125-.505 1.25s.227 1.938.505 1.25c.277-.688.277-1.813 0-2.5zm-1-6c-.278-.688-.505-.125-.505 1.25s.227 1.938.505 1.25c.277-.688.277-1.813 0-2.5zm26.337 1.75c0-.825-.675-1.5-1.5-1.5-1.561 0-1.984 1.183-.833 2.333 1.15 1.151 2.333.729 2.333-.833zm-25.337-6.75c-.278-.688-.505-.125-.505 1.25s.227 1.938.505 1.25c.277-.688.277-1.813 0-2.5zm39.067.646c-.333-.332-1.195-.368-1.917-.08-.798.32-.56.557.604.605 1.054.043 1.645-.193 1.313-.525zm-26.193-1.504c5.629.26 5.975-.095 8.401-8.642.819-2.883.7-3.25-1.057-3.25-3.134 0-7.227 2.534-11.206 6.938-3.546 3.925-4.931 6.957-2.49 5.447.653-.403 3.511-.625 6.352-.493zm13.906-5.18c-.48-1.25-.91-1.355-1.873-.455-.908.849-.952 1.498-.16 2.372 1.405 1.551 2.844.195 2.033-1.917zm19.557-.09c0-.207-.787-.995-1.75-1.75-1.586-1.243-1.621-1.208-.377.378 1.306 1.666 2.127 2.195 2.127 1.372zm-39.437-4.872l2.937-3.25-3.25 2.937c-3.03 2.738-3.71 3.563-2.937 3.563.172 0 1.635-1.462 3.25-3.25zM135.808 89c-.34-.55-1.154-.993-1.809-.985-.715.01-.592.403.31.985 1.92 1.242 2.267 1.242 1.5 0zm-10.25-2.662c-.687-.278-1.812-.278-2.5 0-.687.277-.125.504 1.25.504s1.938-.227 1.25-.504zm-6.583-50.005c-1.317-1.316-.617-3.32 2.333-6.68 3.64-4.146 3.688-4.507.513-3.9-3.314.633-4.65-2.448-1.925-4.442 3.018-2.208 7.604-1.254 9.381 1.95 1.387 2.502 1.375 3.037-.13 5.678-1.397 2.45-1.437 3.001-.25 3.457.776.297 1.411 1.455 1.411 2.573 0 1.788-.639 2.031-5.333 2.031-2.933 0-5.633-.3-6-.667zm6.488-2.051c-1.831-.348-2.226-.92-1.8-2.614.53-2.106.505-2.113-.904-.227-2.157 2.887-1.796 3.573 1.8 3.423 2.511-.105 2.717-.238.904-.582zm-.425-11.886c-.333-.332-1.195-.368-1.917-.08-.798.32-.56.557.604.605 1.054.043 1.645-.193 1.313-.525zM10.033 394.768c-.222-1.797-.41-.568-.415 2.732-.006 3.3.177 4.77.405 3.268.228-1.503.233-4.203.01-6zm223.959-213.955c-.32-.798-.557-.561-.605.604-.043 1.054.193 1.644.526 1.312.332-.332.367-1.195.078-1.917zm0-13c-.32-.798-.557-.561-.605.604-.043 1.054.193 1.644.526 1.312.332-.332.367-1.195.078-1.917zm-.021-8.063c-.278-.688-.505-.125-.505 1.25s.227 1.938.505 1.25c.277-.688.277-1.813 0-2.5zm1.337-138.25V9l-48.25.24-48.25.24 47.75.27 47.75.27v11.99c0 6.594.225 11.99.5 11.99s.5-5.625.5-12.5zM51.37 9.239c-22.241-.144-40.782.08-41.2.5-.42.418 17.777.536 40.438.262l41.2-.5zm44.188.099c-.687-.278-1.812-.278-2.5 0-.687.277-.125.504 1.25.504s1.938-.227 1.25-.504zm33.5-.084c-5.362-.18-14.137-.18-19.5 0-5.362.18-.975.327 9.75.327s15.113-.147 9.75-.327z"/></svg>