<svg xmlns="http://www.w3.org/2000/svg" width="247" height="420" viewBox="0 0 247 420"><path d="M24 418.272c59.76-.676 222-.692 222-.022 0 .412-55.238.646-122.75.519-67.513-.127-112.175-.35-99.25-.497zm68.545-9.027c-56.575-.165-88.31-.61-88.95-1.25-1.054-1.054-1.046-387.133.01-396.495l.563-5 113.14.275c68.573.167 113.51.644 114.078 1.211 1.19 1.19.824 399.167-.367 400.38-1.038 1.057-24.934 1.208-138.474.879zm-37.612-2.61c-.862-.789-49.91-1.406-49.425-.621.274.443 11.604.853 25.178.912 13.574.058 24.485-.072 24.247-.29zm54.882-.383c-9.727-.164-25.927-.164-36 0-10.073.162-2.115.296 17.685.297 19.8 0 28.042-.134 18.315-.297zm22.435.086c-.688-.278-1.813-.278-2.5 0-.688.277-.125.504 1.25.504s1.938-.227 1.25-.504zm9.512-.025c-.956-.25-2.756-.26-4-.02-1.244.239-.462.444 1.738.455 2.2.01 3.218-.185 2.262-.435zm22.53-.052c-3.415-.195-9.265-.196-13-.003-3.736.193-.942.352 6.208.354 7.15.002 10.206-.156 6.792-.351zm15.458.05c-.963-.252-2.538-.252-3.5 0-.963.251-.175.457 1.75.457s2.712-.206 1.75-.457zm49.909-2.811c.106-2.015.002-2.261-.32-.75-.263 1.238-.56 2.34-.659 2.45-.099.111-10.08.47-22.18.799l-22 .597 22.5-.048 22.5-.048.159-3zm-4.924.084c1.832-.581 1.878-5.58 1.804-195.025-.041-106.936-.313-194.666-.603-194.956-.29-.29-49.204-.82-108.697-1.177l-108.17-.648-.301 24.86c-.166 13.674-.415 101.692-.554 195.595l-.253 170.733 25.27.267c62.184.657 189.802.891 191.504.351zm-121.482-58.578C95.43 343.9 95 343.616 95 339.598c0-5.08 3.938-11.379 10.006-16.007 7.118-5.428 7.877-7.792 7.897-24.591l.015-13.5-3.82-4.222c-2.1-2.322-5.007-4.673-6.459-5.225-3.104-1.18-3.438-3.555-.705-5.018 1.064-.57 7.42-1.035 14.123-1.035 11.275 0 12.085.125 10.815 1.673-1.213 1.48-1.14 1.603.628 1.066 6.869-2.088 6.5-2.125 6.5.644 0 2.079-.482 2.617-2.346 2.617-1.512 0-3.823 1.622-6.5 4.564L121 285.128l.007 14.686c.007 16.723-.017 16.655 8.841 24.767 8.591 7.867 12.423 16.29 8.785 19.31-1.784 1.48-27.155 2.28-35.38 1.115zm19.497-.734c-2.063-.216-5.438-.216-7.5 0-2.063.215-.375.392 3.75.392s5.813-.177 3.75-.392zm-12.75-.83c-3.716-.809-8.814-.95-8.37-.233.268.435 2.599.739 5.179.675 2.58-.064 4.016-.263 3.191-.442zm18.5-.902c-3.39-.829-4.356-1.372-3-1.687 1.1-.256-2.725-.389-8.5-.295l-10.5.17 8.5-.675 8.5-.675-9-.385c-8.558-.366-8.68-.402-2.487-.73 3.582-.189 10.445.034 15.25.495 8.77.842 9.34.739 7.957-1.437-1.045-1.642-34.022-2.73-35.884-1.185-1.823 1.513-1.68 2.864.304 2.864.902 0 2.14.65 2.75 1.445.78 1.015 4.685 1.717 13.11 2.356 16.836 1.278 19.107 1.232 13-.261zm-15.271-10.306c.254-.971.072-2.659-.404-3.75-.825-1.89-.848-1.885-.476.124.214 1.16-.024 2.847-.53 3.75-.562 1.006-.557 1.642.015 1.642.513 0 1.14-.795 1.395-1.766zm9.771.825c0-1.393-1.838-2.277-3.107-1.493-.771.477-.696.944.25 1.544 1.785 1.13 2.857 1.112 2.857-.051zm12 .333c0-.827-1.942-1.295-2.387-.575-.289.467.13.85.931.85.8 0 1.456-.124 1.456-.275zm-29.909-3.835c.777.48.96.334.504-.402-.628-1.017.518-1.59 2.594-1.294.378.054.526-.747.327-1.78-.21-1.086.726-2.868 2.221-4.23 1.833-1.668 2.412-1.871 1.992-.699-.663 1.853.1 3.072 1.413 2.26.475-.293.372-1.452-.229-2.574-1.072-2.004-1.143-1.991-3.955.702-1.575 1.51-2.772 3.242-2.66 3.852.11.61-.473 1.07-1.298 1.022-.825-.047-2.605 1.303-3.956 3-2.051 2.577-2.103 2.781-.313 1.238 1.209-1.043 2.674-1.52 3.36-1.095zm20.889.919c-.696-.838-1.525-1.264-1.844-.946-.318.318.084.997.893 1.51 2.117 1.338 2.394 1.174.95-.564zm-7.16-1.56c1.094-1.75 1.042-2.478-.326-4.566-1.31-2-1.907-2.252-3.06-1.294-1.762 1.46-1.823 3.349-.193 5.958 1.557 2.494 1.968 2.483 3.579-.097zm-8.327.095c.35-.566-.051-.734-.941-.393-1.732.665-2.05 1.382-.611 1.382.518 0 1.216-.445 1.552-.989zm19.597-.843c-.54-1.008-1.793-2.47-2.785-3.25-1.61-1.264-1.67-1.245-.564.174 1.478 1.895.712 2.977-1.589 2.245-1.388-.442-1.418-.36-.186.511 1.017.72 1.86.71 2.75-.028.955-.792 1.284-.65 1.284.558 0 .892.466 1.622 1.035 1.622.694 0 .712-.604.055-1.832zm-6.11-3.692c-.696-.838-1.497-1.292-1.78-1.009-.284.284-1.232-.043-2.108-.726-1.406-1.096-1.433-1.038-.229.498.75.956 1.732 1.512 2.181 1.234.45-.278 1.1-.048 1.446.51.345.56.882 1.017 1.191 1.017.31 0-.006-.686-.701-1.524zm-.77-3.666c-.654-.654-1.757-1.303-2.45-1.441-3.82-.763-5.9-1.323-7.014-1.886-.685-.347-.392.063.651.91 1.044.849 2.281 1.306 2.75 1.016.47-.29.853-.076.853.475 0 .55.89.83 1.979.62 1.088-.21 2.24.041 2.559.557.319.517.868.939 1.221.939.353 0 .106-.535-.549-1.19zM119.5 316c.34-.55.141-1-.441-1s-1.059.45-1.059 1 .198 1 .441 1 .72-.45 1.059-1zm-2.817-2.188c-.32-.797-.556-.56-.604.605-.043 1.054.193 1.644.525 1.312.332-.332.368-1.195.08-1.916zm-1.891-33.062c.778-.938.425-1.287-1.414-1.396-1.991-.12-2.234.115-1.292 1.25 1.41 1.699 1.418 1.7 2.706.146zm8.208-1.243c0-.154-1.35-.478-3-.72-3.166-.465-4.244.79-1.25 1.455 1.624.36 4.25-.094 4.25-.735zm2.345-4.05c-.326-.849-.807-1.329-1.069-1.067-.262.262-.18.957.183 1.543.986 1.596 1.562 1.286.886-.476zm-2.347-.578c0-.342-2.32-.93-5.157-1.306-4.08-.54-5.491-.345-6.75.936-1.464 1.49-1.053 1.595 5.157 1.305 3.711-.173 6.749-.594 6.75-.935zm-2.214-3.613c-2.595-.205-7.095-.207-10-.005-2.906.203-.784.37 4.716.373 5.5.003 7.878-.163 5.284-.368zm-13.712-121.354c-2.436-.478-4.87-1.31-5.408-1.848-1.37-1.37.834-3.787 4.155-4.558 1.571-.365 4.026-2.443 5.931-5.022l3.25-4.4v-13.556c0-8.985-.421-14.31-1.25-15.792-.688-1.23-4.707-5.863-8.933-10.295-7.755-8.135-9.243-10.89-8.645-16.004.251-2.15 1.03-2.992 3.328-3.605 7.783-2.077 37.129-1.215 40.009 1.176 3.87 3.211-.137 12.811-8.236 19.73C123.31 102.54 122 106.19 122 121.565v12.4l4.268 4.454c2.347 2.45 5.497 4.921 7 5.493 2.946 1.12 3.756 4.481 1.305 5.422-1.66.636-3.908-1.63-2.814-2.836.407-.45.084-.436-.72.03-.803.468-5.528.735-10.5.594-4.971-.142-10.164.174-11.539.701-1.94.744-1.27.867 3 .55 3.025-.226 8.65-.094 12.5.292 5.731.574 6.456.827 4 1.4-4.179.973-16.123.888-21.428-.153zM130 145.56c0-.243-.45-.72-1-1.059-.55-.34-1-.141-1 .441s.45 1.059 1 1.059 1-.198 1-.441zm-13.368-4.626c8.98-.053 8.679.032 6.686-1.884-1.431-1.377-1.888-1.456-2.146-.373-.214.897-1.524 1.296-3.76 1.145-2.314-.156-3.997.388-5.171 1.67-1.386 1.512-1.408 1.65-.109.68.898-.672 2.923-1.228 4.5-1.238zm2.11-21.641c-.192-3.736-.352-.942-.353 6.208-.002 7.15.156 10.206.35 6.792.195-3.415.196-9.265.003-13zm-1.606-15.53c-.2-.957-.65-1.563-1-1.348-.35.215-.418 8.198-.15 17.739l.484 17.347.515-16c.283-8.8.351-16.782.151-17.739zm3.604 13.988c-.195-3.438-.355-.625-.355 6.25s.16 9.688.355 6.25c.196-3.438.196-9.063 0-12.5zm.385-12.172c.577.356.684-.493.27-2.143-.463-1.843-.336-2.516.39-2.068.592.366 1.405.096 1.806-.6.401-.697.361-.933-.089-.526-.45.408-1.422.24-2.16-.372-.738-.613-1.369-.946-1.401-.741-.366 2.31-.53 8.064-.204 7.116.239-.691.863-.991 1.388-.666zm-5.728-4.411c.283-.459-.12-.834-.897-.834s-1.18.375-.897.834c.283.458.687.833.897.833.21 0 .614-.375.897-.833zm-4.942-5.214c-2.438-2.545-2.675-3.202-1.437-3.985 1.285-.813 1.272-.94-.101-.953-3.016-.029-2.938 1.369.262 4.67 1.767 1.823 3.434 3.315 3.704 3.315s-.823-1.371-2.428-3.047zm10.51-3.012c.02-.857-.58-2.4-1.333-3.43-1.321-1.807-1.41-1.795-2.553.342-.92 1.719-.903 2.99.075 5.695 1.245 3.445 1.273 3.459 2.517 1.218.692-1.247 1.274-2.967 1.294-3.825zM126.2 97.2c1.427-1.427 2.004-4.444.696-3.636-.51.316-.701.942-.423 1.392.74 1.198-1.693 2.832-3.728 2.503-.965-.156-1.526.087-1.246.54.68 1.1 3.237.665 4.701-.799zm-11.404-2.155c-.671-1.075-1.414-1.76-1.65-1.524-.43.429 1.75 3.479 2.485 3.479.212 0-.163-.88-.835-1.955zm16.299-1.795c.736-.963.945-1.416.464-1.009-.481.408-1.591.183-2.467-.5-1.373-1.07-1.422-1.022-.35.351.682.876.945 1.888.583 2.25-.362.362-.413.658-.114.658.3 0 1.147-.787 1.884-1.75zm-3.569-4.057c-.307-.308-1.114 0-1.793.683-.98.988-.865 1.102.56.56.986-.376 1.541-.935 1.233-1.243zM134.5 89c.995-1.1 1.398-2 .896-2-.503 0-1.477.9-2.164 2s-1.09 2-.895 2c.194 0 1.168-.9 2.163-2zm-31.21-1c-.288-1.1-.937-2-1.442-2-.507 0-.44.895.152 2 .589 1.1 1.237 2 1.442 2 .204 0 .135-.9-.152-2zm8.21 1c-.34-.55-1.068-1-1.618-1s-.722.45-.382 1c.34.55 1.068 1 1.618 1s.722-.45.382-1zm11.852-1.526c-.31-.805-1.055-1.158-1.658-.785-.77.476-.737.797.111 1.08.664.22.91.883.547 1.47-.382.618-.191.78.45.383.61-.377.858-1.344.55-2.148zm-8.519-.119c-.183-.446-.92-.897-1.639-1.003-1.026-.15-1.049.118-.107 1.252 1.2 1.446 2.374 1.278 1.746-.249zm-15.488-3.898c-.326-.849-.807-1.329-1.069-1.067-.262.262-.18.957.183 1.543.986 1.596 1.562 1.286.886-.476zm36.89-.822c.404-.624.74-1.36.747-1.635.007-.275-8.312-.5-18.486-.5-10.173 0-18.497.076-18.496.168.006 2.215 1.68 2.908 6.621 2.74 3.059-.103 8.783.1 12.72.452 8.843.79 15.921.277 16.894-1.225zm-15.735-3.62l-14-.57 13-.505 13-.505-15-.186c-13.38-.165-14.79-.027-13.059 1.283 1.527 1.154 4.943 1.424 16 1.261l14.059-.207zm2.792-3.754c-3.415-.195-9.265-.196-13-.004-3.736.193-.942.353 6.208.354 7.15.002 10.206-.156 6.792-.35zM116.5 38.125c-4.47-.95-4.397-4.024.202-8.498l3.798-3.696-3.461.285c-2.545.209-3.551-.147-3.8-1.345-.489-2.348 2.453-4.871 5.677-4.871 5.451 0 8.14 6.829 4.122 10.466-1.945 1.76-1.943 1.791.25 3.654 2.177 1.849 2.181 1.903.27 3.38-2.06 1.593-2.376 1.621-7.058.625zm.954-3.199c-.365-.59.396-2.278 1.691-3.75L121.5 28.5l-2.75 2.424C115.977 33.368 115.1 36 117.059 36c.582 0 .76-.483.395-1.074zM229.69 392.25c-.251-.963-.457-.175-.457 1.75s.206 2.712.457 1.75c.252-.963.252-2.538 0-3.5zM5.748 59.75c-.167-8.388-.304-1.525-.304 15.25s.137 23.637.304 15.25c.167-8.387.167-22.113 0-30.5zm223.97-3.486c-.23-1.52-.424-.514-.432 2.236-.007 2.75.18 3.994.418 2.764.237-1.23.243-3.48.014-5zM6.942 23.242L7 9.985l88.631.043c48.748.023 88.867-.192 89.153-.48.287-.286-39.822-.528-89.13-.537L6 8.995l-.106 8.752c-.058 4.814-.225 12.803-.37 17.753-.197 6.681-.056 7.97.548 5 .447-2.2.839-9.966.87-17.258zm223.115 3.213c.074-7.675-.182-14.742-.568-15.705-.642-1.598-2.5-1.731-21.346-1.531l-20.643.218 20.5.532 20.5.531.277 15.39c.152 8.464.472 15.194.711 14.955.24-.24.496-6.715.57-14.39zm15.43 125.045c0-83.05.118-117.173.263-75.829.144 41.345.144 109.295 0 151-.145 41.706-.263 7.879-.263-75.171z"/></svg>