<svg xmlns="http://www.w3.org/2000/svg" width="245" height="420" viewBox="0 0 245 420"><path d="M167.75 418.277c1.788-.222 4.713-.222 6.5 0 1.788.221.325.403-3.25.403s-5.037-.182-3.25-.403zm15 .06c.688-.277 1.813-.277 2.5 0 .688.278.125.505-1.25.505s-1.938-.227-1.25-.504zm8.519-.03c.973-.254 2.323-.237 3 .037.677.274-.119.481-1.769.461-1.65-.02-2.204-.244-1.231-.498zm8.995-.025c1.52-.23 3.77-.223 5 .014 1.23.237-.014.425-2.764.418-2.75-.008-3.756-.202-2.236-.432zm12.486.012c1.238-.238 3.263-.238 4.5 0 1.238.239.225.434-2.25.434s-3.487-.195-2.25-.434zm22 0c1.238-.238 3.263-.238 4.5 0 1.238.239.225.434-2.25.434s-3.487-.195-2.25-.434zm-112.25-8.04c-6.05-.136-34.925-.36-64.167-.5-29.243-.14-53.543-.629-54-1.087-1.29-1.29-.622-397.258.673-399.679C6.06 7.022 7.314 7 118.344 7c92.215 0 112.6.24 114.105 1.339 1.763 1.29 1.835 8.708 1.94 201.085.086 155.24-.159 199.97-1.1 200.751-1.066.885-72.509.936-110.789.079zm-81.231-2.91c-.677-.274-2.027-.29-3-.037-.973.253-.419.478 1.231.498 1.65.02 2.446-.187 1.769-.461zm123.547-.092c-10.276-.163-27.376-.163-38 0-10.624.161-2.216.294 18.684.294 20.9 0 29.592-.132 19.316-.294zm-157.582-9.5c-.484-16.795-.87-18.449-1.054-4.502-.099 7.563.158 13.751.57 13.752.412.001.63-4.16.484-9.25zm221.797 4.11c.344-37.78-.22-388.384-.626-388.79-.651-.65-218.372-.438-219.024.214-.328.328-.673 302.1-.43 375.957L9 403.986l67.75.257c37.263.141 86.763.42 110 .62l42.25.362.03-3.363zM48.138 272.25c-.513-.963-.962-4.428-1-7.7-.136-12.014-2.228-15.999-7.846-14.945-3.803.713-7.292-1.564-7.292-4.76 0-1.507.787-1.845 4.3-1.845 2.365 0 4.84-.54 5.5-1.2.724-.724 1.275-4.787 1.389-10.25l.189-9.05.622 9 .622 9 .37-8.5.368-8.5.595 7.5c.494 6.24.73 6.996 1.403 4.5.445-1.65.969-3.527 1.164-4.17.195-.644 1.138-1.056 2.095-.916 1.694.249 3.17 2.681 3.313 5.458.06 1.164-.197 1.164-1.68 0-1.595-1.25-1.625-1.213-.342.42 2.495 3.178 3.338.356 2.671-8.948-.348-4.864-.885-15.895-1.192-24.513-.527-14.763-.447-15.728 1.37-16.701 1.876-1.004 1.948-.285 2.62 26.047.379 14.893 1.14 27.921 1.691 28.95.776 1.45 2.14 1.873 6.034 1.873 4.898 0 5.023.073 4.714 2.75-.284 2.473-.72 2.759-4.328 2.837-8.032.175-9.016 1.93-9.864 17.587-.14 2.571-.842 5.384-1.561 6.25-1.736 2.092-4.765 2.003-5.925-.174zm4.033-7.107c.095-.904.245-2.993.334-4.643.257-4.757 2.458-11.493 3.784-11.579.907-.059.897-.205-.039-.583-.688-.278-1.25-1.142-1.25-1.921 0-1.015-1.292-1.417-4.559-1.417-2.507 0-4.327-.375-4.044-.833.283-.459-.14-.834-.941-.834-.8 0-1.456.375-1.456.834 0 .458.45.833 1 .833s1.014.787 1.032 1.75c.017.963.692 2.624 1.5 3.691.807 1.068 1.468 3.404 1.468 5.191 0 1.788.498 3.558 1.107 3.934.771.477.695.94-.25 1.528-1.07.666-1.107 1.248-.179 2.747.905 1.46.905 2.178 0 3.09-.907.914-.775 1.034.572.521.963-.366 1.827-1.405 1.921-2.309zm-4.826-16.686c-.326-.849-.311-1.824.031-2.167.343-.343.656.24.694 1.293.067 1.832.109 1.828.93-.083.82-1.908.863-1.897.93.25.08 2.555-1.69 3.04-2.585.707zM51 248.5c0-.825.675-1.5 1.5-1.5s1.5.675 1.5 1.5-.675 1.5-1.5 1.5-1.5-.675-1.5-1.5zm-8.084-2.092c-.494-.6-.579-1.412-.188-1.803.391-.39-.063-.414-1.008-.05-.946.362-1.72 1.06-1.72 1.552 0 1.324-3.388 1.082-5.002-.357-1.189-1.06-1.205-.99-.102.47.895 1.185 2.484 1.651 5.108 1.5 2.619-.151 3.53-.562 2.912-1.312zm16.481.759c.283-.459-.12-.834-.897-.834s-1.18.375-.897.834c.283.458.687.833.897.833.21 0 .614-.375.897-.833zm7.73-.917c1.252-1.595 1.214-1.625-.42-.342-1.357 1.066-2.073 1.126-2.95.25-.636-.637-1.603-1.158-2.148-1.158-1.034 0 2.419 2.912 3.519 2.968.345.018 1.245-.755 2-1.718zM52 238.622c0-.207-.685-.946-1.523-1.641-1.273-1.057-1.42-.995-.893.378.538 1.401 2.416 2.384 2.416 1.263zm4.054-21.122l-.978-6 .455 7c.25 3.85.55 10.15.665 14l.211 7 .313-8c.171-4.4-.128-10.7-.666-14zM182.7 270.25c-1.353-3.161-1.708-10.58-2.265-47.25-.407-26.734-1.05-43.982-1.67-44.75-.558-.691-3.19-1.25-5.886-1.25-4.527 0-4.878-.179-4.878-2.481 0-2.676 3.276-4.203 6.951-3.242 2.752.72 6.049-1.951 6.049-4.9 0-1.38.467-3.381 1.038-4.448.57-1.066 1.058-4.524 1.082-7.684.047-5.99 1.867-10.245 4.38-10.245 2.016 0 4.712 4.41 4.397 7.195-.144 1.268.085 5.797.507 10.066.85 8.579 1.782 9.739 7.83 9.739 3.738 0 5.766 1.477 5.766 4.2 0 1.432-.868 1.824-4.25 1.918-2.337.066-4.761.058-5.386-.017-.625-.075-1.416.591-1.757 1.48-.341.89-1.105 18.785-1.697 39.768-.592 20.983-1.458 39.051-1.925 40.151l-.85 2-.083-2c-.07-1.692-.247-1.77-1.148-.5-.76 1.07-.894-4.15-.467-18.25.399-13.128.258-19.75-.419-19.75-.56 0-1.054.563-1.097 1.25-.043.688-.553-.053-1.132-1.646-.915-2.517-.757-3.12 1.206-4.6 2.178-1.643 2.188-1.723.287-2.22-1.824-.477-1.989-1.518-2.193-13.882-.12-7.352-.47-13.6-.776-13.884-.96-.893.812 82.432 1.774 83.432.557.58.913-.689.913-3.25 0-3.536.317-4.2 2.003-4.2 1.799 0 1.946.477 1.442 4.674-1.088 9.062-4.87 11.296-7.746 4.576zm5.99-6c-.251-.963-.457-.175-.457 1.75s.206 2.712.457 1.75c.252-.963.252-2.538 0-3.5zm2-38c-.251-.963-.457-.175-.457 1.75s.206 2.712.457 1.75c.252-.963.252-2.538 0-3.5zm-7.964-4.482c-.223-1.797-.41-.568-.415 2.732-.006 3.3.176 4.77.405 3.268.228-1.503.232-4.203.01-6zm9.567-24c.252-2.602.064-4.488-.417-4.19-.481.297-.84 2.876-.796 5.731.09 5.925.547 5.345 1.213-1.54zm-1.642-8.014c.314-4.124.184-7.737-.29-8.028-.473-.29-1.013 3.364-1.2 8.123-.41 10.466.691 10.396 1.49-.094zm2.073-7.004c-.221-1.788-.403-.325-.403 3.25s.182 5.037.403 3.25c.222-1.788.222-4.713 0-6.5zm-4.425 1.917c.281-.734-.12-1.334-.893-1.334-1.498 0-1.833.906-.738 2 .913.914 1.045.86 1.63-.666zm-6.636-3.917c-.277-.688-.504-.125-.504 1.25s.227 1.938.504 1.25c.278-.688.278-1.813 0-2.5zm2.021 1.063c-.32-.798-.556-.561-.604.604-.043 1.054.193 1.644.525 1.312.332-.332.368-1.195.08-1.917zm3.843-1.62c-.307-.308-1.114 0-1.793.683-.98.988-.865 1.102.56.56.986-.376 1.541-.935 1.233-1.243zm-3.445-2.596c-.64-.771-.76-1.559-.268-1.75.494-.19.123-1.15-.824-2.131-1.643-1.703-1.708-1.662-1.427.896.162 1.475.889 3.058 1.616 3.52 1.932 1.224 2.22 1.053.903-.535zM173 174.5c-.685-.825-1.752-1.464-2.372-1.421-.703.05-.654.27.128.585.691.279 1.002.918.691 1.421-.31.503.192.915 1.116.915 1.382 0 1.46-.268.437-1.5zm18.25-.444c-1.238-1.032-2.25-2.367-2.25-2.966 0-.6-.675-1.09-1.5-1.09-1.623 0-1.623 2.043 0 3.235.595.437.393.788-.5.868-.825.073-.15.477 1.5.897 4.733 1.204 5.152 1.06 2.75-.944zm9 1.238c-1.238-.238-3.263-.238-4.5 0-1.238.239-.225.434 2.25.434s3.487-.195 2.25-.434zm-4.724-3.1c-.307-.309-1.114-.002-1.793.682-.98.988-.865 1.102.56.56.986-.376 1.541-.935 1.233-1.243zm-3.439-1.507c-.598-.598-1.087-1.978-1.087-3.066 0-1.088-.437-3.361-.97-5.05-.534-1.689-1.221-4.715-1.527-6.724-.307-2.01-1.108-3.865-1.78-4.123-.884-.339-1.223 1.271-1.223 5.806 0 3.45-.338 6.067-.75 5.813-.412-.253-.75.24-.75 1.098 0 1.066.95 1.559 3 1.559 2.292 0 3.03.472 3.125 2 .069 1.1.237 2.45.375 3 .138.55.306 1.252.375 1.559.069.307.614.257 1.212-.113.783-.484.783-.976 0-1.759zm-6.008 53.73c.048-1.165.285-1.402.604-.604.289.721.253 1.584-.079 1.916-.332.332-.568-.258-.525-1.312zM45.98 219.5c-.213-3.908-.235-3.931-.981-1-.455 1.786-.811-3.55-.882-13.191-.072-9.847.274-16.433.882-16.809.55-.34 1.007-.029 1.015.691.011.951.28.899.985-.191.77-1.191.979-.986 1.015 1 .04 2.182.175 2.278 1.065.75 1.523-2.614 2.933-2.114 2.82 1l-.1 2.75-.8-2.5c-.534-1.667-.834-1.917-.9-.75-.055.963-.55 1.75-1.1 1.75-.61 0-1.039 4.983-1.1 12.75-.1 12.75-1.447 22.406-1.919 13.75zm3.177-23.5c0-1.375.227-1.938.504-1.25.278.688.278 1.813 0 2.5-.277.688-.504.125-.504-1.25zm-3.714-26c.565-22.596 2.106-29.016 6.334-26.382 3.217 2.005 4.11 7.32 4.095 24.382-.008 10.098-.347 15.724-.873 14.5-.794-1.847-.872-1.809-1.03.5l-.17 2.5-.8-2.5c-.682-2.13-.827-2.204-.98-.5-.1 1.127-.399 1.452-.684.744-.279-.691-.913-1.005-1.41-.699-.52.323-.63-1.43-.257-4.15.472-3.442.335-4.515-.512-3.992-.671.415-1.163 3.312-1.172 6.906-.01 3.867-.34 5.68-.88 4.828-.728-1.151-.96-1.151-1.48 0-.34.75-.421-6.512-.18-16.137zm6.249 5.269c-.254-.973-.478-.419-.498 1.231-.02 1.65.187 2.446.46 1.769.275-.677.292-2.027.038-3zm-.328-25.198c-.458-1.012-.974.21-1.45 3.429-1.165 7.875-1.026 14.465.335 15.927 1.008 1.082 1.306-.511 1.538-8.221.159-5.26-.031-10.27-.423-11.135zM48.213 157c.242-1.65.069-3-.386-3S47 155.35 47 157s.174 3 .387 3c.212 0 .584-1.35.826-3zm.48-7.731c-.254-.973-.478-.419-.498 1.231-.02 1.65.187 2.446.46 1.769.275-.677.292-2.027.038-3zM114 35.196c0-.992 1.575-3.33 3.5-5.196 1.925-1.866 3.485-4.092 3.467-4.946-.025-1.17-.498-.997-1.91.696-3.816 4.573-6.957 1.407-3.5-3.527 1.735-2.479 7.185-3.081 9.243-1.023 2.011 2.011 1.43 7.499-1.05 9.908-1.238 1.202-1.668 1.856-.956 1.453 1.524-.864 4.206 1.088 4.206 3.061 0 1.03-1.646 1.378-6.5 1.378-5.598 0-6.5-.25-6.5-1.804zM119 34c0-.55-.198-1-.441-1s-.72.45-1.059 1c-.34.55-.141 1 .441 1S119 34.55 119 34zm3-4.5c1.292-1.375 2.124-2.5 1.849-2.5-.275 0-1.557 1.125-2.849 2.5-1.292 1.375-2.124 2.5-1.849 2.5.275 0 1.557-1.125 2.849-2.5zm-.536-6.262c1.362.26 2.238.088 1.947-.382-.924-1.496-5.114-.922-6.539.894-1.242 1.585-1.207 1.62.372.382.96-.752 2.858-1.154 4.22-.894zm111.26 367.512c-.222-1.788-.404-.325-.404 3.25s.182 5.037.403 3.25c.222-1.788.222-4.713 0-6.5zM6.73 340.72c-.21-2.321-.38-.17-.376 4.78.003 4.95.175 6.849.381 4.22.207-2.63.204-6.68-.005-9zm.018-86.47c-.158-13.063-.287-2.375-.287 23.75s.13 36.813.287 23.75c.158-13.063.158-34.438 0-47.5zm-1.02-34.978c-.216-2.074-.396-.622-.4 3.228-.005 3.85.172 5.548.393 3.772.22-1.775.224-4.925.008-7zm.006-18.022c-.206-2.612-.375-.475-.375 4.75s.169 7.362.375 4.75.206-6.888 0-9.5zm1.01-41.5c-.177-5.637-.323-1.025-.323 10.25s.146 15.887.324 10.25c.178-5.638.178-14.863 0-20.5zm-.083-14c-.277-.688-.504-.125-.504 1.25s.227 1.938.504 1.25c.278-.688.278-1.813 0-2.5zm.021-35.938c-.32-.797-.556-.56-.604.605-.043 1.054.193 1.644.525 1.312.332-.332.368-1.195.08-1.917zm.024-9.05c-.239-1.244-.444-.462-.455 1.738-.01 2.2.185 3.218.435 2.262s.26-2.756.02-4zm.042-58.447c-.163-10.348-.296-2.165-.296 18.185 0 20.35.132 28.817.295 18.815.163-10.001.164-26.651 0-37zM231.15 10.75c-.98-.981-25.02-1.313-111.858-1.541-60.835-.16-110.966.065-111.4.5-.436.435 46.548.738 104.408.673 88.186-.099 116.166.243 119.65 1.46.248.087-.112-.405-.8-1.092z"/></svg>