<svg xmlns="http://www.w3.org/2000/svg" width="494" height="841" viewBox="0 0 494 841"><path d="M123.75 839.25c67.787-.142 178.713-.142 246.5 0s12.325.258-123.25.258-191.037-.116-123.25-.258zm-91.987-19.042c-6.55-.247-7.902-.6-8.812-2.3-.686-1.28-1.207-14.734-1.443-37.207-.202-19.36-.638-61.526-.968-93.701-.789-76.911-.959-614.902-.197-622 .325-3.025.643-12.873.707-21.884.064-9.094.585-17.415 1.17-18.7.58-1.274 2.336-2.763 3.902-3.309 1.845-.643 80.835-1.033 224.612-1.11 121.971-.065 222.34-.091 223.04-.058 3.329.159 3.458 4.782 3.1 111.061-.344 102.396-.289 309.443.15 561.5.117 67.65.16 123.513.095 124.14-.066.628-1.807 1.45-3.869 1.828-2.063.378-82.95.884-179.75 1.125-96.8.24-193.55.543-215 .672-21.45.13-42.482.104-46.737-.057zm396.737-3.653c22-.11 41.397-.545 43.105-.97l3.105-.77-.272-395.024c-.193-279.413-.586-395.34-1.344-396.097-1.12-1.12-441.3-1.182-445.756-.064-1.206.303-2.416 1.13-2.688 1.84-.902 2.35-2.632 136.791-2.612 203.03.037 122.939 2.004 571.912 2.544 580.5.287 4.565.907 6.867 2.081 7.733 1.535 1.131 151.109 1.065 401.837-.178zM55.798 814c-16.375-.307-27.101-.9-27.734-1.534-2.887-2.892-3.479-718.699-.646-781.466.062-1.375.473-3.068.914-3.763.642-1.01 39.869-1.265 195.985-1.271 107.35-.004 206.658-.111 220.683-.237l25.5-.229.307 185.5c.17 102.025.498 278.65.73 392.5.234 113.85.055 207.584-.395 208.298-.665 1.053-31.348 1.382-162.23 1.736-88.777.241-176.037.557-193.912.702-17.875.145-44.516.039-59.202-.236zm252.839-2.95l160.137-.055.415-2.826c.228-1.555.07-9.092-.35-16.748-.422-7.657-.5-24.046-.175-36.421.62-23.596.605-113.756-.041-233.5-.211-39.05-.471-165.95-.578-282l-.195-211-198.175.097c-108.996.054-207.52.167-218.94.25L29.967 29l-.055 2.75c-.03 1.512-.404 19.625-.831 40.25-.763 36.857-.397 700.664.4 724.895.224 6.817.778 12.765 1.23 13.217 1.138 1.138 18.184 1.42 71.788 1.19 25.3-.108 118.062-.222 206.137-.252zm-192.315-262.8c-7.322-15.924-10.453-24.587-9.832-27.2.333-1.403 1.931-5.773 3.55-9.713 2.352-5.72 2.823-8.054 2.34-11.582-.425-3.099-.124-5.35 1.007-7.537 2.296-4.44 2.39-37.328.113-39.218-.825-.685-1.5-2.26-1.5-3.5 0-1.24.675-2.815 1.5-3.5 2.22-1.843 2.22-39.423 0-41.643-1.917-1.917-1.917-4.797 0-6.714 2.176-2.176 2.148-37.202-.032-40.084-1.87-2.472-1.863-6.278.018-9.884 1.372-2.632 1.229-3.533-2.102-13.175l-3.575-10.35 3.076-7.825a737.915 737.915 0 0 0 5.968-15.825c2.306-6.382 3.338-8.067 5.1-8.33 2.505-.375 4.619 1.968 5.433 6.022.297 1.48 2.64 7.999 5.205 14.486l4.665 11.794-3.119 10.19c-2.376 7.763-2.975 11.244-2.513 14.614.378 2.755.135 5.305-.643 6.76-1.907 3.563-2.298 37.45-.473 40.98 1.144 2.212 1.168 3.453.135 7.083-.868 3.047-1.143 10.093-.895 22.901.197 10.175.295 20.525.218 23-.28 8.984-.047 43.65.333 49.5.236 3.644 1.629 9.053 3.545 13.776 1.736 4.277 3.156 8.81 3.156 10.073s-1.82 6.764-4.044 12.224c-2.224 5.46-4.956 12.29-6.072 15.177-1.692 4.38-2.44 5.25-4.513 5.25-2.126 0-3-1.119-6.049-7.75zm14.745-15.541l3.854-8.792-3.346-8.301c-1.841-4.566-3.645-9.656-4.008-11.311-.557-2.538-1.046-2.936-3.114-2.54-1.755.335-2.453.025-2.453-1.09 0-1.605 1.555-2.975 3.755-3.31.69-.104 1.02.19.733.654-.286.463-.176 1.056.246 1.317.855.529.664-56.271-.192-57.127-.298-.298-.542.658-.542 2.124 0 2.365-.384 2.667-3.393 2.667-2.172 0-3.612-.57-4-1.582-1.204-3.137-.674-39.95.593-41.218 1.53-1.53 5.053-1.547 6.57-.03.892.892 1.386.596 2.085-1.25 1.35-3.567-.084-5.274-4.496-5.352l-3.859-.068v-19.667c0-17.894-.163-19.768-1.81-20.796-1.588-.99-1.685-.897-.794.769 1.501 2.805.648 39.834-.963 41.775-.945 1.139-.967 1.785-.09 2.661 1.643 1.644 1.623 43.892-.023 45.538-.906.906-.896 1.709.043 3.463.897 1.676 1.09 7.604.723 22.27-.781 31.281-.874 32.106-4.588 40.813l-3.339 7.825 1.86 5.175c1.022 2.846 4.065 9.851 6.76 15.568l4.901 10.394 2.517-5.894c1.384-3.242 4.25-9.85 6.37-14.685zM116 496.314c0-.927.978-2.727 2.174-4 1.196-1.272 1.646-2.314 1-2.314-.856 0-1.174-4.974-1.174-18.378 0-20.025.398-21.492 5.487-20.215l2.513.631v16.916c0 9.304-.433 18.054-.962 19.445-.616 1.62-.616 2.744 0 3.125.53.327.962 1.275.962 2.106 0 1.325-.195 1.318-1.571-.059-.865-.864-2.02-1.571-2.566-1.571-1.76 0-4.863 2.036-4.863 3.19 0 .631.798.398 1.829-.535 2.15-1.946 3.771-2.11 4.776-.485.478.773.19.965-.847.567-.903-.346-2.313.219-3.319 1.33-2.154 2.38-3.439 2.473-3.439.247zm6.782-13.29c-.656-1.052-.761-2.516-.261-3.642 1.274-2.868 1.529-24.233.298-24.994-.574-.354-1.435-.024-1.915.734-1.048 1.654-1.214 31.235-.181 32.267.397.398 1.27-.027 1.94-.942.899-1.23.93-2.126.12-3.424zM125 401.7c0-1.276-.811-1.67-3.25-1.582l-3.25.119 3 .763c2.955.752 2.942.765-.833.882-5.126.158-4.415-2.265.792-2.7 4.323-.362 6.644 1.115 4.741 3.018-.933.933-1.2.822-1.2-.5zm-1 23.359c0-16.938-.644-22.063-2.411-19.203-.754 1.22-1.552 33.1-.898 35.894.289 1.238 1.152 2.25 1.917 2.25 1.14 0 1.392-3.427 1.392-18.941zm2.723.691c-.221-1.788-.403-.325-.403 3.25s.182 5.037.403 3.25c.222-1.788.222-4.713 0-6.5zm.006-15.478c-.216-2.074-.397-.622-.401 3.228-.004 3.85.172 5.548.393 3.772.221-1.775.225-4.925.008-7zM124 378.358c0-12.775-.284-16.43-1.25-16.11-.911.304-1.325 4.583-1.527 15.792-.284 15.725.004 18.556 1.77 17.464.61-.377 1.007-7.132 1.007-17.146zm3.21-19.334c.298-2.033.097-2.7-.637-2.107-.59.477-1.973 1.089-3.073 1.36-1.812.445-1.789.502.25.607 1.282.066 2.25.761 2.25 1.616 0 2.564.751 1.648 1.21-1.476zm-11.517-7.755c-.254-.973-.478-.419-.498 1.231-.02 1.65.187 2.446.46 1.769.275-.677.292-2.027.038-3zm12.85-1.961c-.635-4.616-.799-4.82-3.853-4.814-2.358.004-3.449-.584-4.183-2.258-.546-1.245-1.53-2.058-2.185-1.806-.656.252-1.338.022-1.515-.51-.178-.533-.32 1.254-.315 3.97.004 2.715.233 4.922.508 4.905 2.142-.136 3 .478 3 2.146 0 2.897 1.72 3.41 3.696 1.102 2.427-2.835 4.304-2.563 4.304.624 0 1.466.271 2.395.603 2.064.331-.332.304-2.772-.06-5.423zm-.1-17.308c.612-3.287.557-3.382-.896-1.559-.85 1.068-1.547 2.958-1.547 4.2 0 1.243-.726 2.666-1.614 3.163-1.179.66-1.404 1.55-.835 3.3.744 2.29.855 2.22 2.51-1.604.95-2.2 2.023-5.575 2.381-7.5zm2.436 4c-.017-.825-.638.075-1.379 2-1.758 4.566-1.732 6.362.036 2.5.756-1.65 1.36-3.675 1.343-4.5zm-13.661-4.182c-.626-.626-.766.031-.393 1.856.426 2.093.678 2.345.97.97.216-1.021-.044-2.293-.577-2.826zm6.782.091c0-2.17.729-3.235 3.03-4.424 3.315-1.715 4.935-1.288 5.033 1.324.043 1.137.383.892 1.038-.748.536-1.342.672-3.817.302-5.5-.661-3.008-.688-3.02-1.548-.697-.604 1.632-1.414 2.194-2.615 1.815-.957-.301-2.865-.808-4.24-1.125-2.138-.493-2.094-.415.3.535 3.356 1.332 3.087 2.949-.7 4.211-3.634 1.211-5.602-.466-3.845-3.279 1.458-2.335-.025-3.606-1.764-1.51-.68.819-2.306 1.489-3.613 1.489-1.78 0-2.394-.565-2.441-2.25l-.064-2.25-.938 2.341c-.652 1.627-.458 3.991.634 7.75.865 2.975 1.796 5.409 2.07 5.409.272 0 .24-.9-.072-2l-1.158-4.075c-.512-1.797-.21-2.032 2.25-1.75 2.425.277 2.975.927 3.755 4.439.731 3.294 1.279 4.018 2.75 3.633 1.241-.325 1.836-1.406 1.836-3.338zm-3.49-1.925c.346-.56 1.047-.758 1.56-.441 1.386.857 1.128 1.457-.629 1.457-.857 0-1.276-.457-.93-1.016zm-2.931-11.441c1.02-4.069-.08-5.077-1.278-1.171-.613 1.995-.714 3.628-.226 3.628s1.164-1.106 1.504-2.457zm6.671 1.795c-.688-.278-1.311-1.93-1.386-3.671-.107-2.475-.233-2.66-.58-.844-.563 2.957.288 5.2 1.935 5.098 1.003-.062 1.01-.188.031-.583zm4.838-1.588c-3.633-9.404-4.497-10.934-5.142-9.106-.43 1.219-.019 2.305 1.2 3.163 1.193.841 1.854 2.533 1.854 4.75 0 2.372.46 3.443 1.479 3.443 1.124 0 1.27-.54.609-2.25zm-8.583-8.586c-.507-2.022-.835-2.255-1.558-1.112-.504.796-.916 1.898-.916 2.448s.436.325.969-.5c.705-1.091 1.017-.137 1.145 3.5.137 3.911.265 4.262.589 1.612.227-1.864.124-4.54-.229-5.948zm-.936-3.164c.696 0 1.491.563 1.769 1.25.277.688.54-.438.583-2.5.09-4.295 2.088-5.052 3.957-1.5.881 1.675 1.014 1.739.518.25-2.114-6.348-3.175-8.59-3.986-8.421-.776.16-3.332 6.076-5.8 13.421-.497 1.48-.364 1.414.512-.25.65-1.238 1.752-2.25 2.447-2.25zm259.614 245.721C377.37 550.535 367 525.144 367 522.888c0-1.175 1.596-5.67 3.546-9.991 2.809-6.22 3.33-8.262 2.5-9.81-1.507-2.817-1.286-8.387.422-10.646 1.163-1.537 1.475-5.723 1.5-20.132.02-11.084-.359-18.432-.968-18.809-.55-.34-1-2.14-1-4 0-1.86.45-3.66 1-4 1.642-1.015 1.248-39.589-.426-41.796-1.527-2.014-1.065-5.052 1.034-6.794 1.093-.907 1.392-4.946 1.392-18.81 0-16.418-.14-17.776-2-19.368-2.41-2.064-2.664-7.547-.54-11.656 1.365-2.638 1.233-3.365-2-11.03-1.903-4.512-3.46-9.146-3.46-10.297 0-1.15 1.2-5.052 2.668-8.67 1.467-3.619 4.108-10.629 5.87-15.579 3.01-8.465 3.37-9 6.037-9 2.741 0 3.027.511 8.63 15.45 3.187 8.498 5.795 16.407 5.795 17.576 0 1.169-1.143 5.396-2.54 9.393-2.078 5.95-2.42 8.308-1.889 13.01.485 4.285.25 6.516-.926 8.79-1.249 2.415-1.6 6.765-1.685 20.915-.06 9.898.341 19.045.9 20.509.712 1.865.642 3.924-.237 7-1.336 4.671-1.44 35.936-.144 43.49.454 2.648.316 4.376-.385 4.809-1.337.826-1.541 37.163-.213 37.984 1.45.897 1.95 5.6.973 9.14-.764 2.768-.33 4.816 2.615 12.355 1.942 4.97 3.531 9.407 3.531 9.86 0 1.015-9.65 24.643-11.623 28.456-1.51 2.922-4.421 3.62-6.194 1.484zm5.489-6.988c1.195-2.878 3.782-9.077 5.75-13.774 1.968-4.698 3.578-8.986 3.578-9.53 0-.545-1.6-4.783-3.555-9.42-2.416-5.726-3.36-9.245-2.945-10.97l.612-2.539-1.613 2.25c-1.728 2.412-7.207 3.142-9.132 1.217-.711-.711-1.034-.15-1.034 1.8 0 1.559-1.425 5.85-3.166 9.536-1.742 3.686-3.177 7.489-3.189 8.45-.025 2.014 11.08 28.256 11.946 28.23.317-.01 1.553-2.372 2.748-5.25zm-1.18-43.722c.351-.566-.05-.734-.94-.393-1.732.665-2.05 1.382-.611 1.382.518 0 1.216-.445 1.552-.989zm-4.703-1.41c-.709-.77-1.447-1.25-1.64-1.067-.592.564.911 2.466 1.95 2.466.539 0 .4-.63-.31-1.4zM383.5 498c0-2.169-3.901-1.87-4.325.331-.274 1.42.172 1.757 1.986 1.5 1.286-.182 2.339-1.006 2.339-1.831zm1.472-3.534c-1.66-1.999-5.439-1.847-7.051.284-1.127 1.489-1.115 1.563.077.5 2.336-2.083 6.114-1.539 6.77.974.32 1.224.771 1.658 1.002.967.23-.692-.129-1.918-.798-2.725zm2.837-.608c-.997-2.558-1.183-8.48-.781-24.858.29-11.825.223-22.85-.148-24.5l-.675-3-.103 2.75c-.088 2.386-.532 2.767-3.352 2.882l-3.25.131 3.5.737c3.376.71 3.327.741-1.372.868-4.226.115-4.708-.067-3.628-1.368.694-.837.803-1.5.245-1.5-.55 0-1.573.69-2.273 1.534-1 1.204-1.016 2.015-.08 3.764.839 1.568 1.106 8.071.9 21.918-.16 10.828.082 19.314.538 18.856.457-.458.778-9.662.713-20.452l-.118-19.62h8.12l-.273 18.75-.272 18.75-2.5.403-2.5.402 2.5.625c1.521.38 3.058 1.883 3.926 3.838 1.86 4.189 2.58 3.446.883-.91zm-8.059-43.564c1.238-.238 3.263-.238 4.5 0 1.238.239.225.434-2.25.434s-3.487-.195-2.25-.434zm3.574 35.456c.909-3.782.732-29.16-.213-30.628-2.336-3.63-3.111.464-3.111 16.437 0 13.378.26 16.441 1.392 16.441.765 0 1.635-1.012 1.932-2.25zm-5.589-55.5c-.206-2.612-.375-.475-.375 4.75s.169 7.362.375 4.75.206-6.888 0-9.5zM384 425c0-17.68-.518-21.207-2.618-17.81-.904 1.463-1.823 33.22-1.021 35.308.317.826 1.265 1.502 2.108 1.502 1.321 0 1.531-2.605 1.531-19zm-1.5-22c1.155 0 2.598.498 3.207 1.107 1.78 1.78 3.667-2.54 2.258-5.172-.861-1.61-1.407-1.813-2.48-.923-.756.628-2.412.994-3.68.815-2.279-.323-2.311-.52-2.842-17.327l-.537-17-.213 17.25C378.081 392.441 377.62 399 377 399c-1.393 0-1.253 3.347.2 4.8.8.8 1.533.867 2.2.2.55-.55 1.945-1 3.1-1zm1.617-8.75c.478-7.133.653-31.814.23-32.497-.288-.467-1.16-.323-1.936.32-2.152 1.787-2.068 33.927.089 33.927.825 0 1.553-.787 1.617-1.75zm3.589-17.5c-.239-1.238-.434-.225-.434 2.25s.195 3.487.434 2.25c.238-1.238.238-3.263 0-4.5zm.511-14.79c.277-5.417.233-5.518-1.954-4.5-1.594.741-1.81 1.133-.75 1.363 1.116.243 1.524 1.99 1.637 7 .157 7.021.593 5.446 1.067-3.863zM380 359.622c0-.207-.787-.995-1.75-1.75-1.586-1.243-1.621-1.208-.378.378 1.307 1.666 2.128 2.195 2.128 1.372zm3.73-3.226c-.333-.332-1.196-.368-1.918-.08-.797.32-.56.557.605.605 1.054.043 1.644-.193 1.312-.525zm6.293-7.827c-.611-1.852-.864-4.65-.561-6.218l.55-2.851-1.09 2.75c-1.205 3.043-1.64 3.188-5.357 1.775-1.867-.71-2.586-1.73-2.644-3.75-.043-1.526-.307-2.21-.585-1.519-.279.691-.918 1.002-1.421.691-.503-.31-.922.024-.93.744-.012.98-.246.946-.932-.139-.6-.948-.727-.042-.37 2.62.333 2.482.111 4.337-.569 4.757-.613.38-1.114 1.173-1.114 1.765 0 .592.956-.14 2.124-1.624 1.786-2.271 2.695-2.623 5.726-2.214 4.439.598 7.043 3.56 6.46 7.345-.37 2.393-.268 2.54.696 1.018.832-1.314.837-2.666.017-5.15zm-10.793.681c.558-.688 1.995-1.25 3.192-1.25 1.198 0 2.809.563 3.58 1.25 1.192 1.063 1.204.989.077-.5-2.65-3.501-9.211-.826-8.963 3.655.112 2.016.135 2.02.608.095.27-1.1.948-2.563 1.506-3.25zm5.33 3.654c.372-.603.06-1.711-.692-2.464-1.734-1.734-4.398-.263-3.545 1.96.703 1.83 3.23 2.132 4.236.504zm2.76-14.154c1.447-3.49 2.883-9.75 2.237-9.75-1.989 0-3.557 1.666-3.557 3.778 0 1.41-.686 3.322-1.524 4.249-1.504 1.661-1.092 4.973.618 4.973.483 0 1.486-1.462 2.227-3.25zm-4.32-7.64c0-2.695.448-3.154 4.023-4.116 5.046-1.359 6.24-.636 5.538 3.351-.518 2.945-.46 2.905.89-.595 1.262-3.276 1.26-4.224-.018-7.5-.929-2.38-1.278-2.784-.955-1.104.322 1.68.018 2.834-.835 3.16-1.996.767-10.643-1.3-10.643-2.542 0-.59-.867-.29-1.926.669-1.059.958-2.746 1.573-3.75 1.366-1.848-.38-2.018-1.505-.982-6.517.488-2.36.338-2.252-.986.712-2.383 5.335-2.694 9.211-1.045 13.032l1.5 3.474-.536-3.75c-.458-3.198-.26-3.748 1.344-3.735 3.19.026 4.51 1.53 5.081 5.788.466 3.472.757 3.883 1.925 2.715.756-.756 1.375-2.74 1.375-4.408zm-5 3.581c0-.72-.661-2.182-1.47-3.25-1.329-1.755-1.356-1.63-.28 1.309 1.277 3.493 1.75 4.017 1.75 1.941zm11.985-13.441c-.008-.412-.493-1.425-1.076-2.25-.799-1.129-1.187-1.19-1.568-.25-.28.688-1.258 1.282-2.174 1.32-1.33.056-1.263.244.333.93 2.56 1.1 4.504 1.208 4.485.25zM378 317.274c0-3.134-.479-2.772-1.4 1.06-.446 1.858-.322 2.612.36 2.19.572-.353 1.04-1.815 1.04-3.25zm3.984-1.274c.214 2.156.32 2.225.767.5l.519-2 .795 2c.703 1.77.803 1.695.865-.643.039-1.479-.59-2.897-1.43-3.219-2.098-.805-2.144-10.638-.05-10.638.798 0 1.944.787 2.548 1.75.914 1.458.985 1.333.423-.75-.86-3.191-3.45-8.304-3.951-7.803-.51.51-6.472 15.162-6.431 15.803.017.275.675-.625 1.461-2 .903-1.579 1.468-1.947 1.535-1 .073 1.043.388.89 1.031-.5.627-1.353.788.426.499 5.5-.293 5.144-.176 6.4.372 4 .685-3 .835-3.143 1.047-1zm5.7-2.188c-.32-.797-.557-.56-.605.605-.043 1.054.193 1.644.525 1.312.332-.332.368-1.195.08-1.916zm-9-2c-.32-.797-.557-.56-.605.605-.043 1.054.193 1.644.525 1.312.332-.332.368-1.195.08-1.916zm6.98-2.915c-.778-2.073-1.274-2.555-1.497-1.452-.182.908.21 2.304.873 3.103 1.783 2.149 1.916 1.797.623-1.651zM338.157 359c0-1.375.227-1.938.504-1.25.278.688.278 1.813 0 2.5-.277.688-.504.125-.504-1.25zm1.92-.583c.049-1.165.286-1.402.605-.604.289.721.253 1.584-.079 1.916-.332.332-.568-.258-.525-1.312zm-96.828-279.08c-1.989-.802-1.452-5.74 1.023-9.414 1.25-1.855 4.16-4.734 6.467-6.398 5.88-4.24 7.587-10.935 1.826-7.16-3.158 2.07-8.434 2.142-9.207.127-1.632-4.251 6.503-10.042 12.902-9.184 10.72 1.438 11.994 13.197 2.259 20.855l-2.936 2.31 5.458 1.03c4.98.94 5.487 1.281 5.788 3.905.187 1.629-.246 3.24-1 3.718-1.407.892-20.452 1.07-22.58.212zm20.75-3.79c0-1.08-1.58-1.528-6.17-1.75-3.95-.19-6.326-.764-6.6-1.594-.235-.714 1.684-3.189 4.265-5.5 4.473-4.006 7.505-8.327 7.505-10.699 0-.602-1.105-2.2-2.455-3.55-3.123-3.123-8.278-3.283-11.423-.353-2.409 2.244-2.156 4.002.284 1.977 2.249-1.866 9.003-.97 9.424 1.251.693 3.655-.93 6.62-5.376 9.811-4.346 3.121-8.454 8.334-8.454 10.728 0 .763 3.095 1.132 9.5 1.132 7.64 0 9.5-.284 9.5-1.452z"/></svg>