<svg xmlns="http://www.w3.org/2000/svg" width="245" height="420" viewBox="0 0 245 420"><path d="M181.75 418.338c.688-.278 1.813-.278 2.5 0 .688.277.125.504-1.25.504s-1.938-.227-1.25-.504zm10.063-.021c.721-.289 1.584-.253 1.916.079.332.332-.258.568-1.312.525-1.165-.048-1.402-.285-.604-.604zm3.937.02c.688-.277 1.813-.277 2.5 0 .688.278.125.505-1.25.505s-1.938-.227-1.25-.504zm18.04-.078c3.458-.196 8.858-.195 12 .004 3.14.197.31.358-6.29.356-6.6-.002-9.17-.164-5.71-.36zM6.9 408.379c-1.188-1.43-1.439-31.694-1.657-199.585-.177-135.88.069-198.508.785-199.846C7.052 7.035 9.098 7 119.976 7c66.171 0 113.137.374 113.464.904.606.98.861 400.128.257 400.733-.203.202-51 .606-112.882.898-104.722.495-112.612.415-113.915-1.155zm2.445-2.922c-.326-.849-.807-1.329-1.069-1.067-.262.262-.18.957.183 1.543.986 1.596 1.562 1.286.886-.476zM232 406c0-.55-.198-1-.441-1s-.72.45-1.059 1c-.34.55-.141 1 .441 1s1.059-.45 1.059-1zm-3.726-197.202c-.19-107.361-.517-195.375-.728-195.585-.211-.211-48.725-.64-107.81-.951l-107.425-.568-.691 5.903c-.887 7.567-1.89 381.155-1.031 384.153l.644 2.25h217.385zM185 333.335c-9.947-1.435-16.42-5.653-21.041-13.71-4.065-7.086-4.197-16.957-.334-25.114 4.71-9.949 12.865-14.923 24.411-14.89 6.406.018 8.339.458 12.88 2.93 10.22 5.562 16.39 18.128 14.115 28.74-2.05 9.563-7.746 16.661-16.085 20.046-3.97 1.611-10.32 2.522-13.946 1.998zm8.398-5.5c-.226-.365.045-.815.601-1 .557-.184-2.388-.275-6.543-.202-4.155.073-7.87.466-8.255.874-.386.408.368.412 1.674.01 1.307-.402 2.137-.346 1.846.126-.292.471 2.084.857 5.279.857s5.624-.3 5.398-.665zm7.095.176c.35-.566-.051-.734-.941-.393-1.732.665-2.05 1.382-.611 1.382.518 0 1.216-.445 1.552-.989zm-.493-3.105c0-.563.39-.783.866-.489.477.295 1.672-.354 2.657-1.442 1.741-1.925 1.72-1.973-.794-1.765-1.422.118-2.38.546-2.129.952.25.406-.404 1.198-1.454 1.76-1.051.562-2.179 1.72-2.506 2.573-.488 1.273-.24 1.361 1.383.493 1.087-.582 1.977-1.52 1.977-2.082zm-25.146-2.755c-2.351-2.008-4.685-3.52-5.187-3.36-.502.16-.675-.328-.385-1.083.29-.756-.08-1.375-.823-1.375-1.008 0-1.098.474-.355 1.862.548 1.023 1.364 1.634 1.813 1.357.448-.278 1.62.385 2.604 1.472s1.44 1.976 1.012 1.976c-.428 0-.24.648.418 1.44.657.793 1.911 1.166 2.786.83 1.14-.437 1.36-.235.773.715-.56.906-.434 1.086.4.57.835-.515-.128-1.903-3.056-4.404zm20.441 1.77l3.905-1.052-5.324-3.356-5.323-3.357-3.974 2.922c-6.722 4.943-8.82 3.345-6.106-4.649 1.305-3.845 1.367-4.92.32-5.611-.71-.47-2.792-1.805-4.624-2.968-1.832-1.162-3.716-3.066-4.187-4.232-.624-1.546-.872-.54-.919 3.73-.1 9.33 4.264 16.015 12.467 19.095 4.002 1.503 6.612 1.404 13.765-.523zm9.72-8.949c3.107-6.091 2.67-13.493-1.093-18.472-1.662-2.2-4.687-5.01-6.722-6.245-4.096-2.485-8.087-3.102-6.498-1.005.522.688 1.488 3.14 2.148 5.45l1.2 4.202 5.725.299c5.022.262 5.763.568 6.037 2.494.232 1.63-.73 2.884-3.75 4.882-2.234 1.479-4.062 2.906-4.062 3.172 0 1.865 3.58 10.011 4.224 9.613.443-.274 1.698-2.25 2.79-4.39zm2.548 3.799c.341-.342-.083-.518-.942-.392-.86.127-1.842.509-2.184.85-.341.342.083.518.942.392.86-.127 1.842-.509 2.184-.85zm-17.798-5.228c1.342-.407 1.995-1.167 1.603-1.865-.408-.726-.128-.682.727.114 1.104 1.026 1.129 1.452.123 2.073-.948.586-.715 1.265.93 2.709 1.208 1.06 1.83 1.302 1.38.54-.447-.762-.917-2.337-1.043-3.5-.127-1.163-.287-2.629-.357-3.258-.093-.834-1.206-.87-4.114-.132-2.192.557-3.744 1.404-3.448 1.883.296.478-.213.582-1.131.23-1.435-.55-1.336-.837.698-2.03 2.183-1.282 2.198-1.345.2-.807-1.62.435-2.108.173-1.93-1.039.13-.891.833-1.989 1.56-2.439.756-.467 1.088-1.719.774-2.919-.302-1.155-.141-2.353.357-2.661.498-.308.942.254.985 1.249.046 1.05.29 1.284.583.559.278-.687 1.705-1.302 3.171-1.366 1.694-.074 2.028-.283.917-.573-.963-.252-1.75-.901-1.75-1.443s.45-.708 1-.368c.55.34 1 .141 1-.441 0-1.326-.623-1.331-3.066-.024-1.444.773-1.944.71-1.974-.25-.022-.707-.68-.107-1.463 1.333-.982 1.807-2.132 2.547-3.71 2.388-1.258-.127-1.5-.036-.537.201 1.95.481 2.41 2.293.583 2.293-.641 0-.877.29-.524.643.354.353 1.402.015 2.33-.75 1.544-1.274 1.583-1.194.453.925-1.165 2.187-1.37 2.23-3.628.75-4.077-2.671-5.075-1.725-1.426 1.353 3.078 2.597 3.323 3.15 2.212 4.986-1.554 2.568-1.624 3.867-.128 2.371.617-.617 1.734-.887 2.482-.6 1.06.407 1.113.996.242 2.672l-1.117 2.15 2.385-2.135c1.312-1.174 3.405-2.444 4.65-2.822zm19.533 2.124c.281-.734-.078-1.334-.798-1.334-.72 0-1.08.6-.798 1.334.282.733.64 1.333.798 1.333.157 0 .516-.6.798-1.333zM196.85 312c-1.211-3.475-2.94-4.094-2.094-.75.462 1.828 1.9 3.654 2.942 3.735.109.008-.273-1.335-.848-2.985zm11.812-2.25c-.277-.688-.504-.125-.504 1.25s.227 1.938.504 1.25c.278-.688.278-1.813 0-2.5zm4.021.063c-.32-.798-.556-.561-.604.604-.043 1.054.193 1.644.525 1.312.332-.332.368-1.195.08-1.916zm-1.977-5.063c-.239-1.238-.434-.225-.434 2.25s.195 3.487.434 2.25c.238-1.238.238-3.263 0-4.5zm-45.013.519c-.254-.973-.478-.419-.498 1.231-.02 1.65.187 2.446.46 1.769.275-.677.292-2.027.038-3zm23.764 1.8c.317-.512.118-1.213-.44-1.559-.56-.345-1.017.073-1.017.931 0 1.757.6 2.015 1.457.628zm5.649.068c.685 1.08.867 1.092.879.054.008-.72.399-1.072.868-.782.469.29 1.706-.167 2.75-1.015 1.043-.848 1.408-1.303.811-1.01-.597.292-2.735.642-4.75.778-3.617.244-4.36.809-2.935 2.234.401.4.906.2 1.121-.447.28-.837.64-.783 1.256.188zm-31.423-3.325c-.32-.797-.556-.56-.604.605-.043 1.054.193 1.644.525 1.312.332-.332.368-1.195.08-1.917zm45.523-1.76c.237-1.62.064-2.719-.387-2.44-.802.495-1.194 5.388-.432 5.388.212 0 .58-1.326.819-2.947zM193 303.618c0-.211-.9-.62-2-.907-1.1-.287-2-.115-2 .384 0 .498.9.906 2 .906s2-.173 2-.383zm10.382-1.169c.341-.89.173-1.291-.393-.94-.544.335-.989 1.033-.989 1.551 0 1.438.717 1.121 1.382-.61zm-34.033-4.916c.31-.807.064-1.777-.547-2.154-.673-.416-.83-.232-.397.467.392.635.21 1.155-.405 1.155s-.84.45-.5 1c.835 1.35 1.185 1.262 1.85-.468zM184.206 295c.455-1.925 1.273-4.287 1.819-5.25.819-1.444.597-1.747-1.267-1.734-3.278.024-9.648 3.97-12.566 7.783l-2.525 3.3 6.857-.3 6.856-.299zm24.107.913c-.783-.783-1.302-.74-1.855.154-.53.858-.357.989.557.423.996-.615 1.144-.343.596 1.096-.585 1.535-.48 1.667.53.664.907-.9.955-1.554.172-2.337zm-18.425-1.982c-1.365-.844-3.888-.135-3.888 1.093 0 1.344 2.413 1.776 3.797.68 1-.792 1.02-1.199.091-1.773zm-14.533-5.166c-.316-.511-1.859.302-3.43 1.806-1.57 1.504-2.596 3.153-2.28 3.664.316.511 1.859-.302 3.43-1.806 1.57-1.504 2.596-3.153 2.28-3.664zM172 291.5c1.292-1.375 2.574-2.5 2.849-2.5.275 0-.557 1.125-1.849 2.5-1.292 1.375-2.574 2.5-2.849 2.5-.275 0 .557-1.125 1.849-2.5zm34.447 1.415c-.322-.521-.953-.72-1.403-.442-.45.278-1.373-.165-2.053-.984-.68-.819-.93-1.489-.554-1.489.374 0 .398-.457.053-1.016a1.196 1.196 0 0 0-1.641-.39c-.587.362.136 1.825 1.722 3.48 2.461 2.569 5.329 3.19 3.876.84zm-17.022-2.036c-.648-1.049-2.425-.207-2.425 1.149 0 .5.672.651 1.494.336.822-.316 1.241-.984.931-1.485zm-8.504-5.164c-.06-.927-.194-.932-.565-.021-.267.656-1.056.975-1.754.707s-1.269.183-1.269 1.002c0 1.134.437 1.255 1.834.508 1.008-.54 1.797-1.528 1.754-2.196zm17.746 1.88c0-.8-.61-1.17-1.418-.86-1.166.447-1.18.693-.083 1.389.734.465 1.372.852 1.417.86.046.009.084-.616.084-1.389zm-3.174-1.584c.35-.566-.051-.734-.941-.393-1.732.665-2.05 1.382-.611 1.382.518 0 1.216-.445 1.552-.989zM191.5 285c1.437-.617.452-.86-3.5-.86s-4.937.243-3.5.86c1.1.473 2.675.86 3.5.86.825 0 2.4-.387 3.5-.86zM37.282 329.91c-9.555-4.73-14.75-13.413-14.663-24.508.068-8.624 2.623-14.58 8.55-19.936 5.723-5.17 10.093-6.753 18.555-6.722 15.853.058 26.244 10.721 26.266 26.953.015 11.127-4.737 19.005-14.356 23.798-6.716 3.347-18.04 3.54-24.352.416zm8.447-.514c-.332-.332-1.195-.368-1.916-.08-.798.32-.561.557.604.605 1.054.043 1.644-.193 1.312-.525zM39 327.607c0-.216-.698-.661-1.552-.989-.89-.341-1.291-.173-.94.393.586.95 2.492 1.406 2.492.596zm4.526-2.414c-.307-.308-1.114 0-1.793.683-.98.988-.865 1.102.56.56.986-.376 1.541-.935 1.233-1.243zm-8.526.494c0-.172-1.462-1.635-3.25-3.25L28.5 319.5l2.937 3.25c2.738 3.03 3.563 3.71 3.563 2.937zm5.435-.582c.305-.493-.096-1.145-.89-1.45-.963-.369-1.258-.07-.887.896.645 1.68 1.01 1.794 1.777.554zm24.275-4.429c-.115-.597.315-1.106.957-1.13 1.674-.066 2.627-1.246 1.545-1.915-1.123-.694-5.512 3.805-5.83 5.977-.2 1.354.023 1.335 1.654-.14 1.037-.939 1.79-2.195 1.674-2.792zm-8.889 2.236l3.12-1.087-5.082-3.42-5.082-3.42-5.33 3.335-5.332 3.334 2.693 1.067c3.616 1.432 11.177 1.529 15.013.191zM35.5 321c-.83-.917-2.183-1.667-3.008-1.667-1.33 0-1.33.19.008 1.667.83.917 2.183 1.667 3.008 1.667 1.33 0 1.33-.19-.008-1.667zm30.475-7.448c2.323-4.799 2.967-15.096.775-12.392-.688.848-2.938 2.787-5 4.31-3.694 2.726-5.028 6.622-2.75 8.03.55.34 1 2.236 1 4.214 0 3.517.043 3.557 1.975 1.809 1.086-.983 2.886-3.67 4-5.97zm-27.627-.923l1.613-4.872-2.67-2.128c-5.199-4.144-5.799-4.566-6.541-4.597-.412-.018-.75 1.57-.75 3.53 0 3.993 4.81 15.073 5.98 13.774.415-.46 1.48-3.028 2.368-5.707zm9.652-.924c0-.505.583-.695 1.295-.422.757.29 1.355-.289 1.438-1.393.079-1.04-.475-1.89-1.23-1.89s-2.64-.482-4.188-1.07c-2.49-.947-2.613-1.183-1.065-2.05 2.536-1.42 2.15-2.422-1-2.596-2.215-.123-2.374-.004-.816.609 1.51.595 1.639.944.588 1.594-.89.55-1.969.062-3.184-1.439-1.44-1.777-1.838-1.916-1.838-.637 0 .897 1.105 2.135 2.455 2.75 2.372 1.081 2.406 1.236 1 4.601-1.678 4.016-1.866 5.548-.363 2.967.567-.974 1.453-1.51 1.97-1.191 2.098 1.297 3.032-.777 1.253-2.783-1.78-2.007-1.772-2.024.435-.865 2.475 1.299 2.946 3.565 1 4.81-.687.44-1.925 1.674-2.75 2.741-1.201 1.555-.853 1.468 1.75-.438 1.788-1.308 3.25-2.793 3.25-3.298zm6.567 3.545c-.14-.963-1.113-1.915-2.161-2.116-1.874-.36-1.874-.331-.001 1.75 2.31 2.566 2.488 2.596 2.162.366zm14.83.917c.283-.459-.12-.834-.897-.834s-1.18.375-.897.834c.283.458.687.833.897.833.21 0 .614-.375.897-.833zm.727-5.434c-.988-.98-1.102-.865-.56.56.376.986.935 1.541 1.243 1.233.308-.307 0-1.114-.683-1.793zm-13.902-5.793c.361-2.46.088-2.94-1.679-2.94-1.825 0-2.12.611-2.185 4.527-.07 4.254.03 4.431 1.679 2.94.964-.873 1.948-2.91 2.185-4.527zM53 307.059c0-1.132.45-2.059 1-2.059s1 .648 1 1.441-.45 1.72-1 2.059c-.55.34-1-.309-1-1.441zm20.683 1.753c-.32-.797-.556-.56-.604.605-.043 1.054.193 1.644.525 1.312.332-.332.368-1.195.08-1.916zm-44.965-5.548c-.23-1.52-.424-.514-.432 2.236-.007 2.75.18 3.994.418 2.764.237-1.23.243-3.48.014-5zm42.99.498c-.24-1.244-.445-.462-.456 1.738-.01 2.2.185 3.218.435 2.262s.26-2.756.02-4zm-47.015.507c-.254-.973-.478-.419-.498 1.231-.02 1.65.187 2.446.46 1.769.275-.677.292-2.027.038-3zm1.99.543c-.32-.797-.556-.56-.604.605-.043 1.054.193 1.644.525 1.312.332-.332.368-1.195.08-1.916zM50 305c0-.55-.45-1-1-1s-1 .45-1 1 .45 1 1 1 1-.45 1-1zm14.056-3.684c1.332-1.716 1.3-1.726-.573-.184-1.09.897-2.996 1.94-4.233 2.317-1.238.377-2.25 1.117-2.25 1.644 0 1.31 5.314-1.535 7.056-3.777zm-14.618-.081c-.742-.514-.716-1.409.09-2.98.633-1.233 1.52-1.908 1.972-1.5.451.41.492.175.091-.521-.9-1.563-2.591-.655-2.591 1.392 0 1.063-.664 1.344-2.25.95-1.238-.306-1.688-.3-1 .017.688.315 1.25 1.211 1.25 1.99 0 .78.787 1.41 1.75 1.402 1.044-.01 1.322-.312.688-.75zM43.5 300c-.34-.55-2.279-.955-4.309-.9-3.315.09-3.437.18-1.191.9 3.612 1.157 6.215 1.157 5.5 0zm-5.069-3h5.332l1.557-4.729c.856-2.6 1.412-4.872 1.236-5.048-.176-.176-1.592-.001-3.146.389-3.098.778-12.428 9.513-12.38 11.59.019.786.433.608 1.05-.452.77-1.32 2.328-1.75 6.351-1.75zm22.833 2.296c-1.23-.237-3.48-.243-5-.014-1.52.23-.514.425 2.236.432 2.75.007 3.994-.18 2.764-.418zm3.728-3.546c-2.021-3.384-6.831-7.05-10.804-8.235-2.207-.658-2.28-.515-1.618 3.148 1.184 6.556 1.881 7.202 8.189 7.598 3.157.199 5.838.446 5.957.55.12.104-.657-1.273-1.724-3.061zm4.39 1.698c.389-1.014.193-1.304-.563-.836-.781.483-.944.157-.5-1 .39-1.02.257-1.468-.33-1.105-.544.336-.989.134-.989-.448 0-2.232-.18-2.622-2.206-4.778-3.325-3.54-4.172-1.475-.916 2.233 1.62 1.845 3.24 4.284 3.601 5.42.785 2.473 1.116 2.563 1.903.514zm-5.977-7.698L61.5 287.5l2.25 1.905c2.114 1.79 2.705 2.595 1.905 2.595-.19 0-1.202-1.012-2.25-2.25zm-33.165 6.898c.637.394.777.188.345-.51-.85-1.377-2.62-.55-2.506 1.171.056.852.223.834.585-.065.279-.691.988-.96 1.576-.596zM48 293.274c0-3.134-.479-2.772-1.4 1.06-.446 1.858-.322 2.612.36 2.19.572-.353 1.04-1.815 1.04-3.25zm-15.603.893c.283-.459-.12-.834-.897-.834s-1.18.375-.897.834c.283.458.687.833.897.833.21 0 .614-.375.897-.833zm3.003-5.329c-.342-.553-1.15-.46-1.978.227-.77.639-1.14 1.582-.822 2.097.342.553 1.15.46 1.978-.227.77-.639 1.14-1.582.822-2.097zM32 288.5c1.292-1.375 2.124-2.5 1.849-2.5-.275 0-1.557 1.125-2.849 2.5-1.292 1.375-2.124 2.5-1.849 2.5.275 0 1.557-1.125 2.849-2.5zm6.457-.43c.317-.513.193-1.168-.274-1.457-.467-.289-.85.13-.85.931 0 1.686.316 1.833 1.124.525zm21.63-2.383c-.783-.783-1.437-.735-2.337.172-1.003 1.01-.871 1.115.664.53 1.439-.548 1.71-.4 1.096.596-.566.914-.435 1.086.423.557.894-.553.937-1.072.154-1.855zm4.416.318c-.338-.547-1.602-1.477-2.809-2.067-1.89-.924-1.848-.789.306.973 2.8 2.29 3.406 2.555 2.503 1.094zM43.5 285c-.34-.55-1.154-.993-1.809-.985-.716.01-.592.403.309.985 1.921 1.242 2.267 1.242 1.5 0zm12.993.011c.35-.566-.051-.734-.941-.393-1.732.665-2.05 1.382-.611 1.382.518 0 1.216-.445 1.552-.989zm-2.764-1.615c-.332-.332-1.195-.368-1.916-.079-.798.32-.561.556.604.604 1.054.044 1.644-.193 1.312-.525zm-8-2c-.332-.332-1.195-.368-1.916-.079-.798.32-.561.556.604.604 1.054.044 1.644-.193 1.312-.525zm9.521-.058c-.688-.278-1.813-.278-2.5 0-.688.277-.125.504 1.25.504s1.938-.227 1.25-.504zm53.16-148.306c-6.967-3.5-11.124-8.352-13.609-15.883-2.288-6.937-2.262-9.495.17-16.563 2.326-6.763 5.646-11.012 11.71-14.99 3.56-2.334 5.838-2.993 11.623-3.36 3.958-.252 9.046.043 11.306.654 5.373 1.453 12.856 8.122 15.937 14.203 3.445 6.799 3.452 17.001.017 23.78-6.976 13.768-23.31 19.113-37.154 12.159zm15.34.252c-1.512-.23-3.987-.23-5.5 0-1.512.229-.275.416 2.75.416s4.263-.187 2.75-.416zm-.988-1.971c-.956-.25-2.756-.26-4-.02-1.244.239-.462.444 1.738.455 2.2.01 3.218-.185 2.262-.435zM116.5 130c.782-1.266-.542-1.266-2.5 0-1.293.835-1.266.971.191.985.93.008 1.97-.435 2.309-.985zm11 0c-.34-.55-1.379-.993-2.309-.985-1.457.014-1.484.15-.191.985 1.958 1.266 3.282 1.266 2.5 0zm-20.5-.378c0-.207-.787-.995-1.75-1.75-1.586-1.243-1.621-1.208-.378.378 1.307 1.666 2.128 2.195 2.128 1.372zm7-1.122c0-.157-.6-.516-1.333-.798-.734-.281-1.334.078-1.334.798 0 .72.6 1.08 1.334.798.733-.282 1.333-.64 1.333-.798zm16.5.5c-.34-.55-1.154-.993-1.809-.985-.716.01-.592.403.309.985 1.921 1.242 2.267 1.242 1.5 0zm2.107-1.471c-.119-.81-.495-1.75-.836-2.092-.481-.48-.387 1.549.152 3.313.296.965.858-.038.684-1.221zm-5.443-.824l2.665-1.205-4.256-3.162-4.256-3.162-4.74 3.083c-4.71 3.064-4.725 3.092-2.408 4.377 2.92 1.62 9.488 1.655 12.995.069zm11.348-3.527c-.265-.264.255-1.019 1.155-1.676 1.367-1 1.406-1.33.234-2.01-.77-.447-1.088-.465-.706-.041.382.424-.556 1.823-2.084 3.109-1.528 1.285-2.778 3.043-2.778 3.906 0 1.249.477 1.122 2.33-.619 1.28-1.203 2.113-2.404 1.849-2.669zM135 125.622c0-.207.787-.995 1.75-1.75 1.586-1.243 1.621-1.208.378.378-1.307 1.666-2.128 2.195-2.128 1.372zm4.128.628c1.243-1.586 1.208-1.621-.378-.378-1.666 1.307-2.195 2.128-1.372 2.128.207 0 .995-.787 1.75-1.75zM103 125.622c0-.207-.787-.995-1.75-1.75-1.586-1.243-1.621-1.208-.378.378 1.307 1.666 2.128 2.195 2.128 1.372zm7-.622c0-.55-.198-1-.441-1s-.72.45-1.059 1c-.34.55-.141 1 .441 1s1.059-.45 1.059-1zm29.104-10.018c.59-1.935.921-4.753.735-6.263l-.339-2.745-4.65 3.317c-3.335 2.379-4.427 3.725-3.862 4.763.433.795 1.118 3.455 1.523 5.91l.737 4.463 2.392-2.964c1.315-1.63 2.874-4.546 3.464-6.481zm-29.628 1.801l1.706-5.217-4.257-3.63c-2.701-2.303-4.048-4.173-3.686-5.116.314-.818.05-1.487-.584-1.487-1.555 0-.567 12.291 1.258 15.667 1.397 2.582 3.135 5 3.594 5 .145 0 1.03-2.348 1.97-5.217zm17.235 2.898c-1.393-2.125-1.36-2.419.384-3.509 1.048-.654 1.905-1.892 1.905-2.752 0-1.414-.15-1.413-1.571.008-2.068 2.068-2.35 1.984-1.699-.505.299-1.142 1.513-2.446 2.698-2.896 2.822-1.073 4.635-3.32 3.765-4.667-.381-.59-2.38-1.382-4.443-1.762-2.063-.379-3.75-1.145-3.75-1.703 0-.557-.495-.708-1.1-.334-.755.467-.736.001.06-1.487 1.035-1.934.966-2.062-.65-1.193-.996.535-2.597 1.216-3.56 1.514-.962.298-1.743 1.118-1.735 1.823.011.896.307.83.985-.218.828-1.282.972-1.246.985.25.01 1.204-.765 1.75-2.485 1.75-1.375 0-2.5-.45-2.5-1s-1.687-.966-3.75-.924l-3.75.076 3.5 1.27c3.305 1.2 3.372 1.311 1.202 2.006-1.264.405-2.86.362-3.547-.096-.687-.458-.103.178 1.298 1.413 3.002 2.645 4.887 2.997 2.92.544-.91-1.135-.278-.944 1.877.568 2.537 1.779 3.25 1.95 3.25.782 0-.823.702-2.199 1.56-3.056 1.372-1.373 1.966-1.39 4.942-.147 2.198.918 3.503 1.05 3.728.374.19-.571 1.229-.858 2.308-.638 1.744.357 1.572.763-1.538 3.651-4.503 4.182-7.645 5.023-9.52 2.548-1.144-1.512-1.817-1.57-1.41-.121.039.137-.41 1.513-.997 3.057-.671 1.766-.697 2.578-.07 2.19.548-.338.997-.139.997.444 0 .582-.45 1.059-1 1.059s-1 .753-1 1.674c0 1.422.35 1.346 2.314-.5 1.273-1.196 2.875-2.174 3.56-2.174.684 0 .992-.408.684-.907-.308-.498-1.46-.67-2.559-.383-2.142.56-2.758-1.123-.844-2.306.763-.472.88-.27.345.596-.535.865-.418 1.067.344.596.634-.392 2.153-.011 3.377.846 1.223.856 1.82 1.558 1.327 1.558-.493 0 .16 1.125 1.452 2.5 2.942 3.132 3.696 3.211 1.71.18zm-13.378-4.255c-.297-.775.137-1.67.965-1.987 1.79-.687 1.586-3.644-.295-4.271-.91-.303-1.11.11-.645 1.322.372.97.289 2.269-.186 2.887-1.737 2.263-2.128 4.543-.684 3.99.762-.293 1.142-1.166.845-1.941zm28.85-.643c-.717-.717-1.183-.776-1.183-.15 0 1.335 1.183 2.518 1.85 1.85.284-.284-.016-1.049-.667-1.7zm-41.52-3.033c-.278-.688-.505-.125-.505 1.25s.227 1.938.504 1.25c.278-.688.278-1.813 0-2.5zm-1.947-5.5c-.229-1.512-.416-.275-.416 2.75s.187 4.263.416 2.75c.23-1.512.23-3.987 0-5.5zm44.991 2.512c-.239-1.244-.444-.462-.455 1.738-.01 2.2.185 3.218.435 2.262s.26-2.756.02-4zm2.01-1.498c-.23-1.52-.423-.514-.431 2.236-.007 2.75.18 3.994.418 2.764.237-1.23.243-3.48.014-5zm-23.742.311c-1.345-1.345-2.345.017-1.545 2.104.575 1.497.815 1.543 1.582.301.546-.883.531-1.837-.037-2.405zm-21.268-2.813c-.239-1.244-.444-.462-.455 1.738-.01 2.2.185 3.218.435 2.262s.26-2.756.02-4zm40.56-1.847c-.403-1.545-.754-1.746-1.353-.776-.632 1.022.405 2.715 1.742 2.846.086.008-.089-.923-.388-2.07zm-5.538.48c-.332-.331-1.195-.367-1.917-.078-.797.32-.56.556.605.604 1.054.043 1.644-.193 1.312-.525zm1.392-4.145c-1.607-2.964-6.457-6.923-9.878-8.064-3.202-1.068-3.246-1.041-2.668 1.614 1.65 7.581 2.26 8.2 8.082 8.2 4.85 0 5.315-.182 4.464-1.75zm-35.105-.74c.465.287 1.104.105 1.42-.406.315-.51-.192-.816-1.127-.679-.935.137-1.804.784-1.93 1.437-.126.654 0 .724.281.157s.891-.796 1.356-.509zm15.008-3.802l1.814-4.791-2.169.675a94.58 94.58 0 0 0-4.169 1.424c-2.317.867-7.5 5.825-7.5 7.173 0 .503 2.297.78 5.105.613 5.098-.302 5.108-.31 6.92-5.094zM142 99.392c0-.827-1.942-1.295-2.387-.575-.289.467.13.85.931.85.8 0 1.456-.124 1.456-.275zm-22.618-1.944c.341-.89.173-1.291-.393-.94-.544.335-.989 1.033-.989 1.551 0 1.438.717 1.121 1.382-.61zm-12.821-3.515c2.396-2.648.037-3.199-2.433-.569-1.663 1.77-1.813 2.303-.65 2.303.833 0 2.22-.78 3.083-1.734zm-2.561.69c0-.208.787-.996 1.75-1.75 1.586-1.244 1.621-1.21.378.377-1.307 1.666-2.128 2.195-2.128 1.372zm34.043-.98c-1.574-1.574-4.404-1.783-3.115-.23.572.69 1.737 1.254 2.59 1.254 1.056 0 1.223-.326.525-1.024zm2.957.031c0-.179-1.238-1.416-2.75-2.75L135.5 88.5l2.424 2.75c2.266 2.57 3.076 3.209 3.076 2.424zm-27.207-4.186c.161-.132-.425-.516-1.302-.853-1.051-.403-1.35-.217-.879.546.462.748.185.955-.781.584-.875-.335-1.498-.012-1.498.776 0 1.048.467 1.109 2.084.27 1.145-.595 2.215-1.19 2.376-1.323zm19.654.427a1.117 1.117 0 0 0-1.532-.362 1.117 1.117 0 0 0-.362 1.532 1.117 1.117 0 0 0 1.532.362 1.117 1.117 0 0 0 .362-1.532zM130.5 89c.34-.55.168-1-.382-1s-1.278.45-1.618 1c-.34.55-.168 1 .382 1s1.278-.45 1.618-1zm-5.857-1.5c-1.6-1.6-7.147-2.124-6.196-.585.311.503 0 1.142-.69 1.42-.692.28.913.543 3.564.586 4.286.07 4.655-.088 3.322-1.421zM130.5 86c-.34-.55-1.154-.993-1.809-.985-.716.01-.592.403.309.985 1.921 1.242 2.267 1.242 1.5 0zm-13.922-51.914c-2.736-3.024-1.365-5.396 2.671-4.622 2.6.498 2.9.404 1.501-.47-2.023-1.264-2.334-4.585-.5-5.347.687-.286.126-.436-1.247-.334-3.614.27-4.104-3.854-.645-5.43 5.149-2.346 11.217 2.305 8.829 6.768-.691 1.291-.688 2.489.01 3.736.783 1.399.56 2.464-.934 4.474-2.53 3.406-7.18 3.994-9.685 1.225zm8.105-5.273c-.32-.798-.556-.561-.604.604-.043 1.054.193 1.644.525 1.312.332-.332.368-1.195.08-1.916zm-.075-4.386c.355-1.415.164-3.055-.425-3.644-.761-.761-.909-.45-.51 1.078.31 1.182.005 2.822-.677 3.644-.836 1.007-.88 1.495-.137 1.495.606 0 1.394-1.158 1.749-2.573zm107.139 310.877c-.177-5.942-.323-1.354-.324 10.196 0 11.55.144 16.412.322 10.804.178-5.607.179-15.057.001-21zm-.04-16.542c-.239-1.244-.444-.462-.455 1.738-.01 2.2.185 3.218.435 2.262s.26-2.756.02-4zm-.002-10.012c-.238-1.238-.433-.225-.433 2.25s.195 3.487.433 2.25c.239-1.238.239-3.263 0-4.5zm-.022-12.938c-.32-.797-.557-.56-.605.605-.043 1.054.193 1.644.526 1.312.332-.332.368-1.195.079-1.916zm-.021-8.062c-.278-.688-.505-.125-.505 1.25s.227 1.938.505 1.25c.277-.688.277-1.813 0-2.5zm.087-102.5c-.152-18.563-.277-3.375-.277 33.75s.125 52.313.277 33.75c.153-18.563.153-48.938 0-67.5zm-.603-41.367c-.169-7.494-1.146-7.394-1.146.117 0 3.483.284 6.05.631 5.702.348-.347.58-2.966.515-5.819zm-.44-13.133c-.239-1.238-.434-.225-.434 2.25s.195 3.487.434 2.25c.238-1.238.238-3.263 0-4.5zm.017-14c-.221-1.788-.403-.325-.403 3.25s.182 5.037.403 3.25c.222-1.788.222-4.713 0-6.5zM232 107c0-1.1-.173-2-.383-2-.211 0-.62.9-.907 2-.287 1.1-.115 2 .384 2 .498 0 .906-.9.906-2zm-.342-10.75l.146-5.75-.76 5c-.648 4.261-.554 6.5.27 6.5.109 0 .263-2.587.344-5.75zm.035-48.5L231.5 9.5l-11.75-.282c-6.463-.155-11.75.076-11.75.512 0 .437 4.821.923 10.714 1.08 5.893.157 10.915.486 11.16.731.246.246.536 12.037.645 26.203.317 41.112.454 48.256.924 48.256.244 0 .357-17.212.25-38.25zM107 10.27c53.625-.127 98.175-.413 99-.637.825-.223-43.275-.345-98-.27L8.5 9.5 8.377 15l-.124 5.5.624-5 .623-5zm136.079 46.147c.048-1.165.285-1.402.604-.604.289.721.253 1.584-.079 1.916-.332.332-.568-.258-.525-1.312zm.359-28.917c0-14.85.138-21.064.309-13.81.17 7.255.171 19.405 0 27-.17 7.596-.309 1.66-.31-13.19z"/></svg>