<svg xmlns="http://www.w3.org/2000/svg" width="245" height="420" viewBox="0 0 245 420"><path d="M117.5 418.01c64.35-.28 119.25-.236 122 .1 2.75.334-49.9.564-117 .51l-122-.1 117-.51zM6.712 405.57c-2.303-2.304-2.587-9.573-3.182-81.57C2.943 252.984 2.765 6.902 3.3 6.366c.182-.18 33.6-.575 74.265-.876 40.664-.3 91.727-.732 113.473-.958 21.746-.227 40.137-.042 40.87.411 1.087.672 1.314 11.4 1.232 58.19-.055 31.552.345 91.117.89 132.367 1.4 105.918 2.108 204.61 1.486 207.2l-.529 2.198-48.743.105c-26.81.057-54.144.271-60.744.475-6.6.204-35.681.654-64.625 1-46.584.557-52.801.453-54.163-.909zm88.788-2.294c-48.942-.696-87.5-.707-87.5-.026 0 .412 23.963.648 53.25.523 29.288-.125 44.7-.349 34.25-.497zm55.75-.938c-.688-.278-1.813-.278-2.5 0-.688.277-.125.504 1.25.504s1.938-.227 1.25-.504zm5.48.058c-.333-.332-1.196-.368-1.917-.08-.798.32-.561.557.604.605 1.054.043 1.644-.193 1.312-.525zm70.27-.146c.001-.685-51.093-.627-64 .073-3.025.165 10.137.384 29.25.488 19.113.104 34.75-.148 34.75-.561zm6-.25c0-.55-1.238-.955-2.75-.9l-2.75.1 2.5.8c1.375.44 2.612.846 2.75.9.137.055.25-.35.25-.9zM6.922 342.5c-.412-31.9-.795-103.195-.853-158.434-.057-55.239-.382-100.689-.723-101-.34-.311-.331 69.184.02 154.434.549 132.915.96 164.89 2.105 163.28.11-.154-.137-26.38-.549-58.28zM160.5 399.922c26.95-.157 53.834-.47 59.743-.695l10.742-.409-.513-21.659c-.921-38.955-1.674-117.521-2.329-243.159L227.5 10.5l-25.5.156c-14.025.086-63.445.199-109.823.25L7.854 11l.25 137.75c.262 143.66 1.165 249.258 2.145 250.844.555.898 38.509.98 150.251.328zm-121.31-58.1c-3.59-.803-4.259-1.318-4-3.084.21-1.435 1.356-2.39 3.547-2.954 2.03-.523 3.777-1.878 4.684-3.632 2.396-4.632 4.286-5.728 6.47-3.75 1.751 1.584 1.89 1.55 2.468-.612.338-1.26.535-7.015.438-12.79l-.175-10.5-.622 9-.622 9-.32-9c-.244-6.83-.495-8.156-1.04-5.5-.464 2.26-.657.311-.545-5.5.119-6.202.694-9.995 1.85-12.2 2.005-3.826 2.08-6.186.272-8.568-1.257-1.656-1.445-1.61-2.991.75-1.528 2.331-1.529 2.703-.017 5.01 2.016 3.077 1.244 5.553-1.564 5.012-1.163-.224-1.814.024-1.48.565.327.53.962.737 1.41.46.447-.276.784 4.104.749 9.734-.064 10.003-.073 10.045-.426 1.84l-.362-8.396-7.206-7.103C29.676 279.714 28 277.306 28 272.78c0-3.192.428-3.993 2.565-4.806 2.555-.971 9.07-1.274 6.679-.31-3.433 1.383.974 2.335 10.815 2.335 9.059 0 10.941.258 10.941 1.5 0 1.26-2.175 1.5-13.573 1.5-12.121 0-13.539.178-13.25 1.663.286 1.471 2.333 1.674 17.71 1.748 16.977.083 17.404.034 18.19-2.09.732-1.979.516-2.149-2.386-1.874-1.755.165-2.403.101-1.441-.142.963-.244 1.75-.89 1.75-1.434 0-.544-.47-.699-1.044-.344-.574.355-1.613.173-2.31-.405-.695-.578-5.963-1.216-11.705-1.418-9.338-.33-9.103-.36 2.215-.286 6.961.045 12.136-.249 11.5-.653-.636-.404-6.781-.836-13.656-.96l-12.5-.227 10.5-.35c12.834-.427 20.496.411 22.553 2.468 3.157 3.157-.65 11.272-9.055 19.304C55.327 294.852 54 298.824 54 313.438v12.272l5.44 5.145c2.992 2.83 6.094 5.145 6.893 5.145.8 0 1.66.563 1.913 1.25.84 2.287-.382 3.75-3.08 3.687-2.644-.063-2.647-.072-.352-.992 2.269-.91 2.12-3.435-.156-2.652-.637.219-3.122-1.322-5.522-3.424-4.018-3.519-4.529-3.707-6.432-2.374-1.481 1.037-2.43 1.148-3.342.39-1.27-1.053-3.362-.442-3.362.981 0 .682 2.128.656 7.462-.091 1.279-.18 2.102.41 2.365 1.693.365 1.778.232 1.827-1.374.5-1.568-1.294-1.72-1.29-1.283.032.272.825 1.808 1.763 3.412 2.084 2.912.582 2.91.585-.912 1.376-2.107.436-7.282.578-11.5.316-4.219-.262-7.105-.28-6.414-.041.691.24 1.002.847.691 1.35-.328.532 4.594.971 11.744 1.049 9.833.106 11.303.29 7.309.912-6.632 1.033-13.039.955-18.31-.224zm9.727-5.464c.229-.197-.81-.358-2.31-.358-1.562 0-2.461-.427-2.107-1 1.028-1.663-.078-1.124-1.96.956-1.733 1.915-1.69 1.943 2.095 1.358 2.126-.328 4.052-.758 4.282-.956zM53.178 299c.634 0 .77-1.072.35-2.748-.38-1.511-.356-2.414.052-2.005.783.782 5.711-5.792 6.064-8.089.328-2.137 1.356-2.67 1.356-.702 0 1.49.255 1.577 1.524.524.838-.696 1.351-1.438 1.14-1.65-.211-.21 1.128-2.035 2.976-4.052 1.848-2.018 3.36-4.118 3.36-4.668 0-.55-1.118.517-2.485 2.37-2.106 2.854-7.305 5.824-11.015 6.292-.55.07-2.218 2.526-3.707 5.46-1.49 2.933-2.282 5.07-1.762 4.75.557-.346.794 1.179.576 3.716-.202 2.366-.166 3.515.082 2.552.248-.963.918-1.75 1.489-1.75zm.32-7.004c-.57-.922-.418-1.065.517-.486.942.582 1.153.37.73-.731-.614-1.602 1.715-5.779 3.223-5.779 1.348 0 .654 2.375-1.597 5.465-1.538 2.112-2.273 2.503-2.873 1.531zm3.63-3.746c1.243-1.586 1.208-1.621-.378-.378-1.666 1.307-2.195 2.128-1.372 2.128.207 0 .995-.787 1.75-1.75zm-8.762 1.534c-.277-.45-.858-.598-1.29-.331-.432.267-1.83-.626-3.105-1.984-1.276-1.358-1.904-2.485-1.395-2.504 1.494-.058-3.93-2.892-5.576-2.914-1.333-.018-1.333.087 0 .949.825.533 1.073.976.55.985-1.706.027 1.479 2.491 3.236 2.503.94.006 1.717.462 1.727 1.012.035 1.996 1.41 3.1 3.858 3.1 1.375 0 2.273-.367 1.995-.816zm-2.623-5.021c.127-1.687-.05-1.884-.721-.798-.49.792-.668 1.798-.397 2.237.754 1.22.935.988 1.118-1.44zm-2.763-3.287c-.696-.838-1.525-1.264-1.844-.946-.318.318.084.997.893 1.51 2.117 1.338 2.394 1.174.95-.564zm16.412-2.111c2.432-.807 1.797-.97-4-1.03-4.805-.048-6.204.186-4.62.774 1.25.464 2.56 1.592 2.911 2.507.556 1.449.78 1.473 1.728.187.599-.813 2.39-1.91 3.98-2.438zm.134 1.828c-.307-.308-1.114 0-1.793.683-.98.988-.865 1.102.56.56.986-.376 1.541-.935 1.233-1.243zm-12.151-2.395c-.642-1.039-3.375-1.037-3.375.002 0 .44.537 1.337 1.194 1.994.926.926 1.361.926 1.934-.002.407-.658.518-1.555.247-1.994zM34.5 280c-.34-.55-.141-1 .441-1s1.059.45 1.059 1c0 1.482 2.704 1.213 3.295-.327.368-.958-.461-1.294-2.984-1.21-2.456.08-3.911-.482-4.902-1.896-.775-1.107-1.409-1.603-1.409-1.104 0 .5.978 1.95 2.174 3.223 2.258 2.403 3.397 3.047 2.326 1.314zm36.162-9.25c-.277-.688-.504-.125-.504 1.25s.227 1.938.504 1.25c.278-.688.278-1.813 0-2.5zm-24.952.502c-9.253-.226-12.596-.628-12.086-1.452.471-.763.127-.919-1.042-.47-.96.369-2.046.702-2.414.74-.367.039.232.457 1.332.93 1.1.473 7.625.793 14.5.712l12.5-.147zm144.54 70.02c2.063-.216 5.438-.216 7.5 0 2.063.215.375.392-3.75.392s-5.813-.177-3.75-.392zm-14.87-1.724c-.792-2.064.392-3.548 2.833-3.548 1.175 0 3.782-1.828 5.94-4.166l3.847-4.167-.007-15.083c-.008-17.306.272-16.566-9.847-26.099-7.064-6.655-9.146-9.933-9.146-14.4 0-3.402 2.23-5.094 6.684-5.07 2.129.012 2.457.243 1.344.947-2.668 1.687.896 2.11 15.273 1.818 18.093-.37 18.51-2.09.699-2.877l-13.5-.596 15.638.131c11.426.096 16.073.492 17.25 1.47 3.945 3.273.191 13.07-7.187 18.76-8.145 6.279-8.65 7.647-9.04 24.471l-.34 14.64 4.34 4.486c2.386 2.467 5.351 4.798 6.589 5.178 1.527.47 2.25 1.473 2.25 3.124 0 2.099-.447 2.42-3.25 2.333-2.914-.09-3-.17-.824-.777 1.334-.373 2.632-1.296 2.884-2.052.326-.98-.155-1.214-1.676-.816-1.174.307-2.134.178-2.134-.286 0-.465-.787-.848-1.75-.851-.963-.004-3.212-.17-5-.37-1.788-.2-3.25 0-3.25.445 0 .444 1.2.807 2.667.807 4.19 0 2.226.892-3.115 1.415-3.635.356-4.556.189-3.697-.67.63-.63 1.145-1.392 1.146-1.695 0-.923-6.428-.425-8.529.66-1.084.561-2.493.832-3.13.602-1.533-.552-2.675 1.364-1.314 2.205.583.36 2.204-.094 3.603-1.01 3.008-1.972 4.15-1.43 1.845.874-2.019 2.019-7.343 2.129-8.096.167zm19.374-7.007c.943-.362 2.932.3 4.691 1.562 3.054 2.19 3.053 2.188-.359-1.423-3.017-3.193-3.551-3.426-4.594-2-.813 1.112-1.973 1.416-3.722.977-1.73-.434-2.97-.12-3.886.983-1.207 1.454-1.015 1.548 1.886.91 3.026-.664 3.24-.53 3.38 2.12l.15 2.83.408-2.665c.225-1.466 1.145-2.948 2.046-3.294zm-3.413-9.34c.393-2.062.26-3.072-.356-2.692-.542.335-.985 2.007-.985 3.717 0 3.777.5 3.396 1.341-1.026zm.348-15.951c-.251-.963-.457-.175-.457 1.75s.206 2.712.457 1.75c.252-.963.252-2.538 0-3.5zm1.442-4.75c.555 1.287.645.395.253-2.5-.335-2.475-1.015-5.175-1.51-6-.607-1.01-.698-.602-.28 1.25.348 1.536.195 2.75-.346 2.75-.533 0-.847-1.543-.697-3.43.298-3.759-1.355-6.777-3.917-7.153-.904-.133-1.385.176-1.07.687.316.51.97.684 1.455.384.484-.3 1.427.481 2.095 1.734 1.102 2.068 1.06 2.152-.45.906-.915-.755-1.664-1.014-1.664-.576 0 .438-1.149-.283-2.553-1.602-2.253-2.116-2.369-2.534-.984-3.546 1.604-1.173.856-1.668-5.713-3.779-.963-.31-1.75-1.116-1.75-1.794 0-.957.267-.964 1.2-.031 1.572 1.572 2.465 1.516 3.122-.195.4-1.042-.27-1.332-2.644-1.142-1.748.14-3.853-.228-4.678-.816-.825-.588 1.875 2.402 6 6.644 4.125 4.241 7.65 8.164 7.835 8.717.185.552.817.707 1.405.344.588-.364.789-.207.446.347-.545.882-.21 2.354 2.12 9.301.383 1.14.618 1.021.984-.5l.48-2 .861 2zM181 285c0-.55.477-1 1.059-1s.78.45.441 1c-.34.55-.816 1-1.059 1s-.441-.45-.441-1zm19.468 4c4.593-4.202 11.19-12.428 8.742-10.9-1.215.76-2.21 1.707-2.21 2.105 0 .399-.89 1.2-1.977 1.783-1.682.9-1.88.793-1.323-.715.36-.975 1.131-2.09 1.714-2.479.584-.388.12-.635-1.03-.548-1.447.109-1.953.685-1.643 1.87.27 1.037-.39 2.16-1.675 2.849-1.167.624-1.89 1.512-1.605 1.972.545.882-1.266 2.764-2.961 3.078a.91.91 0 0 0-.725 1.16c.15.535-.187.689-.75.34-1.308-.808-1.3.049.03 2.8.978 2.026.949 2.053-.404.375-.802-.995-1.722-1.384-2.044-.863-.322.52.039 1.464.8 2.096.763.633 1.175 2.146.916 3.364-.258 1.217.404.413 1.472-1.787 1.067-2.2 3.17-5.125 4.673-6.5zm-4.04.893c0-.962.242-1.673.536-1.58.295.095 1.58-.565 2.856-1.464 1.648-1.161 1.938-1.789 1-2.163-.876-.35-.92-.555-.129-.607 2.45-.163 2.047 1.561-1.058 4.516-2.558 2.433-3.204 2.695-3.204 1.298zm-1.46-4.532c.018-.627-.77-2.13-1.75-3.34l-1.783-2.202-1.362 2.545c-1.186 2.215-1.139 2.887.36 5.175 1.639 2.5 1.791 2.54 3.113.795.765-1.009 1.405-2.347 1.422-2.973zm2.32-1.366c-.288-1.103 0-2.638.643-3.411 1.47-1.771.568-2.276-4.323-2.42-4.291-.126-4.515.7-.284 1.05 1.465.122 2.613.686 2.551 1.254-.3 2.753.219 5.532 1.031 5.532.499 0 .67-.902.382-2.005zm3.238-2.802c-.307-.308-1.114 0-1.793.683-.98.988-.865 1.102.56.56.986-.376 1.541-.935 1.233-1.243zM184.5 281c-.34-.55-1.041-1-1.559-1s-.941.45-.941 1 .702 1 1.559 1 1.28-.45.941-1zm3.372-3.084c-.828-.514-1.52-.422-1.744.232-.204.596.246 1.467 1 1.936.828.514 1.52.422 1.744-.232.204-.596-.246-1.467-1-1.936zm21.495-2.786c.734-1.16 1-1.16 1.735 0 .477.754.867.92.867.37 0-2.698-2.179-2.989-20.288-2.707-14.148.22-18.718.593-18.414 1.5.261.777 2.973 1.252 7.611 1.332 3.964.07 7.375.294 7.58.5.206.206 4.8.375 10.208.375 7.238 0 10.063-.362 10.7-1.37zm-37.705-2.38c-.277-.688-.504-.125-.504 1.25s.227 1.938.504 1.25c.278-.688.278-1.813 0-2.5zm40.358-2.226c-.696-.838-1.66-1.524-2.142-1.524-.483 0-.09.825.872 1.833 2.062 2.16 3.108 1.906 1.27-.309zm-4.02.726c0-.412-7.087-.75-15.75-.75-8.662 0-16.635-.423-17.717-.94-1.774-.848-1.823-.778-.5.712 1.248 1.405 3.897 1.658 17.717 1.69 8.938.02 16.25-.3 16.25-.712zM60 337.167c0-.642-.675-1.167-1.5-1.167s-1.5-.45-1.5-1 .395-1 .878-1c1.301 0 3.509 2.947 2.765 3.69-.354.354-.643.118-.643-.523zm126.292-68.91c3.735-.192 9.585-.191 13 .003 3.414.195.358.353-6.792.351-7.15-.002-9.944-.16-6.208-.354zm-77.765-121.213c-.364-.59 4.241-.963 11.983-.973 7.893-.01 12.35.346 11.973.957-.779 1.26-23.178 1.275-23.956.016zm25.473-1.53c0-1.015.472-1.365 1.25-.926 1 .564 1 .436 0-.641-.972-1.048-1.517-1.08-2.45-.147-.66.66-2.123 1.193-3.25 1.185-1.616-.012-1.747-.208-.616-.923 1.057-.669.53-1.018-2-1.325l-3.434-.417 3.917-.16c5.009-.205 3.925-1.403-1.401-1.55-2.722-.074-3.892.274-3.587 1.067.249.647-.27 1.772-1.151 2.5-1.262 1.042-1.693 1.057-2.024.073-.231-.688-.865-1.25-1.409-1.25-.543 0-1.667-.68-2.497-1.51-.83-.83-2.006-1.202-2.612-.827-.696.43-.39.962.83 1.44 1.57.614 1.62.77.267.827-.916.038-1.816.455-2 .927-.183.47-2.02 1.166-4.083 1.545-3.336.612-3.75.463-3.75-1.357 0-1.429.65-2.045 2.159-2.045 2.581 0 10.841-8.6 10.841-11.287 0-1.007.412-1.577.915-1.266.503.311 1.142 0 1.42-.69.28-.692.602.768.718 3.243l.21 4.5.737-3.5c.467-2.218.785-2.698.868-1.309.073 1.205.517 2.429.988 2.72.47.29.621-.695.335-2.191-.462-2.422-.046-2.173 3.804 2.28 5.232 6.052 6.949 7.427 9.325 7.468 1.306.023 1.729.664 1.5 2.272-.374 2.62-3.82 3.77-3.82 1.274zm-23.731-2.17c-.677-.274-2.027-.29-3-.037-.973.253-.419.478 1.231.498 1.65.02 2.446-.187 1.769-.461zm11.919-5.057c.77-.938 1.598-.842 3.654.424l2.658 1.637-2.195-2.342c-1.893-2.018-2.422-2.154-3.832-.984-1.26 1.046-2.056 1.095-3.469.213-1.445-.903-2.105-.819-3.115.399-1.057 1.273-1.028 1.507.165 1.336 3.103-.445 3.951.132 4.082 2.78.134 2.7.145 2.705.596.25.253-1.375.908-3.046 1.456-3.713zm-5.11-15.87c.049-1.165.286-1.402.605-.605.289.722.253 1.585-.079 1.917-.332.332-.568-.258-.525-1.312zm5.13-1.093c-.854-.343-.967-.91-.331-1.675.528-.636 1.163-2.73 1.412-4.653.307-2.378.436-1.817.403 1.754-.027 2.887-.082 5.214-.12 5.171-.04-.043-.653-.312-1.364-.597zm-1.672-7.574c-.38-1.788-.835-5.725-1.01-8.75l-.318-5.5.739 5c.572 3.871.801 4.323 1.014 2l.276-3 .697 3c.662 2.847.725 2.77 1.228-1.5.353-3 .081-5.026-.816-6.079-1.587-1.86-1.758-4.548-.346-5.421 1.453-.898 1.225-5.068-.348-6.374-1.028-.853-1.772-.65-3.132.852-1.662 1.836-1.672 2.14-.152 4.461 1.993 3.042 2.07 4.953.257 6.457-.961.798-1.218 2.535-.853 5.773.376 3.333.2 4.432-.625 3.922-.63-.39-1.15-1.92-1.154-3.4-.009-3.574-2.303-6.831-9.3-13.206C100.818 86.635 97 80.755 97 77.063c0-1.11 1.218-2.815 2.706-3.79 2.33-1.527 5.138-1.773 20.25-1.773 20.343 0 22.046.486 22.04 6.285-.005 4.884-2.918 9.57-9.84 15.828-4.832 4.367-5.883 5.97-7.212 11-.855 3.238-1.999 5.806-2.54 5.707-.553-.101-.81 1.327-.586 3.25.508 4.35-.369 4.474-1.282.18zm-2.138-18.141c-.823-2.684-.726-2.594-3.352-3.1-1.847-.356-2.02-.183-1.022 1.02.662.797 1.596 1.206 2.078.908.481-.297.598.182.259 1.065-.538 1.403-.908 1.333-2.912-.55-1.262-1.186-2.134-2.991-1.937-4.013.26-1.355-.57-2.192-3.077-3.099-1.89-.683-3.435-1.826-3.435-2.54 0-.715-.66-1.3-1.465-1.3-2.748 0-4.901-7.156-2.51-8.342.564-.28.451-.395-.25-.256-.701.139-1.418 1.46-1.592 2.936-.26 2.192 1.109 4.151 7.472 10.695 4.284 4.406 8.176 8.7 8.648 9.544 1.295 2.314 3.938-.22 3.095-2.968zM116 98.059c0-.518.445-1.216.989-1.552.566-.35.734.051.393.941-.665 1.732-1.382 2.05-1.382.611zm10.033-.559c1.31-1.787 1.302-1.872-.079-.797-1.296 1.009-1.538.832-1.5-1.097.025-1.265.598-2.964 1.272-3.777.87-1.048.916-1.787.158-2.545-.759-.759-.751-1.664.026-3.116 1.294-2.419.368-3.23-2.41-2.113-1.148.462-1.397.834-.583.875.779.038 1.132.354.785.701-.347.348-.154 1.524.43 2.614.81 1.515.64 2.763-.722 5.292-1.497 2.78-1.57 3.566-.454 4.91.731.88 1.392 1.478 1.47 1.327.077-.15.8-1.174 1.607-2.274zm2.467-4.512c0-.727.625-1.53 1.39-1.784.953-.318 1.134-.031.577.916-.446.76.152.536 1.329-.496 1.492-1.308 1.887-2.368 1.307-3.5-.458-.893-1.044-2.299-1.302-3.124-.29-.926-.67-.46-.991 1.22-.324 1.691-.14 2.483.489 2.095.594-.367.699-.12.254.599-.415.672-1.484.943-2.374.601-.89-.341-1.29-.293-.89.108.401.4-.222 1.742-1.386 2.98-1.943 2.069-1.964 2.229-.259 1.979 1.02-.15 1.856-.867 1.856-1.594zm-15.762-6.678c-.93-.93-2.026-1.356-2.435-.946-.41.41-.083 1.163.726 1.675 2.435 1.54 3.516 1.078 1.71-.73zm23.188.279c.902-1.087.873-1.583-.127-2.16-.715-.412-.965-.381-.558.069.408.45.24 1.422-.372 2.16-.613.738-.889 1.342-.614 1.342s1.027-.635 1.671-1.411zm-15.153-3.185c.43-.184-7.213.296-7.773.488-.275.094.369.829 1.43 1.632 1.71 1.293 2.166 1.262 4-.271 1.139-.953 2.193-1.784 2.343-1.849zM109 84.834c0-.459.75-.834 1.667-.834.916 0 1.42-.247 1.118-.549-.733-.733-5.785.569-5.785 1.49 0 .4.675.726 1.5.726s1.5-.375 1.5-.834zm30.382-2.386c.341-.89.173-1.291-.393-.94-.544.335-.989 1.033-.989 1.551 0 1.438.717 1.121 1.382-.61zm-1.632-1.678c.688-.558 1.25-1.326 1.25-1.706 0-.38-8.55-.663-18.999-.628-10.45.035-19 .375-19 .755-.003 1.54 2.55 1.96 13.537 2.233 6.327.157 11.688.469 11.913.693.772.773 10.05-.333 11.299-1.347zm2.933-2.957c-.32-.798-.556-.561-.604.604-.043 1.054.193 1.644.525 1.312.332-.332.368-1.195.08-1.916zM110 76.343c-6.11-2.035-6.667-2.096-6.667-.733 0 .973 1.227 1.366 4.084 1.311 2.246-.043 3.408-.304 2.583-.578zm26.434-.45c-.466-.753.075-.892 1.69-.435 1.8.51 2.014.424.884-.35-.82-.564-2.62-.782-4-.486-1.74.375-2.1.251-1.173-.402 1.04-.734.874-1.063-.75-1.488-1.147-.3-2.085-.174-2.085.28 0 2.375 1.482 3.988 3.666 3.988 1.538 0 2.197-.413 1.768-1.107zM111.5 74c-2.791-1.2-5.741-1.2-5 0 .34.55 2.054.968 3.809.93 2.69-.06 2.877-.206 1.191-.93zm4.75-1.662c-.688-.278-1.813-.278-2.5 0-.688.277-.125.504 1.25.504s1.938-.227 1.25-.504zm1.5-38.91c-3.422-1.857-3.933-6.428-.719-6.428 1.118 0 2.29.672 2.605 1.494.316.822 1.045 1.203 1.62.848.646-.4.328-1.173-.83-2.02-1.572-1.15-1.677-1.69-.651-3.333 1.696-2.715 1.536-3.226-.644-2.06-2.163 1.159-3.131.503-3.131-2.12 0-2.446 4.68-4.276 7.57-2.96 1.717.783 2.256 2.19 2.804 7.31.638 5.975.528 6.47-1.904 8.591-3.01 2.624-3.114 2.634-6.72.678zm2.25-1.821c0-.216-.698-.661-1.552-.989-.89-.341-1.291-.173-.94.393.586.95 2.492 1.406 2.492.596zm3.881-.964c1.374-1.655.312-8.236-1.1-6.823-.593.592-.45 1.756.387 3.123 1.165 1.906 1.09 2.359-.61 3.618-1.067.791-1.46 1.439-.872 1.439s1.576-.61 2.195-1.357zM232.69 349.25c-.251-.963-.457-.175-.457 1.75s.206 2.712.457 1.75c.252-.963.252-2.538 0-3.5zm.06-67c-.16-11.963-.29-2.175-.29 21.75s.13 33.712.29 21.75c.16-11.963.16-31.538 0-43.5zm-1.431-175c-.244-52.663-.415-96.763-.38-98 .046-1.694-.494-2.242-2.188-2.22-2.01.028-2.063.14-.5 1.05 1.644.958 1.75 6.015 1.754 83.72.003 70.032.57 111.2 1.532 111.2.124 0 .026-43.087-.218-95.75zM5.683 77.812c-.32-.797-.556-.56-.604.605-.043 1.054.193 1.644.525 1.312.332-.332.368-1.195.08-1.916zm0-19c-.32-.797-.556-.56-.604.605-.043 1.054.193 1.644.525 1.312.332-.332.368-1.195.08-1.917zm0-6c-.32-.797-.556-.56-.604.605-.043 1.054.193 1.644.525 1.312.332-.332.368-1.195.08-1.917zm0-36c-.32-.797-.556-.56-.604.605-.043 1.054.193 1.644.525 1.312.332-.332.368-1.195.08-1.916zm1.683-8.047c.72-.466.495-.74-.616-.75-1.274-.01-1.718.733-1.634 2.735.089 2.108.233 2.283.616.75.275-1.1 1.01-2.33 1.634-2.735zm6.903-.42c-.677-.275-2.027-.292-3-.038-.973.254-.419.478 1.231.498 1.65.02 2.446-.187 1.769-.46zm20.981-.007c-.688-.278-1.813-.278-2.5 0-.688.277-.125.504 1.25.504s1.938-.227 1.25-.504zm22 0c-.688-.278-1.813-.278-2.5 0-.688.277-.125.504 1.25.504s1.938-.227 1.25-.504zm38.48-.942c-.333-.332-1.196-.368-1.918-.08-.797.32-.56.557.605.605 1.054.043 1.644-.193 1.312-.525zm7.032-.083c-.956-.25-2.756-.26-4-.02-1.244.239-.462.444 1.738.455 2.2.01 3.218-.185 2.262-.435zm89.059-.062c-15.223-.155-40.423-.156-56 0-15.577.155-3.121.282 27.679.282 30.8 0 43.544-.127 28.321-.282zm51.258 80.166c.048-1.165.285-1.402.604-.604.289.721.253 1.584-.079 1.916-.332.332-.568-.258-.525-1.312zM243.454 39c0-21.175.133-29.837.295-19.25.162 10.588.162 27.913 0 38.5-.162 10.588-.295 1.925-.295-19.25z"/></svg>