<svg xmlns="http://www.w3.org/2000/svg" width="246" height="420" viewBox="0 0 246 420"><path d="M90.776 418.267c2.352-.212 5.952-.209 8 .007 2.048.214.124.387-4.276.384-4.4-.004-6.076-.18-3.724-.391zm16 0c2.352-.212 5.952-.209 8 .007 2.048.214.124.387-4.276.384-4.4-.004-6.076-.18-3.724-.391zm43.474-.016c17.462-.154 46.038-.154 63.5 0 17.462.153 3.175.278-31.75.278s-49.212-.125-31.75-.279zM5.82 406.663c-.844-1.577-1.268-54.19-1.614-200.17C3.81 38.828 3.95 8.288 5.12 7.322 6.12 6.495 34.617 5.996 109 5.504c111.137-.735 123.149-.704 124.187.32.378.371.927 81.001 1.22 179.176.292 98.175.816 187.183 1.164 197.796.69 20.986.051 25.088-3.942 25.337-1.171.073-52.2.254-113.397.401l-111.267.268zm225.722-1.042c.802-.308 1.451-1.136 1.443-1.84-.013-1.023-.177-1.028-.814-.024-.634.998-23.871 1.256-112.543 1.25-61.46-.003-111.536.331-111.282.743.528.855 220.966.727 223.197-.129zM230.3 385c-.111-9.625-.488-97.6-.838-195.5s-.758-178.123-.906-178.274c-.516-.524-106.426-.251-162.816.42l-56.76.676.235 170.589c.13 93.824.375 181.728.545 195.343l.31 24.755 110.215-.255L230.5 402.5zm-72.75-118.25a56.954 56.954 0 0 1-.769-4.75l-.28-2.5-25.5-.713c-70.843-1.98-75-2.352-75-6.707 0-4.333 2.842-4.778 35.012-5.48 16.769-.365 33.413-.856 36.988-1.09 3.575-.235 11.563-.72 17.75-1.078l11.25-.65v-4.769c0-5.628 1.74-7.758 4.936-6.047 1.482.793 2.064 2.092 2.064 4.604 0 7.447 2.4 8.81 17.253 9.804 3.164.212 6.426.945 7.25 1.628 1.912 1.587 1.92 4.402.016 5.983-1.39 1.152-3.22 1.417-16.1 2.329-6.427.455-7.419 1.098-7.419 4.81 0 4.324-1.677 6.876-4.516 6.876-1.725 0-2.59-.663-2.935-2.25zm5.251-5.29c0-1.903-.432-3.46-.959-3.46-.527 0-.634.526-.236 1.17.486.787.178.96-.941.531-1.345-.516-1.664-.005-1.664 2.664 0 1.816.296 3.598.658 3.96 1.322 1.322 3.142-1.495 3.142-4.864zm1.845-5.63c.63-.495 4.23-1.065 8-1.266 3.77-.201 7.643-.41 8.605-.465 1.05-.06 1.75-.899 1.75-2.099 0-1.972-1.715-2.523-6.34-2.037-1.012.106-4.029-.332-6.704-.973-3.901-.936-5.268-1.854-6.913-4.641-1.273-2.158-1.828-4.357-1.465-5.803.321-1.28.098-2.628-.497-2.996-.696-.43-1.081.577-1.081 2.826 0 1.922-.42 4.599-.933 5.95-.872 2.29-1.356 2.437-7.25 2.2-3.475-.14-4.168-.066-1.54.163 2.626.23 4.524.824 4.217 1.32-.307.497-1.331.656-2.276.353-1.377-.441-1.437-.35-.301.456.916.65 2.297.67 3.912.057 3.02-1.148 4.47.004 4.006 3.181-.492 3.358-2.62 3.53-3.113.253-.404-2.688-.429-2.669-.572.441-.083 1.79-.711 3.295-1.4 3.35-.688.054-.125.416 1.25.804 2.812.793 6.922.282 8.645-1.073zm-41.869.443c-2.048-.215-5.648-.218-8-.007-2.352.211-.676.387 3.724.39 4.4.005 6.324-.168 4.276-.383zm-6.276-1.285c7.476-.461 2.387-.552-13.5-.241-14.025.274-25.688.668-25.917.876-.67.607 26.345.172 39.417-.635zm36.993.023c.35-.566-.051-.734-.941-.393-1.732.665-2.05 1.382-.611 1.382.518 0 1.216-.445 1.552-.989zm-82.725-.726c-1.503-.228-4.203-.232-6-.01-1.797.223-.568.41 2.732.415 3.3.006 4.77-.176 3.268-.405zm65.501.06c-.677-.275-2.027-.292-3-.038-.973.254-.419.478 1.231.498 1.65.02 2.446-.187 1.769-.461zM89 252.42c.825-.638 2.175-1.448 3-1.8.825-.353.375-.418-1-.145-1.375.274-8.313.504-15.417.511-7.104.008-12.653.277-12.331.6.322.32 4.559.817 9.416 1.102 4.858.284 9.04.716 9.293.959.816.782 5.493-.033 7.039-1.227zm8 .784c0-1.2-6.755-1.41-7.484-.23-.394.637.904 1.026 3.425 1.026 2.232 0 4.059-.358 4.059-.796zm7.5-.204c1.549-.666 1.042-.875-2.25-.93-2.338-.038-4.25.38-4.25.93 0 1.198 3.711 1.198 6.5 0zm-45.118-1.552c.341-.89.173-1.291-.393-.94-.544.335-.989 1.033-.989 1.551 0 1.438.717 1.121 1.382-.61zm50.347.948c-.332-.332-1.195-.368-1.916-.08-.798.32-.561.557.604.605 1.054.043 1.644-.193 1.312-.525zm7.521-.058c-.687-.278-1.812-.278-2.5 0-.687.277-.125.504 1.25.504s1.938-.227 1.25-.504zm19 0c-.688-.278-1.813-.278-2.5 0-.688.277-.125.504 1.25.504s1.938-.227 1.25-.504zm10.5-.027c-.963-.252-2.538-.252-3.5 0-.963.251-.175.457 1.75.457s2.712-.206 1.75-.457zm1.25-2.346c1.38-.462-10.04-.584-25.5-.273-15.4.31-28.188.73-28.417.936-.87.777 51.536.133 53.917-.663zm-84.27-.57c-.333-.332-1.196-.367-1.917-.078-.798.32-.561.556.604.604 1.054.043 1.644-.193 1.312-.525zm33.02-1.134c-3.163-.198-8.338-.198-11.5 0-3.163.198-.575.36 5.75.36s8.912-.162 5.75-.36zm38.047-1.003c-4.236-.187-11.436-.188-16-.002-4.563.185-1.097.338 7.703.34 8.8 0 12.534-.151 8.297-.338zM34.5 253c-1.052-3.316.416-6.022 8.892-16.387a9273.173 9273.173 0 0 0 15.5-19.014c4.066-5.004 12.923-15.693 19.681-23.752 16.646-19.849 15.802-18.047 10.661-22.745-4.24-3.876-4.772-6.298-1.648-7.497 1.917-.735 5.866.847 8.374 3.355 1.122 1.122 2.779 2.04 3.682 2.04 1.672 0 11.79-8.024 14.165-11.234.892-1.206 2.654-1.766 5.555-1.766 4.758 0 7.05 1.446 15.456 9.75 2.924 2.888 5.712 5.25 6.197 5.25.485 0 2.12-1.147 3.632-2.549 2.077-1.924 3.617-2.475 6.293-2.25 5.054.426 5.343 3.333.721 7.264l-3.568 3.035 17.474 21c9.611 11.55 20.744 24.825 24.74 29.5 14.289 16.715 16.865 20.484 16.514 24.152-.253 2.641-.819 3.418-2.68 3.682-1.858.263-4.298-1.646-11.508-9-12.804-13.062-33.288-34.37-45.264-47.084-5.57-5.912-10.657-10.75-11.306-10.75-.65 0-2.879 1.365-4.954 3.033-4.612 3.706-7.109 3.188-7.109-1.475 0-2.325.838-3.974 3-5.9 1.65-1.47 3-3.138 3-3.706 0-1.975-3.822-8.468-6.403-10.876-1.428-1.334-2.597-3.021-2.597-3.75 0-2.164-1.98-1.509-2.92.965-.48 1.26-1.594 2.89-2.476 3.623-.882.732-1.604 1.881-1.604 2.553 0 .673-.9 2.038-2 3.033-1.1.995-2 2.173-2 2.616 0 .444 1.832 2.62 4.07 4.837 7.046 6.975 3.056 12.608-4.334 6.12l-3.462-3.04-7.348 7.734c-24.581 25.87-53.588 56.129-56.064 58.483-3.449 3.278-7.446 3.637-8.362.75zm2.162-3.25c-.277-.688-.504-.125-.504 1.25s.227 1.938.504 1.25c.278-.688.278-1.813 0-2.5zm6.392-.5l3.446-3.75-3.989 3.5c-2.194 1.925-4.181 3.612-4.417 3.75-.235.138.01.25.543.25.534 0 2.521-1.688 4.417-3.75zm12.302-16.487c4.482-4.336 5.506-3.23 1.144 1.237-2.148 2.2-3.69 4-3.426 4 .264 0 3.618-3.257 7.453-7.237 3.835-3.98 5.285-5.692 3.223-3.804-4.715 4.317-4.971 2.617-.289-1.921 1.904-1.845 3.203-3.773 2.887-4.283-.315-.511-2.015.468-3.776 2.176-1.762 1.707-3.447 2.86-3.745 2.562-.298-.298-1.169.257-1.934 1.233-1.25 1.592-1.223 1.641.268.475 1.005-.785 1.896-.918 2.256-.335.328.53-.473 1.34-1.779 1.799-1.306.46-5.938 5.11-10.293 10.335-10.559 12.667-11.263 14.048-2.27 4.45 4.084-4.358 8.71-9.167 10.28-10.687zM63.5 223c.995-1.1 2.035-2 2.31-2 .275 0-.315.9-1.31 2-.995 1.1-2.035 2-2.31 2-.275 0 .315-.9 1.31-2zM200 249.721c0-.153-3.038-3.19-6.75-6.75l-6.75-6.471 6.471 6.75c6.01 6.27 7.029 7.207 7.029 6.471zm1.85-1.471c-.802-.963-3.73-4.45-6.507-7.75-2.777-3.3-5.606-7.06-6.288-8.357-.89-1.693-1.546-2.052-2.324-1.274-1.705 1.705-3.938-.613-2.742-2.848.704-1.316.442-2.226-1.021-3.55-1.082-.98-1.968-1.416-1.968-.971 0 .445-.9-.005-2-1s-2-1.42-2-.943-2.362-1.365-5.25-4.095l-5.25-4.962 4.91 5.197c2.7 2.858 5.38 5.108 5.954 5 .575-.108 1.066.478 1.09 1.303.026.825.676 1.5 1.446 1.5.77 0 1.57 1.125 1.777 2.5.298 1.98-2.075.106-11.4-9L158.5 207.5l12.378 12.643c6.808 6.953 12.883 12.566 13.5 12.472.617-.094 1.715-.541 2.439-.993.88-.55 1.212-.36 1 .575-.272 1.201 13.742 17.803 15.029 17.803.255 0-.193-.787-.995-1.75zm-19.525-20.908c.362-.362.1-1.374-.584-2.25-1.096-1.406-1.038-1.433.498-.229 1.564 1.227 1.586 3.137.035 3.137-.334 0-.311-.296.05-.658zM39.128 246.25c1.243-1.586 1.208-1.621-.378-.378-.963.755-1.75 1.543-1.75 1.75 0 .823.821.294 2.128-1.372zM200 241.655c0-.19-1.012-1.202-2.25-2.25l-2.25-1.905 1.905 2.25c1.79 2.114 2.595 2.705 2.595 1.905zM47.128 236.25c1.243-1.586 1.208-1.621-.378-.378-.963.755-1.75 1.543-1.75 1.75 0 .823.821.294 2.128-1.372zm148.872.405c0-.19-1.012-1.202-2.25-2.25l-2.25-1.905 1.905 2.25c1.79 2.114 2.595 2.705 2.595 1.905zM51 231.5c1.292-1.375 2.124-2.5 1.849-2.5-.275 0-1.557 1.125-2.849 2.5-1.292 1.375-2.124 2.5-1.849 2.5.275 0 1.557-1.125 2.849-2.5zm140-.826c0-.179-1.238-1.416-2.75-2.75l-2.75-2.424 2.424 2.75c2.266 2.57 3.076 3.209 3.076 2.424zM56.128 225.25c1.243-1.586 1.208-1.621-.378-.378-.963.755-1.75 1.543-1.75 1.75 0 .823.821.294 2.128-1.372zM63 220.5c1.292-1.375 2.124-2.5 1.849-2.5-.275 0-1.557 1.125-2.849 2.5-1.292 1.375-2.124 2.5-1.849 2.5.275 0 1.557-1.125 2.849-2.5zm121 2.122c0-.207-.787-.995-1.75-1.75-1.586-1.243-1.621-1.208-.378.378 1.307 1.666 2.128 2.195 2.128 1.372zM81 209.5c6.858-6.875 12.245-12.5 11.97-12.5-.275 0-6.112 5.625-12.97 12.5-6.858 6.875-12.245 12.5-11.97 12.5.275 0 6.112-5.625 12.97-12.5zm-19.872 9.75c1.243-1.586 1.208-1.621-.378-.378-.963.755-1.75 1.543-1.75 1.75 0 .823.821.294 2.128-1.372zm116.382-1.24c-1.575-1.644-3.09-2.763-3.368-2.486-.277.277-1.885-.737-3.573-2.254-1.872-1.682-1.543-1.119.844 1.445 2.151 2.311 4.238 4 4.636 3.755.398-.247 1.28.222 1.96 1.041.68.819 1.49 1.489 1.8 1.489.311 0-.724-1.345-2.299-2.99zM69 216.5c1.292-1.375 2.124-2.5 1.849-2.5-.275 0-1.557 1.125-2.849 2.5-1.292 1.375-2.124 2.5-1.849 2.5.275 0 1.557-1.125 2.849-2.5zm111 1.174c0-.179-1.238-1.416-2.75-2.75l-2.75-2.424 2.424 2.75c2.266 2.57 3.076 3.209 3.076 2.424zM68.128 214.25c1.243-1.586 1.208-1.621-.378-.378-1.666 1.307-2.195 2.128-1.372 2.128.207 0 .995-.787 1.75-1.75zm.352-4c2.147-2.612 2.87-3.85 1.604-2.75-2.236 1.944-6.58 7.5-5.864 7.5.196 0 2.113-2.138 4.26-4.75zM81 206.292c0-.751-.898.043-5.042 4.458L71.5 215.5l4.75-4.458c2.612-2.452 4.75-4.59 4.75-4.75zm92 6.382c0-.179-1.238-1.416-2.75-2.75l-2.75-2.424 2.424 2.75c2.266 2.57 3.076 3.209 3.076 2.424zM73 208.5c1.866-1.925 3.167-3.5 2.892-3.5-.275 0-2.026 1.575-3.892 3.5s-3.167 3.5-2.892 3.5c.275 0 2.026-1.575 3.892-3.5zm2.563.25l2.937-3.25-3.25 2.937c-1.788 1.615-3.25 3.078-3.25 3.25 0 .773.825.092 3.563-2.937zM175 211.674c0-.179-1.238-1.416-2.75-2.75l-2.75-2.424 2.424 2.75c2.266 2.57 3.076 3.209 3.076 2.424zm-8-2.971c0-.163-1.913-2.076-4.25-4.25l-4.25-3.953 3.953 4.25c3.676 3.952 4.547 4.71 4.547 3.953zM153.471 197.5c-4.244-4.675-7.978-8.5-8.297-8.5-.319 0 1.196 1.913 3.366 4.25 10.013 10.786 11.902 12.75 12.262 12.75.212 0-3.087-3.825-7.33-8.5zm6.87.739c-3.762-4.269-8.12-9.332-9.682-11.25-1.563-1.92-2.443-2.697-1.955-1.73C149.767 187.37 165.886 206 166.649 206c.293 0-2.545-3.493-6.308-7.761zM74.5 203c.995-1.1 1.585-2 1.31-2-.275 0-1.315.9-2.31 2-.995 1.1-1.585 2-1.31 2 .275 0 1.315-.9 2.31-2zm94.5 1.622c0-.207-.787-.995-1.75-1.75-1.586-1.243-1.621-1.208-.378.378 1.307 1.666 2.128 2.195 2.128 1.372zM91.143 187c3.618-5.127 2.372-4.343-1.841 1.16-1.541 2.012-5.21 6.512-8.152 10l-5.35 6.34 6.084-6.5c3.347-3.575 7.513-8.525 9.26-11zm.898 7.318c5.203-5.324 8.109-8.747 6.459-7.605-1.65 1.142-4.53 3.812-6.4 5.932a349.948 349.948 0 0 1-6.953 7.605c-1.954 2.063-3.33 3.75-3.059 3.75.272 0 4.75-4.357 9.953-9.682zM83 200.5c1.292-1.375 2.124-2.5 1.849-2.5-.275 0-1.557 1.125-2.849 2.5-1.292 1.375-2.124 2.5-1.849 2.5.275 0 1.557-1.125 2.849-2.5zm72 2.223c0-.152-3.263-3.415-7.25-7.25l-7.25-6.973 6.973 7.25c6.477 6.734 7.527 7.707 7.527 6.973zm9-4.1c0-.208-.787-.996-1.75-1.75-1.586-1.244-1.621-1.21-.378.377 1.307 1.666 2.128 2.195 2.128 1.372zm-7-.92c0-.163-1.913-2.076-4.25-4.25l-4.25-3.953 3.953 4.25c3.676 3.952 4.547 4.71 4.547 3.953zm-67.437-4.953l2.937-3.25-3.25 2.937c-1.788 1.615-3.25 3.078-3.25 3.25 0 .773.825.092 3.563-2.937zm70.437.924c0-.179-1.238-1.416-2.75-2.75l-2.75-2.424 2.424 2.75c2.266 2.57 3.076 3.209 3.076 2.424zM84.5 191c.995-1.1 1.585-2 1.31-2-.275 0-1.315.9-2.31 2-.995 1.1-1.585 2-1.31 2 .275 0 1.315-.9 2.31-2zm16.5-2.5c1.866-1.925 3.167-3.5 2.892-3.5-.275 0-2.026 1.575-3.892 3.5s-3.167 3.5-2.892 3.5c.275 0 2.026-1.575 3.892-3.5zm14.021-.487c-.655-.405-1.04-1.013-.856-1.35.184-.337-1.1-1.923-2.852-3.524-2.381-2.175-3.321-2.56-3.718-1.525-.293.762-.996 1.386-1.564 1.386-1.6 0-1.215-2.992.469-3.638.825-.317 1.5-1.358 1.5-2.314s.9-2.553 2-3.548c1.1-.995 2-2.274 2-2.84 0-.567.848-1.96 1.885-3.096 2.127-2.33 3.685-6.564 2.414-6.564-.46 0-3.527 2.239-6.817 4.975-3.29 2.736-6.721 4.986-7.625 5-.904.014-1.902.7-2.219 1.525-.316.825-1.264 1.5-2.107 1.5-1.084 0-1.497.948-1.415 3.25.064 1.788.322 2.462.573 1.5.577-2.206 3.102-2.25 5.482-.095 2.095 1.896 2.545 4.184.487 2.476-1.745-1.448-2.975-.218-1.527 1.527.613.738 2.339 1.342 3.836 1.342 1.498 0 3.528.89 4.512 1.976.983 1.087 2.131 1.765 2.55 1.506.419-.259 1.03.23 1.36 1.087.328.857 1.098 1.248 1.71.87.806-.498.784-.893-.078-1.426zm-3.47-2.094c.253-.412-.104-.976-.795-1.255-.782-.315-.831-.536-.128-.585.62-.043 1.625.521 2.234 1.254.835 1.006.753 1.334-.334 1.334-.792 0-1.232-.337-.978-.748zM105.5 177c.34-.55.816-1 1.059-1s.441.45.441 1-.477 1-1.059 1-.78-.45-.441-1zm26.882 7.323c-.318-1.752-.066-2.377.831-2.061.708.25 1.23 1.157 1.161 2.017-.073.907.426 1.351 1.187 1.06.75-.289 1.045-1.219.689-2.172-.544-1.451-.406-1.49 1.063-.295 1.565 1.274 2.148.867 1.768-1.234-.164-.91 2.89-3.552 4.169-3.606.412-.018.75.587.75 1.343 0 .78 1.027 1.375 2.375 1.375 2.362 0 2.364-.01.407-1.968-1.313-1.313-3.575-2.05-6.793-2.215l-4.825-.246 1.668 2.55c.917 1.404 1.144 2.229.503 1.834-.64-.395-1.34-.19-1.555.455-.27.813-.832.7-1.829-.367-1.28-1.37-1.593-1.196-2.842 1.584-.773 1.717-1.494 4.143-1.603 5.389-.185 2.105-.073 2.152 1.567.668 1.118-1.012 1.598-2.518 1.31-4.111zm-2.003 2.298c.127-.86.509-1.842.85-2.184.342-.341.518.083.392.942-.127.86-.509 1.842-.85 2.184-.342.341-.518-.083-.392-.942zM97.5 185.064c1.484-.901 1.549-1.075.25-.67-.99.307-1.784.015-1.829-.675-.044-.688-.32-.566-.63.281-.304.825-1.28 2.4-2.171 3.5-1.562 1.929-1.549 1.943.38.39 1.1-.886 2.9-2.157 4-2.826zm29.882 2.384c.341-.89.173-1.291-.393-.94-.544.335-.989 1.033-.989 1.551 0 1.438.717 1.121 1.382-.61zM90 184.5c1.866-1.925 3.167-3.5 2.892-3.5-.275 0-2.026 1.575-3.892 3.5s-3.167 3.5-2.892 3.5c.275 0 2.026-1.575 3.892-3.5zm50.5 2.5c-.34-.55-.216-1 .274-1 .491 0 .893-.632.893-1.404 0-1.097-.39-1.161-1.783-.292-1.317.823-1.503 1.45-.71 2.405 1.263 1.523 2.216 1.732 1.326.291zm14.5.687c0-.172-1.462-1.635-3.25-3.25l-3.25-2.937 2.937 3.25c2.738 3.03 3.563 3.71 3.563 2.937zm-19.14-12.72l2.36-1.966-6.36-5.999c-3.498-3.299-6.91-5.793-7.584-5.542-.673.251-1.573-.164-2-.922-.427-.758-2.08-1.705-3.675-2.104-2.09-.523-2.699-.401-2.181.436.395.64 1.214.856 1.819.482.715-.442.87-.079.442 1.036-.383 1-.254 1.466.31 1.118 1.34-.829 5.009 1.277 5.009 2.874 0 .72.948 2.167 2.106 3.215 1.159 1.048 2.968 3.592 4.02 5.655 2.193 4.296 2.521 4.394 5.734 1.717zM140 175c.825-.533 1.05-.97.5-.97s-1.675.437-2.5.97c-.825.533-1.05.97-.5.97s1.675-.437 2.5-.97zm11.065-3.695c1.341-1.728 1.313-1.73-.661-.055-1.134.963-2.419 1.75-2.855 1.75-.437 0-.184-.787.561-1.75 1.128-1.456.984-1.434-.854.134-1.215 1.036-1.967 2.274-1.672 2.752.672 1.088 3.622-.437 5.481-2.831zM94.725 171c.083-1.1-.384-2.034-1.037-2.077-.653-.042-1.978-.227-2.943-.412-.965-.184-1.482.105-1.15.643.333.539.857.727 1.165.419.309-.308 1.189.337 1.957 1.433 1.728 2.467 1.822 2.467 2.008-.006zM99 171c0-.55-.787-.993-1.75-.985-1.496.013-1.532.157-.25.985 1.887 1.22 2 1.22 2 0zm52.5-3c-.34-.55-1.154-.993-1.809-.985-.716.01-.592.403.309.985 1.921 1.242 2.267 1.242 1.5 0zm-60.25-1.662c-.688-.278-1.813-.278-2.5 0-.688.277-.125.504 1.25.504s1.938-.227 1.25-.504zM117.479 33.57c-1.364-1.364-2.479-2.964-2.479-3.556 0-1.724 3.1-2.433 5.119-1.172 2.615 1.633 3.303 1.437 1.452-.413-1.974-1.975-1.998-3.328-.071-4.067 2.504-.961 1.676-2.444-.99-1.775-2.796.701-4.611-1.886-2.68-3.818 1.474-1.473 8.318-1.138 9.331.457 1.273 2.006.972 12.224-.411 13.963-.687.864-2.497 1.861-4.021 2.215-2.149.5-3.328.088-5.25-1.834zm7.014-1.559c.35-.566-.051-.734-.941-.393-1.732.665-2.05 1.382-.611 1.382.518 0 1.216-.445 1.552-.989zm.72-11.198c-.801-.801-.948-.516-.539 1.048.31 1.182.063 2.751-.547 3.486-.61.736-.776 1.673-.368 2.083.407.41 1.15-.663 1.648-2.385.607-2.097.543-3.495-.194-4.232zm-117.53 374c-.32-.798-.556-.561-.604.604-.043 1.054.193 1.644.525 1.312.332-.332.368-1.195.08-1.916zm.064-38.063c-.176-6.188-.32-1.125-.32 11.25s.144 17.438.32 11.25c.175-6.188.175-16.313 0-22.5zm224.993-6c-.195-3.438-.355-.625-.355 6.25s.16 9.688.355 6.25c.196-3.438.196-9.063 0-12.5zm-.047-10.481c-.254-.973-.478-.419-.498 1.231-.02 1.65.187 2.446.46 1.769.275-.677.292-2.027.038-3zM6.689 318.25c-.251-.962-.457-.175-.457 1.75s.206 2.712.457 1.75c.252-.963.252-2.538 0-3.5zm.034-17.5c-.221-1.788-.403-.325-.403 3.25s.182 5.037.403 3.25c.222-1.788.222-4.713 0-6.5zm-.06-17c-.278-.688-.505-.125-.505 1.25s.227 1.938.504 1.25c.278-.688.278-1.813 0-2.5zm.081-48.454c-.188-4.288-.343-1.046-.344 7.204-.001 8.25.152 11.758.342 7.796.189-3.963.19-10.713.002-15zM6.69 220.25c-.251-.963-.457-.175-.457 1.75s.206 2.712.457 1.75c.252-.963.252-2.538 0-3.5zM8.255 10.034c7.564.208 74.227-1.183 74.601-1.557.276-.276-16.791-.383-37.927-.24L6.5 8.5l-.007 104-.007 104 .262-103.25c.206-81.609.522-103.243 1.507-103.216zm223.428 47.779c-.32-.798-.556-.561-.604.604-.043 1.054.193 1.644.525 1.312.332-.332.368-1.195.08-1.917zm.035-22.55c-.23-1.52-.424-.513-.432 2.237-.007 2.75.18 3.994.418 2.764.237-1.23.243-3.48.014-5zm-44.95-27.978c-1.503-.228-4.203-.232-6-.01-1.797.223-.568.41 2.732.415 3.3.006 4.77-.176 3.268-.405zm34.035-.03c-5.333-.18-14.333-.18-20-.001-5.667.178-1.303.325 9.697.326 11 0 15.636-.145 10.303-.325zM244.488 159c0-87.175.118-122.838.262-79.25.144 43.587.144 114.912 0 158.5-.144 43.587-.262 7.925-.262-79.25z"/></svg>