<svg xmlns="http://www.w3.org/2000/svg" width="490" height="841" viewBox="0 0 490 841"><path d="M486.813 839.317c.721-.289 1.584-.253 1.916.079.332.332-.258.568-1.312.525-1.165-.048-1.402-.285-.604-.604zm-120.299-18.135c-.174-.175-78.324-.4-173.666-.5-95.341-.1-174.1-.554-175.02-1.01-2.821-1.394-4.85-8.212-4.902-16.473-.026-4.235-.133-13.549-.237-20.699-.104-7.15-.128-49.675-.054-94.5.178-107.851.181-404.188.005-529.5-.131-93.72.334-125.565 1.929-131.918.382-1.525 1.997-3.378 3.798-4.36 2.922-1.593 17.998-1.73 224.071-2.04 121.516-.184 222.399-.06 224.183.275 2.633.494 3.485 1.31 4.514 4.326 1.57 4.6 1.431 469.403-.19 636.717-.565 58.3-1.122 117.34-1.236 131.201-.159 19.11-.523 25.515-1.508 26.5-1.017 1.017-12.168 1.408-51.334 1.799-27.52.275-50.178.357-50.353.182zm99.409-3.762c.475-.506 1.181-40.52 1.57-88.92.388-48.4.865-91.375 1.06-95.5.665-14.115 1.38-194.441 1.578-398.5.181-185.792.055-204.335-1.415-207.75L467.102 23l-7.301-.074c-6.376-.065-195.223-.016-376.156.097-68.199.043-66.126-.178-67.037 7.145-1.002 8.056-1.707 40.17-1.566 71.332.078 17.05.212 183.855.3 370.677l.158 339.676 2.1 2.824c1.785 2.399 2.987 2.898 8 3.323 11.04.936 439.43.372 440.323-.58zm-437.214-3.178c-7.354-.31-7.847-.475-8.787-2.948-1.2-3.155-1.68-757.263-.49-770.294.426-4.675 1.208-9.032 1.738-9.682.585-.719 3.783-1.168 8.146-1.144 11.863.065 146.421-1.05 202.684-1.678 96.866-1.083 227.54-1.446 230.534-.64l2.966.797-.095 13.423c-.052 7.383-.38 99.599-.73 204.924-1.744 525.323-1.933 555.677-3.492 562.935-.568 2.641-1.393 3.611-3.568 4.193-2.66.711-412.121.82-428.906.114zm428.861-2.63c1.875-.72 2.41-21.846 3.04-120.112.313-48.95.725-112.625.916-141.5.19-28.875.481-140.25.647-247.5.166-107.25.532-212.032.814-232.848.282-20.817.239-38.291-.097-38.833-.397-.64-38.915-.796-110.5-.444-189.466.93-288.175 1.65-309.051 2.255-18.36.532-20.204.746-20.636 2.4-.262.998-.555 6.913-.653 13.143-.098 6.23-.39 14.477-.65 18.327-.383 5.667-.391 690.89-.01 731.667.06 6.416.484 12.041.942 12.5.458.458 17.558 1.058 38 1.333 45.183.608 395.535.265 397.238-.389zM139.45 537.063c-.522-.515-6.732-2.973-13.8-5.46-14.167-4.989-15.886-5.984-15.448-8.943.275-1.86 7.453-5.568 16.798-8.679 1.375-.458 4.969-1.766 7.986-2.907 7.023-2.656 7.086-2.653 18.57 1.045 8.854 2.85 10.023 3.009 13.564 1.84 3.014-.994 4.733-1.02 7.743-.12 5.143 1.542 35.386 1.518 40.637-.031 5.494-1.62 5.734-1.63 8-.307 2.627 1.534 36.513 1.012 41.76-.643 2.93-.924 4.267-.915 6.052.04 1.689.904 7.397 1.084 21.74.684 29.584-.824 31.782-1.05 39.448-4.04 4.94-1.927 8.178-2.598 11-2.278 4.28.486 30.133 9.316 32.298 11.031 2.599 2.06.85 4.86-4.298 6.882-31.005 12.181-27.382 11.502-38.984 7.302-6.383-2.31-10.503-3.29-11.892-2.826-2.668.89-7.82.471-9.074-.738-1.402-1.352-38.267-1.182-39.11.18-.428.694-2.007.832-4.308.378-1.998-.395-11.952-.908-22.12-1.14-15.633-.358-19.051-.17-22.132 1.22-2.802 1.264-4.117 1.39-5.696.545-1.275-.683-8.932-1.099-20.21-1.099-16.644 0-18.37.167-20.701 2-2.67 2.1-9.036 2.7-12.089 1.139-1.126-.575-5 .23-11.684 2.429-10.928 3.595-12.628 3.897-14.05 2.496zm14.072-5.595c9.726-3.253 10.724-3.41 12.738-2 3.103 2.174 5.846 1.904 9.725-.958 2.755-2.033 3.386-3.178 3.444-6.25l.071-3.761 18.75-.272 18.75-.272v3.522c0 2.982-.345 3.524-2.25 3.535-8.07.045-32.339 1.348-32.75 1.758-.275.275 7.314.246 16.864-.063 11.421-.369 18.17-.194 19.72.513 1.711.779 2.735.76 3.737-.072.978-.812 11.128-1.14 34.78-1.126 18.37.011 37.667-.228 42.883-.533 7.845-.457 10.043-.252 12.72 1.19 2.759 1.485 3.74 1.561 6.638.513 1.87-.676 4.02-1.07 4.779-.875.758.195 1.041.165.629-.065-.413-.23-.75-1.282-.75-2.336 0-1.727.781-1.917 7.889-1.917h7.888l.681 3.63c.863 4.596-.158 5.603-4.432 4.377-1.866-.535-3.57-.797-3.784-.582-.215.214 2.189 1.14 5.341 2.056 5.69 1.654 5.788 1.647 13.325-1.024 4.175-1.48 9.392-3.51 11.592-4.51 2.2-1.001 5.8-2.564 8-3.473l4-1.653-5.447-2.441c-2.996-1.343-6.596-2.655-8-2.916-1.404-.262-.528.308 1.947 1.267 4.32 1.673 4.384 1.757 1.605 2.087-1.592.188-4.742-.326-7-1.143s-5.3-1.75-6.762-2.076c-1.462-.325-3.38-.867-4.261-1.206-1.178-.452-1.44-.187-.986.996.414 1.08 1.838 1.611 4.32 1.611 2.036 0 4.575.66 5.643 1.468 1.126.852 4.25 1.497 7.441 1.536 5.28.064 5.4.124 3 1.496-1.375.786-3.4 1.49-4.5 1.564-1.74.118-1.695.221.342.793 1.913.538.689 1.276-6.69 4.031-10.1 3.772-12.734 3.626-11.703-.647.363-1.508 1.335-3.258 2.159-3.89.824-.632 1.05-1.307.502-1.5-1.267-.446-3.734-9.56-2.833-10.462.372-.371 3.647.329 7.279 1.555 3.631 1.227 6.836 1.997 7.122 1.712.285-.286-3.134-1.642-7.598-3.013l-8.118-2.493-8.231 2.85c-4.527 1.567-7.739 2.883-7.138 2.925.602.041 3.629-.797 6.727-1.863l5.632-1.938 1.958 2.75c1.076 1.511 2.26 3.958 2.632 5.437.556 2.215.338 2.689-1.234 2.689-1.05 0-2.448-.54-3.108-1.2-.66-.66-1.207-.772-1.215-.25-.008.523-.402.341-.873-.403-.659-1.04-1.336-1.097-2.92-.25-3.225 1.726-9.865 1.398-10.602-.524-.344-.894-.15-2.198.43-2.896.8-.964.503-1.264-1.233-1.246-1.258.014-3.412.028-4.787.032-10.655.032-51.705.66-52.5.804-.55.1-3.363.084-6.25-.035-2.888-.12-5.25.184-5.25.675 0 .49 1.462.933 3.25.985 8.095.234 7.75.065 7.75 3.808v3.5h-20.393c-21.738 0-22.177-.103-20.922-4.904.503-1.922 1.258-2.096 9.098-2.096 4.703 0 8.304-.246 8.003-.548-.52-.518-15.423-1.432-20.786-1.274-1.375.04-13.75.177-27.5.302s-25.86.595-26.911 1.043c-1.287.548-5.422-.345-12.652-2.733l-10.74-3.548-7.348 2.9c-4.042 1.596-8.249 3.294-9.349 3.774-1.1.48-4.133 1.63-6.74 2.557-2.606.926-4.97 2.059-5.254 2.517-.502.812 9.468 4.94 20.494 8.487 3.025.973 5.927 2.164 6.45 2.646 1.358 1.254 1.447 1.236 13.072-2.654zm15.8-2.247c-2.594-.407-4.05-1.991-4.34-4.722-.427-4.02.065-5.454 2.268-6.61 2.213-1.161 2.22-1.147.42.882-2.247 2.532-1.854 6.118.833 7.613 1.818 1.012 1.84.988.25-.257-2.241-1.754-2.242-4.5-.003-6.256 1.576-1.236 1.617-1.203.414.334-1.477 1.887-.805 3.794 1.336 3.794 2.125 0 2.82-1.909 1.344-3.688-1.171-1.412-1.034-1.526 1.164-.966 2.033.517 1.94.368-.508-.81l-3-1.446 2.679-.045c5.127-.086 7.49 5.128 4.352 9.608-1.609 2.296-3.851 3.096-7.208 2.569zm5.638-3.674c.663-.799.995-2.261.739-3.25-.375-1.442-.49-1.362-.583.402-.064 1.21-.904 2.66-1.866 3.22-.963.56-1.243 1.033-.622 1.05.62.016 1.67-.623 2.332-1.422zm137.735-.333c-2.836-3.133-1.444-9.247 2.09-9.185 1.598.029 1.596.1-.035 1.05-.963.56-1.75 1.537-1.75 2.17 0 .84.324.826 1.2-.05.66-.66 1.65-1.2 2.2-1.2.556 0 .467.533-.2 1.2-1.815 1.815-1.444 3.503.905 4.117 1.158.303 1.91 1.143 1.672 1.867-.683 2.072-4.219 2.09-6.082.031zm3.305.407c0-.207-.787-.995-1.75-1.75-1.586-1.243-1.621-1.208-.378.378 1.307 1.666 2.128 2.195 2.128 1.372zm-97.222-.317c-.224-.443-.379-2.374-.343-4.291.047-2.493.564-3.583 1.815-3.824 1.337-.257 1.785.389 1.9 2.737.083 1.69.195 3.63.25 4.31.113 1.394-2.992 2.311-3.622 1.068zm1.911-5.055c-.251-.963-.457-.175-.457 1.75s.206 2.712.457 1.75c.252-.963.252-2.538 0-3.5zm46.233 5c-.65-6.236-.281-8.75 1.328-9.06 1.136-.218 1.75.286 1.75 1.437 0 1.379.267 1.506 1.2.573.846-.846 6.596-1.2 19.48-1.2h18.282l.646 2.573c.355 1.415.22 3-.302 3.52-.52.522-9.575 1.051-20.12 1.178-10.546.126-19.177.566-19.18.979-.003.412-.681.75-1.506.75s-1.535-.338-1.578-.75zm1.771-4.981c-.254-.973-.478-.419-.498 1.231-.02 1.65.187 2.446.46 1.769.275-.677.292-2.027.038-3zm36.557 1.792c.962-.033 1.75-.704 1.75-1.49 0-1.181-2.734-1.418-15.75-1.366-8.663.034-16.284.265-16.937.512-.653.246-.932 1.113-.62 1.926.566 1.475 1.206 1.484 31.557.418zm32.564 4.189c-.257-1.354-1.462-1.796-5.323-1.954l-4.991-.205 4 1.928c4.999 2.41 6.74 2.474 6.314.231zm16.686-.24l5-1.836-5.5.537c-3.025.296-6.159 1.156-6.964 1.913-1.275 1.198-1.21 1.366.5 1.299 1.08-.043 4.214-.904 6.964-1.913zm-148.75-2.913c7.515-.079 9.25-.379 9.25-1.598 0-1.275-2.459-1.492-16.388-1.445-9.014.03-16.66.327-16.991.659-1.638 1.637 1.833 2.773 8.045 2.634 3.759-.085 10.996-.197 16.084-.25zM263 521.5c0-1.28-2.722-1.5-18.5-1.5s-18.5.22-18.5 1.5 2.722 1.5 18.5 1.5 18.5-.22 18.5-1.5zm96 .433c0-.617-.855-.796-2.025-.425-1.33.422-1.93.224-1.75-.577.378-1.676-6.524-3.535-7.067-1.904-.294.88-.654.837-1.355-.164-.777-1.109-.88-1.083-.552.137.227.846 1.896 1.679 3.826 1.91l3.423.41-3 .722c-2.406.578-1.861.745 2.75.84 3.483.071 5.75-.303 5.75-.95zm4.25-.595c-.688-.278-1.813-.278-2.5 0-.688.277-.125.504 1.25.504s1.938-.227 1.25-.504zM342 518.5c0-.825-.69-1.5-1.531-1.5-.843 0-1.769-.618-2.059-1.373-.444-1.157-1.347-1.139-5.718.113-6.46 1.85-8.167 3.26-3.951 3.26 1.728 0 3.42-.45 3.759-1 .937-1.516 5.092-1.196 6.5.5.685.825 1.64 1.5 2.122 1.5.483 0 .878-.675.878-1.5zm-89-1.5c0-1.126-2.077-1.126-6.5 0-2.678.681-2.49.776 1.75.882 2.613.065 4.75-.332 4.75-.882zm-180.65 8.47c-.323-.841.758-5.454 2.401-10.25 7.93-23.14 8.352-23.863 16.426-28.156 6.701-3.564 8.303-4.547 10.573-6.488 1.237-1.059 2.25-2.443 2.25-3.076 0-1.313 3.845-5.047 5.812-5.643 2.478-.752 25.183-27.303 25.186-29.452.002-2.21 2.854-5.405 4.823-5.405.64 0 2.245-1.237 3.567-2.75 1.322-1.512 7.176-8.148 13.008-14.746 6.75-7.637 10.604-12.81 10.604-14.237 0-1.512 1.249-3.03 3.833-4.661 5.286-3.338 27.167-28.757 27.167-31.562 0-2.09 3.7-6.602 7.06-8.61.86-.514 3.06-4.824 4.892-9.577l3.33-8.644 6.609-3.522c3.635-1.937 9.097-5.023 12.137-6.857 3.041-1.834 7.383-4.17 9.65-5.19l4.12-1.856 11.35 5.572c15.63 7.673 17.843 9.694 21.723 19.837 3.612 9.442 4.55 10.85 8.351 12.531 1.498.662 3.365 2.682 4.15 4.488 1.726 3.973 24.102 29.698 26.457 30.418 3.477 1.062 4.686 2.16 5.171 4.693.446 2.334 6.599 9.82 21.858 26.599 2.714 2.984 6.444 6.137 8.288 7.005 2.245 1.057 3.47 2.405 3.706 4.074.48 3.402 26.397 31.995 29 31.995.61 0 1.979 1.708 3.044 3.795 1.254 2.458 3.639 4.774 6.77 6.572 13.87 7.964 13.48 7.592 16.4 15.633l4.784 13.17c3.76 10.347 4.04 13.83 1.118 13.83-2.062 0-9.278-3.657-23.13-11.72l-7.66-4.46-4.256-10.396c-2.845-6.95-4.886-10.595-6.158-10.999-1.046-.332-2.717-1.944-3.713-3.581-3.385-5.566-27.299-31.844-28.979-31.844-2.194 0-4.072-1.944-4.072-4.216 0-1.553-7.909-10.882-24.19-28.534-2.156-2.337-4.5-4.25-5.21-4.25-1.75 0-4.6-3.28-4.6-5.294 0-2.532-26.826-32.706-29.077-32.706-.456 0-1.53-1.462-2.387-3.25-1.167-2.432-4.081-4.712-11.588-9.063-10.903-6.32-11.685-7.346-16.401-21.547-.972-2.926-2.085-4.942-2.473-4.48-.759.903-2.46 5.076-6.225 15.266-2.098 5.677-2.897 6.702-6.862 8.797-11.02 5.824-14.987 8.392-14.987 9.7 0 .774-2.125 3.278-4.723 5.564-7.127 6.274-27.128 30.032-28.318 33.638-.636 1.927-2.106 3.61-3.752 4.294-4.674 1.944-27.207 28.32-27.207 31.847 0 2.438-2.483 5.234-4.648 5.234-1.66 0-3.753 2.02-13.231 12.761-9.048 10.254-12.061 14.438-12.093 16.793-.015 1.13-1.624 3.601-3.576 5.492-3.411 3.307-6.452 8.15-6.452 10.279 0 .559-1.415 4.017-3.145 7.684l-3.144 6.668-14.297 7.161c-14.605 7.317-18.03 8.328-19.064 5.632zm18.966-8.734c6.5-3.305 12.433-6.96 13.185-8.122.753-1.163 2.956-6.066 4.896-10.895 2.365-5.89 4.692-9.88 7.065-12.118 1.946-1.836 3.538-4.307 3.538-5.491 0-1.185 1.895-4.282 4.21-6.882l4.212-4.728-4.003 3.75c-4.275 4.005-6.459 4.612-8.358 2.323-1.869-2.251-6.779.02-9.557 4.42-1.594 2.525-4.93 5.236-10.187 8.278-4.3 2.487-8.76 5.582-9.911 6.876-1.917 2.153-9.19 20.45-10.805 27.183-.624 2.599-.492 2.772 1.61 2.122 1.259-.39 7.606-3.412 14.105-6.716zm-10.048 2.132c-.843-.843-.59-1.865.988-4C83.422 513.29 84.9 512 85.542 512c1.693 0 6.829-4.98 5.26-5.1-.716-.054-.177-.46 1.198-.9l2.5-.8-2.5-.132c-2.296-.12-2.357-.24-.75-1.46.963-.73 1.75-2.066 1.75-2.968 0-.94.805-1.64 1.883-1.64 1.082 0 2.121-.908 2.441-2.132.41-1.567 1.104-1.99 2.617-1.594 1.132.296 2.093.243 2.136-.118.529-4.54 3.44-8.156 6.565-8.156 2.645 0 2.632 3.106-.039 9.914-3.568 9.094-4.685 10.512-7.561 9.6-1.79-.57-1.997-.928-.924-1.608.76-.481.915-.882.345-.89-.57-.009-1.103-.89-1.184-1.96-.098-1.306.323-1.762 1.287-1.392.789.302 1.46 1.514 1.492 2.693.06 2.259 4.456-6.553 5.638-11.304.57-2.291.465-2.412-1.03-1.18-.916.754-1.666 2.147-1.666 3.094 0 2.097-3.503 5.458-4.832 4.637-.527-.326-1.214.072-1.525.885a1.578 1.578 0 0 1-2.028.917c-.843-.324-1.902.261-2.501 1.381-.904 1.69-.518 2.178 2.964 3.748 2.551 1.15 3.895 2.37 3.704 3.36-.245 1.269-15.921 11.013-17.832 11.084-.302.012-1.06-.488-1.682-1.111zm12.083-7.39c3.742-2.15 4.506-2.978 3.346-3.628-1.07-.599-2.514.167-5.001 2.654-1.923 1.923-4.146 3.496-4.941 3.496-.795 0-2.302.984-3.35 2.186l-1.905 2.186 3.5-2.055c1.925-1.13 5.683-3.307 8.35-4.84zm-13.308 1.83c-.08-4.056 5.094-16.429 6.733-16.106 4.805.948 3.705 6.456-2.76 13.821-3.38 3.85-3.937 4.17-3.973 2.284zm4.79-6.558c1.751-3.163 2.824-5.75 2.384-5.75-.75 0-6.217 10.28-6.217 11.689 0 .913.27.496 3.833-5.939zm11.417-2.412c-1.484-.6-1.69-3.338-.25-3.338.55 0 1 .477 1 1.059s.375.827.833.544c.459-.283.834.14.834.941 0 1.52-.341 1.631-2.417.794zm-4.5-8.418c-.963-.56-1.75-1.652-1.75-2.425 0-1.418 12.597-9.495 14.808-9.495 2.454 0 1.036 2.887-3.863 7.864-5.24 5.323-6.253 5.77-9.195 4.056zm12.25-9.726c.275-.256-.437.021-1.582.616-1.145.594-2.623 1.732-3.283 2.528-.66.796-2.567 2.012-4.236 2.704-2.117.877-2.649 1.495-1.76 2.044 1.103.681 3.57-1.111 10.861-7.892zm9-2.026c0-.973.559-2.327 1.242-3.01.988-.988.938-1.452-.25-2.276-1.32-.915-1.319-.985.008-.61.848.24 1.485 1.542 1.466 3-.018 1.419.319 2.36.75 2.094 1.617-.999.7-5.18-1.466-6.692-1.238-.863-1.705-1.593-1.04-1.622 2.442-.105 5.114 3.96 4.387 6.675-.843 3.153-5.097 5.19-5.097 2.44zm-4.397-5.001c-.283-.459.14-.834.941-.834.8 0 1.456.375 1.456.834 0 .458-.423.833-.941.833s-1.173-.375-1.456-.833zm308.932 41.083c-.373-.963-2.63-6.925-5.015-13.25s-4.637-12.251-5.004-13.17c-.368-.918-4.694-3.993-9.614-6.832-7.068-4.08-9.361-5.978-10.927-9.047-1.09-2.136-2.993-4.423-4.228-5.081-1.236-.659-4.947-3.98-8.247-7.38-4.349-4.48-4.693-4.726-1.25-.895 2.612 2.907 4.75 5.803 4.75 6.435 0 1.373-4.022 4.89-5.646 4.937-.63.018-2.53-1.542-4.22-3.467s-3.38-3.5-3.756-3.5c-.375 0 1.749 2.637 4.72 5.86 2.971 3.223 6.21 7.048 7.199 8.5.988 1.452 2.389 2.64 3.113 2.64 1.203 0 4.291 6.088 7.61 15 1.389 3.729 4.726 8 6.25 8 .507 0 2.116.846 3.576 1.881 3.433 2.433 19.393 11.068 20.511 11.097.471.012.552-.765.178-1.728zm-28.353-26.563c-3.333-3.438-4.185-6.687-1.755-6.687 1.548 0 7.599 6.81 7.532 8.478-.023.562-1.823-.948-4-3.357-2.177-2.408-3.959-4.111-3.959-3.784 0 .326 1.41 2.2 3.133 4.162 4.011 4.568 3.248 5.521-.951 1.188zm-8.01-9.666c1.47-.443 3.27-1.166 4-1.606 1.05-.631 1.04-.444-.044.893-.755.93-2.555 1.653-4 1.606l-2.628-.086 2.672-.807zM380.5 482c2.752-1.183 3.731-1.183 3 0-.34.55-1.604.968-2.809.93-2.112-.068-2.12-.101-.191-.93zm-5.776-2.322c-1.5-3.814 2.915-7.562 7.276-6.178 2.566.814 2.61 3.5.057 3.5-1.07 0-2.675 1.012-3.569 2.25l-1.625 2.25.318-2.494c.237-1.85 1.092-2.657 3.319-3.131 2.889-.615 2.903-.643.372-.757-2.851-.128-4.438 1.25-5.044 4.382-.362 1.868-.434 1.88-1.104.178zM130.78 461.063c2.046-2.44 4.957-5.803 6.47-7.473 2.817-3.11 3.422-4.59 1.875-4.59-1.5 0-21.05 23.314-20.412 24.344.57.922 3.482-2.041 12.067-12.28zm243.995 9.762c-.692-2.077-22.107-24.738-22.909-24.242-2.134 1.319-.174 4.319 9.747 14.923 6.816 7.285 11.125 11.148 12.043 10.796.786-.302 1.29-.966 1.119-1.477zM123.962 462c15.761-18.112 14.678-17.217 17.467-14.429 2.193 2.194 2.083 2.54-2.554 8.038l-4.125 4.891 4.68-4.75c2.574-2.612 5.5-4.75 6.503-4.75 2.26 0 4.48-2.524 3.547-4.032-.734-1.187 1.913-4.823 12.355-16.968 3.546-4.125 4.696-5.692 2.556-3.483-2.14 2.209-6.672 7.159-10.07 11-5.316 6.007-6.434 6.828-8 5.876-2.556-1.555-2.814-4.172-.659-6.682 1.265-1.473.8-1.294-1.489.574-1.83 1.493-3.765 2.715-4.3 2.715-.537 0-1.622 1.548-2.413 3.44-.79 1.893-6.167 8.888-11.949 15.547-5.78 6.658-10.511 12.385-10.511 12.726 0 .341.156.433.347.204.191-.23 4.068-4.692 8.615-9.917zm18.202-15.145c-3.525-3.294-3.914-4.63-1.604-5.516 1.689-.648 7.44 4.176 7.44 6.241 0 2.48-2.777 2.135-5.836-.725zm4.836.833c0-.172-1.462-1.33-3.25-2.573l-3.25-2.26 2.806 2.572c2.588 2.373 3.694 3.05 3.694 2.261zM132 464.5c1.866-1.925 3.167-3.5 2.892-3.5-.275 0-2.026 1.575-3.892 3.5s-3.167 3.5-2.892 3.5c.275 0 2.026-1.575 3.892-3.5zm232 3.203c0-.163-1.913-2.076-4.25-4.25l-4.25-3.953 3.953 4.25c3.676 3.952 4.547 4.71 4.547 3.953zm-12.97-14.286l-4.223-4.582 2.27-2.418c1.25-1.33 2.816-2.417 3.482-2.417.666 0 4.484 3.263 8.486 7.25l7.275 7.25-7.08-7.669c-3.894-4.217-7.228-8.699-7.41-9.959-.19-1.324-1.22-2.518-2.44-2.831-1.162-.298-6.444-5.349-11.74-11.225-5.296-5.877-10.196-11.003-10.89-11.391-.693-.389 1.024 1.719 3.817 4.684C342.109 430.232 348 437.398 348 438.871c0 1.766-2.87 5.12-4.405 5.15-.602.01-4.407-3.477-8.456-7.75l-7.36-7.771 6.974 8c3.836 4.4 7.29 9.013 7.678 10.25.387 1.238 1.255 2.25 1.928 2.25.674 0 3.212 2.025 5.641 4.5 5.755 5.864 6.46 5.807 1.03-.083zm-7.03-6.72c0-.718 1.465-2.725 3.256-4.46 2.364-2.292 3.662-2.906 4.739-2.24 1.222.755.879 1.538-1.953 4.46-3.514 3.626-6.042 4.563-6.042 2.24zm4.563-2.947l2.937-3.25-3.25 2.937c-3.03 2.738-3.71 3.563-2.937 3.563.172 0 1.635-1.462 3.25-3.25zm-6.42-9.376c-10.784-12.417-20.802-23.256-21.979-23.781-.735-.328-1.932-.258-2.662.155-.948.538 1.792 4.168 9.625 12.752 6.023 6.6 12.171 13.394 13.662 15.097 2.362 2.698 2.858 2.896 3.855 1.535.925-1.263.446-2.365-2.5-5.758zM160.347 427c6.38-7.425 11.612-13.838 11.627-14.25.07-1.975-2.296-.24-6.82 5C149.566 435.803 147 438.949 147 440.004c0 2.192 1.766.472 13.346-13.004zm-5.222-1.144c2.79-3.22 4.85-5.856 4.578-5.856-.273 0-3.355 3.263-6.849 7.25s-5.554 6.623-4.578 5.856c.977-.766 4.059-4.028 6.85-7.25zM323 422.5c-2.429-2.475-4.641-4.5-4.916-4.5-.275 0 1.487 2.025 3.916 4.5s4.641 4.5 4.916 4.5c.275 0-1.487-2.025-3.916-4.5zm-144.986-9.004c1.09-.346 2.278-1.837 2.641-3.313.363-1.475 3.12-5.608 6.129-9.183l5.468-6.5-5.876 6.273c-3.232 3.45-6.423 6.263-7.09 6.25-1.653-.031-3.545-3.773-2.677-5.294.386-.676 2.27-3.254 4.188-5.729 2.983-3.849 2.699-3.668-1.965 1.25-2.998 3.163-5.977 5.75-6.619 5.75-.641 0-2.018 1.764-3.06 3.92l-1.894 3.919 2.341-1.067c1.74-.792 2.733-.74 3.87.203 2.26 1.876 1.916 3.195-2.108 8.095l-3.638 4.43 4.154-4.188c2.285-2.303 5.046-4.47 6.136-4.816zm-4.481-4.64c-4.535-5.388.005-6.34 4.826-1.012 1.912 2.113 1.504 4.156-.83 4.156-.743 0-2.542-1.415-3.996-3.144zm4.384.883c-.23-.143-1.542-1.156-2.917-2.25l-2.5-1.989 1.905 2.25c1.048 1.238 2.36 2.25 2.917 2.25.556 0 .824-.117.595-.26zm-13.354 5.011l2.937-3.25-3.25 2.937c-3.03 2.738-3.71 3.563-2.937 3.563.172 0 1.635-1.462 3.25-3.25zm151.611-.065c-2.61-2.778-2.672-3.478-.519-5.856 2.36-2.607 4.254-2.283 8.297 1.42l3.548 3.251-3.123-3.5c-1.718-1.925-3.412-4.73-3.765-6.235-.42-1.785-1.494-2.948-3.095-3.35-1.416-.356-6.302-5.012-11.558-11.015-5.008-5.72-9.337-10.4-9.62-10.4-.283 0 3.784 4.91 9.038 10.91l9.552 10.91-2.037 2.59c-1.12 1.425-2.531 2.59-3.135 2.59-.604 0-3.31-2.362-6.014-5.25l-4.915-5.25 4.445 5.5c2.445 3.025 4.742 6.737 5.105 8.25.418 1.742 1.323 2.75 2.467 2.75.993 0 2.863 1.125 4.155 2.5 1.292 1.375 2.574 2.5 2.849 2.5.275 0-.479-1.042-1.675-2.314zM310 409.188c0-2.253 5.015-7.187 7.305-7.187 2.643 0 2.006 2.306-1.603 5.804-3.704 3.59-5.702 4.075-5.702 1.383zm7.65-5.43c.391-.633-.707-.14-2.44 1.093-1.732 1.234-3.47 2.76-3.86 3.393-.391.633.707.14 2.44-1.093 1.732-1.234 3.47-2.76 3.86-3.393zm-130.564-7.65c11.022-12.704 14.992-17.94 14.046-18.525-1.035-.64-21.445 22.646-21.977 25.074-.585 2.664 1.258 1.142 7.93-6.549zM311.5 402c.538-.871-17.888-22.885-20.514-24.509-.543-.335-1.448-.324-2.012.025-1.121.693-.123 2 12.395 16.221 4.472 5.08 8.442 9.243 8.822 9.25.38.007.969-.437 1.309-.987zm-18.681-14.046c-7.802-8.714-8.374-10.084-5.381-12.895l2.294-2.156 3.384 2.738 3.384 2.737-3.424-3.667c-2.63-2.815-3.733-3.411-4.75-2.566-.967.802-1.326.796-1.326-.023 0-.617.481-1.122 1.07-1.122 2.586 0 .238-4.594-3.21-6.28-2.994-1.464-4.036-2.842-5.883-7.782-1.235-3.302-2.426-5.822-2.648-5.6-.221.22.508 2.71 1.62 5.532 1.112 2.821 1.803 5.13 1.536 5.13-1.51 0-1.957-.3-1.717-1.155.148-.525-.415-1.93-1.25-3.122-.835-1.193-1.518-1.644-1.518-1.005 0 .64.45 1.442 1 1.782.55.34.981 1.154.958 1.809-.023.655-1.655-.609-3.628-2.809-1.972-2.2-3.103-3.063-2.512-1.917.84 1.631.77 2.084-.328 2.084-.771 0-1.18-.36-.907-.801.272-.44-.423-1.374-1.544-2.074-1.122-.7-2.039-1.813-2.039-2.474 0-.66-.526-1.525-1.17-1.923-.796-.492-.957-.169-.504 1.013.877 2.285-.945 5.582-3.111 5.631-1.014.023-.489.576 1.285 1.353 1.65.722 4.75 2.505 6.89 3.96 2.139 1.457 4.366 2.648 4.95 2.648 1.635 0-.521-1.846-4.445-3.805-2.162-1.08-3.516-2.553-3.73-4.056-.206-1.459.11-2.214.826-1.975.637.212 1.157.825 1.155 1.361-.007 1.84 3.042 4.34 4.576 3.751 1.975-.758 5.177 3.394 4.529 5.874-.267 1.017-.858 1.85-1.316 1.85-1.883 0 1.496 6.172 4.124 7.53 1.563.809 3.201 2.107 3.641 2.886 1.062 1.88 14.303 16.584 14.934 16.584.271 0-2.346-3.17-5.815-7.046zm-13.804-17.529c.027-1.63 1.722-3.681 2.724-3.297.534.205.136 1.238-.884 2.297-1.02 1.059-1.848 1.509-1.84 1zm-1.983-1.017c.052-1.475 2.772-4.647 3.655-4.262.447.194-.2 1.438-1.437 2.762-1.238 1.325-2.236 2-2.218 1.5zm6.968-1.467c0-.582.45-.78 1-.441.55.34 1 .816 1 1.059s-.45.441-1 .441-1-.477-1-1.059zm-83.816 17.745c3.391-3.952 7.495-8.106 9.12-9.231 1.624-1.125 3.682-3.58 4.574-5.453 1.234-2.592 3.463-4.386 9.316-7.499 8.134-4.326 11.813-7.104 11.795-8.908-.006-.602 1.644-5.482 3.668-10.845 4.504-11.936 6.052-12.55 9.355-3.717 2.784 7.443 3.685 7.37 1.06-.085-1.048-2.975-1.703-5.736-1.456-6.135 1.386-2.244 10.106 6.183 9.584 9.263-.388 2.292 1.637 3.513 2.424 1.462.471-1.229.923-1.329 1.993-.441 2.011 1.67 1.713 3.358-1.206 6.826-3.385 4.024-4.939 3.881-7.343-.673-2.712-5.138-2.52-2.819.223 2.676 1.215 2.434 3.334 5.129 4.709 5.988 2.341 1.463 2.414 1.453 1.138-.163-.749-.949-1.062-2.506-.696-3.46.531-1.384.834-1.462 1.5-.385.459.743 1.335 1.041 1.946.663 1.665-1.029 1.34-2.87-.388-2.207-.825.316-1.5.188-1.5-.286s.675-1.121 1.5-1.438c.825-.316 1.5-1.264 1.5-2.107 0-.864.87-1.531 2-1.531 1.1 0 2 .364 2 .809 0 .445.568 1.585 1.262 2.534 1.11 1.518 1.26 1.334 1.25-1.534-.01-2.396.486-3.358 1.868-3.632 1.034-.206 2.265.233 2.735.975.707 1.116.857 1.106.87-.057.028-2.573-7.686-8.775-15.633-12.57a1348.933 1348.933 0 0 1-10.86-5.235c-3.144-1.551-4.15-1.087-31.322 14.453-.732.419-3.023 4.727-5.092 9.573-2.835 6.645-4.522 9.276-6.855 10.695-3.416 2.077-5.223 4.799-5.223 7.867 0 1.105-.791 2.597-1.758 3.315-.968.72-4.412 4.457-7.655 8.307l-5.897 7 7.504-7.979c7.203-7.659 7.611-7.93 10.155-6.771 1.458.664 2.651 1.67 2.651 2.234 0 .564-3.011 4.479-6.691 8.698-3.68 4.22-6.151 7.339-5.492 6.931.66-.408 3.975-3.975 7.367-7.927zm2.77-11.241c-1.15-1.386-.995-1.42 1.42-.32 2.422 1.103 2.946.98 4.918-1.158 1.946-2.109 1.961-2.19.13-.68-2.531 2.085-3.81 2.155-5.357.292-.96-1.157-.83-1.33.698-.93 1.865.487 5.053-2.166 3.94-3.28-.32-.32-.047-1.164.607-1.875 1.567-1.704 3.69-.012 3.69 2.94 0 5.016-7.102 8.558-10.046 5.01zm8.17-6.712c-.988-.98-1.102-.865-.56.56.376.986.935 1.541 1.243 1.233.308-.307 0-1.114-.683-1.793zm3.432-7.643c-.863-1.396.488-4.09 2.051-4.09 1.732 0 1.833 1.656.143 2.338-.957.386-.942.523.066.583.723.043 2.298-.436 3.5-1.067 2.168-1.137 2.17-1.13.279 1-1.962 2.21-5.047 2.842-6.04 1.236zm12.256-11.773c.722-.289 1.585-.253 1.917.079.332.332-.258.568-1.312.525-1.165-.048-1.402-.285-.604-.604zm32.938-6.43c-6.214-5.358-6.122-7.064.134-2.472 2.686 1.972 5.499 3.567 6.25 3.545.751-.022.016-.753-1.634-1.625s-3.676-2.173-4.502-2.89c-.826-.719-2.851-2.01-4.5-2.87-2.355-1.227-2.569-1.561-.998-1.557 2.555.007 13.53 6.083 14.894 8.245 1.233 1.954.9 2.391-2.396 3.148-1.946.446-3.548-.332-7.248-3.523zm14.25 25.72c0-.216-.698-.661-1.552-.989-.89-.341-1.291-.173-.94.393.586.95 2.492 1.406 2.492.596zm-5.5-3.215c-2.36-1.822-8.334-5-7.26-3.862.937.992 8.09 5.408 8.76 5.407.275 0-.4-.696-1.5-1.545zm4.952-12.485c-.88-1.701-1.852-2.84-2.161-2.531-.575.575 2.35 5.624 3.258 5.624.276 0-.217-1.392-1.097-3.093zm-16.466-4.652c-1.092-1.389-1.986-3.294-1.986-4.235 0-.94-.976-2.567-2.17-3.615-2.404-2.111-2.434-2.27 1.287 6.779 1.78 4.325 2.639 5.434 3.596 4.64.991-.823.837-1.58-.727-3.57zM261 346.8c0-1.615-.296-1.904-1.113-1.087-.612.612-.81 1.602-.44 2.2 1.034 1.674 1.553 1.302 1.553-1.113zM235.71 80.283c-2.903-1.855-4.341-5.195-3.35-7.78.765-1.992 5.522-1.92 7.774.118.985.892 2.517 1.343 3.403 1.003 2.174-.834 1.43-4.01-1.048-4.47-3.03-.562-4.489-2.144-4.489-4.863 0-1.82.785-2.76 3-3.597 1.786-.674 3-1.853 3-2.913 0-2.193-2.304-2.324-4.042-.23-1.735 2.09-7.33 1.534-7.768-.773-.862-4.552 7.421-9.667 13.275-8.197 1.398.35 3.712 2.029 5.143 3.73 2.233 2.653 2.502 3.665 1.903 7.14-.383 2.227-.597 5.174-.474 6.549.729 8.156.346 11.061-1.73 13.137-2.954 2.955-10.802 3.57-14.598 1.146zm10.745-1.904c.89-.342 2.286-1.91 3.1-3.487 1.306-2.523 1.307-3.285.015-6.379-1.238-2.963-1.261-4.022-.149-6.763 1.503-3.702 1.176-5.314-1.723-8.5-2.626-2.887-7.937-3.011-10.698-.25-2.889 2.889-2.523 4.573.555 2.556 1.433-.939 3.959-1.539 5.75-1.365 2.92.282 3.195.608 3.195 3.78 0 2.702-.553 3.746-2.5 4.716-3.197 1.594-3.201 3.557-.009 4.31 3.561.842 4.973 5.28 2.536 7.973-2.301 2.543-4.158 2.552-8.277.041-3.52-2.146-4.405-.945-1.595 2.16 1.649 1.822 6.607 2.433 9.8 1.208zM488.195 491.5c.02-1.65.244-2.204.498-1.231.254.973.237 2.323-.037 3-.274.677-.481-.119-.461-1.769zm-.116-16.083c.048-1.165.285-1.402.604-.604.289.721.253 1.584-.079 1.916-.332.332-.568-.258-.525-1.312zm0-5c.048-1.165.285-1.402.604-.604.289.721.253 1.584-.079 1.916-.332.332-.568-.258-.525-1.312zm.079-5.417c0-1.375.227-1.938.504-1.25.278.688.278 1.813 0 2.5-.277.688-.504.125-.504-1.25zm.094-7.5c.011-2.2.216-2.982.455-1.738.24 1.244.23 3.044-.02 4s-.446-.062-.435-2.262zm-.173-7.083c.048-1.165.285-1.402.604-.604.289.721.253 1.584-.079 1.916-.332.332-.568-.258-.525-1.312zm.207-6.917c.008-2.75.202-3.756.432-2.236.23 1.52.223 3.77-.014 5-.237 1.23-.425-.014-.418-2.764zm-.091-8c.02-1.65.244-2.204.498-1.231.253.973.237 2.323-.037 3-.274.677-.482-.119-.461-1.769zm.197-18.5c0-7.425.157-10.463.35-6.75.192 3.712.192 9.787 0 13.5-.193 3.712-.35.675-.35-6.75zm-.234-17c0-1.375.227-1.938.504-1.25.278.688.278 1.813 0 2.5-.277.688-.504.125-.504-1.25zm.037-5.5c.02-1.65.244-2.204.498-1.231.254.973.237 2.323-.037 3-.274.677-.481-.119-.461-1.769zm-.116-5.083c.048-1.165.285-1.402.604-.604.289.721.253 1.584-.079 1.916-.332.332-.568-.258-.525-1.312zm.193-6.417c0-2.475.195-3.487.434-2.25.238 1.238.238 3.263 0 4.5-.239 1.238-.434.225-.434-2.25zm.218-194.5c0-103.4.117-145.848.26-94.33.143 51.52.143 136.12 0 188-.143 51.882-.26 9.73-.26-93.67z"/></svg>