<svg xmlns="http://www.w3.org/2000/svg" width="246" height="420" viewBox="0 0 246 420"><path d="M22.269 418.307c.973-.254 2.323-.237 3 .037.677.274-.119.481-1.769.461-1.65-.02-2.204-.244-1.231-.498zm58.981-.057c30.113-.147 79.388-.147 109.5 0 30.113.147 5.475.267-54.75.267s-84.862-.12-54.75-.267zM7.552 407.083c-.42-.68-1.15-4.24-1.62-7.91-1.38-10.775-1.22-389.121.166-390.79C7.062 7.22 25.423 7 121.063 7c62.6 0 114.026.338 114.28.75 1.459 2.379 2.488 396.82 1.038 398.27-.515.514-49.534 1.2-114.483 1.6-89.759.553-113.742.44-114.346-.537zm227.33-3.43c1.09-.881 1.25-3.236.754-11.135-.346-5.51-.743-71.893-.882-147.518-.14-75.625-.479-151.675-.754-169-.275-17.325-.316 49.087-.091 147.582.374 164.364.275 179.133-1.211 179.704-.891.342-51.587.69-112.659.772-73.811.1-111.039.489-111.039 1.158 0 1.488 224.027-.062 225.882-1.562zM8.731 389.72c-.21-2.321-.38-.17-.376 4.78.003 4.95.175 6.849.381 4.22.207-2.63.204-6.68-.005-9zm110.97 12.187c57.64-.107 106.554-.412 108.699-.678l3.9-.483-.716-193.605c-.394-106.483-.948-193.839-1.233-194.123-.846-.846-218.777.084-219.67.936-.593.568-.334 332.412.296 379.046.103 7.61.805 10.298 2.516 9.641.775-.297 48.569-.628 106.208-.734zm-84.91-32.298c-5.802-1.762-6.154-2.564-3.836-8.76 1.5-4.006 3.77-7.138 8.524-11.753 7.885-7.655 8.512-9.579 8.504-26.096l-.007-12.5-4.574-4.75c-2.517-2.612-5.195-4.75-5.953-4.75-1.825 0-3.517-3.271-2.524-4.878.467-.757 2.157-1.123 4.18-.907l3.395.364-3.5 1.032-3.5 1.032 2.5 1.297c1.375.713 4.215 2.93 6.312 4.928 3.427 3.266 3.911 3.455 4.8 1.882 1.215-2.153 3.499-2.268 4.638-.233.693 1.239 1.277.937 3.185-1.643 1.285-1.738 1.906-2.894 1.38-2.569-2.076 1.283-6.316 1.536-6.345.379-.017-.651-.49-.397-1.05.566-1.11 1.905-3.92 2.4-3.92.691 0-.582-.46-.775-1.02-.428-.562.347-2.396-.527-4.077-1.941-3.187-2.682-2.7-3.606.62-1.178 1.262.922 2.643 1.113 4.087.564 1.2-.456 4.54-.575 7.424-.265 4.252.457 5.108.303 4.53-.815-.392-.758-.047-.564.766.432.938 1.149 1.717 1.423 2.133.75.36-.583 1.528-1.06 2.596-1.06S66 298.55 66 298s-1.125-1-2.5-1-2.5-.479-2.5-1.063c0-.598 1.424-.926 3.25-.75 2.692.26 3.25.732 3.25 2.75 0 1.887-.702 2.618-3.112 3.242-2.022.524-4.037 2.204-5.75 4.793-2.553 3.856-2.638 4.465-2.638 18.812 0 16.918-.232 16.324 10.15 26.032 6.298 5.891 8.149 9.34 7.672 14.304-.289 3.01-.735 3.452-4.322 4.278-5.966 1.372-30.393 1.521-34.708.211zM39.5 368c-1.492-.641-.751-.877 2.917-.93 6.092-.087 5.69-.608-1.058-1.37-4.732-.534-5.1-.426-4.633 1.36.31 1.19 1.333 1.913 2.64 1.87 2.08-.069 2.083-.093.134-.93zm27.88-1.75c-.084-1.588.441-2.25 1.785-2.25 1.51 0 1.71-.366.963-1.761-.822-1.536-2.43-1.749-12.576-1.662-6.399.055-11.807-.181-12.019-.524-.212-.342-2.776-.382-5.699-.088-3.625.365-5.404 1.012-5.6 2.035-.247 1.294 1.914 1.454 15.74 1.162 15.845-.334 19.5.403 13.276 2.676l-2.75 1.004 2.5.094c2.029.077 2.217.288 1 1.123-1.186.813-.976.966 1 .735 1.884-.222 2.47-.849 2.38-2.544zm-34.265-.158c-1.094-.693-1.157-1.531-.302-3.985 1.321-3.79.544-4.175-.879-.435-1.156 3.041-.601 5.335 1.285 5.313.965-.012.94-.232-.104-.893zm38.88-4.804c-1.09-1.7-1.118-1.697-.57.044.316 1.007.61 2.357.654 3 .057.843.216.83.57-.044.271-.667-.023-2.017-.654-3zm-23.298-3.08c.749-.475.87-1.29.326-2.17-.718-1.162-1.145-1.182-2.436-.11-2.43 2.017-.595 4 2.11 2.28zM58 358.06c0-1.35-1.823-2.286-3.016-1.549-.56.346-.758 1.047-.441 1.56.75 1.214 3.457 1.206 3.457-.011zm7.082-.059c.505 0 .918-.477.918-1.059s-.412-.805-.915-.494c-.503.311-1.142 0-1.42-.69-.32-.792-.536-.64-.586.41-.043.916-.417 1.855-.829 2.086-.413.23-.15.268.582.083s1.745-.336 2.25-.336zM36.5 356c.995-1.1 1.585-2 1.31-2-.275 0-1.315.9-2.31 2-.995 1.1-1.585 2-1.31 2 .275 0 1.315-.9 2.31-2zm6.275-2.75c.884-.688 1.218-1.25.742-1.25s.178-1.111 1.454-2.47c1.276-1.357 2.677-2.248 3.113-1.978.436.27 1.257-.307 1.824-1.281 1.416-2.432 1.406.274-.01 2.921-.795 1.485-.801 2.725-.022 4.434 1.314 2.886 2.26 2.988 3.864.418 1.018-1.63.814-2.768-1.227-6.83-1.894-3.772-2.353-5.988-2.03-9.794.231-2.706.186-4.02-.1-2.92-.285 1.1-1.187 3.467-2.003 5.261-.816 1.794-1.166 3.776-.778 4.405.389.628.3.955-.197.725-.498-.23-2.93 1.553-5.405 3.96-3.924 3.819-4.18 4.306-2 3.814 2.084-.471 2.244-.366.964.635-.845.66-1.327 2.1-1.072 3.2l.466 2 .405-2c.223-1.1 1.129-2.563 2.012-3.25zm-1.692-2.5c.23-.137 1.767-1.375 3.417-2.75l3-2.5-2.424 2.75c-1.334 1.512-2.871 2.75-3.417 2.75-.546 0-.805-.113-.576-.25zM69 357.413c0-1.227-12.309-13.34-13.075-12.867-.976.603-.949.903-1.766-19.546l-.659-16.5-.633 15c-.348 8.25-.953 15.9-1.345 17-.411 1.158-.355 1.52.134.86.62-.837 1.173-.784 2.084.198.78.841.873 1.563.25 1.948-.544.337-.99 1.062-.99 1.612s.419.741.93.425c.513-.317 1.219-.11 1.57.457.351.568 1.006.805 1.456.527.45-.278 1.379.171 2.065.998 1.04 1.254.935 1.455-.637 1.21-1.036-.161-2.559-.704-3.384-1.206-1.301-.792-1.315-.685-.107.803.765.944 1.612 1.496 1.881 1.227.85-.85 4.31 1.497 3.688 2.503-.327.529.845 1.25 2.605 1.601 1.917.384 3.393 1.381 3.683 2.489.436 1.669 2.25 2.686 2.25 1.261zm-8.128-7.163c-1.243-1.586-1.208-1.621.378-.378.963.755 1.75 1.543 1.75 1.75 0 .823-.821.294-2.128-1.372zm-.892 4.226c-.696-.838-1.47-1.318-1.723-1.067-.693.694.716 2.591 1.924 2.591.664 0 .588-.574-.201-1.524zm-1.514-3.326c-.564-.593-2.466.91-2.466 1.948 0 .54.63.4 1.4-.309.769-.709 1.249-1.447 1.066-1.64zm-6.726-38.4c-.195-3.438-.355-.625-.355 6.25s.16 9.688.355 6.25c.196-3.438.196-9.063 0-12.5zm128.76 56.654c-10.043-1.446-9.5-1.12-9.496-5.7.005-5.346 2.38-9.234 10.415-17.04 5.262-5.113 6.48-6.931 7.15-10.664.76-4.237.828-4.314 1.177-1.314.204 1.753-.268 4.453-1.05 6-.782 1.548-1.2 3.44-.93 4.203.275.773.043 1.11-.523.761-1.318-.815-3.06 1.392-2.725 3.45.184 1.13-.408 1.527-2.015 1.35-2.516-.275-7.266 4.96-5.494 6.056.545.337.991-.063.991-.888 0-1.639 1.045-2.513 3.746-3.135a88.436 88.436 0 0 0 4.004-1.06c1.651-.482 2.25-.242 2.25.901 0 .857-.43 1.824-.956 2.149-2.016 1.245.18 3.136 3.737 3.217 2.927.067 3.266-.087 1.594-.724-2.275-.866-4.767-6.452-3.716-8.33.37-.663.074-.616-.712.114-2.19 2.032-3.415 1.425-1.468-.726.983-1.087 2.147-1.755 2.586-1.484 1.423.88 2.142-1.586.899-3.084-.887-1.068-.902-1.456-.055-1.456 1.873 0 2.407 2.822 1.121 5.927-.893 2.156-.913 3.424-.079 4.982 1.409 2.632 2.677 2.654 4.06.072.837-1.565.68-2.694-.695-5.024-1.387-2.347-1.526-3.383-.639-4.73.625-.95 1.616-1.619 2.202-1.486.732.165.761-.558.093-2.316-1.281-3.369-1.262-8.722.028-7.925.55.34 1.003 2.054 1.007 3.809.009 4.123 2.1 7.192 9.578 14.052 9.56 8.77 12.18 17.554 5.676 19.027-3.555.804-27.835 1.581-31.761 1.016zm13.5-1.446c-3.025-.418-8.088-.805-11.25-.86-3.162-.053-5.75-.548-5.75-1.098s-1.012-.986-2.25-.97c-2.195.03-2.202.06-.25 1.229 2.329 1.395 10.455 2.444 19 2.453l6 .006-5.5-.76zm16.846-1.531c3.807-1.9 3.965-2.305.654-1.672-1.375.263-2.5.851-2.5 1.307 0 .456-2.138.997-4.75 1.203-4.732.373-4.735.375-.654.555 2.253.099 5.516-.528 7.25-1.393zm-5.596-.573c1.512.098 2.75-.217 2.75-.699 0-1.223-8.985-2.172-18.5-1.955l-8 .183 9.5.637 9.5.638-9.42-.079c-7.126-.06-9.531-.42-9.882-1.477-.388-1.172 2.051-1.314 15.09-.875 12.937.434 15.464.291 15.026-.852-.29-.756-1.267-1.4-2.171-1.43-19.735-.656-32.866-.545-33.893.287-1.985 1.608-1.46 2.768 1.25 2.768 1.467 0 2.397.517 2.25 1.25-.288 1.44 13.138 2.749 19.75 1.924 2.2-.274 5.237-.418 6.75-.32zm-31.336-6.354c.03-.55-.38-.325-.914.5-.533.825-.945 2.175-.914 3 .058 1.584 1.724-1.606 1.828-3.5zm25.372-2.119c.34-.34-.076-1.313-.924-2.162-1.283-1.283-1.686-1.313-2.387-.179-.464.75-.621 1.723-.35 2.162.585.947 2.785 1.055 3.66.179zm5.699-1.131c-.01-1.08-.297-1.328-.75-.65-.404.605-1.41 1.357-2.235 1.671-1.002.382-.753.597.75.65 1.512.053 2.245-.495 2.235-1.671zm3.678-1.595c-.8-1.185-2.237-2.009-3.194-1.83-1.18.22-1.56-.144-1.183-1.13.328-.854-.85-2.819-2.858-4.765-3.488-3.38-6.003-4.427-6.95-2.893-.293.472.335.692 1.393.488 1.11-.214 2.89.656 4.201 2.052 2.247 2.391 1.444 3.54-.862 1.233-.654-.654-1.894-1.293-2.756-1.42-1.238-.181-1.321.065-.396 1.18.643.774 1.537 1.18 1.986.903.45-.278 1.1-.048 1.446.51.345.56.039 1.035-.681 1.057-1.67.05 6.098 3.96 7.87 3.96.726 0 1.321.927 1.321 2.059 0 1.194.445 1.784 1.059 1.405.712-.44.582-1.36-.396-2.81zM200 350.607c0-.216.698-.661 1.552-.989.89-.341 1.291-.173.94.393-.586.95-2.492 1.406-2.492.596zm-18.338 3.143c-.277-.688-.504-.125-.504 1.25s.227 1.938.504 1.25c.278-.688.278-1.813 0-2.5zm5.338-1.32c0-.275-.9-.019-2 .57s-2 1.295-2 1.57c0 .275.9.019 2-.57s2-1.295 2-1.57zm14.5 1.57c-.34-.55-1.068-1-1.618-1s-.722.45-.382 1c.34.55 1.068 1 1.618 1s.722-.45.382-1zm-12.936-9.707c-.542-1.425-.428-1.54.56-.56.684.679.99 1.486.683 1.793-.308.308-.867-.247-1.243-1.233zM191.4 336c.128-7.025 2.058-6.819 2.223.237l.124 5.263-.684-5-.683-5-.54 5-.54 5zm-2.264-11.75c-.088-4.716.25-7.25.971-7.25.609 0 .848.675.531 1.5-.316.825-.14 1.5.393 1.5s.962 2.138.954 4.75c-.01 3.182-.31 4.284-.91 3.338-.691-1.093-.996-.867-1.348 1-.25 1.327-.516-.85-.59-4.838zm4.022 2.75c0-1.375.227-1.938.504-1.25.278.688.278 1.813 0 2.5-.277.688-.504.125-.504-1.25zm1.921.417c.048-1.165.285-1.402.604-.604.289.721.253 1.584-.079 1.916-.332.332-.568-.258-.525-1.312zm-2.034-12.917c-.204-6.52-.492-8.174-1.045-6-.555 2.183-.823 2.455-.981 1-.188-1.723-.33-1.654-1.019.5-.44 1.375-.846 1.959-.9 1.297-.174-2.099-9.203-11.17-11.436-11.49-2.48-.355-3.497-3.664-1.512-4.922.741-.47 4.048-.786 7.348-.702l6 .153-5.922.582c-3.37.331-6.098 1.117-6.33 1.823-.291.884.447 1.07 2.567.646 2.229-.446 3.505-.067 5.08 1.509 2.485 2.484 1.59 2.853-1.072.443-1.01-.913-2.048-1.447-2.308-1.187-.26.26 1.543 2.45 4.006 4.869 2.944 2.889 4.479 3.847 4.479 2.794 0-2.308 3.206-3.254 4.594-1.355.996 1.362 1.473 1.139 3.628-1.696 1.364-1.795 2.362-4.054 2.217-5.019-.145-.965.154-1.496.665-1.18.51.315.659 1.01.329 1.544-.543.877 4.377.205 5.484-.75 1.025-.884-1.449-1.867-6.228-2.473-5.143-.653-5.131-.658 1.311-.522 6.184.13 6.5.254 6.5 2.572 0 1.9-.702 2.619-3.188 3.263-5.123 1.328-9.267 8.356-9.492 16.101l-.18 6.2-.516-5-.515-5-.642 5.5c-.596 5.118-.66 4.874-.922-3.5zm1.617-6.75c-.277-.688-.504-.125-.504 1.25s.227 1.938.504 1.25c.278-.688.278-1.813 0-2.5zM190 302.102c1.27-.908 1.194-1.086-.5-1.166-1.456-.068-1.592-.25-.5-.665.825-.314 1.83-1.066 2.235-1.67.48-.72.764-.58.82.399.058 1.01.366.847.945-.5.792-1.843.865-1.854.93-.143.046 1.227.58 1.662 1.57 1.281.914-.35 1.5-.002 1.5.893 0 .808-.787 1.475-1.75 1.483-.963.008-2.875.271-4.25.586-1.96.45-2.176.342-1-.498zm-142.25-7.834c2.337-.21 6.162-.21 8.5 0 2.337.21.425.383-4.25.383s-6.588-.173-4.25-.383zm144.063-.951c.721-.289 1.584-.253 1.916.079.332.332-.258.568-1.312.525-1.165-.048-1.402-.285-.604-.604zM36.357 123.487c-.737-1.92 1.348-4.487 3.645-4.487.966 0 3.386-1.988 5.378-4.418 3.08-3.759 3.62-5.159 3.62-9.378 0-3.188.536-5.404 1.5-6.204 1.286-1.068 1.522-.694 1.656 2.628.085 2.13.099 4.997.03 6.372-.113 2.27-.042 2.316.775.5.805-1.791.906-1.811.969-.191.04 1.053.53 1.524 1.172 1.128.617-.382 3.146 1.53 5.75 4.346 2.556 2.764 5.543 5.187 6.637 5.383 2.364.424 3.274 3.735 1.36 4.949-.742.47-4.499.775-8.349.677l-7-.177 6.165-.353c3.852-.22 6.626-.907 7.392-1.83.986-1.189.954-1.392-.166-1.038-.765.241-2.707.73-4.316 1.085-2.523.558-2.753.44-1.677-.857.687-.827 2.003-1.244 2.925-.928 1.249.428 1.17.18-.309-.968-1.354-1.053-2.525-1.255-3.68-.637-1.163.622-2.165.437-3.193-.591-1.561-1.561-3.078-2.05-2.325-.748.238.413.072 1.65-.37 2.75l-.805 2-.141-2-.14-2-.86 2c-.717 1.668-.871 1.715-.93.281-.048-1.17-.593-1.518-1.706-1.09-1.118.429-1.49.187-1.174-.762.665-1.993 7.805-3.555 8.811-1.927.427.69 1.305.927 1.952.527.859-.53.724-1.228-.498-2.579-1.58-1.745-1.822-1.756-4.225-.18-2.265 1.483-2.657 1.5-3.51.15-.79-1.255-1.83-.637-5.937 3.53-2.738 2.777-4.683 4.487-4.322 3.8.4-.76.012-1.25-.985-1.25-.904 0-1.457.563-1.23 1.25.255.777 3.22 1.466 7.833 1.82l7.421.57-8.281.18c-6.587.143-8.4-.13-8.862-1.333zm144.05-.639c-.525-.849 1.234-.995 6.69-.555 4.072.328 10.328.233 13.903-.211 3.575-.445 5.455-.87 4.179-.945-1.277-.075-2.964-.78-3.749-1.564-1.236-1.236-1.193-1.473.322-1.773 1.186-.236 1.372-.583.579-1.083-.644-.404-1.849-.056-2.679.774-1.827 1.827-6.29 1.992-6.99.259-.403-1-.52-1-.583 0-.043.688-1.236 1.25-2.65 1.25-2.44 0-2.483-.089-.838-1.734.954-.954 2.223-1.767 2.822-1.807.598-.04 1.88-.435 2.85-.878 1.047-.478 2.33-.334 3.16.356.891.739 1.62.802 2.009.173 1.056-1.709-2.576-3.002-5.145-1.831-1.684.767-2.655.753-3.46-.053-1.607-1.606-6.744 3.376-6.084 5.901.41 1.57-.056 1.857-2.876 1.773-3.18-.094-3.228-.147-.867-.951l2.5-.852-2.5.201c-1.831.148-2.415.698-2.182 2.058.202 1.177-.164 1.697-1 1.422-.725-.24-1.454-1.351-1.62-2.471-.226-1.53.396-2.188 2.5-2.645 3.478-.754 4.151-1.273 7.51-5.782 2.605-3.498 2.7-4.088 2.844-17.605.17-15.931-.294-17.467-7.225-23.886C172.974 62.189 171 59.293 171 54.5c0-3.356.469-4.68 1.934-5.465 2.703-1.446 4.754-1.29 5.408.414.348.906.075 1.265-.726.957-.706-.27-1.283.202-1.283 1.051 0 1.106 1.014 1.539 3.584 1.528 2.681-.012 3.206-.26 2.083-.985-1.16-.75-.818-.99 1.5-1.06l3-.092-3.309-1.199c-1.82-.66-2.982-1.525-2.583-1.924 1.117-1.117 21.188-.865 21.892.275.34.55-.196 1.007-1.191 1.015-1.534.013-1.58.163-.309.985 1.073.694-.135 1.01-4.25 1.11-7.764.19-8.288.298-8.006 1.668.351 1.707-4.13 2.573-9.828 1.899-2.704-.32-4.916-.18-4.916.311 0 2.233 2.104 2.476 28.262 3.275 6.641.203 7.843-.016 8.318-1.513.305-.963 1.2-1.75 1.987-1.75.788 0 1.426-.787 1.418-1.75-.011-1.268-.237-1.4-.82-.484-.953 1.503-8.26 2.411-10.125 1.259-1.714-1.06 1.993-2.333 4.258-1.464.87.334 2.395.132 3.391-.447 2.026-1.179 1.427-1.343-4.689-1.282-1.947.02-2.659-.203-1.605-.5 1.526-.43 1.623-.707.5-1.418-.957-.606-.252-.888 2.244-.899 2.054-.008 4.622.78 5.894 1.81 1.86 1.507 2.14 2.438 1.6 5.317-.891 4.751-4.964 10.751-9.71 14.304-6.673 4.997-7.926 8.976-7.906 25.12l.017 13.934 4.456 4.75c2.476 2.64 5.356 4.75 6.483 4.75 2.655 0 2.721 3.558.093 4.965-2.733 1.462-26.747 1.36-27.66-.117zm15.99-6.015c-.283-.458-.938-.833-1.456-.833s-.941.375-.941.833c0 .459.655.834 1.456.834.8 0 1.224-.375.941-.834zm-.735-17.083c-.277-.688-.504-.125-.504 1.25s.227 1.938.504 1.25c.278-.688.278-1.813 0-2.5zm-1.979.063c-.32-.798-.556-.561-.604.604-.043 1.054.193 1.644.525 1.312.332-.332.368-1.195.08-1.917zm-.738-17.313c.108 1.505.645 1.048 2.172-1.844 1.115-2.115 1.77-4.102 1.455-4.417-.314-.315-.572 0-.572.701 0 .722-.65 1.024-1.5.698-.825-.316-1.5-.122-1.5.433 0 .554-.613.435-1.363-.265-.98-.917-1.076-1.731-.34-2.91.77-1.232.47-2.414-1.205-4.766-2.266-3.183-2.181-5.924.28-9.072.85-1.086.836-1.267-.053-.734-.65.39-1.468.244-1.819-.324-.351-.568-1.079-.76-1.618-.427-.61.377-.512 1.168.26 2.097.941 1.135.963 1.931.093 3.326-.896 1.433-.828 2.097.31 3.041.8.664 1.455 1.681 1.455 2.26 0 .578-1.111.008-2.47-1.268-1.357-1.276-2.183-2.78-1.835-3.344.386-.626-.026-.772-1.06-.375-1.298.498-1.832-.046-2.29-2.33-.327-1.64-.876-3.038-1.22-3.109-.344-.07-1.864-.204-3.38-.296l-2.754-.168 3.708 3.796c2.039 2.089 4.317 3.797 5.063 3.797.746 0 1.115.39.82.866-.585.949 3.245 4.835 4.248 4.309.341-.179.802.221 1.025.89.256.768-.066.922-.88.42-.848-.525-1.038-.397-.56.377.398.644 1.172.893 1.721.554.549-.34.902-.009.785.734-.118.742.161 3.375.619 5.85.738 3.99.913 4.217 1.546 2 .591-2.067.74-2.154.859-.5zm-3.38-10.207c-.543-1.425-.429-1.54.56-.56.683.679.99 1.486.682 1.793-.308.308-.867-.247-1.243-1.233zm-4.693-3.043c-1.243-1.586-1.208-1.621.378-.378 1.666 1.307 2.195 2.128 1.372 2.128-.207 0-.995-.787-1.75-1.75zm-7.413-7.317c-.363-.586-.42-1.306-.126-1.6.717-.716 2.667.546 2.667 1.726 0 1.278-1.726 1.193-2.541-.126zm24.666 7.988c4.195-4.01 4.535-4.676 3.666-7.171-.631-1.813-1.667-2.75-3.041-2.75-1.146 0-1.787.296-1.425.658.362.362.156 1.262-.456 2-.772.93-.784 1.342-.041 1.342.59 0 1.576-.787 2.191-1.75.986-1.542 1.062-1.483.644.499-.262 1.237-.06 2.506.447 2.82 1.183.73.142 2.456-1.419 2.352-.852-.056-.834-.223.065-.585 1.383-.558.717-2.336-.874-2.336-.55 0-.753.399-.452.887.739 1.195-2.083 3.445-3.344 2.666-.84-.519-4.086 4.162-4.086 5.891 0 1.617 4.073-.65 8.125-4.523zm-5.409 2.781c-.292-.76-.13-2.018.361-2.793.764-1.207.895-1.208.908-.004.011 1.064.562.944 2.265-.493 1.986-1.675 1.956-1.546-.25 1.095-1.375 1.646-2.557 3.125-2.626 3.286-.07.161-.366-.33-.658-1.09zm-2.467-8.897l-2.14-2.14-1.158 2.544c-.955 2.096-.842 3.028.644 5.296l1.804 2.753 1.495-3.157c1.399-2.952 1.357-3.295-.645-5.296zM197.5 64c-.34-.55-.108-1 .514-1 2.669 0 .303-3.274-2.525-3.495l-3.011-.235 2.51 2.826c2.573 2.895 3.61 3.681 2.512 1.904zm-12.52-1.524c-.696-.838-1.525-1.264-1.844-.946-.318.318.084.997.893 1.51 2.117 1.338 2.394 1.174.95-.564zM210 61.5c1.292-1.375 2.124-2.5 1.849-2.5-.275 0-1.557 1.125-2.849 2.5-1.292 1.375-2.124 2.5-1.849 2.5.275 0 1.557-1.125 2.849-2.5zm-25.27-2.104c-.333-.332-1.196-.368-1.917-.08-.798.32-.561.557.604.605 1.054.043 1.644-.193 1.312-.525zm-12.068-5.646c-.277-.688-.504-.125-.504 1.25s.227 1.938.504 1.25c.278-.688.278-1.813 0-2.5zM43.23 121.813c.218-.654.942-1.295 1.608-1.426.667-.13.749-.007.182.273-.567.281-.777.922-.466 1.425.31.503.051.915-.577.915-.629 0-.965-.534-.747-1.188zm148.584-1.496c.721-.289 1.584-.253 1.916.079.332.332-.258.568-1.312.525-1.165-.048-1.402-.285-.604-.604zM55 106.94c0-.582.45-.78 1-.441.55.34 1 .816 1 1.059s-.45.441-1 .441-1-.477-1-1.059zm-.32-9.191c.397-1.808.283-1.955-.578-.75-.89 1.245-1.074 1.118-1.087-.75-.008-1.237.435-2.25.985-2.25s1-1.323 1-2.941c0-1.618-.45-3.22-1-3.559-.55-.34-1.007-.029-1.015.691-.011.951-.28.899-.985-.191-1.094-1.693-1.321-8-.376-10.461.57-1.485.774-1.489 2.376-.039 1.602 1.45 1.807 1.446 2.38-.047.344-.898.33-2.112-.031-2.698-.362-.585-.207-.785.343-.445.551.34 2.308-.828 3.905-2.596L63.5 68.5l-3.25 2.937C58.462 73.052 57 73.91 57 73.342c0-1.323 3.418-4.432 5.162-4.696 3.186-.482 3.71-1.597 2.184-4.655-.821-1.645-2.022-2.984-2.67-2.976-.878.012-.871.21.028.781 1.524.968 1.275 4.998-.346 5.62-.768.295-1.082-.252-.847-1.474.392-2.034-.948-2.662-2.011-.942-.34.55-.029 1.007.691 1.015.951.011.899.28-.191.985-1.22.789-1.238.972-.095.985 1.08.011.991.472-.384 1.991-.983 1.087-2.147 1.755-2.586 1.484-1.33-.822-2.24 1.634-1.048 2.827 1.686 1.686 1.332 3.14-.411 1.693-.838-.696-1.812-.977-2.163-.626-.352.351-1.49-.76-2.53-2.47-1.04-1.71-2.163-2.838-2.495-2.505-.332.332-1.32.053-2.196-.62-1.196-.92-1.156-.711.158.837 2.616 3.082 2.11 4.09-.72 1.433-2.702-2.539-2.396-4.489.583-3.71 1.038.272 1.887.138 1.887-.296 0-1.277-4.801-1.822-5.949-.674-.735.735-1.051.54-1.051-.649 0-.935-.466-1.7-1.035-1.7-1.421 0 .258 2.997 3.089 5.511C46.84 74.764 50 80.21 50 84.21c0 2.351-.398 3.663-1 3.291-.55-.34-1-1.964-1-3.609 0-4.498-2.185-7.882-8.81-13.644-9.431-8.204-12.91-18.017-6.95-19.614 1.243-.333 3.61-.559 5.26-.501 2.91.102 2.926.126.5.834-5.376 1.568-7 2.302-7 3.164 0 .493 1.592.232 3.537-.581 1.964-.82 3.243-1.001 2.875-.406-.44.711.093.831 1.588.357 1.458-.463 2.024-.348 1.608.325-.368.596.538 1.217 2.125 1.457 1.522.23-.045.486-3.483.568-5.822.14-7.717 1.125-5.18 2.693.588.363 8.505.73 17.594.817 15.278.144 16.601.012 17.538-1.737.831-1.554 1.187-1.645 1.982-.508.8 1.144.896 1.124.556-.115-.316-1.147-1.685-1.43-5.827-1.201-3.557.196-4.946-.02-4.05-.63 1.151-.782 1.151-1.025 0-1.557-.75-.347.437-.414 2.637-.15 2.777.334 3.541.189 2.5-.475-.825-.526-1.05-.97-.5-.987.55-.017.325-.467-.5-1-1.164-.752-.87-.973 1.316-.985C71.342 49.993 74 51.713 74 54.34c0 4.205-4.888 12.183-10.357 16.904-6.318 5.455-7.936 9.97-7.71 21.507.079 3.987-.282 7.25-.802 7.25-.519 0-.722-1.012-.45-2.25zm-1.974-18c-.239-1.237-.434-.225-.434 2.25s.195 3.487.434 2.25c.238-1.238.238-3.263 0-4.5zm1.977 1.063c-.32-.798-.556-.561-.604.604-.043 1.054.193 1.644.525 1.312.332-.332.368-1.195.08-1.916zm-.557-10.19c.857-1.88.722-2.926-.649-5.017-1.618-2.47-1.818-2.527-3.072-.874-1.692 2.23-1.732 3.772-.164 6.282 1.624 2.6 2.565 2.506 3.885-.39zM45 65.108c0-.491-.739-1.176-1.641-1.523-1.373-.527-1.435-.38-.378.893 1.44 1.735 2.019 1.916 2.019.63zm12.544-2.208c.15-1.016-.778-1.558-2.912-1.7-2.268-.151-2.731.05-1.68.73.799.517 1.888.67 2.42.341.567-.35.69.126.297 1.15-.427 1.112-.248 1.606.493 1.36.64-.214 1.262-1.06 1.382-1.88zm-9.44-1.195c-1.284-1.284-2.585-.292-1.635 1.246.368.595 1.127.8 1.687.453.683-.422.666-.981-.052-1.7zM37 62c0-.55-.198-1-.441-1s-.72.45-1.059 1c-.34.55-.141 1 .441 1S37 62.55 37 62zm-4.322-3.043c-.632-1.674-1.297-2.599-1.478-2.056-.322.966 1.5 5.099 2.248 5.099.208 0-.139-1.37-.77-3.043zm38.129.517c-.308-.308-.867.247-1.243 1.233-.542 1.425-.428 1.54.56.56.684-.679.99-1.486.683-1.793zM48.475 76.959c-.365-.59-.794-2.264-.954-3.719-.269-2.45-.19-2.508 1.062-.795.744 1.017 1.14 2.195.879 2.617-.261.422.069.948.733 1.17.88.293.9.591.075 1.101-.623.385-1.43.217-1.795-.374zM42.75 53.338c.688-.278 1.813-.278 2.5 0 .688.277.125.504-1.25.504s-1.938-.227-1.25-.504zM45 51c2.472-.792 2.466-.803-.5-1.003l-3-.202 3.5-.9c3.334-.858 15.832-.397 16.85.622.266.266-1.954.556-4.933.646l-5.417.163L57 51c4.624.567 3.908.684-4.5.737-6.336.04-9.084-.23-7.5-.737zm5.73-.604c-.333-.332-1.196-.368-1.917-.08-.798.32-.561.557.604.605 1.054.043 1.644-.193 1.312-.525zM120.361 35.5c-.356-.926-1.875-1.5-3.969-1.5-4.747 0-4.502-2.841.734-8.522 5.524-5.993 7.873-5.986 7.873.022 0 2.475.45 4.5 1 4.5 1.572 0 1.17 2.778-.722 4.989-2.04 2.382-4.115 2.598-4.916.511zm2.754-7.5l-.616-4.5-3 2.86-3 2.861 2.844-1.787 2.844-1.787-.2 2.926c-.315 4.618-.08 5.927.878 4.877.477-.522.589-2.975.25-5.45zM118 31.559c0-1.055-1.92-1.499-2.49-.575-.345.559.074 1.016.931 1.016.857 0 1.559-.198 1.559-.441zM7.69 269.25c-.252-.962-.458-.175-.458 1.75s.206 2.712.457 1.75c.252-.963.252-2.538 0-3.5zm.028-17.986c-.23-1.52-.424-.514-.432 2.236-.007 2.75.18 3.994.418 2.764.237-1.23.243-3.48.014-5zm-.056-17.514c-.277-.688-.504-.125-.504 1.25s.227 1.938.504 1.25c.278-.688.278-1.813 0-2.5zm.087-70c-.16-12.238-.29-2.225-.29 22.25s.13 34.487.29 22.25c.16-12.238.16-32.263 0-44.5zm-.087-27c-.277-.688-.504-.125-.504 1.25s.227 1.938.504 1.25c.278-.688.278-1.813 0-2.5zm.063-9.982c-.223-1.797-.41-.568-.415 2.732-.006 3.3.176 4.77.405 3.268.228-1.503.232-4.203.01-6zm.009-17.992c-.212-2.352-.388-.676-.391 3.724-.004 4.4.169 6.324.384 4.276s.218-5.648.006-8zm-.01-18.008c-.222-1.797-.409-.568-.414 2.732-.006 3.3.176 4.77.405 3.268.228-1.503.232-4.203.01-6zm-.017-16.006c-.239-1.244-.444-.462-.455 1.738-.01 2.2.185 3.218.435 2.262s.26-2.756.02-4zm1.058-62.884c.404-.38 50.91-.846 112.235-1.034l111.5-.344.552 16 .551 16-.051-16.5-.052-16.5-112-.152c-75.192-.102-112.41.185-113.25.872-.96.787-1.196 8.13-1.015 31.652L7.469 72.5l.28-29.965c.155-16.481.612-30.276 1.016-30.657zM244.457 42c0-22.825.131-32.163.292-20.75.16 11.412.16 30.087 0 41.5-.16 11.412-.292 2.075-.292-20.75z"/></svg>