<svg xmlns="http://www.w3.org/2000/svg" width="246" height="420" viewBox="0 0 246 420"><path d="M97.269 418.307c.973-.254 2.323-.237 3 .037.677.274-.119.481-1.769.461-1.65-.02-2.204-.244-1.231-.498zm30.543.01c.722-.289 1.585-.253 1.917.079.332.332-.258.569-1.312.525-1.165-.048-1.402-.285-.604-.604zm13.438-.033c1.512-.23 3.987-.23 5.5 0 1.512.229.275.416-2.75.416s-4.263-.187-2.75-.416zm10 .027c.963-.252 2.538-.252 3.5 0 .963.251.175.457-1.75.457s-2.712-.206-1.75-.457zm22.062-.06c8.697-.166 22.647-.166 31 .001 8.354.168 1.238.304-15.812.303-17.05 0-23.884-.137-15.188-.303zm49.957.056c.973-.253 2.323-.237 3 .037.677.274-.119.482-1.769.461-1.65-.02-2.204-.244-1.231-.498zm9.011-.043c2.63-.207 6.68-.204 9 .006 2.321.21.17.379-4.78.376-4.95-.003-6.849-.175-4.22-.382zM19.348 410.22c-8.438-.194-12.482-.676-13.228-1.576-.946-1.14-1.33-125.083-1.143-368.323.02-25.851.213-29.368 1.686-30.84C8.199 7.943 16.737 7.857 119.318 8.35c90.685.435 111.237.776 112.328 1.867 1.93 1.93 2.053 398.729.124 399.934-1.134.708-182.13.767-212.422.069zm18.152-2.9c-14.646-.722-29.276-.757-28.848-.07.256.412 8.202.663 17.657.557 9.455-.106 14.491-.325 11.191-.488zm116.31-.067c-7.529-.17-20.129-.17-28-.001-7.87.169-1.71.308 13.69.308 15.4 0 21.84-.138 14.31-.307zm73.44.085c-.688-.278-1.813-.278-2.5 0-.688.277-.125.504 1.25.504s1.938-.227 1.25-.504zm3.507-197.088c-.134-108.763-.359-165.8-.5-126.75-.682 188.963-.685 324.5-.007 324.5.413 0 .64-88.987.507-197.75zM133.5 405.066c12.65-.106 36.95.012 54 .263 17.05.251 33.138.235 35.75-.037l4.75-.493V12.77l-108.624.571c-59.743.315-108.905.854-109.25 1.198-.796.797-.83 388.089-.034 388.885.325.325 9.325.865 20 1.2 10.674.334 19.526.71 19.67.837.242.211 25.967.09 83.738-.396zM77.2 287.8c-.66-.66-1.214-2.797-1.232-4.75-.052-5.788-1.71-7.05-9.27-7.05-3.619 0-6.812-.375-7.095-.833-.283-.459-1.826-.641-3.428-.406-2.24.329-3.636-.279-6.044-2.633-3.074-3.005-3.128-3.22-2.948-11.844l.184-8.784.633 8 .633 8 .387-9 .387-9 .338 8.284c.201 4.95.723 8.045 1.296 7.69.568-.35.959-10.098.959-23.882 0-12.81.338-26.846.75-31.191l.75-7.901.577 6.5.578 6.5.172-6.75c.101-3.948-.242-6.75-.827-6.75-.598 0-1-3.889-1-9.667 0-11.176-1.02-11.96-1.51-1.161-.182 4.03-.367 7.89-.41 8.578-.044.688-.755 1.25-1.58 1.25-1.22 0-1.513-1.726-1.57-9.25-.039-5.088-.457-10.15-.93-11.25-.565-1.314-.864 1.087-.872 7-.02 13.685 1.455 19.343 3.995 15.335.581-.917.851-.474.862 1.415.009 1.673-.475 2.652-1.235 2.5-.972-.194-1.214 4.414-1.087 20.75.093 11.986-.172 19.498-.618 17.5-.765-3.424-.787-3.391-1.014 1.5-.545 11.735-1.834-3-3.02-34.5-.672-17.875-1.33-33.4-1.461-34.5-.196-1.631-1.108-2.057-4.948-2.307-5.164-.337-6.435-1.768-4.606-5.185.861-1.61 1.946-2.087 4.327-1.902 5.711.443 7.67-.802 7.74-4.923.034-2.026.597-7.015 1.25-11.087l1.187-7.404 5-2.69 5-2.691 32-.692c37.68-.814 57.16-1.513 60.19-2.16 1.703-.363 2.259-1.299 2.5-4.213.269-3.246.643-3.746 2.81-3.746 2.113 0 2.55.527 2.824 3.399.647 6.777 2.123 7.744 12.784 8.38 7.073.422 10.068 1.023 11.48 2.301 1.114 1.008 1.912 1.248 1.912.575 0-.635 1.116-1.155 2.481-1.155 3.918 0 4.048 1.295 5.686 56.483 1.142 38.465 1.266 40.05 3.26 41.74 1.14.967 2.973 1.712 4.073 1.657 3.786-.192 4.5.125 4.5 1.998 0 2.81-2.583 4.455-5.938 3.784-2.024-.404-3.627-.025-5.17 1.224-1.934 1.566-2.295 3.008-2.684 10.712-.48 9.489-1.368 12.402-3.784 12.402-.828 0-2.724.881-4.214 1.958-2.897 2.093-1.151 1.973-53.21 3.644-10.725.344-25.575.912-33 1.262l-13.5.636-.305 4.75c-.24 3.736-.677 4.75-2.05 4.75-.96 0-2.285-.54-2.945-1.2zm3.483-3.987c-.32-.798-.556-.561-.604.604-.043 1.054.193 1.644.525 1.312.332-.332.368-1.195.08-1.916zm-1.953-4.744c-.08-1.062-.502-1.71-.938-1.44-.435.269-.792-.423-.792-1.539 0-1.391.47-1.847 1.5-1.452.825.317 1.5.978 1.5 1.469 0 .491 1.11.893 2.469.893 1.841 0 2.314-.402 1.86-1.584-.446-1.162-.807-1.261-1.356-.372-.412.667-1.159.96-1.659.65-.811-.501-.892-1.934-.443-7.913.087-1.162.695-1.536 1.879-1.155 1.44.463 1.49.379.284-.474-.925-.654-1.886-.69-2.602-.096-.624.518-2.326 1.04-3.783 1.161-2.21.183-2.666.723-2.749 3.251-.096 2.935-.123 2.952-.847.532l-.748-2.5-.516 2.5c-.489 2.364-.53 2.337-.771-.5l-.255-3-.763 3-.763 3-.119-2.784c-.104-2.46-.438-2.732-2.868-2.332-1.512.248-3.312.489-4 .534-.997.065-1.936 3.943-1 4.133.138.027 3.118.302 6.622.61 4.754.419 6.607.215 7.295-.8.683-1.007.846-.816.628.737C75.55 275.341 77.7 281 78.607 281c.148 0 .203-.869.123-1.93zm-.063-5.736c-.367-.366-.667-1.131-.667-1.7 0-.626.466-.567 1.183.15.651.651.951 1.416.667 1.7-.284.284-.817.217-1.183-.15zM67.157 271c0-1.375.228-1.938.505-1.25.278.688.278 1.813 0 2.5-.277.688-.504.125-.504-1.25zM78 268.941c0-.582.45-.78 1-.441.55.34 1 .816 1 1.059s-.45.441-1 .441-1-.477-1-1.059zm89.5 6.1c6.433-.433-1.04-.545-18-.271-15.95.258-33.275.784-38.5 1.17-5.225.386 2.875.508 18 .27 15.125-.237 32.45-.763 38.5-1.17zm-79.974-1.848c-.307-.308-1.114 0-1.793.683-.98.988-.865 1.102.56.56.986-.376 1.541-.935 1.233-1.243zm68.474.23c11.255-.611 22.401-1.516 22.746-1.846.135-.13-7.29-.754-16.5-1.388-22.372-1.54-72.963-2.629-71.914-1.547.457.472 14.857 1.083 32 1.358 41.949.673 41.672 2.334-.5 3-17.418.275-32.043.877-32.5 1.337-.8.806 47.114.15 66.668-.913zM55 272c0-.55-.198-1-.441-1s-.72.45-1.059 1c-.34.55-.141 1 .441 1S55 272.55 55 272zm35.667-.405c0-.836-.606-1.172-1.498-.83-.973.374-1.244.165-.774-.595.398-.644.508-1.17.246-1.17-.263 0-1.302-.267-2.31-.594-1.523-.495-1.579-.413-.331.484 1.02.734 1.1 1.084.25 1.095-.688.008-1.25.513-1.25 1.122 0 .609.66.853 1.468.544.807-.31 1.734-.133 2.059.393.878 1.421 2.14 1.157 2.14-.449zm92.872-1.618c.529.07 1.794-.092 2.812-.358 1.938-.507 1.4-2.63-.66-2.604-.812.01-.766.285.144.862 1.014.643.835.976-.75 1.39-2.488.651-3.138-.215-3.558-4.74-1.006-10.825-1.853-15.612-2.875-16.26-.634-.4-3.577-.737-6.54-.747-3.926-.015-5.676-.472-6.443-1.686-1.696-2.684.882-4.834 5.798-4.834 7.437 0 7.126 1.588 8.906-45.5.873-23.1 1.874-43.575 2.224-45.5.522-2.873.4-3.276-.68-2.25-.725.688-2.914 1.278-4.867 1.312-1.952.034-6.355.597-9.782 1.252-6.764 1.292-8.85 3.112-9.432 8.232-.272 2.395-.81 2.954-2.836 2.954-2.231 0-2.533-.462-2.81-4.304-.17-2.368-.846-4.494-1.5-4.725-1.188-.42-41.439-2.1-72.69-3.037-9.075-.271-18.246-.67-20.38-.886l-3.881-.393.708 6.673c.39 3.67.771 7.797.848 9.172.176 3.188 1.325 3.966 5.884 3.985 3.29.013 6.847 2.019 6.806 3.836-.045 1.988-1.985 3.074-6.001 3.36l-4.484.319-.686 21c-1.446 44.28-1.423 70.438.063 71.007.757.29 1.947.054 2.644-.525.698-.579 1.653-.958 2.124-.844 2.074.506 12.449-1.48 13.083-2.505.386-.623.943-2.933 1.237-5.133.463-3.462.905-4.043 3.285-4.316 2.573-.296 2.751-.07 2.765 3.5.009 2.099.346 4.311.75 4.916.464.695 7.737 1.346 19.735 1.765 10.45.365 22.6.862 27 1.106 4.4.243 17.42.7 28.935 1.017 11.653.319 21.472 1.02 22.146 1.58.667.553 1.025 2.001.795 3.219-.345 1.832-.278 1.899.393.389.445-1.003 1.242-1.768 1.77-1.699zm-45.227 1.275c-8.353-.167-22.303-.167-31 0-8.696.166-1.862.303 15.188.303s24.166-.136 15.812-.303zM55.5 269.184c-1.1-.228-2.33-.926-2.735-1.55-.51-.787-.74-.719-.75.223-.01.856-.661 1.132-1.765.748-1.665-.58-1.665-.544.001.754 1.027.799 2.889 1.13 4.5.802 2.269-.464 2.4-.634.749-.977zm117.5-.748c-3.365-.744-15.819-.94-14.703-.231.662.42 4.578.72 8.703.664 4.125-.056 6.825-.25 6-.433zm-17.083-.797c-.23-.199-11.892-.562-25.917-.808-14.025-.246-21.675-.167-17 .175 9.489.694 43.567 1.197 42.917.633zm-102.2-9.389c-.23-1.512-.417-.275-.417 2.75s.187 4.263.416 2.75c.23-1.512.23-3.987 0-5.5zm24.921 6.25c-.316-.825-.273-2.288.097-3.25.57-1.48.78-1.366 1.37.75.533 1.917.702 1.45.725-2 .022-3.377-.185-4-.83-2.5l-.86 2-.185-2c-.107-1.155-.502-.522-.935 1.5-.412 1.925-1.084 4.287-1.492 5.25-.54 1.275-.276 1.75.972 1.75 1.113 0 1.512-.526 1.138-1.5zm109.088-3.255c.497-10.42 1.262-13.172 4.085-14.705 2.298-1.248 2.398-1.468.689-1.515-1.609-.045-1.716-.235-.548-.974.799-.506 1.924-.628 2.5-.273.577.356-.077-.74-1.452-2.434-1.375-1.694-2.677-2.926-2.892-2.736-.216.189.185 1.04.892 1.892.707.852 1.018 1.816.69 2.142-.984.986-6.717 1.184-9.542.33-2.17-.656-1.655-.845 2.852-1.049l5.5-.249-5.5-.601c-3.741-.41-6.005-.197-7.079.663-.868.695-3.257 1.264-5.309 1.264-2.051 0-3.476.412-3.165.915.311.503 0 1.142-.69 1.42-.692.28.093.536 1.743.57 2.208.048 2.615-.18 1.54-.86-1.062-.67-.593-.899 1.715-.833 1.884.054 2.92.505 2.547 1.11-.38.615.029.765 1.034.38.95-.365 1.664-.152 1.664.496 0 .624.337.799.748.387.412-.412-.124-1.387-1.19-2.167-2.267-1.657-1.304-1.888 1.536-.368 1.079.578 1.752 1.39 1.495 1.805-.256.416-.038 2.53.485 4.7.523 2.17 1.4 6.172 1.95 8.893.55 2.722 1.557 5.302 2.238 5.735a62.64 62.64 0 0 1 1.238.797l.226-4.735zm12.94-16.745c0-.825-.626-1.5-1.392-1.5-.765 0-1.138.412-.827.915.311.503 0 1.142-.69 1.42-.692.28-.32.543.826.586 1.22.046 2.084-.542 2.084-1.421zm-12.397-5.156c-.677-.274-2.027-.29-3-.037-.973.254-.419.478 1.231.498 1.65.02 2.446-.187 1.769-.461zM183 238c0-.55-.198-1-.441-1s-.72.45-1.059 1c-.34.55-.141 1 .441 1s1.059-.45 1.059-1zm6.657-3.5l.324-3-1.48 3c-1.262 2.556-1.393 2.63-.888.5.574-2.417.544-2.434-.92-.511-1.728 2.268-1.246 3.765 1.067 3.316.916-.178 1.708-1.557 1.897-3.305zm-8.44-11.5c.293-8.003.182-11.464-.274-8.5-.777 5.06-1.248 23.185-.582 22.417.199-.23.584-6.492.856-13.917zm2.456.75c.13-9.181-.04-11.123-.676-7.75-1.439 7.628-1.18 20.003.42 20 .045 0 .16-5.513.256-12.25zm8.016 7.5c-.251-.963-.457-.175-.457 1.75s.206 2.712.457 1.75c.252-.963.252-2.538 0-3.5zm-5.561 1c1.243-1.586 1.208-1.621-.378-.378-.963.755-1.75 1.543-1.75 1.75 0 .823.821.294 2.128-1.372zm1.751-33.674c-.874-.802-1.008-.61-.526.756.356 1.007.747 8.657.87 17l.222 15.168.304-15.924c.215-11.254-.04-16.24-.87-17zM46.693 222.27c-.254-.973-.478-.419-.498 1.231-.02 1.65.187 2.446.46 1.769.275-.677.292-2.027.038-3zm-1.01-14.457c-.32-.797-.556-.56-.604.605-.043 1.054.193 1.644.525 1.312.332-.332.368-1.195.08-1.917zm136-1c-.32-.797-.556-.56-.604.605-.043 1.054.193 1.644.525 1.312.332-.332.368-1.195.08-1.917zm9.035-8.548c-.23-1.52-.424-.514-.432 2.236-.007 2.75.18 3.994.418 2.764.237-1.23.243-3.48.014-5zm-145.7-7.764l-.697-13-.16 10.125c-.137 8.63.561 17.13 1.328 16.16.123-.157-.089-6.135-.472-13.285zm4.675 4.769c-.254-.973-.478-.419-.498 1.231-.02 1.65.187 2.446.46 1.769.275-.677.292-2.027.038-3zm-.01-5.457c-.32-.797-.556-.56-.604.605-.043 1.054.193 1.644.525 1.312.332-.332.368-1.195.08-1.917zm134.217-2.395c.193 3.696.958 1.002 1.541-5.426.338-3.725.163-7.13-.41-7.991-.72-1.079-1.009.326-1.031 5-.022 4.57-.318 6.055-1 5-.71-1.098-.947-.427-.885 2.5.073 3.47.19 3.669.885 1.5.624-1.947.823-2.076.9-.583zm3.783-.604c-.32-.798-.556-.561-.604.604-.043 1.054.193 1.644.525 1.312.332-.332.368-1.195.079-1.917zm-136.091-7.555c-.326-.325-.592-.04-.592.634s-.457.943-1.016.598c-.56-.346-.718-1.16-.354-1.81.485-.863.313-.855-.64.028-1.073.992-1.068 1.493.027 2.813 1.222 1.472 1.409 1.47 2.25-.033.504-.9.65-1.904.325-2.23zm135.934-15.508c-.4-10.037-.512-18.025-.248-17.75.265.275.777 5.654 1.138 11.953.361 6.3.912 11.7 1.224 12 1.192 1.148-.874-23.485-2.075-24.75-1.01-1.064-1.241-1.064-1.284 0-.028.713-.394 7.035-.813 14.047-.558 9.36-.455 12.75.386 12.75.709 0 1.146 1.908 1.146 5 0 2.75.282 5 .628 5 .345 0 .3-8.213-.102-18.25zM50.27 176.344c-.677-.274-2.027-.29-3-.037-.973.254-.419.478 1.231.498 1.65.02 2.446-.187 1.769-.461zm-3.77-3.705c.762-.293 2.952-.278 4.867.033 2.636.428 3.355.96 2.963 2.196-.437 1.378-.356 1.403.52.166.66-.935.691-1.883.085-2.613-1.018-1.227-3.92-21.307-3.497-24.192.14-.951.736-1.729 1.325-1.729.59 0 1.341-.27 1.671-.6.33-.33-.832-.555-2.583-.5-1.75.055-3.3.674-3.442 1.375-.142.701-.03.814.25.25S49.58 146 50.083 146c1.032 0 .807 2.208-.311 3.045-.4.3-1 3-1.33 6-.924 8.361-.938 10.269-.09 12.705.51 1.465.39 2.25-.344 2.25-.62 0-.8-.527-.403-1.17.513-.83.167-.931-1.191-.348-1.053.453-3.38 1.029-5.173 1.28-1.793.253-3.554.936-3.914 1.518-.404.653-.041.824.944.446.88-.337 1.788-.076 2.018.58.286.815 1.101.588 2.571-.717 1.184-1.05 2.385-1.677 2.67-1.392.285.285-.14 1.065-.946 1.734-.846.701-1.186 1.924-.804 2.892.614 1.558.685 1.559.997.012.185-.916.96-1.904 1.722-2.196zm5.251 1.672c-.963-.252-2.538-.252-3.5 0-.963.251-.175.457 1.75.457s2.712-.206 1.75-.457zm-16.067-3.499c-.32-.797-.556-.56-.604.605-.043 1.054.193 1.644.525 1.312.332-.332.368-1.195.08-1.917zm28.983.938c0-.758-1.213-1.198-3.083-1.118-5.643.242-6.128.661-1.583 1.368 2.475.385 4.537.767 4.583.85.046.082.084-.413.083-1.1zm119.064-13.478c-.217-2.074-.397-.622-.402 3.228-.004 3.85.173 5.548.394 3.772.22-1.775.224-4.925.008-7zm-27.09.226c.316-.826.271-2.715-.1-4.198-.531-2.114-.875-2.383-1.593-1.248-1.25 1.975-1.189 6.948.084 6.948.568 0 1.291-.676 1.608-1.502zm28.066-10.748c-.239-1.238-.434-.225-.434 2.25s.195 3.487.434 2.25c.238-1.238.238-3.263 0-4.5zM159 150.441c0-.793.45-1.497 1-1.566.55-.069 1.45-.237 2-.375s1.45-.306 2-.375.993-.912.985-1.875c-.013-1.496-.157-1.532-.985-.25-.835 1.293-.971 1.266-.985-.191-.019-2.09 1.59-3.175 3.576-2.412 1.178.451 1.262 1.008.4 2.62-.985 1.84-.859 1.988 1.25 1.458 1.291-.323 4.013-.675 6.049-.782 2.831-.148 3.702-.618 3.706-2.002.002-.995-.351-1.59-.786-1.321-1.517.938-16.725-1.675-18.46-3.171-1.278-1.102-1.75-1.169-1.75-.247 0 .71-.655 1.01-1.5.686-1.178-.452-1.5.277-1.5 3.393 0 3.634.232 3.979 2.75 4.087l2.75.119-3 .649c-2.93.634-3.014.542-3.593-3.869l-.593-4.517-.157 5.191c-.086 2.855.293 5.47.843 5.809.55.34 1 .141 1-.441s.886-1.059 1.969-1.059c1.425 0 1.792.46 1.33 1.664-.43 1.119-.256 1.427.531.941.644-.398 1.17-1.371 1.17-2.164zm-.75-3.161c-.688-.246-1.25-1.116-1.25-1.935 0-1.263.244-1.244 1.619.131 1.76 1.76 1.607 2.51-.369 1.804zm-19.474 1.993c-2.048-.215-5.648-.218-8-.007-2.352.211-.676.387 3.724.39 4.4.005 6.324-.168 4.276-.383zM151 148.5c0-.825-.177-1.5-.393-1.5-.216 0-.652.675-.969 1.5-.316.825-.14 1.5.393 1.5s.969-.675.969-1.5zm-42.224-.227c-2.048-.215-5.648-.218-8-.007-2.352.211-.676.387 3.724.39 4.4.005 6.324-.168 4.276-.383zm4.05-1.766c.28-.279-4.068-.507-9.66-.507-7.458 0-10.17-.333-10.181-1.25-.01-.83-.334-.745-.962.25-.75 1.188-4.337 1.63-17.235 2.128-10.834.418-7.278.504 10.622.257 14.8-.204 27.138-.6 27.416-.878zM133 147.559c0-.243-.45-.72-1-1.059-.55-.34-1-.141-1 .441s.45 1.059 1 1.059 1-.198 1-.441zm8.75-.275c-1.512-.23-3.987-.23-5.5 0-1.512.229-.275.416 2.75.416s4.263-.187 2.75-.416zm-25.02-.888c-.333-.332-1.196-.368-1.918-.08-.797.32-.56.557.605.605 1.054.043 1.644-.193 1.312-.525zm64.824-2.309c-.37-.598-1.208-1.051-1.863-1.008-.859.057-.842.22.059.583.687.278 1.25.944 1.25 1.48 0 .537-.52.655-1.155.263-.744-.46-.881-.273-.387.528.512.827 1.101.908 1.768.241.55-.55.697-1.489.328-2.087zM86 145.022c0-.527-.749-.672-1.664-.32-1.119.429-1.427.255-.941-.532.538-.87-2.606-1.17-12.277-1.17-7.15 0-13.26.42-13.578.935-.73 1.182 3.083 1.59 17.21 1.845 6.658.12 11.25-.19 11.25-.758zm62.533-5.222c.073-.99-.483-1.8-1.235-1.8-.994 0-1.112.479-.43 1.75.877 1.636-.045 1.732-14.215 1.466-8.334-.156-20.553.135-27.153.647-10.704.83-9.175.914 14.156.783 14.385-.08 25.946.192 25.69.604-.255.412-1.225.757-2.155.765-1.34.012-1.408.195-.323.882 1.647 1.044 5.466-2.392 5.665-5.097zm-87.264 1.544c-.677-.274-2.027-.29-3-.037-.973.254-.419.478 1.231.498 1.65.02 2.446-.187 1.769-.461zm35.515-1.078c-2.595-.205-7.095-.207-10-.005-2.906.203-.784.371 4.716.374 5.5.003 7.878-.163 5.284-.369zM154 138.375c0-1.142-.36-1.167-2-.143-1.1.687-2 1.549-2 1.915 0 .366.9.43 2 .143 1.1-.288 2-1.15 2-1.915zm-18.75.88c-5.638-.18-14.863-.18-20.5 0-5.638.177-1.025.323 10.25.323s15.887-.146 10.25-.324zm21.562-5.45c-.174-1.751-.978-3.33-1.812-3.554-1.247-.335-1.265-.24-.106.571 1.015.71 1.22 2.158.752 5.326-.487 3.3-.386 3.924.418 2.58.583-.974.92-3.19.748-4.923zm-2.129-.992c-.32-.798-.556-.561-.604.604-.043 1.054.193 1.644.525 1.312.332-.332.368-1.195.08-1.917zM115 35.5c-.685-.825-2.329-1.5-3.654-1.5-4.008 0-3.876-2.678.433-8.791 5.286-7.498 7.608-7.661 8.02-.563.239 4.119.688 5.248 2.25 5.656 2.678.701 2.45 2.558-.452 3.661-1.321.503-2.698 1.391-3.059 1.975-.91 1.472-2.073 1.327-3.538-.438zm2.683-3.688c-.32-.797-.556-.56-.604.605-.043 1.054.193 1.644.525 1.312.332-.332.368-1.195.08-1.917zm-4.433-.474c-.688-.278-1.813-.278-2.5 0-.688.277-.125.504 1.25.504s1.938-.227 1.25-.504zm2.291-2.405c1.076-1.741-.15-2.11-1.52-.457-.79.95-.866 1.524-.202 1.524.584 0 1.36-.48 1.722-1.067zm1.738-5.054c-.503-.503-.656.722-.358 2.872.478 3.451.547 3.52.877.877.197-1.58-.036-3.266-.519-3.749zM7.743 376.701c-.185-4.51-.335-.551-.334 8.799.001 9.35.153 13.04.336 8.2.184-4.839.183-12.489-.002-17zm-.05-31.432c-.254-.973-.478-.419-.498 1.231-.02 1.65.187 2.446.46 1.769.275-.677.292-2.027.038-3zm.057-110.445c-.152-19.978-.276-3.924-.276 35.676s.124 55.946.276 36.324c.151-19.622.151-52.022 0-72zm-.067-46.012c-.32-.797-.556-.56-.604.605-.043 1.054.193 1.644.525 1.312.332-.332.368-1.195.08-1.917zm.065-43.002c-.17-7.87-.308-1.71-.308 13.69 0 15.4.138 21.84.307 14.31.17-7.529.17-20.129.001-28zM6.662 71.75c-.277-.688-.504-.125-.504 1.25s.227 1.938.504 1.25c.278-.688.278-1.813 0-2.5zm1.031-19.481c-.254-.973-.478-.419-.498 1.231-.02 1.65.187 2.446.46 1.769.275-.677.292-2.027.038-3zm.05-30.568c-.185-4.51-.335-.551-.334 8.799.001 9.35.153 13.04.336 8.2.184-4.839.183-12.489-.002-17zm10.52-10.405c-1.23-.237-3.48-.243-5-.014-1.52.23-.513.424 2.237.432 2.75.007 3.994-.18 2.764-.418zm126.987-.02c-1.788-.221-4.713-.221-6.5 0-1.788.222-.325.404 3.25.404s5.037-.182 3.25-.403zm98.829 182.14c.048-1.164.285-1.401.604-.604.289.722.253 1.585-.079 1.917-.332.332-.568-.258-.525-1.312zm.4-101.916c0-50.05.122-70.379.27-45.174.15 25.204.15 66.154 0 91-.148 24.845-.27 4.224-.27-45.826z"/></svg>