<svg xmlns="http://www.w3.org/2000/svg" width="492" height="841" viewBox="0 0 492 841"><path d="M352.813 839.317c.721-.289 1.584-.253 1.916.079.332.332-.258.568-1.312.525-1.165-.048-1.402-.285-.604-.604zm13.915-.039c1.775-.22 4.925-.224 7-.008 2.074.217.622.398-3.228.402-3.85.004-5.548-.173-3.772-.394zm13.085.039c.721-.289 1.584-.253 1.916.079.332.332-.258.568-1.312.525-1.165-.048-1.402-.285-.604-.604zm4 0c.721-.289 1.584-.253 1.916.079.332.332-.258.568-1.312.525-1.165-.048-1.402-.285-.604-.604zm4.437-.006c.963-.252 2.538-.252 3.5 0 .963.251.175.457-1.75.457s-2.712-.206-1.75-.457zm12.037-.05c3.182-.2 8.132-.198 11 .003 2.867.201.263.364-5.787.362-6.05-.002-8.396-.167-5.213-.366zm36.463-.009c10.037-.163 26.462-.163 36.5 0 10.037.163 1.825.297-18.25.297s-28.288-.134-18.25-.297zM18.617 820.356l-2.61-3.942-.476-59.957c-.76-95.679-1.927-476.719-1.866-609.607l.056-121.65 2.181-3.062c1.415-1.987 3.308-3.24 5.39-3.569 1.764-.278 41.908-.743 89.208-1.034 47.3-.29 127.85-.795 179-1.121 166.22-1.061 176.335-1.008 178.288.946 1.576 1.576 1.666 6.445 1.217 66.42-1.07 143.157-.146 537.432 1.595 679.734.6 49.105.505 55.154-.884 56.307-1.83 1.519-37.758 1.924-334.353 3.767l-114.137.71zm207.383.168c198.511-1.398 240.59-1.842 241.355-2.546.757-.698.819-64.145.087-90.478-.153-5.5-.494-167.05-.76-359l-.481-349-3.85-.724c-2.118-.399-33.776-.514-70.351-.257-176.434 1.24-236.61 1.559-297.5 1.574-36.3.01-67.9.266-70.22.571-3.3.433-4.68 1.24-6.316 3.695L15.87 27.5l.59 315c.595 317.805 1.2 435.594 2.415 470.615.07 2.04 1.075 4.823 2.305 6.387l2.18 2.77 72.57-.67c39.913-.37 98.445-.855 130.07-1.078zM23.048 816.09c-1.12-2.092-1.44-21.793-2.694-166.09-.857-98.398-1.018-611.141-.195-617.947.422-3.49 1.298-5.914 2.44-6.75 1.394-1.019 11.289-1.332 45.342-1.436 23.958-.073 55.484-.26 70.059-.416 47.39-.508 204.035-1.545 264.285-1.75 48.054-.164 58.936.042 59.61 1.131.454.733.898 129.433.987 286 .089 156.568.32 304.468.513 328.668.903 113.074.7 176.824-.567 177.606-.686.424-19.49.838-41.788.92-22.297.081-58.54.296-80.54.476-22 .18-102.182.619-178.182.974-138.183.645-138.183.645-139.27-1.386zM263 814.493c129.411-.603 196.95-1.344 198.297-2.177.536-.33.653-31.829.289-77.187-1.319-163.894-1.913-369.995-1.677-581.629.065-58.3.112-111.334.104-117.853L460 23.794l-110.75.595c-60.913.327-134.15.848-162.75 1.157-28.6.31-76.75.819-107 1.131-30.25.313-55.292.851-55.648 1.196C21.549 30.1 20.762 275.728 22.314 508c.362 54.175.895 142.375 1.185 196 .531 98.115.835 109.848 2.884 111.282.614.43 28.117.55 61.117.265 33-.283 111.975-.758 175.5-1.054zM130.5 564.931c-16.805-6.205-20.27-7.95-21.351-10.755-.568-1.472-2.462-6.951-4.209-12.176-1.747-5.225-3.84-10.796-4.65-12.38-1.9-3.71-1.293-7.99 2.625-18.496 2.743-7.356 2.98-8.77 1.956-11.605-.883-2.44-.888-4.033-.02-6.523.698-2 1.149-10.256 1.149-21.023 0-14.538-.27-17.952-1.5-18.973-1.938-1.608-1.938-7.392 0-9 1.228-1.02 1.5-4.4 1.5-18.663 0-16.024-.165-17.641-2.062-20.207-2.248-3.04-1.934-7.059.725-9.265 1.23-1.02 1.427-5.27 1.227-26.29l-.24-25.073-3.331-9.444c-1.832-5.194-3.085-10.221-2.783-11.171.301-.95.734-2.69.96-3.867.227-1.177 1.646-4.7 3.154-7.83s3.894-8.568 5.302-12.085c1.408-3.517 3.233-6.74 4.054-7.161 4.176-2.142 23.419-8.988 26.77-9.524 2.864-.458 6.23.183 13.18 2.512 8.113 2.718 9.781 2.98 12.746 2.001 2.728-.9 4.391-.806 8.293.47 6.994 2.288 33.774 2.275 38.608-.019 1.873-.889 4.416-1.37 5.651-1.07 1.235.301 4.046 1.02 6.246 1.597 5.89 1.547 35.406.812 38.21-.952 1.859-1.17 2.794-1.178 5.892-.058 2.532.915 8.554 1.297 19.29 1.221 32.29-.226 39.199-.694 45.608-3.09 9.47-3.538 12.064-3.55 20.388-.097 4.063 1.686 7.888 3.07 8.5 3.075.611.005 3.46 1.102 6.328 2.438 5.3 2.468 7.587 5.618 10.222 14.082.508 1.634 2.232 6.383 3.83 10.554 3.275 8.547 3.24 9.819-.513 18.916-2.085 5.052-2.634 7.907-2.469 12.816.118 3.474-.258 7.198-.835 8.276-.61 1.138-1.076 9.318-1.115 19.515-.057 14.921.206 18.16 1.752 21.588 1.721 3.817 1.727 4.19.115 7-1.434 2.5-1.703 5.862-1.703 21.327 0 11.161.392 18.602 1 18.978 1.412.873 1.244 5.856-.249 7.349-.924.924-1.182 5.846-.995 18.95.431 30.072.845 35.043 3.638 43.701 1.42 4.4 2.586 9.258 2.593 10.794.016 3.342-9.366 28.363-11.531 30.755-1.782 1.968-10.45 5.6-22.686 9.505l-8.73 2.786-10.155-3.133c-7.847-2.421-10.603-2.893-12.126-2.078-2.006 1.074-7.634.748-13.512-.782-1.79-.466-10.79-.518-20-.115-19.2.839-17.527.832-43.298.182-18.62-.47-19.663-.396-21.903 1.546-2.946 2.555-4.121 2.555-7.366.002-2.374-1.867-3.99-2.036-19.385-2.023-9.751.008-18.771.519-21.507 1.217-3.38.863-5.666.91-8.084.168-2.827-.868-4.73-.574-11.787 1.82-4.629 1.57-9.541 2.83-10.917 2.799-1.375-.032-6.1-1.387-10.5-3.012zm12.79.445c1.54-1.539 15.451-5.48 17.704-5.014 1.378.284 3.81.834 5.405 1.222 2.19.534 2.71.4 2.124-.546-.573-.928-.158-1.078 1.602-.58 1.625.46 1.947.376 1.018-.267-.948-.658-1.023-1.147-.25-1.625 1.498-.926 1.404-5.851-.143-7.491-1.007-1.068-.97-1.24.195-.885 1.749.533 3.25 5.588 2.432 8.185-.354 1.123-.19 1.627.41 1.256.551-.34 1.172-2.4 1.38-4.576.355-3.732.165-4.052-3.333-5.63-3.696-1.667-10.77-1.24-7.985.482.96.593.89 1.064-.302 2.054-2.003 1.663-1.964 3.92.108 6.21.953 1.053 1.175 1.829.523 1.829-1.716 0-4.243-4.41-3.943-6.882.23-1.902-1.007-2.69-9.53-6.063l-9.797-3.878-6.204 2.453c-3.412 1.348-7.104 2.88-8.204 3.404-3.254 1.55-10.643 3.966-12.126 3.966-2.055 0-1.692-2.106 1.649-9.55 1.662-3.706 2.851-6.91 2.641-7.119-.21-.21-1.588 2.402-3.063 5.803-1.475 3.402-3.028 5.776-3.452 5.275-1.591-1.88-3.095-6.409-2.128-6.409.539 0 .979-.6.979-1.333 0-.734-.675-1.334-1.5-1.334s-1.507.488-1.515 1.084c-.008.595-.501.408-1.095-.417-1.189-1.653-1.342-2.148 2.63 8.5 2.45 6.565 4.325 8.148 13.66 11.529a985.806 985.806 0 0 1 11.82 4.397c7.328 2.784 7.432 2.809 8.29 1.95zm20.953-7.533c-2.899-2.899-.307-7.273 3.952-6.67 1.905.27 2.305.934 2.305 3.827 0 2.991-.364 3.543-2.507 3.793-1.379.161-3.066-.266-3.75-.95zm5.352-.998c.453-.731.274-.882-.488-.41-1.822 1.125-4.155-.145-3.483-1.897.71-1.851 3.011-2.03 3.714-.288.395.98.521.972.583-.031.122-1.977-2.903-2.666-4.535-1.033-.81.81-1.173 2.205-.816 3.136.735 1.915 3.958 2.25 5.025.523zm-3.326-7.538c.973-.254 2.323-.237 3 .037.677.274-.119.481-1.769.461-1.65-.02-2.204-.244-1.231-.498zm177.485 12.394c.054-3.13.033-3.146-.963-.701-.599 1.468-1.213 1.984-1.488 1.25-.259-.688-.93-1.25-1.493-1.25-.563 0-.745.726-.405 1.614.529 1.377.07 1.51-3.143.91-4.917-.918-3.813.174 1.297 1.284 5.234 1.137 6.13.687 6.195-3.107zm3.975 1.695c-.332-.332-1.195-.368-1.916-.08-.798.32-.561.557.604.605 1.054.043 1.644-.193 1.312-.525zM218.362 561.5c.486-1.268 3.842-1.5 21.672-1.5 13.345 0 21.848.402 23.14 1.093 1.476.79 2.343.79 3.133 0 .69-.69 7.58-1.176 18.643-1.318l17.55-.225-17.25-.298c-10.351-.18-17.25-.69-17.25-1.276a.991.991 0 0 0-1-.976c-.55 0-1 .675-1 1.5s-.675 1.5-1.5 1.5c-1.133 0-1.5-1.222-1.5-5s.367-5 1.5-5c.825 0 1.5.765 1.5 1.7 0 1.322.267 1.433 1.2.5 1.738-1.738-.455-3.603-3.377-2.872-1.98.496-2.323 1.216-2.323 4.877v4.295l-21.185.27-21.185.27-.405-3.27c-.348-2.808-.428-2.66-.565 1.053-.13 3.537-.478 4.261-1.91 3.98-1.597-.313-2.046-3.69-1.334-10.053.127-1.137 3.084-.898 3.084.25 0 .55.45 1 1 1 1.742 0 1.08-1.886-1.064-3.034-2.42-1.295-5.106.329-4.858 2.937.084.878.1 2.835.037 4.347L213 559l-18.25.226-18.25.226 18.146.296c14.524.237 18.39.591 19.372 1.774 1.579 1.902 3.61 1.891 4.344-.022zm140.138-1.634c10.561-3.968 12.52-5.698 15.7-13.866 7.894-20.283 7.96-20.53 6.459-24.678-4.127-11.406-5.734-18.313-4.708-20.23 1.445-2.7 1.313-6.355-.346-9.552-.915-1.763-1.644-2.286-2.118-1.518-.399.644-2.042.977-3.659.74-2.23-.328-3.191.07-4.004 1.653-.88 1.715-.834 1.863.254.835 1.528-1.445 4.32-1.704 3.466-.321-.315.51.427 1.073 1.65 1.25 1.372.198 2.489 1.279 2.915 2.821.522 1.886.716 2.028.791.579.055-1.057-.687-2.797-1.65-3.866-1.677-1.864-1.666-1.93.25-1.569 2.18.41 3.047 3.541 2.064 7.458-.46 1.835-1.243 2.375-3.333 2.298l-2.731-.1 2.5-.8c1.877-.601 2.033-.825.628-.9-1.572-.084-1.667-.348-.593-1.642.91-1.096.97-1.853.21-2.613-1.57-1.57-3.245-.107-3.245 2.83 0 1.943-.421 2.449-1.75 2.104-1.45-.377-1.758.246-1.797 3.633-.027 2.249-1.342 8.022-2.924 12.83-2.346 7.13-2.667 9.157-1.742 11 2.79 5.554 8.284 21.137 7.977 22.62-.352 1.692-1.809 1.873-5.264.655-1.667-.588-1.75-.51-.5.471 1.206.947.813 1.08-2 .68-1.925-.274-4.349-.833-5.386-1.242-1.383-.546-1.76-.368-1.41.665.327.969 2.089 1.409 5.638 1.409 6.524 0 6.228 1.806-.42 2.555-4.515.508-4.719.64-2.462 1.6 2.346.996 2.22 1.125-2.75 2.775-2.865.952-5.21 1.95-5.21 2.218 0 .571 2.607-.192 9.5-2.782zm-45 1.134c-2.295-.584-2.49-.791-.832-.882 3.138-.17 5.332-1.169 5.332-2.425 0-.731-.397-.696-1.2.107-1.56 1.56-5.024 1.535-6.802-.05-1.164-1.038-1.16-.934.018.615 1.279 1.68 1.224 1.828-.548 1.492-1.552-.295-2.08-1.43-2.5-5.366l-.532-4.991-.475 4.743c-.447 4.473-.303 4.827 2.532 6.227 1.654.817 4.132 1.441 5.507 1.389 2.302-.088 2.262-.156-.5-.859zm11.876-.62c-3.96-1.404-4.128-1.638-4.212-5.855-.068-3.388.303-4.473 1.624-4.744.942-.193-.763-.39-3.788-.436-3.68-.058-4.838.179-3.5.714 1.466.587 1.575.82.405.87-2.34.104-5.056 3.513-4.322 5.426.787 2.052 2.78 2.117 4.417.145.685-.825 1.865-1.5 2.622-1.5 1.979 0 1.7 3.704-.372 4.964-1.458.886-1.329.97.774.498 1.387-.31 3.637-.12 5 .423 1.362.544 3.151.981 3.976.973.825-.01-.356-.674-2.624-1.478zM312 555.607c0-.216.675-.652 1.5-.969.825-.316 1.5-.14 1.5.393s-.675.969-1.5.969-1.5-.177-1.5-.393zm26 4.96c0-1.729-1.655-2.24-9.5-2.933l-6-.53 5 1.496c2.75.823 5.9 1.894 7 2.38 2.879 1.273 3.5 1.2 3.5-.413zm12.5-1.128l4-1.53-3.469.564c-1.908.31-3.91 1.006-4.45 1.546-1.302 1.302-.809 1.23 3.919-.58zM217 554.833c0-4.934-.494-4.776-1.296.417-.32 2.077-.16 3.75.359 3.75.515 0 .937-1.875.937-4.167zm47.707-1.071c-.239-1.244-.444-.462-.455 1.738-.01 2.2.185 3.218.435 2.262s.26-2.756.02-4zm-5.548 1.98c.39-.63.487-1.505.216-1.944-.698-1.13-35.56-.966-37.367.176-2.21 1.397-.194 2.838 4.492 3.21 8.9.704 31.962-.313 32.66-1.442zm94.826.411c-.05-2.142-1.99-3.369-4.378-2.77-1.711.43-2.607.248-2.607-.53 0-.653-.337-.85-.748-.438-.412.412.124 1.387 1.19 2.167 1.908 1.395 1.907 1.418-.098 1.418-1.133 0-2.51-1-3.1-2.25-.986-2.088-1.038-2.034-.722.75.187 1.65.37 3 .408 3 3.54 0 10.066-.874 10.055-1.347zM211 555c0-1.916-.662-2-15.75-1.985-15.406.015-19.207.628-17.82 2.873.46.743 6.145 1.112 17.129 1.112 15.774 0 16.441-.081 16.441-2zm90.285 1.286c1.493-.286 2.715-1.153 2.715-1.927 0-1.165-2.885-1.36-16.737-1.133-15.188.249-16.77.44-17.083 2.07-.32 1.668.693 1.787 14.022 1.653 7.902-.08 15.59-.378 17.083-.663zM340 556c-1.375-.44-3.737-.846-5.25-.9-1.512-.055-2.75-.536-2.75-1.069 0-.532-.694-.702-1.543-.376-.849.326-1.304.832-1.011 1.124.71.71 7.426 1.987 10.554 2.006l2.5.016zm-13.27-.604c-.333-.332-1.196-.368-1.918-.08-.797.32-.56.557.605.605 1.054.043 1.644-.193 1.312-.525zm14.592-1.034c-.744-.304-.972-1.744-.619-3.921.379-2.334.17-3.441-.652-3.441-2.466 0-16.033 4.53-16.042 5.357-.005.471.779.515 1.741.098 3.936-1.709 8.513-1.737 9.451-.06.507.906 1.313 1.405 1.791 1.11.479-.296 1.152-.08 1.498.479.345.559 1.389.98 2.319.937.93-.043 1.161-.295.513-.56zM337 550.083c0-1.145.635-2.083 1.412-2.083 1.66 0 1.448 3.213-.25 3.78-.639.212-1.162-.55-1.162-1.697zm-26.618 2.365c.341-.89.173-1.291-.393-.94-.544.335-.989 1.033-.989 1.551 0 1.438.717 1.121 1.382-.61zm-126.118-2.152c-1.23-.237-3.48-.243-5-.014-1.52.23-.514.425 2.236.432 2.75.008 3.994-.18 2.764-.418zm62.986.042c-.688-.278-1.813-.278-2.5 0-.688.277-.125.504 1.25.504s1.937-.227 1.25-.504zm10.518-.052c-1.503-.229-4.203-.233-6-.01-1.797.222-.568.409 2.732.414 3.3.006 4.77-.176 3.268-.404zm39.482-.03c-4.538-.185-11.963-.185-16.5 0-4.538.185-.825.337 8.25.337s12.787-.152 8.25-.337zm52.337-.83c-4.046-1.483-5.266-1.333-4.128.508.362.586 2.32 1.034 4.35.996l3.691-.07-3.913-1.434zm-221.182-4.34c5.448-2.243 11.073-4.137 12.5-4.209 1.427-.072 6.495 1.476 11.263 3.44 7.625 3.142 9.032 3.434 11.702 2.426 2.307-.87 4.185-.853 7.832.074 5.988 1.521 37.461 1.701 40.211.23 2.626-1.406 5.335-1.318 8.399.27 3.112 1.616 37.787 1.236 40.933-.448 1.435-.768 3.233-.715 6.466.19 3.345.937 10.845 1.093 29.634.618 23.747-.6 25.573-.784 32.63-3.27 9.13-3.216 12.757-2.936 25.972 2.002 5.196 1.942 9.629 3.349 9.851 3.126.223-.222-1.44-4.905-3.697-10.406-2.255-5.501-4.101-11.643-4.101-13.648 0-2.005 1.155-6.992 2.567-11.084 1.413-4.09 2.499-8.667 2.414-10.168-.085-1.5-.094-4.529-.021-6.729.957-28.723.985-43.955.082-44.858-1.33-1.33-1.36-7.327-.042-8.142.61-.377 1-7.99 1-19.5s-.39-19.123-1-19.5c-.55-.34-1-2.365-1-4.5s.45-4.16 1-4.5c1.274-.787 1.353-37.733.084-39.05-1.262-1.31-1.57-6.156-.7-11.012.563-3.141.126-5.856-1.929-11.977-3.165-9.429-2.985-11.713 1.88-23.925 1.963-4.93 3.479-9.045 3.368-9.143-.112-.099-4.65 1.798-10.083 4.214-5.435 2.416-10.61 4.389-11.5 4.384-.891-.005-6.089-1.55-11.55-3.432-9.368-3.23-10.098-3.337-12.883-1.897-1.988 1.028-3.97 1.286-6.07.79-5.715-1.35-41.884-1.647-44.281-.364-1.384.74-3.232.872-5.014.356-1.552-.449-11.71-.76-22.572-.69-10.862.07-21.662.137-24 .151-2.337.014-12.35-.216-22.25-.512-12.236-.366-19.63-.156-23.09.656-3.919.919-5.596.922-7.298.011-1.787-.957-3.297-.812-7.91.756-14.85 5.047-14.75 5.048-27.265-.165-6.181-2.575-11.416-4.506-11.631-4.29-.215.215.276 1.91 1.091 3.765 3.442 7.829 7.603 19.246 7.603 20.86 0 .956-1.4 5.063-3.11 9.126l-3.109 7.388-.504 26.307c-.456 23.805-.345 26.423 1.17 27.53 2.232 1.633 2.368 7.594.21 9.172-1.433 1.048-1.657 3.577-1.657 18.736 0 12.808.379 18.426 1.407 20.87 1.223 2.91 1.21 3.726-.106 6.27-1.283 2.481-1.429 7.032-.96 30.02.527 25.82.672 27.424 3.101 34.095 2.955 8.113 3.048 9.183 1.148 13.096-1.913 3.942-8.59 20.282-8.59 21.023 0 .327.563.358 1.25.07.688-.29 5.707-2.361 11.155-4.604zM312 549c1.828-1.181.25-1.181-2.5 0-1.319.567-1.49.878-.5.914.825.03 2.175-.38 3-.914zm30.683-1.188c-.32-.797-.556-.56-.604.605-.043 1.054.193 1.644.525 1.312.332-.332.368-1.195.08-1.917zm8.112-.867c-.938-.547-4.088-1.46-7-2.031-4.283-.84-6.06-.737-9.295.54-2.622 1.033-2.966 1.325-1 .848 3.853-.935 11.547-.61 14.614.617 3.157 1.263 4.83 1.28 2.681.026zm-232.1-18.247c.482-1.536.142-1.708-2.315-1.166-1.584.35-3.443.808-4.13 1.02-1.49.46-1.727 8.448-.25 8.448.55 0 1.006-.338 1.014-.75.008-.412.241-1.875.52-3.25.442-2.179.385-2.243-.443-.5-.86 1.81-.957 1.738-1.02-.75-.047-1.809.442-2.75 1.429-2.75 1.085 0 1.5 1.115 1.5 4.031 0 2.661-.51 4.227-1.5 4.607-1.542.592-2.038 3.49-.808 4.72.58.581 3.913-7.003 6.003-13.66zm-3.163-2.618c2.99-.67 5.895-.934 6.453-.59.617.382.962-.668.879-2.681-.097-2.348-.262-2.655-.57-1.059-.238 1.238-1.063 2.25-1.832 2.25-.816 0-1.166-.609-.839-1.46.308-.803-.381-4.18-1.531-7.504s-2.12-6.83-2.155-7.79c-.048-1.326-.282-1.202-.973.517-.59 1.466-.507 3.147.234 4.773.954 2.092.782 3.154-1.027 6.373-1.194 2.125-2.171 4.14-2.171 4.477 0 .338 1.462.659 3.25.714 3.08.094 3.119.141.75.9-5.146 1.648-6.264 1.255-5.782-2.031.306-2.083.122-2.709-.587-2-.567.567-1.954 1.017-3.081 1-1.816-.029-1.868-.172-.46-1.25 1.548-1.188 2.55-4.113 3.497-10.219.392-2.528-3.509 6.173-5.268 11.75-.304.963-.95 1.75-1.436 1.75-1.156 0-1.192.21 1.12-6.508 1.101-3.2 1.822-6 1.602-6.22-.22-.22-1.34 2.441-2.491 5.914-1.567 4.728-1.866 7.068-1.19 9.314.516 1.711.941 2.22.99 1.184.065-1.377.752-1.74 2.836-1.5 2.561.294 2.782.694 3.216 5.816l.465 5.5.332-5.101.331-5.102zm-.894-4.58c.662-1.724 4.362-2.058 4.362-.393 0 .609-.698.839-1.552.511-.89-.341-1.291-.173-.94.393.335.544-.077.989-.918.989-.947 0-1.308-.57-.952-1.5zm-8.691 7.144c-.963-.888-1.096-.733-.594.688.356 1.007.7 2.357.763 3 .064.642.331.333.594-.688.263-1.021-.08-2.371-.763-3zm15.736-.832c-.32-.797-.556-.56-.604.605-.043 1.054.193 1.644.525 1.312.332-.332.368-1.195.08-1.917zM112.97 514c0-1.333-.107-1.333-.969 0-.533.825-.97 2.175-.97 3 0 1.333.108 1.333.97 0 .533-.825.97-2.175.97-3zm6.714-3.188c-.32-.797-.556-.56-.604.605-.043 1.054.193 1.644.525 1.312.332-.332.368-1.195.08-1.916zM107.97 506.5c0-.55-.436-.325-.969.5-.533.825-.97 1.95-.97 2.5s.437.325.97-.5c.533-.825.97-1.95.97-2.5zm10.714.313c-.32-.798-.556-.561-.604.604-.043 1.054.193 1.644.525 1.312.332-.332.368-1.195.08-1.916zM114.366 503c.679 0 1.83.563 2.559 1.25 1.07 1.009 1.232.96.844-.25-.265-.825-.084-2.574.402-3.887.714-1.929.45-2.696-1.382-4-1.245-.887-3.37-1.838-4.72-2.113-1.35-.275-2.481-.95-2.512-1.5-.078-1.375 6.453-1.89 7.734-.61.715.716-.021.933-2.377.7-1.878-.186-2.547-.128-1.487.129 1.06.256 3.063 1.211 4.452 2.121 2.437 1.597 2.492 1.585 1.573-.343-.756-1.585-1.001-18.435-.674-46.247.012-.963-.177-11.145-.419-22.627-.392-18.61-.255-21.08 1.256-22.75 1.565-1.73 1.57-2.01.072-3.666-1.272-1.405-1.69-4.484-1.938-14.25l-.317-12.457-.216 12.877-.216 12.877-5.043-.484c-4.28-.411-5.262-.173-6.485 1.574-1.288 1.838-1.23 2.285.543 4.172 1.327 1.413 2.011 3.583 2.064 6.548.093 5.219.574 4.317 1.21-2.271.25-2.59.176-4.674-.167-4.632-2.152.262-3.122-.41-3.122-2.161 0-1.797.667-2 6.57-2 6.24 0 6.553.113 6.25 2.25-.276 1.943-.866 2.225-4.32 2.065-3.523-.162-3.642-.102-1 .51l3 .695v40.98h-7l-.552-11-.553-11-.197 10.628c-.15 8.044-.563 10.93-1.698 11.872-1.878 1.559-1.928 3.654-.111 4.7.763.44 1.611 1.7 1.884 2.8.449 1.814.506 1.79.611-.25.1-1.941.668-2.25 4.138-2.25h4.021l-.271 19.25-.272 19.25-3.75.31c-3.493.29-3.759.118-3.875-2.5-.074-1.663-.436-.77-.887 2.19-.42 2.75-.88 5.45-1.022 6-.143.55.09 2.919.517 5.264.58 3.179 1.086 4.009 1.99 3.26 1.491-1.24 2.48-.357 2.677 2.393.103 1.44.278 1.233.566-.667.23-1.512.972-2.75 1.65-2.75zm-4.859-1.989c-.35-.566.051-.734.941-.393 1.732.665 2.05 1.382.611 1.382-.518 0-1.216-.445-1.552-.989zM112 496.5c0-.825.787-1.493 1.75-1.485 1.4.013 1.471.192.355.899-1.121.71-1.023.979.5 1.369 1.606.41 1.552.503-.355.601-1.385.071-2.25-.46-2.25-1.384zm-2.232-47.225c1.797-.222 4.497-.218 6 .01 1.503.229.032.41-3.268.405-3.3-.006-4.53-.192-2.732-.415zm0-2c1.797-.222 4.497-.218 6 .01 1.503.229.032.41-3.268.405-3.3-.006-4.53-.192-2.732-.415zm254.894 48.475c-.277-.688-.504-.125-.504 1.25s.227 1.938.504 1.25c.278-.688.278-1.813 0-2.5zm2.031-10.481c-.254-.973-.478-.419-.498 1.231-.02 1.65.187 2.446.46 1.769.275-.677.292-2.027.038-3zm-251.92-15.101c.266-16.658.214-17.168-1.75-17.168-1.95 0-2.023.601-2.023 16.833 0 9.259.31 17.143.688 17.521 2.233 2.234 2.829-1.086 3.086-17.186zm257.32 13.082c.22-11.372-.187-29.677-.672-30.162-1.581-1.582-2.283 4.001-2.34 18.604-.053 13.812.166 16.308 1.428 16.308 1.099 0 1.515-1.25 1.583-4.75zm-263.386-4.488c-.239-1.244-.444-.462-.455 1.738-.01 2.2.185 3.218.435 2.262s.26-2.756.02-4zm-.002-20.012c-.238-1.238-.433-.225-.433 2.25s.195 3.487.433 2.25c.239-1.238.239-3.263 0-4.5zm267.768-12.78c-1.348-1.49-2.042-1.632-3.503-.72-1.347.842-2.46.848-4.27.023-2.141-.975-2.607-.816-3.725 1.272-1.895 3.542.035 5.397 4.934 4.74 2.488-.333 4.104-.073 4.608.743.55.89 1.196.459 2.207-1.471 1.27-2.424 1.242-2.937-.251-4.587zM370.5 449l5-.686-5.5-.172c-3.344-.105-4.989-.497-4.196-1 1.107-.702 2.66-.735 9.446-.201.412.032.75.734.75 1.559 0 1.163-1.18 1.465-5.25 1.343l-5.25-.157zM115 425.048c0-14.377-.272-17.938-1.402-18.372-.771-.296-1.671-.27-2 .06-.329.328-.598 8.585-.598 18.347 0 17.365.437 19.814 3.25 18.223.412-.233.75-8.45.75-18.258zm257.103 12.702c.27-13.751-.05-30.03-.6-30.58-1.717-1.717-2.44 3.92-2.446 19.08-.006 14.1.226 16.75 1.468 16.75 1.1 0 1.501-1.336 1.578-5.25zm3.58 1.063c-.32-.798-.556-.561-.604.604-.043 1.054.193 1.644.525 1.312.332-.332.368-1.195.08-1.916zm-9-1c-.32-.798-.556-.561-.604.604-.043 1.054.193 1.644.525 1.312.332-.332.368-1.195.08-1.916zm.05-19.063c-.211-2.337-.384-.425-.384 4.25s.173 6.588.383 4.25c.21-2.337.21-6.162 0-8.5zm8.956 5.5c-.251-.963-.457-.175-.457 1.75s.206 2.712.457 1.75c.252-.963.252-2.538 0-3.5zm.027-10c-.229-1.512-.416-.275-.416 2.75s.187 4.263.416 2.75c.23-1.512.23-3.987 0-5.5zm-4.216-10.526c1.1-.27.087-.544-2.25-.608-3.468-.095-4.25-.466-4.25-2.015 0-1.52.866-1.97 4.334-2.25 2.384-.193 5.084-.206 6-.028 2.07.402 2.2 4.035.172 4.813-.822.316-1.232.999-.91 1.518.32.52 1.434-.036 2.474-1.234 1.783-2.057 1.796-2.338.23-4.989-1.311-2.22-2.027-2.612-3.414-1.87-2.434 1.303-5.886 1.176-5.886-.216 0-.655-.866-.371-2 .655-1.1.995-2 2.492-2 3.326 0 2.302 3.11 5.324 4.402 4.278.604-.489 1.998-1.11 3.098-1.38zm-256.236-2.428c-1.23-.237-3.48-.243-5-.014-1.52.23-.514.425 2.236.432 2.75.007 3.994-.18 2.764-.418zm259.653.345c-.23-.198-1.767-.662-3.417-1.03-2.19-.49-2.595-.398-1.5.343 1.35.914 5.92 1.552 4.917.687zM115 377.5c0-17.618-.092-18.5-1.933-18.5-1.063 0-2.169.787-2.458 1.75-.403 1.339-.174 26.221.313 34 .043.688.978 1.25 2.078 1.25 1.928 0 2-.667 2-18.5zm257.103 15.25c.094-2.044.044-28.533-.06-31.5-.023-.688-.718-1.25-1.543-1.25-1.276 0-1.5 2.611-1.5 17.5s.224 17.5 1.5 17.5c.858 0 1.544-.963 1.603-2.25zm3.613-8.5c-.229-1.512-.416-.275-.416 2.75s.187 4.263.416 2.75c.23-1.512.23-3.987 0-5.5zm-4.742-26.081c3.318.316 4.075.018 4.976-1.96 1.03-2.258.993-2.282-1.166-.77-2.922 2.046-6.62 1.981-9.205-.162-1.144-.948-1.517-1.083-.829-.3.843.96 1.32 5.838 1.467 14.973l.218 13.55.313-12.852.313-12.852zm4.71 20.644c-.32-.798-.557-.561-.605.604-.043 1.054.193 1.644.525 1.312.332-.332.368-1.195.08-1.916zm-267.96-8.045c-.222-1.797-.409-.568-.414 2.732-.006 3.3.176 4.77.405 3.268.228-1.503.232-4.203.01-6zm267.938-.018c-.277-.688-.504-.125-.504 1.25s.227 1.938.504 1.25c.278-.688.278-1.813 0-2.5zm-257.979-2.938c-.32-.797-.556-.56-.604.605-.043 1.054.193 1.644.525 1.312.332-.332.368-1.195.08-1.916zm.485-18.745c-1.072-.707.91-9.594 3.947-17.694l2.298-6.126-2.776-7.374c-1.527-4.055-3.706-9.477-4.842-12.048-1.137-2.571-1.775-5.435-1.419-6.363.633-1.649 1.582-1.64 6.124.06 1.947.727 1.95.708.097-.736-2.392-1.864-1.208-4.086 1.737-3.261 1.714.48 1.853.387.666-.444-1.293-.905-1.259-1.052.25-1.066.962-.008 1.75.435 1.75.985s.562.985 1.25.967c.687-.019.257-.863-.957-1.876-1.215-1.014-1.89-2.185-1.5-2.604.389-.418.257-.563-.293-.321-.55.242-2.575 1.137-4.5 1.99-1.925.851-4.274 1.82-5.22 2.154-.946.332-2.022 1.861-2.39 3.397-.368 1.536-2.573 6.843-4.9 11.793-5.878 12.507-6.028 13.974-2.437 23.776 1.845 5.036 3.016 10.162 3.019 13.224.012 10.617.148 11.858 1.115 10.131.939-1.678 3.45-2.091 6.231-1.024 1.098.421 1.623 2.027 1.715 5.25.095 3.337.38 2.271 1.014-3.79.49-4.698.5-8.683.02-9zm-10.485 13.745c-.32-.797-.556-.56-.604.605-.043 1.054.193 1.644.525 1.312.332-.332.368-1.195.08-1.916zm266.488-8.467c1.006-.91 1.829-2.337 1.829-3.171 0-2.07-2.954-5.177-4.905-5.16-.994.01-.653.49.905 1.276 4.932 2.486 2.836 8.639-2.487 7.303-1.96-.492-2.513-1.268-2.513-3.529 0-1.593.461-3.126 1.025-3.406.564-.28.451-.395-.25-.256-2.076.41-2.201 5.813-.17 7.299 2.385 1.743 4.365 1.636 6.566-.356zm-1.207-1.801c1.374-1.656.594-3.544-1.464-3.544-1.8 0-2.824 1.714-2.12 3.548.71 1.851 2.045 1.85 3.584-.004zm4.202-5.213c-.605-1.08-.619-2.64-.038-4.167.51-1.343.731-2.638.491-2.878-.24-.24-.71.426-1.045 1.48-.482 1.519-1.592 1.933-5.336 1.99-2.6.039-5.06-.453-5.467-1.093-.452-.71-.746-.318-.756 1.005-.008 1.193-.254 2.993-.546 4-.319 1.1-.057.932.653-.418.65-1.238 1.978-2.25 2.949-2.25.971 0 2.442-.26 3.27-.577 2.11-.81 5.632 3.037 5.795 6.327.115 2.314.204 2.398.566.529.236-1.222-.005-2.998-.536-3.948zm-8.13-7.265c-1.536-2.868-1.255-7.045.517-7.725 1.132-.434 1.471-1.713 1.25-4.718l-.303-4.123 4 .331c3.68.305 3.846.216 2.076-1.113-1.65-1.24-2.647-1.253-7-.094-7.437 1.98-7.925 1.871-7.226-1.624.848-4.238-.054-3.733-1.283.718-.939 3.401.252 12.296 1.482 11.067.23-.23-.018-1.933-.549-3.785s-.861-3.45-.733-3.551c.128-.101 1.92-.489 3.983-.862 2.479-.448 3.75-.303 3.75.427 0 .607-.338.905-.75.662-.412-.242-1.723-.073-2.911.376l-2.161.818 2.523 7.565c1.387 4.16 2.938 7.565 3.446 7.565.526 0 .478-.832-.112-1.934zm-3.105-10.65c-1.647-1.984-.909-2.33 1.877-.877 1.788.932 1.973 1.33.823 1.772-.817.314-2.032-.089-2.7-.895zm6.97 3.611c.063-.945-.438-.705-1.4.67-.88 1.254-1.21 2.899-.797 3.972.619 1.61.788 1.528 1.4-.669.383-1.375.742-3.163.796-3.973zm6.025-2.777c.1-1.69-2.258-1.121-3.106.75-.374.825-.678 3.075-.676 5l.004 3.5 1.852-4c1.019-2.2 1.885-4.563 1.926-5.25zm-15.243 4.562c-.32-.797-.556-.56-.604.605-.043 1.054.193 1.644.525 1.312.332-.332.368-1.195.08-1.917zm18.818-11.805c-.33-1.952-1.014-4.214-1.522-5.027-.61-.978-.718-.208-.32 2.27.398 2.478.219 3.75-.528 3.75-.622 0-1.131.723-1.131 1.607 0 1.002-.553 1.395-1.468 1.044-.807-.31-1.714-.165-2.015.322-.301.487.81.713 2.468.504 2.542-.322 3.025-.037 3.078 1.82.061 2.105.108 2.093 1.05-.27.543-1.36.718-4.07.388-6.02zm-8.808 3.262c-.254-.973-.478-.419-.498 1.231-.02 1.65.187 2.446.46 1.769.275-.677.292-2.027.038-3zm-7.275-4.876c1.003-.385 1.582-1.822 1.582-3.929 0-1.826.675-3.996 1.5-4.821.825-.825 1.468-2.995 1.43-4.822l-.071-3.321-1.318 3.5a590.135 590.135 0 0 1-3.415 8.75c-1.153 2.888-1.915 5.25-1.693 5.25.222 0 1.115-.273 1.985-.607zM372 320c0-.55-.198-1-.441-1s-.72.45-1.059 1c-.34.55-.141 1 .441 1s1.059-.45 1.059-1zm5.574-3.587c-1.424-3.889-1.434-3.894-1.504-.863-.038 1.677.462 3.583 1.113 4.233 1.84 1.84 1.95.884.391-3.37zM372 315.44c0-.793-.45-1.441-1-1.441s-1 .927-1 2.059c0 1.132.45 1.78 1 1.441.55-.34 1-1.266 1-2.059zm2.918-5.941l.254 3 .856-2.856c.47-1.572.505-3.597.077-4.5-4.114-8.678-4.704-9.399-9.105-11.112-2.475-.964-8.542-3.33-13.482-5.259l-8.983-3.506-10.01 3.445c-6.024 2.072-11.01 3.228-12.518 2.903-1.379-.298-4.082-.77-6.007-1.05l-3.5-.51 3.343.865c3.969 1.027 4.696 1.72 5.529 5.258.674 2.865-1.328 5.822-3.943 5.822-1.76 0-1.822-1.393-.179-4.044 1.03-1.663.986-2.185-.25-2.97-2.28-1.45-3.505-.584-3.454 2.442.042 2.546-.05 2.608-1.354.903-1.308-1.712-1.355-1.684-.728.419.393 1.32.241 2.25-.368 2.25-.571 0-1.498-1.463-2.059-3.25-.89-2.837-.975-2.899-.664-.485.48 3.728-.34 3.86-21.873 3.52l-18-.285-.322-2.81c-.178-1.546.181-3.418.797-4.16.863-1.04.605-1.71-1.121-2.92-1.981-1.387-2.431-1.398-3.876-.09-.9.814-2.249 1.48-2.998 1.48-.937 0-.808.406.415 1.3 1.182.864 1.664 2.286 1.44 4.25l-.335 2.95h-41.91l-.653-2.5c-.598-2.29-.686-2.206-1.045 1-.254 2.27-.919 3.5-1.892 3.5-1.086 0-1.586-1.348-1.81-4.89-.36-5.646 1.185-8.14 3.281-5.3.946 1.28 1.549 1.467 2.061.638.738-1.193-1.111-2.905-3.168-2.933-.624-.008-2.424.657-4 1.479-1.922 1.002-2.288 1.496-1.114 1.5 1.374.005 1.75.865 1.75 4.006v4l-18.75.208-18.75.207 19 .602c10.45.33 19.962.952 21.137 1.38 1.288.468 2.404.345 2.81-.31.912-1.477 41.925-1.493 44.683-.018 1.362.73 2.389.745 3.227.05 1.36-1.13 41.28-1.56 45.976-.496 1.559.353 4.618.053 6.799-.666 3.649-1.205 4.578-1.084 11.666 1.517 10.408 3.818 14.02 3.698 23.593-.781 4.34-2.031 9.226-3.693 10.858-3.693 2.722 0 2.916.228 2.346 2.75-.504 2.227-.42 2.417.44 1 .586-.962 1.717-1.75 2.515-1.75 1.143 0 1.486 1.85 1.618 8.75.165 8.602.18 8.648.832 2.75.392-3.542.768-4.771.918-3zm-108.94-12l-.304-6L265 297c-.543 4.429-.706 4.785-.837 1.832-.09-2.018-.435-4.376-.767-5.242-.677-1.766 2.25-3.406 3.522-1.973.432.486.465 3.358.074 6.383l-.71 5.5-.304-6zm101.668 7.813c-.432-.433-3.69 7.273-3.575 8.457.038.402.948-1.248 2.02-3.666 1.073-2.417 1.773-4.574 1.555-4.791zm10.476 5.012c-1.179-2.027-1.463-1.378-.498 1.136.342.894.834 1.415 1.091 1.157.258-.257-.009-1.29-.593-2.293zM142.29 305c-.293-1.118-.03-2 .593-2 .615 0 1.117-.45 1.117-1s-.675-1-1.5-1c-.95 0-1.5.956-1.5 2.608 0 2.334-.29 2.542-2.75 1.97-2.04-.474-2.363-.377-1.25.376.825.559 2.47 1.022 3.656 1.03 1.667.012 2.038-.438 1.634-1.984zm4.44 1.396c-.333-.332-1.196-.368-1.917-.08-.798.32-.561.557.604.605 1.054.043 1.644-.193 1.312-.525zm4-1c-.333-.332-1.196-.368-1.917-.08-.798.32-.561.557.604.605 1.054.043 1.644-.193 1.312-.525zm5.77-4.821c3.13-1.11 3.617-1.567 2.237-2.108-.97-.38-2.32-.234-3 .324-1.208.99-3.977 1.555-6.487 1.324-.688-.063-1.25-.79-1.25-1.615 0-.933-.944-1.5-2.5-1.5-1.375 0-2.5.45-2.5 1s.627 1 1.393 1c1.521 0 2.923 2.68 2.1 4.013-.541.874 3.288-.059 10.007-2.438zm12.186 2.408c-1.548-.464-3.4-1.33-4.115-1.924-.95-.788-2.083-.653-4.186.498l-2.885 1.578 3.212-.639c1.766-.35 4.016-.17 5 .403.983.572 2.688 1.015 3.788.985 1.428-.04 1.196-.297-.814-.9zm-30.079-1.565c-.334-.87-.607-2.445-.607-3.5 0-1.402-.74-1.945-2.75-2.018l-2.75-.1 2.5-.8c2.122-.68 1.856-.816-1.758-.9-4.051-.095-4.198 0-3 1.963.904 1.483 2.031 1.954 4.008 1.673 1.814-.257 2.75.062 2.75.937 0 1.838-5.443 1.703-7-.173-.685-.825-2.652-1.447-4.372-1.382-2.94.112-2.978.16-.628.795 1.375.373 4.525 1.66 7 2.86 5.411 2.625 7.443 2.824 6.607.645zM176 296.965c0-3.89.07-3.968 3.75-4.106 3.539-.133 3.468-.187-1.25-.962-2.75-.452-6.8-1.043-9-1.313-3.834-.471-3.853-.46-.466.27 1.944.418 4.081 1.1 4.75 1.512 1.87 1.156 1.497 7.687-.534 9.329-1.58 1.277-1.53 1.309.5.325 1.772-.859 2.25-1.933 2.25-5.055zM127.5 301c-.34-.55-1.379-.968-2.309-.93-1.379.058-1.321.23.309.93 2.676 1.15 2.71 1.15 2 0zm44.628-.75c1.192-1.52 1.175-1.604-.128-.634-.825.613-2.175 1.365-3 1.67-1.255.465-1.234.569.128.635.895.043 2.245-.709 3-1.671zm-6.082-.695c-1.733-2.088-.895-5.968 1.383-6.403 1.807-.344 1.823-.26.25 1.312-1.91 1.91-2.122 3.144-.69 4.029.587.363.72-.086.33-1.105-.483-1.256-.304-1.497.666-.898.941.583 1.088.436.505-.505-.589-.954-.366-1.151.795-.706 1.208.464 1.453.193.977-1.08-.555-1.483-.422-1.524 1.05-.327.929.755 1.724 2.105 1.767 3 .054 1.123.241 1.222.603.32.738-1.843-2.575-5.192-5.137-5.192-2.722 0-4.545 1.805-4.545 4.5 0 1.155.54 2.64 1.2 3.3 1.68 1.68 2.295 1.501.846-.245zm-12.346-1.908c.44-.745 1.475-1.61 2.3-1.921.825-.313-1.297-.604-4.715-.647-5.143-.065-6.4-.424-7.285-2.079-.589-1.1-.74-2-.335-2 .404 0 .195-.54-.465-1.2-2.258-2.258-1.431-4.07 1.55-3.395 2.263.512 2.435.431.969-.459-2.85-1.729-4.958-.727-5.373 2.554-.208 1.65-.484 3.675-.612 4.5-.129.825.216 1.592.766 1.705.55.112.911-.788.803-2-.163-1.83-.003-1.738.943.545.969 2.337 1.75 2.762 5.197 2.829 2.231.043 3.495.306 2.807.583-.687.278-1.25.917-1.25 1.421 0 1.43 3.806 1.076 4.7-.436zm8.59-.757c-.593-.593-1.913-.863-2.934-.6-1.528.393-1.458.499.394.594 1.237.064 2.25.641 2.25 1.283 0 .641.307.859.683.483.376-.376.199-1.168-.393-1.76zM171 298c0-.55-.198-1-.441-1s-.72.45-1.059 1c-.34.55-.141 1 .441 1s1.059-.45 1.059-1zm41-1.024c0-1.963-.51-2.016-16.737-1.75-15.018.246-16.772.454-17.074 2.024-.309 1.611 1.016 1.75 16.738 1.75 16.474 0 17.073-.071 17.073-2.024zm48.35.556c.31-.807.114-1.745-.434-2.084-1.369-.846-36.66-1.037-37.494-.204-.368.369-.403 1.364-.077 2.213.864 2.25 37.142 2.323 38.004.075zm45.15-.942c0-1.794-.965-1.918-16-2.043-16.523-.137-19.845.39-18.847 2.991.49 1.278 3.194 1.467 17.713 1.235 16.102-.257 17.134-.388 17.134-2.183zm14.162-.84c-.277-.688-.504-.125-.504 1.25s.227 1.938.504 1.25c.278-.688.278-1.813 0-2.5zm-157.3-3.725c-.474-.44-1.987-1.092-3.362-1.45-2.421-.628-2.413-.599.25.92 1.512.863 2.786 2.117 2.829 2.787.054.837.246.8.612-.12.294-.735.146-1.697-.328-2.137zm154.375 1.394c2.048.476 2.375.379 1.263-.373-2.25-1.523-4.592-1.254-6.128.704-1.241 1.583-1.206 1.62.365.388 1.077-.844 2.787-1.117 4.5-.72zm-163.417-1.747c-3.399-1.195-6.511-2.51-6.916-2.922-1.422-1.447-2.211-.728-1.648 1.5.815 3.227 2.012 3.727 8.744 3.657l6-.063-6.18-2.172zm157.501.634c1.573-1.587 1.563-1.65-.153-1-1.007.382-2.271.694-2.809.694-.537 0-.699.45-.359 1 .85 1.376 1.38 1.266 3.321-.694zm-173.388-1.419c1.909-1.746-.127-1.703-5.451.115l-5.482 1.872 5-.567c2.75-.311 5.42-.95 5.933-1.42zm66.817 1.373c-3.438-.196-9.063-.196-12.5 0-3.438.195-.625.355 6.25.355s9.688-.16 6.25-.355zm76.019-.916c-.677-.274-2.027-.29-3-.037-.973.253-.419.478 1.231.498 1.65.02 2.446-.187 1.769-.461zm13.981-.006c-.688-.277-1.813-.277-2.5 0-.688.277-.125.504 1.25.504s1.938-.227 1.25-.504zm10 0c-.688-.277-1.813-.277-2.5 0-.688.277-.125.504 1.25.504s1.938-.227 1.25-.504zM129 290c.825-.533 1.05-.97.5-.97s-1.675.437-2.5.97c-.825.533-1.05.97-.5.97s1.675-.437 2.5-.97zm7-2.5c1.925-.741 2.825-1.362 2-1.379-.825-.017-2.85.587-4.5 1.343-3.862 1.768-2.066 1.794 2.5.036zM237.677 82.25c-.243-.412-.75-2.192-1.129-3.954-.673-3.142-.806-3.21-6.867-3.5-8.725-.418-8.78-2.326-.378-13.06 8.454-10.803 10.326-12.46 12.506-11.082 1.347.852 1.657 2.447 1.524 7.841-.203 8.18.227 9.505 3.083 9.505 1.21 0 3.075.649 4.143 1.441 2.706 2.01.8 4.902-3.663 5.559-2.693.396-3.468 1.018-3.742 3-.555 4.01-4.03 6.708-5.477 4.25zM241 76.5c0-2.68.967-3.494 5.413-4.557l3.087-.738-3.128-.103c-1.72-.056-3.612-.686-4.204-1.4-.592-.713-1.21-4.875-1.372-9.25L240.5 52.5l-7.25 8.99c-3.987 4.943-7.25 9.33-7.25 9.75 0 .418 2.213.76 4.918.76 6.987 0 8.082.632 8.082 4.666 0 2.047.407 3.2 1 2.834.55-.34 1-1.69 1-3zm-9.857-6.39c-1.714-1.087-.852-3.746 2.416-7.454 3.186-3.614 5.441-2.897 5.441 1.73 0 1.898-.273 4.162-.607 5.032-.653 1.702-5 2.117-7.25.692zm5.206-3.578c.873-2.274-.802-2.637-2.157-.467-.98 1.568-.943 1.935.193 1.935.77 0 1.655-.66 1.964-1.468zM489.976 423.75c-.023-106.442-.679-287.852-1.367-378C488.324 8.418 488.494 1 489.634 1 490.785 1 491 42.786 491 267c0 146.3-.225 266-.5 266s-.51-49.163-.524-109.25zM282.08 7.417c.048-1.165.285-1.402.604-.604.289.721.253 1.584-.079 1.916-.332.332-.568-.258-.525-1.312z"/></svg>