<svg xmlns="http://www.w3.org/2000/svg" width="245" height="420" viewBox="0 0 245 420"><path d="M9.248 408.294c-1.239-.239-2.688-1.248-3.221-2.244C4.67 403.516 4.148 7.442 5.5 6.135c1.585-1.533 224.269-2.119 225.534-.594.94 1.132 3.153 400.9 2.23 402.709-.394.774-220 .817-224.016.044zm27.421-2.23c-25.047-.527-26.925-.693-28.25-2.505-.78-1.068-1.419-1.46-1.419-.873 0 1.39 1.982 2.972 4.5 3.59 1.1.27 13.25.46 27 .422l25-.07-26.83-.564zm95.649.187c-11.65-.16-31-.16-43 0s-2.468.29 21.182.29 33.468-.13 21.818-.29zm29.932.043c-1.238-.238-3.263-.238-4.5 0-1.238.239-.225.434 2.25.434s3.487-.195 2.25-.434zm10 0c-1.238-.238-3.263-.238-4.5 0-1.238.239-.225.434 2.25.434s3.487-.195 2.25-.434zm58.926-99.794c-.226-123.71-1.296-296.845-1.839-297.45-.548-.611.544 338.92 1.195 371.184l.518 25.735-28.275.29-28.275.29 28.43-.025 28.428-.024-.182-100zm-2.978-9.75c-.166-58.987-.616-147.75-1-197.25l-.698-90-107.5.36c-59.125.197-107.803.647-108.173 1-.713.678-1.13 130.904-.94 293.835L10 402.89l4.75.375c2.612.206 51.775.456 109.25.555l104.5.18zM43.332 359.1c-4.977-1.278-12.014-5.817-14.915-9.62-3.609-4.731-5.32-9.946-5.373-16.364-.07-8.61 1.74-12.973 7.991-19.27 6.186-6.232 10.032-7.831 18.849-7.84 7.652-.008 12.555 1.748 17.82 6.382 11.657 10.261 12.514 27.796 1.928 39.461-5.213 5.744-18.21 9.327-26.3 7.25zm8.418-1.79c-.963-.25-2.538-.25-3.5 0-.963.252-.175.458 1.75.458s2.712-.206 1.75-.457zm-6.02-.914c-.333-.332-1.196-.368-1.917-.08-.798.32-.561.557.604.605 1.054.043 1.644-.193 1.312-.525zm9.02-2.476c-.963-.56-1.75-1.354-1.75-1.763 0-1.077 8.362-3.163 9.238-2.304.406.398-.224.796-1.399.884-2.51.19-4.524 1.912-3.468 2.967.406.406 1.156.076 1.668-.733.512-.809.937-1.082.946-.606.008.476 1.252.067 2.765-.907 3.507-2.261 5.558-5.458 3.5-5.458-.412 0-.75.52-.75 1.155s-.787 1.27-1.75 1.411c-2.352.345-2.206-.85.388-3.161 1.176-1.048 2.782-3.427 3.568-5.287 1.095-2.587 1.706-3.106 2.604-2.208.898.898.825 1.389-.31 2.09-1.115.69-1.199 1.201-.337 2.063 2.044 2.044 3.928-9.124 2.414-14.311-1.611-5.52-5.525-11.206-9.404-13.662-4.673-2.96-5.36-1.306-.84 2.02 2.18 1.601 4.23 3.61 4.557 4.464.328.854 1.044 1.276 1.591.937.556-.343.755.014.45.808-.3.783.133 2.103.964 2.933.83.83 1.234 1.786.897 2.123-.337.337-2.003-1.522-3.702-4.131-2.134-3.277-4.603-5.494-7.983-7.169-4.68-2.32-4.789-2.466-2.5-3.355 2.297-.893 2.313-.963.393-1.755-2.924-1.205-11.75-1.177-11 .035.34.55 2.279 1.056 4.309 1.125l3.691.125-4 .728c-2.2.4-5.188 1.213-6.639 1.808-3.92 1.605-9.445 6.795-10.854 10.197-.681 1.645-1.62 2.756-2.086 2.468-.466-.288.013-1.938 1.064-3.667 1.051-1.728 1.638-3.625 1.303-4.213-.335-.59-.236-.733.22-.319 1.044.947 4.64-2.203 3.894-3.41-.303-.49-.18-.807.274-.703.453.104 2.104-.17 3.669-.607 2.123-.594 2.503-1.025 1.5-1.695-.863-.576-.27-.679 1.655-.287 2.286.466 2.643.358 1.5-.454-2.21-1.57-3.76-1.335-6 .904-1.1 1.1-2 1.705-2 1.345 0-1.27-4.291 3.204-6.863 7.155-2.175 3.343-2.603 5.15-2.603 11 0 5.86.425 7.651 2.613 11 5.421 8.297 10.976 11.417 20.353 11.43 4.55.007 5.577-.237 4.25-1.01zM42 351.929c-1.925-.95-3.95-1.475-4.5-1.167-.55.307-.658.182-.24-.277.943-1.04-3.221-5.627-4.43-4.88-.484.3-.78.173-.657-.28.41-1.516-1.306-5.36-2.157-4.835-.462.286-.743-.145-.624-.956.428-2.914 1.517-2.692 2.991.608C35.117 346.26 40.597 351 44.934 351c1.136 0 2.066.423 2.066.941 0 1.731-1.472 1.728-5-.012zm-2.667-4.504c-.333-.866-.093-3.281.531-5.366 1.743-5.817 1.444-6.827-2.864-9.678-2.293-1.517-4-3.443-4-4.514 0-1.595.797-1.867 5.474-1.867 5.051 0 5.593-.228 7-2.95.84-1.623 1.526-3.562 1.526-4.31 0-.746.626-2.214 1.392-3.261 1.156-1.582 1.652-1.687 2.936-.622.849.705 1.855 2.698 2.235 4.43 1.289 5.867 2.382 6.713 8.678 6.713 4.888 0 5.759.273 5.759 1.808 0 1-1.97 3.196-4.413 4.918-4.687 3.303-4.792 3.866-2.219 11.883.438 1.363.128 2.564-.875 3.397-1.292 1.072-1.924.949-3.772-.734-4.907-4.467-6.438-4.653-10.958-1.329-4.74 3.486-5.586 3.681-6.43 1.482zm8.094-4.898c1.06-.828 1.586-1.848 1.168-2.265-.417-.417-1.284-.075-1.927.761-.642.836-2.18 1.46-3.418 1.385-2.508-.15-2.484-.18-1.65 1.992.63 1.64 1.824 1.257 5.827-1.873zm9.464.223c.334-2.375.443-7.399.234-10.75-.095-1.521-.783-1.967-2.875-1.864-2.358.117-2.43.198-.5.57 1.238.238 2.25.838 2.25 1.332 0 .495-.675.64-1.5.324-.95-.365-1.5.013-1.5 1.031 0 .884-.45 1.607-1 1.607s-.212.806.75 1.792c.963.985 1.9 1.435 2.083 1 .82-1.946 1.78-.52 1.4 2.077l-.421 2.869-2.22-2.12c-1.222-1.165-2.053-2.455-1.847-2.868.567-1.14-.537-.896-1.262.278-.473.765 4.788 6.972 5.91 6.972.1 0 .324-1.012.498-2.25zm-12.834-3.215c.488.302 2.032-.202 3.432-1.12 1.986-1.3 2.297-1.968 1.415-3.03-1.184-1.428-3.328-.88-2.404.615.293.474.006 1.187-.638 1.585-.731.452-.903.29-.457-.43.392-.635.199-1.155-.43-1.155-.628 0-.935-.563-.683-1.25.252-.688.88-1.166 1.395-1.063.516.104 2.141-2.146 3.612-5 1.47-2.853 2.68-4.598 2.688-3.878.007.72.42 1.057.92.749.497-.308.674-1.443.392-2.523-.439-1.678-.716-1.76-1.906-.57-.766.765-1.393 2.073-1.393 2.905 0 .831-.498 1.82-1.107 2.196-.765.473-.867-.049-.329-1.69.428-1.307.723-3.255.654-4.33-.068-1.075.392-2.65 1.024-3.5 1.025-1.38.973-1.384-.473-.046-.893.825-2.019 3.075-2.504 5-.828 3.287-1.182 3.536-5.823 4.093-3.613.433-4.068.635-1.692.75 1.788.086 3.547.117 3.91.067.973-.132 2.623 3.14 1.932 3.832-.326.325-.592.066-.592-.575 0-.642-.436-1.167-.969-1.167-.532 0-.68.749-.33 1.664.482 1.256.29 1.447-.781.778-2.762-1.723-4.414-1.33-2.019.48 1.979 1.495 2.299 2.41 1.818 5.196-.321 1.86-.35 2.817-.066 2.126.285-.691.917-1.01 1.404-.709zm2.61-10.202c-.367-.366-.667-1.131-.667-1.7 0-.626.466-.567 1.183.15.651.651.951 1.416.667 1.7-.284.284-.817.217-1.183-.15zM51 333c0-.55-.45-1-1-1s-1 .45-1 1 .45 1 1 1 1-.45 1-1zm8.825-.121c-.179-.315.293-1.316 1.047-2.225.755-.91 1.03-1.654.61-1.654-.903 0-3.405 3.14-3.45 4.333-.018.459.452.672 1.043.475.591-.197.929-.615.75-.93zm4.303-2.629c1.243-1.586 1.208-1.621-.378-.378-1.666 1.307-2.195 2.128-1.372 2.128.207 0 .995-.787 1.75-1.75zM38 330c0-.55-.477-1-1.059-1s-.78.45-.441 1c.34.55.816 1 1.059 1s.441-.45.441-1zm20.59-2.805c-4.007-.206-6.348.135-7.274 1.06-1.153 1.153-.236 1.2 5.91.305l7.274-1.06zm-7.208-6.747c.341-.89.173-1.291-.393-.94-.544.335-.989 1.033-.989 1.551 0 1.438.717 1.121 1.382-.61zM29.252 332.5c.011-2.2.216-2.982.455-1.738.24 1.244.23 3.044-.02 4s-.446-.062-.435-2.262zm40.173 1.057c-.615-2.45.048-4.557 1.434-4.557.408 0 .741 1.575.741 3.5 0 4.03-1.273 4.65-2.175 1.057zM37 353.622c0-.207-.787-.995-1.75-1.75-1.586-1.243-1.621-1.208-.378.378 1.307 1.666 2.128 2.195 2.128 1.372zm31.128-3.372c1.243-1.586 1.208-1.621-.378-.378-.963.755-1.75 1.543-1.75 1.75 0 .823.821.294 2.128-1.372zM73 342.723c0-1.23-.05-1.171-2.362 2.777l-1.757 3 2.06-2.36c1.132-1.3 2.059-2.837 2.059-3.417zm-3.512.257c-.56-.907-.932-.88-1.547.115-1.054 1.706-.018 3.382 1.285 2.08.55-.55.668-1.538.262-2.195zm-41.143.477c-.326-.849-.807-1.329-1.069-1.067-.262.262-.18.957.183 1.543.986 1.596 1.562 1.286.886-.476zM25.69 333.25c-.251-.963-.457-.175-.457 1.75s.206 2.712.457 1.75c.252-.963.252-2.538 0-3.5zm49.036-3.482c-.223-1.797-.41-.568-.415 2.732-.006 3.3.176 4.77.405 3.268.228-1.503.232-4.203.01-6zm-49.063-2.018c-.277-.688-.504-.125-.504 1.25s.227 1.938.504 1.25c.278-.688.278-1.813 0-2.5zm45.46-8.5c-.523-.963-2.422-3.1-4.222-4.75-2.93-2.687-2.861-2.508.664 1.717 4.248 5.092 5.04 5.766 3.557 3.033zM33 315.5c1.866-1.925 3.167-3.5 2.892-3.5-.275 0-2.026 1.575-3.892 3.5s-3.167 3.5-2.892 3.5c.275 0 2.026-1.575 3.892-3.5zm6.526-5.307c-.307-.308-1.114 0-1.793.683-.98.988-.865 1.102.56.56.986-.376 1.541-.935 1.233-1.243zm7.203-1.797c-.332-.332-1.195-.368-1.917-.08-.797.32-.56.557.605.605 1.054.043 1.644-.193 1.312-.525zm9 0c-.332-.332-1.195-.368-1.917-.08-.797.32-.56.557.605.605 1.054.043 1.644-.193 1.312-.525zm122.728 47.744c-10.514-4.974-14.838-11.832-14.904-23.64-.052-9.203 1.468-13.18 7.263-18.998 4.865-4.884 9.483-7.146 16.338-8.002 11.355-1.419 22.562 4.633 27.726 14.973 2.071 4.148 2.3 5.726 1.868 12.877-.733 12.146-5.097 18.703-15.513 23.31-7.545 3.336-14.984 3.167-22.778-.52zm13.793.154c-1.238-.238-3.263-.238-4.5 0-1.238.239-.225.434 2.25.434s3.487-.195 2.25-.434zm6.48-.898c-.333-.332-1.196-.368-1.917-.08-.798.32-.561.557.604.605 1.054.043 1.644-.193 1.312-.525zm-4.73-.783c0-.835-6.028-1.212-7.227-.452-.763.485.428.815 2.977.824 2.337.008 4.25-.159 4.25-.372zm-9-1.452c0-1.058-4.9-3.341-5.875-2.738-1.24.766-.95-4.686.528-9.923 1.364-4.836 1.337-5.05-.838-6.5-8.547-5.7-8.954-8.921-1.117-8.85 2.641.023 5.291 0 5.89-.053.598-.054 1.928-2.572 2.957-5.597 1.465-4.31 2.32-5.5 3.955-5.5 1.6 0 2.36.987 3.269 4.25.65 2.338 1.56 4.817 2.022 5.51.731 1.098 4.489 1.872 10.459 2.157 3.076.146 1.883 2.895-2.59 5.974l-4.342 2.986 1.013 5.59c1.301 7.176.003 8.995-4.078 5.716-5.818-4.674-6.646-4.738-11.67-.902l-4.605 3.516 3.16 1.101c10.958 3.82 22.628-1.951 25.365-12.545 2.487-9.622-1.34-18.176-9.94-22.219-10.433-4.903-20.568-.998-26.734 10.304-1.472 2.697-1.757 2.841-2.396 1.211-.398-1.018-.307-2.143.203-2.5.51-.357 2.263-2.497 3.896-4.756 1.632-2.259 3.418-4.229 3.968-4.377 2.5-.676 3.455-1.279 3.055-1.928-.239-.386 2.916-.809 7.01-.94 5.646-.18 8.532.244 11.94 1.751 4.94 2.185 6.034 1.34 1.831-1.414-2.016-1.322-4.769-1.746-11.324-1.746-7.813 0-9.075.274-12.895 2.802-4.936 3.267-8.734 9.213-9.686 15.162-.837 5.24.234 11.622 1.79 10.66.729-.45.896-.111.48.973-.35.915-.202 1.664.33 1.664.533 0 .857.396.719.88-.489 1.72 4.392 7.28 5.887 6.706.807-.31 1.206-.14.887.375-.723 1.17 3.161 3.352 4.497 2.526.538-.333.979-.128.979.454 0 .582.45 1.059 1 1.059s1-.378 1-.84zm-9.51-6.177c-.346-.56-1.042-.76-1.548-.448-.505.312-.644-.149-.308-1.025.39-1.017.132-1.488-.715-1.302-.729.16-1.365-.384-1.414-1.209-.048-.825-.658-3.447-1.356-5.827-.697-2.38-1.077-5.306-.845-6.5.361-1.853.444-1.786.56.455.182 3.523 2.78 9.64 5.785 13.622 1.35 1.787 2.006 3.25 1.46 3.25-.545 0-1.274-.457-1.62-1.016zm23.367 6.126c.747-.474.937-1.119.423-1.437-1.35-.835-5.358.391-4.71 1.44.69 1.116 2.524 1.114 4.287-.003zm7.084-4.675c2.63-2.377 3.742-4.099 3.333-5.164-.38-.99-.208-1.348.451-.94 1.346.83 2.649-2.357 1.452-3.554-.518-.518-1.423.403-2.17 2.208-.706 1.702-3.018 4.58-5.138 6.395-2.12 1.815-3.558 3.597-3.196 3.96.971.971.986.963 5.268-2.905zM203 349.687c0-.172 1.462-1.635 3.25-3.25l3.25-2.937-2.937 3.25c-2.738 3.03-3.563 3.71-3.563 2.937zm5.563-.937l2.937-3.25-3.25 2.937c-1.788 1.615-3.25 3.078-3.25 3.25 0 .773.825.092 3.563-2.937zM174 350.655c0-.19-1.012-1.202-2.25-2.25l-2.25-1.905 1.905 2.25c1.79 2.114 2.595 2.705 2.595 1.905zm7.5-5.655c.34-.55.141-1-.441-1s-1.059.45-1.059 1 .198 1 .441 1 .72-.45 1.059-1zm32.5-4.358c0-1.27-.462-.703-1.92 2.358-1.122 2.357-1.102 2.39.365.559.855-1.068 1.555-2.38 1.555-2.917zM189.77 340c.528 0 2.104.9 3.501 1.999 2.54 1.998 2.54 1.998 2.018 0-.287-1.1-.92-1.999-1.406-1.999-1.643 0-2.378-.195-3.99-1.057-1.105-.591-2.274-.237-3.75 1.138-1.39 1.296-2.148 1.545-2.158.708-.011-.911-.3-.85-.985.211-.798 1.235-.972 1.25-.985.083-.008-.779-.304-1.127-.657-.774-.354.354-.078 1.323.612 2.155 1.11 1.337 1.578 1.282 4.047-.476 1.535-1.093 3.224-1.988 3.753-1.988zm7.264-6.278c-.692-4.558-.612-4.786 1.871-5.33 4.662-1.02 4.66-1.233-.013-1.313-4.555-.078-4.618-.125-5.5-4.14-.875-3.98-2.498-5.386-3.193-2.764-.233.877.007.818.71-.175.943-1.333 1.059-1.333 1.044 0-.01.825-.677 2.374-1.485 3.441-1.384 1.83-1.472 1.745-1.544-1.5l-.076-3.441-1.348 3.5c-1.737 4.51-1.779 5.32-.245 4.732 1.503-.576 3.918 1.735 2.935 2.81-.38.414.275.517 1.454.227 1.599-.392 2.063-.112 1.826 1.102-.174.896-.351 2.192-.393 2.879-.043.688-.64 1.137-1.327 1-.688-.138-1.148.28-1.024.93.142.739-.79 1.044-2.5.818-1.5-.198-3.064-.391-3.476-.43-.412-.037-.75-.573-.75-1.19 0-.776.464-.738 1.5.122 1.526 1.266 1.859.808 1.567-2.161-.09-.914.309-1.953.885-2.31.576-.356 1.048-1.097 1.048-1.647s-.419-.741-.93-.425c-.513.317-1.214.118-1.56-.44-.345-.56-2.964-.965-5.819-.902-5.118.113-5.137.125-1.373.854 2.1.406 4.575 1.542 5.5 2.525.925.983 1.12 1.473.432 1.088-.703-.394-1.25-.16-1.25.533 0 .69-1.069.23-2.427-1.046-1.761-1.655-2.365-1.858-2.2-.74.34 2.321 5.561 7.142 7.99 7.38 1.175.114 3.262.352 4.637.529 1.375.176 2.83-.143 3.235-.709.404-.566.77.321.813 1.971.067 2.55.2 2.7.894.992.448-1.104.49-4.15.092-6.77zm-4.784 2.92c.962-.75 1.75-2.1 1.75-3.002 0-.902.45-1.64 1-1.64 2.139 0-.126 4.48-2.722 5.385-1.688.588-1.69.55-.028-.743zM191 324.5c0-.825.177-1.5.393-1.5.216 0 .652.675.969 1.5.316.825.14 1.5-.393 1.5s-.969-.675-.969-1.5zm22 7.571c0-3.997-.5-6.428-1.536-7.464-.844-.845-1.52-1.777-1.5-2.071.139-2.081-.085-2.58-.926-2.06-1.118.691.78 5.524 2.168 5.524.486 0 .59 1.572.23 3.493-.621 3.307.042 8.507 1.083 8.507.265 0 .481-2.668.481-5.929zm-47.284-2.821c-.229-1.512-.416-.275-.416 2.75s.187 4.263.416 2.75c.23-1.512.23-3.987 0-5.5zM202 331.026c2.42-1.866 2.43-1.923.32-1.77-1.2.088-1.914.592-1.587 1.122.341.551-.115.69-1.069.323-1.087-.417-1.664-.129-1.664.83 0 1.947.983 1.823 4-.505zm12.662-5.276c-.277-.688-.504-.125-.504 1.25s.227 1.938.504 1.25c.278-.688.278-1.813 0-2.5zm-46.28-4.302c.341-.89.173-1.291-.393-.94-.544.335-.989 1.033-.989 1.551 0 1.438.717 1.121 1.382-.61zm39.251-2.698c-.332-2.193-1.739-3.803-2.767-3.167-.6.37-.31 1.373.724 2.516 2.023 2.236 2.297 2.323 2.043.651zm.783-3.843c-1.041-1.15-2.799-2.55-3.905-3.11-1.106-.559-.436.365 1.489 2.053 4.084 3.58 5.104 4.027 2.416 1.057zm-17.166-5.57c-.688-.277-1.813-.277-2.5 0-.688.278-.125.505 1.25.505s1.938-.227 1.25-.504zm.512-2.024c-.956-.25-2.756-.26-4-.02-1.244.239-.462.444 1.738.455 2.2.01 3.218-.185 2.262-.435zm-79.768-74.247c-12.035-3.661-19.002-13.365-18.985-26.443.008-6.049.455-7.899 2.96-12.267 3.744-6.528 8.618-10.545 15.38-12.677 6.574-2.072 9.397-2.1 16.085-.155 10.004 2.908 16.113 9.34 18.679 19.666 1.637 6.586 1.635 7.261-.026 13.254-.963 3.472-2.762 7.606-3.998 9.185-2.93 3.743-9.426 8.092-13.976 9.356-4.155 1.154-12.453 1.196-16.12.08zm5.256-1.728c-.688-.278-1.813-.278-2.5 0-.688.277-.125.504 1.25.504s1.938-.227 1.25-.504zm8 0c-.688-.278-1.813-.278-2.5 0-.688.277-.125.504 1.25.504s1.938-.227 1.25-.504zm-.847-2.496c-.495-.8-.02-.975 1.537-.568 2.797.731 5.267-.13 4.4-1.533-.394-.638-.164-.75.587-.286 2.69 1.663 11.727-9.819 10.578-13.44-.369-1.16-.187-2.015.428-2.015.587 0 1.067-1.827 1.067-4.059 0-2.796-.357-3.839-1.146-3.35-.806.497-.95-.075-.485-1.927.483-1.924.119-3.176-1.354-4.649-1.108-1.108-1.706-2.015-1.328-2.015.378 0-.635-1.39-2.25-3.09-3.611-3.797-8.358-6.39-9.539-5.208-.496.496 1.386 2.036 4.365 3.572 2.88 1.484 4.867 2.705 4.414 2.713-.452.007.11 1.199 1.25 2.648 3.92 4.983 2.066 4.447-3.177-.918-6.971-7.134-13.726-8.6-22.08-4.795-7.361 3.354-10.67 8.92-10.67 17.95 0 5.2.42 6.523 3.25 10.224 3.381 4.423 7.992 7.705 11 7.83 2.039.086 2.247 1.177.55 2.874-.933.933-.031 1.2 4.059 1.2 3.729 0 5.05-.337 4.544-1.158zm-3.137-1.93c8.747-2.06 14.893-6.887 17.275-13.567.754-2.115 1.391-3.094 1.415-2.177.024.918.345 2.454.714 3.414.496 1.292.322 1.53-.67.918-.987-.61-1.167-.377-.681.888.362.944.26 1.47-.226 1.17-.841-.52-2.322 1.81-2.507 3.942a1.182 1.182 0 0 1-1.086 1.048c-1.395.066-7.585 4.034-7.08 4.539.226.227-2.138.48-5.254.562-5.322.14-5.437.095-1.9-.738zm-12.86-5.295c-.292-.761.173-3.066 1.032-5.122 2.262-5.414 1.94-6.681-2.476-9.736-2.392-1.654-3.962-3.536-3.962-4.75 0-1.763.658-2.009 5.378-2.009 6.009 0 6.718-.564 8.487-6.75 1.5-5.247 4.067-5.678 5.965-1 .726 1.788 1.713 4.234 2.195 5.437.786 1.964 1.446 2.144 6.461 1.763 8.872-.674 8.661 2.43-.605 8.921-2.185 1.53-2.2 1.669-.696 7.07 2.094 7.522.61 8.53-5.97 4.059-2.024-1.375-3.963-2.5-4.31-2.5-.346 0-2.329 1.35-4.405 3-4.116 3.271-6.27 3.762-7.094 1.617zm12.014-8.27c.718-1.87-.175-1.685-3.147.653-1.399 1.1-2.202 2-1.785 2 .416 0 .14.761-.616 1.691-.797.982-.03.709 1.83-.652 1.76-1.289 3.434-2.95 3.718-3.691zm6.247 4.197c0-.8-.263-1.322-.584-1.159-.32.164-1.37-.53-2.333-1.544-2.01-2.115-1.836-2.204 1.685-.866 1.41.537 2.565 1.737 2.565 2.667 0 .93.266 1.425.591 1.1 1.436-1.436-.855-4.545-3.78-5.13-1.722-.344-2.796-.96-2.387-1.369 1.08-1.08 2.963-.969 3.81.224.417.585.758.165.789-.967.03-1.174 1.731-3.162 4.118-4.814 2.236-1.547 3.789-3.09 3.452-3.427-.338-.337-1.172.096-1.853.963-.682.867-2.361 1.911-3.732 2.321-2.23.667-2.349.573-1.128-.899.75-.904 1.085-1.7.742-1.769-.342-.069-.96-.197-1.372-.285-.413-.089-1.763-.723-3-1.41-1.238-.688-2.25-.94-2.25-.56 0 .38-.835-.066-1.857-.99-1.555-1.408-2.04-1.459-2.99-.313-.625.752-.84 1.663-.478 2.025.362.362-1.104.694-3.258.737-2.155.043-3.355.306-2.667.583 1.983.8 1.451 2.338-.809 2.338-1.132 0-1.78-.45-1.441-1 .34-.55.403-1 .14-1-.262 0-1.262-.301-2.222-.67-2.905-1.114-.669 1.487 3.587 4.173 2.11 1.332 4.138 3.371 4.506 4.532.47 1.479 1.166 1.905 2.33 1.426 3.055-1.258 4.608-.976 4.634.842.018 1.312 3.579 5.267 5.108 5.675.046.012.084-.633.084-1.434zm-8.952-8.294c-.367-.684-.267-4.459.22-8.25.124-.968.513-.702 1.096.75.498 1.238 1.542 2.25 2.32 2.25 1.96 0 2.76 4.744.919 5.45-2.017.774-4.08.683-4.555-.2zm6.995-2.25c-.287-1.1-.115-2 .384-2 .498 0 .906.9.906 2s-.173 2-.383 2c-.211 0-.62-.9-.907-2zm-10.56.5c-.006-.55.333-1.876.752-2.946.727-1.858.788-1.846 1.337.25.316 1.21.205 1.97-.247 1.691-.452-.279-1.05.058-1.328.749-.278.69-.51.806-.515.256zm-.15 4.882c0-.825-.45-1.222-1-.882-.55.34-1 1.293-1 2.118s.45 1.222 1 .882c.55-.34 1-1.293 1-2.118zm18-9.882c0-.825-.66-1.5-1.469-1.5-.894 0-1.243.586-.893 1.5.317.825.978 1.5 1.469 1.5.491 0 .893-.675.893-1.5zm-9.393-5.082c-.334-.87-.607-2.295-.607-3.166 0-2.438-1.12-.758-1.44 2.16-.192 1.739.197 2.588 1.185 2.588.929 0 1.246-.582.862-1.582zm-3.225-2.97c.341-.89.173-1.291-.393-.94-.544.335-.989 1.033-.989 1.551 0 1.438.717 1.121 1.382-.61zM139 202.726c0-1.435.468-2.897 1.04-3.25.682-.422.806.332.36 2.19-.921 3.832-1.4 4.194-1.4 1.06zm-24.17 25.4c.947-.6.475-1.015-1.633-1.437-2.853-.57-11.509-7.31-11.875-9.247-.098-.518-.615-2.067-1.15-3.442-.832-2.142-1.072-2.253-1.67-.775-.42 1.04.11 3.03 1.338 5.017 2.086 3.375 7.16 8.642 7.16 7.432 0-.37.9.226 2 1.326 2.154 2.154 3.729 2.458 5.83 1.126zm-9.958-4.876c-1.243-1.586-1.208-1.621.378-.378.963.755 1.75 1.543 1.75 1.75 0 .823-.821.294-2.128-1.372zm1.128 4.372c0-.207-.787-.995-1.75-1.75-1.586-1.243-1.621-1.208-.378.378 1.307 1.666 2.128 2.195 2.128 1.372zm32-3.122c1.866-1.925 3.167-3.5 2.892-3.5-.275 0-2.026 1.575-3.892 3.5s-3.167 3.5-2.892 3.5c.275 0 2.026-1.575 3.892-3.5zm4.807-7.026c-.308-.308-.867.247-1.243 1.233-.542 1.425-.428 1.54.56.56.684-.679.99-1.486.683-1.793zm1.855-7.724c-.277-.688-.504-.125-.504 1.25s.227 1.938.504 1.25c.278-.688.278-1.813 0-2.5zm-48.979.063c-.32-.798-.556-.561-.604.604-.043 1.054.193 1.644.525 1.312.332-.332.368-1.195.08-1.917zm3.497-.89c.484-.318.194-1.893-.644-3.5l-1.524-2.923.073 5c.04 2.75.33 4.325.644 3.5.314-.825.967-1.76 1.451-2.078zm45.503-5.11c-.32-.798-.556-.561-.604.604-.043 1.054.193 1.644.525 1.312.332-.332.368-1.195.08-1.917zm-49-1c-.32-.798-.556-.561-.604.604-.043 1.054.193 1.644.525 1.312.332-.332.368-1.195.08-1.917zm4.361-5.16c-.882-.874-.986-.69-.433.761.505 1.327.374 1.695-.43 1.198-.773-.478-.946-.163-.52.946.59 1.537.708 1.533 1.592-.045.64-1.143.571-2.086-.209-2.86zm10.054-9.153c.771-.55 1.964-1.045 2.652-1.1.688-.055 2.15-.168 3.25-.25 2.941-.22 2.44-2.15-.559-2.15-1.616 0-2.307.408-1.875 1.107.452.73.02.896-1.272.486-2.172-.689-10.76 4.843-9.838 6.336.293.474-.168 1.13-1.025 1.46-.857.328-1.281 1.045-.943 1.592.338.547 2.324-.687 4.412-2.743s4.427-4.188 5.198-4.738zM103 192.622c0-.207.787-.995 1.75-1.75 1.586-1.243 1.621-1.208.378.378-1.307 1.666-2.128 2.195-2.128 1.372zm38 1c0-.207-.787-.995-1.75-1.75-1.586-1.243-1.621-1.208-.378.378 1.307 1.666 2.128 2.195 2.128 1.372zm-38-4.122c1.292-1.375 2.124-2.5 1.849-2.5-.275 0-1.557 1.125-2.849 2.5-1.292 1.375-2.124 2.5-1.849 2.5.275 0 1.557-1.125 2.849-2.5zm34 .122c0-.207-.787-.995-1.75-1.75-1.586-1.243-1.621-1.208-.378.378 1.307 1.666 2.128 2.195 2.128 1.372zM125.5 186c.34-.55-.309-1-1.441-1-1.132 0-2.059.45-2.059 1s.648 1 1.441 1 1.72-.45 2.059-1zm6.059-.532c-1.068-.807-2.418-1.452-3-1.433-.583.02.066.679 1.441 1.465 3.24 1.852 4.028 1.836 1.559-.032zm-21.033-1.275c-.307-.308-1.114 0-1.793.683-.98.988-.865 1.102.56.56.986-.376 1.541-.935 1.233-1.243zm4.203-.797c-.332-.332-1.195-.368-1.916-.08-.798.32-.561.557.604.605 1.054.043 1.644-.193 1.312-.525zm12 0c-.332-.332-1.195-.368-1.916-.08-.798.32-.561.557.604.605 1.054.043 1.644-.193 1.312-.525zm-82.976-70.519c-7.896-1.182-16.148-7.792-19.378-15.522-2.032-4.864-1.749-17.94.496-22.855 2.219-4.858 7.246-9.947 12.629-12.786 5.665-2.987 17.358-2.966 23.116.04C70.954 67.154 76 75.24 76 86.405c0 17.68-14.032 29.199-32.247 26.473zM43.5 110c-2.75-1.181-4.328-1.181-2.5 0 .825.533 2.175.945 3 .914.99-.036.819-.347-.5-.914zm15.032-.449c1.907-.797 3.468-1.674 3.468-1.949 0-.275-1.462.094-3.25.82a209.299 209.299 0 0 1-4.75 1.87c-.972.356-1.049.578-.218.63.705.042 2.843-.574 4.75-1.371zm.506-2.81c2.454-1.244 4.338-2.852 4.187-3.575-.15-.723.157-1.048.685-.722 1.643 1.016 6.049-5.9 6.998-10.983 1.24-6.64.717-10.61-2.053-15.568-4.808-8.605-15.422-13.806-23.824-11.673-2.217.563-4.031 1.445-4.031 1.96 0 .516-.453.658-1.007.316-1.56-.964-6.824 3.277-9.675 7.792-2.093 3.316-2.604 5.442-2.75 11.446-.155 6.438.18 7.999 2.64 12.307 5.704 9.986 18.603 13.879 28.83 8.7zM41 105.988c0-.683-6.367-4.512-6.833-4.11-.184.158-.634-.047-1-.456-.367-.409.008-.413.833-.01.825.405.626.027-.441-.839-1.068-.866-2.056-2.354-2.196-3.306-.14-.952-.68-1.874-1.202-2.048-.522-.174-.732-1.307-.468-2.518.398-1.826.284-1.946-.672-.702-.964 1.255-1.062 1.173-.602-.5.303-1.1.67-4.77.816-8.154.146-3.385.57-5.966.943-5.736.59.365 2.133-2.878 2.273-4.777.062-.841 1.503-2.306 2.382-2.42 1.682-.217 4.116-1.687 3.757-2.268-.219-.355.743-.714 2.137-.797 1.394-.084 2.825-.623 3.18-1.198.368-.595 1.217-.691 1.976-.222 1.516.936.78 1.518-3.094 2.443-1.49.356-4.363 2.33-6.382 4.388-6.577 6.701-8.046 13.59-4.436 20.803 2.846 5.69 4.988 7.961 9.74 10.335 8.091 4.042 16.727 1.517 22.997-6.725C67.58 93.396 68 92.082 68 86.872c0-9.054-3.94-14.736-13-18.741-3.568-1.578-4-2.004-2.088-2.06 4.329-.127 10.872 4.623 14.084 10.225 6.339 11.052 1.986 23.998-9.857 29.315-3.183 1.429-16.139 1.732-16.139.378zm12.038-7.03C51.134 97.332 49.19 96 48.72 96c-.47 0-2.33 1.125-4.132 2.5-1.803 1.375-4.037 2.5-4.965 2.5-2.078 0-3.201-2.587-1.851-4.263.548-.68 1.29-2.611 1.648-4.29.577-2.707.193-3.423-3.385-6.298C33.806 84.357 32 82.032 32 80.953 32 79.24 32.713 79 37.793 79h5.793l1.885-5.546c1.552-4.565 2.251-5.494 3.952-5.25 1.565.224 2.406 1.57 3.466 5.546l1.4 5.25h5.749c4.312 0 5.9.394 6.353 1.577.587 1.529-.472 2.74-6.375 7.301l-2.484 1.92 1.82 5.058c2.788 7.754.043 9.538-6.314 4.103zM42.51 93.64c.544.077 2.153-.688 3.573-1.7 2.013-1.433 2.584-1.529 2.584-.433 0 .773-.359 1.183-.797.913-.438-.271-1.676.386-2.75 1.46-1.074 1.074-2.14 1.766-2.37 1.537-.23-.23-.417.232-.417 1.024 0 1.12.55 1.01 2.469-.5 3.155-2.481 4.28-2.44 7.813.282 1.796 1.384 2.37 1.578 1.522.512-1.166-1.465-1.13-1.8.25-2.33 1.024-.393 1.613-1.8 1.613-3.851 0-2.52.58-3.497 2.63-4.43 1.445-.66 2.384-1.443 2.085-1.742-.3-.3-1.482-.042-2.63.572-1.385.742-2.085.769-2.085.081 0-2.202-2.996-.898-3.617 1.574-.582 2.322-1.025 2.548-4.028 2.061-3.896-.632-9.649-4.386-8.808-5.746.314-.508 1.5-.924 2.634-.924 1.613 0 1.82.293.95 1.342-1.22 1.47-.541 2.658 1.517 2.658.722 0 1.596-1.125 1.941-2.5.489-1.946 1.269-2.5 3.52-2.5 2.963 0 3.373-.91 1.993-4.434-.541-1.382-.973-1.584-1.516-.706-.417.675-.214 1.883.45 2.684.691.832.78 1.456.208 1.456-.55 0-1.684-1.012-2.52-2.25l-1.521-2.25-.71 2.75c-.563 2.182-1.292 2.75-3.53 2.75-1.551 0-3.577.757-4.502 1.682-1.576 1.576-1.517 1.802.929 3.583 2.63 1.917 3.548 6.037 1.61 7.235-.55.34-.947 1.829-.882 3.309.118 2.667.124 2.664.76-.309.353-1.65 1.087-2.937 1.632-2.86zm8.079-.784c.248-.4 1.31-.664 2.361-.585 1.051.08 1.709.472 1.461.873-.248.4-1.31.664-2.361.585-1.051-.08-1.709-.472-1.461-.873zm2.744-5.356c0-.825.375-1.5.834-1.5.458 0 .833.675.833 1.5s-.375 1.5-.833 1.5c-.459 0-.834-.675-.834-1.5zM50 86c0-.55-.45-1-1-1s-1 .45-1 1 .45 1 1 1 1-.45 1-1zm-14.876-4.267c-.988-.98-1.102-.865-.56.56.376.986.935 1.541 1.243 1.233.308-.307 0-1.114-.683-1.793zM52 83c0-.55-.648-1-1.441-1s-1.72.45-2.059 1c-.34.55.309 1 1.441 1C51.073 84 52 83.55 52 83zm5-1c0-.55-.648-1-1.441-1s-1.72.45-2.059 1c-.34.55.309 1 1.441 1C56.073 83 57 82.55 57 82zm-8.618-8.552c.341-.89.173-1.291-.393-.94-.544.335-.989 1.033-.989 1.551 0 1.438.717 1.121 1.382-.61zM70.208 99.5c.57-1.1.643-1.55.162-1l-4.373 4.998-3.497 3.998 3.336-2.998c1.835-1.649 3.802-3.898 4.372-4.998zM34 105.655c0-.19-1.012-1.202-2.25-2.25L29.5 101.5l1.905 2.25c1.79 2.114 2.595 2.705 2.595 1.905zm-5.778-7.59c-.926-1.615-1.866-2.754-2.089-2.532-.438.439 2.637 5.467 3.344 5.467.236 0-.328-1.32-1.255-2.935zm45.485-13.303c-.239-1.244-.444-.462-.455 1.738-.01 2.2.185 3.218.435 2.262s.26-2.756.02-4zm-48.024-4.95c-.32-.797-.556-.56-.604.605-.043 1.054.193 1.644.525 1.312.332-.332.368-1.195.08-1.916zm1.699-3.364c.341-.89.173-1.291-.393-.94-.544.335-.989 1.033-.989 1.551 0 1.438.717 1.121 1.382-.61zM71 74.503c0-.274-1.654-2.328-3.675-4.565-3.393-3.755-8.11-7-10.025-6.894-.44.025.859.92 2.886 1.991 2.027 1.071 5.177 3.743 7 5.938C70.506 74.972 71 75.43 71 74.503zm-39-5.014l3.5-3.989-3.75 3.446C29.687 70.842 28 72.83 28 73.363c0 .534.113.778.25.543.138-.236 1.825-2.223 3.75-4.417zm8.917-6.124c1.372-1.201-1.883-.086-3.476 1.19-1.83 1.467-1.798 1.487.559.365 1.375-.655 2.688-1.355 2.917-1.555zm10-1.998c.859-.757-4.497-.19-6.417.68-1.394.631-.788.721 2 .297 2.2-.335 4.188-.775 4.417-.977zm4.333.97c-.688-.277-1.813-.277-2.5 0-.688.278-.125.505 1.25.505s1.938-.227 1.25-.504zm122.063 46.67c-9.057-5.195-13.319-12.795-13.303-23.725.016-11.343 5.883-20.602 15.777-24.899 5.057-2.196 16.49-2.148 21.961.093 2.443 1 6.345 4.033 9.18 7.136 3.962 4.334 5.163 6.51 6.108 11.062 2.19 10.55-.403 19.483-7.701 26.527-5.397 5.209-9.864 6.8-19.053 6.79-6.793-.008-8.44-.388-12.97-2.985zm21.342.228c.634-.404-2.81-.735-7.655-.735-4.845 0-8.29.33-7.655.735.635.404 4.08.734 7.655.734s7.02-.33 7.655-.734zm3.955-4.485c10.87-7.305 14.124-19.528 8.05-30.247-2.685-4.74-9.297-10.266-10.656-8.907-.624.624.274 1.638 2.53 2.853 1.925 1.036 4.759 3.946 6.298 6.467 2.353 3.855 2.77 5.567 2.618 10.765-.354 12.174-8.048 19.996-20.089 20.422-8.034.284-14.077-3.026-18.036-9.88-1.501-2.597-2.984-4.948-3.296-5.223-.949-.836-.991-11-.046-11 .485 0 1.19-1.012 1.566-2.25 1.148-3.781 5.465-8.79 9.05-10.499 1.87-.892 3.401-1.876 3.401-2.186 0-.31 2.882-.565 6.405-.565 3.522 0 6.195.338 5.94.75-.254.412.212.75 1.037.75 2.492 0 2.752-1.73.357-2.373-4.672-1.252-12.838-.617-16.529 1.285C173.351 68.963 168 77.303 168 85.5c0 5.512 2.162 10.567 6.64 15.522 3.283 3.635 3.593 5.68.413 2.728-1.064-.988-1.2-.99-.644-.005.386.685 1.632 1.742 2.767 2.35 1.494.8 1.877.8 1.386.005-.918-1.484.413-1.33 3.438.4 1.453.83 5.28 1.444 9.137 1.465 5.86.03 7.203-.345 11.473-3.215zm4.244-.357c5.39-4.613 7.981-9.749 8.616-17.069l.505-5.824-1.247 6.5c-1.553 8.093-4.106 12.543-9.603 16.735-2.354 1.796-3.877 3.265-3.383 3.265.494 0 2.795-1.623 5.112-3.607zm-6.694-1.99c3.923-2.007 8.183-7.656 9.733-12.906 1.27-4.303 1.2-5.001-1.018-10.2-2.663-6.239-7.602-10.892-12.629-11.898-2.742-.548-3.243-.358-3.224 1.226.012 1.031.915 3.843 2.006 6.249 1.805 3.976 2.243 4.322 4.83 3.804 3.945-.789 7.142.228 7.142 2.271 0 .944-1.76 3.13-3.91 4.858l-3.91 3.142 1.41 4.685c.776 2.576 1.41 5.287 1.41 6.025 0 2.205-3.248 1.476-7.391-1.66l-3.891-2.944-3.753 2.973c-2.064 1.634-4.588 2.986-5.609 3.002-1.747.029-1.74.098.11 1.17 5.02 2.913 13.224 3.001 18.694.203zm-29.389-3.831c-1.236-1.886-2.414-3.262-2.618-3.058-.414.413 3.729 6.486 4.424 6.486.243 0-.57-1.543-1.806-3.428zm10.187-9.152c.023-.595-2.045-2.58-4.595-4.411l-4.637-3.33.456 5.499c.331 3.998 1.255 6.61 3.387 9.576l2.93 4.077 1.208-5.165c.665-2.841 1.227-5.652 1.25-6.246zm17.732 8.144c-.995-.755-1.38-1.638-.854-1.963.588-.363.618-2.037.08-4.346-.703-3.013-.56-3.953.722-4.755 3.986-2.493 5.628-4.26 4.962-5.338-.395-.64-1.479-1.11-2.409-1.046-1.525.105-1.519.161.059.573.962.252 1.75.901 1.75 1.443s-.52.665-1.155.273c-.67-.415-.884-.277-.51.327.353.572-.195 1.26-1.22 1.528-1.428.373-1.748.05-1.372-1.387.362-1.383-.048-1.873-1.567-1.873-2.353 0-3.44-1.376-3.807-4.818C193.061 73.29 192 71.94 192 74.44c0 1.199-.507 1.58-1.565 1.173-1.217-.466-1.442-.1-1.01 1.643.306 1.234.298 1.682-.018.994-.854-1.861-2.105-1.513-2.697.75-.353 1.351-1.364 2-3.116 2-1.798 0-2.599.537-2.61 1.75-.008 1.055-.306 1.324-.75.677-.403-.59-1.634-1.38-2.734-1.756-1.1-.376-.06 1.01 2.312 3.08 2.983 2.605 4.117 4.27 3.681 5.406-.937 2.442 1.261 3.234 3.999 1.44 1.856-1.216 2.566-1.292 3.116-.336.392.682.356.917-.079.524-1.047-.945-4.845 1.762-5.122 3.65-.167 1.137.434 1.003 2.563-.571l2.782-2.056 4.274 3.096c4.13 2.991 7.336 4.444 3.664 1.66zM196 95c0-.55.477-1 1.059-1s.78.45.441 1c-.34.55-.816 1-1.059 1s-.441-.45-.441-1zm-8.703-8.076c-.112-1.516.338-3.193 1-3.725 1.427-1.15 5.703.221 5.703 1.828 0 .6.45.813 1 .473 1.266-.782 1.266.542 0 2.5-.761 1.178-.973 1.206-.985.128-.01-.953-.398-1.074-1.265-.395-.688.538-2.15 1.196-3.25 1.462-1.603.389-2.04-.062-2.203-2.271zM191.5 86c.34-.55-.11-1-1-1s-1.34.45-1 1c.34.55.79 1 1 1 .21 0 .66-.45 1-1zm-.421-7.583c.048-1.165.285-1.402.604-.604.289.721.253 1.584-.079 1.916-.332.332-.568-.258-.525-1.312zM166.959 86l-.636-7.5-.161 6.168c-.135 5.12.577 10.273 1.26 9.125.095-.161-.113-3.668-.463-7.793zm12.008-7c4.626 0 5.922-.354 6.405-1.75C188.903 67.047 188.91 67 186.781 67c-4.714 0-12.714 6.827-14.062 12-.215.825-.202 1.163.028.75.23-.412 3.03-.75 6.22-.75zm35.716-.188c-.32-.797-.556-.56-.604.605-.043 1.054.193 1.644.525 1.312.332-.332.368-1.195.08-1.916zM170.362 72.5l1.757-3-2.06 2.36c-1.132 1.3-2.059 2.837-2.059 3.417 0 1.23.05 1.171 2.362-2.777zm20.638.892c0-.827-1.942-1.295-2.387-.575-.289.467.13.85.931.85.8 0 1.456-.124 1.456-.275zm.345-2.935c-.326-.849-.807-1.329-1.069-1.067-.262.262-.18.957.183 1.543.986 1.596 1.562 1.286.886-.476zm19.655.23c0-.172-1.462-1.635-3.25-3.25L204.5 64.5l2.937 3.25c2.738 3.03 3.563 3.71 3.563 2.937zm-31-7.337c0-.724-3.854 1.605-4.567 2.76-.374.603.501.324 1.944-.621 1.443-.946 2.623-1.908 2.623-2.14zm23.5.65c-.34-.55-1.154-.993-1.809-.985-.716.01-.592.403.309.985 1.921 1.242 2.267 1.242 1.5 0zm-5.718-2.552c-.74-.74-12.797-.766-13.534-.03-.32.32 2.719.582 6.752.582 4.033 0 7.085-.248 6.782-.552zM115 33.392c0-2.266.32-2.528 2.439-1.997 1.341.337 2.718.16 3.059-.391.35-.567-.44-1.004-1.817-1.004-3.387 0-4.865-2.196-4.496-6.68l.315-3.82h5c4.333 0 5 .267 5 2 0 1.456-.775 2.089-2.852 2.326l-2.852.327 3.352 1.673c3.64 1.818 4.682 4.755 2.88 8.122-.856 1.599-2.084 2.052-5.563 2.052-4.145 0-4.465-.187-4.465-2.608zm8.168-4.624c-.742-.742-.872-.351-.437 1.312.354 1.352.807 1.806 1.057 1.057.24-.722-.038-1.787-.62-2.369zm-2.439-1.372c-.332-.332-1.195-.368-1.916-.08-.798.32-.561.557.604.605 1.054.043 1.644-.193 1.312-.525zm-.918-5.68c2.423-.363 2.392-.393-.311-.31-2.48.078-3.017.527-3.096 2.594-.08 2.053-.024 2.108.31.309.274-1.47 1.292-2.324 3.097-2.593zM7.689 395.25c-.251-.962-.457-.175-.457 1.75s.206 2.712.457 1.75c.252-.963.252-2.538 0-3.5zm.004-19.981c-.254-.973-.478-.419-.498 1.231-.02 1.65.187 2.446.46 1.769.275-.677.292-2.027.038-3zm.056-70.519c-.16-12.238-.29-2.225-.29 22.25s.13 34.487.29 22.25c.16-12.238.16-32.263 0-44.5zm.057-158.933c.088-74.9.524-136.547.97-136.993.445-.445 30.49-.929 66.767-1.074l65.957-.265-66.643-.242C12.201 7.015 8.17 7.105 7.48 8.75 6.29 11.588 6.241 282 7.43 282c.119 0 .288-61.282.376-136.183zM154.25 7.337c-.688-.277-1.813-.277-2.5 0-.688.278-.125.505 1.25.505s1.938-.227 1.25-.504zm10-.043c-1.238-.238-3.263-.238-4.5 0-1.238.239-.225.434 2.25.434s3.487-.195 2.25-.434zM229 7c0-.621-4.45-.924-11.75-.8l-11.75.199L217 7c6.325.33 11.613.69 11.75.8.137.11.25-.25.25-.8zm-29.27-.604c-.333-.332-1.196-.368-1.917-.08-.798.32-.561.557.604.605 1.054.043 1.644-.193 1.312-.525z"/></svg>