<svg xmlns="http://www.w3.org/2000/svg" width="246" height="420" viewBox="0 0 246 420"><path d="M151.322 418.25c17.503-.153 45.853-.153 63 0 17.148.154 2.828.28-31.822.28s-48.68-.126-31.178-.28zM7.465 405.943C6.4 404.22 6.143 389.697 6.093 328.5 6.017 235.019 7.1 7.647 7.625 6.797c.804-1.3 226.747.273 227.614 1.584 1.264 1.912.882 395.768-.384 397.294-.901 1.086-21.49 1.325-113.918 1.325-78.205 0-113.02-.324-113.472-1.057zm73.078-1.693c-37.376-.145-68.346-.653-68.822-1.129-.864-.864-1.485-38.19-1.89-113.621-.15-28.05-.404-35.817-.847-26-.802 17.738-.382 139.047.486 140.452.444.718 22.42.972 69.839.805l69.191-.243zm75.219.063c-.956-.25-2.756-.26-4-.02-1.244.239-.462.444 1.738.455 2.2.01 3.218-.185 2.262-.435zm7.488.025c-.688-.278-1.813-.278-2.5 0-.688.277-.125.504 1.25.504s1.938-.227 1.25-.504zm16.014-.042c-1.23-.237-3.48-.243-5-.014-1.52.23-.514.425 2.236.432 2.75.007 3.994-.18 2.764-.418zm23.465.1c-.332-.332-1.195-.368-1.917-.079-.797.32-.56.556.605.604 1.054.044 1.644-.193 1.312-.525zm19.039-.11c-1.503-.229-4.203-.233-6-.01-1.797.222-.568.409 2.732.414 3.3.006 4.77-.176 3.268-.405zM233 355.831c0-26.493.173-57.543.384-69 .216-11.692-.004-20.832-.5-20.832-.503 0-.884 29.027-.884 67.418 0 37.08-.273 68.13-.607 69-.334.87-.109 1.582.5 1.582.794 0 1.107-13.62 1.107-48.168zM229.013 349c.283-28.875.42-116.4.305-194.5l-.21-142-83.804-.23c-46.092-.127-94.717-.352-108.055-.5L13 11.5 12.8 65c-.47 127.083-.467 302.904.006 319.303l.512 17.802 107.591-.302L228.5 401.5zM44.796 370.463c-.188-.188-2.841-.443-5.896-.567-7.254-.293-9.9-1.332-9.9-3.889 0-1.49.835-2.224 3.03-2.663 1.667-.333 3.912-1.785 4.99-3.225 1.077-1.44 2.413-3.163 2.97-3.827 1.428-1.707 1.313-29.845-.134-32.608-.629-1.201-4.44-5.653-8.47-9.892-7.452-7.84-8.799-10.357-8.214-15.355.462-3.952 3.533-4.608 21.328-4.557 22.822.065 25.158 1.098 21.97 9.71-1.278 3.45-3.817 6.853-8.537 11.442-8.145 7.918-8.92 10.2-8.927 26.282L49 353.13l4.202 4.878c2.31 2.682 5.236 5.137 6.5 5.454 1.602.402 2.298 1.307 2.298 2.986 0 2.192-.517 2.466-5.75 3.044-3.163.35-6.957.788-8.431.974-1.475.187-2.835.185-3.023-.003zm12.639-2.438c1.41-.537 2.565-1.485 2.565-2.107 0-.623-.617-.895-1.371-.606-1.597.613-9.023-6.624-10.582-10.312-.973-2.3-1.01-2.24-.472.75.702 3.906-2.002 5.754-4.14 2.83-1.2-1.641-1.34-1.625-2.356.272-1.728 3.23-1.322 4.247 1.421 3.559 1.54-.387 2.5-.202 2.5.48 0 .61-1.602 1.109-3.559 1.109-2.57 0-3.356-.347-2.828-1.25.402-.688-.17-.463-1.27.5-1.1.963-3.015 1.75-4.255 1.75-1.296 0-2.086.505-1.859 1.188.687 2.06 2.573 2.01 4.709-.125 1.3-1.302 2.062-1.583 2.062-.763 0 .715-.54 1.84-1.2 2.5-.933.933.941 1.2 8.435 1.2 5.3 0 10.79-.439 12.2-.975zm-17.271-1.522c.273-.274 1.698-.597 3.167-.718 2.048-.17 2.669-.752 2.669-2.503 0-1.615.584-2.282 2-2.282 1.1 0 2 .477 2 1.059s.47.769 1.044.414c1.291-.798 4.139 1.422 3.386 2.64-.301.488-1.309.855-2.239.817-1.379-.058-1.321-.23.309-.93 1.797-.772 1.732-.867-.643-.93-1.479-.039-2.897.59-3.219 1.43-.385 1.004-1.964 1.5-4.773 1.5-2.31 0-3.975-.224-3.701-.497zm5.577-26.714c-.195-3.459-.357-.889-.36 5.711-.001 6.6.159 9.43.357 6.29.198-3.142.2-8.542.003-12zM45.014 327c.137-.825.58.075.986 2l.737 3.5.131-3.191c.073-1.755.621-3.493 1.22-3.863.597-.37.853-1.565.567-2.658-.286-1.092-.294-1.76-.018-1.484.676.676 8.93-8.387 8.613-9.458-.137-.465.313-.87 1-.901.688-.03 2.346-1.493 3.686-3.25l2.436-3.195-2.99 2.75c-3.63 3.336-4.348 3.416-4.498.5-.105-2.039-.162-2.062-.608-.25-.27 1.1-1.005 2.649-1.634 3.442-.906 1.144-.851 1.267.263.595.982-.591 1.177-.478.648.377-.415.672-1.408.972-2.206.666-.798-.307-1.213-.172-.923.298.731 1.182-2.891 4.303-3.915 3.374-.457-.414-.485-.156-.064.573.6 1.039 1.244.876 2.975-.75 3.409-3.202 4.316-2.453 1.098.907-2.36 2.463-3.122 2.767-4.38 1.75-1.21-.98-1.368-.976-.77.018.412.688.336 1.25-.17 1.25s-.752 1.238-.545 2.75c.321 2.356.24 2.464-.569.75-.519-1.1-.975-1.452-1.014-.781-.039.677-.754.956-1.612.626-1.767-.678-1.326-2.986.491-2.57.66.15.901-.208.536-.799-.46-.745-1.046-.755-1.916-.033-.69.572-1.606.706-2.038.298-.432-.407-.053.7.842 2.46 1.257 2.471 1.666 6.567 1.798 18l.172 14.799.71-13.5c.391-7.425.823-14.175.96-15zm2.675 19.25c-.251-.963-.457-.175-.457 1.75s.206 2.712.457 1.75c.252-.963.252-2.538 0-3.5zm-5.094-28.405c.406-.655.278-.885-.295-.53-.555.343-2.04-.474-3.3-1.815-1.26-1.341-2.675-2.2-3.145-1.91-.47.29-.855.051-.855-.531 0-.582.563-1.073 1.25-1.09.694-.016.471-.483-.5-1.05-2.021-1.176-2.339-4.515-.5-5.257.94-.379.917-.524-.094-.583-.739-.043-1.579.821-1.866 1.921-.606 2.318-3.29 2.726-3.29.5 0-.825-.45-1.5-1-1.5s-1 .252-1 .56c0 1.21 10.303 11.37 11.058 10.904.442-.273 1.086-.04 1.432.52.809 1.308 1.228 1.28 2.105-.139zm-5.723-2.595c-1.243-1.586-1.208-1.621.378-.378.963.755 1.75 1.543 1.75 1.75 0 .823-.821.294-2.128-1.372zm9.857-4.797c-1.323-2.526-1.349-2.53-3.127-.566-1.724 1.905-1.723 2.1.022 5.053l1.814 3.072 1.313-2.506c1.086-2.074 1.083-2.945-.022-5.053zm-6.188 1.48c1.026-1.66.105-1.89-1.33-.332-.71.77-.849 1.399-.31 1.399.54 0 1.278-.48 1.64-1.067zM55 308.43c0-.275-.9-.019-2 .57s-2 1.295-2 1.57c0 .275.9.019 2-.57s2-1.295 2-1.57zm-16 1.177c0-.216-.698-.661-1.552-.989-.89-.341-1.291-.173-.94.393.586.95 2.492 1.406 2.492.596zm3.382-2.159c.341-.89.173-1.291-.393-.94-.544.335-.989.133-.989-.449 0-.582-.45-1.059-1-1.059-1.44 0-1.234 2.739.25 3.338.688.277 1.314.54 1.393.583.079.043.411-.62.739-1.473zm8.918-.043c-.11-.498-1.683-1.208-3.494-1.578-3.753-.768-4.996-.34-1.881.65 1.141.361 2.075 1.038 2.075 1.502 0 .464.787.728 1.75.587.963-.141 1.66-.664 1.55-1.161zm8.2-.405c.34-.55.141-1-.441-1S58 306.45 58 307s.198 1 .441 1 .72-.45 1.059-1zm-33.155-3.543c-.326-.849-.807-1.329-1.069-1.067-.262.262-.18.957.183 1.543.986 1.596 1.562 1.286.886-.476zM62.765 302c.246-1.288-1.68-1.451-13.66-1.156-7.67.19-14.628-.036-15.46-.5-.86-.48 4.506-.703 12.42-.518 11.791.275 13.935.097 13.935-1.157 0-1.018.704-1.326 2.25-.983 1.728.383 1.554.11-.75-1.176-2.383-1.33-5.824-1.685-16.735-1.727-7.998-.031-14.263.376-15 .974-.696.565-2.165 1.272-3.265 1.571-1.268.345-.934.475.913.358 1.602-.102 3.102.377 3.333 1.064.247.735-.438 1.25-1.663 1.25-2.244 0-2.349.144-1.572 2.168.378.985 2.889 1.307 9.634 1.236 5.017-.053 10.47.179 12.116.515 4.84.99 13.175-.194 13.504-1.919zm-21.478-3.74c3.182-.2 8.132-.197 11 .004 2.867.201.263.364-5.787.362-6.05-.002-8.396-.167-5.213-.366zm-3.537-2.003c3.987-.19 10.512-.19 14.5 0 3.987.19.725.346-7.25.346s-11.238-.156-7.25-.346zM65.86 299c0-.945-.318-.76-.86.5-.473 1.1-.86 2.675-.86 3.5 0 .945.318.76.86-.5.473-1.1.86-2.675.86-3.5zm117.64 71.018c-1.497-.561-.869-.846 2.5-1.134 4.459-.38 17.423.513 15.5 1.069-2.41.695-16.186.746-18 .065zm-5.75-.834c-2.132-.246-2.75-.846-2.75-2.671 0-1.79.702-2.508 2.933-2.998 1.783-.392 4.374-2.404 6.611-5.135l3.68-4.49-.376-13.695c-.437-15.892-1.121-17.602-10.171-25.412-5.456-4.707-9.677-11.497-9.677-15.564 0-4.055 3.236-4.719 23-4.719 20.015 0 23 .638 23 4.913 0 5.66-3.416 10.84-11.662 17.684-5.549 4.607-6.286 7.242-6.432 23.01l-.132 14.28 4.9 4.557c2.694 2.506 5.75 5.035 6.79 5.62 2.754 1.548 1.304 4.452-2.183 4.373l-2.781-.064 2.42-.967c3.45-1.38 1.558-2.718-4.936-3.49-3.016-.358-5.822-.85-6.234-1.093-.413-.242-.75.036-.75.618s.675 1.059 1.5 1.059 1.5.45 1.5 1c0 .563-2.81 1-6.429 1-3.771 0-6.974.517-7.75 1.25-.726.687-2.559 1.108-4.071.934zm10.25-4.287c1.214-.677 1.129-.842-.45-.867-3.205-.05-.425-1.795 3.708-2.328 2.067-.266 4.01-.076 4.32.423.308.5.999.637 1.535.305.536-.331 1.742-.02 2.68.69.94.711.17-.36-1.707-2.38-3.118-3.355-3.525-3.525-4.69-1.957-1.042 1.405-1.628 1.501-3.22.53-1.63-.994-2.29-.82-4.07 1.074-1.168 1.244-1.783 2.603-1.365 3.02.417.418.309.628-.241.467-.55-.161-2.35.471-4 1.405l-3 1.697 4.5-.622c2.475-.342 5.175-.998 6-1.457zm3.743-25.605c-.193-3.736-.353-.942-.354 6.208-.002 7.15.156 10.206.35 6.792.195-3.415.196-9.265.003-13zm-2.05 12.977c-.254-.973-.478-.419-.498 1.231-.02 1.65.187 2.446.46 1.769.275-.677.292-2.027.038-3zm6.157-30.14c.975-1.712 1.008-2.16.12-1.61-.796.491-1.066.27-.766-.63.254-.764.875-1.396 1.38-1.404 1.623-.027 3.465-1.597 2.916-2.485-.293-.474-.075-1.144.484-1.49 1.335-.825 1.306-2.51-.043-2.51-.582 0-.821.385-.53.855.29.47-.584 1.898-1.942 3.174S195 317.955 195 317.474c0-.48-.492-.382-1.093.219-.79.79-.78 1.676.036 3.2 1.11 2.075.451 2.693-2.327 2.18-.486-.089-.606 1.32-.267 3.132.498 2.658.407 2.94-.466 1.456-.595-1.012-.843-3.037-.551-4.5.369-1.85-.253-3.805-2.037-6.411-2.804-4.096-3.59-4.707-2.576-2 .572 1.528.443 1.577-1.02.387-.923-.75-1.471-1.697-1.22-2.104.252-.407-.674-1.256-2.057-1.887-3.097-1.41-5.54-1.515-3.422-.146.825.533 1.069.976.542.985-.527.008 1.01 2.02 3.415 4.472 2.406 2.45 4.682 4.266 5.057 4.034.376-.232.722.8.769 2.293.087 2.782 3.107 10.771 3.178 8.407.021-.72.489-1.03 1.039-.691.564.348 1.088 6.157 1.201 13.309l.202 12.691.548-16c.367-10.68.998-16.788 1.899-18.37zm-7.507-.272c.087-.747-.293-1.49-.843-1.653-1.407-.417-7.5-6.428-7.5-7.4 0-.442.525-.804 1.167-.804.641 0 .87.297.506.66-.727.728 3.387 3.966 4.558 3.589 1.443-.466 4.124 4.796 3.011 5.909-.74.74-1.009.65-.899-.301zm1.387 14.415c-.217-2.074-.397-.622-.402 3.228-.004 3.85.173 5.548.394 3.772.22-1.775.224-4.925.008-7zm4.072-22.772c0-.55-.552-2.053-1.227-3.34l-1.226-2.342-1.66 2.535c-1.552 2.368-1.548 2.731.07 5.548 1.723 3.004 1.733 3.007 2.886.807.636-1.214 1.157-2.658 1.157-3.208zm3.005-.026c-.308-.308-.867.247-1.243 1.233-.542 1.425-.428 1.54.56.56.684-.679.99-1.486.683-1.793zm9.308-2.754c1.215-1.771 1.596-2.658.847-1.97-1.916 1.759-3.465 1.561-1.962-.25 1.03-1.241.922-1.51-.628-1.56-1.03-.033-4.797-.219-8.372-.413-4.52-.245-5.808-.081-4.226.537 1.25.489 2.725 1.912 3.278 3.162.819 1.854.936 1.905.635.274-.28-1.515.208-2.036 2.009-2.147 1.928-.118 2.158.118 1.218 1.25-.884 1.066-.87 1.397.057 1.397.669 0 1.462-.938 1.761-2.085.758-2.896 2.075-.528 1.761 3.165-.288 3.386.594 3.055 3.622-1.36zM184 309.5c-.685-.825-1.752-1.486-2.372-1.468-.62.017-.254.692.813 1.5 2.494 1.886 3.14 1.873 1.559-.032zm-8.333-1.805c0-.717-1.12-1.833-2.488-2.479l-2.488-1.174 2.329 2.48c2.717 2.891 2.647 2.86 2.647 1.173zm12.79.374c.74-1.197-1.141-2.382-2.473-1.559-1.119.691-.384 2.49 1.016 2.49.485 0 1.14-.419 1.457-.93zm7.521-3.74c10.707.946 13.022.626 13.022-1.798 0-1.318-2.503-1.531-18-1.531-15.572 0-18 .209-18 1.546 0 1.2 1.005 1.494 4.48 1.314 2.465-.127 4.778.064 5.14.426.361.362 1.26.32 1.997-.092.738-.412 5.85-.351 11.361.135zM171.29 300c.287-1.1.115-2-.384-2-.498 0-.906.9-.906 2s.173 2 .383 2c.211 0 .62-.9.907-2zm39.163-1.658c-1.233-.902-2.048-.997-2.484-.291-.806 1.304-30.57.86-33.436-.499-1.781-.844-1.829-.772-.5.763 1.29 1.49 3.685 1.675 19.861 1.532 15.658-.139 18.121-.363 16.559-1.505zm-5.618-1.219c2.24-1.42-2.394-2.095-14.503-2.11-11.753-.014-15.556.596-13.166 2.11 1.738 1.103 25.93 1.102 27.669 0zm-20.585-.862c3.163-.198 8.338-.198 11.5 0 3.163.198.575.36-5.75.36s-8.912-.162-5.75-.36zm-71.619-48.963c-.386-.386-2.164-.604-3.952-.483-6.583.443-9.076-4.886-2.866-6.128 2.088-.417 3.916-1.977 6.086-5.192L115 230.9v-13.985c0-16.305.166-15.892-10.635-26.538-5.568-5.487-7.39-7.992-7.938-10.913-1.442-7.69 1.789-8.801 24.073-8.284 18.655.434 20.5 1.032 20.5 6.655 0 4.772-3.691 10.547-9.637 15.076-2.463 1.876-5.131 4.674-5.93 6.218-1.543 2.985-3.897 26.886-3 30.461.487 1.94 7.124 8.544 12.706 12.644 2.316 1.702 2.324 1.764.42 3.25-1.068.834-3.543 1.47-5.5 1.413l-3.559-.104 3.686-.98c2.548-.679 3.519-1.419 3.143-2.397-.299-.779-1.1-1.416-1.783-1.416-.681 0-2.872-1.586-4.868-3.524-3.143-3.053-3.888-3.362-5.572-2.31-1.547.966-2.275.938-3.567-.134-.933-.774-1.931-.96-2.346-.44-.398.5-1.815 2.154-3.15 3.677l-2.428 2.77 3.23-1.612c1.778-.886 3.89-1.36 4.693-1.05.804.308 1.462.124 1.462-.408 0-1.287 3.71-1.248 4.51.047.346.56.98.799 1.412.532.43-.266 1.637.213 2.68 1.066 1.66 1.356 1.68 1.48.148.999-.963-.303-1.75-.098-1.75.454 0 .66-.66.65-1.934-.032-2.442-1.306-3.36-1.319-2.565-.034.399.646-2.507.912-8.191.75-5.135-.146-9.019.166-9.31.749-.565 1.13 5.69 2.252 14.25 2.557 3.163.112 5.75.596 5.75 1.074 0 1.031-10.352 1.184-11.369.167zm5.92-30.953c-.028-4.486.287-7.947.699-7.691.413.255.827 5.725.92 12.155l.171 11.691.632-15c.703-16.687 1.428-19.01 7.624-24.451 2.902-2.548 3.398-3.439 2.301-4.133-1.192-.755-1.19-.888.019-.9.779-.009 1.156-.276.838-.594-.318-.318-1.855.16-3.417 1.063-1.56.903-2.065 1.408-1.12 1.122.945-.286 2.03.023 2.41.687.381.663.336.884-.1.491-.435-.393-1.744-.184-2.91.465-1.165.648-2.433 1.195-2.818 1.215-.385.02-1.263.598-1.95 1.285-.972.972-.983 1.517-.05 2.45 1.669 1.669 1.511 3.303-.183 1.897-1.73-1.436-2.617.48-2.617 5.651 0 4.865-.62 3.815-1.26-2.133-.355-3.305-.212-4.437.444-3.5.8 1.144.897 1.124.559-.115-.225-.825-1.272-1.507-2.326-1.515-1.055-.008-2.48-.373-3.169-.81-.688-.438-.399.694.643 2.515 2.421 4.229 3.321 10.662 3.332 23.81.006 7.036.234 9.18.694 6.5.377-2.2.662-7.67.634-12.155zm-2.927-16.884c-.965-2.514-.68-3.163.498-1.136.584 1.004.85 2.036.593 2.293-.257.258-.749-.263-1.091-1.157zm6.835-3.528c-.654-1.057.094-2.4 1.374-2.468.367-.02 1.792-.64 3.167-1.38 2.378-1.278 2.356-1.191-.437 1.785-3.335 3.553-3.22 3.495-4.104 2.063zm-7.131-3.556c-.825-1.259-1.167-2.828-.76-3.488.478-.772.317-.936-.454-.46-.714.442-.92 1.609-.51 2.897.605 1.907.495 2-.949.803-.898-.746-1.39-1.75-1.092-2.23.297-.482-.231-.58-1.175-.218-1.164.447-1.484.283-.993-.511.828-1.34-.3-1.517-2.156-.34-.928.59-.54 1.443 1.47 3.236 1.502 1.339 2.126 1.646 1.388.684-1.784-2.326.136-2.255 2.252.083.913 1.009 2.294 1.834 3.069 1.834 1.187 0 1.172-.363-.09-2.29zm5.72-3.777c-1.037-2.802-2.719-3.084-4.01-.671-.857 1.601-.725 2.619.602 4.645l1.7 2.594 1.223-2.286c.69-1.289.901-3.156.485-4.282zm3.297.857c-.326-.849-.807-1.329-1.069-1.067-.262.262-.18.957.183 1.543.986 1.596 1.562 1.286.886-.476zm3.148-2.446c.35-.566-.051-.734-.941-.393-1.732.665-2.05 1.382-.611 1.382.518 0 1.216-.445 1.552-.989zm7.775-1.011c1.311-1.532 1.39-2 .339-2-.756 0-1.61.9-1.897 2-.287 1.1-.44 2-.339 2 .102 0 .955-.9 1.897-2zm-23.768 0c-.34-.55-1.068-1-1.618-1s-.722.45-.382 1c.34.55 1.068 1 1.618 1s.722-.45.382-1zm13.295-1.186c.242-1.247-1.09-1.537-7.436-1.62-7.423-.096-7.618-.04-4.875 1.382 1.96 1.017 3.181 1.159 3.887.453 1.539-1.539 4.61-1.24 5.284.513.713 1.859 2.729 1.391 3.14-.728zm-21.25.257c-.316-.51.445-1.124 1.69-1.363 1.768-.34 1.596-.466-.785-.572-1.677-.075-3.696-.698-4.485-1.386-.79-.687-.35-.012.974 1.5 2.362 2.695 3.741 3.66 2.605 1.821zm32.69-4.436c.404-.624.741-1.374.75-1.666.008-.293-5.875-.405-13.074-.25-7.214.155-13.834-.154-14.75-.689-1.291-.753-.77-1.012 2.339-1.16l4-.19-3.5-.562c-2.757-.442-1.908-.688 4-1.16l7.5-.598-8.668-.18c-4.768-.099-9.433-.473-10.367-.832-1.466-.562-1.54-.357-.546 1.5 1.038 1.94.901 2.152-1.384 2.152-1.394 0-2.528.338-2.52.75.043 2.112 1.868 3.11 5.132 2.807 1.978-.184 4.201.04 4.94.497.761.47 1.885.384 2.586-.197.682-.566 1.822-.67 2.533-.23.712.44 3.432.714 6.044.608 2.613-.106 4.75.139 4.75.544 0 1.167 9.42.115 10.235-1.144zm-37.552-2.822c-.32-.798-.556-.561-.604.604-.043 1.054.193 1.644.525 1.312.332-.332.368-1.195.08-1.917zm21.046-1.417c-.332-.332-1.195-.368-1.916-.08-.798.32-.561.557.604.605 1.054.043 1.644-.193 1.312-.525zm15.605-.823c.437-1.14.005-1.252-2.143-.558-1.48.478-3.591 1.068-4.691 1.311-1.1.243-.136.494 2.143.558 2.75.077 4.327-.364 4.69-1.311zM132.5 174c1.26-.542 1.445-.86.5-.86-.825 0-2.4.387-3.5.86-1.26.542-1.445.86-.5.86.825 0 2.4-.387 3.5-.86zm-11.22-1.73c-2.32-.21-6.37-.213-9-.007-2.629.207-.73.379 4.22.382 4.95.003 7.101-.166 4.78-.376zm69.989-47.963c.973-.254 2.323-.237 3 .037.677.274-.119.481-1.769.461-1.65-.02-2.204-.244-1.231-.498zM36 122.98c0-.584 2.245-.954 5.25-.864 8.14.243 20.592-.365 17.347-.847-2.703-.402-5.968-2.565-5.133-3.4.203-.203-.718-.369-2.047-.369-2.207 0-2.858.706-2.535 2.75.065.413-3.284.75-7.441.75s-7.321.385-7.03.856c.29.47-.583.643-1.941.383-3.2-.612-3.466-4.239-.311-4.239 1.296 0 3.895-1.891 6.5-4.728L43 108.544v-13.65c0-16.523-.617-18.296-9.188-26.394-9.645-9.113-12.526-16.942-7.137-19.398 3.236-1.474 24.875-2.696 28.928-1.633 2.633.69 2.714.835.897 1.575-1.751.714-1.658.824.75.886 1.513.038 2.75-.436 2.75-1.055 0-1.349 5.63-.427 7.655 1.253 3.417 2.837-1.071 12.422-8.98 19.179-7.354 6.282-8.679 10.277-8.663 26.121l.012 12.072 4.661 4.84c2.564 2.663 5.709 5.24 6.989 5.726 2.917 1.11 2.948 2.385.103 4.377-1.706 1.195-4.958 1.557-14 1.557-7.34 0-11.777-.384-11.777-1.02zm-.27-3.584c-.333-.332-1.196-.368-1.917-.08-.798.32-.561.557.604.605 1.054.043 1.644-.193 1.312-.525zM47 117.607c0-2.585 2.893-4.398 4.045-2.534.388.627.945.753 1.238.279.293-.474-.326-1.922-1.375-3.218-1.35-1.666-1.908-1.909-1.908-.828 0 1.908-1.99 2.685-4.104 1.602-1.138-.583-2.381-.011-4.277 1.968-1.851 1.932-2.217 2.79-1.19 2.79.815 0 1.204-.45.863-1.003-.37-.597.052-.745 1.044-.364.95.364 1.664.151 1.664-.497 0-.624.236-.9.524-.612 1.068 1.069-.764 3.707-2.859 4.115-1.19.233-.252.484 2.085.559 3.854.123 4.25-.087 4.25-2.257zm8.124-1.874c-.988-.98-1.102-.865-.56.56.376.986.935 1.541 1.243 1.233.308-.307 0-1.114-.683-1.793zM45.883 80c.081-.275.584.175 1.117 1 .828 1.282.972 1.246.985-.25.008-.963.517-1.75 1.132-1.75.624 0 .886-.882.593-2.001-.288-1.101-.206-1.805.183-1.565s1.28-.481 1.98-1.603c.704-1.126.794-1.743.2-1.377-1.635 1.012-1.28-1.038.427-2.454 1.204-1 1.5-.985 1.5.074 0 .725 1.576-.21 3.502-2.076 2.473-2.397 3.188-3.703 2.433-4.446-.75-.738-1.423-.604-2.252.448-.65.825-1.858 1.5-2.683 1.5-.825 0-1.507.45-1.515 1-.027 1.713-1.58 3.56-2.512 2.984-1.125-.696-3.693 4.432-3.398 6.786.212 1.692.198 1.692-.312 0-.487-1.617-.603-1.598-1.346.23-.674 1.658-.802 1.486-.749-1 .072-3.345-3.656-11.137-4.599-9.612-.33.535-.144 1.256.415 1.602.559.345 1.016 1.121 1.016 1.724s-.89.291-1.976-.693c-1.087-.983-1.736-2.178-1.441-2.655.294-.476.058-.866-.524-.866-1.35 0-1.378 1.685-.043 2.51.56.346.715 1.117.346 1.714-.375.605-.21.8.37.442 1.166-.72 3.895 2.04 2.95 2.985-.331.331.055 1.873.858 3.426 1.08 2.087 1.507 7.076 1.639 19.123l.179 16.3.689-15.5c.378-8.525.755-15.725.836-16zm-2.951-4.5c-.054-.55-.211-2.013-.348-3.25-.302-2.721.033-2.835 1.311-.446.59 1.102.61 2.366.05 3.25-.503.795-.959.996-1.013.446zM54 68.607c0-.216.698-.661 1.552-.989.89-.341 1.291-.173.94.393-.586.95-2.492 1.406-2.492.596zm-7.258 23.685c-.192-3.736-.352-.942-.353 6.208-.002 7.15.156 10.206.35 6.792.195-3.415.196-9.265.004-13zm2-.503c-.196-3.459-.358-.889-.36 5.711-.002 6.6.158 9.43.356 6.29.198-3.142.2-8.542.003-12zM48.931 67c-.001-.825-.578-2.537-1.282-3.805l-1.279-2.305-1.239 2.72c-.962 2.112-.975 3.354-.057 5.57 1.094 2.642 1.28 2.722 2.521 1.086.737-.971 1.339-2.441 1.337-3.266zm-13.215-1.109c-.09-1.181-1.161-2.49-2.438-2.975C32.026 62.439 31 61.588 31 61.025 31 60.46 30.498 60 29.884 60c-.82 0 4.578 7.363 5.804 7.915.103.047.116-.864.029-2.024zm15.966-.079c-.32-.797-.556-.56-.604.605-.043 1.054.193 1.644.525 1.312.332-.332.368-1.195.08-1.916zM38.98 62.477c-.696-.838-1.525-1.264-1.844-.946-.318.318.084.997.893 1.51 2.117 1.338 2.394 1.174.95-.564zm4.434-2.78c-2.227-1.253-3.549.115-2.2 2.276 1.089 1.742 1.264 1.757 2.402.204.988-1.35.949-1.833-.202-2.48zm9.586 1.4c0-.363-1.126-.753-2.502-.867-2.239-.185-2.374-.004-1.29 1.731.898 1.439 1.542 1.662 2.5.867.711-.59 1.292-1.369 1.292-1.731zm2.493 1.915c.35-.566-.051-.734-.941-.393-1.732.665-2.05 1.382-.611 1.382.518 0 1.216-.445 1.552-.989zm8.102-2.261L65.5 58.5l-2.25 1.905c-1.268 1.074-2.25 1.401-2.25.75C61 60.52 60.495 60 59.878 60c-.776 0-.738.464.122 1.5 1.556 1.874 1.334 1.92 3.595-.75zM35 61.07c0-.512 1.012-1.126 2.25-1.364 2.155-.415 2.16-.44.122-.57-1.17-.075-2.687.539-3.372 1.364-.86 1.036-.898 1.5-.122 1.5.617 0 1.122-.419 1.122-.93zm28.235-3.57c1.428-1.944.815-3.65-1.094-3.045-2.304.731-5.334-.334-4.551-1.6.318-.515 1.44-.663 2.494-.328 1.054.334 1.916.142 1.916-.428s.787-.783 1.75-.473c1.155.371 1.342.266.55-.31-1.832-1.332-20.438.289-21.413 1.865-.553.896-3.037 1.301-7.745 1.264-5.304-.042-6.812.251-6.429 1.25.276.718 1.24 1.34 2.144 1.385.904.044 6.262.2 11.908.348 5.645.147 10.444.449 10.664.67.849.854 9.11.35 9.806-.598zm-34.87-5.826c.75-.546.626-.689-.365-.422-.825.223-1.583 1.494-1.685 2.826-.145 1.91-.068 1.999.366.422.303-1.1 1.06-2.372 1.685-2.826zm38.297 1.076c-.277-.688-.504-.125-.504 1.25s.227 1.938.504 1.25c.278-.688.278-1.813 0-2.5zm-33.297-1.473c-2.273-1.662-3.032-1.612-3.032.198 0 .944.861 1.404 2.39 1.277 2.192-.181 2.245-.302.642-1.475zM36.5 50c.34-.55-.335-1-1.5-1s-1.84.45-1.5 1c.34.55 1.015 1 1.5 1 .485 0 1.16-.45 1.5-1zm8.25-1.69c-.963-.25-2.538-.25-3.5 0-.963.252-.175.458 1.75.458s2.712-.206 1.75-.457zm131.779 74.335c-2.481-1.814-1.313-4.645 1.916-4.645 1.822 0 3.61-1.392 6.532-5.09l4.023-5.09-.011-11.66c-.017-17.733-.245-18.482-7.9-25.95-3.624-3.535-7.374-7.616-8.332-9.069-1.896-2.871-2.384-10.635-.733-11.656 1.623-1.003 10.078-1.458 9.492-.51-.29.47.037 1.117.728 1.438.69.321-.319.417-2.244.214-5.154-.544-8 .832-8 3.87 0 3.595 13.818 19.05 16.879 18.88 1.248-.07 2.023.364 1.787 1-.229.618-.956 1-1.615.848-.66-.15-.893.222-.518.829.375.606 1.053 2.305 1.506 3.774l.825 2.672-.128-3.029c-.07-1.665.224-3.598.654-4.294.827-1.338-2.121-6.779-3.128-5.772-.318.318-1.294.02-2.17-.664-1.402-1.093-1.431-1.036-.246.477.74.945 1.809 1.62 2.375 1.5.566-.12 1.223.308 1.46.952.626 1.695-2.254 1.026-4.559-1.06-1.108-1.002-1.804-2.664-1.587-3.79.25-1.3-.055-1.834-.87-1.522-1.657.636-1.933-3.259-.368-5.194.98-1.212.934-1.326-.246-.614-4.204 2.536-9.051-.156-9.051-5.027 0-1.88.557-2.083 5.504-2.002 3.038.05 5.39.526 5.25 1.064-.14.536-2.391.956-5.004.932-2.612-.023-4.75.26-4.75.628 0 1.918 3.454 3.06 8.701 2.876 3.19-.111 6.024-.123 6.299-.026.275.096 5.218.263 10.984.37 9.28.173 10.523-.006 10.823-1.555.253-1.301-.32-1.75-2.234-1.75-3.196 0-3.393-2.302-.323-3.77 1.818-.868 1.195-.992-3.25-.644-3.025.238-4.825.17-4-.15.825-.32 2.465-1.05 3.644-1.622 2.474-1.198 8.432.368 10.394 2.732 2.273 2.74-2.477 11.828-9.269 17.736-3.277 2.85-6.554 6.335-7.283 7.744-.788 1.524-1.604 8.218-2.013 16.518l-.689 13.956 4.654 5.153c2.56 2.834 5.758 5.43 7.108 5.77 1.588.398 2.454 1.325 2.454 2.627 0 2.254-1.968 3.361-4.692 2.64-1.58-.418-1.524-.57.442-1.2 2.346-.754 2.9-1.97 1.335-2.937-.503-.311-1.1-.005-1.329.679-.324.97-1.057.934-3.335-.167-1.607-.776-3.517-1.306-4.245-1.177-.728.128-1.966-.299-2.75-.95-1.164-.966-1.444-.747-1.526 1.19l-.1 2.372-.8-2.5c-.667-2.084-.82-2.167-.916-.5-.088 1.54-.316 1.683-.988.622-.48-.758-1.373-1.069-1.984-.691-.612.378-1.119.098-1.127-.622-.011-.951-.28-.899-.985.191-.828 1.282-.972 1.246-.985-.25-.011-1.308.806-1.754 3.235-1.765 1.788-.008 3.859-.401 4.602-.873 1.496-.948 6.168 1.003 8.165 3.409.675.813 1.657 1.479 2.182 1.479.525 0-.543-1.235-2.372-2.744-1.83-1.509-3.81-3.362-4.4-4.119-.891-1.14-1.43-1.152-3.17-.066-1.606 1.004-2.423 1.036-3.501.141-1.123-.931-2.088-.465-4.778 2.31-1.995 2.06-4.412 3.519-5.924 3.578l-2.554.1 2.5.747 2.5.748-2.5.516c-1.94.401-1.661.547 1.25.653 2.063.075 3.75.586 3.75 1.136 0 1.48-6.325 1.214-8.471-.355zm17.617-16.145c.295 2.2.575-2.83.621-11.177.047-8.348.507-15.998 1.024-17 .516-1.003.732-2.4.48-3.104-.252-.705-.079-1.169.385-1.03 1.17.346 9.785-7.72 12.912-12.089l2.576-3.6-3.134 3.5c-2.962 3.307-3.112 3.362-2.718 1 .229-1.375.224-1.938-.011-1.25-.235.688-.875 1.25-1.422 1.25-.575 0-.694.946-.282 2.242.632 1.993.529 2.09-.933.878-1.16-.964-1.644-1.018-1.644-.183 0 .65-.52.86-1.155.468-.67-.415-.884-.277-.51.327.353.573-.027 1.597-.846 2.277-.819.68-1.504.843-1.522.363-.019-.48-.877.139-1.908 1.374-1.12 1.344-1.675 3.152-1.38 4.5.369 1.681.244 1.9-.491.859-.729-1.032-1.295.095-2.174 4.329-.654 3.148-.924 5.989-.601 6.312.323.323.632-.5.687-1.83l.1-2.416.8 2.5c.44 1.375.767 4.975.726 8-.065 4.75-.128 4.92-.458 1.25-.21-2.337-.837-4.25-1.393-4.25-.574 0-.72.916-.335 2.125.423 1.333.168 2.445-.683 2.985-.998.632-1.027.863-.107.875.885.01 1.296 2.425 1.407 8.265.14 7.362.227 7.712.805 3.25l.648-5zM197 73.191V71.5c0-.275.178-.388.395-.25.217.138 1.23-.47 2.25-1.348 1.02-.879 2.53-1.926 3.355-2.326.825-.4.375.235-1 1.413-1.375 1.177-3.063 2.872-3.75 3.767-.723.941-1.25 1.125-1.25.435zm-6.338 33.559c-.277-.688-.504-.125-.504 1.25s.227 1.938.504 1.25c.278-.688.278-1.813 0-2.5zM196 67.568c0-.618-.743-2.184-1.651-3.48l-1.652-2.358-1.352 2.58c-1.06 2.026-1.1 3.132-.185 5.142 1.1 2.412 1.274 2.465 3.004.9 1.01-.914 1.836-2.167 1.836-2.784zM187.5 67c-.34-.55-1.154-.993-1.809-.985-.716.01-.592.403.309.985 1.921 1.242 2.267 1.242 1.5 0zm1.875-5.202c-1.01-1.633-2.169-.725-1.643 1.287.398 1.52.76 1.736 1.34.797.438-.707.574-1.645.303-2.084zm12.494 1.86c.612-.738.78-1.71.372-2.16-.407-.449.047-.534 1.009-.189.963.346 1.75.16 1.75-.414 0-.573-.699-.896-1.553-.718-.854.178-1.416.641-1.25 1.03.167.389-.597 1.387-1.697 2.218s-1.493 1.526-.872 1.543c.62.018 1.628-.572 2.24-1.31zm-16.738-1c-.612-.738-.896-1.642-.63-2.008.265-.367-.015-.252-.622.255-1.227 1.023-.355 3.095 1.302 3.095.727 0 .71-.426-.05-1.342zm11.453-.3c-.511-1.332-.36-1.417.804-.45.985.816 1.638.859 2.086.133.697-1.127-.922-1.926-3.628-1.79-1.35.067-1.445.419-.51 1.916 1.422 2.277 2.087 2.379 1.248.192zm17.1-8.545c-.32-.798-.557-.561-.605.604-.043 1.054.193 1.644.525 1.312.332-.332.368-1.195.08-1.917zM183 120c0-.55.477-1 1.059-1s.78.45.441 1c-.34.55-.816 1-1.059 1s-.441-.45-.441-1zm-5.493-57.989c-.35-.566.051-.734.941-.393 1.732.665 2.05 1.382.611 1.382-.518 0-1.216-.445-1.552-.989zm8.743-12.261c.144-.722-.532-1.116-1.6-.933-1.111.19-1.587-.11-1.191-.75.745-1.206 13.38-1.253 18.041-.067 2.75.7 2.625.774-1.5.897-3.302.098-4.1.392-3 1.103 1.057.683-.346.974-4.75.985-4.473.01-6.179-.34-6-1.235zm-68-13.412c-.688-.278-1.25-1.613-1.25-2.967 0-2.272.27-2.411 3.5-1.805 2.294.43 3.5.274 3.5-.455 0-.61-.563-1.159-1.25-1.217-.688-.059-2.15-.171-3.25-.25-1.714-.123-2-.859-2-5.144v-5h5.5c4.833 0 5.5.242 5.5 2 0 1.552-.783 2.078-3.5 2.35l-3.5.35 3.5 1.15c3.121 1.026 3.535 1.578 3.823 5.11.236 2.894-.152 4.308-1.441 5.25-1.739 1.271-6.693 1.612-9.132.628zm3.75-1.731c0-.216-.698-.661-1.552-.989-.89-.341-1.291-.173-.94.393.586.95 2.492 1.406 2.492.596zm3.96-6.155c-.663-.799-1.937-1.423-2.832-1.389-1.102.043-.9.356.622.968 1.344.54 2.297 1.823 2.366 3.187.09 1.768.221 1.877.583.484.256-.989-.076-2.451-.739-3.25zm-2.649-6.735c3.06-.38 3.047-.392-.311-.306-3.015.077-3.513.435-3.597 2.589-.079 2.058-.024 2.112.311.307.298-1.6 1.27-2.3 3.597-2.59zM233.5 137.083c0-69.804-.225-127.125-.5-127.38-.275-.256-50.675-.631-112-.834L9.5 8.5l-.254 120.42c-.14 66.232-.054 120.221.19 119.977.245-.244.658-54.209.92-119.92.261-65.713.513-119.477.56-119.477 68.476 0 218.946.681 219.834.995.991.35 1.25 26.651 1.25 126.974 0 69.592.338 126.531.75 126.53.412 0 .75-57.112.75-126.916zM244.272 161c0-2.475.195-3.487.434-2.25.238 1.238.238 3.263 0 4.5-.239 1.238-.434.225-.434-2.25zm-.193-6.583c.048-1.165.285-1.402.604-.604.289.721.253 1.584-.079 1.916-.332.332-.568-.258-.525-1.312zm.173-5.917c.011-2.2.216-2.982.455-1.738.24 1.244.23 3.044-.02 4s-.446-.062-.435-2.262zm-.057-7c.02-1.65.244-2.204.498-1.231.254.973.237 2.323-.037 3-.274.677-.481-.119-.461-1.769zm.278-72c0-37.95.125-53.33.277-34.177.152 19.153.152 50.203 0 69-.153 18.797-.277 3.127-.277-34.823z"/></svg>