<svg xmlns="http://www.w3.org/2000/svg" width="246" height="420" viewBox="0 0 246 420"><path d="M135.813 418.317c.721-.289 1.584-.253 1.916.079.332.332-.258.568-1.312.525-1.165-.048-1.402-.285-.604-.604zm10 0c.721-.289 1.584-.253 1.916.079.332.332-.258.568-1.312.525-1.165-.048-1.402-.285-.604-.604zm14 0c.721-.289 1.584-.253 1.916.079.332.332-.258.568-1.312.525-1.165-.048-1.402-.285-.604-.604zm4 0c.721-.289 1.584-.253 1.916.079.332.332-.258.568-1.312.525-1.165-.048-1.402-.285-.604-.604zm6.437-.006c.963-.252 2.538-.252 3.5 0 .963.251.175.457-1.75.457s-2.712-.206-1.75-.457zm22.436-.059c9.452-.164 25.202-.164 35 0 9.797.163 2.064.298-17.186.298s-27.267-.134-17.814-.298zm-125.371-9.01c-57.186-.24-61.217-.371-61.68-2-.864-3.046-1.622-85.188-2.241-242.864C2.942 49.36 3.08 10.718 3.949 9.095l1.157-2.162 113.497.256c62.424.14 114.004.568 114.622.95.814.503 1.211 22.127 1.435 78.028.17 42.533.61 132.052.976 198.93.568 103.704.46 121.73-.735 122.5-1.768 1.14-87.613 1.982-167.586 1.645zM27 406.353c-8.29-.736-19.004-.794-19.002-.103.001.412 5.064.674 11.252.582 6.188-.093 9.675-.308 7.75-.479zm54.314-.1c-8.903-.166-23.753-.167-33-.002-9.248.166-1.964.301 16.186.301s25.716-.134 16.814-.3zm37.436.019c-2.063-.216-5.438-.216-7.5 0-2.063.215-.375.392 3.75.392s5.813-.177 3.75-.392zm39.514.024c-1.23-.237-3.48-.244-5-.014-1.52.23-.514.424 2.236.432 2.75.007 3.994-.18 2.764-.418zm74.32-1.046c.219-.963.514-28.525.657-61.25.142-32.725-.028-55.225-.38-50-.35 5.225-.688 32.337-.75 60.25-.06 27.913-.223 50.848-.361 50.967-.137.12-16 .47-35.25.776l-35 .558 35.344.225c32.948.209 35.37.105 35.74-1.526zm-8.049-1.873l5.035-.605.02-49.636c.012-27.3.103-52.111.203-55.136.1-3.025-.15-68.46-.555-145.41L228.5 12.678l-109.454.197c-60.2.11-109.7.444-110 .745-1.332 1.334-.08 387.054 1.263 389.129.639.987 22.738 1.248 105 1.241 57.305-.005 106.457-.28 109.226-.614zM173 288.844c-3.962-3.312-21.246-15.298-24-16.644-1.375-.671-3.85-2.106-5.5-3.187-5.882-3.855-11.412-6.176-13.294-5.578-1.046.332-2.411 1.72-3.033 3.084-.892 1.958-1.873 2.481-4.652 2.481-4.203 0-4.546-1.605-1.422-6.66 1.726-2.793 1.874-3.668.832-4.923-3.422-4.124-4.39-3.84-17.582 5.167-6.966 4.755-13.943 9.013-15.503 9.46-3.127.897-5.19 2.234-18.153 11.766-11.71 8.611-12.334 7.956-7.184-7.557 2.146-6.464 4.217-14.228 4.603-17.253.696-5.46 1.054-7.116 2.162-10 .317-.825.86-3.614 1.205-6.197.524-3.92.288-5.036-1.426-6.75-1.129-1.129-2.937-2.053-4.018-2.053-2.27 0-4.46-3.448-3.606-5.676.475-1.237 1.693-1.39 6.565-.825 5.861.68 6.003.64 7.022-2.042 1.31-3.443.596-4.273-11.645-13.555-5.075-3.848-11.562-9.222-14.414-11.943-2.853-2.72-9.86-8.376-15.572-12.567-5.712-4.19-10.385-8.195-10.385-8.899 0-2.11 2.525-2.491 16.832-2.537 7.517-.024 18.307-.427 23.976-.897 12.012-.995 13.93-2.117 14.39-8.417.269-3.687.604-4.177 3.052-4.458 2.642-.304 2.75-.139 2.75 4.214 0 5.07 1.997 6.974 6.727 6.414 2.44-.29 3.031-1.466 8.209-16.312 3.07-8.8 6.337-17.125 7.263-18.5 1.602-2.38 7.927-20.744 9.305-27.016.357-1.629 1.085-3.23 1.617-3.559 1.356-.838 3.565 1.216 4.147 3.856 1.368 6.21 8.006 25.364 9.275 26.767.801.885 1.457 2.32 1.457 3.188 0 2.332 5.457 14.078 7.481 16.103 1.378 1.378 2.682 1.61 6.143 1.09 8.16-1.223 10.621 4.402 2.876 6.571-4.75 1.33-5.603 3.07-3.465 7.066.954 1.782 2.231 1.934 16.257 1.934 8.372 0 16.793.482 18.715 1.07 1.921.59 10.017 1.305 17.99 1.592 13.602.488 16.812 1.22 15.394 3.515-.263.425-4.55 3.562-9.528 6.971-4.977 3.41-11.916 8.933-15.419 12.275-3.502 3.342-7.986 7.427-9.962 9.077-5.107 4.263-6.11 7.202-3.432 10.053 2.413 2.569 2.293 6.214-.256 7.812-1.398.876-2.31.37-5.045-2.793-2.862-3.31-3.618-3.703-5.294-2.75-4.666 2.652-4.632 2.572-3.125 7.264.78 2.428 2.42 7.789 3.643 11.914 1.223 4.125 2.63 8.805 3.125 10.4.496 1.594.905 4.519.909 6.5.004 1.98 2.029 9.595 4.5 16.923 2.471 7.328 4.493 14.19 4.493 15.25 0 2.547-2.807 2.44-6-.23zm2.513-4.466c-.832-1.992-1.513-3.824-1.513-4.072 0-.247-.723.274-1.606 1.157-1.24 1.24-1.924 1.342-3 .45-.767-.637-1.394-.917-1.394-.622 0 .51 8.048 6.709 8.71 6.709.174 0-.364-1.63-1.197-3.622zM70 280.898l2.5-2.017-2.781 1.695c-3.572 2.177-4.331 1.325-2.919-3.276.624-2.034.955-3.878.736-4.098-.22-.22-1.07 1.86-1.89 4.62-.82 2.762-2.038 6.041-2.705 7.288l-1.214 2.268 2.887-2.232A406.821 406.821 0 0 0 70 280.898zm96.641-.67c-.262-.424-2.651-2.295-5.309-4.158-5.563-3.9-4.765-2.635 1.168 1.85 4.196 3.172 4.927 3.58 4.141 2.309zm1.252-8.37c-1.534-4.477-3.873-9.315-5.197-10.75-1.325-1.434-3.18-5.083-4.123-8.108-.943-3.025-3.109-9.21-4.813-13.743l-3.099-8.243-2.748 1.743C138.698 238.603 132 243.394 132 244.139c0 1.594 1.624.879 3.869-1.703 1.226-1.41 2.994-2.419 3.93-2.241 1.99.377 2.908 5.498 1.28 7.127-2.124 2.123-1.096 5.638 2.671 9.132 5.7 5.286 8.481 7.546 9.286 7.546.402 0 .95.84 1.219 1.867.268 1.027 4.033 4.59 8.367 7.917 4.333 3.327 7.92 6.087 7.97 6.133.05.046-1.164-3.58-2.699-8.058zm-84.59-5.462c.658-1.255 6.483-6.39 12.944-11.412l11.748-9.13-5.128-4.177c-2.82-2.297-6.082-4.825-7.247-5.616-1.166-.792-3.133-2.333-4.37-3.425-2.015-1.778-2.25-1.806-2.25-.275 0 1.074 1.673 2.427 4.5 3.639 2.475 1.06 4.5 2.53 4.5 3.264 0 3.335-5.023 4.865-8.993 2.74-2.828-1.514-4.283-.391-6.87 5.298-1.3 2.86-2.762 5.98-3.25 6.934-.488.955-.888 2.305-.888 3 0 .695-1.126 2.571-2.5 4.17-1.375 1.598-2.499 3.519-2.499 4.27 0 .75-1.076 4.012-2.391 7.25l-2.392 5.885 6.944-5.067c3.82-2.786 7.483-6.093 8.142-7.348zm-8.175 10.854c1.243-1.586 1.208-1.621-.378-.378-.963.755-1.75 1.543-1.75 1.75 0 .823.821.294 2.128-1.372zm95.833-6.386c-1.18-4.111-2.332-5.23-1.404-1.362.764 3.185 1.328 4.498 1.932 4.498.204 0-.033-1.411-.528-3.136zM156 272.622c0-.207-.787-.995-1.75-1.75-1.586-1.243-1.621-1.208-.378.378 1.307 1.666 2.128 2.195 2.128 1.372zm-71.193-3.148c-.308-.308-.867.247-1.243 1.233-.542 1.425-.428 1.54.56.56.684-.679.99-1.486.683-1.793zM150.5 267c.733 0 1.562.461 1.842 1.025.28.564.394.451.255-.25-.14-.701-1.23-1.419-2.425-1.595-1.195-.175-2.172-.963-2.172-1.75 0-.786-.376-1.43-.835-1.43-1.67 0-10.165-9.248-10.165-11.067 0-1.252-.496-1.68-1.5-1.295-1.685.647-2.138-2.125-.511-3.13.566-.351.734.05.393.94-.838 2.182.189 1.929 2.579-.637 1.121-1.203 2.039-3.092 2.039-4.196 0-1.77-.39-1.629-3.298 1.189-3.883 3.764-5.068 3.939-7.094 1.047-1.438-2.053-1.618-2.074-4.056-.477-1.404.92-2.552 1.942-2.552 2.271 0 .33.727-.004 1.615-.74 1.404-1.166 1.56-1.083 1.191.627-.234 1.082-.98 1.85-1.658 1.704-.922-.198-.969.23-.186 1.693 1.637 3.06 1.553 9.833-.146 11.812-2.57 2.992-2.927 4.098-1.24 3.85 1.997-.292 3.389-2.449 3.409-5.282.018-2.656 1.778-3.946 3.302-2.422.817.817.608 1.113-.787 1.113-1.44 0-1.62.28-.742 1.158.876.876 1.539.84 2.73-.148 1.319-1.095 2.444-.878 6.985 1.345 2.977 1.458 5.69 3.1 6.029 3.648.339.548 1.49.997 2.557.997 1.068 0 1.977.562 2.02 1.25.063 1 .18 1 .583 0 .278-.688 1.105-1.25 1.838-1.25zm-24.11-12.417c.374-1.493.13-2.616-.642-2.937-.904-.377-.762-.915.52-1.956 1.134-.922 1.52-2.077 1.08-3.227-.472-1.23-.321-1.564.482-1.068.644.398 1.17 1.371 1.17 2.164 0 .793.675 1.441 1.5 1.441 2.107 0 1.865 2.266-.573 5.365-2.606 3.313-4.34 3.42-3.537.218zm2.738-1.333c1.243-1.586 1.208-1.621-.378-.378-.963.755-1.75 1.543-1.75 1.75 0 .823.821.294 2.128-1.372zm-58.282 11.345c.517-1.873.587-4.91.155-6.75-.75-3.196-.782-3.144-.715 1.155.039 2.475-.265 5.513-.675 6.75-.41 1.238-.512 2.25-.225 2.25.286 0 .943-1.532 1.46-3.405zm25.654-2.083c3.869-2.868 8.083-4.301 6.965-2.37-.463.8-.411 1.015.125.525.5-.459.91-1.321.91-1.917 0-.596.625-1.292 1.39-1.546.95-.317 1.136-.027.589.916-.472.815-.427 1.039.11.547.501-.459.918-1.134.926-1.5.03-1.286 1.613-3.167 2.666-3.167.629 0 .502.685-.309 1.675-1.194 1.457-1.015 1.442 1.378-.115 3.103-2.02 3.564-2.81 1.086-1.859-1.111.427-1.426.254-.948-.52.457-.74.191-.957-.735-.601-1.714.657-3.153-1.153-1.653-2.08.568-.351.793-1.026.5-1.5-.293-.474-.075-1.144.484-1.49.559-.345 1.002-1.164.986-1.819-.03-1.123-2.244 1.947-2.569 3.559-.083.412-.264.975-.401 1.25-.138.275-.306 1.025-.375 1.667-.069.641-.668 1.347-1.33 1.568-.768.256-1.055-.383-.791-1.755.344-1.788.167-1.952-1.033-.956-.797.662-1.222 1.57-.944 2.02.278.45.026 1.114-.56 1.476-.727.45-.653 1.155.234 2.23 1.163 1.407 1.068 1.428-.9.202-1.643-1.023-1.928-1.696-1.128-2.66.59-.711.847-1.292.572-1.292s-1.02.627-1.657 1.394c-.898 1.082-.757 1.798.627 3.194 1.48 1.492 1.51 1.696.177 1.192-1.018-.385-3.674 1.014-7.25 3.82-8.753 6.871-6.433 6.799 2.858-.088zm7.002-6.51c-.603-.975.117-1.397 1.853-1.085.47.084 1.57-.425 2.442-1.132 1.198-.97 1.404-.98.84-.04-1.2 1.996-4.421 3.413-5.135 2.258zM87.5 265c.995-1.1 1.585-2 1.31-2-.275 0-1.315.9-2.31 2-.995 1.1-1.585 2-1.31 2 .275 0 1.315-.9 2.31-2zm13.628-2.75c1.243-1.586 1.208-1.621-.378-.378-.963.755-1.75 1.543-1.75 1.75 0 .823.821.294 2.128-1.372zM92.5 261c.995-1.1 1.585-2 1.31-2-.275 0-1.315.9-2.31 2-.995 1.1-1.585 2-1.31 2 .275 0 1.315-.9 2.31-2zm75.485-.75c-.011-2.001-.258-2.366-.908-1.34-.49.774-.66 2.012-.377 2.75.811 2.114 1.301 1.576 1.285-1.41zm-4.189-2.205c-.671-1.075-1.414-1.76-1.65-1.524-.43.429 1.75 3.479 2.485 3.479.212 0-.163-.88-.835-1.955zM75.5 256.16c0-.913 2.025-5.807 4.5-10.876 3.089-6.326 5.049-9.226 6.25-9.25.963-.019 1.75.443 1.75 1.025 0 .582-.45.78-1 .441-.55-.34-1 .11-1 1s.47 1.328 1.044.973c.574-.355 1.586-.213 2.25.316 1.49 1.187 5.139.96 5.393-.335.103-.525-.77-.832-1.938-.682-1.17.149-1.818-.036-1.443-.411s-.328-1.192-1.562-1.815c-1.607-.81-2.243-2.019-2.24-4.258.004-2.129-.34-2.84-1.076-2.228-.595.494-3.386.734-6.202.533-5.615-.401-6.765.052-5.131 2.021 1.217 1.467.274 3.732-1.18 2.833-.521-.322-.646-1.074-.277-1.67.431-.698.198-.793-.653-.267-.933.576-1.155.374-.75-.68.4-1.044-.479-1.878-2.905-2.755-1.914-.692-3.716-1.022-4.005-.733-.926.925.734 2.658 2.547 2.658.965 0 3.027 1.33 4.584 2.954 2.675 2.792 2.77 3.188 1.724 7.25-2.264 8.8-2.444 12.48-.642 13.172 1.083.416 1.439 1.242 1.013 2.352-.361.941-.295 1.347.146.901.442-.445.803-1.557.803-2.47zm3.054-23.08c-1.856-.71-1.845-.77.25-1.318 2.393-.626 6.196.071 6.196 1.137 0 .947-4.14 1.064-6.446.182zm18.574 24.17c1.243-1.586 1.208-1.621-.378-.378-.963.755-1.75 1.543-1.75 1.75 0 .823.821.294 2.128-1.372zm66.727-7.764c-1.104-3.842-2.76-9.644-3.681-12.893-1.07-3.775-2.25-5.991-3.269-6.139-1.427-.207-1.45.203-.223 3.907.755 2.277 1.779 5.039 2.275 6.139.497 1.1 1.456 3.8 2.131 6 1.671 5.446 3.948 10.797 4.402 10.344.204-.205-.531-3.516-1.635-7.358zM124 255.622c0-.207-.787-.995-1.75-1.75-1.586-1.243-1.621-1.208-.378.378 1.307 1.666 2.128 2.195 2.128 1.372zm-4.429-4.608c0-1.174-.367-1.618-.898-1.087-.494.494-.596 1.388-.227 1.986.94 1.521 1.125 1.374 1.125-.899zm2.429-5.762c0-.359-.54-.112-1.2.548-1.735 1.735-3.276 1.478-1.8-.3.685-.825.895-1.5.467-1.5-.427 0 .08-1.013 1.128-2.25l1.905-2.25-2.21 1.87c-1.216 1.027-2.175 2.152-2.132 2.5.043.346-.03.967-.165 1.38-.133.412-.3 1.275-.368 1.917-.069.641-.75 1.375-1.514 1.63-.95.316-1.137.026-.59-.917.472-.815.427-1.039-.11-.547-.501.459-.918 1.134-.926 1.5-.008.367-.416 1.299-.905 2.071-.489.773 1.206-.037 3.766-1.798 2.56-1.761 4.654-3.495 4.654-3.854zm-9.425 3.99c-.307-.307-.02-1.274.635-2.15.996-1.329.963-1.387-.198-.352-1.596 1.422-2.335 4.577-.858 3.665.539-.333.728-.856.421-1.163zm52.854-4.67c-.368-1.466-.862-2.472-1.098-2.237-.235.236-.127 1.628.24 3.094.368 1.465.862 2.471 1.098 2.236.235-.236.127-1.628-.24-3.094zm-49.655-1.997c-.15-.078-1.174-.801-2.274-1.608-1.838-1.348-1.891-1.328-.664.24.745.95.992 2.278.558 3-.564.938-.307.91.938-.1.944-.765 1.593-1.455 1.442-1.532zm-3.774.04c0-.212-1.238-1.138-2.75-2.06l-2.75-1.674 2.36 2.06c2.305 2.01 3.14 2.455 3.14 1.674zm16.128-1.365c1.243-1.586 1.208-1.621-.378-.378-.963.755-1.75 1.543-1.75 1.75 0 .823.821.294 2.128-1.372zm-9.238-.617c.87-1.05.725-1.69-.628-2.75-1.557-1.222-1.62-1.2-.536.19.94 1.207.952 1.85.05 2.75-.647.648-.916 1.177-.598 1.177.317 0 1.088-.615 1.712-1.367zm7.238-.383c1.243-1.586 1.208-1.621-.378-.378-1.666 1.307-2.195 2.128-1.372 2.128.207 0 .995-.787 1.75-1.75zM137 237.364c0-.275-1.35.461-3 1.636-1.65 1.175-3 2.361-3 2.636 0 .275 1.35-.461 3-1.636 1.65-1.175 3-2.361 3-2.636zm-32 3.258c0-.207-.787-.995-1.75-1.75-1.586-1.243-1.621-1.208-.378.378 1.307 1.666 2.128 2.195 2.128 1.372zm6-1c0-.207-.787-.995-1.75-1.75-1.586-1.243-1.621-1.208-.378.378 1.307 1.666 2.128 2.195 2.128 1.372zm4.5-.804c-1.1-.616-5.487-3.558-9.75-6.538-4.263-2.98-7.75-5.184-7.75-4.9 0 .841 17.24 12.623 18.421 12.59.594-.017.179-.535-.921-1.152zm20.5-3.454c0-.275-1.35.461-3 1.636-1.65 1.175-3 2.361-3 2.636 0 .275 1.35-.461 3-1.636 1.65-1.175 3-2.361 3-2.636zm-30 3.258c0-.207-.787-.995-1.75-1.75-1.586-1.243-1.621-1.208-.378.378 1.307 1.666 2.128 2.195 2.128 1.372zm24.128-1.372c1.243-1.586 1.208-1.621-.378-.378-.963.755-1.75 1.543-1.75 1.75 0 .823.821.294 2.128-1.372zM99.5 236c-1.918-2.12-.742-2.842 1.3-.8.66.66 1.2.916 1.2.568 0-.347-1.462-1.657-3.25-2.91-2.155-1.512-2.788-1.703-1.878-.569.755.941 1.023 1.711.595 1.711-.427 0 .038.9 1.033 2 .995 1.1 2.035 2 2.31 2 .275 0-.315-.9-1.31-2zm29 0c.995-1.1 1.585-2 1.31-2-.275 0-1.315.9-2.31 2-.995 1.1-1.585 2-1.31 2 .275 0 1.315-.9 2.31-2zm-21.5.622c0-.207-.787-.995-1.75-1.75-1.586-1.243-1.621-1.208-.378.378 1.307 1.666 2.128 2.195 2.128 1.372zm24.655-9.262c6.233-4.752 11.842-9.254 12.466-10.006.872-1.05-.08-4.712-4.123-15.86L134.74 187h-15.748c-17.314 0-17.007-.106-18.764 6.5-.585 2.2-2.272 8.275-3.748 13.5-1.476 5.225-2.75 10.06-2.832 10.744-.138 1.15 23.71 17.966 25.763 18.167.501.049 6.01-3.799 12.243-8.55zm-3.527 5.89c1.243-1.586 1.208-1.621-.378-.378-.963.755-1.75 1.543-1.75 1.75 0 .823.821.294 2.128-1.372zm-32.997-.592c-.612-.738-.882-1.574-.598-1.858.283-.283-.283-1.142-1.259-1.907-1.613-1.267-1.65-1.234-.402.357.755.963 1.038 1.75.628 1.75-.41 0-.185.675.5 1.5s1.47 1.5 1.745 1.5c.275 0-.001-.604-.614-1.342zm37.997-.408c1.243-1.586 1.208-1.621-.378-.378-.963.755-1.75 1.543-1.75 1.75 0 .823.821.294 2.128-1.372zm7.872-2.886c0-.275-1.35.461-3 1.636-1.65 1.175-3 2.361-3 2.636 0 .275 1.35-.461 3-1.636 1.65-1.175 3-2.361 3-2.636zm-41.359 1.865c-.262-.425-2.651-2.296-5.309-4.16-5.563-3.9-4.765-2.634 1.168 1.851 4.196 3.172 4.927 3.58 4.141 2.309zM132.5 230c.995-1.1 1.585-2 1.31-2-.275 0-1.315.9-2.31 2-.995 1.1-1.585 2-1.31 2 .275 0 1.315-.9 2.31-2zm14.5-8.144c0-.47-2.7 1.243-6 3.806-3.3 2.562-6 4.84-6 5.062 0 .222 2.7-1.49 6-3.805 3.3-2.315 6-4.593 6-5.063zm-66.36 5.588c1.303-1.406 2.93-2.275 3.614-1.932.685.344-.329-.77-2.254-2.475s-3.556-3.536-3.625-4.069c-.069-.532-.237-1.193-.375-1.468-.138-.275-.316-1.063-.397-1.75-.082-.688-.932-1.116-1.891-.953-1.006.172-1.631-.251-1.478-1 .146-.713-.409-1.152-1.234-.976-1.175.252-1.239.056-.292-.907.954-.972 1.57-.934 2.942.178 1.51 1.226 1.614 1.214.807-.092-.51-.825-.933-1.8-.942-2.167-.008-.366-.425-1.041-.925-1.5-.538-.492-.583-.268-.111.547.547.943.36 1.233-.59.916-.764-.254-1.389-.95-1.389-1.546 0-.596-.304-1.387-.675-1.758-.889-.889-.489 1.656.512 3.258 1.136 1.818-.465 1.491-3.275-.669-1.341-1.03-3.046-1.64-3.788-1.356-.741.285-2.232-.282-3.311-1.259-1.08-.977-1.963-1.495-1.963-1.153 0 .343 2.505 2.475 5.567 4.737 3.062 2.262 7.642 6.1 10.179 8.531 2.536 2.43 4.981 4.419 5.433 4.419.452 0 .821.424.821.943 0 .518-.925.764-2.055.546-1.494-.287-1.978.07-1.775 1.308.154.937-.073 2.266-.504 2.953-1.365 2.175.51 1.352 2.974-1.306zm-4.566-9.855c-.902-1.087-.873-1.583.127-2.16.715-.412.965-.381.558.069-.408.45-.24 1.422.372 2.16.613.738.889 1.342.614 1.342s-1.027-.635-1.671-1.41zm8.61 10.224c-.32-.798-.557-.561-.605.604-.043 1.054.193 1.644.525 1.312.332-.332.368-1.195.08-1.917zm63.444-.563c1.243-1.586 1.208-1.621-.378-.378-.963.755-1.75 1.543-1.75 1.75 0 .823.821.294 2.128-1.372zm8.673-5.138c-.748-2.945-1.346-3.858-1.928-2.942-1.215 1.918-1.062 3.065.297 2.225.797-.493.957-.168.5 1.02-.94 2.452.334 7.329 1.412 5.402.442-.788.315-3.356-.281-5.705zM91 227.655c0-.19-1.012-1.202-2.25-2.25L86.5 223.5l1.905 2.25c1.79 2.114 2.595 2.705 2.595 1.905zm59.369-2.953c.347.347.631.106.631-.535 0-1.6-1.249-1.463-3.559.388-1.887 1.512-1.882 1.527.178.535 1.165-.56 2.402-.735 2.75-.388zm-65.045-1.952c-.436-.688-.8-1.547-.809-1.91-.008-.362-1.365-1.7-3.015-2.973-1.65-1.272-2.476-1.65-1.835-.84.64.81 1.302 1.923 1.47 2.473.168.55.994.845 1.835.655.842-.19 1.196-.006.789.408-.408.414-.24 1.357.372 2.095 1.404 1.692 2.25 1.757 1.193.092zm74.038-.25c.316-.825.14-1.5-.393-1.5s-.969.675-.969 1.5.177 1.5.393 1.5c.216 0 .652-.675.969-1.5zm14.607-2.82c-1.358-1.256-3.285-2.594-4.282-2.974-1.803-.688-1.48-2.706.431-2.706.55 0 .722.45.382 1-.34.55-.141 1 .441 1s1.059-1.026 1.059-2.28c0-1.571 2.18-4.2 7-8.442 3.85-3.388 6.55-6.438 6-6.778-1.664-1.029-1.13-2.512 1.25-3.469 1.634-.657 1.786-.922.557-.968-.932-.035-2.282.776-3 1.802-.719 1.026-3.655 2.875-6.526 4.11-2.87 1.234-5.737 2.87-6.372 3.635-1.714 2.065-5.213 1.686-7.951-.86-1.33-1.238-2.799-2.126-3.263-1.975-.464.15-.578-.156-.253-.681.828-1.34-1.409-2.527-2.572-1.364-.607.607-.392 1.421.588 2.235.848.704 1.542 1.86 1.542 2.57 0 .781.984 1.18 2.5 1.014 1.605-.176 2.5.226 2.5 1.124 0 1.087-.443 1.16-2 .327-2.013-1.077-2.451-.16-2.269 4.75.026.687-.605 1.25-1.401 1.25s-1.156.472-.8 1.049c.449.726 1.033.729 1.901.009.69-.572 1.562-.731 1.94-.353 1.068 1.068 3.709 1.233 3.065.191-.316-.51-.946-.699-1.4-.418-.455.281-1.079-.147-1.388-.951-.89-2.323.916-2.666 2.84-.54 1.845 2.039 1.349 5.648-.61 4.438-.7-.432-.945-.168-.638.686.274.764-.23 2.267-1.12 3.34-1.453 1.748-1.335 1.733 1.142-.154 3.407-2.595 6.086-2.021 8.88 1.902 1.526 2.143 2.405 2.654 3.2 1.86.795-.796.418-1.724-1.373-3.38zM91 222.621c0-.207-.787-.995-1.75-1.75-1.586-1.243-1.621-1.208-.378.378 1.307 1.666 2.128 2.195 2.128 1.372zm57.886-1.932c.58.995 1.06 1.36 1.068.81.008-.55-.39-1.64-.884-2.42-.766-1.21-1.284-1.17-3.485.272-1.422.932-2.585 1.92-2.585 2.194 0 .275 1.087-.212 2.417-1.083 2.236-1.466 2.495-1.449 3.47.227zm-57.524-1.19c-.317-.825-1.033-1.5-1.591-1.5-.586 0-.489.635.229 1.5.685.825 1.4 1.5 1.591 1.5.19 0 .087-.675-.23-1.5zm-4.362.068c0-.237-1.462-1.4-3.25-2.583l-3.25-2.15 3 2.577c3.077 2.644 3.5 2.905 3.5 2.156zm63.385-4.953c-.886-2.598-1.783-4.55-1.995-4.339-.211.212.34 2.51 1.225 5.109.886 2.598 1.783 4.55 1.995 4.339.211-.212-.34-2.51-1.225-5.109zm6.868.238c-.555-.555-.701.378-.372 2.366.46 2.777.601 2.917.916.916.205-1.301-.04-2.778-.544-3.282zm-2.284.647c0-.55-.436-.325-.969.5-.533.825-.97 1.95-.97 2.5s.437.325.97-.5c.533-.825.97-1.95.97-2.5zm-67.624.957c-.326-.849-.807-1.329-1.069-1.067-.262.262-.18.957.183 1.543.986 1.596 1.562 1.286.886-.476zM85 215.622c0-.207-.787-.995-1.75-1.75-1.586-1.243-1.621-1.208-.378.378 1.307 1.666 2.128 2.195 2.128 1.372zm68.367-5.298c-.623-2.48-.767-2.558-1.459-.788-1.13 2.892-1.032 4.182.188 2.464.813-1.145.925-.79.471 1.5-.466 2.354-.37 2.631.448 1.288.573-.942.731-2.95.352-4.464zm-73.814 3.761c-.311-.503-.108-1.067.45-1.253.56-.186.065-.933-1.098-1.66-1.753-1.094-1.971-1.094-1.275.004.462.728.903 1.661.98 2.074.287 1.536.403 1.75.949 1.75.307 0 .305-.412-.006-.915zm11.826-4.585c.415-1.92.332-2.46-.23-1.5-.484.825-1.171 2.85-1.528 4.5-.415 1.92-.332 2.46.23 1.5.484-.825 1.171-2.85 1.528-4.5zm1.304 2.313c-.32-.798-.556-.561-.604.604-.043 1.054.193 1.644.525 1.312.332-.332.368-1.195.08-1.917zm-2.769-5.313c.03-.55-.38-.325-.914.5-.533.825-.945 2.175-.914 3 .058 1.584 1.724-1.606 1.828-3.5zm-4.506-8.062c1.862-5.466 3.17-10.162 2.907-10.436-.946-.986-3.315 3.439-3.315 6.19 0 2.037-.494 2.808-1.8 2.808-2.677 0-4.2-2.011-4.2-5.545 0-5.166-2.513-6.527-12.842-6.952-4.975-.205-10.084-.94-11.352-1.635-2.205-1.206-17.84-1.996-17.774-.897.067 1.123 13.617 9.767 16.355 10.433 1.587.387 4.287 1.767 6 3.068 8.397 6.381 21.167 14.374 21.858 13.683.428-.428 2.301-5.25 4.163-10.717zm-15.8 8.09c-.12-.808-.496-1.75-.837-2.09-.481-.481-.387 1.548.152 3.312.296.965.858-.038.684-1.221zm77.024-2.662c-.808-1.851-1.506-2.833-1.55-2.181-.122 1.77 1.894 6.672 2.496 6.07.288-.287-.138-2.037-.946-3.889zm9.336-1.487c-1.404-2.506-1.932-2.994-1.49-1.379.376 1.375.93 3.544 1.233 4.82.343 1.45.902 1.967 1.49 1.379.588-.588.126-2.396-1.233-4.82zm-91.051 2.356c-.23-.147-2.555-1.75-5.167-3.563-2.612-1.813-4.75-3.064-4.75-2.78 0 .912 9.295 7.647 9.823 7.118.28-.28.323-.63.094-.776zm83.078-4.447c-1.09-1.7-1.118-1.697-.57.044.316 1.007.61 2.357.654 3 .057.843.216.83.57-.044.271-.667-.023-2.017-.654-3zm4.688 1.524c-.32-.797-.556-.56-.604.605-.043 1.054.193 1.644.525 1.312.332-.332.368-1.195.08-1.917zm21.624-3.64c2.094-1.195 4.232-2.172 4.75-2.172.519 0 1.843-.9 2.943-2s2.917-2 4.037-2 5.241-2.25 9.157-5l7.12-5h-8.457c-5.436 0-8.901.447-9.7 1.25-.799.803-7.034 1.607-17.45 2.25-13.598.839-16.144 1.241-15.816 2.5.215.825.84 3.35 1.387 5.612.964 3.98 1.084 4.078 3.778 3.06 2.504-.944 3.202-.672 6.95 2.715 3.679 3.323 4.364 3.6 5.831 2.36.915-.771 3.376-2.38 5.47-3.575zM94.86 197c0-.945-.317-.76-.859.5-.473 1.1-.86 2.675-.86 3.5 0 .945.318.76.86-.5.473-1.1.86-2.675.86-3.5zm-43.08.761c-2.561-3.64-3.417-4.409-9.779-8.79-3.534-2.435-3.749-2.505-1-.33 1.925 1.524 5.525 4.925 8 7.558 2.475 2.633 4.626 4.79 4.78 4.794.154.004-.746-1.45-2-3.232zm44.904.052c-.32-.798-.556-.561-.604.604-.043 1.054.193 1.644.525 1.312.332-.332.368-1.195.08-1.916zm92.124-1.34c-.308-.307-.867.248-1.243 1.234-.542 1.425-.428 1.54.56.56.684-.679.99-1.486.683-1.793zM93.914 193.5c.03-.55-.38-.325-.914.5-.533.825-.945 2.175-.914 3 .058 1.584 1.724-1.606 1.828-3.5zm-38.355 1.968c-1.068-.807-2.643-1.448-3.5-1.423-.858.025-.209.663 1.441 1.419 3.923 1.796 4.43 1.797 2.059.004zm86.98-4.006c-2.276-5.957-3.016-5.217-.924.923.886 2.598 1.85 4.484 2.142 4.191.292-.292-.256-2.594-1.219-5.114zm-57.711-4.127c.92-.7 2.572-1.293 3.672-1.319 1.531-.036 1.677-.251.622-.92-.758-.48-1.069-1.373-.691-1.984.378-.612.263-1.112-.255-1.112-.519 0-1.178.9-1.466 2-.287 1.1-1.3 2-2.25 2-1.525 0-1.67-.856-1.234-7.25.272-3.987.295-6.688.05-6-.243.688-1.029 1.25-1.745 1.25-.716 0-2.591.672-4.167 1.494-1.575.821-5.339 1.503-8.364 1.513-7.017.026-10.002.824-9.357 2.504.277.723-.317 1.526-1.32 1.786-1.127.291-.678.523 1.177.609 1.65.075 6.375.297 10.5.493 4.8.228 7.797-.05 8.326-.772.54-.736.676-.607.393.373-.239.825.404 2.697 1.427 4.16 1.024 1.462 1.586 3.374 1.25 4.25-.335.874-.246 2.377.198 3.34.627 1.357.893.977 1.185-1.697.207-1.896 1.13-4.019 2.049-4.718zm108.74 4.556c.373-.604-.502-.325-1.945.62-1.443.946-2.623 1.908-2.623 2.14 0 .723 3.854-1.606 4.567-2.76zm-49.573-3.603c-1.09-1.7-1.118-1.697-.57.044.316 1.007.61 2.357.654 3 .057.843.216.83.57-.044.271-.667-.023-2.017-.654-3zm64.69-6.839l3.186-2.172-14.094-.193c-10.422-.143-14.632-.57-16.158-1.638-1.485-1.04-4.598-1.396-11.092-1.268l-9.027.178 9.705.572c10.52.62 13.066 1.755 10.72 4.78-1.33 1.714-1.3 1.716.671.042 1.669-1.417 3.998-1.75 12.233-1.75 12.1 0 12.911 1.035 5.171 6.595-2.75 1.976-5 3.818-5 4.093 0 .275 2.362-1.203 5.25-3.283s6.684-4.76 8.436-5.956zm-113.563 3.876c-1.179-2.027-1.463-1.378-.498 1.136.342.894.834 1.415 1.091 1.157.258-.257-.01-1.29-.593-2.293zm53.24.175c.43-1.12-.112-1.47-2.143-1.384-1.693.072-2.059.289-.969.573.963.252 1.75.875 1.75 1.384 0 1.41.717 1.108 1.362-.573zm-113.22-1.53c-1.486-1.239-2.128-2.565-1.735-3.587.496-1.294.114-1.525-1.893-1.141-1.383.264-2.514.093-2.514-.38 0-.474-.488-.862-1.083-.862-.596 0-.896.563-.667 1.25.23.688 1.015 1.25 1.745 1.25.73 0 2.653 1.238 4.273 2.75 1.619 1.512 3.233 2.735 3.588 2.717.354-.019-.417-.918-1.714-1.998zm72.127 1.374c-.677-.274-2.027-.29-3-.037-.973.253-.419.478 1.231.498 1.65.02 2.446-.187 1.769-.461zm-12.814-8.222c-.25-.25-.455.028-.455.618s-.838.854-1.862.586c-2.296-.6-3.802 2.482-1.621 3.319.816.313 1.503 1.308 1.527 2.212.024.904.679-.14 1.455-2.319s1.206-4.166.956-4.416zm-3.642 3.195c.721-.289 1.584-.253 1.916.079.332.332-.258.568-1.312.525-1.165-.048-1.402-.285-.604-.604zm5.31 2.008c-1.18-2.027-1.464-1.378-.5 1.136.343.894.835 1.415 1.092 1.157.258-.257-.01-1.29-.593-2.293zm3.398-2.137c-.286-.287-.537.116-.556.895-.02.781-.724.295-1.57-1.083-1.03-1.679-1.309-1.843-.85-.5.375 1.1.93 2.867 1.231 3.926.507 1.778.616 1.748 1.408-.395.473-1.277.624-2.556.337-2.843zm34.729 4.15c-.688-.278-1.813-.278-2.5 0-.688.277-.125.504 1.25.504s1.938-.227 1.25-.504zm8 0c-.688-.278-1.813-.278-2.5 0-.688.277-.125.504 1.25.504s1.938-.227 1.25-.504zm29.956-1.081c-4.011-.19-10.311-.19-14 .003-3.688.191-.406.347 7.294.346 7.7-.002 10.718-.159 6.706-.35zm-86.513-3.988c-.254-.973-.478-.419-.498 1.231-.02 1.65.187 2.446.46 1.769.275-.677.292-2.027.038-3zm90.557 2.072c2.063-.328 3.75-.907 3.75-1.287 0-.38-11.363-1.23-25.25-1.89-27.497-1.304-52.588-1.393-46.75-.164l3.5.737-4 .247c-2.2.137-3.18.46-2.178.72 1.762.455 1.762.519 0 1.951-1.614 1.312 2.117 1.413 32.678.882 18.975-.33 36.188-.867 38.25-1.196zm-58.438-1.024c.722-.289 1.585-.253 1.917.079.332.332-.258.568-1.312.525-1.165-.048-1.402-.285-.605-.604zm22-1c.722-.289 1.585-.253 1.917.079.332.332-.258.568-1.312.525-1.165-.048-1.402-.285-.604-.604zm-24.562-1.006c.963-.252 2.538-.252 3.5 0 .963.251.175.457-1.75.457s-2.712-.206-1.75-.457zm9.019-.004c.973-.254 2.323-.237 3 .037.677.274-.119.481-1.769.46-1.65-.02-2.204-.244-1.231-.497zM57 179c.825-.533 1.05-.97.5-.97s-1.675.437-2.5.97c-.825.533-1.05.97-.5.97s1.675-.437 2.5-.97zm45.683-1.188c-.32-.797-.556-.56-.604.605-.043 1.054.193 1.644.525 1.312.332-.332.368-1.195.08-1.917zm-57.433.526c-.688-.278-1.813-.278-2.5 0-.688.277-.125.504 1.25.504s1.938-.227 1.25-.504zm52.872-2.013c-1.179-2.027-1.463-1.378-.498 1.136.342.894.834 1.415 1.091 1.157.258-.257-.01-1.29-.593-2.293zM89 176.5c1.02-1.229.951-1.5-.378-1.5-.892 0-1.622.675-1.622 1.5s.17 1.5.378 1.5c.207 0 .937-.675 1.622-1.5zm7.417-2.143c.918-2.394.202-2.578-1.213-.312-.672 1.075-.815 1.955-.32 1.955.496 0 1.186-.74 1.533-1.643zm4.117-4.292c-.348-1.01.042-.855 1.098.435 1.326 1.62 1.517 1.668 1.003.25-1.889-5.207-1.904-5.379-.31-3.437 1.397 1.702 1.531 1.617 2.189-1.375.483-2.201.289-3.442-.628-4.009-1.788-1.104-2.547-.19-1.07 1.288 1.724 1.723 1.452 3.25-.316 1.783-1.21-1.004-1.503-.979-1.515.128-.013 1.153-.156 1.15-.893-.014-.556-.878-.763.313-.565 3.25.172 2.55-.087 4.636-.576 4.636s-.601.747-.251 1.66c.533 1.389.78 1.276 1.505-.684.477-1.29.625-3.05.329-3.91zm24.758 5.196c-3.415-.195-9.265-.196-13-.003-3.736.193-.942.352 6.208.354 7.15.002 10.206-.156 6.792-.351zm11.437.135c-.332-.332-1.195-.368-1.917-.08-.797.32-.56.557.605.605 1.054.043 1.644-.193 1.312-.525zm10.033-.083c-.956-.25-2.756-.26-4-.02-1.244.239-.462.444 1.738.455 2.2.01 3.218-.185 2.262-.435zm9.988-.03c-1.512-.228-3.987-.228-5.5 0-1.512.23-.275.417 2.75.417s4.263-.187 2.75-.416zm-16.566-3.033c.174-1.512.799-2.664 1.39-2.559 1.487.265 1.21-4.009-.324-4.99-.688-.44-1.25-1.678-1.25-2.75 0-1.073-.476-1.951-1.057-1.951-1.277 0-7.896-14.212-8.059-17.305-.09-1.692-.22-1.794-.573-.445-.252.963-1.14 1.75-1.972 1.75-1.184 0-1.391-.818-.948-3.75.349-2.313.015-4.9-.871-6.75l-1.438-3 .695 3c.382 1.65.614 4.56.515 6.465-.099 1.906.175 3.93.609 4.5.875 1.148 2.688 8.084 3.564 13.63.7 4.43-2.172 8.622-6.228 9.09-3.129.362-4.592 3.867-1.56 3.736 1.05-.045 1.293-.293.573-.583-1.741-.703-1.566-2.338.25-2.338.825 0 1.5.45 1.5 1s.874 1 1.943 1c1.404 0 1.835-.554 1.557-2-.252-1.31.153-2 1.174-2 1.057 0 1.394.632 1.046 1.963-.661 2.528 1.222 4.015 3.78 2.984 1.699-.685 1.736-.817.25-.877-3.002-.12-1.913-2.787 1.41-3.452 1.738-.348 3.388-.404 3.666-.125.28.279-.13.514-.91.522-1.168.013-1.154.193.084 1.03 1.105.749.71.855-1.5.404-2.109-.43-2.586-.32-1.604.37.767.538 1.14 1.645.828 2.458-.552 1.437.928 3.723 2.41 3.723.403 0 .876-1.237 1.05-2.75zm-10.602.617c.509-.823-.843-.94-4.94-.428l-5.642.705v-3.013c0-3.193.709-3.997 4.098-4.65 5.412-1.042 6.348-6.173 2.82-15.454-1.153-3.035-1.883-6.811-1.639-8.477.348-2.371-3.366-15.932-4.753-17.35-.653-.669-5.527 16.15-5.538 19.112-.007 1.753-.717 5.663-1.58 8.688-.862 3.025-2.343 8.299-3.29 11.72-.948 3.42-2.037 6.532-2.42 6.916-1.56 1.56-.461 2.273 4.052 2.629 10.83.854 18.154.7 18.832-.398zM81.5 172c-.34-.55-.141-1 .441-1 1.46 0 1.328-1.873-.241-3.443-1.067-1.067-1.3-.695-1.3 2.072 0 1.854.387 3.371.859 3.371s.58-.45.241-1zm69.265-10.795c.23-.69-.514-1.205-1.74-1.205-1.179 0-1.89.408-1.583.907.309.498-.315.677-1.386.397-1.483-.388-1.91-.027-1.795 1.512.139 1.84.42 1.912 3.127.807 1.637-.668 3.156-1.756 3.377-2.418zm-43.15-8.593c1.997-7.5 1.566-7.924-1.134-1.112-2.566 6.475-3.423 11.727-1.324 8.112.603-1.038 1.71-4.188 2.458-7zm1.068 4.2c-.32-.797-.556-.56-.604.605-.043 1.054.193 1.644.525 1.312.332-.332.368-1.195.08-1.917zM104.914 150c-.036-.99-.347-.819-.914.5-1.181 2.75-1.181 4.328 0 2.5.533-.825.945-2.175.914-3zm7.748-8.25c-.277-.688-.504-.125-.504 1.25s.227 1.938.504 1.25c.278-.688.278-1.813 0-2.5zm-4.28-.302c.341-.89.173-1.291-.393-.94-.544.335-.989 1.033-.989 1.551 0 1.438.717 1.121 1.382-.61zm6.155-11.216c2.424-7.765 3.416-9.732 4.911-9.732 1.234 0 2.305 1.195 3.137 3.5.694 1.925 1.277 2.825 1.295 2 .018-.825-.616-3.3-1.409-5.5-.792-2.2-1.455-4.9-1.471-6-.026-1.69-.196-1.767-1.096-.5-.807 1.136-.905.773-.404-1.498 1.228-5.557-.492-1.887-2.382 5.085-1.03 3.802-3.005 10.4-4.388 14.663-1.382 4.263-2.224 7.742-1.871 7.732.352-.01 2.008-4.397 3.678-9.75zm1.13-94.899c-.367-.366-.667-1.548-.667-2.625 0-1.654.479-1.862 3.08-1.342 2.211.442 2.966.266 2.673-.625-.224-.683-1.61-1.383-3.08-1.557-2.497-.296-2.673-.644-2.673-5.3V18.9l5.75.3c4.983.26 5.75.567 5.75 2.3 0 1.518-.843 2.127-3.5 2.53l-3.5.528 3.261.698c4.435.95 6.18 4.66 3.858 8.203-1.357 2.07-2.463 2.541-5.975 2.541-2.371 0-4.61-.3-4.977-.667zm9.166-3.714c.421-2.175-1.582-4.638-3.705-4.556-1.102.043-.9.356.622.968 2.295.923 3.094 4.384 1.225 5.31-.564.28-.451.393.25.251.701-.142 1.425-1.03 1.608-1.973zM125 21.395c0-.217-1.8-.395-4-.395s-4 .35-4 .776c0 .427 1.8.605 4 .395 2.2-.21 4-.559 4-.776zM7.723 387.75c-.221-1.788-.403-.325-.403 3.25s.182 5.037.403 3.25c.222-1.788.222-4.713 0-6.5zm-1.06-29c-.278-.688-.505-.125-.505 1.25s.227 1.938.504 1.25c.278-.688.278-1.813 0-2.5zm.03-5.481c-.254-.973-.478-.419-.498 1.231-.02 1.65.187 2.446.46 1.769.275-.677.292-2.027.038-3zM6.75 236.75c-.151-21.037-.274-3.825-.274 38.25s.123 59.288.274 38.25c.15-21.038.15-55.462 0-76.5zm225.998-13.5c-.163-9.762-.297-1.775-.297 17.75s.134 27.512.297 17.75c.164-9.762.164-25.738 0-35.5zM6.706 191.75c-.239-1.238-.434-.225-.434 2.25s.195 3.487.434 2.25c.238-1.238.238-3.263 0-4.5zM7 185c0-.55-.477-1-1.059-1s-.78.45-.441 1c.34.55.816 1 1.059 1s.441-.45.441-1zm-.317-6.188c-.32-.797-.556-.56-.604.605-.043 1.054.193 1.644.525 1.312.332-.332.368-1.195.08-1.917zM232.29 175c.288-1.101.115-1.75-.383-1.441-.499.308-.907 1.208-.907 2.001 0 2.07.68 1.775 1.29-.56zM5.707 162.762c-.239-1.244-.444-.462-.455 1.738-.01 2.2.185 3.218.435 2.262s.26-2.756.02-4zm.01-13.498c-.23-1.52-.423-.514-.431 2.236-.007 2.75.18 3.994.418 2.764.237-1.23.243-3.48.014-5zm.027-27.514c-.185-4.537-.337-.825-.337 8.25s.152 12.787.337 8.25c.185-4.537.185-11.963 0-16.5zM7.321 11.345c.451-.45 42.726-.7 93.944-.554 51.218.145 92.924.068 92.68-.172-.245-.24-42.17-.768-93.169-1.172-74.224-.589-93.028-.483-94.25.531-1.336 1.11-1.497 7.43-1.295 50.894l.232 49.628.518-49.167c.286-27.042.888-49.537 1.34-49.988zm224.362 18.468c-.32-.798-.556-.561-.604.604-.043 1.054.193 1.644.525 1.312.332-.332.368-1.195.08-1.916zm-.872-19.95c-.721-.458-8.061-.745-16.311-.637l-15 .195 15.5.54 15.5.539.463 5 .463 5 .348-4.903c.233-3.279-.086-5.179-.963-5.735z"/></svg>