<svg xmlns="http://www.w3.org/2000/svg" width="490" height="841" viewBox="0 0 490 841"><path d="M251.813 839.317c.721-.289 1.584-.253 1.916.079.332.332-.258.568-1.312.525-1.165-.048-1.402-.285-.604-.604zm22 0c.721-.289 1.584-.253 1.916.079.332.332-.258.568-1.312.525-1.165-.048-1.402-.285-.604-.604zm12.456-.01c.973-.254 2.323-.237 3 .037.677.274-.119.481-1.769.461-1.65-.02-2.204-.245-1.231-.498zm5.981.004c.963-.252 2.538-.252 3.5 0 .963.251.175.457-1.75.457s-2.712-.206-1.75-.457zm7.019-.004c.973-.254 2.323-.237 3 .037.677.274-.119.481-1.769.461-1.65-.02-2.204-.245-1.231-.498zm8.981-.023c1.512-.23 3.987-.23 5.5 0 1.512.229.275.416-2.75.416s-4.263-.187-2.75-.416zm51.5-.034c23.788-.15 62.712-.15 86.5 0 23.788.15 4.325.272-43.25.272s-67.037-.123-43.25-.272zM16.235 822.038c-1.245-.541-2.65-2.009-3.12-3.261-.471-1.252-.71-12.177-.532-24.277.478-32.408.479-33.906.065-175-.21-71.5-.553-235.3-.764-364l-.384-234 5.008-.611c5.472-.668 175.866-1.729 342.588-2.133 81.687-.198 105.928.019 107.06.959 1.275 1.057 1.488 25.576 1.649 189.5.359 366.099.993 594.353 1.667 599.957.838 6.971-.355 9.558-4.734 10.263-1.781.286-70.513.738-152.738 1.003-82.225.266-151.3.7-153.5.965-8.502 1.025-140.017 1.611-142.265.635zm153.765-3.6c1.925-.22 68.648-.623 148.272-.895 97.33-.334 145.41-.837 146.715-1.536 1.85-.99 1.92-2.001 1.462-21.273-.264-11.129-.69-141.734-.948-290.234-.257-148.5-.588-317.925-.734-376.5L464.5 21.5l-83.5.207c-181.558.45-352.883 1.368-360.074 1.93l-7.573.59.248 18.137c.925 67.685 1.515 227.839 1.775 481.977.258 251.608.504 293.982 1.713 294.819 1.33.92 144.43.245 152.911-.722zm-149.273-2.854c-1.6-1.6-1.725-6.312-1.702-63.905.013-34.199-.216-84.004-.51-110.679-.788-71.283-1.559-237.407-1.508-324.5.155-262.681.34-288.18 2.094-289.934.722-.722 107.504-1.53 280.485-2.122 131.021-.448 159.279-.312 160.18.775 1.293 1.557 2.093 154.094 2.802 534.281.282 150.685.105 252.556-.44 253.383-.765 1.162-22.792 1.449-138.269 1.798-75.547.228-141.184.57-145.859.759-4.675.189-41.585.688-82.023 1.108-68.918.716-73.63.656-75.25-.964zm156.773-3.149c2.75-.181 67.325-.527 143.5-.767l138.5-.438-.065-239.365c-.088-326.516-.797-542.104-1.789-543.665-.675-1.063-31.969-1.173-171.486-.604-93.863.382-191.66.742-217.326.8-25.666.057-46.928.366-47.248.686-.32.32-.787 3.47-1.037 7-.644 9.068-.646 518.784-.004 550.918.292 14.575.705 70.6.918 124.5.213 53.9.717 99.082 1.12 100.405l.731 2.406 74.593-.773c41.026-.425 76.843-.921 79.593-1.103zM123.37 582.52c-.588-1.532 4.38-18.073 12.471-41.52l4.659-13.5.077-15c.043-8.25.155-15.516.25-16.147.095-.63 2.608-4.298 5.585-8.15 6.969-9.02 7.788-10.634 7.991-15.746.093-2.33.828-5.019 1.633-5.976.805-.957 2.658-5.394 4.117-9.86 2.01-6.152 2.38-8.453 1.53-9.49-1.614-1.964-15.38-11.131-16.716-11.131-.618 0-2.825-1.718-4.905-3.819-2.988-3.018-5.886-4.517-13.83-7.154-7.322-2.429-10.315-3.913-11.022-5.465-.533-1.17-3.19-5.04-5.903-8.596-2.714-3.556-5.224-7.24-5.578-8.186-.565-1.51-4.909-4.905-23.729-18.543-2.475-1.794-10.013-7.167-16.75-11.94-11.483-8.137-14.075-11.05-11.336-12.744.502-.31 15.015-.813 32.25-1.118 23.126-.408 32.253-.914 34.836-1.93 1.925-.756 7.156-2.788 11.624-4.516l8.124-3.142 10.19 3.231c9.9 3.138 10.29 3.183 13.66 1.576 4.36-2.078 5.135-2.066 9.417.148 1.917.99 4.048 1.722 4.735 1.625.688-.098 4.358-.233 8.157-.302l6.908-.125 3.092-9.374c1.701-5.156 3.093-10.347 3.093-11.535 0-1.189.756-3.315 1.68-4.724 1.234-1.885 1.79-5.512 2.102-13.715l.424-11.152 6.92-9.159 6.918-9.159 9.431-28.84a34539.813 34539.813 0 0 0 10.728-32.842c1.908-5.884 5.045-6.02 6.986-.302.803 2.366 4.257 12.627 7.675 22.802 3.418 10.175 6.615 19.4 7.104 20.5.49 1.1 1.665 4.475 2.614 7.5 2.91 9.278 4.956 13.157 11.815 22.391l6.603 8.891v9.335c0 7.569.378 9.954 1.996 12.609 1.098 1.8 1.998 4.397 2 5.77.004 2.614 4.348 16.416 5.982 19.004.736 1.166 3.013 1.485 10.234 1.434 19.41-.138 22.955-.528 31.815-3.497 4.822-1.615 9.827-2.93 11.12-2.923 1.294.008 7.078 1.596 12.853 3.528l10.5 3.515 32.885-.039c33.169-.039 36.209.27 34.948 3.557-.533 1.388-16.705 13.885-28.833 22.28-16.32 11.296-22.006 17.133-33.504 34.392-2.11 3.168-9.037 7.753-11.714 7.753-.407 0-3.674 1.125-7.26 2.5-4.67 1.792-6.983 3.313-8.145 5.36-.893 1.573-2.83 3.162-4.304 3.532-2.489.625-17.573 11.08-17.573 12.18 0 .27.675 2.108 1.5 4.082.825 1.975 1.5 4.267 1.5 5.094 0 .828 1.35 4.161 3 7.408 1.65 3.247 3 7.387 3 9.2 0 2.39 1.263 4.921 4.6 9.22 2.529 3.258 4.936 6.149 5.35 6.424 2.302 1.533 3.05 5.872 3.05 17.709v12.84l6.572 18.976c3.614 10.436 7.462 21.9 8.55 25.475 1.088 3.575 2.368 7.4 2.846 8.5 1.563 3.605 3.032 8.763 3.032 10.65 0 3.288-3.056 2.017-14.184-5.9-11.59-8.246-18.55-13.14-32.293-22.707-4.707-3.277-10.688-6.547-13.29-7.267-2.603-.72-9.008-2.41-14.233-3.757-10.204-2.63-9.775-2.316-18.283-13.384-2.631-3.423-5.331-6.39-6-6.596-.67-.204-2.478-.65-4.02-.988-1.76-.387-3.56-1.9-4.84-4.069-1.12-1.899-5.103-5.683-8.85-8.408l-6.814-4.956-7.346 5.556c-4.041 3.056-9.25 7.304-11.575 9.44-2.325 2.138-4.848 3.886-5.606 3.886-.759 0-3.356 2.773-5.772 6.163-8.318 11.667-8.368 11.704-19.394 14.196-5.5 1.244-11.225 2.91-12.722 3.701-2.475 1.31-17.715 12.055-42.716 30.12-9.482 6.851-12.64 8.083-13.693 5.34zm3.92-3.52c-.288-1.1-.696-2-.907-2-.21 0-.383.9-.383 2s.408 2 .906 2c.499 0 .671-.9.384-2zm7.32-4.555c.118-.8-.196-1.2-.698-.89-1.276.788-1.142-.925.175-2.242.743-.743.759-1.29.05-1.728-.61-.378-1.314.909-1.713 3.137-.373 2.078-1.408 4.655-2.3 5.728-1.326 1.592-1.083 1.537 1.325-.3 1.622-1.238 3.045-2.905 3.162-3.705zm-4.948-.695c-.277-.688-.504-.125-.504 1.25s.227 1.938.504 1.25c.278-.688.278-1.813 0-2.5zm225.47 1.908c-.613-.738-.88-1.577-.592-1.865.287-.287-.676-1.307-2.14-2.267-1.853-1.214-2.294-1.974-1.448-2.496.889-.55.776-.92-.42-1.38-1.06-.406-1.392-.233-.945.491.416.673.138.934-.698.655-.764-.254-1.389-.95-1.389-1.546 0-.596-.268-1.352-.596-1.68-.328-.328-.534.575-.458 2.006.16 2.992 4.169 6.488 6.492 5.661.86-.306 1.228-.188.82.262-.689.76.867 3.501 1.987 3.501.275 0-.001-.604-.614-1.342zM349 570.911c-2.154-1.762-2.196-1.897-.306-.973 1.207.59 2.471 1.52 2.81 2.067.902 1.46.296 1.196-2.504-1.094zm-221.317 2.902c-.32-.798-.556-.561-.604.604-.043 1.054.193 1.644.525 1.312.332-.332.368-1.195.08-1.917zm10.938-2.434c.177-1.211-.053-1.347-.88-.52-.617.617-1.23 1.86-1.362 2.762-.177 1.211.053 1.347.88.52.617-.617 1.23-1.86 1.362-2.762zm220.374-2.091c-1.09-1.7-1.118-1.697-.57.044.316 1.007.61 2.357.654 3 .057.843.216.83.57-.044.271-.667-.023-2.017-.654-3zm-217.42.954c-.307-.307-.02-1.274.635-2.15.996-1.329.963-1.387-.198-.352-1.596 1.422-2.335 4.577-.858 3.665.539-.333.728-.856.421-1.163zm212.62-1.992c-.289-1.512-.719-2.173-.955-1.467-.425 1.272.336 4.217 1.09 4.217.216 0 .156-1.238-.134-2.75zm-214.067-1c1.243-1.586 1.208-1.621-.378-.378-.962.755-1.75 1.543-1.75 1.75 0 .823.821.294 2.128-1.372zm204.472-.824c0-1.659-.965-3.262-2.712-4.506-2.495-1.776-2.686-1.79-2.377-.176.185.966.427 1.868.537 2.006.111.138.258.662.327 1.167.069.504.448 1.24.844 1.635.395.395.527-.273.294-1.485-.272-1.413.009-2.06.781-1.802.663.22 1.262 1.377 1.331 2.568.236 4.092.975 4.54.975.593zM148.533 565.2c-.284-.284.043-1.232.726-2.108 1.102-1.413 1.042-1.436-.533-.2-.976.766-1.542 1.625-1.259 1.908.284.284-.043 1.232-.726 2.108-1.102 1.413-1.042 1.436.533.2.976-.766 1.542-1.625 1.259-1.908zm-13.85-.388c-.32-.797-.556-.56-.604.605-.043 1.054.193 1.644.525 1.312.332-.332.368-1.195.08-1.917zm19.986-11.577c17.83-12.677 17.957-12.797 23.627-22.43 8.025-13.634 7.846-13.48 19.386-16.816 5.96-1.723 11.2-3.886 12.637-5.216 1.35-1.25 6.088-4.748 10.529-7.773 4.44-3.025 8.09-5.761 8.112-6.081.053-.773-3.843-2.628-6.96-3.313-1.375-.303-3.207-1.8-4.071-3.328-1.957-3.46-29.692-23.098-34.493-24.423-2.223-.614-3.856-1.829-4.407-3.279-2.58-6.786-7.312.15-7.204 10.559.047 4.463-.449 6.322-2.383 8.944-2.21 2.995-2.442 4.27-2.442 13.42 0 9.496-.18 10.394-2.975 14.8-1.636 2.58-4.704 6.606-6.818 8.946-6.214 6.88-7.725 9.682-11.19 20.755-1.807 5.775-3.657 11.4-4.11 12.5-.453 1.1-1.86 5.177-3.125 9.06l-2.301 7.058 6.798-5.059c3.74-2.782 8.865-6.528 11.39-8.324zM148 561.364c0-.275-1.35.461-3 1.636-1.65 1.175-3 2.361-3 2.636 0 .275 1.35-.461 3-1.636 1.65-1.175 3-2.361 3-2.636zm190.324 2.386c-.436-.688-.8-1.55-.809-1.917-.008-.366-.425-1.041-.925-1.5-.538-.492-.583-.268-.111.547.547.943.36 1.233-.59.916-.764-.254-1.445-.988-1.514-1.63-.069-.641-.238-1.391-.375-1.666-.138-.275-.306-.927-.375-1.45-.069-.522-.778-1.535-1.577-2.25-1.253-1.122-1.27-1.06-.127.45.728.963.874 1.75.324 1.75-1.268 0-3.399-2.513-2.712-3.2.283-.283-.283-1.142-1.259-1.907-1.613-1.267-1.65-1.234-.402.357 1.37 1.746.397 2.42-1.443 1-.534-.413.163.257 1.55 1.487s2.521 2.655 2.521 3.167c0 .51.41 1.304.91 1.763.538.492.583.268.111-.547-.547-.943-.36-1.233.59-.916.764.254 1.389 1.013 1.389 1.686 0 .674 1.125 2.089 2.5 3.145 2.948 2.265 3.396 2.403 2.324.715zm9.468-7a4711.132 4711.132 0 0 1-7.327-21.153c-5.24-15.241-5.194-15.165-16.386-27.123-5.659-6.045-6.079-7.35-6.079-18.873 0-9.43-.205-10.64-1.957-11.578-1.19-.637-2.18-2.512-2.525-4.785-.808-5.31-4.501-17.244-5.326-17.206-1.4.064-4.192 2.728-4.192 4 0 2.357-3.25 4.968-6.184 4.968-4.659 0-28.384 17.378-34.605 25.348-.71.909-2.327 1.652-3.595 1.652-1.269 0-3.032.802-3.92 1.783-1.504 1.662-1.382 1.967 1.792 4.5 1.873 1.494 3.824 2.717 4.336 2.717.512 0 1.491.675 2.176 1.5s2.374 1.5 3.754 1.5c1.56 0 3.725 1.289 5.719 3.403 2.372 2.515 5.402 4.11 11.618 6.117 4.625 1.493 9.36 3.156 10.524 3.694 1.163.539 5.912 5.78 10.553 11.649 7.858 9.937 9.658 11.544 26.222 23.403C342.17 559.27 350.288 565 350.428 565c.14 0-1.046-3.712-2.636-8.25zm-216.109 4.063c-.32-.798-.556-.561-.604.604-.043 1.054.193 1.644.525 1.312.332-.332.368-1.195.08-1.917zm23.445.437c1.243-1.586 1.208-1.621-.378-.378-1.666 1.307-2.195 2.128-1.372 2.128.207 0 .995-.787 1.75-1.75zm-2-1c1.243-1.586 1.208-1.621-.378-.378-.963.755-1.75 1.543-1.75 1.75 0 .823.821.294 2.128-1.372zm-2-1c1.243-1.586 1.208-1.621-.378-.378-1.666 1.307-2.195 2.128-1.372 2.128.207 0 .995-.787 1.75-1.75zm6-2c1.243-1.586 1.208-1.621-.378-.378-.963.755-1.75 1.543-1.75 1.75 0 .823.821.294 2.128-1.372zm-2-1c1.243-1.586 1.208-1.621-.378-.378-.963.755-1.75 1.543-1.75 1.75 0 .823.821.294 2.128-1.372zm9.872-5.018c0-.348-.54-.092-1.2.568-1.844 1.844-3.223 1.423-1.672-.51.91-1.135.277-.944-1.878.567-1.787 1.254-3.25 2.564-3.25 2.911 0 .348.54.092 1.2-.568 1.844-1.844 3.223-1.423 1.672.51-.91 1.135-.277.944 1.878-.567 1.788-1.254 3.25-2.564 3.25-2.911zm161 4.39c0-.207-.787-.995-1.75-1.75-1.586-1.243-1.621-1.208-.378.378 1.307 1.666 2.128 2.195 2.128 1.372zM135.914 549c-.036-.99-.347-.819-.914.5-1.181 2.75-1.181 4.328 0 2.5.533-.825.945-2.175.914-3zm33.214 2.25c1.243-1.586 1.208-1.621-.378-.378-.962.755-1.75 1.543-1.75 1.75 0 .823.821.294 2.128-1.372zm180.957-2.355c-.527-1.317-.987-1.87-1.022-1.227-.084 1.56 1.08 4.522 1.582 4.02.219-.219-.033-1.475-.56-2.793zm-181.081-.727c-.56-.186-.717-.863-.35-1.503.383-.669.279-.81-.244-.332-.5.459-.917 1.134-.925 1.5-.008.367-.393 1.263-.855 1.99-.696 1.099-.478 1.1 1.275.004 1.163-.726 1.657-1.473 1.099-1.66zm8.233-6.002c.866-3.342 5.794-6.782 9.023-6.3.968.145 2.934-.66 4.368-1.788 2.18-1.715 2.343-2.152.995-2.67-.886-.34-1.34-1.057-1.008-1.595.334-.54 2.01.29 3.745 1.855l3.14 2.832-2.764-3.07c-1.52-1.687-2.503-3.33-2.183-3.65.319-.318.1-.876-.486-1.239-.587-.362-1.067-.013-1.067.778 0 .79-.644 1.97-1.43 2.623-.787.653-1.255 2.098-1.04 3.212.319 1.656.13 1.809-1.04.838-1.13-.937-1.972-.758-4.023.855-1.427 1.123-3.151 1.828-3.831 1.567-.695-.267-1.977 1.078-2.929 3.074-.93 1.951-2.785 4.046-4.122 4.655-1.908.87-2.178 1.387-1.257 2.408 1.72 1.908 4.887-.442 5.909-4.385zm137.809 2.027c-.49-.17-5.207-5.644-10.483-12.166l-9.593-11.859-8.735-2.716c-4.804-1.495-9.748-3.343-10.985-4.108-2.087-1.29-2.25-1.221-2.25.933 0 3.233-1.799 4.7-5.95 4.855l-3.55.131 3.165.619c2.882.563 8.34 6.235 14.789 15.37.687.973 4.525 2.611 8.641 3.688 18.298 4.787 22.205 5.96 23.216 6.97.77.772 1.298.724 1.851-.166.426-.684.373-1.382-.116-1.551zM319.5 546c-.34-.55-1.154-.993-1.809-.985-.716.01-.592.403.309.985 1.921 1.242 2.267 1.242 1.5 0zm-179.817-3.188c-.32-.797-.556-.56-.604.605-.043 1.054.193 1.644.525 1.312.332-.332.368-1.195.08-1.917zm42.567.526c-.688-.278-1.813-.278-2.5 0-.688.277-.125.504 1.25.504s1.938-.227 1.25-.504zm4.48-.942c-.333-.332-1.196-.368-1.917-.08-.798.32-.561.557.604.605 1.054.043 1.644-.193 1.312-.525zm160.392-2.071c-1.179-2.027-1.463-1.378-.498 1.136.342.894.834 1.415 1.091 1.157.258-.257-.009-1.29-.593-2.293zm-156.393 1.07c-.332-.331-1.195-.367-1.917-.078-.797.32-.56.556.605.604 1.054.043 1.644-.193 1.312-.525zM144.88 534c-.017-.825-.638.075-1.379 2-1.758 4.566-1.732 6.362.036 2.5.756-1.65 1.36-3.675 1.343-4.5zm43.477 5.458c9.292-2.333 9.238-2.303 7.073-3.886-1.647-1.205-2.226-1.079-4.73 1.028-1.569 1.32-3.83 2.407-5.026 2.415-1.195.008-2.848.452-3.673.985-2.094 1.353-.735 1.237 6.356-.542zm6.373.938c-.332-.332-1.195-.368-1.917-.08-.797.32-.56.557.605.605 1.054.043 1.644-.193 1.312-.525zm4-1c-.332-.332-1.195-.368-1.917-.08-.797.32-.56.557.605.605 1.054.043 1.644-.193 1.312-.525zm1.586-3.665c-1.65-1.881-1.658-2.013-.097-1.444.945.344 1.984.195 2.309-.33.325-.527-.309-.957-1.409-.957-2.656 0-3.453 1.477-1.618 3 .813.675 1.188 1.695.834 2.268-.385.624-.155.74.577.287.912-.563.761-1.276-.596-2.824zm4.813-1.481c1.243-1.586 1.208-1.621-.378-.378-.962.755-1.75 1.543-1.75 1.75 0 .823.821.294 2.128-1.372zm-22-1c1.243-1.586 1.208-1.621-.378-.378-1.666 1.307-2.195 2.128-1.372 2.128.207 0 .995-.787 1.75-1.75zm-35.857-7.984c.919-2.071 4.656-7.141 8.305-11.266 3.65-4.125 7.038-8.542 7.53-9.815.492-1.273.894-6.698.894-12.056 0-8.82.236-10.06 2.5-13.129 1.375-1.864 2.464-4.539 2.421-5.944-.073-2.36-.254-2.14-1.526 1.844-.347 1.085-.961.917-2.736-.75-3.184-2.992-3.853-2.7-3.093 1.35.582 3.102.417 3.5-1.455 3.5-1.16 0-2.129-.563-2.151-1.25-.022-.688-.742.045-1.599 1.628-.857 1.582-4.19 6.425-7.404 10.762l-5.846 7.884.588 13.76c.504 11.77.343 14.234-1.112 17.048l-1.7 3.289 2.357-1.545c1.296-.85 3.109-3.24 4.027-5.31zm50.683 4.648c-.614-1.147-1.369-1.833-1.678-1.524-.308.309.008 1.248.704 2.086 1.798 2.166 2.284 1.886.974-.562zm11.419-6.25c2.27-3.606 1.447-4.562-1.29-1.497-4.583 5.133-5.083 5.911-5.083 7.91 0 1.884.213 1.814 2.293-.75 1.26-1.555 3.097-4.104 4.08-5.664zm136.31 6.148c-.32-.797-.556-.56-.604.605-.043 1.054.193 1.644.525 1.312.332-.332.368-1.195.08-1.917zm-158.723-.264c.663-.799 1.055-2.181.873-3.073-.242-1.179-.826-.783-2.14 1.452-1.835 3.121-.934 4.274 1.267 1.621zm12.348-3.479c-.278-1.062-1.064-1.716-1.746-1.454-.683.262-1.815-.215-2.515-1.058-.7-.844-1.75-1.241-2.33-.882-.677.418-.815-.035-.384-1.261.651-1.856.626-1.855-.83.027-.827 1.068-1.496 2.418-1.488 3 .008.583.402.448.875-.298.61-.961 1.062-1.03 1.554-.233.382.617 1.19.816 1.795.442.692-.428.88-.104.506.87-.434 1.13-.103 1.423 1.217 1.078.997-.261 2.115.015 2.484.613 1.034 1.672 1.42 1.293.862-.844zm5.969-4.236c.553-1.544.39-1.55-2.198-.064-1.847 1.06-2.638 2.2-2.335 3.361.432 1.653.564 1.656 2.198.064.956-.932 2.006-2.444 2.335-3.361zm10.48-1.254c-.142-.055-1.382-.996-2.757-2.09l-2.5-1.989 1.888 2.231c1.629 1.925 1.7 2.474.517 4-1.14 1.47-.993 1.447.868-.142 1.232-1.05 2.124-1.955 1.983-2.01zm126.114.482c-.623-1.788-1.54-2.741-2.342-2.434-.79.304-1.729-.621-2.345-2.31-.564-1.55-1.062-2.228-1.105-1.508-.047.782-.583 1.001-1.329.545-.688-.421-.013.712 1.5 2.517 1.512 1.805 2.75 3.923 2.75 4.706 0 .783.877 1.423 1.948 1.423 1.721 0 1.829-.342.923-2.94zm-147.121-3.14c.963-.043 1.218-.296.568-.56-1.617-.66-7.522 2.5-6.814 3.645.313.507 1.453.037 2.532-1.042 1.08-1.08 2.752-2 3.714-2.043zm8.75.971c2.75-1.69 4.325-2.874 3.5-2.629-8.979 2.666-12.103 4.057-10.866 4.84 1.885 1.195 1.77 1.23 7.366-2.211zm19.16-2.521c2.075-2.694 2.19-3.215.823-3.739-.873-.335-1.337-.205-1.032.29.306.493.266 1.65-.087 2.572-.353.92-.917 1.236-1.253.7-.366-.583-1.128-.416-1.9.417-1.053 1.134-1.053 1.402 0 1.46.709.038.389.484-.711.99-1.804.832-1.816.898-.125.68 1.031-.132 2.96-1.65 4.285-3.37zm40.34 2.251c0-.207-.787-.995-1.75-1.75-1.586-1.243-1.621-1.208-.378.378 1.307 1.666 2.128 2.195 2.128 1.372zm-47-1c0-.207-.787-.995-1.75-1.75-1.586-1.243-1.621-1.208-.378.378 1.307 1.666 2.128 2.195 2.128 1.372zm53.41-.478c.292-.47-.584-.642-1.946-.382s-3.26-.142-4.22-.894c-1.58-1.239-1.614-1.203-.372.382 1.425 1.816 5.615 2.39 6.539.894zm-69.68-.748c-.333-.332-1.196-.368-1.918-.08-.797.32-.56.557.605.605 1.054.043 1.644-.193 1.312-.525zm19.27-2.337c0-1.35-1.823-2.286-3.016-1.549-.56.346-.758 1.047-.441 1.56.75 1.214 3.457 1.206 3.457-.011zM266.918 511c.54 0 1.441.787 2.002 1.75.813 1.396 1.04 1.447 1.12.25.068-1.008.353-.854.871.472.694 1.775.822 1.703 1.286-.725.358-1.87-.075-3.232-1.414-4.444-1.062-.96-1.844-1.31-1.739-.775.423 2.137-.1 3.555-1.088 2.945-1.404-.868-3.971 1.374-3.893 3.4.043 1.1.356.9.968-.623.498-1.238 1.347-2.25 1.887-2.25zm74.042-17.776c-1.025-1.59-1.066-1.582-.536.108.317 1.007.67 6.407.787 12l.21 10.168.325-10.276c.202-6.385-.096-10.928-.786-12zm-10.082 13.732c-1.794-2.916-3.437-4.778-3.65-4.138-.214.64.998 2.845 2.692 4.9 4.622 5.609 3.708 6.288-1.67 1.24l-4.75-4.458 4.454 4.746c5.638 6.007 7.252 4.743 2.924-2.29zm-109.58 4.71c.281-.733-.078-1.333-.798-1.333-.72 0-1.08.6-.798 1.334.282.733.64 1.333.798 1.333.157 0 .516-.6.798-1.333zm117.364-1.916c-.277-.688-.504-.125-.504 1.25s.227 1.938.504 1.25c.278-.688.278-1.813 0-2.5zm-126.28.698c.341-.89.173-1.291-.393-.94-.544.335-.989 1.033-.989 1.551 0 1.438.717 1.121 1.382-.61zm3.144-.255c-.307-.308-1.114 0-1.793.683-.98.988-.865 1.102.56.56.986-.376 1.541-.935 1.233-1.243zm15.602-.943c1.243-1.586 1.208-1.621-.378-.378-.962.755-1.75 1.543-1.75 1.75 0 .823.821.294 2.128-1.372zm35.372-.526c1.9-.467 1.893-.498-.128-.608-1.17-.064-2.745.671-3.5 1.634-1.193 1.522-1.177 1.601.128.608.825-.629 2.4-1.364 3.5-1.634zm-30.173-7.175c16.172-12.232 17.096-13.055 16.233-14.452-1.124-1.819-2.55-1.001-16.677 9.567-12.013 8.985-13.921 10.965-12.216 12.67 1.035 1.035.85 1.15 12.66-7.785zm22.235 4.551c-1.518-2.456-9.762-7.3-10.747-6.315-1.243 1.243 9.26 9.405 10.548 8.198.474-.445.564-1.292.199-1.883zm77.88 1.992c.31-.499.14-1.961-.377-3.25-.516-1.288-.967-1.78-1.002-1.092-.124 2.448-2.123 1.2-2.7-1.686-.675-3.372-1.846-4.027-5.363-2.996l-2.5.733 2.763.1c2.244.08 3.174.944 4.95 4.599 2.176 4.481 3.163 5.319 4.23 3.592zM220 506c.589-1.1.93-2 .757-2-.172 0-1.083.9-2.025 2s-1.283 2-.757 2c.525 0 1.436-.9 2.025-2zm15.128.25c1.243-1.586 1.208-1.621-.378-.378-.963.755-1.75 1.543-1.75 1.75 0 .823.821.294 2.128-1.372zm28.336-.308c-.288-.467-1.973-1.807-3.744-2.978l-3.22-2.13 2.877 2.473c1.583 1.36 2.572 2.966 2.199 3.57-.427.69-.104.88.866.507.85-.327 1.31-.975 1.022-1.442zm4.265.454c-.332-.332-1.195-.368-1.916-.08-.798.32-.561.557.604.605 1.054.043 1.644-.193 1.312-.525zm-22.172-3.333c-.964-1.065-1.43-2.46-1.034-3.1.51-.824.039-.799-1.615.086-2.326 1.245-2.326 1.252-.223 2.03 1.16.43 2.408 1.262 2.772 1.85.363.59.93 1.071 1.257 1.071.328 0-.193-.872-1.157-1.937zM339 500.378c0-3.045-.23-3.432-1.444-2.425-1.135.942-1.207 1.718-.34 3.623 1.488 3.264 1.784 3.065 1.784-1.198zm-13.297-2.938c.713.273 1.297.035 1.297-.53 0-.566.45-.75 1-.41s1 .141 1-.441c0-1.416-.598-1.344-4.599.555-3.29 1.561-4.207 3.228-2.651 4.82.412.423 1.179-.415 1.703-1.862.554-1.529 1.496-2.422 2.25-2.132zm-97.575 1.81c1.243-1.586 1.208-1.621-.378-.378-.963.755-1.75 1.543-1.75 1.75 0 .823.821.294 2.128-1.372zm25.57-1.043c-2.557-2.67-2.604-2.902-1.049-5.25l1.627-2.457-2.388 2.296c-1.313 1.262-3.288 2.975-4.388 3.805-1.903 1.436-1.885 1.453.375.352 2.06-1.004 2.72-.813 4.977 1.445 3.5 3.499 4.224 3.335.846-.191zm84.27-4.783c.018-1.141-1.073-3.114-2.424-4.383-1.351-1.27-3.668-4.056-5.149-6.193-2.82-4.07-4.038-4.45-2.914-.909.365 1.15 1.058 1.846 1.54 1.548 1.132-.7 2.979 2.745 2.979 5.554 0 1.406.473 1.991 1.34 1.659.738-.283 1.947-.14 2.686.316 1.11.686 1.117 1.107.037 2.408-.72.867-.958 1.576-.53 1.576.427 0-.08.982-1.128 2.181l-1.905 2.182 2.719-1.932c1.495-1.062 2.732-2.865 2.75-4.007zm-104.212 1.155c-.14-.055-1.381-.996-2.756-2.09l-2.5-1.989 1.888 2.231c1.629 1.925 1.7 2.474.517 4-1.14 1.47-.993 1.447.868-.142 1.232-1.05 2.124-1.955 1.983-2.01zm86.979-11.329c-.206-2.612-.374-.475-.374 4.75s.168 7.362.374 4.75.206-6.888 0-9.5zm12.015 12.06c-.962-.25-1.75-1.324-1.75-2.383 0-1.06-.477-1.927-1.059-1.927s-.877.338-.654.75c.222.412.685 1.538 1.027 2.5.343.963 1.425 1.698 2.405 1.634 1.67-.109 1.671-.145.031-.573zm-8.528-5.979l-1.015-3.831-.104 4.95c-.076 3.65.19 4.656 1.016 3.831.796-.796.826-2.222.103-4.95zm4.774-.831c.442-.55.197-1.558-.543-2.24-1.896-1.746-2.492-.22-1.692 4.334.559 3.183.755 3.443 1.058 1.406.205-1.375.734-2.95 1.177-3.5zm-101.637.992c-.319-.829.224-2.741 1.206-4.25 1.498-2.302 1.522-2.527.148-1.402-.9.737-1.908 2.2-2.242 3.25-.752 2.372-4.471 2.57-4.471.239 0-.92.787-2.607 1.75-3.75 1.718-2.041 1.713-2.048-.291-.363-1.936 1.628-2.22 1.613-5.5-.293l-3.459-2.009 3.12 2.793c1.717 1.536 3.378 3.548 3.692 4.47.313.924 1.834 1.869 3.379 2.101 1.545.232 2.907.49 3.028.572.12.083-.042-.528-.36-1.358zm8.073.617c.303-.49-.547-1.61-1.888-2.488-2.754-1.804-4.493-.47-2.508 1.923 1.355 1.632 3.562 1.916 4.396.565zm25.985-.974c.216-.35-.91-.635-2.501-.635-1.592 0-3.077.478-3.301 1.062-.432 1.126 5.093.72 5.802-.427zM340 490.622c0-.207-.787-.995-1.75-1.75-1.586-1.243-1.621-1.208-.378.378 1.307 1.666 2.128 2.195 2.128 1.372zm-100.876-2.889c-.988-.98-1.102-.865-.56.56.376.986.935 1.541 1.243 1.233.308-.307 0-1.114-.683-1.793zm-4.257-3.019c-1.448-1.218-2.941-3.227-3.317-4.464-.492-1.617-1.453-2.25-3.417-2.25-1.503 0-3.273-.54-3.934-1.2-.887-.888-.874-.504.05 1.467.688 1.467 1.401 2.232 1.584 1.7.57-1.65 4.198-1.062 4.822.783.56 1.66 5.278 6.275 6.345 6.21.275-.018-.685-1.028-2.133-2.246zm24.478.743c-.326-.849-.807-1.329-1.069-1.067-.262.262-.18.957.183 1.543.986 1.596 1.562 1.286.886-.476zm-5.42-2.207c-1.334-1.512-2.442-2.842-2.463-2.955-.02-.112-.556.626-1.19 1.641-.973 1.559-.879 1.774.608 1.385.968-.253 2.346.246 3.062 1.11.717.863 1.551 1.569 1.855 1.569.303 0-.54-1.238-1.873-2.75zm6.646-1.348c-1.473-1.75-2.478-3.702-2.234-4.337.274-.715-.562-1.092-2.197-.989-3.901.245-4.14.33-4.14 1.46 0 .712.603.712 1.937-.002 1.659-.888 2.4-.39 5.168 3.463 1.778 2.475 3.437 4.295 3.688 4.044.25-.25-.75-1.888-2.222-3.638zm75.429 3.72c0-.207-.787-.995-1.75-1.75-1.586-1.243-1.621-1.208-.378.378 1.307 1.666 2.128 2.195 2.128 1.372zm-108.872-2.372c1.243-1.586 1.208-1.621-.378-.378-.963.755-1.75 1.543-1.75 1.75 0 .823.821.294 2.128-1.372zm17.968-.318c1.597-1.138 2.904-2.628 2.904-3.312 0-2.308 4.038-5.62 6.853-5.62 1.917 0 6.624-2.809 15.211-9.075C284.171 454.63 287 452.195 287 450.35c0-1.377 3.84-3.641 8-4.716 1.375-.356 3.777-1.781 5.338-3.169 2.557-2.272 2.733-2.823 1.776-5.569-.584-1.676-2.238-4.444-3.675-6.152-1.907-2.266-2.495-3.908-2.177-6.075.37-2.52-5.374-22.767-7.424-26.17-.332-.55-.917-2.463-1.3-4.25-.383-1.789-2.247-5.106-4.14-7.372-2.868-3.433-3.342-4.658-2.84-7.338.369-1.963-.009-4.683-.968-6.98l-1.573-3.763-4.758.65c-2.618.358-6.559.593-8.759.524-16.005-.505-38.817.101-43.344 1.152-4.125.959-5.774.972-7.236.06-2.756-1.722-10.414-1.497-11.948.35-.7.844-1.564 4.712-1.92 8.597-.464 5.064-1.118 7.327-2.31 7.995-.915.512-2.099 2.38-2.631 4.153-.532 1.772-2.782 9.026-5 16.12-3.085 9.866-3.899 13.872-3.464 17.045.477 3.48.154 4.64-2.011 7.213-1.419 1.686-3.07 4.355-3.669 5.93-.996 2.622-.807 3.1 2.222 5.613 1.821 1.511 4.4 2.76 5.732 2.774 2.665.03 6.079 2.616 6.079 4.604C195 453.61 225.575 475 228.48 475c2.717 0 6.52 3.137 6.52 5.378 0 1.54 3.771 4.489 5.846 4.57.74.028 2.652-.879 4.25-2.016zM268.5 481c.995-1.1 1.585-2 1.31-2-.275 0-1.315.9-2.31 2-.995 1.1-1.585 2-1.31 2 .275 0 1.315-.9 2.31-2zm-48.615-3.46c-1.646-1.122-6.692-4.74-11.213-8.04-10.909-7.963-16.13-11.5-16.976-11.5-2.056 0-.163 3.164 3.554 5.94 10.791 8.057 20.51 14.875 23.248 16.307 4.198 2.197 5.334-.02 1.387-2.708zm50.615-1.63c2.2-1.653 6.25-4.52 9-6.373 8.654-5.828 11.915-9.012 11.184-10.918-.584-1.522-1.187-1.335-5.086 1.577A2334.44 2334.44 0 0 1 271.6 470.5c-8.978 6.564-10.519 8.248-8.969 9.798.714.713 2.137-.08 7.869-4.388zm54.63 1.02c1.483-.793 2.432-.73 3.684.25 1.512 1.184 1.545 1.14.322-.42-.949-1.21-2.125-1.55-3.86-1.114-2.371.595-2.46.465-1.778-2.635.5-2.28.383-3.055-.391-2.577-.609.376-1.107.18-1.107-.434 0-.615-.518-.798-1.151-.406-.798.493-.586 1.125.69 2.059 1.736 1.268 1.7 1.356-.598 1.505-1.342.086-3.04.13-3.774.097-.83-.038-.482.845.924 2.342 2.488 2.648 4.035 2.941 7.039 1.334zm-165.62-3.124c-.008-2.555.49-3.334 2.49-3.9 2.1-.594 2.172-.723.45-.806-1.127-.055-2.59.44-3.25 1.1-.782.782-1.2.824-1.2.122 0-.592.675-1.637 1.5-2.322s1.464-1.977 1.421-2.872c-.066-1.365-.171-1.386-.65-.128-.313.825-1.402 2.573-2.42 3.885-1.018 1.312-1.798 3.562-1.733 5 .116 2.548.138 2.538.882-.385.734-2.884.768-2.9.882-.417.093 2.048.83 3.917 1.544 3.917.052 0 .089-1.437.084-3.194zm59.49-.184c0-.207-.787-.995-1.75-1.75-1.586-1.243-1.621-1.208-.378.378 1.307 1.666 2.128 2.195 2.128 1.372zm46.128-1.372c1.243-1.586 1.208-1.621-.378-.378-.963.755-1.75 1.543-1.75 1.75 0 .823.821.294 2.128-1.372zM201 471.622c0-.207-.787-.995-1.75-1.75-1.586-1.243-1.621-1.208-.378.378 1.307 1.666 2.128 2.195 2.128 1.372zm68.128-2.372c1.243-1.586 1.208-1.621-.378-.378-1.666 1.307-2.195 2.128-1.372 2.128.207 0 .995-.787 1.75-1.75zm-99.604-2.325c.362-1.142.393-2.342.067-2.667-.325-.325-.591.136-.591 1.026 0 .889-.787 2.075-1.75 2.636-1.596.93-1.602 1.022-.067 1.05.925.016 1.979-.904 2.34-2.045zM197 468.568c0-.237-1.462-1.4-3.25-2.583l-3.25-2.15 3 2.577c3.077 2.644 3.5 2.905 3.5 2.156zM325.5 468c-.34-.55-1.829-.947-3.309-.882l-2.691.119 3 .763c1.65.42 3.14.817 3.309.882.17.065.03-.332-.309-.882zm-52.372-1.75c1.243-1.586 1.208-1.621-.378-.378-1.666 1.307-2.195 2.128-1.372 2.128.207 0 .995-.787 1.75-1.75zm44.406.36c1.187-1.188 1.05-1.456-.935-1.836-1.863-.356-2.23-.08-1.846 1.39.576 2.202.962 2.264 2.78.445zm-27.406-1.36c1.243-1.586 1.208-1.621-.378-.378-1.666 1.307-2.195 2.128-1.372 2.128.207 0 .995-.787 1.75-1.75zm35.64-.25c-1.392-2.23-1.46-2.244-4.268-.91-1.882.895-1.87.927.213.534 1.218-.23 2.735.211 3.373.98 1.709 2.059 2.119 1.697.682-.604zm-157.362-5.009c1.718-4.778 1.641-7.991-.192-7.991-.826 0-4.214 9.516-4.214 11.838 0 .639.586 1.162 1.302 1.162.717 0 2.113-2.254 3.104-5.009zm108.722 3.259c1.243-1.586 1.208-1.621-.378-.378-.963.755-1.75 1.543-1.75 1.75 0 .823.821.294 2.128-1.372zm-88.343-1c-.838-.963-1.391-2.324-1.23-3.025.162-.701.066-.814-.213-.25-.59 1.187-5.342 1.408-5.342.248 0-.428.756-1.89 1.68-3.25 1.643-2.416 1.637-2.434-.25-.794-1.449 1.26-2.43 1.431-3.93.685-1.727-.858-1.787-.815-.438.321.86.723 1.86 2.112 2.226 3.085.366.974 2.035 2.045 3.71 2.38 1.674.334 3.286 1 3.582 1.48.296.478.806.87 1.134.87.328 0-.09-.787-.929-1.75zm14.718-.245c-.338-.547-1.602-1.477-2.809-2.067-1.89-.924-1.848-.789.306.973 2.8 2.29 3.406 2.555 2.503 1.094zm95.497-.502c0-1-4.12-1.063-4.939-.076-.769.926-.295 1.114 1.963.783 1.637-.24 2.976-.558 2.976-.707zm21-1.435c0-.944-1.608-6.184-3.574-11.643-1.965-5.459-4.258-11.838-5.094-14.175-1.42-3.97-3.488-5.425-4.767-3.355-.457.74 5.308 18.88 9.322 29.336 1.152 2.999 4.113 2.881 4.113-.163zm-38.872.182c1.243-1.586 1.208-1.621-.378-.378-1.666 1.307-2.195 2.128-1.372 2.128.207 0 .995-.787 1.75-1.75zm4-3c1.243-1.586 1.208-1.621-.378-.378-.963.755-1.75 1.543-1.75 1.75 0 .823.821.294 2.128-1.372zm9.872 1.372c0-.207-.787-.995-1.75-1.75-1.586-1.243-1.621-1.208-.378.378 1.307 1.666 2.128 2.195 2.128 1.372zm1.842-2.622c-2.24-3.029-3.562-4.058-2.249-1.75.931 1.636 3.613 4.75 4.092 4.75.206 0-.623-1.35-1.843-3zm5.158 1.607c0-.766-.668-1.65-1.485-1.963-1.243-.477-1.285-.249-.26 1.393 1.456 2.33 1.745 2.425 1.745.57zm-126.152-3.2c2.432 1.502 1-.142-2.098-2.41-1.788-1.309-2.65-1.64-1.917-.736.804.991 1.06 2.555.646 3.941-.653 2.188-.616 2.207.766.395.798-1.046 1.97-1.582 2.603-1.19zm16.591.931c1.17.45 1.107-.078-.315-2.623-2.192-3.924-7.124-4.963-7.124-1.5 0 2.009.08 2.023 1.937.342 3.51-3.177 5.486.109 2.313 3.847-1.64 1.932-1.641 1.977-.013.717.956-.74 2.397-1.092 3.202-.783zm-4.311-1.088c1.243-1.586 1.208-1.621-.378-.378-1.666 1.307-2.195 2.128-1.372 2.128.207 0 .995-.787 1.75-1.75zm103.14-1.332c-.795-3.04 2.442-3.514 5.533-.81 1.484 1.3 2.137 1.716 1.449.927-.688-.79-1.25-2.206-1.25-3.149 0-2.66-4.838-.912-7.683 2.778l-2.367 3.068 2.407-.46c1.779-.34 2.277-.954 1.911-2.354zm15.732.512c0-.275-.9-.019-2 .57s-2 1.295-2 1.57c0 .275.9.019 2-.57s2-1.295 2-1.57zm14.122-1.105c-1.179-2.027-1.463-1.378-.498 1.136.342.894.834 1.415 1.091 1.157.258-.257-.009-1.29-.593-2.293zm-144.091-5.187c-10.58-8.255-19.773-14.638-21.084-14.638-3.427 0-1.185 2.715 7.076 8.57 4.988 3.537 10.961 7.843 13.273 9.57 2.982 2.228 4.564 2.85 5.441 2.138.92-.745-.287-2.191-4.706-5.64zm133.333 5.368c-.316-.822-1.024-1.216-1.576-.875-.616.38-.479.95.355 1.479 1.821 1.153 1.883 1.123 1.22-.604zm-6.298-.541c1.855-.993 2.603-3.962 1.321-5.245-.337-.337-1.903.34-3.48 1.506-2.199 1.626-2.61 2.428-1.764 3.447 1.325 1.596 1.466 1.607 3.923.292zM170 449.438c0-.034-1.28-1.008-2.845-2.165l-2.845-2.104.414 2.166c.289 1.513 1.146 2.165 2.845 2.165 1.337 0 2.431-.028 2.431-.062zm14-.816c0-.207-.787-.995-1.75-1.75-1.586-1.243-1.621-1.208-.378.378 1.307 1.666 2.128 2.195 2.128 1.372zm-5.002-4.124c-.743-.895-1.017-2.817-.678-4.75.517-2.956.467-3.04-.56-.93-.785 1.617-1.722 2.164-3.09 1.806-1.35-.353-.905.39 1.434 2.39 3.784 3.237 4.767 3.74 2.894 1.484zm124.13-.248c1.243-1.586 1.208-1.621-.378-.378-1.666 1.307-2.195 2.128-1.372 2.128.207 0 .995-.787 1.75-1.75zm17.57-.25c.926-1.227.711-1.5-1.184-1.5-1.938 0-2.156.3-1.334 1.836.54 1.01 1.073 1.684 1.184 1.5.111-.185.711-1.011 1.334-1.836zm-13.336-.5c-.317-.825-1.033-1.5-1.591-1.5-.586 0-.489.635.229 1.5.685.825 1.4 1.5 1.591 1.5.19 0 .087-.675-.23-1.5zM159 441.622c0-.207-.787-.995-1.75-1.75-1.586-1.243-1.621-1.208-.378.378 1.307 1.666 2.128 2.195 2.128 1.372zm146.683-2.81c-.32-.797-.556-.56-.604.605-.043 1.054.193 1.644.525 1.312.332-.332.368-1.195.08-1.916zm-134.996-1.196c-.62-1.312-1.695-2.166-2.392-1.899-.875.336-.576 1.062.97 2.351 1.229 1.026 2.305 1.88 2.39 1.899.087.018-.35-1.04-.968-2.351zm155.082-1.257c5.005-3.447 5.198-3.738 3.63-5.47-1.593-1.761-1.818-1.712-6.027 1.31-3.014 2.165-4.372 3.864-4.372 5.47 0 3.08.55 2.973 6.769-1.31zm2.359 1.891c1.243-1.586 1.208-1.621-.378-.378-1.666 1.307-2.195 2.128-1.372 2.128.207 0 .995-.787 1.75-1.75zm-174.954-1.564c-2.688-2.862-2.716-3.885-.174-6.186 1.1-.995 2-2.482 2-3.303 0-.821-1.018.017-2.261 1.863-1.244 1.845-3.381 3.667-4.75 4.048-1.467.408-1.793.734-.795.792.932.055 2.957 1.21 4.5 2.568 3.55 3.124 4.316 3.236 1.48.218zm23.177-.919c.654-2.5-.605-4.346-2.264-3.32-1.2.741-1.467 3.84-.42 4.886 1.21 1.211 2.092.697 2.684-1.566zm141.989-2.997c2.122-1.7 2.105-1.71-.922-.595-2.608.962-3 1.535-2.55 3.73.45 2.196.593 2.287.922.595.214-1.1 1.362-2.779 2.55-3.73zm14.501 1.899l2.19-2.33-2.157-1.92c-2.15-1.912-2.153-1.911-.81.275 1.172 1.909 1.105 2.462-.513 4.25-2.577 2.847-1.409 2.598 1.29-.275zM166 435.622c0-.207-.787-.995-1.75-1.75-1.586-1.243-1.621-1.208-.378.378 1.307 1.666 2.128 2.195 2.128 1.372zm-21-2.967c0-.19-1.012-1.202-2.25-2.25l-2.25-1.905 1.905 2.25c1.79 2.114 2.595 2.705 2.595 1.905zm17-.033c0-.207-.787-.995-1.75-1.75-1.586-1.243-1.621-1.208-.378.378 1.307 1.666 2.128 2.195 2.128 1.372zm8.532-12.842c1.328-1.579 2.933-4.762 3.567-7.075.634-2.313 2.898-9.744 5.031-16.513 2.976-9.442 3.64-12.755 2.85-14.23-1.368-2.555-.23-6.748 2.027-7.464 1.632-.518 3.501-3.323 2.729-4.096-1.538-1.538-28.917.295-37.174 2.489-4.366 1.16-9.091 2.103-10.5 2.097-1.41-.007-7.488-1.807-13.51-4L114.607 367l-21.553.005c-20.844.005-21.466.063-18.916 1.75 1.45.96 5.275 3.658 8.5 5.996 22.005 15.955 23.33 16.695 37.006 20.683l13.067 3.81 6.26 8.87c5.252 7.44 6.863 9.033 9.987 9.874 3.585.965 6.362 3.183 7.163 5.717.209.663 2.855 3.052 5.88 5.309l5.5 4.103.308-5.234c.222-3.764.987-6.039 2.724-8.103zm9.894 11.246c-.536-.536-2.763-1.594-4.95-2.35-4.509-1.562-5.607-4.944-1.781-5.488 1.4-.2 2-.817 1.66-1.707-.417-1.086-1.073-.896-2.962.855-1.985 1.84-2.306 2.847-1.768 5.537.361 1.809.966 2.788 1.344 2.177.494-.799 1.79-.714 4.609.303 5.065 1.826 4.987 1.812 3.848.673zm132.696-1.701c-1.179-2.027-1.463-1.378-.498 1.136.342.894.834 1.415 1.091 1.157.258-.257-.009-1.29-.593-2.293zm28.32 1.768c.309-.498-.34-.671-1.44-.383-2.336.61-2.63 1.29-.561 1.29.793 0 1.693-.408 2.001-.907zm-189.457-3.465c-.01-.68-.352-.597-.862.207-.643 1.014-.976.834-1.39-.75-.573-2.19-3.16-2.822-4.26-1.041-.963 1.557 1.436 3.928 3.264 3.227 1.178-.452 1.369-.242.735.81-.73 1.211-.608 1.218.836.047.93-.755 1.685-1.88 1.677-2.5zm153.456.84c1.068-.807 1.491-1.468.941-1.468-.55 0-1.873.66-2.94 1.468-1.068.808-1.492 1.468-.942 1.468s1.874-.66 2.941-1.468zm18.61-3.968c3.43-2.75 7.597-5.722 9.262-6.605s6.438-5.797 10.607-10.92c4.258-5.23 8.676-9.651 10.08-10.086 20.351-6.294 23.587-7.528 27.016-10.306 3.779-3.062 23.969-17.691 28.438-20.605 2.123-1.385.417-1.496-18.81-1.229-18.226.254-22.041.584-27.644 2.394-3.575 1.155-6.95 2.422-7.5 2.815-.55.394-3.734 1.715-7.075 2.936l-6.075 2.219-11.758-3.564c-6.467-1.96-12.279-3.243-12.915-2.85-.636.394-5.73.595-11.321.449-5.6-.148-10.426.156-10.746.675-.32.518.416 2.211 1.636 3.763 1.378 1.751 2.462 4.924 2.859 8.367.352 3.051 1.633 8.022 2.848 11.047 1.214 3.025 3.343 8.875 4.729 13 3.01 8.956 3.964 10.9 6.566 13.394 1.521 1.457 1.86 2.767 1.468 5.687-.499 3.72-.055 5.229 1.38 4.69.397-.15 3.527-2.521 6.956-5.271zm16.46 4.484c.345-.56 1.04-.76 1.547-.448.505.312.646-.144.312-1.013-.527-1.375-.754-1.391-1.738-.123-.623.802-2.257 1.654-3.632 1.893-2.492.433-2.492.435.191.57 1.48.076 2.974-.32 3.32-.88zM144.66 421.13c1.603-.933 1.626-1.074.173-1.1-.916-.017-1.864.532-2.106 1.219-.318.903-1.244.677-3.334-.814-4.637-3.308-6.146-3.872-2.893-1.082 1.65 1.416 3.338 2.59 3.75 2.61 1.426.068.744 3.101-.834 3.707-1.243.476-1.304.78-.285 1.41.887.548 1.677-.097 2.493-2.039.657-1.563 2.023-3.323 3.036-3.911zm184.827 5.226c.972.372 1.513-.006 1.513-1.06 0-.902.787-2.549 1.75-3.66.963-1.112-.388-.264-3 1.883-2.612 2.147-4.75 4.088-4.75 4.314 0 .226.67-.145 1.487-.823.818-.68 2.168-.974 3-.654zm9.782-.33c.88-1.258 2.443-1.936 4.307-1.87 1.608.057 7.115-1.369 12.237-3.169 9.587-3.37 10.717-4.29 17.187-14.012.825-1.24 2.424-3.43 3.554-4.865 1.13-1.436 2.978-4.112 4.105-5.946 1.128-1.834 3.354-4.194 4.946-5.243 2.192-1.445 2.455-1.91 1.086-1.915-1.049-.004-1.526-.465-1.136-1.096.37-.599-1.168.245-3.419 1.875-2.25 1.63-8.04 4.162-12.864 5.626-16.71 5.07-16.279 4.804-23.62 14.533-4.098 5.429-7.603 9.095-8.945 9.355-1.84.357-1.75.45.543.564 3.152.156 3.921 3.136.809 3.136-2.301 0-3.454 1.527-2.679 3.548.772 2.012 2.253 1.814 3.889-.521zm-3.269-.444c0-.87.712-1.583 1.583-1.583s1.406.534 1.188 1.188c-.618 1.854-2.771 2.161-2.771.395zM177.5 426c-1.1-.473-2.675-.86-3.5-.86-.945 0-.76.318.5.86 1.1.473 2.675.86 3.5.86.945 0 .76-.318-.5-.86zm126.5 0c.825-.533 1.05-.97.5-.97s-1.675.437-2.5.97c-.825.533-1.05.97-.5.97s1.675-.437 2.5-.97zm8.736-1.5c.13-1.1-.88-3.35-2.245-5-2.263-2.737-2.481-2.813-2.486-.867-.003 1.295.781 2.34 1.995 2.657 2.689.703 2.539 3.545-.25 4.732-2.217.944-2.214.955.25.718 1.655-.159 2.58-.916 2.736-2.24zm-168.354-.052c.341-.89.173-1.291-.393-.94-.544.335-.989 1.034-.989 1.551 0 1.438.717 1.122 1.382-.61zm6.742-.715c-.988-.98-1.102-.865-.56.56.376.986.935 1.541 1.243 1.234.308-.308 0-1.115-.683-1.794zm32.407.317c-.368-.595-1.136-.794-1.707-.441-.672.415-.57.93.29 1.462 1.605.991 2.335.465 1.417-1.02zm-30.952-1.824c-1.722-1.65-1.744-1.628-.479.479.729 1.212 1.54 1.989 1.803 1.726.263-.263-.333-1.255-1.324-2.205zm149.558.986c-.722-.24-1.787.038-2.369.62-.742.742-.351.872 1.312.437 1.352-.354 1.806-.807 1.057-1.057zM136.727 422c-1.398-1.1-3.222-2-4.053-2-2.723 0-4.673-1.184-4.704-2.857-.027-1.415-.178-1.39-1.092.182-1.266 2.177-1.669 1.828 5.122 4.434 6.985 2.681 7.888 2.727 4.727.241zm200.773-.276c1.9-.467 1.893-.498-.128-.608-1.17-.064-2.745.671-3.5 1.634-1.193 1.522-1.177 1.601.128.608.825-.629 2.4-1.364 3.5-1.634zm-188.77.672c-.333-.332-1.196-.368-1.917-.08-.798.32-.561.557.604.605 1.054.043 1.644-.193 1.312-.525zm157.763-.385c.35-.566-.051-.734-.941-.393-1.732.665-2.05 1.382-.611 1.382.518 0 1.216-.445 1.552-.989zm-185.362-2.353c-.612-.738-.78-1.71-.372-2.16.407-.45.15-.477-.572-.06s-2.097.151-3.055-.59c-.959-.741-.473-.11 1.078 1.402 2.905 2.831 4.9 3.793 2.921 1.408zm28.598.738c-.332-.332-1.195-.368-1.916-.08-.798.32-.561.557.604.605 1.054.043 1.644-.193 1.312-.525zm35.668-15.43c2.435-7.957 4.74-15.254 5.122-16.216.512-1.29.206-1.746-1.162-1.736-1.949.014-2.192.621-7.808 19.486-1.474 4.95-3.077 9.983-3.563 11.184-.888 2.195.65 3.842 2.249 2.406.404-.362 2.727-7.169 5.162-15.125zm119.266 13.97c1.008-1.007-2.723-13.454-8.511-28.398-2.021-5.216-3.753-6.74-4.74-4.17-.47 1.225 4.931 18.71 9.693 31.382.93 2.473 1.936 2.809 3.558 1.187zM144 418.623c0-.207-.787-.995-1.75-1.75-1.586-1.243-1.621-1.208-.378.378 1.307 1.666 2.128 2.195 2.128 1.372zm-11.022-1.372c-.012-.412-.94-1.875-2.06-3.25l-2.038-2.5 1.585 3.25c1.507 3.088 2.561 4.137 2.513 2.5zm3.333-3.783c-2.084-2.493-3.962-4.015-4.172-3.384-.315.946 6.37 7.917 7.592 7.917.203 0-1.336-2.04-3.42-4.533zm-9.85 2.138c1.478-.767 2.255-1.662 1.727-1.989-.529-.327-1.517.076-2.197.895-1.656 1.995-3.991 1.891-3.991-.178 0-.916-.28-1.386-.624-1.043-.83.83.317 3.71 1.478 3.71.505 0 2.127-.628 3.606-1.395zm-5.723-8.07c-.18-1.353-.6-2.73-.932-3.063-.332-.332-.388 1.001-.123 2.962.368 2.737.126 3.566-1.042 3.566-.838 0-1.801-.45-2.141-1-.34-.55-1.055-1-1.589-1s.036 1.362 1.267 3.027l2.238 3.027 1.326-2.53c.729-1.392 1.177-3.637.996-4.99zM141 414.621c0-.207-.787-.995-1.75-1.75-1.586-1.243-1.621-1.208-.378.378 1.307 1.666 2.128 2.195 2.128 1.372zM125.5 413c.34-.55.141-1-.441-1s-1.059.45-1.059 1 .198 1 .441 1 .72-.45 1.059-1zm-12.5-2.378c0-.207-.787-.995-1.75-1.75-1.586-1.243-1.621-1.208-.378.378 1.307 1.666 2.128 2.195 2.128 1.372zm17.264-3.473c.18-2.381 1.697-2.788 3.536-.949.66.66 1.2.97 1.2.687 0-.282-1.42-1.835-3.155-3.45-1.735-1.615-2.816-2.346-2.402-1.624.44.766-.018 2.192-1.095 3.422-1.016 1.16-1.29 1.783-.61 1.385.852-.498 1.043-.213.611.912-.345.9-.902 1.221-1.238.714-.336-.507-1.566-1.162-2.734-1.457-1.696-.428-2.025-.16-1.637 1.327.268 1.024.883 1.617 1.366 1.319.483-.299 1.67-.097 2.636.449 2.08 1.174 3.299.228 3.522-2.735zm7.736 3.473c0-.207-.787-.995-1.75-1.75-1.586-1.243-1.621-1.208-.378.378 1.307 1.666 2.128 2.195 2.128 1.372zm157.683-1.81c-.32-.797-.556-.56-.604.605-.043 1.054.193 1.644.525 1.312.332-.332.368-1.195.08-1.916zm9.44-2.487c-1.18-2.027-1.464-1.378-.5 1.136.343.894.835 1.415 1.092 1.157.258-.257-.009-1.29-.593-2.293zm-191.87-.78c-.258-1.352-1.601-3.198-2.984-4.105-2.694-1.765-2.522-1.172 1.105 3.81 2.438 3.349 2.464 3.353 1.88.294zm4.354-1.016c-.119-.81-.6-1.822-1.072-2.25-.47-.428-.532-.217-.136.471.419.728.173 1.256-.59 1.265-.951.011-.899.28.191.985 1.918 1.24 1.86 1.256 1.607-.471zm4.759-2.68c-6.35-2.411-6.723-2.312-1.866.498 2.2 1.272 4.614 2.097 5.366 1.832.75-.265-.824-1.313-3.5-2.33zm-16.447-1.261c-2.55-4.322-.92-5.704 3.164-2.685l2.893 2.14-1.102-2.42c-.649-1.424-2.255-2.65-3.906-2.98-1.542-.308-4.529-2.03-6.636-3.828-2.383-2.032-3.076-2.37-1.832-.895 1.511 1.792 1.677 2.485.68 2.833-.939.327-.71.888.792 1.94 1.161.813 3.223 3.24 4.582 5.393 3.035 4.808 4.147 5.217 1.365.502zm75.764-3.776c-.32-.797-.556-.56-.604.605-.043 1.054.193 1.644.525 1.312.332-.332.368-1.195.08-1.916zm-66.954-.416c-.332-.332-1.195-.368-1.917-.08-.797.32-.56.557.605.605 1.054.043 1.644-.193 1.312-.525zM94 390.5c-.685-.825-.91-1.5-.5-1.5.41 0 .244-.604-.369-1.342-.612-.738-.882-1.574-.598-1.858.283-.283-.283-1.142-1.259-1.908-1.613-1.266-1.65-1.233-.402.358.755.963 1.038 1.75.628 1.75-.41 0-.185.675.5 1.5s.91 1.5.5 1.5c-.41 0-.185.675.5 1.5s1.47 1.5 1.745 1.5c.275 0-.06-.675-.745-1.5zm99.777-5.771c-1.137-.425-2.302-.537-2.589-.25-.287.286.004.521.645.521.642 0 1.167.986 1.167 2.191 0 2.138.035 2.144 1.423.25 1.273-1.738 1.206-2.022-.646-2.712zm196.378 2.604c-.007-.458.7-1.62 1.571-2.583.871-.963 1.234-1.75.807-1.75-.428 0-.16-.787.595-1.75 1.248-1.591 1.211-1.624-.402-.357-.976.765-1.542 1.624-1.259 1.907.687.687-1.444 3.2-2.712 3.2-.55 0-.404-.788.324-1.75 1.123-1.484 1.113-1.562-.067-.51-2.006 1.787-2.182 4.262-.25 3.52 1.145-.438 1.345-.218.742.82-.454.781-.49 1.12-.08.753.408-.366.737-1.041.73-1.5zm-99.857-4.233c1.77-.933 1.809-1.035.202-.517-5.17 1.665-5.486 1.63-6.427-.719-.52-1.3-.975-1.705-1.01-.9-.084 1.947 4.333 6.158 4.735 4.516.164-.67 1.289-1.74 2.5-2.38zm7.02-.795c-.354-2.583-1.73-6.295-3.06-8.25-2.154-3.17-2.344-3.27-1.756-.915.562 2.248.24 2.806-2.171 3.76-2.367.938-2.42 1.028-.331.547 4.822-1.11 5.497-.958 5.82 1.303.226 1.596-.21 2.284-1.5 2.366-1.672.107-1.678.153-.07.573.961.252 2.023 1.55 2.358 2.884 1.004 4.003 1.398 2.747.71-2.268zm96.81 2.945c1.243-1.586 1.208-1.621-.378-.378-1.666 1.307-2.195 2.128-1.372 2.128.207 0 .995-.787 1.75-1.75zm-205.795-1.366c2.027-.109 2.038-.148.167-.608-1.1-.27-2.5-.897-3.113-1.392-.786-.636-.958-.09-.585 1.857.291 1.518.717 2.197.947 1.509.23-.688 1.393-1.302 2.584-1.366zM85 384.568c0-.237-1.462-1.4-3.25-2.583l-3.25-2.15 3 2.577c3.077 2.644 3.5 2.905 3.5 2.156zm313.477-3.605c-.275-.445.88-1.794 2.569-2.996 1.688-1.202 2.822-2.432 2.52-2.734-.302-.302.01-1.248.693-2.102.682-.854-.213-.533-1.99.713-1.778 1.246-3.128 2.68-3 3.187.127.507-.903 1.944-2.29 3.195-1.387 1.25-2.084 1.936-1.55 1.524 1.84-1.42 2.813-.746 1.443 1-1.242 1.584-1.207 1.62.367.387.956-.75 1.514-1.728 1.238-2.174zM400.5 376c.34-.55 1.068-1 1.618-1s.722.45.382 1c-.34.55-1.068 1-1.618 1s-.722-.45-.382-1zm-314.925 5.312c-.136-.929-1.784-2.781-3.661-4.116l-3.414-2.427 3 2.602c1.65 1.432 3.056 3.059 3.125 3.616.201 1.632.35 2.013.787 2.013.226 0 .3-.76.163-1.688zm108.875.824c-1.2-1.09-8.066-3.422-7.054-2.395.411.417 2.178 1.287 3.926 1.933 4.006 1.48 4.294 1.522 3.128.462zm2.969-2.487c-.346-.9-1.027-1.391-1.514-1.09-.487.3-.327 1.153.355 1.893 1.534 1.666 1.986 1.352 1.159-.803zM289 381c.825-.533 1.05-.97.5-.97s-1.675.437-2.5.97c-.825.533-1.05.97-.5.97s1.675-.437 2.5-.97zm-211-1.378c0-.207-.787-.995-1.75-1.75-1.586-1.243-1.621-1.208-.378.378 1.307 1.666 2.128 2.195 2.128 1.372zm2-1c0-.207-.787-.995-1.75-1.75-1.586-1.243-1.621-1.208-.378.378 1.307 1.666 2.128 2.195 2.128 1.372zm111.25-.842c-1.238-.597-2.25-1.71-2.25-2.472 0-1.135-.25-1.153-1.38-.098-1.157 1.081-.956 1.477 1.25 2.458 3.318 1.476 5.412 1.574 2.38.111zm95.75.827c0-.216-.675-.652-1.5-.969-.825-.316-1.5-.14-1.5.393s.675.969 1.5.969 1.5-.177 1.5-.393zm118.128-1.357c1.243-1.586 1.208-1.621-.378-.378-1.666 1.307-2.195 2.128-1.372 2.128.207 0 .995-.787 1.75-1.75zM74 376.622c0-.207-.787-.995-1.75-1.75-1.586-1.243-1.621-1.208-.378.378 1.307 1.666 2.128 2.195 2.128 1.372zm2-1c0-.207-.787-.995-1.75-1.75-1.586-1.243-1.621-1.208-.378.378 1.307 1.666 2.128 2.195 2.128 1.372zm120.9-7.372c1.297-4.263 3.425-10.866 4.729-14.674 2.726-7.963 2.96-10.576.942-10.576-.858 0-2.054 2.096-2.995 5.25-.86 2.888-3.094 10.061-4.962 15.942-1.868 5.88-3.145 10.943-2.839 11.25 1.663 1.662 3.002-.217 5.124-7.192zM78 374.622c0-.207-.787-.995-1.75-1.75-1.586-1.243-1.621-1.208-.378.378 1.307 1.666 2.128 2.195 2.128 1.372zm212-.688c0-2.033-2.078-4.934-3.535-4.934-1.539 0-1.88 1.756-.858 4.418.675 1.759 4.393 2.195 4.393.516zm121-3.702c0-.348-.54-.092-1.2.568-1.86 1.86-3.213 1.415-1.672-.55 1.248-1.591 1.211-1.624-.402-.358-.976.766-1.542 1.625-1.259 1.908.284.284-.043 1.215-.726 2.069-.682.854.222.527 2.009-.726 1.788-1.254 3.25-2.564 3.25-2.911zM191.452 365.5c.625-1.789.58-1.815-.426-.25-.619.963-2.116 1.802-3.326 1.866-1.692.09-1.796.222-.45.573 1.079.282 1.79 1.484 1.852 3.134.102 2.67.105 2.668.877-.323.425-1.65 1.088-3.9 1.473-5zM74 371.622c0-.207-.787-.995-1.75-1.75-1.586-1.243-1.621-1.208-.378.378 1.307 1.666 2.128 2.195 2.128 1.372zm78.406-2.816c5.716-1.735 7.45-1.898 10.07-.95 3.011 1.088 9.402 1.542 6.768.48-.691-.279-.963-1.03-.604-1.671.42-.749.172-.718-.693.085-.741.687-2.044 1.243-2.897 1.235-1.23-.013-1.275-.19-.216-.861 1.067-.677 1.007-.971-.302-1.473-1.06-.407-1.392-.234-.945.49.416.673.137.936-.698.66-2.03-.669-2.256-4.358-.486-7.907 1.32-2.645 1.329-2.916.063-1.866-1.751 1.454-10.814-.03-18.86-3.086-3.253-1.236-5.455-1.558-6.57-.96-.924.493-4.571 1.884-8.107 3.09-3.536 1.206-6.975 2.625-7.642 3.152-.667.527-3.93 1.205-7.25 1.506-7.478.678-8.282 2.87-1.287 3.513 2.612.24 9.25 2.084 14.75 4.098 11.1 4.065 12.928 4.099 24.905.465zm191.177 2.328c-.498-.805-5.583-.366-5.583.483 0 .21 1.377.383 3.059.383 1.682 0 2.818-.39 2.524-.866zm-124.333-2.526c.963-.73 1.75-1.686 1.75-2.123 0-.437-.872-.006-1.937.958-2.858 2.587-4.04 1.125-4.248-5.252l-.185-5.691-.37 5.331c-.22 3.16.11 5.91.807 6.75 1.433 1.726 1.94 1.73 4.183.027zm63.112-.108c.347-.905.005-1.5-.862-1.5s-1.209.595-.862 1.5c.317.825.705 1.5.862 1.5.157 0 .545-.675.862-1.5zM69.572 367c0-1.1-.595-2-1.321-2-1.011 0-1.07.47-.251 2 .589 1.1 1.183 2 1.32 2 .139 0 .251-.9.251-2zm196.928 1c.34-.55 3.179-1.083 6.309-1.185l5.691-.185-5.193-.365c-5.172-.364-5.194-.38-5.582-4.065l-.389-3.7-.168 4.281c-.18 4.611-2.526 6.734-4.563 4.131-.847-1.082-2.739-1.278-8.105-.839l-7 .574 7.191.176c3.955.098 7.47.627 7.809 1.177.34.55 1.24 1 2 1s1.66-.45 2-1zm71.573-.863c-1.012-1.89-5.93-3.182-11.573-3.039-2.288.059-1.34.624 4 2.386 8.785 2.897 8.774 2.896 7.573.653zm3.734-.663c-.308-.308-.867.247-1.243 1.233-.542 1.425-.428 1.54.56.56.684-.679.99-1.486.683-1.793zm1.876.338c-.32-.797-.556-.56-.604.605-.043 1.054.193 1.644.525 1.312.332-.332.368-1.195.08-1.917zM355 368c.825-.533 1.05-.97.5-.97s-1.675.437-2.5.97c-.825.533-1.05.97-.5.97s1.675-.437 2.5-.97zm57.128-.75c1.243-1.586 1.208-1.621-.378-.378-1.666 1.307-2.195 2.128-1.372 2.128.207 0 .995-.787 1.75-1.75zm7.471-1.727c.173-1.175-.19-1.277-1.69-.475-2.392 1.28-2.5 2.11-.159 1.233 1.577-.59 1.607-.464.298 1.282-1.117 1.49-1.131 1.651-.06.697.766-.682 1.49-1.913 1.611-2.737zM64.5 365.5c0-2.118-.459-2.495-3-2.47-2.748.028-2.832.126-1 1.162 1.1.622 2.36 1.733 2.8 2.47 1.09 1.824 1.2 1.717 1.2-1.162zm109.5-1.525c0-1.546.23-3.412.512-4.145.281-.734-.506-1.949-1.75-2.7-1.76-1.063-1.985-1.073-1.012-.048.688.725 1.25 2.938 1.25 4.918s-.563 4.167-1.25 4.86c-1.002 1.009-.903 1.126.5.592 1.094-.416 1.75-1.72 1.75-3.477zm9.75 3.336c-.963-.252-2.538-.252-3.5 0-.963.251-.175.457 1.75.457s2.712-.206 1.75-.457zm18.25-2.478c0-3.64-.437-3.509-1.378.417-.392 1.633-.246 2.75.359 2.75.56 0 1.019-1.425 1.019-3.167zm8.264 2.463c-1.23-.237-3.48-.243-5-.014-1.52.23-.514.425 2.236.432 2.75.007 3.994-.18 2.764-.418zm141.653-.864c2.904-.862 5.111-1.737 4.905-1.944-.613-.613-9.24 1.545-10.272 2.57-1.27 1.26-.797 1.204 5.367-.626zM60 366.622c0-.207-.787-.995-1.75-1.75-1.586-1.243-1.621-1.208-.378.378 1.307 1.666 2.128 2.195 2.128 1.372zm228.269-.278c-.677-.274-2.027-.29-3-.037-.973.253-.419.478 1.231.498 1.65.02 2.446-.187 1.769-.461zm14.981-.067c-1.788-.222-4.713-.222-6.5 0-1.788.221-.325.403 3.25.403s5.037-.182 3.25-.403zm14.436.136c2.746-.55 2.916-.853 2.613-4.68-.374-4.734-.102-4.313-3.299-5.1-1.375-.338-1.935-.355-1.244-.038.691.317 1.021.956.734 1.421-.287.465.004 1.171.648 1.57.731.451.903.29.457-.431-.392-.635-.199-1.155.43-1.155.628 0 .96.547.737 1.215-.223.668-1.717 1.23-3.32 1.25-1.906.023-3.026.611-3.235 1.7-.177.916-.97 1.914-1.764 2.218-1.108.426-1.443-.367-1.443-3.414 0-2.183-.34-3.969-.757-3.969s-.598 2-.404 4.445c.419 5.263 2.677 6.402 9.847 4.968zM313 362.607c0-.216.675-.652 1.5-.969.825-.316 1.5-.14 1.5.393s-.675.969-1.5.969-1.5-.177-1.5-.393zm-142.878.718c-.584-1.004-1.075-1.262-1.092-.575-.053 2.19-2.873 1.341-3.324-1-.357-1.851-.458-1.742-.57.617-.12 2.543.146 2.812 2.364 2.388 1.375-.263 2.5-.015 2.5.55 0 .566.266.762.592.437.325-.326.114-1.413-.47-2.417zm47.584-3.575c-.239-1.238-.434-.225-.434 2.25s.195 3.487.434 2.25c.238-1.238.238-3.263 0-4.5zm46.987 2.519c-.254-.973-.478-.419-.498 1.231-.02 1.65.187 2.446.46 1.769.275-.677.292-2.027.038-3zM363.5 364c2.158-1.1 5.35-2 7.095-2 2.288 0 3.312-.536 3.674-1.923.442-1.688-.019-1.907-3.775-1.8-2.925.085-4.13.51-3.808 1.347.68 1.772-2.726 3.266-6.197 2.717-2.754-.435-2.847-.357-1.186.992 1.355 1.101 1.48 1.595.5 1.987-.717.287-1.06.558-.764.601.296.043 2.303-.821 4.461-1.921zm59.628.25c1.243-1.586 1.208-1.621-.378-.378-.963.755-1.75 1.543-1.75 1.75 0 .823.821.294 2.128-1.372zm-336.378.06c-.963-.25-2.538-.25-3.5 0-.963.252-.175.458 1.75.458s2.712-.206 1.75-.457zm16.53-.04c-2.32-.21-6.37-.213-9-.007-2.629.207-.73.379 4.22.382 4.95.003 7.101-.166 4.78-.376zm85.97-.926c2.457-1.513-.004-2.402-5.92-2.14-6.442.286-9.58 2.03-5.635 3.133 1.884.527 10.254-.192 11.555-.993zm22.427.055c.614-1.599-1.128-3.355-3.356-3.384-1.395-.018-4.321 2.729-4.321 4.056 0 1.675 7.012 1.06 7.677-.672zM259 361.955c0-1.867-.803-1.955-17.893-1.955-14.28 0-18 .278-18.422 1.378-.29.758-.137 1.77.34 2.25.479.48 8.769.74 18.423.577 16.651-.28 17.552-.394 17.552-2.25zm87 .927c0-.55-.45-.722-1-.382-.55.34-1 1.068-1 1.618s.45.722 1 .382c.55-.34 1-1.068 1-1.618zm-82.999-2.632l.001-3.75-16.251.485-16.251.486 15.5.514 15.5.515.316 2.75c.459 3.985 1.183 3.373 1.185-1zm42.499 1.35c0-1.8-.891-1.89-17-1.691-9.35.115-17.388.593-17.863 1.063-2.525 2.498 1.058 3.066 17.686 2.801 16.114-.256 17.177-.39 17.177-2.173zm37.5 2.017c0-.211-1.111-.596-2.47-.856-1.358-.26-2.232-.087-1.94.383.511.829 4.41 1.246 4.41.473zM56.5 362c.34-.55.141-1-.441-1S55 361.45 55 362s.198 1 .441 1 .72-.45 1.059-1zm15.25.31c-.963-.25-2.538-.25-3.5 0-.963.252-.175.458 1.75.458s2.712-.206 1.75-.457zm27-.052c-3.712-.192-9.787-.192-13.5 0-3.712.193-.675.35 6.75.35s10.463-.157 6.75-.35zm64.933-1.445c-.32-.798-.556-.561-.604.604-.043 1.054.193 1.644.525 1.312.332-.332.368-1.195.08-1.916zm172.055 1.495c-.97-.252-1.462-.946-1.094-1.541.445-.72-.136-.867-1.738-.438-1.323.354-4.431.728-6.906.83-3.95.163-3.705.266 2 .841 8.18.824 9.992.896 7.738.308zm19.14-.211c.758-.48 1.069-1.374.691-1.985-.906-1.467-7.252-1.434-8.164.043-.445.718-.275.882.45.435.64-.396 2.118-.416 3.286-.045 1.669.53 1.828.86.741 1.549-1.146.726-1.126.875.118.875.825 0 2.12-.392 2.878-.873zm42.418.161c-3.963-.189-10.713-.19-15-.003-4.288.188-1.046.343 7.204.345 8.25 0 11.758-.153 7.796-.342zm26.62-1.975c.23-.156-.769-.283-2.218-.283-1.951 0-2.483.396-2.05 1.526.477 1.243.887 1.295 2.219.282.898-.683 1.82-1.37 2.05-1.525zm4.084.217c1.292-1.375 1.933-2.486 1.424-2.469-.855.03-4.976 4.969-4.145 4.969.205 0 1.43-1.125 2.721-2.5zm-234.07-2.719c.038-.395-.555-.478-1.32-.185-.858.33-1.176 1.347-.831 2.665.536 2.053.585 2.06 1.319.185.419-1.07.793-2.27.832-2.665zm-119.661 2.563c-.677-.274-2.027-.29-3-.037-.973.253-.419.478 1.231.498 1.65.02 2.446-.187 1.769-.461zm24.481-.087c-4.263-.188-11.238-.188-15.5 0-4.263.187-.775.34 7.75.34s12.012-.153 7.75-.34zm212.632-.809c.341-.89.173-1.291-.393-.94-.544.335-.989 1.033-.989 1.551 0 1.438.717 1.121 1.382-.61zm30.603-.698c-.012-1.691-.235-1.903-.9-.854-1.354 2.139-4.362.553-3.587-1.891.35-1.103.494-1.996.32-1.986-.175.01-3.693 1.117-7.818 2.459l-7.5 2.44 6-.547c4.392-.4 6.804-.122 9 1.035 3.964 2.09 4.503 2.01 4.485-.656zm43.744 1.646c-.332-.332-1.195-.368-1.916-.08-.798.32-.561.557.604.605 1.054.043 1.644-.193 1.312-.525zM170 358.5c-.685-.825-1.977-1.493-2.872-1.485-1.095.01-.81.469.872 1.402 3.31 1.836 3.46 1.843 2 .083zm191.5.458c-1.65-.46-6.02-1.703-9.711-2.76-6.085-1.743-6.628-1.767-5.818-.253.625 1.17 1.887 1.568 4.211 1.333 1.825-.185 4.443.307 5.818 1.095 1.375.787 3.85 1.429 5.5 1.427l3-.004-3-.838zm52.25.314c-2.063-.216-5.438-.216-7.5 0-2.063.215-.375.392 3.75.392s5.813-.177 3.75-.392zM206 357.393c0-.216-.675-.393-1.5-.393s-1.5.436-1.5.969c0 .532.675.71 1.5.393.825-.317 1.5-.753 1.5-.969zm23-.014c-4.686-.854-9.714-.797-9.368.106.224.586 2.605.836 5.628.591 2.882-.233 4.565-.547 3.74-.697zm42.5-.114c-2.2-.22-4.428-.819-4.95-1.332-.523-.513-1.396-.933-1.941-.933-.545 0-.118.66.95 1.468 1.067.808 3.741 1.407 5.941 1.332l4-.136-4-.399zm42-.265c-.34-.55-1.379-.968-2.309-.93-1.379.058-1.321.23.309.93 2.676 1.15 2.71 1.15 2 0zm78.262.313c-.956-.25-2.756-.26-4-.02-1.244.239-.462.444 1.738.455 2.2.01 3.218-.185 2.262-.435zm27.537-.056c-4.51-.185-12.16-.186-17-.002s-1.149.335 8.201.336c9.35 0 13.31-.15 8.8-.334zM278 356.559c0-.243-.45-.72-1-1.059-.55-.34-1-.141-1 .441s.45 1.059 1 1.059 1-.198 1-.441zm8.344-3.309c-2.001-4.829-2.705-5.535-1.759-1.766.412 1.64.748 3.55.748 4.248 0 .697.577 1.268 1.283 1.268.994 0 .933-.84-.272-3.75zM341 354.882c0-.55-.45-.722-1-.382-.55.34-1 1.068-1 1.618s.45.722 1 .382c.55-.34 1-1.068 1-1.618zm-171.731.462c-.677-.274-2.027-.29-3-.037-.973.253-.419.478 1.231.498 1.65.02 2.446-.187 1.769-.461zm48.46.052c-.332-.332-1.195-.368-1.917-.079-.797.32-.56.556.605.604 1.054.044 1.644-.193 1.312-.525zm-5.171-1.49c.432-.699 2.168-.84 4.809-.393 2.273.386 12.33.897 22.35 1.137 15.107.36 18.73.17 21.214-1.114 2.718-1.406 3.372-1.398 7.074.083 2.243.897 4.33 1.38 4.638 1.071.85-.849-2.512-10.254-4.624-12.939-1.022-1.298-2.27-4.626-2.772-7.394-.614-3.375-2.412-7.146-5.458-11.445-2.499-3.527-4.804-7.312-5.124-8.412-.32-1.1-.683-8.3-.808-16l-.226-14-6.097-18c-3.353-9.9-6.555-18.796-7.116-19.77-.816-1.416-1.881.981-5.33 12-2.372 7.574-5.198 16.245-6.28 19.27-1.703 4.759-1.926 7.59-1.65 21l.317 15.5-5.1 7c-6.42 8.815-7.375 10.666-7.375 14.312 0 1.619-.626 3.462-1.39 4.097-1.328 1.102-4.615 8.065-6.063 12.841-.58 1.917-.31 2.25 1.827 2.25 1.38 0 2.812-.492 3.184-1.094zm70.442.131c0-.927-3.882-11.25-4.44-11.81-.15-.151-.98-.003-1.845.329-1.384.531-1.409 1.061-.205 4.473 2.058 5.833 3.406 7.971 5.025 7.971.806 0 1.465-.433 1.465-.963zM205.914 350c-.036-.99-.347-.819-.914.5-1.181 2.75-1.181 4.328 0 2.5.533-.825.945-2.175.914-3zm128.586 3c1.26-.542 1.445-.86.5-.86-.825 0-2.4.387-3.5.86-1.26.542-1.445.86-.5.86.825 0 2.4-.387 3.5-.86zm12.23-1.604c-.333-.332-1.196-.368-1.918-.08-.797.32-.56.557.605.605 1.054.043 1.644-.193 1.312-.525zm-134.745-16.537c-.968-2.215-.997-2.186-.468.475.406 2.043.23 2.628-.631 2.095-.708-.437-.933-.314-.552.303.818 1.323-1.637 3.416-3.457 2.95-.757-.195-1.04-.165-.627.065.413.23.75 1.073.75 1.871 0 .831 1.286-.013 3.008-1.974 2.546-2.9 2.85-3.789 1.977-5.785zm62.415 5.797c.688-.529.49-.652-.528-.328-.896.283-2.133.01-2.75-.607-.71-.71-.663-.14.127 1.546.688 1.467 1.431 2.12 1.65 1.45.22-.67.896-1.597 1.5-2.061zm7.017-1.013c-.347-.904-1.037-1.643-1.532-1.643-.496 0-.353.88.319 1.955 1.415 2.266 2.131 2.082 1.213-.312zM207 338.154c-1.375-.19-3.175-.865-4-1.5-1.305-1.004-1.322-.927-.128.596 1.18 1.503 1.156 1.75-.166 1.75-.847 0-1.723-.55-1.947-1.224-.225-.674-.646-.315-.937.796-.504 1.929-.295 1.974 4.575.975 3.701-.76 4.416-1.142 2.603-1.393zm70.143.956c-.746-.473-.961-1.104-.479-1.403.483-.298.803-2.154.71-4.125-.093-1.97.305-3.582.884-3.582.578 0 .307-.823-.603-1.829-1.296-1.432-1.655-3.893-1.655-11.347v-9.519l-6.74-8.902c-4.408-5.823-7.513-11.152-8.974-15.403-1.229-3.575-2.246-5.885-2.26-5.133-.017.866-.752 1.176-2.009.848-1.665-.436-1.825-.225-1 1.317.54 1.01.983 8.365.983 16.345 0 15.95-.101 15.603 7.907 27.123 1.912 2.75 3.542 5.115 3.622 5.255.08.14 1.609-.256 3.395-.878 2.727-.95 3.516-.86 4.912.56 1.557 1.585 1.503 1.668-.836 1.275-1.375-.231-1.93-.227-1.234.01.862.293.542 1.062-1 2.404-2.238 1.948-2.238 1.957-.061.711 2.529-1.447 3.83-.676 2.91 1.724-.376.98-1.257 1.407-2.175 1.054-.917-.351-1.285-.174-.908.437.35.566 1.555.738 2.677.382 1.361-.432 1.813-.28 1.357.459-.914 1.48-3.832 1.404-5.568-.143-1.185-1.057-1.205-.99-.127.44 1.114 1.477 2.952 2.214 6.629 2.659.55.066.39-.266-.357-.74zm-70.963-3.394c-1.32-1.589.14-4.254 1.776-3.243.65.401.939 1.359.644 2.128-.296.77-.315 1.399-.044 1.399.272 0 .932-1.152 1.467-2.56.535-1.408 1.377-2.31 1.87-2.006.494.305 1.155-.118 1.47-.94.39-1.014-.059-1.494-1.394-1.494-1.083 0-1.969-.477-1.969-1.059 0-.596-.547-.718-1.25-.28-.688.427-2.189.656-3.336.508-1.147-.148-2.7.54-3.452 1.53-1.167 1.54-1.162 1.62.036.551 1.709-1.524 5.002-1.65 5.002-.191 0 .582-.563.735-1.25.34-.688-.396-.928-.363-.535.072.393.436.234 1.69-.353 2.788-.807 1.506-.737 2.206.285 2.853 1.922 1.218 2.264 1.088 1.033-.396zm61.503-2.904c-.32-.797-.556-.56-.604.605-.043 1.054.193 1.644.525 1.312.332-.332.368-1.195.08-1.916zm2 0c-.32-.797-.556-.56-.604.605-.043 1.054.193 1.644.525 1.312.332-.332.368-1.195.08-1.916zm-53.555-6.562c1.243-1.586 1.208-1.621-.378-.378-.963.755-1.75 1.543-1.75 1.75 0 .823.821.294 2.128-1.372zm-12.439-5c-.251-.963-.457-.175-.457 1.75s.206 2.712.457 1.75c.252-.963.252-2.538 0-3.5zm4.447 3c.43-2.385.495-9.882.091-10.607-.262-.471-.864-.246-1.337.5-1.2 1.894-1.109 10.857.11 10.857.55 0 1.061-.338 1.136-.75zm8.231-3.229c2.893-4.372 3.107-5.021 1.653-5.021-.857 0-5.02 7.016-5.02 8.46 0 1.223.871.333 3.367-3.439zm-2.973-3.605c.373-.973.15-1.43-.58-1.187-1.496.498-2.319 2.771-1.004 2.771.537 0 1.25-.713 1.584-1.584zm3.509-5.847c-.263-.263-1.074.514-1.803 1.726-1.265 2.107-1.243 2.128.479.479.99-.95 1.587-1.942 1.324-2.205zm5.097 2.038c0-.766-.698-1.661-1.552-1.989-.89-.341-1.291-.173-.94.393.335.544.021 1.02-.699 1.06-.994.053 1 1.313 2.941 1.859.138.038.25-.557.25-1.323zm3-1.607c0-.55-.477-1-1.059-1s-.78.45-.441 1c.34.55.816 1 1.059 1s.441-.45.441-1zm-15.417-2c1.33 0 2.417.45 2.417 1s.45 1 1 1 1-.702 1-1.56c0-1.187-.879-1.486-3.673-1.25-2.02.17-3.786.884-3.925 1.585-.138.701-.023.814.256.25.28-.564 1.596-1.025 2.925-1.025zm-2.263-3.015c1.65-.012 1.841-.23.784-.9-.767-.485-1.119-1.604-.781-2.484 1.032-2.69-.178-1.782-1.797 1.35-.84 1.622-1.465 3.76-1.39 4.75.096 1.272.263 1.14.57-.451.29-1.506 1.154-2.255 2.614-2.265zm13.63 2.765a31.875 31.875 0 0 1-2.7-2.691c-1.083-1.249-1.25-1.236-1.25.097 0 .846 1.012 2.027 2.25 2.624 3.032 1.462 3.422 1.455 1.7-.03zm1.128-8.072c-.77-.77-1.078-.214-1.078 1.955 0 3.948 1.403 5.36 1.828 1.841.18-1.495-.157-3.203-.75-3.796zm-7.809 4.666c-.677-.274-2.027-.29-3-.037-.973.253-.419.478 1.231.498 1.65.02 2.446-.187 1.769-.461zm-.063-5.98l.424-3.635-2.315 2.691c-2.81 3.266-2.931 4.58-.424 4.58 1.43 0 1.994-.886 2.315-3.636zm10.51-5.114c-.229-1.512-.416-.275-.416 2.75s.187 4.263.416 2.75c.23-1.512.23-3.987 0-5.5zm-5.63 5.303c.502.31.914-.1.914-.912 0-.813.151-2.077.336-2.81.185-.732.147-.99-.085-.575-.232.416-.81.516-1.286.222-1.217-.752-3.212 3.313-2.328 4.743.557.901.824.895 1.131-.026.222-.664.814-.953 1.317-.642zm4.796-13.369c.065-2.373.578-5.176 1.141-6.227.842-1.573.735-1.802-.6-1.289-.894.343-1.98.048-2.415-.655-.524-.849-1.035-.14-1.515 2.104-.398 1.86-1.234 4.058-1.858 4.883-.993 1.313-.911 1.324.657.092 2.77-2.175 4.475.038 3.013 3.911-.618 1.637-.844 3.993-.503 5.236.58 2.109.666 2.059 1.291-.739.369-1.65.724-4.942.789-7.316zm-4.486 4.41c.79-3.02.309-2.8-2.183 1.002-2.062 3.146-2.09 3.344-.302 2.228 1.078-.674 2.197-2.128 2.485-3.23zm-4.268.656c1.243-1.586 1.208-1.621-.378-.378-.963.755-1.75 1.543-1.75 1.75 0 .823.821.294 2.128-1.372zm16.555-31.438c-.32-.797-.556-.56-.604.605-.043 1.054.193 1.644.525 1.312.332-.332.368-1.195.08-1.916zM230.86 257c0-.945-.317-.76-.859.5-.473 1.1-.86 2.675-.86 3.5 0 .945.318.76.86-.5.473-1.1.86-2.675.86-3.5zm-3.176 1.813c-.32-.798-.556-.561-.604.604-.043 1.054.193 1.644.525 1.312.332-.332.368-1.195.08-1.916zM241 240c-1.288-2.407-1.607-2.467-2.382-.448-.327.854-.181 1.296.324.984.506-.313 1.202-.111 1.548.448 1.16 1.875 1.593 1.04.51-.984zm-3.086-4.5c.03-.55-.38-.325-.914.5-.533.825-.945 2.175-.914 3 .058 1.584 1.724-1.606 1.828-3.5zm3.014-2.635c-.91-1.7-1.318-1.853-1.999-.75-.738 1.194.257 2.174 2.856 2.815.157.038-.229-.89-.857-2.065zm-.028-7.115c-1.608-3.09-1.58-3.08-2.18-.788-.293 1.122-.157 1.808.304 1.523.46-.285 1.12-.06 1.466.499 1.227 1.985 1.561.98.41-1.234zm-8.265-147.258c-.962-.962-1.5-2.404-1.193-3.203.307-.799.558-1.64.558-1.87 0-.23 2.645-.419 5.878-.419 4.18 0 6.263-.464 7.212-1.608 2.087-2.516-1.493-4.693-6.612-4.02-6.044.793-6.88-.196-7.307-8.65-.488-9.679.467-10.722 9.819-10.722 8.387 0 10.01.567 10.01 3.5 0 2.78-1.665 3.5-8.082 3.5-4.58 0-4.918.172-4.918 2.5 0 2.474.756 2.914 4.35 2.535 3.194-.336 7.686 2.133 9.197 5.056 2.172 4.2 1.77 7.522-1.329 10.99-2.436 2.727-3.592 3.18-9.307 3.638-5.35.43-6.84.209-8.276-1.227zm15.35-3.978c2.876-2.603 2.593-6.914-.62-9.441-2.752-2.165-8.365-2.845-8.365-1.014 0 .582.38.824.844.538.464-.287 2.442-.08 4.396.459 3.947 1.09 5.586 4.532 3.772 7.921-.96 1.793-2.335 2.242-10.512 3.431-1.65.24-.42.322 2.735.183 3.87-.17 6.39-.846 7.75-2.077zM238 64.122c0-.482-.675-1.437-1.5-2.122-1.833-1.521-1.978-7.358-.22-8.818.704-.584 3.742-1.242 6.75-1.463 4.386-.32 4.082-.382-1.53-.31l-7 .091-.307 5.38c-.169 2.96-.07 5.998.219 6.75.574 1.497 3.588 1.91 3.588.492zm250.079 306.295c.048-1.165.285-1.402.604-.605.289.722.253 1.585-.079 1.917-.332.332-.568-.258-.525-1.312zm0-28c.048-1.165.285-1.402.604-.605.289.722.253 1.585-.079 1.917-.332.332-.568-.258-.525-1.312zm-.085-148.167c-.003-77.963-.17-153.338-.37-167.5-.202-14.223.025-25.75.506-25.75.49 0 .87 73.13.87 167.5 0 92.125-.225 167.5-.5 167.5s-.503-63.788-.506-141.75zM282 7.5c0-.825.675-1.5 1.5-1.5s1.5.675 1.5 1.5-.675 1.5-1.5 1.5-1.5-.675-1.5-1.5z"/></svg>