<svg xmlns="http://www.w3.org/2000/svg" width="244" height="420" viewBox="0 0 244 420"><path d="M110.75 418.25c24.337-.149 64.162-.149 88.5 0 24.337.15 4.425.271-44.25.271s-68.588-.122-44.25-.27zM77.5 411c-37.95-.275-69.791-.887-70.759-1.36-.967-.473-1.992-1.823-2.278-3-.286-1.177-.395-91.508-.242-200.736C4.526-11.488 4.084 3.2 10.283 4.562c1.63.358 52.373.718 112.763.8 60.39.082 110.113.464 110.498.849.384.384.762 89.031.84 196.994.078 107.962.518 196.887.978 197.61 1.129 1.775-.083 7.763-1.948 9.628-1.643 1.643-4.588 1.654-155.914.557zm82.5-1.383c0-.211-.9-.62-2.001-.907-1.101-.288-1.75-.115-1.441.383.538.871 3.442 1.313 3.442.524zm5.73-.221c-.333-.332-1.196-.368-1.917-.08-.798.32-.561.557.604.605 1.054.043 1.644-.193 1.312-.525zm29.032-.083c-.956-.25-2.756-.26-4-.02-1.244.239-.462.444 1.738.455 2.2.01 3.218-.185 2.262-.435zm24.022-.047c-2.595-.205-7.095-.207-10-.005-2.906.203-.784.37 4.716.373 5.5.003 7.878-.163 5.284-.368zm-108.022-.953c-.956-.25-2.756-.26-4-.02-1.244.239-.462.444 1.738.455 2.2.01 3.218-.185 2.262-.435zm7.988-.002c-.963-.252-2.538-.252-3.5 0-.963.251-.175.457 1.75.457s2.712-.206 1.75-.457zm26.5-.055c-4.537-.185-11.963-.185-16.5 0-4.537.186-.825.337 8.25.337s12.787-.151 8.25-.337zM11 407.616c0-.21-.9-.618-2.001-.906-1.101-.288-1.75-.115-1.441.383.538.871 3.442 1.313 3.442.524zM229 209.61c0-170.146-.198-197.621-1.429-198.31-.786-.44-50.01-.684-109.385-.541l-107.957.259-.601 2.24c-.33 1.233-.607 89.628-.614 196.433-.011 154.267.243 194.357 1.236 195 .688.445 33.425.93 72.75 1.08 39.325.149 73.3.374 75.5.5 2.2.126 18.962.369 37.25.54l33.25.31zM107.783 363.927c-12.86-4.354-19.908-19.764-15.607-34.12 1.635-5.458 8.287-12.648 14.286-15.441 13.277-6.183 30.186.07 36.3 13.425 2.133 4.659 2.42 6.469 2.02 12.715-1.222 19.023-18.214 29.78-37 23.42zm11.967-.616c-.963-.252-2.538-.252-3.5 0-.963.251-.175.457 1.75.457s2.712-.206 1.75-.457zm4.595-3.561c-.254-.413-3.11-.75-6.345-.75s-6.09.338-6.345.75c-.255.412 2.6.75 6.345.75 3.745 0 6.6-.338 6.345-.75zm-13.852-.739c.35-.566-.051-.734-.941-.393-1.732.665-2.05 1.382-.611 1.382.518 0 1.216-.445 1.552-.989zm-7.493-.337c0-.179-1.238-1.416-2.75-2.75L97.5 353.5l2.424 2.75c2.266 2.57 3.076 3.209 3.076 2.424zm6-1.388c0-.275-.698-.232-1.552.096-.89.341-1.291.173-.94-.393.793-1.285 4.196-1.277 4.992.011 1.356 2.195 15.505.45 15.498-1.91 0-.325-2.016-1.863-4.478-3.418l-4.476-2.828-4.363 3.134c-6.039 4.336-10.086 3.693-13.652-2.17-1.077-1.772-2.079-2.536-2.478-1.891-.368.596-.166 1.083.449 1.083s.84.45.5 1c-.34.55-.115 1 .5 1s.88.385.59.855c-.29.47.583 1.898 1.94 3.174 1.359 1.276 2.484 1.904 2.5 1.395.017-.508.479-.155 1.027.784.856 1.468 3.943 1.529 3.943.078zm-7.595-3.536L99.5 351.5l2.25 1.905c2.114 1.79 2.705 2.595 1.905 2.595-.19 0-1.202-1.012-2.25-2.25zm30.256 2.578c-.872-.873-4.723.762-4.115 1.747.346.56 1.382.499 2.6-.153 1.114-.596 1.796-1.314 1.515-1.594zm1.925-6.637c1.753-2.65 2.922-5.98 3.219-9.175.257-2.759 1.08-5.376 1.83-5.816.751-.44 1.365-1.282 1.365-1.872 0-.74-.42-.725-1.351.048-1.067.886-1.974.123-4.315-3.627-2.03-3.253-4.394-5.458-7.508-6.999-7.105-3.517-7.857-3.206-6.034 2.5 2.159 6.755 2.762 7.25 8.83 7.25 6.79 0 7.179 1.958 1.393 7l-4.017 3.5 1.499 4.9c1.13 3.698 1.218 5.238.359 6.273-.897 1.08-.807 1.246.42.775.856-.329 2.796-2.47 4.31-4.757zm2.815 1.687c-.055-.483.576-1.372 1.403-1.976.924-.676 1.187-1.607.684-2.421-.606-.98-1.05-.696-1.713 1.098-.492 1.332-.849 2.558-.791 2.725.057.167-.928 1.23-2.19 2.363l-2.294 2.059 2.5-1.485c1.375-.817 2.455-1.88 2.4-2.363zm-28.913-6.465c.691-3.683.379-4.033-8.988-10.083-.674-.436-.907.702-.664 3.25.3 3.14.043 3.92-1.29 3.92-.926 0-1.371.474-1.004 1.068.363.588 1.304.821 2.091.52.898-.345 1.782.373 2.372 1.925.517 1.361 1.707 3.643 2.642 5.072l1.702 2.597 1.237-2.362c.68-1.298 1.537-3.956 1.902-5.907zm9.9 1.168c-.644-.688 2.815-4.074 3.64-3.563.42.259 1.03-.225 1.356-1.076.365-.951.18-1.29-.48-.883-.676.418-.949-.21-.738-1.698.216-1.53.91-2.267 1.97-2.093.9.147 1.918-.466 2.262-1.362.445-1.16.198-1.465-.855-1.061-.813.312-1.745.137-2.07-.389-.754-1.22-5.174-1.25-5.921-.04-.312.504-2.138.792-4.06.64-3.44-.273-4.555.67-2.38 2.013.611.378 1.399.266 1.75-.249.35-.515 2.213-.91 4.138-.878 2.833.047 3.56.481 3.816 2.28.173 1.221-.089 2.943-.583 3.826-.789 1.41-1.273 1.289-3.98-.988-2.84-2.39-3.786-1.804-1.916 1.19.933 1.493-.443 1.657-2.143.256-.663-.547-.348-.043.7 1.12 1.784 1.983 4.812 1.826 3.57-.184-.312-.505.11-.66.937-.342 1.198.46 1.27.954.352 2.424-.634 1.016-1.442 1.668-1.794 1.45-.353-.217-1.634.948-2.848 2.59l-2.208 2.986 3.938-2.775c2.166-1.526 3.762-2.963 3.546-3.194zm4.623 2.432c-.68-.818-.974-2.168-.654-3 .657-1.712-.89-2.08-1.896-.45-.361.585.132 1.935 1.096 3 2.046 2.261 3.272 2.64 1.454.45zm3.202-5.513c-.242-1.65-.051-3.01.424-3.022.474-.012 1.988-.943 3.363-2.067 2.256-1.846 2.28-1.938.25-.943-1.238.606-2.25.83-2.25.496 0-.334-.603-.004-1.339.732-1.8 1.8-2.648 6.62-1.266 7.19.608.25 1.14.492 1.182.535.042.043-.122-1.271-.364-2.921zm17.505-6.736c-.23-1.52-.424-.514-.432 2.236-.007 2.75.18 3.994.418 2.764.237-1.23.243-3.48.014-5zm-2.029.986c-.251-.963-.457-.175-.457 1.75s.206 2.712.457 1.75c.252-.963.252-2.538 0-3.5zm-44.498-1.874c-.759-1.355-.943-1.119-.953 1.222-.007 1.596.273 3.352.623 3.902 1.039 1.632 1.355-3.292.33-5.124zM111 339.107c0-.491-.675-1.152-1.5-1.469-1.524-.585-2.048.48-.833 1.695.955.956 2.333.822 2.333-.226zm-17.317-5.295c-.32-.797-.556-.56-.604.605-.043 1.054.193 1.644.525 1.312.332-.332.368-1.195.08-1.916zM105.461 332c3.066 0 5.69-.526 6.236-1.25 1.445-1.917 3.704-9.682 3.017-10.37-1.415-1.414-9.883 4.005-12.734 8.15-1.639 2.381-2.944 4.7-2.901 5.15.043.451.306.258.583-.43.315-.78 2.5-1.25 5.799-1.25zM116 329.5c0-1.375-.173-2.5-.383-2.5-.211 0-.599 1.125-.862 2.5s-.09 2.5.384 2.5c.473 0 .861-1.125.861-2.5zm-16.65.032c.31-.807.063-1.777-.548-2.155-.673-.415-.83-.23-.397.468.392.635.21 1.155-.405 1.155s-.84.45-.5 1c.835 1.35 1.185 1.262 1.85-.468zm39.012-.032c-.317-.825-1.004-1.5-1.528-1.5s-.672-.453-.33-1.007c.343-.554-.078-1.276-.935-1.605-.857-.329-1.266-1.07-.909-1.647.366-.592.172-.755-.444-.374-.601.371-1.458.061-1.905-.689-1.261-2.12-6.105-4.923-7.267-4.205-.574.355-1.044.168-1.044-.414s-.45-1.059-1-1.059c-2.405 0-.615 1.688 4.067 3.836 3.245 1.489 6.03 3.72 7.75 6.206 2.704 3.913 4.61 5.234 3.545 2.458zm-18.965-1.333c.283-.459-.14-.834-.941-.834-.8 0-1.456.375-1.456.834 0 .458.423.833.941.833s1.173-.375 1.456-.833zm-15.033-6.388c-.316-.511-1.639.07-2.939 1.291-1.3 1.221-2.105 2.64-1.789 3.15.316.512 1.639-.069 2.939-1.29s2.105-2.64 1.789-3.15zM101.5 324c.995-1.1 2.035-2 2.31-2 .275 0-.315.9-1.31 2-.995 1.1-2.035 2-2.31 2-.275 0 .315-.9 1.31-2zm-.937-2.25l2.937-3.25-3.25 2.937c-1.788 1.615-3.25 3.078-3.25 3.25 0 .773.825.092 3.563-2.937zm36.437.872c0-.207-.787-.995-1.75-1.75-1.586-1.243-1.621-1.208-.378.378 1.307 1.666 2.128 2.195 2.128 1.372zm-27.222-3.777c-.767-.485-1.717-.222-2.377.658-.604.806-1.464 1.135-1.91.731-.447-.403-.498-.188-.116.478.531.924 1.289.943 3.19.077 1.808-.825 2.141-1.357 1.213-1.944zM113.5 318c-.34-.55-1.068-1-1.618-1s-.722.45-.382 1c.34.55 1.068 1 1.618 1s.722-.45.382-1zm5.23-1.604c-.333-.332-1.196-.368-1.918-.08-.797.32-.56.557.605.605 1.054.043 1.644-.193 1.312-.525zm.02-2.085c-.963-.252-2.538-.252-3.5 0-.963.251-.175.457 1.75.457s2.712-.206 1.75-.457zm62.321-27.416c-4.66-1.42-11.18-6.039-14.302-10.132-2.913-3.818-5.769-12.466-5.769-17.466 0-5.554 5.14-15.464 10.102-19.479 5.525-4.47 9.865-5.877 18.334-5.942 15.392-.118 26.52 11.264 26.52 27.124 0 10.384-4.671 18.392-13.738 23.548-5.335 3.035-15.27 4.137-21.147 2.347zm9.679-1.584c-.963-.252-2.538-.252-3.5 0-.963.251-.175.457 1.75.457s2.712-.206 1.75-.457zm2.652-3.153c.287-.463-1.487-.873-3.94-.91-2.454-.037-4.462.342-4.462.842 0 1.146 7.698 1.208 8.402.068zM183 281c0-.55-.423-1-.941-1s-1.22.45-1.559 1c-.34.55.084 1 .941 1s1.559-.45 1.559-1zm21.5-1c.995-1.1 1.585-2 1.31-2-.275 0-1.315.9-2.31 2-.995 1.1-1.585 2-1.31 2 .275 0 1.315-.9 2.31-2zm-5.61-3.059c5.335-2.998 9.114-9.458 9.095-15.546-.008-2.692-.346-4.444-.75-3.892-.404.551-2.683 2.325-5.065 3.941-3.727 2.53-4.24 3.295-3.69 5.497 1.73 6.905 1.743 8.036.105 8.665-.975.374-3.206-.457-5.51-2.054l-3.87-2.682-5.743 3.065c-3.159 1.686-5.568 3.072-5.353 3.08.215.008 2.191.687 4.391 1.509 4.94 1.845 11.403 1.22 16.39-1.583zm-22.435.403c-1.881-1.376-3.064-1.138-2.1.423.307.495 1.311.9 2.233.9 1.502 0 1.488-.138-.133-1.323zm29.02-1.32c1.384-1.3 2.315-2.567 2.069-2.814-.247-.246.209-1.106 1.013-1.91.804-.804 1.206-1.875.893-2.38-.312-.506-.065-.92.55-.92s.814-.492.442-1.094c-.389-.629-1.703.751-3.096 3.25-1.33 2.39-3.614 5.33-5.073 6.533-1.814 1.496-2.125 2.112-.985 1.945.918-.135 2.802-1.31 4.187-2.61zm-34.028-4.11a1.117 1.117 0 0 0-1.532-.361 1.117 1.117 0 0 0-.362 1.532 1.117 1.117 0 0 0 1.532.362 1.117 1.117 0 0 0 .362-1.532zm6.34-3.378l1.948-4.958-4.368-3.335c-5.904-4.508-5.751-6.243.551-6.243 5.418 0 8.082-.713 8.082-2.162 0-.521.924-2.976 2.054-5.456 2.677-5.877 4.889-5.555 6.549.954.678 2.658 1.525 5.125 1.881 5.481 1.142 1.142 13.398 1.812 12.783.699-3.63-6.563-12.53-12.516-18.713-12.516-6.487 0-14.997 6.16-17.96 13-.834 1.925-1.533 2.74-1.555 1.809-.021-.93-.484-1.966-1.028-2.302-.566-.35-.734.051-.393.941.328.854.098 1.552-.511 1.552-.648 0-1.107 1.895-1.107 4.567 0 4.113.2 4.505 2 3.933 1.318-.418 2-.18 2 .7 0 1.426 4.953 9.18 5.509 8.625.182-.182 1.207-2.562 2.278-5.29zm-10.256-7.83c-.428-.985-.497-2.073-.155-2.416 1.016-1.015 1.835.411 1.367 2.382-.414 1.747-.468 1.748-1.212.035zm28.012 11.363c-.317-.512-.118-1.213.44-1.559.56-.345 1.017.149 1.017 1.098 0 .949.27 1.455.6 1.126.33-.33.018-2.318-.693-4.417-1.459-4.307-1.265-8.457.445-9.552.632-.404-.63-.741-2.802-.75-2.92-.011-3.657.278-2.828 1.107.617.617.89 1.854.606 2.75-.438 1.38-.358 1.403.523.157 1.208-1.708 2.643-.76 1.876 1.24-.684 1.782-7.678 1.021-8.422-.917-.437-1.139-.796-1.068-1.86.369-1.176 1.586-1.293 1.597-1.084.103.129-.922 1.3-2.54 2.604-3.594 2.442-1.978 2.324-5.306-.184-5.151-1.003.062-1.01.188-.031.583.687.278 1.25 1.217 1.25 2.088 0 .87-.293 1.29-.651.932-.358-.358-1.282.13-2.052 1.084-1.284 1.59-1.35 1.548-.781-.516.361-1.315.175-2.25-.449-2.25-.587 0-1.014.338-.949.75.403 2.547-.277 3.34-2.368 2.766-2.187-.602-2.195-.576-.309.932 1.068.854 2.332 1.552 2.81 1.552.476 0 .577.47.222 1.044-.355.574.022 2.063.838 3.308 1.108 1.691 1.217 2.755.428 4.206-1 1.84-.956 1.855.853.27 1.05-.92 3.85-2.34 6.225-3.157 3.712-1.275 4.394-1.284 4.862-.065.3.78.048 2.018-.558 2.749-.607.73-.808 1.625-.446 1.987.974.973 1.53.798.868-.273zM185.5 267c.34-.55 1.068-1 1.618-1s.722.45.382 1c-.34.55-1.068 1-1.618 1s-.722-.45-.382-1zm26.307 3.474c-.308-.308-.867.247-1.243 1.233-.542 1.425-.428 1.54.56.56.684-.679.99-1.486.683-1.793zM170 269.108c0-.426-.632-.775-1.405-.775-.772 0-1.175.598-.895 1.328.51 1.33 2.3.9 2.3-.553zm24 .451c0-1.055-1.92-1.499-2.49-.575-.345.559.073 1.016.931 1.016.857 0 1.559-.198 1.559-.441zm19.69-10.309c-.252-.963-.458-.175-.458 1.75s.206 2.712.457 1.75c.252-.963.252-2.538 0-3.5zM190 261c0-.55-.477-1-1.059-1s-.78.45-.441 1c.34.55.816 1 1.059 1s.441-.45.441-1zm10.527-.61c2.414-1.582 2.503-3.405.164-3.375-.805.01-.755.292.154.868.994.63.667 1.023-1.25 1.504-1.427.358-2.595 1.093-2.595 1.632 0 1.357.682 1.236 3.527-.628zm10.597-.657c-.988-.98-1.102-.865-.56.56.376.986.935 1.541 1.243 1.233.308-.307 0-1.114-.683-1.793zM203 255.387c0-.213-2.362-.342-5.25-.287-3.795.072-4.56.291-2.763.792 2.376.661 8.013.306 8.013-.505zm-22.75-.05c-.688-.277-1.813-.277-2.5 0-.688.278-.125.505 1.25.505s1.938-.227 1.25-.504zm10.965-1.704c.575.355.862.099.64-.569-.611-1.833-2.324-1.414-2.587.633-.128.992.023 1.238.335.547s1.038-.966 1.612-.611zm-19.951-3.789c1.553-2.487 1.55-2.639-.053-2.386-1.013.16-1.582.978-1.394 2.006.186 1.018-.12 1.467-.739 1.084-.647-.4-.819-.036-.443.943.337.877.693 1.463.791 1.302.099-.161.926-1.488 1.838-2.949zm38.093 1.281c-.471-.344-.985-1.3-1.142-2.125-.406-2.139-7.084-8.199-8.245-7.482-.533.33-.97.097-.97-.518s-.487-.817-1.083-.449c-.648.4.072 1.372 1.793 2.419 3.144 1.912 8.29 7.601 8.29 9.166 0 .54.498.674 1.107.298.608-.376.721-.965.25-1.309zm-6.485-6.875c-1.243-1.586-1.208-1.621.378-.378.962.755 1.75 1.543 1.75 1.75 0 .823-.821.294-2.128-1.372zM188 249.5c0-1.375-.173-2.5-.383-2.5-.211 0-.599 1.125-.862 2.5s-.09 2.5.384 2.5c.473 0 .861-1.125.861-2.5zm21-3.813c0-.172-1.462-1.635-3.25-3.25l-3.25-2.937 2.937 3.25c2.738 3.03 3.563 3.71 3.563 2.937zm-37.872-2.437c1.243-1.586 1.208-1.621-.378-.378-.963.755-1.75 1.543-1.75 1.75 0 .823.821.294 2.128-1.372zm6.272-1.412c-.342-.553-1.15-.46-1.978.227-.77.639-1.14 1.582-.822 2.097.342.553 1.15.46 1.978-.227.77-.639 1.14-1.582.822-2.097zm11.742-2.898c-1.846-.402-4.096-.588-5-.412a40.86 40.86 0 0 1-3.142.466c-1.168.114-1.115.299.236.835.955.378 3.88.498 6.5.265 4.694-.416 4.715-.433 1.406-1.154zm6.693 1.183c1.03-.652.896-.96-.584-1.347-1.197-.313-1.918.01-1.918.861 0 1.564.613 1.683 2.502.486zM37.58 284.986c-14.126-5.516-20.577-21.917-14.24-36.207 2.724-6.145 8.752-11.986 14.278-13.838 5.058-1.694 15.868-1.73 20.676-.068 5.223 1.806 12.99 9.798 14.536 14.958 1.948 6.502 1.657 16.298-.634 21.33-5.971 13.116-21.029 19.13-34.616 13.825zm12.169-.675c-.963-.252-2.538-.252-3.5 0-.963.251-.175.457 1.75.457s2.712-.206 1.75-.457zm-1.5-1.973c-.688-.278-1.813-.278-2.5 0-.688.277-.125.504 1.25.504s1.938-.227 1.25-.504zM42 281c0-.55-.198-1-.441-1s-.72.45-1.059 1c-.34.55-.141 1 .441 1S42 281.55 42 281zm13 0c0-.55-.787-.993-1.75-.985-1.496.013-1.532.157-.25.985 1.887 1.22 2 1.22 2 0zm3.636-1.494c.316-.822 1.046-1.203 1.623-.846.657.406.748.16.243-.657-.64-1.037-1.054-.969-2.004.33-.657.9-1.489 1.343-1.847.985-.358-.358-.651-.126-.651.515 0 1.681 1.959 1.438 2.636-.327zM33 279.674c0-.179-1.238-1.416-2.75-2.75L27.5 274.5l2.424 2.75c2.266 2.57 3.076 3.209 3.076 2.424zm21.685-1.738c6.845-2.586 11.5-9.572 12.284-18.436.35-3.948.946-5.919 1.745-5.762.71.14.973-.391.632-1.28-.51-1.325-.735-1.308-1.792.137-1.072 1.466-1.45 1.248-3.316-1.917-2.875-4.872-9.732-9.699-13.638-9.6-1.705.044-2.54.306-1.854.583.685.277 1.949 2.92 2.807 5.875l1.562 5.372 6.182.296c7.975.382 8.449 2.134 1.799 6.649l-4.938 3.353 1.41 4.647c.776 2.556 1.415 5.224 1.421 5.928.023 2.665-3.074 2.32-6.984-.777l-4.033-3.194-5.08 3.26c-5.039 3.233-5.06 3.27-2.736 4.56 2.862 1.586 10.702 1.752 14.529.306zM36 277.687c0-.172-1.318-1.576-2.929-3.119-1.61-1.543-2.836-2.19-2.722-1.437.331 2.189 1.715 3.947 2.651 3.369.474-.293 1.144-.075 1.49.484.593.959 1.51 1.386 1.51.703zM64 275c.589-1.1.9-2 .69-2-.209 0-1.195.9-2.19 2-.995 1.1-1.306 2-.69 2 .616 0 1.601-.9 2.19-2zm-27.712-1.273c-.239-1.25.225-4.187 1.03-6.526l1.466-4.253-4.449-3.061c-6.176-4.25-5.576-6.238 2.079-6.887 5.851-.496 5.906-.53 7.222-4.5.73-2.2 1.789-4.788 2.354-5.75.854-1.456.647-1.744-1.232-1.715-2.457.039-5.005 1.323-8.996 4.534-8.507 6.845-9.216 19.968-1.521 28.181 2.59 2.766 2.58 2.766 2.047-.023zm31.84.523c1.243-1.586 1.208-1.621-.378-.378-.963.755-1.75 1.543-1.75 1.75 0 .823.821.294 2.128-1.372zM66.5 272c-.34-.55-.13-1 .466-1 1.91 0 2.711-4.332 1.94-10.5l-.75-6 .232 6.191c.127 3.406-.091 5.992-.485 5.749-.394-.244-.463.528-.152 1.715.358 1.37.18 1.92-.489 1.507-1.139-.704-2.51 1.757-1.526 2.74.95.951 1.44.693.764-.402zm-37.305-1.768c-.664-.222-.91-.884-.547-1.472.382-.617.191-.779-.45-.382-.61.377-.858 1.344-.55 2.148.31.805 1.055 1.158 1.658.785.77-.476.737-.797-.111-1.08zm25.722 1.507c-.23-.143-1.542-1.156-2.917-2.25l-2.5-1.989 1.905 2.25c1.048 1.238 2.36 2.25 2.917 2.25.556 0 .824-.117.595-.26zM47 267.024c0-.41 1.192-.519 2.649-.24 1.772.338 2.423.142 1.968-.595-.375-.606-1.296-.866-2.048-.577-.752.288-1.664.044-2.027-.544-.363-.587-1.11-1.068-1.66-1.068-.55 0-.741.419-.425.93.317.513.12 1.213-.435 1.557-.556.343-1.497 1.531-2.09 2.64-1.048 1.959-1.007 1.968 1.495.329 1.415-.927 2.573-2.022 2.573-2.432zm-3.167-1.287c-.183-.236.285-1.174 1.04-2.083.754-.91 1.092-1.654.75-1.654-.343 0-.936-.012-1.319-.026-.383-.015-.862 1.215-1.065 2.732-.203 1.517-.078 2.466.28 2.11.356-.357.498-.843.314-1.079zM55 265c0-.55-.198-1-.441-1s-.72.45-1.059 1c-.34.55-.141 1 .441 1S55 265.55 55 265zm-4-2.076c0-.473-.675-.602-1.5-.286-.825.317-1.5.964-1.5 1.438 0 .473.675.602 1.5.286.825-.317 1.5-.964 1.5-1.438zm-8.304.439c-.35-.35.186-1.813 1.191-3.25 1.005-1.437 1.7-3.187 1.545-3.888-.155-.701-.058-.828.216-.282.274.547 2.024 1.28 3.89 1.63 2.033.381 3.627 1.372 3.976 2.47.557 1.755.729 1.746 4.034-.204 3.725-2.198 4.812-3.637 1.345-1.782-1.485.795-2.421.815-3.168.068-.746-.746-.64-1.193.358-1.513.78-.25 2.092-.679 2.917-.954.825-.275-.525-.587-3-.693-7.434-.319-10.455-.83-10.787-1.827-.173-.52-1.39.13-2.704 1.444-1.924 1.924-2.277 3.07-1.818 5.903.314 1.933 1.037 3.515 1.607 3.515.57 0 .749-.287.398-.637zm.035-6.443c.354-1.352.807-1.806 1.057-1.057.24.722-.038 1.787-.62 2.369-.742.742-.872.351-.437-1.312zm-19.042 1.33c-.251-.963-.457-.175-.457 1.75s.206 2.712.457 1.75c.252-.963.252-2.538 0-3.5zm46.994 1.563c-.32-.798-.556-.561-.604.604-.043 1.054.193 1.644.525 1.312.332-.332.368-1.195.08-1.916zm1.98-1.063c-.278-.688-.505-.125-.505 1.25s.227 1.938.504 1.25c.278-.688.278-1.813 0-2.5zm-46.98.063c-.32-.798-.556-.561-.604.604-.043 1.054.193 1.644.525 1.312.332-.332.368-1.195.08-1.916zm13.083.806c-.954-.724-1.517-1.535-1.25-1.801.266-.267-.26-.485-1.17-.485-1.315 0-1.19.375.611 1.834 1.246 1.008 2.552 1.819 2.904 1.801.351-.017-.142-.624-1.095-1.349zm-.516-4.281c-.688-.278-1.813-.278-2.5 0-.688.277-.125.504 1.25.504s1.938-.227 1.25-.504zM51 252c0-.55-.45-1-1-1s-1 .45-1 1 .45 1 1 1 1-.45 1-1zm-14.843-9.149c2.704-2.044 4.641-2.572 10.132-2.76 8.155-.278 13.803 2.085 17.873 7.477 1.523 2.02 2.938 3.08 3.309 2.48.356-.577.095-1.048-.579-1.048-.674 0-.917-.308-.541-.684.893-.894-5.41-7.398-6.51-6.718-.462.286-.841-.032-.841-.706 0-.674-.279-.947-.619-.606-.34.34-1.252-.014-2.025-.788-1.79-1.79-14.747-1.444-18.356.49-3.383 1.811-9.01 7.188-8.457 8.081.245.397-.255.99-1.112 1.32-.857.328-1.257 1.084-.888 1.68.398.644 1.602-.29 2.97-2.304 1.266-1.862 3.806-4.524 5.644-5.914zm-9.775 6.597c.341-.89.173-1.291-.393-.94-.544.335-.989 1.033-.989 1.551 0 1.438.717 1.121 1.382-.61zm21.015.719c.283-.459-.14-.834-.941-.834-.8 0-1.456.375-1.456.834 0 .458.423.833.941.833s1.173-.375 1.456-.833zM64 241.622c0-.207-.787-.995-1.75-1.75-1.586-1.243-1.621-1.208-.378.378 1.307 1.666 2.128 2.195 2.128 1.372zm-14.27-6.226c-.333-.332-1.196-.368-1.917-.08-.798.32-.561.557.604.605 1.054.043 1.644-.193 1.312-.525zM185 186.909c-8.91-1.613-15.753-6.662-19.552-14.426-5.436-11.11-2.531-26.29 6.382-33.348 8.367-6.627 21.717-7.684 31.286-2.476 5.811 3.164 7.932 5.367 11.297 11.74 5.083 9.626 2.724 24.522-5.037 31.798-5.49 5.148-16.408 8.154-24.376 6.712zm8.264-2.613c-1.23-.237-3.48-.243-5-.014-1.52.23-.514.425 2.236.432 2.75.007 3.994-.18 2.764-.418zm-1.514-1.985c-.963-.252-2.538-.252-3.5 0-.963.251-.175.457 1.75.457s2.712-.206 1.75-.457zm7.388-1.792c1.007.572 1.08.467.28-.405-1.266-1.378-4.702-.382-3.787 1.098.39.63.902.544 1.382-.233.44-.71 1.342-.906 2.125-.46zm6.99-1.269c1.243-1.586 1.208-1.621-.378-.378-.962.755-1.75 1.543-1.75 1.75 0 .823.821.294 2.128-1.372zm-31.128.437c0-.172-1.462-1.635-3.25-3.25l-3.25-2.937 2.937 3.25c2.738 3.03 3.563 3.71 3.563 2.937zm1.307-4.178c-4.241-3.678-6.707-3.628-3.237.066 1.221 1.3 2.558 2.155 2.97 1.9.413-.255 1.02.237 1.348 1.094.329.857 1.077 1.262 1.662.9.63-.389-.493-2.008-2.743-3.96zm-2.902-.759l-1.905-2.25 2.25 1.905c2.114 1.79 2.705 2.595 1.905 2.595-.19 0-1.202-1.012-2.25-2.25zm30.783 2.772c.27.27 1.267-.368 2.217-1.417 1.005-1.11 1.319-2.158.751-2.508-.535-.331-2.09.724-3.454 2.345-1.364 1.62-2.827 2.635-3.251 2.253-.424-.382-.406-.064.041.706.68 1.172 1.01 1.133 2.01-.234.657-.9 1.416-1.415 1.686-1.145zm-.188-.9c0-.207.787-.995 1.75-1.75 1.586-1.243 1.621-1.208.378.378-1.307 1.666-2.128 2.195-2.128 1.372zm-5.316.435c5.71-2.593 9.523-8.512 10.12-15.71l.46-5.533-5.188 3.727c-3.63 2.607-5.006 4.198-4.584 5.298.331.864.866 3.495 1.188 5.846.79 5.764-1.118 6.375-6.99 2.236l-4.543-3.202-4.175 3.07c-4.046 2.975-6.972 3.296-6.972.763 0-.679.633-3.338 1.407-5.909l1.407-4.675-4.465-3.072c-3.316-2.281-4.386-3.628-4.157-5.234.28-1.972.807-2.133 5.982-1.833l5.674.33 1.772-5.624c1.465-4.645 2.129-5.572 3.818-5.329 1.454.209 2.582 1.788 3.899 5.46l1.853 5.166 6.155.374c3.385.205 6.27.315 6.413.243.141-.072-.773-1.665-2.032-3.54-3.006-4.476-11.044-8.864-16.226-8.857-9.326.01-18.35 8.328-19.255 17.748-.293 3.048-.047 5.204.64 5.63.613.378 1.115 1.543 1.115 2.587 0 2.618 7.22 9.983 9.786 9.983 1.153 0 2.374.45 2.714 1 1.026 1.66 9.722 1.082 14.184-.943zm11.444-1.807c1.243-1.586 1.208-1.621-.378-.378-.962.755-1.75 1.543-1.75 1.75 0 .823.821.294 2.128-1.372zM199 171.5c0-.825-.177-1.5-.393-1.5-.216 0-.652.675-.969 1.5-.316.825-.14 1.5.393 1.5s.969-.675.969-1.5zm-27.648-2.026c-.31-.805-1.055-1.158-1.658-.785-.77.476-.737.797.111 1.08.664.22.91.883.547 1.47-.382.618-.191.78.45.383.61-.377.858-1.344.55-2.148zM210 171.392c0-.827-1.942-1.295-2.387-.575-.289.467.13.85.931.85.8 0 1.456-.124 1.456-.275zm-21.672-4.658c-.645-1.06-2.106-.017-3.424 2.444-1.096 2.05-1.084 2.051 1.392.195 1.374-1.03 2.288-2.218 2.032-2.64zm5.777 2.893c-.627-.756-.839-2.157-.471-3.116.556-1.448.263-1.632-1.733-1.09-2.175.59-2.142.505.349-.916 1.512-.863 2.75-2.031 2.75-2.596s-.45-.749-1-.409-1.052-.196-1.116-1.191c-.104-1.623-.166-1.611-.608.12-.27 1.061-1.122 2.56-1.893 3.33-1.201 1.202-1.008 1.818 1.355 4.321 2.808 2.975 4.435 4.038 2.367 1.547zm16.24-1.17c-.326-.849-.807-1.329-1.069-1.067-.262.262-.18.957.183 1.543.986 1.596 1.562 1.286.886-.476zm-13.195-4.707c-.482-3.106-.533-3.14-1.147-.75-.5 1.947.196 3.71 1.574 3.985.042.008-.15-1.448-.427-3.235zm14.033 1.033c-.717-.717-1.183-.776-1.183-.15 0 .569.3 1.334.667 1.7.366.367.899.434 1.183.15.284-.284-.016-1.049-.667-1.7zm-23.679.21c.342-.554-.334-2.35-1.504-3.993-3.395-4.768-2.435-5.1 8.544-2.95.526.103 1.556.134 2.29.068 1.593-.141 1.005-2.564-.667-2.743a76.979 76.979 0 0 1-2.056-.25c-.489-.069-1.2-1.781-1.579-3.806-.507-2.701-.927-3.3-1.58-2.25-.535.862-.503 1.564.08 1.764 1.208.416 1.286 3.167.09 3.167-.482 0-1.433-.67-2.113-1.489-1.327-1.6-3.019-1.149-2.994.798.01.797.3.742.875-.166.638-1.006 1.047-1.053 1.585-.183 1.002 1.62.088 2.291-3.51 2.574-4.287.337-4.857 1.32-2.073 3.577 1.315 1.066 2.167 2.164 1.892 2.438-.274.275-1.068-.187-1.764-1.025-2.667-3.213-2.962-1.345-.313 1.976 2.947 3.693 3.786 4.13 4.797 2.493zm27.22-7.225c-.222-1.797-.409-.568-.414 2.732-.006 3.3.176 4.77.405 3.268.228-1.503.232-4.203.01-6zm-45.74 2.423c-.007-2.03-.345-4.21-.75-4.846-.403-.636-.734 1.232-.734 4.15s.337 5.1.75 4.846c.412-.252.743-2.12.735-4.15zm43.709-.922c-.254-.973-.478-.419-.498 1.231-.02 1.65.187 2.446.46 1.769.275-.677.292-2.027.038-3zM199.5 160c.34-.55.141-1-.441-1s-1.059.45-1.059 1 .198 1 .441 1 .72-.45 1.059-1zm-20.254-2.833c.276-1.056-.05-1.834-.77-1.834-1.01 0-1.213 1.258-.553 3.417.244.797.909.002 1.323-1.583zm32.542-3.304c-.25-.749-.703-.295-1.057 1.057-.435 1.663-.305 2.054.437 1.312.582-.582.86-1.647.62-2.369zm-10.059 1.533c-.332-.332-1.195-.368-1.917-.08-.797.32-.56.557.605.605 1.054.043 1.644-.193 1.312-.525zm8.653-2.948c.341-.89.173-1.291-.393-.94-.544.335-.989 1.033-.989 1.551 0 1.438.717 1.121 1.382-.61zm-40.401-.96c.445.275 1.062-.157 1.37-.962.31-.804.062-1.77-.55-2.148-.632-.392-.831-.236-.461.363.357.577-.024 1.307-.846 1.623-.822.315-1.458 1.15-1.415 1.855.062 1.011.186 1.016.585.025.279-.691.871-1.031 1.317-.756zm39.614-1.643c.443-.715.275-.883-.44-.44-.635.392-1.211.236-1.28-.346-.069-.582-.181-1.599-.25-2.258-.237-2.271-8.715-7.907-10.868-7.224-1.104.35-1.77.252-1.48-.22.291-.471-2.24-.783-5.624-.694-8.795.234-9.057.266-8.319 1.004.367.368 4.52.64 9.23.604 4.71-.035 8.31.188 8.003.496-.308.307.755 1.359 2.362 2.336 1.608.978 3.94 3.154 5.185 4.837 2.576 3.484 2.523 3.456 3.481 1.905zm-30.217-7.573c1.134-.6 1.463-1.252.831-1.643-.576-.356-1.759.064-2.628.933-.87.87-1.581 1.245-1.581.835 0-.41-1.111.298-2.47 1.574-1.357 1.276-2.208 2.741-1.89 3.256.319.516 1.768-.165 3.22-1.511 1.452-1.347 3.485-2.896 4.518-3.444zM173.5 145c.995-1.1 2.035-2 2.31-2 .275 0-.315.9-1.31 2-.995 1.1-2.035 2-2.31 2-.275 0 .315-.9 1.31-2zm37.5 1.622c0-.207-.787-.995-1.75-1.75-1.586-1.243-1.621-1.208-.378.378 1.307 1.666 2.128 2.195 2.128 1.372zm-39.872-2.372c1.243-1.586 1.208-1.621-.378-.378-.963.755-1.75 1.543-1.75 1.75 0 .823.821.294 2.128-1.372zm4-4c1.243-1.586 1.208-1.621-.378-.378-.963.755-1.75 1.543-1.75 1.75 0 .823.821.294 2.128-1.372zM206 141.622c0-.207-.787-.995-1.75-1.75-1.586-1.243-1.621-1.208-.378.378 1.307 1.666 2.128 2.195 2.128 1.372zm-14.731-6.278c-.677-.274-2.027-.29-3-.037-.973.254-.419.478 1.231.498 1.65.02 2.446-.187 1.769-.461zM38.385 185.383C28.535 181.89 21 171.14 21 160.583c0-18.462 15.768-30.224 35.207-26.264 4.829.984 13.26 7.696 15.631 12.443 3.764 7.537 4.46 12.957 2.564 19.963-4.239 15.658-20.59 24.129-36.017 18.658zm12.365-1.072c-.963-.252-2.538-.252-3.5 0-.963.251-.175.457 1.75.457s2.712-.206 1.75-.457zm-.454-2.415c-.79-.79-1.626-.8-2.95-.03-1.618.94-1.482 1.077 1.104 1.104 2.151.022 2.651-.269 1.846-1.074zM43 181c0-.955-.503-1.175-3.197-1.4-2.24-.187-8.535-6.68-10.324-10.647C27.814 165.261 26 163.721 26 166c0 .55.47 1 1.044 1 .574 0 .97.563.881 1.25-.299 2.303.069 4.09.71 3.449.349-.35 1.894.95 3.433 2.886 1.539 1.937 3.085 3.385 3.435 3.218.35-.167 1.068.466 1.594 1.405.53.948 1.612 1.457 2.43 1.143.81-.31 1.473-.067 1.473.542S41.45 182 42 182s1-.45 1-1zm13 .031c0-.532.61-.734 1.355-.448 1.426.547 11.259-8.302 10.296-9.265-.306-.306.058-1.17.808-1.92s1.113-2.317.808-3.483c-.49-1.874-.698-1.73-1.793 1.232-2.127 5.758-3.928 8.837-5.174 8.845-.66.004-1.56.651-2 1.437-.44.786-1.25 1.466-1.8 1.512-2.247.186-4.5 1.25-4.5 2.126 0 .513.45.933 1 .933s1-.436 1-.969zm10.563-4.281l2.937-3.25-3.25 2.937c-3.03 2.738-3.71 3.563-2.937 3.563.172 0 1.635-1.462 3.25-3.25zM32 178.622c0-.207-.787-.995-1.75-1.75-1.586-1.243-1.621-1.208-.378.378 1.307 1.666 2.128 2.195 2.128 1.372zm23.53-.634l2.66-1.011-5.144-3.54-5.146-3.539-3.337 2.063c-5.35 3.307-6.232 4.842-3.427 5.966 3.183 1.274 11.115 1.308 14.394.061zm-18.28-2.65c-1.634-.66-1.58-3.15.176-8.128l1.426-4.04-4.037-2.798c-2.22-1.539-4.44-3.715-4.933-4.835-.616-1.4-.805-.006-.607 4.465.241 5.44.822 7.279 3.555 11.25 1.796 2.612 3.807 4.712 4.468 4.669.885-.058.872-.212-.048-.583zm27.386-5.553c1.3-2.06 2.364-4.949 2.364-6.42 0-2.612.047-2.632 2-.865 1.96 1.774 2 1.747 2-1.345 0-1.735-.502-3.155-1.117-3.155-.648 0-.918-1.036-.644-2.47.272-1.425.068-2.22-.484-1.878-.526.325-.697 1.886-.38 3.47.319 1.596.14 2.878-.4 2.878-.536 0-.975-1.315-.975-2.922 0-1.765-1.306-4.635-3.297-7.245-8.034-10.533-19.625-11.718-29.04-2.969-5.5 5.113-5.294 5.834 1.635 5.73l6.202-.094 1.577-5c1.997-6.333 4.99-7.335 6.872-2.3 3.041 8.138 2.536 7.675 8.746 7.999 7.408.385 7.947 2.228 1.844 6.301-4.904 3.273-5.321 4.692-3.008 10.23.843 2.015 1.282 4.314.977 5.109-.974 2.54 2.489-.873 5.128-5.054zm-12.274-.285c-.317-.825-1.033-1.5-1.591-1.5-.586 0-.489.635.229 1.5.685.825 1.4 1.5 1.591 1.5.19 0 .087-.675-.23-1.5zm-5.954-2c.901-1.375 1.29-2.532.865-2.57-.425-.039.127-.457 1.227-.93 1.928-.829 1.921-.862-.191-.93-1.205-.038-2.474-.527-2.82-1.086-.345-.56-1.015-.777-1.489-.484-.474.293-1.144.075-1.49-.484-.345-.559-.264-1.016.181-1.016s.809-1.06.809-2.355c0-1.906-.546-2.37-2.865-2.436l-2.864-.082 2.364 2.597c1.935 2.124 2.032 2.476.533 1.936-1.007-.363-2.271-.66-2.809-.66-.537 0-.745-.375-.462-.833.283-.459-.212-.834-1.1-.834-1.126 0-.751.69 1.235 2.274 1.568 1.25 3.184 2.068 3.59 1.817.407-.251 1.022 0 1.368.56.345.559.039 1.023-.681 1.031-.89.01-.957.25-.209.75.605.404 1.398 1.41 1.761 2.235.373.846.48.52.244-.75-.476-2.565.586-2.93 2.349-.806.962 1.16.79 1.699-.878 2.74-2.134 1.333-2.76 2.816-1.191 2.816.487 0 1.622-1.125 2.523-2.5zm9.399-.026c-.308-.308-.867.247-1.243 1.233-.542 1.425-.428 1.54.56.56.684-.679.99-1.486.683-1.794zM42 166c0-.55-.45-1-1-1s-1 .45-1 1 .45 1 1 1 1-.45 1-1zm12.978-.75c-.012-.412-.816-1.781-1.786-3.042-1.644-2.137-1.763-2.158-1.763-.323 0 1.082.356 1.748.792 1.478.436-.27 1.063.214 1.393 1.074.628 1.636 1.402 2.098 1.364.813zm-31.289-7c-.251-.963-.457-.175-.457 1.75s.206 2.712.457 1.75c.252-.963.252-2.538 0-3.5zm1.973.5c-.277-.688-.504-.125-.504 1.25s.227 1.938.504 1.25c.278-.688.278-1.813 0-2.5zm32.338.132c0-.55-.45-.722-1-.382-.55.34-1 1.068-1 1.618s.45.722 1 .382c.55-.34 1-1.068 1-1.618zm2.05-3.144c2.595-.314 2.087-.475-2.05-.648-4.987-.21-11.547-1.848-8.083-2.02 2.172-.107.398-1.367-2.338-1.659-1.371-.146-2.66.36-2.97 1.165-.3.783-.148 1.424.34 1.424.486 0 1.111-.563 1.389-1.25.301-.747.536-.545.583.5.043.963-.398 1.75-.98 1.75s-.776.457-.43 1.016c.345.56.962.81 1.37.557.41-.252 2.036.389 3.615 1.425 2.8 1.837 2.912 1.837 4.487.021.889-1.024 3.169-2.05 5.066-2.28zm-24.32-.342c-.333-.332-1.196-.368-1.917-.08-.798.32-.561.557.604.605 1.054.043 1.644-.193 1.312-.525zm-5.384-7.646c-.255-.412.013-.75.595-.75s1.045-.563 1.027-1.25c-.017-.688-1.169.044-2.559 1.625-1.39 1.58-2.29 3.493-2 4.25.29.756.066 1.375-.5 1.375-.565 0-.708.516-.319 1.146.44.712 1.372-.14 2.464-2.25.965-1.867 1.547-3.733 1.292-4.146zm36.51 1.14c-.745-.473-.934-.866-.419-.875 1.495-.024-4.642-6.04-7.893-7.736-2.513-1.312-10.2-1.883-18.353-1.363-1.49.096-.605 2.084.927 2.084.55 0 .757-.394.46-.875-.506-.818 5.029-.62 11.922.427 3.169.48 11.63 5.594 11.708 7.076.107 2.004 1.068 3.32 2.004 2.741.616-.38.479-.95-.355-1.479zm3.268-.157c-.988-.98-1.102-.865-.56.56.376.986.935 1.541 1.243 1.233.308-.307 0-1.114-.683-1.793zm-21-2c-.988-.98-1.102-.865-.56.56.376.986.935 1.541 1.243 1.233.308-.307 0-1.114-.683-1.793zM38.252 140.6c-.384-.622-.77-.543-1.02.206-.222.664-.74 1-1.15.745-.412-.254-.749.15-.749.898 0 1.051.403 1.11 1.769.256.973-.607 1.49-1.555 1.15-2.105zm-4.124-.349c1.243-1.586 1.208-1.621-.378-.378-.963.755-1.75 1.543-1.75 1.75 0 .823.821.294 2.128-1.372zM64 141.622c0-.207-.787-.995-1.75-1.75-1.586-1.243-1.621-1.208-.378.378 1.307 1.666 2.128 2.195 2.128 1.372zm42.218-35.2C96.725 101.69 92 93.406 92 81.491c0-11.25 4.323-18.433 14.279-23.724 3.412-1.814 5.85-2.246 12.721-2.256 7.754-.011 8.939.258 13.5 3.067 12.196 7.508 16.442 21.529 10.795 35.641-1.914 4.785-10.303 12.41-15.126 13.75-6.971 1.936-16.275 1.28-21.95-1.549zm19.699-2.292c.779-.071 1.079-.467.667-.88-1.174-1.173-12.385-.913-11.932.278.328.862 5.461 1.136 11.265.602zM105 102.622c0-.207-.787-.995-1.75-1.75-1.586-1.243-1.621-1.208-.378.378 1.307 1.666 2.128 2.195 2.128 1.372zm27-2.657c0-.53.526-.853 1.168-.715.643.138 1.658-.685 2.257-1.828.598-1.143 1.872-2.862 2.831-3.821C140.191 91.666 140.535 90 139 90c-.55 0-1 .449-1 .997 0 1.57-6.945 8.85-9.092 9.532-1.066.338-1.678 1.034-1.362 1.546.686 1.11 4.454-.675 4.454-2.11zm-23.399.785c.396-.688.372-.937-.052-.555s-1.823-.556-3.109-2.084c-2.071-2.461-6.168-4.098-4.827-1.928.289.467.893.622 1.343.344.45-.278 1.373.165 2.053.984.68.819.843 1.503.363 1.52-.48.018.001.693 1.07 1.5 2.345 1.775 2.267 1.77 3.16.219zm14.533.092c2.126-.637 3.866-1.462 3.866-1.833 0-.37-1.836-2.15-4.08-3.953l-4.08-3.28-4.334 3.112c-2.383 1.712-4.934 3.147-5.67 3.19-1.27.073 7.69 3.682 9.548 3.845.486.042 2.624-.444 4.75-1.081zM136.5 100c.995-1.1 1.585-2 1.31-2-.275 0-1.315.9-2.31 2-.995 1.1-1.585 2-1.31 2 .275 0 1.315-.9 2.31-2zm-4.251-3.75c3.975-4.168 6.978-11.963 6.243-16.207-1.184-6.838-7.698-14.107-14.34-16.004-3.168-.904-3.317-.834-2.779 1.311.313 1.247 1.263 3.928 2.111 5.958 1.514 3.624 1.645 3.692 7.06 3.692 6.46 0 8.13 1.893 4.32 4.898-7.429 5.86-7.015 5.027-5.66 11.408 1.05 4.951 1.016 5.943-.236 6.735-.807.51-.99.935-.405.944.585.008 2.243-1.223 3.686-2.735zm-23.902-5.858l1.461-5.108-4.904-3.662-4.904-3.66v4.823c0 3.7.735 5.976 3.153 9.77 1.735 2.72 3.284 4.495 3.443 3.945.16-.55.947-3.299 1.75-6.108zm-7.539 1.673C99.613 90.15 98 90.182 98 92.118c0 .55.419.741.93.425.513-.317 1.214-.118 1.56.44.345.56.83 1.017 1.077 1.017.248 0-.094-.87-.759-1.935zm23.064.185c-.754-.963-1.822-2.08-2.372-2.485-.639-.469-.59-.74.133-.75.624-.008 1.335-1.065 1.58-2.348.265-1.39-.037-2.334-.746-2.334-.656 0-.993.763-.75 1.696a1.97 1.97 0 0 1-1.2 2.326c-1.39.534-1.21 1.013 1.17 3.106 3.33 2.93 4.076 3.2 2.185.789zm-6.853-2.5c1.779-2.684 1.812-2.865.192-1.043-1.08 1.215-2.169 2.002-2.42 1.75-.252-.251-.458.218-.458 1.043 0 2.093.243 1.935 2.686-1.75zm-18.637-1.302c.341-.89.173-1.291-.393-.94-.544.335-.989 1.033-.989 1.551 0 1.438.717 1.121 1.382-.61zm27.414-.403c-.671-1.075-1.414-1.76-1.65-1.524-.43.429 1.75 3.479 2.485 3.479.212 0-.163-.88-.835-1.955zm-31.113-1.233c-.32-.797-.556-.56-.604.605-.043 1.054.193 1.644.525 1.312.332-.332.368-1.195.08-1.916zm17.679.688c-.317-.825-.115-1.5.448-1.5.563 0 1.173.418 1.357.928.183.51 1.458.302 2.833-.464 1.896-1.057 2.077-1.402.75-1.429-1.72-.034-2.179-1.067-1.79-4.035.14-1.072-.213-.955-1.236.41-1.347 1.798-1.568 1.813-3.8.25-1.303-.913-2.831-1.65-3.397-1.638-1.41.03 3.678 3.928 5.164 3.956.655.012 1.466.467 1.802 1.01.341.553-.03.743-.84.432-1.653-.634-3.081 1.078-2.153 2.58.941 1.523 1.511 1.192.862-.5zm29.064-2.25c.33-2.063.184-5.1-.326-6.75-.99-3.2-1.078-2.888-1.472 5.25-.292 6.048.908 7.05 1.798 1.5zm2.257-1.438c-.32-.797-.556-.56-.604.605-.043 1.054.193 1.644.525 1.312.332-.332.368-1.195.08-1.916zM120 82.56c0-.243-.45-.72-1-1.059-.55-.34-1-.141-1 .441S118.45 83 119 83s1-.198 1-.441zm10.446-1.471c.31-.502-.1-.815-.912-.696-2.142.314-3.155 1.608-1.26 1.608.885 0 1.862-.41 2.172-.912zm13.237-1.275c-.32-.798-.556-.561-.604.604-.043 1.054.193 1.644.525 1.312.332-.332.368-1.195.08-1.916zm-19.286.02c-.283-.458-.038-.833.544-.833.582 0 1.059-.45 1.059-1 0-1.658-1.863-1.125-2.91.833-.735 1.373-.63 1.834.42 1.834.771 0 1.17-.375.887-.834zM121.5 79c.34-.55.168-1-.382-1s-1.278.45-1.618 1c-.34.55-.168 1 .382 1s1.278-.45 1.618-1zm-4.262-7.198c-.691-2.642-1.036-1.939-1.577 3.216-.455 4.336-.429 4.387.8 1.573.698-1.6 1.047-3.755.777-4.79zm4.262 5.006c1.672-.34 1.562-.497-.673-.954-2.06-.422-2.788-.11-3.172 1.356-.356 1.363-.165 1.634.674.955.644-.522 2.071-1.133 3.171-1.357zm-26.817-.996c-.32-.797-.556-.56-.604.605-.043 1.054.193 1.644.525 1.312.332-.332.368-1.195.08-1.916zm3.662-.355c-.326-.849-.807-1.329-1.069-1.067-.262.262-.18.957.183 1.543.986 1.596 1.562 1.286.886-.476zm8.617-.457c6.33 0 6.02.306 8.902-8.757 1.017-3.196.986-3.245-1.664-2.642-5.264 1.198-14.372 9.482-14.121 12.843.043.58.306.494.583-.194.322-.798 2.6-1.25 6.3-1.25zM140 74c0-.55-.198-1-.441-1s-.72.45-1.059 1c-.34.55-.141 1 .441 1S140 74.55 140 74zm-39.233-2.083c.962-1.268.914-1.584-.239-1.584-.792 0-1.208.375-.925.834.283.458.012.833-.603.833s-.821.48-.459 1.067c.363.586.742.924.842.75.1-.175.723-1.03 1.384-1.9zM122 73c0-.55-.198-1-.441-1s-.72.45-1.059 1c-.34.55-.141 1 .441 1S122 73.55 122 73zm-2.397-5.826c-1.506-1.506-1.534-1.425-.366 1.066.695 1.482 1.428 2.215 1.63 1.63.2-.587-.368-1.8-1.264-2.696zm15.325-.748c-1.784-1.841-3.63-3.11-4.103-2.818-.472.292-.594.956-.272 1.477.322.521.892.763 1.266.536.375-.226 1.261.217 1.97.984.71.767.992 1.395.628 1.395s-.106.67.574 1.489c.68.819 1.674 1.218 2.21.887.535-.33-.488-2.108-2.273-3.95zm-30.367.507c2.396-2.648.037-3.199-2.433-.569-1.663 1.77-1.813 2.303-.65 2.303.833 0 2.22-.78 3.083-1.734zm-2.561.69c0-.208.787-.996 1.75-1.75 1.586-1.244 1.621-1.21.378.377-1.307 1.666-2.128 2.195-2.128 1.372zm-.437-2.873l2.937-3.25-3.25 2.937C98.22 67.175 97.54 68 98.313 68c.172 0 1.635-1.462 3.25-3.25zm6.884-1.835a1.117 1.117 0 0 0-1.532-.362 1.117 1.117 0 0 0-.362 1.532 1.117 1.117 0 0 0 1.532.362 1.117 1.117 0 0 0 .362-1.532zm21.148-.07c.443-.715.275-.883-.44-.44-.635.392-1.155.25-1.155-.315s-.755-.738-1.677-.384c-1.684.647-1.534.788 2.368 2.224.105.038.512-.45.904-1.085zM111.5 62c-.34-.55-1.068-1-1.618-1s-.722.45-.382 1c.34.55 1.068 1 1.618 1s.722-.45.382-1zm4.5-.383c0-.211-.9-.62-2.001-.907-1.101-.288-1.75-.115-1.441.383.538.871 3.442 1.313 3.442.524zm7.881-.522c.97-.615.132-1.086-2.817-1.584-2.31-.39-4.468-.44-4.798-.11-.33.33.6.599 2.067.599s2.667.45 2.667 1c0 1.223 1.046 1.257 2.881.095zm-2.631-3.8c-1.238-.24-3.263-.24-4.5 0-1.238.238-.225.433 2.25.433s3.487-.195 2.25-.434zm-7.146-21.19c-3.112-3.113-2.925-10.375.35-13.65 4.203-4.203 10.321-2.291 9.327 2.913-.282 1.474-.123 2.92.353 3.215.476.294.866 1.547.866 2.785 0 5.493-7.067 8.565-10.896 4.736zM119.5 32c.34-.55-.11-1-1-1s-1.34.45-1 1c.34.55.79 1 1 1 .21 0 .66-.45 1-1zm-3.1-3.235c.678-.453.43-.74-.65-.75-1.176-.01-1.724.723-1.671 2.235.053 1.503.268 1.752.65.75.314-.825 1.066-1.83 1.67-2.235zM6.75 201.828c-.145-37.58-.264-7.128-.264 67.672s.119 105.548.264 68.328c.145-37.22.145-98.42 0-136zM232.662 401.75c-.277-.688-.504-.125-.504 1.25s.227 1.938.504 1.25c.278-.688.278-1.813 0-2.5zM6.731 113.72c-.21-2.321-.38-.17-.376 4.78.003 4.95.175 6.849.381 4.22.207-2.63.204-6.68-.005-9zm.018-76.47c-.158-13.063-.287-2.375-.287 23.75s.13 36.813.287 23.75c.158-13.063.158-34.438 0-47.5zM232 11c0-1.65-.372-3-.827-3-.455 0-.628 1.35-.386 3s.614 3 .826 3c.213 0 .387-1.35.387-3zM10.73 7.396c-.333-.332-1.196-.368-1.918-.08-.797.32-.56.557.605.605 1.054.043 1.644-.193 1.312-.525z"/></svg>