<svg xmlns="http://www.w3.org/2000/svg" width="246" height="420" viewBox="0 0 246 420"><path d="M61.75 418.25c33.688-.146 88.813-.146 122.5 0 33.688.146 6.125.266-61.25.266s-94.938-.12-61.25-.266zm11.083-10.225c-35.567-.289-65.042-.9-65.5-1.36-1.164-1.165-.357-399.864.812-401.31.617-.763 4.165-1.031 10.64-.803 5.343.189 56.065.614 112.715.945 56.65.332 103.514.773 104.142.98.853.282 1.024 50.966.677 200.2-.255 109.903-.642 200.386-.86 201.073-.423 1.334-26.54 1.378-162.626.275zm157.917-1.969c1.238-.03 2.249-.393 2.248-.806-.001-.412-50.045-.874-111.207-1.025-86.403-.214-111.378-.549-111.982-1.5-.584-.919-.782-.927-.794-.034-.008.655.548 1.555 1.235 2 1.67 1.081 186.282 2.225 220.5 1.365zm.23-198.992l.044-195.98-109.454-.045-109.453-.044-.105 127.753c-.058 70.263-.28 156.552-.494 191.752-.214 35.2-.157 65.575.127 67.5l.517 3.5 49.169.351c27.043.194 49.329.504 49.524.689.195.185 27.294.374 60.219.42l59.864.084.043-195.98zM104.274 369.887c-4.113-1.188-5.482-3.67-4.3-7.795 1.42-4.952 4.662-9.552 9.557-13.563 6.96-5.703 7.472-7.332 7.458-23.73l-.013-14.299-3.96-4.265c-2.18-2.345-5.099-4.697-6.488-5.225-2.721-1.034-3.291-3.158-1.277-4.758 1.731-1.376 18.972-2.342 26.25-1.47 5.595.67 6.021.904 6.316 3.468.262 2.271-.07 2.75-1.909 2.75-1.374 0-3.884 1.807-6.566 4.728L125 310.456v12.871c0 15.662.394 16.65 10.898 27.325 5.8 5.894 7.973 8.844 8.471 11.503.897 4.777.183 6.244-3.725 7.657-3.909 1.413-31.542 1.47-36.37.075zm33.456-1.491c-.332-.332-1.195-.368-1.917-.08-.797.32-.56.557.605.605 1.054.043 1.644-.193 1.312-.525zm-2.46-3.052c-.677-.274-2.027-.29-3-.037-.973.253-.419.478 1.231.498 1.65.02 2.446-.187 1.769-.461zm4.732-3.094c0-.688-1.126-1.29-2.501-1.34-1.375-.05-3.762-.133-5.305-.183-1.543-.05-3.553.197-4.468.548-.915.35-1.86.32-2.103-.069-.242-.388-5.087-.706-10.766-.706-8.385 0-10.381.282-10.615 1.5-.248 1.288 2.253 1.5 17.735 1.5 13.752 0 18.023-.296 18.023-1.25zM118 357.878c0-.787.438-.76 1.466.094.807.67 2.044.985 2.75.701.858-.344.744-.541-.344-.594-.895-.043-2.183-.75-2.863-1.568-.68-.819-1.635-1.242-2.122-.941-1.213.75-1.124 3.43.113 3.43.55 0 1-.505 1-1.122zm9.174-1.104c-.55-.55-1.537-.668-2.194-.262-.907.56-.879.932.115 1.547 1.706 1.054 3.382.019 2.08-1.285zm11.319 1.237c.35-.566-.051-.734-.941-.393-1.732.665-2.05 1.382-.611 1.382.518 0 1.216-.445 1.552-.989zm-31.995-.847c-.276-.276.243-1.326 1.155-2.333 2.436-2.691 1.075-2.235-1.496.502-1.682 1.79-1.84 2.334-.675 2.334.835 0 1.292-.226 1.016-.503zM131.5 356c-.34-.55-1.154-.993-1.809-.985-.716.01-.592.403.309.985 1.921 1.242 2.267 1.242 1.5 0zm-7.725-2.011c1.039-1.664.97-2.448-.394-4.53l-1.65-2.52-1.485 2.12c-1.156 1.65-1.242 2.655-.387 4.53 1.338 2.938 2.272 3.033 3.916.4zm-12.288-1.743a84.603 84.603 0 0 0-.41-2.055c-.043-.17-.549-.017-1.126.339-.726.449-.729 1.033-.009 1.901.572.69.707 1.621.299 2.071-.408.45-.219.52.42.154.638-.365 1.01-1.45.826-2.41zm22.406-.875c-.877-1.056-1.49-1.12-2.526-.26-1.582 1.312-1.843 2.301-.367 1.389.55-.34 1-.156 1 .41 0 .565.686.764 1.526.442 1.183-.454 1.265-.899.367-1.981zm-19.393-2.704c0-.642 1.087-1.167 2.417-1.167 2.868 0 3.73-1.718 1.705-3.398-1.009-.838-1.644-.876-2.107-.126-.365.59-.124.95.536.799.66-.151 1.399.268 1.643.93.28.762-.312 1.061-1.604.812-1.127-.217-2.382.14-2.79.794-.973 1.556-1.346 4.068-.475 3.197.371-.37.675-1.2.675-1.841zm13.71.143c-1.434-1.434-4.457-2.02-3.646-.706.316.51.962.689 1.436.396.474-.293 1.144-.075 1.49.484.345.559.916 1.016 1.269 1.016.353 0 .106-.535-.549-1.19zm-4.697-3.79c-.333-.538-.093-1.936.533-3.107.866-1.616.847-2.402-.078-3.27-.929-.871-1.102-.786-.728.357.27.825.08 2.297-.421 3.27-.84 1.63-.389 3.73.799 3.73.275 0 .228-.44-.105-.98zm-2.01-4.261c.45.407.461.126.026-.626s-1.101-7.952-1.48-16l-.687-14.633-.431 16.167c-.31 11.617-.124 15.912.661 15.259.6-.5 1.46-.575 1.91-.167zm1.16-7.009c-.278-.688-.505-.125-.505 1.25s.227 1.937.504 1.25c.278-.688.278-1.813 0-2.5zm-.932-16.03c-.21-2.321-.38-.17-.376 4.78.003 4.95.175 6.849.381 4.22.207-2.63.204-6.68-.006-9zm-.038-9.451c-.254-.973-.478-.419-.498 1.231-.02 1.65.187 2.446.461 1.769.274-.677.29-2.027.037-3zm1.99.543c-.32-.797-.556-.56-.604.605-.043 1.054.193 1.644.525 1.312.332-.332.368-1.195.08-1.917zm-4.125-2.906c.372-.602 1.813-.877 3.203-.611 2.989.571 7.964-4.153 5.9-5.602-.639-.448.414-.535 2.339-.193 2.408.428 3.06.319 2.088-.349-1.117-.767-.909-1.064 1-1.424 1.488-.28.785-.507-1.838-.59-5.623-.181-5.592-.176-6.784-1.165-.578-.48-2.785-.453-5 .06-2.181.507-5.541.945-7.466.976-3.296.052-3.387.141-1.559 1.524 1.304.986 1.486 1.468.554 1.468-.801 0 .046 1.479 2.005 3.5 3.633 3.748 4.497 4.122 5.558 2.406zm-3.253-2.702c-1.366-.205-1.998-.841-1.673-1.686.313-.817 1.486-1.183 2.944-.918 1.695.307 2.424-.018 2.424-1.08 0-.836.45-1.52 1-1.52s.947.338.882.75c-.312 1.975.246 2.6 1.118 1.25.704-1.09.974-1.142.985-.191.008.72.465 1.03 1.015.691.55-.34 1 .136 1 1.058 0 1.183-.588 1.522-2 1.152-1.1-.287-2-.143-2 .321 0 .82-1.135.854-5.695.173zM108.5 299c-1.181-.508-1.42-.888-.583-.93.779-.038 1.146-.34.816-.67-.898-.898-2.855.593-2.19 1.67.316.511 1.336.898 2.266.86 1.379-.058 1.321-.23-.309-.93zm70-10.944c-3.3-.445-6.791-1.14-7.759-1.543-5.121-2.137-1.509-12.013 7.103-19.418 7.201-6.193 9.156-10.248 9.156-18.996 0-9.909 1.85-10.518 3.334-1.099.216 1.375.455-1.493.53-6.372.112-7.32-.099-8.678-1.206-7.76-1.703 1.414-2.658.47-2.658-2.63 0-2.923-7.179-10.815-10.625-11.68-3.195-.802-3.312-5.126-.166-6.124 1.215-.386 8.148-.731 15.407-.768 14.128-.07 16.76.702 16.182 4.746-.203 1.424-1.15 2.186-2.976 2.398-1.734.2-3.956 1.868-6.3 4.728l-3.621 4.42-.09 13.27c-.054 7.903.375 14.422 1.06 16.114.632 1.562 3.97 5.612 7.417 9 8.392 8.245 9.712 10.331 9.712 15.345 0 3.14-.492 4.506-1.894 5.256-2.536 1.358-25.087 2.127-32.606 1.113zm8.769-1.712c-.677-.274-2.027-.29-3-.037-.973.253-.419.478 1.231.498 1.65.02 2.446-.187 1.769-.461zm14 0c-.677-.274-2.027-.29-3-.037-.973.253-.419.478 1.231.498 1.65.02 2.446-.187 1.769-.461zm8.257-2.15c-.307-.309-1.114-.002-1.793.682-.98.988-.865 1.102.56.56.986-.376 1.541-.935 1.233-1.243zm-29.55-2.035c-1.67-.557-4.16.735-3.493 1.813.387.627 1.327.54 2.573-.24 1.08-.674 1.494-1.382.92-1.573zm25.524 1.808c1.1-.422-3.175-.525-9.5-.23-6.325.294-11.711.723-11.97.952-.842.747 19.414.066 21.47-.722zm-17.75-1.656c-.963-.252-2.538-.252-3.5 0-.963.251-.175.457 1.75.457s2.712-.206 1.75-.457zm9.514-.015c-1.23-.237-3.48-.243-5-.014-1.52.23-.514.425 2.236.432 2.75.007 3.994-.18 2.764-.418zM209 280.5c0-.866-.95-1.532-2.25-1.576-1.238-.042-6.525-.155-11.75-.25-5.225-.096-9.95-.448-10.5-.782-1.664-1.011-10.81.517-11.261 1.881-.331 1.002 1.893 1.152 10.42.706 5.963-.313 13.091-.151 15.841.359 7.613 1.411 9.5 1.344 9.5-.338zm-33.872-6.25c1.243-1.586 1.208-1.621-.378-.378-.962.755-1.75 1.543-1.75 1.75 0 .823.821.294 2.128-1.372zm12.196.349c.472-1.232-.254-1.388-3.133-.676-.17.043-.03.527.309 1.077.88 1.423 2.195 1.237 2.824-.401zm9.038-.099c-.628-1.634-2.362-2.063-2.362-.583 0 .759.7 1.275 2.719 2.004.12.043-.04-.596-.357-1.421zm11.638.655c0-1.524-3.855-4.372-5.192-3.837-.902.362-.803.549.32.603.895.043 2.187.754 2.872 1.579 1.015 1.223.96 1.5-.294 1.5-.847 0-1.766-.563-2.044-1.25-.301-.747-.536-.545-.583.5-.055 1.221.677 1.75 2.421 1.75 1.375 0 2.5-.38 2.5-.845zm-15.252-3.5c1.925-4.226-5.013-13.271-7.318-9.541-.318.514-.039.812.62.66.66-.15 1.427.351 1.705 1.115.277.764.056 1.112-.492.774-.547-.339-1.8.274-2.784 1.36-2.069 2.286-4.343 2.723-2.479.477 2.272-2.738.442-1.552-2.856 1.852l-3.249 3.351 2.803-.101c1.815-.066 2.7-.585 2.511-1.475-.189-.89.27-1.158 1.302-.761.876.336 1.355.226 1.065-.244-.291-.47.36-1.66 1.448-2.643 1.087-.984 1.99-1.382 2.008-.884.017.498.692.032 1.5-1.036 1.663-2.198 2-.42.463 2.45-.692 1.293-.642 2.671.16 4.434 1.445 3.169 2.224 3.214 3.593.211zM178 270.621c0-.207.6-.875 1.333-1.484 1.01-.837 1.334-.746 1.334.378 0 .816-.6 1.484-1.334 1.484-.733 0-1.333-.17-1.333-.378zm23 2.985c0-.216-.698-.661-1.552-.989-.89-.341-1.291-.173-.94.393.586.95 2.492 1.406 2.492.596zm1-3.607c.825-.533 1.05-.97.5-.97s-1.675.437-2.5.97c-.825.533-1.05.97-.5.97s1.675-.437 2.5-.97zm-4-.345c0-.19-1.012-1.202-2.25-2.25l-2.25-1.905 1.905 2.25c1.79 2.114 2.595 2.705 2.595 1.905zm1.131-1.997c-.612-.738-.893-1.638-.622-2 .27-.362.19-.432-.178-.156s-1.448-.203-2.4-1.065c-1.317-1.19-1.913-1.274-2.486-.348-.443.717-.337.963.255.596.555-.343 2.053.488 3.329 1.846 2.431 2.588 4.023 3.441 2.102 1.127zM192.2 261.8c-.66-.66-1.2-2.01-1.2-3 0-.99-.498-1.8-1.107-1.8s-.834-.711-.5-1.58c.333-.87.268-4.132-.144-7.25l-.749-5.67-.5 8.5c-.539 9.158-.397 10.242 1.04 7.971.806-1.275.931-1.265.945.079.014 1.472 1.843 3.95 2.915 3.95.275 0-.04-.54-.7-1.2zm1.785-5.109c.008-.445-.435-.53-.985-.191-.55.34-.993 1.379-.985 2.309.014 1.457.15 1.484.985.191.533-.825.976-1.864.985-2.309zm-2.292-4.422c-.254-.973-.478-.419-.498 1.231-.02 1.65.187 2.446.46 1.769.275-.677.292-2.027.038-3zm1.538-17.927c.148-4.487-.068-7.948-.481-7.69-.412.256-.671 5.727-.575 12.157.177 11.895.57 10.234 1.056-4.467zm-2.246-4.092c-.008-.412-.452-1.425-.985-2.25-.784-1.213-.972-1.07-.985.75-.008 1.238.435 2.25.985 2.25s.993-.338.985-.75zm-1.16-7.475c.922-.922 1.671-.946 3.029-.099 1.514.946 2.229.593 4.456-2.198 1.866-2.339 2.287-3.497 1.421-3.908-.677-.322.723-.344 3.111-.05 3.252.4 4.236.213 3.918-.743-.61-1.84-10.046-2.903-18.76-2.114-4.125.373-8.287.573-9.25.445-1.01-.135-1.75.417-1.75 1.304 0 1.175.707 1.397 2.998.938 1.795-.359 3.61-.09 4.524.668.84.697 1.8.994 2.134.66.334-.334 1.516-.121 2.627.473 1.728.925 1.923.828 1.346-.676-.569-1.482-.435-1.56.848-.494 1.042.865 1.523.91 1.523.141 0-.617.477-1.122 1.059-1.122s.734.526.336 1.17c-.492.796-.169.957 1.014.503 1.294-.496 1.65-.22 1.395 1.08-.198 1.012-1.242 1.747-2.482 1.747-1.178 0-2.482.337-2.898.75-1.228 1.216-2.424.861-2.424-.719 0-.91-.584-1.244-1.537-.878-.846.324-2.533-.243-3.75-1.26-1.217-1.018-.662-.172 1.233 1.878 3.819 4.132 4.122 4.26 5.879 2.504zM41.5 287.055c-8.554-1.152-9.5-1.71-9.5-5.597 0-5.403 1.585-8.148 9.499-16.457 6.501-6.825 7.518-8.383 7.629-11.688.07-2.097.231-4.783.359-5.97 1.482-13.82 1.438-18.006-.217-20.381-3.06-4.396-9.072-9.962-10.758-9.962-1.204 0-1.56-.736-1.328-2.75.309-2.686.501-2.764 8.316-3.348 7.658-.572 22.898.15 23.854 1.13.25.257.611 1.357.8 2.444.262 1.493-.482 2.25-3.034 3.093-2.144.708-4.611 2.813-6.75 5.76-3.333 4.593-3.37 4.763-3.359 15.408.017 16.733.338 17.777 7.739 25.189C74.33 273.52 76 276.034 76 280.869c0 3.534-.385 4.327-2.49 5.127-3.486 1.325-24.793 2.03-32.01 1.058zm12.25-1.771c-1.512-.23-3.987-.23-5.5 0-1.512.229-.275.416 2.75.416s4.263-.187 2.75-.416zm7.5.054c-.688-.278-1.813-.278-2.5 0-.688.277-.125.504 1.25.504s1.938-.227 1.25-.504zm10.641-1.25c.84-.532-3.71-.852-11.5-.807l-12.891.073 11 .625c6.05.344 11.225.708 11.5.808.275.1 1.126-.214 1.891-.699zm-24.641-2.794c-1.238-.238-3.263-.238-4.5 0-1.238.239-.225.434 2.25.434s3.487-.195 2.25-.434zm5.48.102c-.333-.332-1.196-.368-1.917-.08-.798.32-.561.557.604.605 1.054.043 1.644-.193 1.312-.525zm8.534-.1c-1.23-.237-3.48-.243-5-.014-1.52.23-.514.424 2.236.432 2.75.007 3.994-.18 2.764-.418zM72 278.883c0-.486-.787-.917-1.75-.958-.963-.04-6.25-.293-11.75-.561-12.95-.63-21.5-.907-21.5-.696 0 .093-.23.768-.51 1.5-.412 1.076 2.953 1.358 17.5 1.465 9.905.073 18.01-.264 18.01-.75zm-36.618-2.435c.341-.89.173-1.291-.393-.94-.544.335-.989 1.033-.989 1.551 0 1.438.717 1.121 1.382-.61zM68 273.883c0-1.348-1.614-1.053-2.935.538-.968 1.167-.81 1.325.878.884 1.131-.296 2.057-.936 2.057-1.422zm-16.835.24c-.735-.466-1.297-1.134-1.25-1.485.436-3.261-.066-3.91-1.269-1.638-1.611 3.043-1.21 4.005 1.663 3.985 1.584-.011 1.82-.25.856-.862zm7.706-.779c-.604-.727-1.504-1.07-2-.764-1.258.777-.273 2.087 1.57 2.087 1.153 0 1.258-.324.43-1.323zM39 273c0-.55-.198-1-.441-1s-.72.45-1.059 1c-.34.55-.141 1 .441 1S39 273.55 39 273zm16.43-2.534c1.562-2.383 1.55-2.677-.203-4.905-1.844-2.344-1.879-2.348-3.122-.357-.989 1.582-1.001 2.632-.06 4.905.659 1.59 1.316 2.891 1.461 2.891.145 0 1.011-1.14 1.925-2.534zM63 272c-.825-.533-1.95-.97-2.5-.97s-.325.437.5.97c.825.533 1.95.97 2.5.97s.325-.437-.5-.97zm.434-5.862c-2.094-2.001-3.218-2.85-2.498-1.888.72.963.974 1.75.564 1.75-.41 0-.244.604.369 1.342.612.738.818 1.638.456 2-.362.362-.17.658.425.658.596 0 1.316-.563 1.6-1.25.3-.728.825-.217 1.258 1.224.44 1.468.924 1.93 1.188 1.138.245-.735-1.268-2.974-3.362-4.975zM42 269.897c-1.218-.87-1.097-.984.644-.606 1.57.34 2.07.03 1.869-1.163-.151-.896.873-2.858 2.276-4.36 1.948-2.088 2.864-2.472 3.88-1.628.88.729 1.331.751 1.331.065 0-.572-.563-1.229-1.25-1.46-.976-.329-.951-.782.113-2.072.75-.909 1.756-1.41 2.235-1.113.48.296.636-.721.347-2.261-.288-1.54-.901-5.5-1.363-8.8l-.838-6-.122 7.8c-.14 8.907-1.205 11.503-7.04 17.153-4.473 4.332-4.989 5.555-2.332 5.532 1.512-.014 1.546-.162.25-1.087zm16.366-10.114c-.277-.45-.941-.547-1.475-.217-.586.362-.724-.382-.35-1.874.38-1.51.134-2.776-.63-3.248-.889-.55-1.058-.27-.585.963.367.955.25 2.514-.258 3.464-.754 1.41-.49 1.728 1.44 1.728 1.3 0 2.136-.367 1.858-.816zm-3.683-8.972c-.32-.797-.556-.56-.604.605-.043 1.054.193 1.644.525 1.312.332-.332.368-1.195.08-1.917zm-.88-13.797c-.038-6.082-.5-10.348-1.182-10.915-.822-.681-.944 1.385-.458 7.735.365 4.766.702 9.677.75 10.915.048 1.237.281 2.25.518 2.25.238 0 .405-4.493.371-9.985zm1.936-6.765c-.198-3.163-.36-.575-.36 5.75s.162 8.912.36 5.75c.198-3.163.198-8.338 0-11.5zm-.008-8.648c1.392.878 2.111.597 3.73-1.46 1.102-1.402 2.012-3.239 2.021-4.083.01-.903 1.253-1.773 3.018-2.114 5.151-.995-10.303-2.047-16.5-1.123-5.462.815-5.481.83-2.75 2.16 1.512.736 2.75 2.012 2.75 2.833 0 1.211-.427 1.137-2.25-.389-1.238-1.036-.73-.237 1.127 1.774 2.893 3.133 3.647 3.49 5.254 2.486 1.367-.853 2.344-.876 3.6-.084zm-6.102-2.126c-.87-2.269-.79-2.694.371-1.976.55.34 1 .141 1-.441S52.8 216 55 216s4 .395 4 .878c0 1.247-2.232 2.846-4 2.867-.825.009-2.23.321-3.121.693-1.035.432-1.848.084-2.25-.962zm4.121-5.138c.688-.278 1.813-.278 2.5 0 .688.277.125.504-1.25.504s-1.938-.227-1.25-.504zm-12.613.962c-1.151-.458-1.151-.677 0-1.406 1.067-.676.983-.867-.387-.879-1.775-.015-2.298 1.104-1.083 2.318.366.367 1.154.631 1.75.588.595-.043.47-.323-.28-.621zm25.592.096c-.332-.332-1.195-.368-1.916-.08-.798.32-.561.557.604.605 1.054.043 1.644-.193 1.312-.525zM180 208.156c-3.973-.58-4.537-.978-4.816-3.406-.264-2.293.068-2.755 2-2.782 2.79-.038 4.442-1.297 8.066-6.151 2.625-3.516 2.75-4.203 2.75-15.125 0-16.548-.153-16.985-9.105-26.038-9.86-9.97-13.171-16.628-9.645-19.387 2.627-2.056 11.089-3.267 22.827-3.267 18.955 0 22.721 1.909 20.607 10.445-.751 3.03-2.72 5.712-7.798 10.618-3.736 3.609-7.254 7.775-7.817 9.257-.564 1.482-1.116 8.879-1.228 16.437l-.204 13.743 3.932 4.196c2.162 2.307 5.168 4.659 6.681 5.225 2.974 1.113 3.553 3.167 1.398 4.956-1.592 1.321-21.153 2.226-27.648 1.279zm19.262-1.538c6.906-1.337 9.795-2.618 5.904-2.618-1.223 0-3.895-1.78-6.13-4.083-3.771-3.885-4.07-4.007-6.18-2.528-1.66 1.163-2.558 1.273-3.562.44-.738-.613-1.444-.937-1.568-.721-.124.215-1.351 1.702-2.726 3.303s-1.868 2.544-1.095 2.096c.924-.537 1.17-.436.717.295-.377.61-1.347.857-2.154.547-.807-.31-1.468-.035-1.468.611 0 .72-.775.929-2 .54-1.147-.364-2-.18-2 .433 0 .587 1.462 1.074 3.25 1.082 1.788.008 3.925.452 4.75.985 2.013 1.3 6.137 1.19 14.262-.382zm-9.512-1.28c.688-.278 1.813-.278 2.5 0 .688.277.125.504-1.25.504s-1.938-.227-1.25-.504zm9.918-1.464c-1.007-.585-2.695-.839-3.75-.563-1.057.277-1.669.094-1.36-.404.308-.499-.168-.907-1.058-.907s-1.34.45-1 1c.974 1.575-5.104 1.182-6.43-.416-.936-1.127-.778-1.542.774-2.034 1.072-.34 2.333-.532 2.802-.426.47.107 1.636-.149 2.592-.567 1.143-.501 3.28.143 6.25 1.883 4.278 2.507 5.44 3.598 3.762 3.53-.413-.017-1.574-.51-2.582-1.096zm-7.928-26.124c-.195-3.438-.355-.625-.355 6.25s.16 9.688.355 6.25c.196-3.438.196-9.063 0-12.5zm2.495-6.014c.196-7.205-.045-9.643-.92-9.306-.652.252-1.445-.08-1.761-.736-.317-.657-.314-.069.006 1.306s.887 8.125 1.26 15c.687 12.618.932 11.53 1.415-6.264zm-4.228-7.227c-.82-.99-.846-1.941-.09-3.355.835-1.558.75-1.928-.401-1.76-.802.118-1.809.6-2.237 1.07-.429.471-.217.533.47.138.82-.471 1.189-.097 1.075 1.09-.094.994.233 3.383.727 5.308.756 2.939.956 3.13 1.251 1.195.193-1.268-.164-2.927-.795-3.686zm6.35-4.997c.314-.818.25-1.44-.143-1.382-2.098.313-2.09-.356.03-2.38 1.294-1.238 1.544-1.618.555-.845-.99.773-1.813.998-1.83.5-.016-.498-.487-.12-1.045.838-.724 1.242-.643 2.166.28 3.212 1.614 1.83 1.474 1.826 2.153.057zm-8.91-2.597c-.322-.521-.944-.726-1.382-.455-1.228.759-3.851-2.743-3.529-4.71.158-.963-.12-1.75-.618-1.75-1.6 0-.373 3.887 2.036 6.451 2.151 2.29 4.843 2.647 3.493.464zm5.474-7.602l-1.076-2.813-1.918 2.354c-1.829 2.247-1.838 2.488-.203 5.256l1.714 2.902 1.28-2.444c.96-1.83 1.01-3.148.203-5.255zm-3.921 6.31c0-.208-.787-.996-1.75-1.75-1.586-1.244-1.621-1.21-.378.377 1.307 1.666 2.128 2.195 2.128 1.372zm14.26-3.373l2.633-2.75-2.6-.154c-1.782-.105-2.17.112-1.236.69 1.112.686 1.019 1.223-.502 2.903-2.781 3.073-1.341 2.491 1.705-.689zM180 151c0-.55-.477-1-1.059-1s-.78.45-.441 1c.34.55.816 1 1.059 1s.441-.45.441-1zm19.526-2.807c-.307-.308-1.114 0-1.793.683-.98.988-.865 1.102.56.56.986-.376 1.541-.935 1.233-1.243zm-20.526.424c0-.211-.9-.62-2.001-.907-1.101-.288-1.75-.115-1.441.383.538.871 3.442 1.313 3.442.524zm5.5-.617c-.34-.55-1.379-.968-2.309-.93-1.379.058-1.321.23.309.93 2.676 1.15 2.71 1.15 2 0zm7.274-3.597c.151-.065-1.085-.07-2.747-.01-1.662.059-3.023.595-3.025 1.19-.004 2.123 1.367 2.395 3.417.68 1.144-.958 2.204-1.795 2.355-1.86zm5.78 2.51c.37-.598.105-1.61-.588-2.25-.993-.916-1.11-.738-.554.837.567 1.605.457 1.753-.553.75-1.72-1.708-2.92-1.573-2.22.25.67 1.747 2.942 1.986 3.915.413zM205 146c0-.55-.787-.993-1.75-.985-1.496.013-1.532.157-.25.985 1.887 1.22 2 1.22 2 0zm3.397.167c.283-.459-.12-.834-.897-.834s-1.18.375-.897.834c.283.458.687.833.897.833.21 0 .614-.375.897-.833zm.362-5.167c.25-1.289-2.249-1.5-17.734-1.5-13.187 0-18.025.317-18.025 1.18 0 1.621 2.184 1.82 19.984 1.82 12.968 0 15.532-.244 15.775-1.5zm2.924-2.188c-.32-.797-.556-.56-.604.605-.043 1.054.193 1.644.525 1.312.332-.332.368-1.195.08-1.917zM179 137c1.25-.808 1.166-.989-.5-1.084-1.684-.097-1.606-.25.5-.967l2.5-.852-2.41.201c-1.433.12-2.511.91-2.661 1.952-.284 1.97.382 2.165 2.571.75zm25.73-2.604c-.333-.332-1.196-.368-1.917-.08-.798.32-.561.557.604.605 1.054.043 1.644-.193 1.312-.525zm-160.455 72.73c-6.141-.796-8.25-2.35-6.652-4.904.593-.947 2.26-1.863 3.706-2.036 1.59-.19 3.51-1.57 4.866-3.5 1.231-1.752 2.816-3.78 3.522-4.507.91-.938 1.283-5.093 1.283-14.3 0-15.503-.291-16.247-10.577-27.056-10.155-10.673-11.272-17.066-3.34-19.126 5.036-1.309 34.918-.424 37.667 1.114 4.83 2.704 1.051 12.673-7.618 20.094C59.387 159.535 58 163.37 58 178.154v11.987l4.083 4.842c2.245 2.663 5.17 5.115 6.5 5.448 2.935.737 3.43 5.147.667 5.93-3.31.938-19.757 1.442-24.975.766zm23.99-2.79c1.467-.907-.445-2.414-2.311-1.821-1.033.328-2.844.08-4.024-.552-1.55-.83-2.447-.846-3.237-.056-.601.601-1.566 1.086-2.143 1.078-.578-.008-.45-.396.284-.861 1.074-.68 1.025-.964-.25-1.453-.871-.335-1.584-.146-1.584.42 0 .565-.45.749-1 .409s-1.036-.029-1.079.691c-.061 1.015-.193 1.026-.585.053-.279-.691-.918-1.002-1.421-.691-.503.31-.915-.189-.915-1.11 0-1.184.588-1.523 2-1.153 1.1.287 2 .126 2-.359 0-1.328 6.227.116 8.434 1.956 1.064.887.614-.074-1-2.137-3.076-3.931-3.915-4.399-4.934-2.75-.887 1.436-4.499 1.236-4.505-.25-.003-.688-1.518.325-3.366 2.25-2.193 2.284-2.973 3.75-2.245 4.222.614.397-.571.45-2.634.119-3.002-.483-3.75-.288-3.75.973 0 1.154 1.274 1.691 4.75 2.005 5.265.475 22.309-.237 23.515-.983zm-13.523-29.044c-.192-3.736-.352-.942-.353 6.208-.002 7.15.156 10.206.35 6.792.195-3.415.196-9.265.004-13zm-2-2.042c-.193-3.712-.35-.675-.35 6.75s.157 10.463.35 6.75c.192-3.712.192-9.787 0-13.5zm3.998 1.5c-.195-3.438-.355-.625-.355 6.25s.16 9.688.355 6.25c.196-3.438.196-9.063 0-12.5zM56.13 164c.544 0 .706-.457.36-1.016-.345-.56-1.05-.755-1.567-.436-.516.32-1.311-.425-1.766-1.655-.49-1.326-1.098-1.795-1.495-1.154-.806 1.304.198 4.261 1.446 4.261.491 0 .954 1.012 1.03 2.25l.135 2.25.434-2.25c.238-1.238.878-2.25 1.423-2.25zm-1.446-4.188c-.32-.797-.556-.56-.604.605-.043 1.054.193 1.644.525 1.312.332-.332.368-1.195.08-1.917zm2.566.032c-.368-1.408-.186-1.923.524-1.484.599.37 1.417.103 1.818-.594.401-.696.361-.932-.089-.525-.45.408-1.382.274-2.071-.298-1.692-1.404-2.388.049-1.346 2.807 1.084 2.867 1.907 2.933 1.164.094zm-4.666-4.594c-.229-.23-.643-.267-.92-.083-.957.635-5.599-4.462-4.978-5.467.355-.573.125-.7-.53-.295-.635.392-1.155.25-1.155-.315s-.672-.77-1.494-.454-1.241.984-.931 1.485c.31.501.931.684 1.38.406.897-.554 2.825 1.383 2.96 2.973.047.55.498 1 1.002 1s1.179.262 1.5.583c.32.321 1.258.584 2.083.584.825 0 1.313-.188 1.083-.417zm3.84-6.942c-2.488-3.944-5.347-.02-3.323 4.56l1.4 3.168 1.459-3.075c1.016-2.144 1.157-3.554.463-4.653zm5.787 5.882c.655-.655.82-1.19.368-1.19-.453 0-.296-.635.348-1.411.897-1.08.89-1.585-.032-2.154-.706-.437-.943-.323-.572.277.347.561-.259 1.826-1.346 2.81-1.519 1.374-1.98 1.463-1.991.383-.013-1.173-.167-1.166-.934.047-1.782 2.817 1.58 3.818 4.16 1.238zM66.5 151c.995-1.1 1.398-2 .896-2-.503 0-1.477.9-2.164 2s-1.09 2-.895 2c.194 0 1.168-.9 2.163-2zm-25.25-4.031c-1.237-.498-2.25-1.444-2.25-2.103 0-.66-.29-.91-.643-.557-.974.975 1.666 3.7 3.515 3.628 1.102-.043.9-.356-.622-.968zm5.73-.493c-.696-.838-1.525-1.264-1.844-.946-.318.318.084.997.893 1.51 2.117 1.338 2.394 1.174.95-.564zm13.039-.999c1.057-1.273.995-1.42-.378-.893-.902.347-1.641 1.032-1.641 1.523 0 1.286.579 1.105 2.019-.63zm-8.424-.632c.443-.715.275-.883-.44-.44-.635.392-1.155.236-1.155-.346S49.495 143 48.878 143c-.776 0-.738.464.122 1.5 1.496 1.803 1.68 1.827 2.595.345zM71.5 145c.34-.55.141-1-.441-1S70 144.45 70 145s.198 1 .441 1 .72-.45 1.059-1zm-28.77-1.604c-.333-.332-1.196-.368-1.917-.08-.798.32-.561.557.604.605 1.054.043 1.644-.193 1.312-.525zm29.505-3.18c.412-1.569-.692-1.69-12.847-1.412-7.313.166-15.568-.11-18.343-.614-2.775-.504-5.038-.64-5.03-.303.054 2.168 2.324 2.747 10.485 2.675 4.95-.044 10.35.177 12 .49 1.65.313 5.314.64 8.142.724 4.098.123 5.234-.194 5.593-1.56zM44 136c-1.375-.44-2.05-.852-1.5-.916.55-.063.325-.55-.5-1.084-2.268-1.466-2.866-1.205-2.29 1 .391 1.494 1.316 1.975 3.657 1.9 3.016-.096 3.04-.13.633-.9zm8.75-3.69c-.963-.25-2.538-.25-3.5 0-.963.252-.175.458 1.75.458s2.712-.206 1.75-.457zM111 124.1c-3.938-.525-4.5-.904-4.5-3.036 0-1.913.703-2.62 3.268-3.284 2.121-.55 4.314-2.29 6.25-4.963L119 108.7V79.696l-3.25-4.244c-1.788-2.335-4.673-5.222-6.411-6.416-4.44-3.05-8.413-9.169-9.053-13.939-.501-3.74-.323-4.138 2.336-5.215 4.445-1.8 30.855-2.24 36.878-.613 4.733 1.278 5.016 1.544 5.307 4.98.429 5.076-2.024 9.282-9.485 16.265-7.465 6.985-7.989 8.459-8.911 25.057l-.616 11.071 4.22 4.929c2.32 2.711 5.546 5.505 7.168 6.209 4.002 1.736 3.604 5.433-.683 6.345-3.734.794-19.468.779-25.5-.025zm23.25-1.677c2.063-.353 3.75-1.073 3.75-1.6 0-.527-.956-.654-2.125-.283-1.19.378-1.879.275-1.565-.233.308-.499-.235-1.404-1.208-2.011-1.366-.853-1.769-.795-1.769.256 0 .748.488 1.089 1.084.757.74-.411.762-.25.07.508-1.446 1.583-13.027 2.867-12.083 1.339.67-1.084-.768-1.565-4.223-1.413-.758.033-1.079-.566-.755-1.411.37-.966-.368-.736-2.157.671-1.598 1.257-2.87 1.696-3.08 1.063-.412-1.234-2.189-.427-2.189.993 0 .518 1.462.948 3.25.956 1.788.008 3.86.402 4.605.874 1.42.9 11.976.632 18.395-.466zM127.5 120c.34-.55.168-1-.382-1s-1.278.45-1.618 1c-.34.55-.168 1 .382 1s1.278-.45 1.618-1zm-1.21-4.327c3.648.07 3.726.002 2.088-1.808-1.6-1.768-1.815-1.78-3.564-.197-1.427 1.292-2.136 1.41-3.038.508-1.668-1.668-2.549-1.47-3.793.856-1.004 1.876-.872 1.976 1.715 1.3 1.54-.402 4.507-.699 6.592-.659zm-2.945-5.216c-.326-.849-.807-1.329-1.069-1.067-.262.262-.18.957.183 1.543.986 1.596 1.562 1.286.886-.476zm1.395-18.17c-.199-3.183-.364-.837-.366 5.213-.002 6.05.16 8.654.362 5.787.201-2.868.203-7.818.004-11zm-3.034 8.463c-.239-1.238-.434-.225-.434 2.25s.195 3.487.434 2.25c.238-1.238.238-3.263 0-4.5zm.605-12.653c-.685-.505-.884-5.06-.43-9.847.222-2.332 2.119-1.265 2.119 1.191 0 1.343.498 2.749 1.107 3.125.774.478.892-.294.393-2.566-.458-2.087-.355-3.028.288-2.63.551.34 1.217.059 1.48-.626.292-.763-.466-1.301-1.96-1.392-1.342-.082-3.085-.982-3.876-2-1.038-1.338-1.285-1.412-.891-.269.347 1.009-.031 1.584-1.041 1.584-.94 0-1.37-.564-1.054-1.386.292-.762.137-1.141-.344-.844-.482.298-1.431-.13-2.111-.948-.68-.819-.9-1.489-.491-1.489.41 0 .244-.604-.369-1.342-.612-.738-.78-1.71-.372-2.16.407-.45.178-.495-.509-.1-.688.396-1.25.258-1.25-.308 0-.565-.749-.74-1.664-.389-1.119.43-1.427.256-.941-.531.43-.696.111-1.17-.786-1.17-.83 0-1.968-.787-2.529-1.75-.56-.963-1.033-1.338-1.05-.835-.059 1.788 12.49 14.068 14.261 13.954.985-.063 1.604.39 1.375 1.008-.229.618-.81 1.047-1.291.954-.481-.093-.723 2.495-.536 5.75.186 3.255.749 5.919 1.25 5.919s.992 2.138 1.091 4.75l.18 4.75.381-4.903c.21-2.697.016-5.172-.43-5.5zm-1.604 3.665c-.239-1.244-.444-.462-.455 1.738-.01 2.2.185 3.218.435 2.262s.26-2.756.02-4zm2.976-7.95c-.32-.797-.556-.56-.604.605-.043 1.054.193 1.644.525 1.312.332-.332.368-1.195.08-1.916zm3.714-10.645c.283-.459-.14-.834-.941-.834-.8 0-1.456.375-1.456.834 0 .458.423.833.941.833s1.173-.375 1.456-.833zm3.73-1.917c1.244-1.586 1.21-1.621-.377-.378-1.666 1.307-2.195 2.128-1.372 2.128.207 0 .995-.787 1.75-1.75zm-6.307-1.333c1.09-1.747 1.045-2.474-.283-4.5-1.933-2.95-2.17-2.97-3.604-.292-.866 1.618-.834 2.692.134 4.5 1.558 2.91 2.092 2.952 3.753.292zm10.53-3.449c-1.234-3.213-2.349-1.383-1.427 2.341.043.17.507.043 1.033-.282.526-.325.703-1.252.393-2.059zm4.213-3.593c2.056-2.188 2.307-2.743.835-1.852-1.816 1.1-5.005 4.977-4.094 4.977.177 0 1.644-1.406 3.259-3.125zm-20.008-2.104c-2.235-1.25-3.965.03-2.47 1.83.922 1.112 1.493 1.164 2.61.236 1.234-1.023 1.215-1.308-.14-2.066zm9.145 1.63c.178-.535-.694-1.024-1.938-1.085-1.244-.062-1.697.105-1.006.371.691.266.966.954.611 1.528-.359.58-.056.848.681.602.73-.243 1.473-.88 1.652-1.416zM140.76 57c.243-1.29-2.303-1.5-18.112-1.5-14.304 0-18.287.278-17.914 1.25.533 1.388.77 1.415 14.432 1.611 5.316.076 9.906.379 10.2.672.292.292 2.913.292 5.823 0 3.609-.364 5.38-1.01 5.572-2.033zm-30.031-4.092c-.974-.567-1.51-1.453-1.191-1.97.319-.516-.122-.938-.979-.938-1.744 0-1.813.175-.952 2.418.334.87 1.571 1.568 2.75 1.552 1.953-.028 1.986-.122.372-1.062zM138 53c-.825-.533-1.95-.97-2.5-.97s-.325.437.5.97c.825.533 1.95.97 2.5.97s.325-.437-.5-.97zm-1.27-2.604c-.333-.332-1.196-.368-1.917-.08-.798.32-.561.557.604.605 1.054.043 1.644-.193 1.312-.525zM121.5 38.792c-4.606-2.642-5.757-7.46-3.037-12.72 1.58-3.055 3.349-4.072 7.084-4.072 3.031 0 4.017 2.09 4.317 9.157.208 4.9-.064 5.87-2.034 7.25-2.672 1.87-3.637 1.93-6.33.385zm3.104-6.521c-1.016-1.017-1.855.514-1.021 1.863.63 1.02.866 1.02 1.204.004.232-.695.15-1.535-.183-1.867zm-2.27-3.172c-.459-.342-1.172-1.03-1.584-1.527-.412-.498-.75.056-.75 1.23 0 1.537.443 1.965 1.584 1.527.871-.334 1.208-.887.75-1.23zM8.746 363.75c-.178-5.637-.324-1.025-.324 10.25s.146 15.887.324 10.25c.178-5.638.178-14.863 0-20.5zm.001-47.444c-.174-6.493-.318-1.456-.318 11.194s.142 17.963.317 11.806c.175-6.156.176-16.506.001-23zM233.69 245.25c-.251-.963-.457-.175-.457 1.75s.206 2.712.457 1.75c.252-.963.252-2.538 0-3.5zm-.027-6.5c-.277-.688-.504-.125-.504 1.25s.227 1.938.504 1.25c.278-.688.278-1.813 0-2.5zm.085-41c-.17-7.287-.31-1.325-.31 13.25s.14 20.538.31 13.25c.171-7.287.171-19.212 0-26.5zm.002-73.933c-.16-11.175-.293-2.317-.293 19.683s.132 31.142.293 20.317c.161-10.826.161-28.826 0-40zm.585-69.059c.336-24.058.35-44.42.031-45.25-.318-.83-1.318-1.501-2.222-1.493-1.424.014-1.443.142-.143.964 1.306.826 1.454 6.751 1.144 45.735-.195 24.632-.145 44.561.112 44.286.258-.275.743-20.184 1.078-44.242zM16 7.884l5.5-.615-6 .115-6 .116-.093 8-.093 8 .593-7.5.593-7.5zm120.762.429c-.956-.25-2.756-.26-4-.02-1.244.239-.462.444 1.738.455 2.2.01 3.218-.185 2.262-.435zm10.507.031c-.677-.274-2.027-.29-3-.037-.973.254-.419.478 1.231.498 1.65.02 2.446-.187 1.769-.46zm5.46.052c-.332-.332-1.195-.368-1.917-.08-.797.32-.56.557.605.605 1.054.043 1.644-.193 1.312-.525zm45.521-.144c-7.838-.169-20.663-.169-28.5 0-7.838.17-1.425.307 14.25.307s22.087-.138 14.25-.307zm30.019.092c-.677-.274-2.027-.29-3-.037-.973.254-.419.478 1.231.498 1.65.02 2.446-.187 1.769-.46zM32.728 7.27c-2.075-.216-5.225-.213-7 .008-1.776.221-.078.398 3.772.394 3.85-.005 5.302-.185 3.228-.402zm211.35 31.147c.049-1.165.286-1.402.605-.605.289.722.253 1.585-.079 1.917-.332.332-.568-.258-.525-1.312z"/></svg>