<svg xmlns="http://www.w3.org/2000/svg" width="246" height="420" viewBox="0 0 246 420"><path d="M50.813 418.317c.721-.289 1.584-.253 1.916.079.332.332-.258.568-1.312.525-1.165-.048-1.402-.285-.605-.604zm46.687-.051c83.753-.689 147.5-.695 147.5-.016 0 .413-40.388.644-89.75.514s-75.35-.354-57.75-.498zm-82.243-9.064c-5.506-.262-6.298-.557-6.715-2.5-.756-3.528-1.548-140.943-1.58-274.059C6.94 41.11 7.227 9.431 8.089 8.393c.975-1.176 18.501-1.39 112.283-1.378 61.12.009 111.71.385 112.42.835 1.05.666 1.286 38.358 1.256 200.646-.02 109.904-.302 200.091-.626 200.415-.585.585-206.233.86-218.165.291zM13 406.56c0-.243-.45-.72-1-1.059-.55-.34-1-.141-1 .441S11.45 407 12 407s1-.198 1-.441zM232 406c0-.55-.198-1-.441-1s-.72.45-1.059 1c-.34.55-.141 1 .441 1s1.059-.45 1.059-1zm-3-198V12H13.233l-.606 2.25c-.664 2.466-.568 283.584.12 349l.427 40.75H229zM112.687 360.309c-5.37-2.864-7.251-4.5-8.886-7.721-1.14-2.249-3.25-5.548-4.687-7.332-8.648-10.735-12.476-14.933-14.892-16.332-1.497-.866-2.864-2.537-3.037-3.713-.173-1.176-3.66-5.561-7.75-9.745-4.09-4.183-7.435-7.836-7.435-8.118 0-2.108-15.883-19.04-21.753-23.189-3.582-2.532-8.096-11.265-8.497-16.44-.336-4.323 1.893-4.26 9.992.281 5.01 2.81 6.66 4.384 8.362 7.977 1.165 2.462 2.986 5.612 4.046 7s4.023 5.403 6.586 8.923c2.563 3.52 6.146 7.278 7.962 8.35 1.816 1.07 3.302 2.7 3.302 3.62 0 .92 3.6 5.395 8 9.945 4.4 4.55 8 8.664 8 9.141 0 .773 17.387 18.527 24.092 24.602 1.425 1.292 3.014 3.82 3.53 5.62l.939 3.273 2.069-5.476c1.621-4.291 2.893-5.942 5.88-7.637 2.097-1.19 4.52-3.327 5.383-4.75.864-1.424 2.101-2.588 2.75-2.588 1.555 0 13.357-12.908 13.357-14.61 0-.726.868-1.784 1.928-2.352 1.06-.567 4.916-4.52 8.568-8.785 3.651-4.264 9.569-10.881 13.15-14.705 3.581-3.823 7.22-8.323 8.086-10 .867-1.676 2.267-3.555 3.113-4.174.845-.62 2.468-3.091 3.606-5.492 1.647-3.477 3.534-5.258 9.267-8.747 10.847-6.6 12.914-4.27 6.966 7.853-2.128 4.337-4.345 7.241-6.684 8.759-4.642 3.01-19.237 17.459-21.04 20.829-.785 1.466-4.706 5.944-8.713 9.951-4.007 4.007-7.771 8.678-8.364 10.38-.616 1.767-1.787 3.096-2.73 3.1-.91.005-4.483 3.492-7.943 7.75-3.46 4.259-7.146 8.765-8.193 10.014-1.046 1.249-2.478 3.863-3.182 5.81-1.007 2.784-2.842 4.488-8.593 7.98-4.022 2.441-7.86 4.426-8.527 4.41-.668-.016-4.28-1.664-8.028-3.662zm14.33-2.978c6.394-3.81 8.313-5.964 9.368-10.52.915-3.95-.855-4.297-5.64-1.102-3.147 2.101-4.637 3.993-5.759 7.313-2.208 6.535-2.828 7.227-5.845 6.529-1.98-.459-2.265-.357-1.141.403 2.14 1.449 2.22 1.425 9.016-2.623zM115 356.829c0-.644-.696-1.941-1.547-2.881-1.398-1.545-1.392-1.867.071-3.33.89-.89 1.163-1.618.606-1.618-.556 0-1.278.43-1.603.956-.325.526-1.325.675-2.223.33-1.044-.4-1.387-.23-.952.475.374.605.223 1.383-.336 1.729-1.872 1.157-1.041 2.238 1.367 1.777 1.31-.25 2.734.114 3.164.809.549.888.296 1.078-.851.638-.898-.345-1.94-.127-2.319.484-.415.673-.23.83.468.397.635-.392 1.155-.236 1.155.346s.675 1.059 1.5 1.059 1.5-.527 1.5-1.171zm2.807-3.355c-.308-.308-.867.247-1.243 1.233-.542 1.425-.428 1.54.56.56.684-.679.99-1.486.683-1.793zm-11.236-2.4c0-1.06-.43-1.661-.955-1.337-.568.352-.66-.185-.227-1.323.55-1.441.445-1.632-.422-.771-.86.852-.866 1.678-.024 3.25 1.39 2.6 1.628 2.625 1.628.18zm4.036-4.545c-.119-.81-.495-1.75-.836-2.092-.481-.48-.387 1.549.152 3.313.296.965.858-.038.684-1.221zm-5.052-3.198c-.436-2.404-2.025-4.275-3.666-4.316-.337-.008-.465 1.222-.286 2.735.179 1.512.082 1.957-.215.988-.296-.97-.985-1.487-1.529-1.151-1.414.874 2.047 4.413 4.316 4.413 1.474 0 1.763-.558 1.38-2.669zM103 343.5c0-.825.436-1.5.969-1.5.532 0 .71.675.393 1.5-.317.825-.753 1.5-.969 1.5-.216 0-.393-.675-.393-1.5zm38.676-1.25c.337-.963 2.01-3.324 3.719-5.248l3.105-3.498-3.14 2.83c-1.846 1.663-3.4 2.41-3.771 1.81-.683-1.105-4.435-.698-5.756.623-1.087 1.087 1.888 5.233 3.755 5.233.811 0 1.75-.787 2.088-1.75zm-4.01.083c-1.249-1.249-.67-2.1 1.745-2.56 2.13-.408 2.277-.247 1.26 1.383-1.23 1.967-1.937 2.245-3.004 1.177zM95 335.674c0-.179-1.238-1.416-2.75-2.75L89.5 330.5l2.424 2.75c2.266 2.57 3.076 3.209 3.076 2.424zm2-1c0-.179-1.238-1.416-2.75-2.75L91.5 329.5l2.424 2.75c2.266 2.57 3.076 3.209 3.076 2.424zm50-2.174c1.292-1.375 2.124-2.5 1.849-2.5-.275 0-1.557 1.125-2.849 2.5-1.292 1.375-2.124 2.5-1.849 2.5.275 0 1.557-1.125 2.849-2.5zm-48 1.174c0-.179-1.238-1.416-2.75-2.75L93.5 328.5l2.424 2.75c2.266 2.57 3.076 3.209 3.076 2.424zm48-4.174c1.866-1.925 3.167-3.5 2.892-3.5-.275 0-2.026 1.575-3.892 3.5s-3.167 3.5-2.892 3.5c.275 0 2.026-1.575 3.892-3.5zm5.5-.5c.995-1.1 1.585-2 1.31-2-.275 0-1.315.9-2.31 2-.995 1.1-1.585 2-1.31 2 .275 0 1.315-.9 2.31-2zm-64.604-4.743c1.115-2.143 1.054-2.192-1.365-1.09-2.76 1.258-3.236 2.415-1.281 3.113 1.482.529 1.21.737 2.646-2.023zm69.877-.34c.294-1.527-3.399-4.355-4.11-3.147-.235.402-.032 1.78.453 3.064.926 2.45 3.191 2.503 3.657.083zM155.5 324c.34-.55.816-1 1.059-1s.441.45.441 1-.477 1-1.059 1-.78-.45-.441-1zm8-7c2.148-2.2 3.68-4 3.406-4-.275 0-2.258 1.8-4.406 4-2.148 2.2-3.68 4-3.406 4 .275 0 2.258-1.8 4.406-4zm-84.5.622c0-.207-.787-.995-1.75-1.75-1.586-1.243-1.621-1.208-.378.378 1.307 1.666 2.128 2.195 2.128 1.372zm83.563-2.872l2.937-3.25-3.25 2.937c-1.788 1.615-3.25 3.078-3.25 3.25 0 .773.825.092 3.563-2.937zM81 316.655c0-.19-1.012-1.202-2.25-2.25L76.5 312.5l1.905 2.25c1.79 2.114 2.595 2.705 2.595 1.905zm2-1c0-.19-1.012-1.202-2.25-2.25L78.5 311.5l1.905 2.25c1.79 2.114 2.595 2.705 2.595 1.905zm80-4.155c1.292-1.375 2.124-2.5 1.849-2.5-.275 0-1.557 1.125-2.849 2.5-1.292 1.375-2.124 2.5-1.849 2.5.275 0 1.557-1.125 2.849-2.5zm6.5-1.5c.995-1.1 1.585-2 1.31-2-.275 0-1.315.9-2.31 2-.995 1.1-1.585 2-1.31 2 .275 0 1.315-.9 2.31-2zm-1.372-1.75c1.243-1.586 1.208-1.621-.378-.378-1.666 1.307-2.195 2.128-1.372 2.128.207 0 .995-.787 1.75-1.75zm-96.396-2.335c.415-1.584.748-1.764 1.391-.75.649 1.023.85.926.862-.415.008-.963-.548-1.736-1.235-1.718-1.751.044-4.75 2.461-4.75 3.828 0 2.015 3.168 1.214 3.732-.945zm102.268-.1c0-.653 1.012-2.34 2.25-3.75l2.25-2.565-2.72 2.397c-2.278 2.006-2.974 2.187-4.275 1.107-.854-.709-1.842-1-2.196-.646-.353.353-.09.642.583.642.674 0 .917.5.539 1.112-.378.611-.067 1.504.69 1.984 1.91 1.21 2.879 1.115 2.879-.282zm-106-4.193c0-.207-.787-.995-1.75-1.75-1.586-1.243-1.621-1.208-.378.378 1.307 1.666 2.128 2.195 2.128 1.372zm108.563-2.872l2.937-3.25-3.25 2.937c-1.788 1.615-3.25 3.078-3.25 3.25 0 .773.825.092 3.563-2.937zM70 300.674c0-.179-1.238-1.416-2.75-2.75L64.5 295.5l2.424 2.75c2.266 2.57 3.076 3.209 3.076 2.424zm110.155-7.185c.288.288 1.384-.492 2.434-1.733 1.91-2.255 1.91-2.255-.17-.504-1.145.964-2.3 1.533-2.569 1.265-.267-.268-2.031 1.194-3.918 3.248L172.5 299.5l3.566-3.268c1.96-1.797 3.801-3.032 4.09-2.743zM61 296.655c0-.19-1.012-1.202-2.25-2.25L56.5 292.5l1.905 2.25c1.79 2.114 2.595 2.705 2.595 1.905zM182.5 295c.995-1.1 1.585-2 1.31-2-.275 0-1.315.9-2.31 2-.995 1.1-1.585 2-1.31 2 .275 0 1.315-.9 2.31-2zm-121.686-4.429c-1.478-1.3-2.446-2.606-2.151-2.9.294-.295-.522-.285-1.814.022-2.204.523-2.236.469-.509-.87 1.761-1.367 1.764-1.49.063-2.876-1.564-1.273-1.709-1.262-1.204.089.389 1.04-.034 1.535-1.313 1.535-1.994 0-2.507-1.069-.97-2.02.52-.321.212-2.362-.714-4.72-1.271-3.235-2.959-4.993-7.63-7.946-5.83-3.687-7.868-4.261-5.887-1.66.534.702 1.758 3.406 2.72 6.01 1.28 3.463 2.872 5.486 5.922 7.524 2.295 1.533 4.617 3.79 5.16 5.014.948 2.139 2.154 2.634 5.61 2.305.878-.083 2.17.54 2.872 1.385s1.558 1.523 1.903 1.505c.346-.017-.58-1.096-2.058-2.397zm125.584-3.937c.402-3.24.26-3.595-1.012-2.539-1.075.892-1.163 1.425-.32 1.946.878.543.876.812-.01 1.107-.677.225-.883 1.139-.49 2.164.906 2.361 1.274 1.823 1.832-2.678zm2.736-.288c-.94-1.618-1.077-1.482-1.104 1.104-.022 2.151.269 2.651 1.074 1.846.79-.79.8-1.626.03-2.95zm6.323-3.277c.317-.512.049-1.256-.595-1.654-.78-.483-.901-.288-.362.585.55.891.42 1.068-.41.555-1.752-1.082 1.816-4.813 4.046-4.23 1.144.3 1.54-.007 1.19-.92-.352-.914-1.074-1.087-2.176-.522-.907.466-2.159.663-2.78.438-.623-.224-1.44.826-1.82 2.333-.538 2.146-.887 2.427-1.603 1.294-.58-.916-.922-1.007-.932-.248-.008.66.773 1.66 1.735 2.22 2.208 1.286 2.985 1.317 3.707.15zM201.5 276c-.34-.55-.093-1 .548-1s.928-.62.637-1.378c-.29-.758-.003-1.904.64-2.546.642-.643-.27-.451-2.028.426-3.047 1.52-3.118 1.684-1.524 3.546 1.778 2.076 2.755 2.615 1.727.952zm-6.5-1.441c0-.243-.45-.72-1-1.059-.55-.34-1-.141-1 .441s.45 1.059 1 1.059 1-.198 1-.441zm4.667-5.328c0-1.26-.187-1.24-1.183.121-.65.89-1.4 1.399-1.666 1.132-.267-.266-.485.148-.485.92 0 1.06.409 1.15 1.667.364.917-.573 1.667-1.714 1.667-2.537zM62.5 269.54c-4.912-1.899-6-2.735-6-4.61 0-1.9 1.235-2.803 7.243-5.295l7.243-3.005 5.757 1.864c4.724 1.53 9.704 1.928 27.757 2.218 15.08.242 23.17-.019 25.718-.829 2.778-.883 4.063-.895 5.085-.046 1.924 1.596 22.46.6 30.814-1.494 3.966-.995 7.37-1.334 8.5-.848 1.035.446 4.583 1.755 7.883 2.908 8.113 2.836 8.365 4.797 1.032 8.04-7.702 3.407-11.694 4.003-16.217 2.421-2.098-.733-5.165-1.489-6.815-1.68-2.52-.29-19.987-.48-27.75-.302-1.238.028-6.036-.195-10.664-.497-5.692-.37-9.153-.152-10.7.676-1.815.971-2.927.958-5.398-.066-3.974-1.646-20.666-.742-26.864 1.454-5.826 2.065-9.441 1.867-16.624-.91zm116.456-2.682l6.343-2.143-6.4-2.453c-5.776-2.215-6.837-2.336-10.899-1.242-2.475.666-5.552 1.349-6.838 1.517-2.993.392-3.354.798-2.557 2.877.36.936 1.249 1.472 1.976 1.193.728-.28 3.258.1 5.621.844 5.802 1.824 5.561 1.835 12.754-.593zM76 267.622c0-.207-.685-.946-1.523-1.641-1.273-1.057-1.42-.995-.893.378.538 1.401 2.416 2.384 2.416 1.263zm8.622-.937c.758.291 1.378.03 1.378-.578 0-.609-.338-1.054-.75-.989-1.975.312-2.6-.246-1.25-1.118 1.304-.843 1.287-.971-.133-.985-.968-.009-1.835 1.036-2.126 2.56-.328 1.714-.159 2.243.505 1.579.549-.549 1.618-.76 2.376-.469zm3.79-2.673c-.65-.65-1.043-.259-1.15 1.149-.12 1.61.123 1.854.989.988.757-.757.812-1.486.16-2.137zm8.35 2.3c-.956-.25-2.756-.258-4-.02-1.244.24-.462.445 1.738.456 2.2.01 3.218-.185 2.262-.435zm13.036-1.729c-.164-1.146-.748-2.083-1.298-2.083s-1.134.938-1.298 2.083c-.195 1.365.253 2.084 1.298 2.084s1.493-.719 1.298-2.084zm23.702-.75c0-1.558-.286-2.833-.637-2.833-.35 0-.823 1.275-1.052 2.833-.232 1.58.05 2.834.637 2.834.578 0 1.052-1.275 1.052-2.834zM157 265.5c0-.825-.436-1.5-.969-1.5-.532 0-.71.675-.393 1.5.317.825.753 1.5.969 1.5.216 0 .393-.675.393-1.5zm-93.05-1.515c1.882-.012 2.181-.25 1.142-.907-1.611-1.02-6.092.659-6.092 2.283 0 .63.473.566 1.2-.161.66-.66 2.348-1.207 3.75-1.215zM79.725 263c-.17-2.245-.57-2.392-2.725-1-1.282.828-1.246.972.25.985.963.008 1.75.465 1.75 1.015 0 .55.197 1 .438 1 .24 0 .37-.9.287-2zm48.812 1.203c-1.014-1.016-13.537-1.186-13.537-.184 0 .463 3.204.852 7.12.864 3.915.012 6.803-.294 6.417-.68zm20.743.066c-2.32-.21-6.37-.212-9-.006-2.629.207-.73.379 4.22.382 4.95.003 7.101-.166 4.78-.376zm-77.492-3.406c-.25-.749-.703-.295-1.057 1.057-.435 1.663-.305 2.054.437 1.312.582-.582.86-1.647.62-2.369zm29.988 2.41c-2.048-.215-5.648-.218-8-.007-2.352.211-.676.387 3.724.39 4.4.005 6.324-.168 4.276-.383zm48.504-1.004c-2.32-.21-6.37-.212-9-.006-2.629.207-.73.379 4.22.382 4.95.003 7.101-.166 4.78-.376zm-73.754-2.076c-.307-.308-1.114 0-1.793.683-.98.988-.865 1.102.56.56.986-.376 1.541-.935 1.233-1.243zM67.45 158.111c-.522-.49-3.479-1.61-6.57-2.49-9.466-2.697-10.11-6.049-1.642-8.562 2.344-.696 4.712-1.607 5.262-2.024 2.343-1.778 6.652-1.998 10.187-.521 5.115 2.137 27.5 3.26 30.713 1.54 1.753-.938 2.873-.978 4.41-.156 2.57 1.376 17.851 1.46 18.69.102.844-1.365 5.218-1.266 6.085.138.5.807 3.21.916 9.31.372 4.733-.422 10.405-.921 12.605-1.11 2.2-.189 6.355-.894 9.234-1.566 4.957-1.158 5.62-1.063 12.5 1.791 10.631 4.41 10.306 5.289-4.055 10.947-3.684 1.451-4.929 1.52-8.444.467-4.958-1.486-12.112-2.267-20.235-2.21-54.558.385-68.135.854-71.872 2.483-4.465 1.946-4.893 2.002-6.178.799zm11.3-5.1c.138-.006.25-.911.25-2.011s.436-2 .969-2c.532 0 .692.72.354 1.6-.622 1.621 1.136 3.357 3.427 3.385.777.01 1.193-1.215 1.1-3.235-.143-3.11-.168-3.129-.572-.44-.422 2.806-2.26 3.245-3.095.738-.301-.902-.001-1.06.937-.495 1.149.692 1.145.542-.02-.894-.77-.95-1.895-1.55-2.5-1.337-.605.214-3.05-.188-5.432-.893-4.458-1.32-8.197-.625-14.348 2.667-2.163 1.158-1.973 1.335 3.681 3.445 5.478 2.044 6.328 2.113 10.48.852 2.486-.754 4.632-1.376 4.769-1.382zm87.776.182c-.307-.308-1.114 0-1.793.683-.98.988-.865 1.102.56.56.986-.376 1.541-.935 1.233-1.243zm6.974.807c-.34-.55-1.154-.993-1.809-.985-.716.01-.592.403.309.985 1.921 1.242 2.267 1.242 1.5 0zm-40.838-3.25c-.277-.688-.504-.125-.504 1.25s.227 1.938.504 1.25c.278-.688.278-1.813 0-2.5zm26.31 1.784c.67-.807.985-2.044.701-2.75-.315-.785-.546-.58-.594.525-.043.995-.49 1.555-.994 1.244-.503-.311-1.143 0-1.423.69-.386.951-.768.892-1.57-.243-.916-1.294-1.063-1.26-1.077.25-.018 2.154 3.25 2.34 4.957.284zm5.028-.141c0-.216-.675-.393-1.5-.393s-1.5.436-1.5.969c0 .532.675.71 1.5.393.825-.317 1.5-.753 1.5-.969zm14.376.321c1.649-1.205 1.634-1.285-.235-1.285-1.097 0-1.8.315-1.561.7.238.385-.133.928-.824 1.207-.69.278-.78.542-.197.585.582.043 1.85-.5 2.817-1.207zM109 150.3c0-1.857-.322-2.378-1.033-1.667-.568.568-.745 1.783-.393 2.7.927 2.414 1.426 2.052 1.426-1.033zm38.776 1.973c-2.048-.215-5.648-.218-8-.007-2.352.211-.676.387 3.724.39 4.4.005 6.324-.168 4.276-.383zm4.886-3.523c-.277-.688-.504-.125-.504 1.25s.227 1.938.504 1.25c.278-.688.278-1.813 0-2.5zM167.5 151c-.34-.55-.086-1 .563-1 .88 0 .865-.382-.063-1.5-.685-.825-1.752-1.464-2.372-1.421-.703.05-.654.27.128.585.691.279 1.002.918.691 1.421-.567.918.235 2.915 1.171 2.915.275 0 .222-.45-.118-1zm-50.75-.69c-.963-.25-2.538-.25-3.5 0-.963.252-.175.458 1.75.458s2.712-.206 1.75-.457zm10.012.003c-.956-.25-2.756-.26-4-.02-1.244.239-.462.443 1.738.455 2.2.01 3.218-.185 2.262-.435zm20.014-.04c-2.048-.215-5.648-.218-8-.007-2.352.211-.676.387 3.724.39 4.4.005 6.324-.169 4.276-.384zm36.224.334c0-.216-.698-.661-1.552-.989-.89-.341-1.291-.173-.94.393.586.95 2.492 1.406 2.492.596zm-25.333-2.321c0-.707-.75-1.286-1.667-1.286s-1.667.579-1.667 1.286c0 .707.75 1.285 1.667 1.285s1.667-.578 1.667-1.285zm-39.905.027c-.956-.25-2.756-.26-4-.02-1.244.239-.462.444 1.738.455 2.2.01 3.218-.185 2.262-.435zm8.488-.019c-1.238-.238-3.263-.238-4.5 0-1.238.239-.225.434 2.25.434s3.487-.195 2.25-.434zm21-.026c-2.337-.21-6.162-.21-8.5 0-2.337.21-.425.383 4.25.383s6.588-.173 4.25-.383zm50.08 1.6c-6.45-3.492-7.35-4.36-8.967-8.625-.989-2.609-3.324-6.768-5.19-9.243-4.672-6.193-12.918-15-14.047-15-.512 0-1.375-1.237-1.92-2.75-.544-1.512-4.433-6.33-8.642-10.705-4.21-4.375-8.506-9.325-9.547-11-2.387-3.841-15.188-16.146-20.653-19.853-2.917-1.98-4.655-4.165-5.898-7.42l-1.762-4.614-2 4.248c-1.237 2.63-3.944 5.69-7.101 8.03-8.024 5.945-17.858 15.936-20.446 20.77-.553 1.034-3.883 4.886-7.4 8.563-3.516 3.676-7.028 7.868-7.803 9.317-.775 1.449-4.29 5.622-7.809 9.274-3.52 3.652-7.01 8.072-7.757 9.823-.748 1.75-2.205 3.776-3.238 4.5-1.033.724-2.953 3.554-4.265 6.289-1.984 4.136-3.393 5.518-8.385 8.22-6.726 3.642-10.5 4.228-10.5 1.629 0-.924 1.012-4.829 2.25-8.679 1.968-6.123 2.777-7.334 6.458-9.67 2.314-1.469 5.464-4.014 7-5.656 1.536-1.642 3.245-3.173 3.799-3.4C55.51 123.088 65 111.302 65 109.64c0-.937.936-2.05 2.08-2.474 2.758-1.02 13.89-14.18 13.907-16.44.007-.977 1.046-2.168 2.309-2.648 1.262-.48 4.075-3.018 6.25-5.64 3.923-4.729 5.429-6.831 12.757-17.81 3.2-4.795 4.943-6.26 11.005-9.26l7.202-3.564 7.7 3.654c7.128 3.384 7.88 4.041 10.167 8.874 1.358 2.87 3.404 6.065 4.546 7.098 1.142 1.034 2.077 2.4 2.077 3.034 0 .635 3.375 4.686 7.5 9.003s7.5 8.133 7.5 8.48c0 1.342 13.16 14.969 15.027 15.562 1.085.344 1.98 1.383 1.987 2.308.025 3.114 14.166 18.23 21.892 23.403 3.687 2.468 3.741 2.546 7.533 10.968 4.92 10.928 2.905 12.185-9.11 5.68zm7.183-2.368l-2.978-6.885c-.92-2.126-3.126-4.358-5.934-6.003-2.458-1.44-4.74-3.475-5.073-4.523-.332-1.047-1.326-2.181-2.208-2.52-1.231-.472-1.351-.312-.519.692.597.718.736 1.87.309 2.561-.448.724.402 3.728 2.008 7.1 2.44 5.12 3.564 6.284 9.083 9.392 3.464 1.95 6.418 3.578 6.562 3.616.145.039-.417-1.505-1.25-3.43zM40.27 143.075c.353-1.35.09-1.767-.883-1.393-1.501.576-1.778 1.594-.72 2.651.952.953 1.044.881 1.603-1.258zm8.73.592c0-.183-1.748-1.737-3.884-3.454-3.542-2.846-3.787-2.915-2.781-.783.607 1.286 2.242 2.792 3.634 3.348 1.392.555 2.643 1.057 2.781 1.116.138.058.25-.044.25-.227zm-1.543-8.598c.317-.512.193-1.167-.274-1.456-.467-.289-.85.13-.85.931 0 1.686.316 1.833 1.124.525zm1.667-2.336c-.988-.98-1.102-.865-.56.56.376.986.935 1.541 1.243 1.233.308-.307 0-1.114-.683-1.793zm4.271 1.097c-.48-.776-.187-.964.868-.56 1.776.682 4.238-1.65 3.317-3.14-.326-.528-.098-1.124.507-1.326.605-.201-.08-.998-1.523-1.77-2.315-1.238-2.821-1.205-4.308.281-.968.969-1.193 1.685-.53 1.685.636 0 1.464-.498 1.84-1.107.477-.771.944-.696 1.544.25 1.327 2.094 1.048 3.857-.61 3.857-.825 0-1.536-.563-1.579-1.25-.063-.993-.183-.992-.585.006-.279.69-1.03.951-1.671.578-.64-.373-.308.3.74 1.494 2.054 2.342 3.163 2.9 1.99 1.002zm132.176-3.663c0-1.009-.554-1.834-1.231-1.834-.885 0-.955.517-.25 1.834.539 1.008 1.093 1.833 1.23 1.833.139 0 .251-.825.251-1.833zM184 125.622c0-.207-.787-.995-1.75-1.75-1.586-1.243-1.621-1.208-.378.378 1.307 1.666 2.128 2.195 2.128 1.372zM58.5 123c.995-1.1 1.585-2 1.31-2-.275 0-1.315.9-2.31 2-.995 1.1-1.585 2-1.31 2 .275 0 1.315-.9 2.31-2zm127.5 1.655c0-.19-1.012-1.202-2.25-2.25l-2.25-1.905 1.905 2.25c1.79 2.114 2.595 2.705 2.595 1.905zM64.5 122c.995-1.1 1.585-2 1.31-2-.275 0-1.315.9-2.31 2-.995 1.1-1.585 2-1.31 2 .275 0 1.315-.9 2.31-2zm114.5.674c0-.179-1.238-1.416-2.75-2.75l-2.75-2.424 2.424 2.75c2.266 2.57 3.076 3.209 3.076 2.424zM64.128 119.25c1.243-1.586 1.208-1.621-.378-.378-.963.755-1.75 1.543-1.75 1.75 0 .823.821.294 2.128-1.372zM178 118.655c0-.19-1.012-1.202-2.25-2.25l-2.25-1.905 1.905 2.25c1.79 2.114 2.595 2.705 2.595 1.905zM64.128 116.25c1.243-1.586 1.208-1.621-.378-.378-.963.755-1.75 1.543-1.75 1.75 0 .823.821.294 2.128-1.372zm114.872.372c0-.207-.787-.995-1.75-1.75-1.586-1.243-1.621-1.208-.378.378 1.307 1.666 2.128 2.195 2.128 1.372zm-107.646-6.154c-2.901-2.198-5.123-1.875-2.779.404 1.059 1.03 2.262 1.678 2.675 1.441.412-.237.786.158.829.878.065 1.074.173 1.073.604-.004.29-.722-.309-1.946-1.329-2.718zM171 113.674c0-.179-1.238-1.416-2.75-2.75l-2.75-2.424 2.424 2.75c2.266 2.57 3.076 3.209 3.076 2.424zm2-4c0-.179-1.238-1.416-2.75-2.75l-2.75-2.424 2.424 2.75c2.266 2.57 3.076 3.209 3.076 2.424zm-98.872-2.424c1.243-1.586 1.208-1.621-.378-.378-.963.755-1.75 1.543-1.75 1.75 0 .823.821.294 2.128-1.372zM74.5 104c.995-1.1 1.585-2 1.31-2-.275 0-1.315.9-2.31 2-.995 1.1-1.585 2-1.31 2 .275 0 1.315-.9 2.31-2zm89.5 1.687c0-.172-1.462-1.635-3.25-3.25L157.5 99.5l2.937 3.25c2.738 3.03 3.563 3.71 3.563 2.937zm2-.984c0-.163-1.913-2.076-4.25-4.25L157.5 96.5l3.953 4.25c3.676 3.952 4.547 4.71 4.547 3.953zM80.5 100c.995-1.1 1.585-2 1.31-2-.275 0-1.315.9-2.31 2-.995 1.1-1.585 2-1.31 2 .275 0 1.315-.9 2.31-2zm81.708-2.288C159.894 95.354 158 92.927 158 92.32c0-.608-.787-1.405-1.75-1.771-1.403-.534-1.502-.417-.5.593 1.77 1.783 1.558 3.36-.25 1.859-1.036-.86-1.5-.898-1.5-.122 0 .986 1.236 1.502 3.097 1.291.328-.037 2.332 1.71 4.453 3.882 2.12 2.172 4.083 3.949 4.361 3.949.278 0-1.388-1.93-3.703-4.288zM84 92.714c0-.491 1.012-1.78 2.25-2.863l2.25-1.97-2.75 1.675c-1.513.92-2.75 2.163-2.75 2.761 0 .598-1.462 2.684-3.25 4.635L76.5 100.5l3.75-3.446c2.063-1.896 3.75-3.848 3.75-4.34zM87 93c0-.55-.477-1-1.059-1s-.78.45-.441 1c.34.55.816 1 1.059 1s.441-.45.441-1zm4.5-3c.995-1.1 1.585-2 1.31-2-.275 0-1.315.9-2.31 2-.995 1.1-1.585 2-1.31 2 .275 0 1.315-.9 2.31-2zm59.5.687c0-.172-1.462-1.635-3.25-3.25L144.5 84.5l2.937 3.25c2.738 3.03 3.563 3.71 3.563 2.937zM92.128 86.25c1.243-1.586 1.208-1.621-.378-.378-.963.755-1.75 1.543-1.75 1.75 0 .823.821.294 2.128-1.372zM149 85.622c0-.207-.787-.995-1.75-1.75-1.586-1.243-1.621-1.208-.378.378 1.307 1.666 2.128 2.195 2.128 1.372zM93 82.5c1.292-1.375 2.124-2.5 1.849-2.5-.275 0-1.557 1.125-2.849 2.5-1.292 1.375-2.124 2.5-1.849 2.5.275 0 1.557-1.125 2.849-2.5zm4.5.5c.995-1.1 1.585-2 1.31-2-.275 0-1.315.9-2.31 2-.995 1.1-1.585 2-1.31 2 .275 0 1.315-.9 2.31-2zm53.5 1.674c0-.179-1.238-1.416-2.75-2.75L145.5 79.5l2.424 2.75c2.266 2.57 3.076 3.209 3.076 2.424zm-8.754-7.768c-1.003-.355-1.746-1.636-1.746-3.012 0-1.488-.513-2.286-1.355-2.109-.746.157-2.07-.293-2.942-1-1.327-1.075-1.444-1.048-.713.165.481.797.92 2.475.974 3.73.14 3.193 3.38 5.434 5.733 3.965 1.696-1.06 1.699-1.156.05-1.739zM138.2 76.8c-1.33-1.33-1.623-3.804-.45-3.792.412.004 1.27 1.13 1.906 2.5 1.23 2.651.527 3.275-1.456 1.292zm-36.424-.604c-1.081-1.33-1.013-1.472.448-.925 1.027.385 2.05.062 2.531-.798.445-.795 2.884-2.76 5.42-4.369 3.403-2.158 4.932-3.93 5.839-6.764.675-2.112 1.623-4.268 2.107-4.79 2.301-2.487.331-2.302-5.193.486-4.961 2.505-6.412 3.827-7.938 7.236-1.236 2.76-1.542 4.563-.903 5.332.655.79.43 1.368-.705 1.803-.917.352-1.904.404-2.192.117-.288-.288.028-.524.702-.524.674 0 .96-.43.635-.956-.924-1.496-3.527-.033-3.527 1.981 0 3.07 1.097 4.875 2.608 4.295 1.182-.454 1.213-.837.168-2.124zm36.468-6.86c-.691-.279-.96-.988-.596-1.576.394-.637.188-.777-.51-.345-1.377.85-.55 2.62 1.171 2.506.852-.056.834-.223-.065-.585zm-7.132-5.232c.213.151 1.192-.175 2.176-.725 1.673-.936 1.642-1.125-.483-2.94-1.753-1.497-1.964-1.543-.925-.2 1.157 1.493 1.092 1.834-.457 2.43-1.06.405-1.965.204-2.196-.49-.217-.648-.764-1.179-1.216-1.179-.453 0-.308 1.09.321 2.424.63 1.333 1.425 1.97 1.768 1.415.343-.556.798-.886 1.012-.735zm-5.092-6.58c-.696-.838-1.66-1.524-2.142-1.524-.483 0-.09.825.872 1.833 2.062 2.16 3.108 1.906 1.27-.309zM117 37c-1.515-1.515-2-3.333-2-7.5 0-6.407 2.239-9.5 6.878-9.5 4.008 0 5.56 2.363 5.824 8.863.183 4.525-.18 6.017-1.912 7.861-2.64 2.809-6.147 2.92-8.79.276zm8.683-5.188c-.32-.797-.556-.56-.604.605-.043 1.054.193 1.644.525 1.312.332-.332.368-1.195.08-1.917zM123 32c0-.55-.45-1-1-1s-1 .45-1 1 .45 1 1 1 1-.45 1-1zm-2.137-3.663c.2-.127-.588-.158-1.75-.07-1.162.087-2.113.793-2.113 1.568 0 1.186.277 1.198 1.75.07.963-.736 1.913-1.442 2.113-1.568zm1.866-2.941c-.332-.332-1.195-.368-1.917-.08-.797.32-.56.557.605.605 1.054.043 1.644-.193 1.312-.525zM10.747 365.25c-.174-6.463-.317-1.175-.317 11.75s.143 18.212.317 11.75c.174-6.463.174-17.038 0-23.5zm220.959-17.5c-.239-1.238-.434-.225-.434 2.25s.195 3.487.434 2.25c.238-1.238.238-3.263 0-4.5zm-221.023 3.063c-.32-.798-.556-.561-.604.604-.043 1.054.193 1.644.525 1.312.332-.332.368-1.195.08-1.916zm221-9c-.32-.798-.556-.561-.604.604-.043 1.054.193 1.644.525 1.312.332-.332.368-1.195.08-1.916zm.052-29.563c-.206-2.612-.375-.475-.375 4.75s.169 7.362.375 4.75.206-6.888 0-9.5zm-222.046 7c-.251-.962-.457-.175-.457 1.75s.206 2.712.457 1.75c.252-.963.252-2.538 0-3.5zm.029-11.986c-.23-1.52-.424-.514-.432 2.236-.007 2.75.18 3.994.418 2.764.237-1.23.243-3.48.014-5zm221.988-7.514c-.239-1.238-.434-.225-.434 2.25s.195 3.487.434 2.25c.238-1.238.238-3.263 0-4.5zM9.746 247.692c-.172-6.706-.313-.942-.312 12.808 0 13.75.142 19.236.314 12.192.172-7.045.171-18.295-.001-25zm-.084-17.942c-.277-.688-.504-.125-.504 1.25s.227 1.938.504 1.25c.278-.688.278-1.813 0-2.5zM120.902 9.754L230.5 9.51 121.108 9.25c-80.01-.19-109.757.044-110.75.868-.747.62-1.328 1.86-1.29 2.754.048 1.166.375.99 1.152-.622L11.306 10zM244.159 223c0-1.375.227-1.938.504-1.25.278.688.278 1.813 0 2.5-.277.688-.504.125-.504-1.25zm0-5c0-1.375.227-1.938.504-1.25.278.688.278 1.813 0 2.5-.277.688-.504.125-.504-1.25zm-.079-5.583c.048-1.165.285-1.402.604-.604.289.721.254 1.584-.079 1.916-.332.332-.568-.258-.525-1.312zM244.482 105c0-57.475.12-80.987.268-52.25.147 28.738.147 75.763 0 104.5-.148 28.738-.268 5.225-.268-52.25z"/></svg>