<svg xmlns="http://www.w3.org/2000/svg" width="246" height="420" viewBox="0 0 246 420"><path d="M116.269 418.307c.973-.254 2.323-.237 3 .037.677.274-.119.481-1.769.461-1.65-.02-2.204-.244-1.231-.498zm35.481-.056c17.188-.154 45.313-.154 62.5 0 17.188.153 3.125.279-31.25.279s-48.438-.126-31.25-.28zM7.055 411c-2.72-1.8-2.864-8.835-2.988-145.502-.07-77.549-.378-167.432-.684-199.74L2.827 7.016l2.336-.865C6.45 5.675 40.575 5.23 81 5.16c40.425-.068 90.443-.344 111.15-.615 33.765-.44 37.789-.325 38.986 1.118 1.078 1.299 1.471 17.742 2.039 85.223.676 80.519.916 105.259 2.433 251.116.632 60.815.551 66.62-.941 67.859-1.35 1.12-21.136 1.379-114.245 1.496-61.936.078-112.951-.083-113.367-.358zm82.445-2.991l-81-.509-.583-17c-.32-9.35-.546-99.238-.5-199.75.055-120.548-.255-182.637-.91-182.42-.653.219-.904 60.979-.732 177.75.243 165.326.648 215.091 1.8 220.67l.463 2.25 81.231-.241 81.231-.241zm87.75.285c-1.238-.238-3.263-.238-4.5 0-1.238.239-.225.434 2.25.434s3.487-.195 2.25-.434zm8.019.05c-.677-.274-2.027-.29-3-.037-.973.254-.419.478 1.231.498 1.65.02 2.446-.187 1.769-.461zm37.037-.09c-6.156-.175-16.506-.176-23 0-6.493.174-1.456.317 11.194.318 12.65 0 17.963-.142 11.806-.318zm8.14-27.254c-.03-13.475-.372-36.65-.76-51.5-.388-14.85-1-92.813-1.361-173.25-.465-103.954-.969-146.286-1.74-146.373-2.13-.242-87.29.317-98.085.644-6.05.183-35.422.366-65.272.406L8.956 11l.238 178.75c.13 98.313.477 187.075.771 197.25l.535 18.5 84.5.5c46.475.275 95.975.275 110 0l25.5-.5-.054-24.5zm-113.985-17.043c-6.208-.847-10.374-2.937-14.928-7.49-4.184-4.185-5.842-7.271-7.548-14.053-1.146-4.556-1.06-5.807.822-12 3.665-12.058 13.554-19.37 26.193-19.37 20.18 0 33.061 20.268 24.45 38.472-5.13 10.843-15.928 16.222-28.989 14.441zm5.789-1.62c-.688-.277-1.813-.277-2.5 0-.688.278-.125.505 1.25.505s1.938-.227 1.25-.504zm7-3.499c1.512-.594 2.75-1.503 2.75-2.018 0-.516.434-.67.965-.342 1.359.84 9.232-7.522 8.61-9.143-.282-.734-.076-1.335.456-1.335.533 0 .969-.45.969-1 0-2.066-1.61-.879-3.456 2.549-1.972 3.66-8.895 9.451-11.3 9.451-.785 0-1.056.495-.639 1.17.493.798.168.957-1.023.5-.96-.369-2.496-.68-3.414-.694-.917-.013 1.032-1.123 4.332-2.466 6.74-2.745 11.165-7.21 12.104-12.214.688-3.667 1.783-4.178 3.316-1.546.78 1.34 1.02.464 1.02-3.75s-.24-5.09-1.02-3.75c-1.602 2.75-2.927 2.054-2.85-1.5.055-2.535.237-2.826.825-1.323.618 1.577.86 1.652 1.337.412 1.44-3.753-7.442-14.463-10.895-13.138-1.12.43-1.428.256-.942-.531.398-.644.273-1.17-.277-1.17-2.398 0-1.838 1.873.9 3.007 1.645.682 4.297 2.726 5.892 4.544 1.596 1.817 3.169 3.037 3.496 2.71.327-.327.594-.096.594.513 0 2.52-1.938 1.996-4.362-1.181-2.55-3.344-9.754-7.593-12.873-7.593-1.472 0-1.472.35-.001 4.25 2.415 6.406 2.892 6.75 9.359 6.75 5.03 0 5.877.264 5.877 1.83 0 1.03-2.01 3.275-4.594 5.13-4.195 3.013-4.539 3.571-3.953 6.42 1.814 8.816 1.82 9.62.07 9.62-.933 0-3.646-1.4-6.03-3.112l-4.333-3.112-3.424 2.612c-4.094 3.122-7.736 3.468-7.736.734 0-1.033.701-3.556 1.559-5.608.857-2.052 1.42-3.82 1.25-3.93-4.292-2.767-8.809-7.188-8.809-8.62 0-1.588.916-1.913 6.104-2.166l6.105-.298 1.864-4.921c1.025-2.707 2.44-5.288 3.145-5.735.987-.626.937-.815-.218-.819-3.275-.012-11.817 4.93-14.82 8.574-1.75 2.121-3.18 3.305-3.18 2.632 0-.674 1.593-2.989 3.54-5.144 4.368-4.835 3.028-6.3-1.494-1.634-2.026 2.09-2.979 3.847-2.504 4.615.467.756.356.987-.283.592-1.441-.89-2.154 1.407-1.19 3.84.753 1.906.794 1.91.86.083.04-1.054.33-1.658.646-1.341.796.796-.627 9.758-1.55 9.758-.411 0-.54-1.085-.287-2.41.254-1.327-.02-3.24-.608-4.25-.849-1.461-1.075-.643-1.1 3.969-.02 3.964.318 5.594 1.066 5.132.688-.426.94.018.677 1.19-.92 4.094 3.664 10.52 9.727 13.64 7.343 3.777 12.987 4.225 19.75 1.567zm-15.75-1.025c-1.62-1.531-7.914-5.214-9-5.265-.55-.027-1.056-.61-1.125-1.298-.277-2.767-.425-3.158-1.68-4.429-.821-.832-1.043-2.246-.599-3.821.458-1.624.74-1.88.804-.73.14 2.478 4.564 9.24 7.308 11.169 1.26.886 4.025 2.079 6.143 2.652 2.118.572 3.641 1.25 3.385 1.506-.982.983-4.281 1.119-5.236.216zm22.905-35.063l-1.905-2.25 2.25 1.905c2.114 1.79 2.705 2.595 1.905 2.595-.19 0-1.202-1.012-2.25-2.25zm3.723 31.5c1.243-1.586 1.208-1.621-.378-.378-1.666 1.307-2.195 2.128-1.372 2.128.207 0 .995-.787 1.75-1.75zM100 350c-.589-1.1-1.295-2-1.57-2-.275 0-.019.9.57 2s1.295 2 1.57 2c.275 0 .019-.9-.57-2zm29.662-2.25c-.277-.688-.504-.125-.504 1.25s.227 1.938.504 1.25c.278-.688.278-1.813 0-2.5zM128 349c0-.55-.477-1-1.059-1s-.78.45-.441 1c.34.55.816 1 1.059 1s.441-.45.441-1zm-8-5.244c0-.477 1.11.395 2.468 1.938 1.358 1.543 2.483 2.266 2.5 1.606.018-.66-.756-1.66-1.718-2.22-1.652-.962-1.648-1.02.059-1.05.995-.016 1.526-.487 1.18-1.046-.345-.56-1.116-.715-1.713-.346-.647.4-.797.206-.372-.483.9-1.455 3.596-1.517 3.596-.084 0 .59.675 1.747 1.5 2.572 1.333 1.333 1.5 1.333 1.5 0 0-.825-.675-2.175-1.5-3-1.76-1.761-2.024-4.085-.346-3.048.73.452.883.274.414-.484-.407-.66-.196-1.854.468-2.655 1.021-1.23.607-1.474-2.664-1.573-3.507-.106-3.353-.201 1.628-1.014 7.699-1.257 8.51-1.92 1.89-1.545-5.204.294-5.582.168-5.239-1.753.231-1.292-.174-.942-1.076.929-1.232 2.554-1.24 3.16-.059 4.075 3.452 2.675-2.47 8.59-6.462 6.454-1.516-.811-2.046-.462-3.077 2.027-.686 1.655-.96 3.294-.612 3.643.35.349.635-.116.635-1.032 0-.917.638-1.667 1.418-1.667.78 0 2.243-.262 3.25-.582 1.6-.507 1.642-.412.332.75-.825.733-2.175 2.206-3 3.273-1.201 1.555-.853 1.468 1.75-.438 1.788-1.308 3.25-2.77 3.25-3.247zm4.086-4.256c.104-1.894 1.77-5.084 1.828-3.5.03.825-.38 2.175-.914 3-.533.825-.945 1.05-.914.5zm-27.403 2.313c-.32-.798-.556-.561-.604.604-.043 1.054.193 1.644.525 1.312.332-.332.368-1.195.08-1.916zm49 0c-.32-.798-.556-.561-.604.604-.043 1.054.193 1.644.525 1.312.332-.332.368-1.195.08-1.916zm-27.377-1.457c-1.444-.587-.327-4.214 3.91-12.703.508-1.016.677-2.093.377-2.394-.3-.3-.834.206-1.186 1.123-.497 1.295-.95 1.412-2.024.521-1.101-.914-1.383-.728-1.383.916 0 1.134-.463 2.349-1.029 2.699-.573.354-.814 2.483-.545 4.809.363 3.13.232 3.734-.525 2.415-.555-.967-.733-2.204-.396-2.75.811-1.313-1.13-1.263-3.665.094-1.603.858-2.493.7-4.243-.75-1.217-1.01-.65-.374 1.261 1.414 1.912 1.787 4.274 3.25 5.25 3.25.975 0 2.052.45 2.392 1 .34.55 1.154.964 1.809.921.918-.06.918-.19-.003-.565zm-.545-6.933c-.32-.52.051-1.814.828-2.875 1.515-2.072 1.74-1.246.513 1.886-.416 1.063-1.02 1.508-1.34.989zm2.922 3.39c-.32-.798-.556-.561-.604.604-.043 1.054.193 1.644.525 1.312.332-.332.368-1.195.08-1.916zm10.98-.063c.983-1.573 1.336-3.75.609-3.75-.709 0-3.198 3.266-3.24 4.25-.052 1.21 1.78.86 2.63-.5zm3.719-3.302c.341-.89.173-1.291-.393-.94-.544.335-.989 1.033-.989 1.551 0 1.438.717 1.121 1.382-.61zm10.301-.635c-.32-.798-.556-.561-.604.604-.043 1.054.193 1.644.525 1.312.332-.332.368-1.195.08-1.916zm-49-1c-.32-.798-.556-.561-.604.604-.043 1.054.193 1.644.525 1.312.332-.332.368-1.195.08-1.916zM114.5 332c.38-.614-1.047-.954-3.691-.882-4.018.11-4.107.17-1.309.882 4.313 1.098 4.322 1.098 5 0zm-15.58-5c1.122-2.357 1.102-2.39-.365-.559-.855 1.068-1.555 2.38-1.555 2.917 0 1.27.462.703 1.92-2.358zm22.893-3.938c.25-.75-.126-1.125-.876-.875-.721.241-1.509 1.029-1.75 1.75-.25.75.126 1.125.876.875.721-.24 1.509-1.028 1.75-1.75zm20.187.625c0-.172-1.462-1.635-3.25-3.25l-3.25-2.937 2.937 3.25c2.738 3.03 3.563 3.71 3.563 2.937zm-35.872-5.437c1.243-1.586 1.208-1.621-.378-.378-.963.755-1.75 1.543-1.75 1.75 0 .823.821.294 2.128-1.372zm10.21-1.513c-.356-.575.632-.683 2.499-.273 1.697.373 3.891.21 4.875-.363 1.454-.846 1.042-1.043-2.212-1.057-5.293-.022-8.632.934-7.825 2.24.414.668.01.809-1.101.383-1.982-.76-3.873.04-3.09 1.308.285.46 2.076.36 3.98-.225 1.903-.584 3.196-1.49 2.873-2.013zM127.5 317c.34-.55.168-1-.382-1s-1.278.45-1.618 1c-.34.55-.168 1 .382 1s1.278-.45 1.618-1zm-16.974-1.807c-.307-.308-1.114 0-1.793.683-.98.988-.865 1.102.56.56.986-.376 1.541-.935 1.233-1.243zm13.224-1.91c-1.512-.228-3.987-.228-5.5 0-1.512.23-.275.417 2.75.417s4.263-.187 2.75-.416zm-80.016-25.33C31.084 284.834 23 274.417 23 261.236c0-9.293 6.814-20.03 15.327-24.151 6.036-2.922 17.627-2.914 23.188.016 14.252 7.51 19.395 22.756 12.4 36.754-4.417 8.84-11.177 13.52-20.916 14.484-3.024.3-7.193.127-9.265-.384zm8.016-1.642c-.963-.252-2.538-.252-3.5 0-.963.251-.175.457 1.75.457s2.712-.206 1.75-.457zm5.98-.915c-.333-.332-1.196-.368-1.917-.08-.798.32-.561.557.604.605 1.054.043 1.644-.193 1.312-.525zM55 284.015c2.45-.77 2.433-.802-.862-1.548l-3.363-.762 4.363-1.447c11.697-3.88 17.023-16.096 11.76-26.97-2.767-5.716-7.309-9.036-14.273-10.434-5.249-1.055-6.03-.96-10.323 1.248-4.008 2.061-11.017 9.516-9.95 10.583.2.201 2.88.07 5.955-.291l5.59-.657 1.688-5.369c2.325-7.39 6.183-7.323 7.972.138 1.114 4.641 2.293 5.494 7.597 5.494 3.646 0 5.072.426 5.544 1.656.63 1.64-.626 3.066-5.597 6.363-2.286 1.516-2.287 1.532-.629 7.237 2.508 8.626.476 9.985-6.95 4.653l-4.304-3.092-5.08 3.495-5.08 3.494 3.991 1.597c2.195.878 4.77 1.642 5.721 1.697 1.128.065.86.378-.77.9-3.59 1.15-5.21 1.15-4.5 0 .34-.55.168-1-.382-1-2.402 0-1.94 1.999.591 2.558 1.535.34 3.241.767 3.791.95 1.652.551 4.846.341 7.5-.493zm6.094-2.065c1.079-.578 1.655-1.547 1.28-2.155-.376-.607-.235-.827.313-.488 1.473.91 7.7-5.872 6.77-7.375-.463-.751-.355-.987.275-.598 1.449.896 2.457-3.567 1.088-4.817-.795-.725-.938-.515-.499.733.34.962.253 1.75-.192 1.75-.773 0-3.5 5.1-3.14 5.872.095.205-1.666 1.59-3.914 3.078-2.247 1.488-3.746 3.08-3.33 3.537.415.457-.056.54-1.047.184-1.074-.387-1.555-.249-1.19.34.767 1.243 1.161 1.236 3.586-.061zm-21.773-2.457c-1.908-1.395-3.753-1-2.768.592a1.107 1.107 0 0 0 1.516.372c.512-.316.931-.072.931.543s.477.823 1.06.463c.669-.413.396-1.14-.74-1.97zm-3.874-2.578a1.117 1.117 0 0 0-1.532-.362 1.117 1.117 0 0 0-.362 1.532 1.117 1.117 0 0 0 1.532.362 1.117 1.117 0 0 0 .362-1.532zm34.68-.665c1.244-1.586 1.21-1.621-.377-.378-.963.755-1.75 1.543-1.75 1.75 0 .823.821.294 2.128-1.372zm-30.064-12.238c-5.628-3.671-8.066-5.77-8.146-7.012-.054-.825-.534.017-1.067 1.871-1.074 3.732.505 8.99 4.451 14.824l2.162 3.194 1.692-6.182c.931-3.4 1.34-6.413.908-6.695zm-7.928 7.9c-.87-1.515-1.818-2.608-2.108-2.43-.29.18-.598-3.489-.684-8.152-.086-4.662.1-8.22.413-7.907.314.313 1.382-.765 2.374-2.396.992-1.632 3.604-4.27 5.803-5.864 2.2-1.593 3.677-3.238 3.283-3.654-.394-.417.353-.428 1.66-.026 1.413.435 2.14.35 1.793-.21-.34-.55 1.851-.906 5.277-.857 3.223.046 5.681.374 5.464.727-.218.354.717.923 2.079 1.265 3.405.854 9.007 5.961 10.504 9.575 1.134 2.737 3.007 3.297 3.007.899 0-.55-.526-.675-1.17-.277-.767.474-.967.194-.581-.811.88-2.294-4.524-8.233-9.709-10.67-2.738-1.287-6.505-2.124-9.561-2.124-5.949 0-12.48 2.38-11.387 4.149.49.793.218.992-.813.596-1.652-.633-6.392 3.626-6.957 6.251-.177.823-.978 2.01-1.78 2.639-2.142 1.678-2.025 14.896.168 18.948.918 1.696 2.307 3.084 3.087 3.084 1.185 0 1.159-.453-.162-2.755zm23.403-.466c-2.008-2.166-2.228-3.039-1.453-5.743 1.134-3.954 1.134-3.956-.085-3.203-.55.34-1-.084-1-.941 0-1.845 1.936-2.125 2.142-.309.077.688.225 2.15.329 3.25.72 7.69.57 7.21 1.515 4.873.472-1.17.496-3.735.053-5.7-.443-1.965-.558-3.82-.256-4.123.303-.302-.065-.55-.816-.55-1.035 0-1.086-.28-.21-1.158.873-.872 1.5-.874 2.543-.009 1.496 1.243 2.7.6 2.7-1.443 0-.883-1.566-1.24-5.084-1.16-3.37.076-5.423-.365-6.087-1.308-.762-1.08-.884-.881-.509.83.271 1.238.085 1.999-.413 1.69-.499-.308-.914.03-.922.749-.012.964-.26.921-.948-.165-.613-.97-.526-1.724.257-2.208.912-.563.9-1.024-.052-1.976-.99-.99-1.242-.978-1.242.054 0 .712-.93 2.602-2.068 4.2-1.138 1.597-1.588 2.904-1 2.904.587 0 1.068.54 1.068 1.2 0 .933-.267.933-1.2 0-.66-.66-1.862-1.2-2.671-1.2-.81 0-2.202-.563-3.094-1.25-.893-.688.114.33 2.237 2.262 3.537 3.218 3.77 3.746 2.794 6.315-1.432 3.766-1.342 4.433.296 2.193.749-1.024 2.075-1.967 2.948-2.095 1.3-.19 1.38.1.438 1.606-.631 1.012-1.433 1.664-1.781 1.448-.349-.215-.634.272-.634 1.083 0 1.13.502 1.002 2.148-.544 2.797-2.628 4.371-2.54 8.019.451 3.926 3.218 5.03 3.206 2.038-.023zm-4.034-3.366c.628-1.082.394-1.255-.981-.727-1.527.586-1.61.457-.542-.83.695-.838 1.619-1.523 2.053-1.523.998 0 .638 2.686-.499 3.721-.471.43-.486.142-.031-.64zm-6.964-3.427c-1.352-.989-1.518-1.548-.625-2.1 1.398-.865 2.381-.143 2.692 1.976.264 1.797.224 1.8-2.067.124zm1.979-2.805c-2.049-2.17-2.503-3.264-1.693-4.075.811-.81 1.265-.7 1.691.412.38.99 1.436 1.355 3.033 1.05 2.074-.396 2.45-.083 2.45 2.041 0 3.7-2.302 3.94-5.481.572zm-20.801-2.584c-.23-1.52-.424-.514-.432 2.236-.007 2.75.18 3.994.418 2.764.237-1.23.243-3.48.014-5zm46.826-1.943c-.564-2.248-2.544-2.406-2.544-.203 0 .55.45.722 1 .382.606-.375 1.063 1.274 1.16 4.191.13 3.886.24 4.159.574 1.42.227-1.863.142-4.469-.19-5.79zm2.174 1.943c-.23-1.52-.424-.514-.432 2.236-.007 2.75.18 3.994.418 2.764.237-1.23.243-3.48.014-5zM59.5 261c.34-.55-.11-1-1-1s-1.34.45-1 1c.34.55.79 1 1 1 .21 0 .66-.45 1-1zM43 257c0-.912-3.67-1.997-4.373-1.293-.27.268-.266 1.07.007 1.78.508 1.326 4.366.896 4.366-.487zm21.73-.604c-.333-.332-1.196-.368-1.917-.08-.798.32-.561.557.604.605 1.054.043 1.644-.193 1.312-.525zM53 252.5c0-.825-.177-1.5-.393-1.5-.216 0-.652.675-.969 1.5-.316.825-.14 1.5.393 1.5s.969-.675.969-1.5zm20-.309c0-.445-.682-1.682-1.516-2.75-1.406-1.8-1.43-1.741-.34.809 1.178 2.751 1.856 3.461 1.856 1.941zm-24.618-3.743c.341-.89.173-1.291-.393-.94-.544.335-.989 1.033-.989 1.551 0 1.438.717 1.121 1.382-.61zm-14.82-4.698l2.938-3.25-3.25 2.937c-1.788 1.615-3.25 3.078-3.25 3.25 0 .773.825.092 3.563-2.937zm34.362.658c-1.333-1.425-3.324-3.058-4.424-3.628-1.1-.57-.2.578 2 2.55 4.715 4.227 5.836 4.726 2.424 1.078zm-26.007-6.043c1.372-1.201-1.883-.086-3.476 1.19-1.83 1.467-1.798 1.487.559.365 1.375-.655 2.687-1.355 2.917-1.555zm3.812-.97c-.332-.331-1.195-.367-1.917-.078-.797.32-.56.556.605.604 1.054.043 1.644-.193 1.312-.525zm10 0c-.332-.331-1.195-.367-1.917-.078-.797.32-.56.556.605.604 1.054.043 1.644-.193 1.312-.525zm127.265 49.67c-11.03-3.355-18.927-13.818-18.972-25.137-.11-27.674 34.436-38.109 50.298-15.193 2.256 3.26 2.929 5.542 3.366 11.42.71 9.556-.71 14.454-5.899 20.35-5.581 6.34-12.4 9.5-20.287 9.4-3.3-.043-7.128-.42-8.506-.84zm11.774-1.78c-1.503-.228-4.203-.232-6-.01-1.797.223-.568.41 2.732.415 3.3.006 4.77-.176 3.268-.405zm3.333-2.438c1.87-.634 4.677-2.043 6.238-3.131 3.077-2.145 8.67-9.336 8.646-11.116-.009-.605-.452-.425-.985.4-.533.825-.98 1.05-.991.5-.012-.55-.894.322-1.959 1.938-1.065 1.615-1.665 3.415-1.333 4 .332.584.235.728-.215.32-1.033-.936-3.668 1.165-2.94 2.344.298.481-.136.615-.965.297-1.267-.486-1.179-.924.55-2.739 2.579-2.708 6.608-11.192 7.2-15.16.264-1.768.395-1.152.32 1.5-.18 6.324 1.767 5.64 2.135-.75.194-3.365-.096-5.25-.809-5.25-.611 0-.841-.437-.511-.97.74-1.2-2.168-7.03-3.508-7.03-1.302 0-1.234 1.34.138 2.712.612.612.91 1.715.662 2.45-.28.832-1.043.203-2.015-1.662-1.926-3.694-5.985-6.762-11.259-8.51l-4-1.326 2.877-1.184 2.877-1.184-3.877-.61c-4.38-.688-11.66.665-12.195 2.267-.194.583-.834.762-1.422.399-.598-.37-.78-.194-.414.4.361.583 1.55.826 2.644.54 1.093-.285 1.741-.918 1.44-1.406-.689-1.113 1.633-1.132 3.375-.028.903.573-.078 1.356-3.186 2.544-3.966 1.514-11.619 8.332-11.62 10.35 0 .412 2.813.523 6.25.248l6.251-.5 1.651-5c2.372-7.18 4.906-7.281 7.553-.3l2.01 5.3 6.143.298c5.249.254 6.143.572 6.143 2.185 0 1.062-1.74 3.118-3.979 4.702-4.4 3.113-4.812 4.845-2.375 9.982 1.518 3.198 1.52 3.596.026 5.09-1.493 1.493-1.967 1.37-6.06-1.569-2.441-1.753-4.848-3.188-5.347-3.188-.5 0-2.676 1.337-4.837 2.972-6.645 5.028-8.479 3.708-5.849-4.21l1.725-5.193-2.855-2.034c-1.57-1.12-3.861-3-5.091-4.179-1.23-1.18-2.478-1.902-2.774-1.607-.295.296-.851-.282-1.235-1.283-.664-1.73-.736-1.725-1.454.107-.415 1.06-.747 3.952-.739 6.427.015 4.229.07 4.32.914 1.5.494-1.65.633-3.84.31-4.868-.408-1.291-.171-1.73.765-1.418.788.261 1.63 2.662 2.01 5.733.782 6.309 4.958 12.732 9.95 15.301 3.797 1.956 12.264 2.323 16.493.715 1.983-.754 3.024-.714 3.815.147.809.88.727.978-.318.382-.882-.504-1.165-.414-.76.24.354.573.086 1.022-.596.998-3.595-.13-5.792.375-5.274 1.213.336.544-1.54.926-4.441.904-2.763-.021-5.024-.397-5.024-.835 0-.437-1.136-1.08-2.525-1.429-1.39-.349-4.276-2.216-6.416-4.149-2.14-1.933-4.157-3.085-4.482-2.558-.804 1.301 7.519 8.301 9.134 7.682.709-.273 1.289-.092 1.289.4 0 2.051 9.948 2.637 15.1.89zm-23.177-6.597l-2.424-2.75 2.75 2.424c2.57 2.266 3.209 3.076 2.424 3.076-.179 0-1.416-1.238-2.75-2.75zm35.091-20.441c-.008-.93.435-1.97.985-2.309 1.266-.782 1.266.542 0 2.5-.835 1.293-.971 1.266-.985-.191zm-33.248 25.088c-1.504-1.122-3.903-3.47-5.331-5.218-1.43-1.749-2.129-2.228-1.555-1.066 1.1 2.23 7.686 8.41 8.904 8.355.393-.017-.515-.95-2.018-2.07zm30.36-.647c1.244-1.586 1.21-1.621-.377-.378-.963.755-1.75 1.543-1.75 1.75 0 .823.821.294 2.128-1.372zm4-4c1.244-1.586 1.21-1.621-.377-.378-1.666 1.307-2.195 2.128-1.372 2.128.207 0 .995-.787 1.75-1.75zm-10.465-5.5c-.277-.688-.504-.125-.504 1.25s.227 1.938.504 1.25c.278-.688.278-1.813 0-2.5zm13.145.724c-.308-.308-.867.247-1.243 1.233-.542 1.425-.428 1.54.56.56.684-.679.99-1.486.683-1.793zm-16.172.249c-1.676-1.226-2.394-3.188-2.558-6.992-.061-1.398-.624-1.632-2.684-1.115-1.726.433-2.904.186-3.485-.73-1.223-1.931-1.132-2.519.663-4.315.865-.864 1.09-1.571.5-1.571-.589 0-1.04-1.012-1-2.25.066-2.147.109-2.158.929-.25.56 1.302.873 1.477.898.5.021-.825-.583-2.32-1.343-3.322-1.336-1.762-1.394-1.762-1.787 0-.223 1.002-.035 2.947.419 4.322.77 2.332.727 2.374-.631.627-1.393-1.791-1.484-1.761-2.1.693-.354 1.412-.322 3.089.073 3.727.394.638-.463.387-1.906-.558-1.443-.946-2.623-1.416-2.623-1.045 0 .37-.498.366-1.107-.01-.784-.485-.739-.911.154-1.463.774-.479.238-.72-1.393-.625-1.459.085-2.653.207-2.653.271-.006.952 8.68 5.438 9.908 5.117 1.125-.294 1.736.202 1.833 1.488.114 1.522-.143 1.69-1.22.796-1.091-.906-1.26-.734-.845.856.336 1.285 1.104 1.809 2.172 1.481 1.389-.426 1.373-.328-.099.62-.962.618-1.75 1.798-1.75 2.621 0 1.246.401 1.196 2.391-.3 1.421-1.067 2.245-2.56 2.031-3.681-.197-1.037-.077-1.604.267-1.259.345.345 1.23.125 1.969-.487 1.694-1.406 1.768.272.092 2.078-1.027 1.107-.893 1.221.75.64 1.55-.547 1.733-.436.811.493-.92.927-.694 1.612 1 3.026 1.204 1.005 2.613 1.842 3.13 1.86.518.019.155-.54-.806-1.243zM186 258.94c0-.582.45-.78 1-.441.55.34 1 .816 1 1.059s-.45.441-1 .441-1-.477-1-1.059zm-14.193 9.533c-.308-.308-.867.247-1.243 1.233-.542 1.425-.428 1.54.56.56.684-.679.99-1.486.683-1.793zm12.754-2.176c-1-2.607-1.717-.76-.906 2.334.555 2.114.853 2.393 1.134 1.06.209-.995.107-2.522-.228-3.394zm-13.592-.798c0-.55-.436-.325-.969.5-.533.825-.97 1.95-.97 2.5s.437.325.97-.5c.533-.825.97-1.95.97-2.5zm28.116.395c-.527-1.317-.994-1.945-1.037-1.395-.043.55-.515.325-1.048-.5s-.976-1.029-.985-.453c-.016 1.115 3.255 5.516 3.74 5.031.158-.158-.143-1.365-.67-2.683zm-32.367-6.631c-.23-1.52-.424-.514-.432 2.236-.007 2.75.18 3.994.418 2.764.237-1.23.243-3.48.014-5zM192 261c0-.55-.45-1-1-1s-1 .45-1 1 .45 1 1 1 1-.45 1-1zm4 0c0-.55-.45-1-1-1s-1 .45-1 1 .45 1 1 1 1-.45 1-1zm1.662-2.25c-.277-.688-.504-.125-.504 1.25s.227 1.938.504 1.25c.278-.688.278-1.813 0-2.5zm-1.933-.354c-.332-.332-1.195-.368-1.917-.08-.797.32-.56.557.605.605 1.054.043 1.644-.193 1.312-.525zm9.825-2.309c-.828-1.34-9.212-1.449-10.027-.13-.365.59 1.397.72 4.609.34 4.825-.571 5.148-.478 4.473 1.294-.555 1.456-.45 1.633.445.746.644-.64.87-1.652.5-2.25zm-2.825 1.309c-.332-.332-1.195-.368-1.917-.08-.797.32-.56.557.605.605 1.054.043 1.644-.193 1.312-.525zm-18.967-2.083c-.956-.25-2.756-.26-4-.02-1.244.239-.462.444 1.738.455 2.2.01 3.218-.185 2.262-.435zm-11.44-4.602c-.307-.495-.988-.445-1.548.115-.55.55-.668 1.537-.262 2.194.56.907.932.879 1.547-.115.445-.72.563-1.708.262-2.194zm20.777-1.951c-1.035-2.722-3.099-4.6-3.099-2.819 0 .582.45 1.059 1 1.059s1 .73 1 1.622c0 1.399-.234 1.433-1.692.25-1.46-1.184-1.569-1.166-.795.128 2.703 4.518 5.328 4.342 3.586-.24zm-23.717 1.688c.341-.89.173-1.291-.393-.94-.544.335-.989 1.033-.989 1.551 0 1.438.717 1.121 1.382-.61zm9.966-7.693c-.315-.511-2.08.532-3.922 2.317-1.841 1.784-3.09 3.663-2.774 4.173.315.511 2.08-.532 3.922-2.317 1.841-1.784 3.09-3.663 2.774-4.173zM173 248.687c0-.172 1.462-1.635 3.25-3.25l3.25-2.937-2.937 3.25c-2.738 3.03-3.563 3.71-3.563 2.937zm34.471-3.719c-.94-1.039-2.34-1.572-3.229-1.23-1.15.44-1.35.221-.746-.818.454-.781.46-1.09.013-.686-.446.404-1.35-.002-2.008-.902-.659-.9-1.722-1.314-2.362-.918-.738.456.578 1.913 3.598 3.981 4.976 3.407 7.585 3.723 4.734.573zm3.529.687c0-.19-1.012-1.202-2.25-2.25l-2.25-1.905 1.905 2.25c1.79 2.114 2.595 2.705 2.595 1.905zm-36.872-2.405c1.243-1.586 1.208-1.621-.378-.378-.963.755-1.75 1.543-1.75 1.75 0 .823.821.294 2.128-1.372zm5.303-4.153c-.263-.263-1.255.333-2.205 1.324-1.65 1.722-1.628 1.744.479.479 1.212-.729 1.989-1.54 1.726-1.803zM202.5 239c-.34-.55-1.154-.993-1.809-.985-.716.01-.592.403.309.985 1.921 1.242 2.267 1.242 1.5 0zm-9.25-2.706c-1.238-.238-3.263-.238-4.5 0-1.238.239-.225.434 2.25.434s3.487-.195 2.25-.434zm-84.772-2.165c-2.212-1.005-5.495-3.3-7.295-5.1-13.515-13.515-9.973-34.825 7.302-43.929 6.047-3.186 17.4-2.958 24.316.488 20.2 10.066 20.037 37.613-.286 48.314-5.311 2.796-18.115 2.917-24.037.227zm7.251-.733c-.332-.332-1.195-.368-1.916-.08-.798.32-.561.557.604.605 1.054.043 1.644-.193 1.312-.525zm12 0c-.332-.332-1.195-.368-1.916-.08-.798.32-.561.557.604.605 1.054.043 1.644-.193 1.312-.525zM110 231.607c0-.216-.698-.661-1.552-.989-.89-.341-1.291-.173-.94.393.586.95 2.492 1.406 2.492.596zm15-.737c-1.375-.552-4.668-.742-7.318-.423-2.75.332-4.58.195-4.262-.317.305-.494-.737-1.433-2.315-2.087-1.579-.653-4.117-2.49-5.64-4.08-1.524-1.59-3.229-2.61-3.788-2.263-.62.382-.76-.042-.358-1.088.39-1.018.257-1.468-.329-1.106-.543.336-.916-.203-.83-1.198.086-.994.054-2.933-.072-4.308-.212-2.318-.291-2.354-1.088-.5-1.21 2.817-1.177 3.728.107 2.934.75-.463.883.02.415 1.498-.556 1.749.312 3.188 4.366 7.242 3.072 3.071 5.627 4.842 6.503 4.506a1.547 1.547 0 0 1 1.995.883c.413 1.076 2.381 1.421 7.833 1.374 5.905-.052 6.809-.253 4.781-1.067zm-20.563-6.12l-2.937-3.25 3.25 2.937c1.788 1.615 3.25 3.078 3.25 3.25 0 .773-.825.092-3.563-2.937zM128.5 230c-.34-.55-1.154-.993-1.809-.985-.716.01-.592.403.309.985 1.921 1.242 2.267 1.242 1.5 0zm-22.5-.304c0-.167-1.688-1.854-3.75-3.75L98.5 222.5l3.446 3.75c3.208 3.49 4.054 4.21 4.054 3.446zm29.293-2.786c4.093-3.374 7.735-9.127 5.488-8.67-1.918.39-3.998 3.6-3.184 4.916.413.67.275.883-.33.51-.572-.354-1.596.026-2.276.845-.68.819-1.71 1.489-2.288 1.489-.578 0-.12-1.012 1.017-2.25 5.436-5.911 7.608-14.126 5.325-20.133-1.66-4.367-8.03-10.532-12.161-11.77-2.143-.642-4.108-.956-4.366-.698s.373 2.693 1.402 5.41l1.871 4.941 6.105.298c5.214.254 6.104.573 6.104 2.188 0 1.089-1.87 3.232-4.41 5.057l-4.41 3.167 1.896 5.512c2.81 8.165 1.127 9.381-5.917 4.278-2.278-1.65-4.483-2.982-4.9-2.96-.418.023-2.317 1.373-4.221 3-6.039 5.162-9.469 3.32-6.6-3.545 2.272-5.44 1.96-6.683-2.46-9.81-2.297-1.626-3.978-3.632-3.978-4.75 0-1.67.726-1.935 5.3-1.935 5.4 0 7.695-1.176 7.706-3.95.003-.853.652-2.788 1.44-4.3 1.284-2.46 1.264-2.75-.19-2.75-3.564 0-10.132 4.215-12.763 8.19-5.296 8.003-4.63 16.565 1.81 23.229 4.81 4.979 11.638 7.132 17.732 5.592 1.906-.482 4.59-1.165 5.965-1.518 2.279-.585 2.346-.515.766.782-1.549 1.27-1.456 2.725.173 2.725.333 0 2.292-1.39 4.354-3.09zm-1.293-.288c0-.207.787-.995 1.75-1.75 1.586-1.243 1.621-1.208.378.378-1.307 1.666-2.128 2.195-2.128 1.372zm4.563.128l2.937-3.25-3.25 2.937c-3.03 2.738-3.71 3.563-2.937 3.563.172 0 1.635-1.462 3.25-3.25zm-20.257-9.154c1.544-1.433 2.523-3.064 2.176-3.625-.347-.561-.26-.937.194-.834 1.545.349 6.324-2.084 6.324-3.22 0-.622.606-.898 1.347-.614.74.284 2.653-.562 4.25-1.88l2.903-2.395-3.443 1.656c-2.47 1.187-3.554 1.325-3.834.486-.214-.644-2.04-1.118-4.056-1.054-2.017.064-2.846.328-1.844.587 1.073.278 1.6 1.054 1.282 1.884-.298.777-.14 1.413.353 1.413.492 0 1.128-.787 1.411-1.75.43-1.456.484-1.428.324.167-.212 2.105-5.345 4.372-6.668 2.945-1.527-1.645-2.245-5.428-.975-5.137.66.151 1.403-.4 1.651-1.225.401-1.333.323-1.333-.703 0-.937 1.218-1.071.978-.71-1.274.244-1.525.054-3.015-.422-3.309-.87-.538-1.262.925-.918 3.433.102.743-.247 1.083-.776.756-.53-.327-1.235.115-1.567.982-.87 2.265-.747 3.412.364 3.412.532 0 .686-.787.34-1.75-.345-.963-.317-1.473.063-1.135.38.338.875 1.573 1.101 2.745.403 2.094.355 2.102-2.781.427-3.001-1.601-3.561-1.825-5.442-2.177-.413-.078-.075-.626.75-1.22 1.297-.932 1.28-1.009-.128-.562-.896.283-2.043.213-2.55-.156-.508-.37.637.79 2.544 2.578 1.907 1.788 4.222 3.25 5.146 3.25.923 0 2.467.872 3.431 1.937 1.685 1.862 1.639 2.048-1.202 4.75-1.625 1.547-3.807 3.382-4.848 4.077-1.105.738-.643.676 1.107-.15 1.65-.777 4.263-2.585 5.806-4.018zm11.377 2.216c-.32-.797-.556-.56-.604.605-.043 1.054.193 1.644.525 1.312.332-.332.368-1.195.08-1.917zm-1.683.129c0-.582-.427-.795-.95-.472-.522.323-1.411-.276-1.976-1.33-.832-1.556-.653-2.016.95-2.435 2.012-.526 2.798-2.704.976-2.704-.55 0-1 .47-1 1.044 0 .574-.563.97-1.25.881-3.355-.435-3.601.26-1.092 3.075 2.75 3.087 4.342 3.799 4.342 1.941zm-14.76-1.293c.599.37.78.194.413-.401-.361-.584-.235-2.116.282-3.405.516-1.288.967-1.78 1.002-1.092.035.688.824 1.25 1.754 1.25 1.472 0 1.44-.186-.25-1.439-2.38-1.764-3.912-.5-4.777 3.939-.322 1.65-.339 2.435-.039 1.744.3-.691 1.027-.96 1.615-.596zm28.845-3.095c.503.31.9-.474.883-1.744-.03-2.246-.072-2.256-1.5-.368-.807 1.068-1.432 2.418-1.389 3 .043.583.307.494.585-.197.279-.691.918-1.002 1.421-.691zm-46.38-7.803c-.238-1.238-.433-.225-.433 2.25s.195 3.487.434 2.25c.238-1.238.238-3.263 0-4.5zm1.988.519c-.254-.973-.478-.419-.498 1.231-.02 1.65.187 2.446.46 1.769.275-.677.292-2.027.038-3zm47.996-1.019c-.251-.963-.457-.175-.457 1.75s.206 2.712.457 1.75c.252-.963.252-2.538 0-3.5zm-4.006 1.563c-.32-.798-.556-.561-.604.604-.043 1.054.193 1.644.525 1.312.332-.332.368-1.195.08-1.917zm-39.4-9.392c.872-1.687 2.285-3.647 3.14-4.357.855-.71 1.261-1.766.902-2.347-.39-.63-.061-.83.811-.495.806.31 2.507.004 3.782-.678 1.94-1.039 2.054-1.34.7-1.86-.89-.342-1.618-.159-1.618.406 0 .566-.412.773-.915.462-1.147-.708-7.27 4.339-6.593 5.434.273.443-.168 1.06-.98 1.371-.915.351-1.23 1.217-.825 2.27.48 1.25.298 1.482-.687.873-.98-.605-1.168-.38-.701.836.35.915.244 1.664-.237 1.664s-.61 1.01-.288 2.243c.582 2.227.59 2.226 1.254-.257.368-1.374 1.382-3.879 2.254-5.565zm.717-3.799c0-.207.787-.995 1.75-1.75 1.586-1.243 1.621-1.208.378.378-1.307 1.666-2.128 2.195-2.128 1.372zm40 8.819c0-.936-.468-1.27-1.17-.836-.816.505-.95.145-.44-1.191.525-1.38.424-1.612-.364-.831-1.178 1.168-.383 4.417 1.081 4.417.491 0 .893-.702.893-1.559zM113.5 204c.375-.607-.88-.953-3.191-.882-3.763.117-3.773.128-.809.882 1.65.42 3.086.817 3.191.882.105.065.47-.332.809-.882zm20.417-.644c.229-.196-1.796-.35-4.5-.34-3.381.01-4.463.302-3.464.934 1.272.804 6.812.391 7.964-.594zM144 200.191c0-.445-.682-1.682-1.516-2.75-1.406-1.8-1.43-1.741-.34.809 1.178 2.751 1.856 3.461 1.856 1.941zm-5.198-3.594c-.825-.603-1.65-1.547-1.834-2.097-.516-1.546-4.48-4.398-8.377-6.027-5.297-2.213-19.03-1.634-15.426.65 1.671 1.06 3.107 1.126 2.483.116-.26-.419 1.936-.78 4.878-.804 2.975-.024 5.1.362 4.787.868-.322.52.402.605 1.687.197 1.413-.448 2.02-.341 1.631.288-.72 1.165 2.103 2.495 3.484 1.64.514-.317.81-.183.66.298-.402 1.278 5.565 7.137 6.626 6.505.496-.295.227-1.03-.599-1.634zm-17.586-.964c.671.415.806.212.35-.527-.868-1.403-3.588.34-3.536 2.266.017.62.495.331 1.062-.643.567-.974 1.523-1.467 2.124-1.096zm-17.653-3.883l2.937-3.25-3.25 2.937c-3.03 2.738-3.71 3.563-2.937 3.563.172 0 1.635-1.462 3.25-3.25zM140 193.622c0-.207-.787-.995-1.75-1.75-1.586-1.243-1.621-1.208-.378.378 1.307 1.666 2.128 2.195 2.128 1.372zM131 187c-.825-.533-1.95-.97-2.5-.97s-.325.437.5.97c.825.533 1.95.97 2.5.97s.325-.437-.5-.97zm-7.75-1.723c-1.788-.222-4.713-.222-6.5 0-1.788.221-.325.403 3.25.403s5.037-.182 3.25-.403zm-84.036.919c-4.726-1.87-11.458-7.935-14.047-12.656-2.358-4.3-2.27-19.774.137-24.274 2.504-4.68 8.366-10.212 13.095-12.36 6.113-2.776 16.688-2.556 23.101.481 9.866 4.672 15.033 13.342 14.951 25.088-.037 5.437-.567 7.929-2.344 11.025-5.639 9.824-13.463 14.509-24.107 14.436-3.655-.025-8.376-.787-10.786-1.74zm7.515-.8c-.332-.332-1.195-.368-1.917-.08-.797.32-.56.557.605.605 1.054.043 1.644-.193 1.312-.525zm9 0c-.332-.332-1.195-.368-1.917-.08-.797.32-.56.557.605.605 1.054.043 1.644-.193 1.312-.525zm-15.812-1.699c-.23-.166-1.767-1.093-3.417-2.059l-3-1.757 2.36 2.06c1.3 1.132 2.837 2.059 3.417 2.059.581 0 .869-.136.64-.303zm16.933-.794c1.816-.634 2.867-1.551 2.485-2.17-.42-.68-.045-.836 1.024-.426 2.136.82 10.055-6.786 9.25-8.884-.3-.783-.124-1.423.391-1.423s.648-.755.294-1.677c-.575-1.497-.717-1.47-1.33.25-.378 1.06-.453 2.602-.166 3.427.286.825.153 1.166-.297.759-.45-.408-1.42-.24-2.159.372-1.639 1.36-1.796 3.268-.187 2.274.699-.433.883-.276.467.397-.662 1.071-3.622.586-3.622-.595 0-.318.937-1.575 2.082-2.794 1.145-1.22 2.33-4.06 2.632-6.315.661-4.933 1.892-5.263 3.167-.848.804 2.783.937 2.244.93-3.75-.007-4.184-.283-6.024-.688-4.574-.91 3.256-3.122 3.898-3.127.907-.008-5.359-7.588-13.201-13.997-14.483-2.794-.56-3.235-.408-2.722.929.337.878 1.104 3.424 1.706 5.658.928 3.445 1.507 4.076 3.806 4.15 8.605.273 9.689.485 9.976 1.953.17.872-1.609 2.97-4.102 4.838l-4.403 3.3 1.92 5.056c3.137 8.254 1.062 9.897-6.021 4.766-2.278-1.65-4.418-3-4.756-3-.339 0-2.255 1.285-4.26 2.855-2.003 1.57-4.318 3.071-5.143 3.336-.909.292.022.986 2.362 1.76 3.683 1.219 10.987 1.03 16.638-.43l2.5-.646-2.281 1.364c-1.255.75-1.93 1.735-1.5 2.187.43.452-.288.493-1.594.091-1.63-.502-2.16-.384-1.691.376.47.76-1.08 1.107-4.934 1.107-3.853 0-5.403-.348-4.934-1.107.466-.754-.033-.88-1.566-.393-1.453.461-2.024.347-1.61-.32.607-.984-2.095-2.424-3.597-1.918-.389.13-1.387-.662-2.218-1.762s-1.526-1.507-1.543-.905c-.046 1.566 2.969 4.074 6.998 5.822 4.125 1.789 11.437 2.013 15.82.486zm4.53-4.282c.126-.86.508-1.842.85-2.184.34-.341.517.083.39.942-.126.86-.508 1.842-.85 2.184-.34.341-.517-.083-.39-.942zM68 178.5c1.292-1.375 2.124-2.5 1.849-2.5-.275 0-1.557 1.125-2.849 2.5-1.292 1.375-2.124 2.5-1.849 2.5.275 0 1.557-1.125 2.849-2.5zm-28.032-13c.005-1.202-1.484-2.998-3.73-4.5-4.996-3.341-4.902-3.317-5.621-1.444-.793 2.065 1.81 9.925 4.693 14.17l2.19 3.225 1.23-4.726c.678-2.599 1.235-5.625 1.238-6.725zm-7.289 7.358c-.657-1.053-1.5-1.437-2.017-.92-1.147 1.147-.162 2.729 1.698 2.729 1.147 0 1.214-.377.32-1.809zm26.517-.608c-.29-1.512-.72-2.173-.956-1.467-.425 1.272.336 4.217 1.09 4.217.216 0 .156-1.238-.134-2.75zM73 170.642c0-1.27-.462-.703-1.92 2.358-1.122 2.357-1.102 2.39.365.559.855-1.068 1.555-2.38 1.555-2.917zM47.61 169.3c.894-1.045 1.845-.8 4.868 1.25 2.066 1.403 4.004 2.303 4.306 2 .302-.302.024-.549-.617-.549-.642 0-1.167-.9-1.167-2s.436-2 .969-2c.532 0 .715.787.405 1.75-.437 1.36-.343 1.442.423.366.582-.816.65-2.556.167-4.24-.626-2.184-.441-3.07.783-3.754.882-.494 1.72-1.735 1.862-2.76.243-1.742.15-1.733-1.425.138-.926 1.1-2.551 2.15-3.611 2.335-1.503.26-1.283-.208 1-2.129 1.61-1.355 3.827-2.69 4.927-2.969 1.1-.278-.18-.557-2.844-.621-3.994-.096-4.938-.477-5.381-2.173-.312-1.192-1.1-1.84-1.874-1.543-.736.282-1.607.075-1.938-.46-.71-1.15-2.463-.278-2.463 1.226 0 .576.675.789 1.5.472.825-.316 1.5-.14 1.5.393s-.873.969-1.941.969-2.242.486-2.61 1.081c-.37.601-1.766.805-3.143.46-1.362-.342-3.362-.34-4.444.003-1.625.516-1.75.886-.717 2.13 1.108 1.336 1.387 1.32 2.456-.144.866-1.184 1.411-1.319 1.931-.478.398.644.226 1.48-.383 1.856-.732.452-.43 1.262.89 2.393 1.436 1.23 1.82 2.41 1.37 4.204-.344 1.372-.24 2.48.233 2.463 1.23-.045 4.41-2.582 3.89-3.103-.24-.24.424-.437 1.477-.437 1.763 0 1.788.139.32 1.76-.876.969-2.358 2.004-3.294 2.3-.936.298-1.702 1.202-1.702 2.01 0 1.174.32 1.231 1.584.285.87-.652 2.083-1.77 2.693-2.484zm2.533-1.19c-.946-.599-1.021-1.066-.25-1.543 1.782-1.101 1.278-2.402-1.065-2.746-2.75-.405-3.242-1.871-1.45-4.323 1.209-1.652 1.636-1.73 3.05-.556.906.75 1.528 2.084 1.384 2.962-.44 2.68 1.13 4.39 2.777 3.023 1.108-.92 1.411-.849 1.411.33 0 .824-.761 2.117-1.692 2.872-1.15.932-1.451.971-.94.122.476-.794.16-1.25-.868-1.25-.89 0-1.34.45-1 1 .75 1.214.427 1.24-1.357.11zm-6.923-6.359c-.745-.908-.32-1.777 1.553-3.18 2.338-1.749 2.516-1.764 1.903-.167-.372.968-.676 1.975-.676 2.238 0 .262-.526.152-1.17-.246-.787-.486-.96-.178-.531.941.759 1.978.336 2.14-1.079.414zm-12.625 8.095c.404-.653.278-.885-.29-.534-.643.398-.912-1.826-.748-6.187.14-3.745-.181-7.442-.716-8.216-.705-1.022-.798-.79-.34.842.373 1.323.194 2.25-.434 2.25-.587 0-1.067 1.602-1.067 3.559 0 2.438.364 3.334 1.156 2.845.822-.509.98.162.549 2.322-.744 3.719.377 5.568 1.89 3.12zm44.112-10.083c-.239-1.244-.444-.462-.455 1.738-.01 2.2.185 3.218.435 2.262s.26-2.756.02-4zm-49.045-3.012c-.277-.688-.504-.125-.504 1.25s.227 1.938.504 1.25c.278-.688.278-1.813 0-2.5zM62.5 159c.34-.55.141-1-.441-1S61 158.45 61 159s.198 1 .441 1 .72-.45 1.059-1zm-25.05-4.015c5.296-.02 6.222-.722 7.095-5.374.401-2.137 1.612-4.768 2.69-5.847 1.95-1.949 1.947-1.957-.386-1.236-4.195 1.296-8.072 3.61-10.587 6.319-2.699 2.906-6.46 9.576-4.176 7.403.723-.688 3.136-1.257 5.364-1.265zm36.233-.173c-.32-.797-.556-.56-.604.605-.043 1.054.193 1.644.525 1.312.332-.332.368-1.195.08-1.917zm-3.301-.364c.373-.973.186-1.3-.5-.875-.713.44-.885.011-.492-1.228 1.103-3.474-9.291-12.844-11.641-10.494-1.18 1.18-.018 1.629 3.101 1.2.743-.101 1.098.224.79.724-.766 1.239 5.778 7.455 6.835 6.493.464-.423.561.02.216.982-.548 1.526.002 4.75.809 4.75.157 0 .554-.698.882-1.552zm-5.945-7.573c-2.056-2.188-2.307-2.743-.835-1.852 1.816 1.1 5.005 4.977 4.094 4.977-.177 0-1.644-1.406-3.259-3.125zm-33.977 6c-.43-1.358-.3-1.894.364-1.484.57.353 1.296.224 1.612-.287.315-.51-.216-.813-1.181-.67-.965.14-1.71.776-1.655 1.411.215 2.481.421 3.155.967 3.155.312 0 .264-.956-.107-2.125zm19.514-5.924c-.944-1.763-1.368-1.935-2.055-.836-.579.925-.377 1.492.607 1.708.81.178 1.474.816 1.474 1.417 0 .601.261.832.581.512.32-.32.046-1.58-.607-2.801zm-12.952-1.148c1.913-1.456 4.758-2.967 6.323-3.357 2.075-.518 2.481-.941 1.5-1.563-1.897-1.202-3.088-1.085-2.279.224.46.743-.006.888-1.416.44-1.592-.505-3.134.302-6.375 3.335-4.74 4.435-3.2 5.066 2.247.92zm-2.526.354c1.09-1.288 2.887-2.806 3.993-3.372 2.124-1.088 1.814-.752-2.982 3.23-2.887 2.397-2.923 2.402-1.011.142zM69 145.655c0-.19-1.012-1.202-2.25-2.25L64.5 141.5l1.905 2.25c1.79 2.114 2.595 2.705 2.595 1.905zm-27.476-7.465c-.485-.484-6.287 2.617-6.972 3.726-.316.512 1.199-.041 3.367-1.229 2.168-1.187 3.79-2.311 3.605-2.497zm14.958 2.84c.825-1.336-3.365-2.252-8.077-1.768-3.363.346-3.169.425 1.404.57 3.248.103 5.07.556 4.691 1.168-.34.55-.168 1 .382 1s1.27-.437 1.6-.97zm-9.753-3.634c-.332-.332-1.195-.368-1.916-.08-.798.32-.561.557.604.605 1.054.043 1.644-.193 1.312-.525zm8.54-.052c-.677-.274-2.027-.29-3-.037-.973.253-.419.478 1.231.498 1.65.02 2.446-.187 1.769-.461zM184.5 187.116c-8.03-2.109-15.25-7.906-19.153-15.38-2.634-5.044-2.334-17.218.561-22.826 4.466-8.65 11.513-13.685 20.44-14.607 11.791-1.216 20.755 2.625 26.873 11.518 2.768 4.023 3.212 5.604 3.588 12.76.25 4.764-.058 9.645-.74 11.71-1.68 5.09-8.72 12.63-13.842 14.826-5.114 2.192-13.423 3.129-17.727 1.999zm7.75-1.778c-.688-.278-1.813-.278-2.5 0-.688.277-.125.504 1.25.504s1.938-.227 1.25-.504zm10.309-2.893c1.83-1.467 1.798-1.487-.559-.365-3.061 1.458-3.628 1.92-2.358 1.92.537 0 1.85-.7 2.917-1.555zm-5.147-.05c.867-.332 1.328-1.007 1.024-1.498-.304-.492.474-.782 1.73-.645 1.408.153 2.29-.294 2.307-1.169.015-.779.652-1.625 1.416-1.88.843-.28 1.115-.018.691.667-1.212 1.961-.019 1.23 2.496-1.531 1.333-1.464 1.803-2.301 1.044-1.861-.95.55-1.222.367-.875-.589.278-.764.998-1.281 1.6-1.149 1.251.274 3.618-3.61 2.736-4.492-.32-.32-.588.056-.596.835-.013 1.167-.187 1.152-.985-.083-.862-1.333-.975-1.333-1.02 0-.073 2.105-4.729 7.585-5.657 6.657-.42-.421-.272-1.079.33-1.461.602-.383 2.05-2.271 3.217-4.196 2.525-4.164 2.91-13.602.725-17.8-3.19-6.13-12.715-11.767-18.341-10.854-6.478 1.052-12.121 4.572-14.883 9.284-2.415 4.122-2.703 4.31-4.041 2.654-1.308-1.62-1.337-1.572-.315.53.934 1.923 1.38 2.103 2.633 1.064.86-.714 3.561-1.143 6.283-.999l4.776.254 2.286-6.113c2.73-7.299 4.68-7.605 7.08-1.11 1.992 5.396 4.365 7.257 8.927 7.004 5.274-.292 6-.07 5.998 1.836 0 .988-1.985 3.003-4.558 4.628-2.696 1.704-4.35 3.413-4.053 4.188 1.467 3.823 2.627 9.602 2.099 10.457-1.014 1.64-3.457 1.101-6.897-1.523-4.132-3.152-5.129-3.115-10.286.382l-4.198 2.845 2.495 1.137c1.372.625 3.598 1.136 4.947 1.136 3.282 0 3.115 1.592-.297 2.838-2.425.886-2.08 1.013 2.918 1.083 3.118.043 6.378-.193 7.244-.526zm-4.162-1.057c-1.973-.796-1.457-2.338.782-2.338 1.118 0 3.705-.673 5.75-1.495 2.949-1.186 3.345-1.207 1.915-.101-1.355 1.047-1.48 1.528-.5 1.932.717.295.403.494-.697.442a36.11 36.11 0 0 0-4 .079c-1.67.145-1.753.333-.5 1.143 1.333.862 1.333.962 0 .906-.825-.035-2.063-.29-2.75-.568zm-8.796.041c1.164-.447.234-1.262-3.32-2.908-2.989-1.385-5.9-3.703-7.374-5.874-1.34-1.973-2.79-3.251-3.223-2.842-.432.41-.456-.324-.054-1.63.502-1.63.384-2.16-.376-1.691-.609.376-1.107.132-1.107-.542s-.251-.974-.559-.667c-1.077 1.078 2.469 7.949 3.708 7.183.803-.497.989-.21.57.88-.818 2.133 4.693 6.875 6.972 6 1.088-.417 1.397-.24.921.53-.482.781-.156.944 1 .5 1.164-.446 1.484-.282.993.512-.82 1.327-.459 1.435 1.85.55zm-10.049-5.629l-1.905-2.25 2.25 1.905c2.114 1.79 2.705 2.595 1.905 2.595-.19 0-1.202-1.012-2.25-2.25zm1.595 4.937c0-.172-1.462-1.635-3.25-3.25l-3.25-2.937 2.937 3.25c2.738 3.03 3.563 3.71 3.563 2.937zm32.563-2.937l2.937-3.25-3.25 2.937c-3.03 2.738-3.71 3.563-2.937 3.563.172 0 1.635-1.462 3.25-3.25zm-29.928-3.259c-.318-.83-.207-2.517.247-3.75 2.44-6.623 2.298-7.273-2.3-10.574-3.174-2.28-4.516-2.782-4.882-1.827-.976 2.544 1.28 10.768 3.895 14.196 2.804 3.676 3.994 4.441 3.04 1.955zm16.597-4.241c-3.1-4.478-3.673-5.64-2.387-4.845.674.416 1.155.098 1.155-.764 0-.813.273-2.19.607-3.06.404-1.052.05-1.581-1.059-1.581-.916 0-1.386.453-1.043 1.008.342.554-.085 1.715-.95 2.58-.866.865-1.31 2.1-.99 2.743.32.643-.054.393-.833-.557-1.263-1.537-1.624-1.564-3.324-.247-1.87 1.448-1.869 1.464.04.792 1.775-.624 1.735-.385-.438 2.667l-2.388 3.353 3.15-2.328 3.149-2.328 3.29 2.611c4.17 3.312 4.342 3.308 2.021-.044zm-28.147-2.355c-.527-1.317-.987-1.87-1.022-1.227-.084 1.56 1.08 4.522 1.582 4.02.219-.219-.033-1.475-.56-2.793zm16.679 1.043c.32-1.189.223-1.202-.567-.075-.806 1.151-1.04 1.151-1.497 0-.365-.917-.568-.763-.621.47-.09 2.098 2.098 1.775 2.685-.396zm14.22-.021c.009.779.243 1.19.52.912.8-.8-1.59-6.829-2.709-6.829-.555 0-.736.712-.402 1.582.334.87.614 2.557.622 3.75.013 1.766.195 1.89.985.668.798-1.235.972-1.25.985-.083zm16.678-4.167c-.277-.688-.504-.125-.504 1.25s.227 1.938.504 1.25c.278-.688.278-1.813 0-2.5zm-29.067.142c1.048-1.16 1.764-2.96 1.592-4-.212-1.282.536-2.217 2.315-2.893 3.293-1.252 3.772-1.251 2.998.001-.34.55.309 1 1.441 1 1.164 0 2.059.652 2.059 1.5 0 1.893 1.085 1.903 3.559.032 1.673-1.265 1.71-1.473.274-1.5-.916-.018-1.9.53-2.186 1.218-.286.688-.392.125-.235-1.25.21-1.845 1.045-2.666 3.186-3.132 2.39-.52 2.078-.652-1.768-.75l-4.67-.118-1.656-4.988c-.911-2.744-2.054-5.234-2.54-5.534-1.016-.628-3.983 8.57-3.197 9.91.286.487 1.018-.188 1.627-1.5 1.465-3.163 3.426-3.427 3.248-.438-.115 1.93-.41 2.16-1.565 1.214-1.17-.956-1.325-.78-.872.98.554 2.15-.518 2.542-2.894 1.057-.69-.431-1.606 0-2.183 1.028-.75 1.334-.514 2.285.956 3.854 1.566 1.673 1.652 2.084.434 2.084-.835 0-1.34-.178-1.124-.394.382-.383-4.117-5.273-4.851-5.273-1.119 0 .378 3.376 1.866 4.21 1.24.693 1.581 1.692 1.156 3.387-.744 2.965.507 3.087 3.03.295zm4.072-16.559c-.367-.366-.667-1.131-.667-1.7 0-.626.466-.567 1.183.15.651.651.951 1.416.667 1.7-.284.284-.817.217-1.183-.15zm22.955 11.917c.053-5.232-.023-5.443-.85-2.344-.758 2.836-.413 8.094.53 8.094.144 0 .289-2.587.32-5.75zm-46.915-1.488c-.239-1.244-.444-.462-.455 1.738-.01 2.2.185 3.218.435 2.262s.26-2.756.02-4zM170 160c0-.55-.198-1-.441-1s-.72.45-1.059 1c-.34.55-.141 1 .441 1s1.059-.45 1.059-1zm-.72-4.04c-.294-1.121-.757-1.816-1.03-1.543-.542.541.414 3.583 1.125 3.583.24 0 .198-.918-.096-2.04zm-2.597-2.148c-.32-.797-.556-.56-.604.605-.043 1.054.193 1.644.525 1.312.332-.332.368-1.195.08-1.917zm15.067 1.499c-.963-.252-2.538-.252-3.5 0-.963.251-.175.457 1.75.457s2.712-.206 1.75-.457zm28.377-5.605c-2.397-3.879-6.06-7.433-8.123-7.881-.823-.179-1.967-.922-2.543-1.651-1.456-1.847-14.08-2.986-12.958-1.17.61.988.24 1.162-1.5.707-2.625-.686-8.376 1.876-7.477 3.332.326.526.115 1.013-.467 1.082-.582.069-1.509.181-2.059.25-.55.069-1.032.575-1.071 1.125-.04.55-.724 1.365-1.521 1.811-.798.447-1.189 1.234-.87 1.75.319.517.077.939-.538.939s-.819.484-.453 1.076c.392.635 1.601-.301 2.947-2.282 1.255-1.847 3.88-4.219 5.833-5.27 1.953-1.052 3.377-2.194 3.165-2.537-.212-.343 3.392-.623 8.008-.623s8.206.302 7.978.672c-.447.722 4.528 3.428 5.772 3.139.412-.096.75.474.75 1.268s.84 2.032 1.866 2.75c1.026.719 1.918 1.647 1.982 2.061.064.415.412 1.935.774 3.376.559 2.225.798 2.372 1.583.969.65-1.16.328-2.618-1.078-4.893zm1.873-2.084c0-.207-.787-.995-1.75-1.75-1.586-1.243-1.621-1.208-.378.378 1.307 1.666 2.128 2.195 2.128 1.372zm-38.872-4.372c1.243-1.586 1.208-1.621-.378-.378-.963.755-1.75 1.543-1.75 1.75 0 .823.821.294 2.128-1.372zm28.43-4.782c-1.067-.807-2.642-1.448-3.5-1.423-.857.025-.208.663 1.442 1.419 3.923 1.796 4.43 1.797 2.059.004zM182 138c.825-.533 1.05-.97.5-.97s-1.675.437-2.5.97c-.825.533-1.05.97-.5.97s1.675-.437 2.5-.97zm6.25-1.662c-.688-.278-1.813-.278-2.5 0-.688.277-.125.504 1.25.504s1.938-.227 1.25-.504zm7.48.058c-.333-.332-1.196-.368-1.917-.08-.798.32-.561.557.604.605 1.054.043 1.644-.193 1.312-.525zm-83.736-25.33c-4.816-1.465-8.672-3.967-12.296-7.979-8.56-9.475-9.8-21.485-3.335-32.304 5.74-9.605 15.569-13.897 28.212-12.317 14.574 1.821 26.116 18.732 22.075 32.342-2.91 9.798-7.532 15.443-15.65 19.113-4.651 2.103-14.004 2.666-19.006 1.145zm6.256-1.728c-.688-.278-1.813-.278-2.5 0-.688.277-.125.504 1.25.504s1.938-.227 1.25-.504zm6.5-.027c-.963-.252-2.538-.252-3.5 0-.963.251-.175.457 1.75.457s2.712-.206 1.75-.457zm1.662-1.916c1.63-.625 1.237-2.395-.53-2.395-.55 0-.758.39-.463.869.295.477-1.932.89-4.95.918-3.088.027-5.238-.352-4.918-.869.312-.505-.108-.918-.933-.918-2.234 0-2.912 1.778-.88 2.308 2.712.708 10.91.764 12.674.087zM106 105.696c0-.167-1.688-1.854-3.75-3.75L98.5 98.5l3.446 3.75c3.208 3.49 4.054 4.21 4.054 3.446zm4.31-2.366c-1.686-1.377-1.638-1.433.69-.82 8.992 2.364 16.744 1.485 21.38-2.425 2.628-2.216 6.159-8.019 7.05-11.585l.749-3 1.33 3c1.294 2.922 1.33 2.845 1.38-3 .038-4.536-.198-5.573-.97-4.25-1.42 2.438-2.914 2.184-2.944-.5-.044-4.008-6.359-11.35-11.428-13.285-2.525-.965-4.846-1.499-5.158-1.188-.31.312.277 2.964 1.307 5.895l1.872 5.328 6.216.298c7.648.366 8.039 1.798 1.755 6.42-2.454 1.805-4.479 3.835-4.5 4.512-.021.676.684 3.038 1.569 5.248 2.925 7.312.328 8.932-6.45 4.022-2.277-1.65-4.417-3-4.755-3-.339 0-2.255 1.29-4.26 2.866-4.11 3.234-8.906 5.178-7.614 3.087.494-.8.375-1.012-.324-.58-.612.378-2.09-.65-3.314-2.306-1.215-1.644-2.618-2.736-3.117-2.427-.5.308-.824-.047-.722-.79.102-.742.125-2.25.051-3.35-.11-1.637-.303-1.732-1.065-.526-.513.81-.619 1.71-.235 2 .383.29.697 1.201.697 2.026 0 .825.618 1.37 1.373 1.21.854-.182 1.157.269.803 1.192-.655 1.708 5.901 7.977 7.384 7.061.517-.32.94-.078.94.537s.477.823 1.06.463c.673-.416.399-1.195-.75-2.133zm-6.386-3.08L101.5 97.5l2.75 2.424c2.57 2.266 3.209 3.076 2.424 3.076-.179 0-1.416-1.238-2.75-2.75zm27.382 5.11c1.065-1.064-.27-2.311-1.832-1.712-.805.31-1.214.964-.91 1.457.649 1.049 1.838 1.16 2.742.256zm4.822-1.11c1.243-1.586 1.208-1.621-.378-.378-1.666 1.307-2.195 2.128-1.372 2.128.207 0 .995-.787 1.75-1.75zm3.946-7.87c1.094-1.77 1.667-3.89 1.306-4.831-.497-1.295-1.039-.808-2.38 2.137-.955 2.098-2.907 4.892-4.337 6.21-1.43 1.317-2.343 2.813-2.027 3.325.715 1.157 4.84-2.637 7.438-6.841zM135 100.622c0-.207.787-.995 1.75-1.75 1.586-1.243 1.621-1.208.378.378-1.307 1.666-2.128 2.195-2.128 1.372zm5.128-.372c1.243-1.586 1.208-1.621-.378-.378-1.666 1.307-2.195 2.128-1.372 2.128.207 0 .995-.787 1.75-1.75zm-30.703-9.834c.596-2.782.264-3.36-3.382-5.886-2.224-1.541-4.043-3.618-4.043-4.616 0-1.507.973-1.865 5.746-2.114l5.745-.3 2.187-5.5c1.935-4.869 2.605-5.6 5.83-6.367 4.674-1.113 10.53 1.376 14.461 6.146 1.541 1.87 3.082 2.948 3.423 2.395 1.52-2.459-9.004-11.15-11.576-9.56-.663.41-.848.247-.451-.395.91-1.474-7.257-2.65-12.096-1.742-3.427.643-3.589.816-1.91 2.043 1.698 1.242 1.53 1.496-2.276 3.438-2.26 1.153-5.454 3.952-7.096 6.22-4.122 5.689-4.244 14-.305 20.722l2.681 4.576 1.2-2.988c.661-1.643 1.499-4.376 1.862-6.072zm25.5-21.166L132.5 66.5l2.75 2.424c2.57 2.266 3.209 3.076 2.424 3.076-.179 0-1.416-1.238-2.75-2.75zm-16.656-4.943c.973-.254 2.323-.237 3 .037.677.274-.119.481-1.769.461-1.65-.02-2.204-.244-1.231-.498zm-7.475 31.05c-.291-1.376-.543-1.124-.97.969-.372 1.825-.232 2.482.394 1.856.533-.533.793-1.805.576-2.826zm-12.449 1.1c-.326-.849-.807-1.329-1.069-1.067-.262.262-.18.957.183 1.543.986 1.596 1.562 1.286.886-.476zm30.317-1.707c-.277-.688-.504-.125-.504 1.25s.227 1.938.504 1.25c.278-.688.278-1.813 0-2.5zm-10.334-3.016c-.256-.422-.885-.508-1.397-.191-.512.316-.931.098-.931-.484 0-1.857 1.826-1.15 5.661 2.191 2.052 1.788 3.372 2.657 2.934 1.933-.527-.872-.156-1.485 1.096-1.813 1.491-.39 1.81-1.205 1.502-3.844-.312-2.672.06-3.591 1.843-4.545 2.827-1.513 1-2.943-3.786-2.966-3.358-.016-4.258 1.577-2.105 3.73 1.578 1.578-3.673 2.892-5.5 1.375-.731-.606-1.561-.87-1.845-.587-.283.283-1.12-.283-1.86-1.259-1.116-1.473-1.116-1.573-.002-.585 1.055.936 1.683.771 2.952-.775 1.07-1.307 3.78-2.31 8.085-2.997 7.961-1.27 9.247-2.192 2.525-1.81-4.237.241-4.955.026-4.706-1.411.161-.933-.176-1.696-.75-1.696-.574 0-1.047.563-1.05 1.25-.005.688-.952-.1-2.106-1.75s-1.84-2.212-1.525-1.25c.316.963.248 1.75-.15 1.75-.399 0-1.322 1.35-2.053 3-.73 1.65-2.077 3.007-2.994 3.015-3.855.036-4.378 1.654-1.188 3.674 2.747 1.74 2.938 2.136 1.574 3.268-.854.708-1.552 1.908-1.552 2.665 0 1.719 1.989 1.844 2.03.128.017-.69.49-.463 1.055.508.563.967.7 2.281.305 2.92-.396.64.433.3 1.842-.757 1.41-1.057 2.352-2.266 2.096-2.687zm-.997-11.946c.143-1.492.577-3.03.965-3.417.97-.971.757 1.695-.33 4.129-.772 1.724-.86 1.626-.635-.712zM119.5 80c.34-.55.816-1 1.059-1s.441.45.441 1-.477 1-1.059 1-.78-.45-.441-1zm-21.392 2.086c-.82-2.231-.952-1.9-.966 2.414-.013 4.206.138 4.616.95 2.586.613-1.533.619-3.358.016-5zm-3.446 1.664c-.277-.688-.504-.125-.504 1.25s.227 1.938.504 1.25c.278-.688.278-1.813 0-2.5zm46.577-4.22c.26-1.358.087-2.232-.383-1.94-.829.511-1.246 4.41-.473 4.41.211 0 .596-1.111.856-2.47zm3.444.282c-.32-.797-.556-.56-.604.605-.043 1.054.193 1.644.525 1.312.332-.332.368-1.195.08-1.916zM112.5 80c.368-.596-.719-.96-2.691-.9-3.111.093-3.16.147-.809.9 1.375.44 2.586.845 2.691.9.105.055.47-.35.809-.9zm-11.321-6.914c-.295-.803-.076-1.14.506-.78.563.347 2.102-.536 3.42-1.964 1.317-1.428 3.68-3.149 5.249-3.823 2.224-.955 2.5-1.361 1.25-1.84-.882-.34-1.604-.154-1.604.411 0 .566-.45.75-1 .41s-1-.115-1 .5-.401.87-.891.567c-1.515-.936-8.145 7.176-7.416 9.075.437 1.138.267 1.451-.523.963-1.338-.827-1.436-.462-.518 1.93.533 1.39.87 1.178 1.849-1.168.658-1.577.963-3.503.678-4.281zM104 69.5c1.292-1.375 2.574-2.5 2.849-2.5.275 0-.557 1.125-1.849 2.5-1.292 1.375-2.574 2.5-2.849 2.5-.275 0 .557-1.125 1.849-2.5zm-5.214 3.25c1.18-2.063 1.93-3.75 1.666-3.75-.669 0-4.444 6.294-4.448 7.417-.005 1.14.137.953 2.782-3.667zm21.454-2.102c.637.394.777.188.345-.51-.85-1.377-2.62-.55-2.506 1.171.056.852.223.834.585-.065.279-.691.988-.96 1.576-.596zm19.76-.974c0-.179-1.238-1.416-2.75-2.75L134.5 64.5l2.424 2.75c2.266 2.57 3.076 3.209 3.076 2.424zM104.5 66c.995-1.1 1.585-2 1.31-2-.275 0-1.315.9-2.31 2-.995 1.1-1.585 2-1.31 2 .275 0 1.315-.9 2.31-2zm28.059-2.532c-1.068-.807-2.418-1.452-3-1.433-.583.02.066.679 1.441 1.465 3.24 1.852 4.028 1.836 1.559-.032zm-9.791-3.183c-1.503-.228-4.203-.232-6-.01-1.797.223-.568.41 2.732.415 3.3.006 4.77-.176 3.268-.405zM115 36.802c0-1.286 1.123-3.99 2.495-6.01l2.495-3.672-3.745-.31c-3.007-.249-3.808-.753-4.065-2.56-.308-2.174-.046-2.25 7.75-2.25 8.93 0 9.682.68 5.965 5.406-1.158 1.472-3.104 4.57-4.325 6.885-2.597 4.924-6.57 6.442-6.57 2.51zM124.5 25c.34-.55-.11-1-1-1s-1.34.45-1 1c.34.55.79 1 1 1 .21 0 .66-.45 1-1zm108.529 290.943c-.032-17.767-.276-32.523-.543-32.79-.267-.268-.486 14.514-.486 32.847 0 18.333.244 33.09.543 32.79.298-.298.517-15.08.486-32.847zM231.11 100.5l-.862-84 .125 88c.07 48.4.351 97.225.626 108.5l.5 20.5.236-24.5c.13-13.475-.151-62.3-.625-108.5zM230 8.5c0-.825-.436-1.5-.969-1.5-.532 0-.71.675-.393 1.5.317.825.753 1.5.969 1.5.216 0 .393-.675.393-1.5zm-47.75-1.25c-12.787-.157-33.712-.157-46.5 0-12.787.16-2.325.289 23.25.289s36.038-.13 23.25-.288zM244.232 273c0-1.925.206-2.712.457-1.75.252.963.252 2.538 0 3.5-.251.963-.457.175-.457-1.75zm.254-138c0-73.975.119-104.237.264-67.25.145 36.987.145 97.513 0 134.5-.145 36.987-.264 6.725-.264-67.25z"/></svg>