<svg xmlns="http://www.w3.org/2000/svg" width="246" height="420" viewBox="0 0 246 420"><path d="M55.269 418.307c.973-.254 2.323-.237 3 .037.677.274-.119.481-1.769.461-1.65-.02-2.204-.244-1.231-.498zm7.459-.029c1.775-.22 4.925-.224 7-.008 2.074.217.622.398-3.228.402-3.85.004-5.548-.173-3.772-.394zm19.522-.017c3.163-.198 8.338-.198 11.5 0 3.163.198.575.36-5.75.36s-8.912-.162-5.75-.36zm54.074-.01c20.253-.152 53.103-.152 73 0 19.897.15 3.326.275-36.824.275s-56.43-.124-36.176-.276zm-123.488-9.045c-4.312-.19-7.09-.807-7.872-1.75-.937-1.128-1.172-45.96-1.045-199.482.09-108.915.405-198.655.7-199.423.295-.768 1.063-1.544 1.708-1.724.645-.18 52.132-.205 114.415-.056l113.242.27.132 198.23c.155 231.517.232 202.715-.543 203.49-.614.613-207.447 1.031-220.737.445zm219.085-3.956c-.047-1.045-.282-1.247-.583-.5-.4.99-23.562 1.247-111.171 1.235-60.867-.009-111.218-.366-111.892-.794-.867-.55-1.313-5.728-1.526-17.734l-.3-16.957-.225 17.583c-.123 9.671.076 17.884.443 18.25.366.367 51.216.667 113 .667 106.347 0 112.329-.093 112.254-1.75zM229 211.125c0-106.081-.281-194.281-.625-196L227.75 12H9.085l-.23 169.75c-.265 196.274-.1 220.445 1.508 221.485.625.404 50.075.741 109.887.75L229 404zM121 369.008c2.475-.473 6.361-.893 8.636-.934 2.274-.04 5.424-.746 7-1.568 3.335-1.74 1.786-2.01-2.32-.406-1.55.605-9.116 1.14-16.816 1.188-10.604.066-12.423.243-7.5.727l6.5.64-7.5.158c-4.355.091-8.548-.37-10-1.1-5.642-2.841-2.637-11.412 6.913-19.718 7.815-6.798 9.087-10.452 9.087-26.109v-11.758l-4.25-4.679c-2.337-2.573-5.294-5.078-6.57-5.566-1.648-.63-2.226-1.537-2-3.135.314-2.203.623-2.254 15.345-2.523 11.543-.211 15.462.045 16.912 1.106 2.482 1.814 1.373 4.669-1.813 4.669-1.693 0-3.688 1.493-6.53 4.889L122 309.778v13.15c0 15.432 1.094 18.562 8.645 24.736 6.85 5.6 10.355 10.85 10.355 15.51 0 4.905-1.323 5.465-14.572 6.167-7.054.374-8.625.278-5.428-.333zm10-3.685c2.343-.517 2.374-.603.5-1.367-1.568-.64-1.19-.83 1.75-.886 3.647-.068 4.863-1.264 2.666-2.622-.596-.369-6.334-.796-12.75-.95-6.416-.155-11.891-.371-12.166-.482-1.663-.67-9.618.36-10.232 1.325-1.134 1.783-.91 2.659.682 2.659.798 0 1.817.654 2.264 1.454 1.165 2.081 19.2 2.656 27.286.87zm-19.75-1.058c2.612-.206 6.888-.206 9.5 0s.475.375-4.75.375-7.362-.169-4.75-.375zm-.46-2.006c3.458-.196 8.858-.195 12 .004 3.14.197.31.358-6.29.356-6.6-.002-9.17-.164-5.71-.36zm-8.79 3.358c0-.211-.9-.62-2.001-.907-1.101-.288-1.75-.115-1.441.383.538.871 3.442 1.313 3.442.524zm35-8.117c-1.288-1.37-2.52-2.314-2.737-2.097-.496.497 4.084 5.309 4.658 4.894.231-.168-.633-1.426-1.921-2.797zm-12-.49c0-.42-.615-1.276-1.367-1.9-1.04-.863-1.668-.773-2.623.378-1.595 1.921-3.422 1.926-5.01.012-1.591-1.917-2.632-1.901-3.382.052-.341.89-.173 1.291.393.94.544-.335.99-.246.99.199s2.474.871 5.5.947c3.024.076 5.499-.207 5.499-.628zm7.917-1.727c.229-.156-.286-.283-1.143-.283-.858 0-1.843.739-2.19 1.641-.548 1.43-.4 1.466 1.143.283a89.913 89.913 0 0 1 2.19-1.641zm-25.188 1.113c-.332-.332-1.195-.368-1.916-.08-.798.32-.561.557.604.605 1.054.043 1.644-.193 1.312-.525zm3.797-3.203c-.307-.308-1.114 0-1.793.683-.98.988-.865 1.102.56.56.986-.376 1.541-.935 1.233-1.243zm9.028-.748c1.008-1.6.9-2.464-.606-4.87l-1.832-2.924-1.185 2.6c-1.332 2.925-.459 8.092 1.27 7.515.62-.206 1.68-1.25 2.353-2.32zm7.446 2.162c0-.216-.698-.661-1.552-.989-.89-.341-1.291-.173-.94.393.586.95 2.492 1.406 2.492.596zm-20.229-2.126c1.908-.61 2.068-.97 1-2.258-1.061-1.28-.734-1.255 1.979.148 2.8 1.448 3.25 1.474 3.25.186 0-.991-.59-1.287-1.75-.878-1.46.513-1.534.384-.45-.782.715-.768 1.773-1.397 2.351-1.397.579 0 2.092-1.945 3.363-4.322 1.705-3.188 2.408-3.843 2.678-2.5.951 4.724 1.268-2.36.77-17.178l-.54-16-.29 14.5c-.16 7.975-.517 13.938-.794 13.25-1.105-2.737-2.492-1.065-2.074 2.5.241 2.063.25 2.962.018 2-.626-2.602-1.884-2.126-3.278 1.24-.68 1.643-2.986 4.568-5.124 6.5-2.137 1.93-3.574 3.51-3.192 3.51.382 0-.18.647-1.247 1.437-1.993 1.475-1.188 1.486 3.33.044zm3.408-6.231c1.404-1.512 3.007-3.606 3.562-4.652.905-1.706 1.009-1.63 1.009.731 0 1.45-.345 2.422-.766 2.161-.42-.26-1.5.648-2.398 2.019-.898 1.37-2.156 2.491-2.796 2.491-.64 0-.015-1.238 1.39-2.75zm20.948 6c-.519-.963-2.219-2.875-3.778-4.25-1.925-1.697-2.274-1.832-1.09-.419.96 1.145 1.444 2.382 1.077 2.75-.98.979-2.546.818-1.919-.197.644-1.042-2.92-4.444-4.97-4.745-.801-.117-1.198.204-.883.715.316.51.933.707 1.371.436.439-.271 1.603.397 2.586 1.484 1.871 2.067.725 2.822-1.265.832-.859-.859-1.005-.612-.586.989.306 1.173.947 1.892 1.423 1.598.476-.295 1.781-.045 2.9.554 1.12.599 1.917.732 1.771.296-.145-.436.186-.793.736-.793s.938.563.861 1.25c-.076.688.502 1.25 1.285 1.25 1.05 0 1.176-.461.481-1.75zm-8.222-9c-.736-.963-1.41-1.882-1.498-2.043-.088-.161-.435.425-.772 1.302s-.198 1.34.307 1.027c.506-.313 1.202-.111 1.548.448.345.559.882 1.016 1.191 1.016.31 0-.039-.788-.776-1.75zm-7.164-29.46c-.195-3.46-.357-.89-.36 5.71-.001 6.6.159 9.43.357 6.29.198-3.142.2-8.542.004-12zm2.001-1.498c-.192-3.736-.352-.942-.353 6.208-.002 7.15.156 10.206.35 6.792.195-3.415.196-9.265.003-13zm1.704-8.337c1.477 1.226 2.11.955 5.348-2.282 3.37-3.371 3.49-3.673 1.44-3.673-1.229 0-2.234-.422-2.234-.937 0-.52 1.627-.673 3.655-.344 2.629.426 3.455.268 2.941-.563-.48-.777-4.912-1.156-13.533-1.156-10.172 0-13.075.31-14.062 1.5-1.077 1.296-.789 1.42 2.127.913 1.855-.322 3.934-.758 4.622-.968.687-.21 1.25.054 1.25.586 0 .533-1.238 1-2.75 1.04-2.437.062-2.522.167-.75.929 1.1.473 1.55.893 1 .935-.55.041.566 1.57 2.48 3.397 3.46 3.303 3.49 3.31 5.135 1.277 1.44-1.777 1.875-1.863 3.331-.654zm-6.005-1.249c-.351-.915-1.308-1.362-2.274-1.061-1.289.4-1.22.155.303-1.085 1.838-1.495 2.024-1.457 2.772.564.44 1.192.577 2.39.303 2.664-.274.274-.77-.213-1.104-1.082zm2.195-1.212c-.564-1.47-.114-1.744 2.864-1.744 2.83 0 3.5.252 3.5 1.313 0 .584-.787.933-1.75.775-.963-.159-2.265.036-2.895.431-.63.396-1.403.048-1.719-.775zM34.5 287.331c-3.719-.618-6.5-3.014-6.5-5.6 0-3.599 5.289-11.735 10.549-16.229C45.475 259.585 47 254.941 47 239.767V228.41l-4.75-5.102c-2.612-2.806-5.65-5.267-6.75-5.468-2.595-.477-2.802-5.158-.25-5.65 1.09-.21 1.75.28 1.75 1.296 0 1.015-.472 1.365-1.25.926-1-.564-1-.436 0 .641.972 1.048 1.517 1.08 2.45.147.66-.66 3.248-1.27 5.75-1.357l4.55-.157-5-.645c-8.527-1.1-2.582-2.3 9.368-1.89 10.887.372 14.132 1.4 14.132 4.471 0 .758-.787 1.394-1.75 1.413-2.914.06-5.966 2.261-8.677 6.26-2.456 3.622-2.573 4.42-2.573 17.596 0 15.963.61 17.848 7.805 24.143C69.529 271.791 73 276.755 73 281.043c0 3.33-.372 3.899-3.25 4.962-3.323 1.227-29.836 2.224-35.25 1.326zm4.75-1.993c-.688-.278-1.813-.278-2.5 0-.688.277-.125.504 1.25.504s1.938-.227 1.25-.504zm24.019.006c-.677-.274-2.027-.29-3-.037-.973.253-.419.477 1.231.498 1.65.02 2.446-.187 1.769-.461zm5.233-.984c2.287-.877-.028-2.324-3.752-2.345-3.304-.018-3.674 1.668-.5 2.279 1.237.238 2.326.495 2.418.57.093.074.918-.152 1.834-.504zM38.5 283c-2.752-1.183-3.731-1.183-3 0 .34.55 1.604.968 2.809.93 2.112-.068 2.12-.101.191-.93zm17 0c1.772-.762 1.687-.867-.75-.93-1.513-.038-2.75.38-2.75.93 0 1.174.769 1.174 3.5 0zm-24.838-3.25c-.277-.688-.504-.125-.504 1.25s.227 1.938.504 1.25c.278-.688.278-1.813 0-2.5zm38.323.25c-.064-2.083-3.141-2.5-18.465-2.5-14.297 0-17.027.237-17.276 1.5-.253 1.289 2.244 1.5 17.731 1.5 9.914 0 18.018-.225 18.01-.5zm-2.5-7.235c-6.402-6.999-6.916-7.511-6.137-6.12.352.63.03 1.38-.717 1.666-.9.346-1.319-.205-1.244-1.64.062-1.188-.45-2.219-1.137-2.29-.687-.072-1.362-.222-1.5-.333-.137-.11-1.02-.35-1.961-.53-1.58-.305-1.591-.146-.135 2.076 1.858 2.837 2.527 3.1 1.667.656-.513-1.46-.384-1.534.782-.45.768.715 1.399 1.84 1.401 2.5.002.66.99 1.214 2.197 1.23 1.206.017 2.554.426 2.996.91.442.485.306.597-.303.25-.719-.41-.946.201-.65 1.748.324 1.7-.073 2.528-1.395 2.905-1.211.345-.987.463.651.342 1.375-.102 3.1-.86 3.832-1.685 1.17-1.318 1.267-1.294.8.2-.362 1.16-.09 1.53.858 1.165.764-.293 1.961.385 2.661 1.506.7 1.12 1.47 1.84 1.712 1.599.242-.242-1.728-2.809-4.377-5.705zM35.438 273.9c-.297-.48 1.28-1.602 3.505-2.493 2.225-.89 3.834-1.96 3.575-2.378-.6-.972 2.946-4.231 3.74-3.437.906.905 3.426-4.817 3.124-7.091-.239-1.792-.21-1.803.278-.105.445 1.55.723 1.642 1.529.5.753-1.066.882-.912.545.655-.344 1.598.064 2.05 1.848 2.05 1.26 0 2.063-.367 1.785-.816-.277-.45-.86-.597-1.293-.33-.434.269-.876-5.686-.982-13.233-.107-7.564-.62-13.87-1.142-14.054-.522-.184-.942-1.084-.934-2 .014-1.442.147-1.464.985-.167.711 1.1.955.434.914-2.5-.041-3.043-.247-3.522-.86-2-.751 1.867-.837 1.833-1.293-.5-.269-1.375-.467 3.35-.441 10.5.043 11.902.104 12.325.72 5 .648-7.706.67-7.586.591 3.25-.045 6.188-.43 11.25-.856 11.25s-.842-1.238-.925-2.75l-.15-2.75-.418 2.767c-.253 1.674-.849 2.5-1.508 2.094-.712-.44-.894.073-.525 1.483.326 1.249.098 2.156-.543 2.156-.756 0-.727.38.094 1.2 1.685 1.685 1.503 3.297-.211 1.874-1.08-.897-1.585-.89-2.154.032-.499.806-.32.941.54.41.836-.517 1.133-.34.85.507-.238.716-1.245 1.421-2.237 1.567-2.857.42-6.875 4.61-5.349 5.58.94.595.859.803-.315.815-.866.008-2.605 1.111-3.864 2.451-2.234 2.378-2.238 2.423-.186 1.887 1.157-.303 1.86-.944 1.563-1.424zm4.133-4.786c-.556-.9.713-2.208 3.43-3.533.825-.403.507.146-.707 1.22-1.215 1.073-1.927 2.233-1.584 2.576.343.343.35.624.017.624-.335 0-.855-.399-1.156-.887zm8.94 4.716c-2.44-1.92-4.51-1.758-4.51.352 0 .664.573.589 1.523-.2 1.245-1.034 1.426-1.01.99.128-.361.942.277 1.438 1.977 1.535l2.51.144zm7.92 1.284c.301-.487-.062-1.393-.808-2.012-1.022-.848-1.646-.777-2.531.29-.907 1.092-.88 1.533.117 1.933 1.983.795 2.626.753 3.222-.21zM39 274.56c0-.243-.45-.72-1-1.059-.55-.34-1-.141-1 .441S37.45 275 38 275s1-.198 1-.441zm4.526-3.366c-.307-.308-1.114 0-1.793.683-.98.988-.865 1.102.56.56.986-.376 1.541-.935 1.233-1.243zm9.439-2.065c-.02-.896-.639-2.716-1.375-4.046-1.338-2.414-1.342-2.415-2.465-.316-1.453 2.715-1.432 5.527.051 7.01 1.456 1.456 3.842-.212 3.789-2.648zM60 272.607c0-.216-.698-.661-1.552-.989-.89-.341-1.291-.173-.94.393.586.95 2.492 1.406 2.492.596zm-14.317-4.795c-.32-.797-.556-.56-.604.605-.043 1.054.193 1.644.525 1.312.332-.332.368-1.195.08-1.916zm3.058-36.023c-.195-3.459-.357-.889-.36 5.711-.001 6.6.159 9.43.357 6.29.198-3.142.2-8.542.003-12zm2.897-9.674c1.486 1.232 3.362.358 3.362-1.568 0-1.052-.895-1.133-4.231-.384-2.781.625-4.345.608-4.565-.05-.183-.55-.934-.77-1.667-.489-.734.282-1.67-.029-2.078-.69-.537-.869.114-1.077 2.346-.75 1.7.25 2.844.056 2.543-.43-.3-.486-1.74-.807-3.197-.713-1.458.094-3.101.037-3.651-.126-.55-.164 3.275-.576 8.5-.915l9.5-.617-9.75-.192c-5.362-.105-9.75.128-9.75.517 0 .39 1.644 2.391 3.653 4.45 3.346 3.426 3.824 3.621 5.682 2.32 1.452-1.017 2.391-1.12 3.303-.363zM58.5 218c.36-.581-.559-.97-2.191-.93-2.47.062-2.568.174-.809.93 1.1.473 2.086.891 2.191.93.105.038.47-.38.809-.93zm3.75-2.662c-.688-.278-1.813-.278-2.5 0-.688.277-.125.504 1.25.504s1.938-.227 1.25-.504zm-8.981-1.994c-.677-.274-2.027-.29-3-.037-.973.254-.419.478 1.231.498 1.65.02 2.446-.187 1.769-.461zm8.493-.031c-.956-.25-2.756-.26-4-.02-1.244.239-.462.444 1.738.455 2.2.01 3.218-.185 2.262-.435zm108.738 74.01c-3.551-.58-6.5-2.976-6.5-5.282 0-3.81 5.262-12.026 10.032-15.663 7.36-5.613 8.409-8.49 8.795-24.103l.327-13.225-4.316-5.01c-2.374-2.756-5.558-5.444-7.077-5.973-3.64-1.27-3.773-4.775-.214-5.668 1.4-.352 2.843-.342 3.206.02.363.363-.352.925-1.588 1.248-2.623.686-2.36 2.679.418 3.177 1.054.189 3.66 1.989 5.792 4 2.496 2.355 4.038 3.211 4.333 2.406.558-1.522 3.502-1.64 4.943-.199.735.735 1.505.36 2.56-1.25 1.47-2.244 1.424-2.301-1.852-2.301-1.847 0-3.359.394-3.359.875 0 1.121-5.885-.035-7.655-1.503-2.412-2.003-1.43-2.87 3.405-3.004 4.64-.128 4.669-.148 1.25-.868-2.857-.601-2.306-.74 3-.75 4.925-.01 5.773.172 3.5.75-2.798.712-2.71.771 1.309.882 3.16.086 4.109.451 3.558 1.368-.554.922-.326.906.867-.06.89-.722 2.392-1.172 3.338-1 .946.17 1.9-.199 2.118-.82.547-1.558-4.615-2.377-15.51-2.462-6.2-.048-8.984-.417-8.543-1.13 1.068-1.728 24.245-.324 26.153 1.583 1.983 1.983.36 4.16-3.711 4.973-1.965.393-3.858 2.03-5.978 5.17-3.066 4.544-3.101 4.74-3.101 17.358 0 15.088 1.228 18.626 8.546 24.622C205.288 271.01 209 276.528 209 281.028c0 5.992-1.176 6.392-19.37 6.6-8.871.101-17.48-.036-19.13-.306zm17.75-.985c-.688-.278-1.813-.278-2.5 0-.688.277-.125.504 1.25.504s1.938-.227 1.25-.504zm14.036-2.322c.468-1.793.067-2.005-3.63-1.916-3.56.085-3.798.214-1.656.9 1.375.44 1.851.846 1.059.9-1.059.074-.929.475.489 1.511 2.255 1.65 3.016 1.365 3.738-1.395zm-27.557 1.38c-.332-.332-1.195-.368-1.917-.08-.797.32-.56.557.605.605 1.054.043 1.644-.193 1.312-.525zm-7.45-3.436c-.293-1.121-.756-1.816-1.03-1.543-.54.541.415 3.583 1.126 3.583.24 0 .198-.918-.096-2.04zM175 283c0-.55-.927-1-2.059-1-1.132 0-1.78.45-1.441 1 .34.55 1.266 1 2.059 1 .793 0 1.441-.45 1.441-1zm30-3.88c0-1.045-1.097-1.256-4.516-.871-2.483.28-4.774.091-5.089-.419-.337-.544-1.052-.56-1.734-.04-.639.489-4.124.623-7.745.299-11.44-1.023-16.347-.755-16.672.91-.252 1.29 2.246 1.5 17.732 1.5 14.659 0 18.024-.257 18.024-1.38zm-21-4.453c0-.734-.296-1.63-.658-1.992-.904-.904-3.453 1.337-2.772 2.438.852 1.38 3.43 1.043 3.43-.446zm9 .142c0-1.332-2.1-1.972-3.294-1.003-.663.538-2.106 1.199-3.206 1.468-1.1.27-.088.43 2.25.358 2.336-.073 4.249-.443 4.25-.823zm10.457.26c.317-.512.049-1.256-.595-1.654-.731-.452-.903-.29-.457.43.416.674.098 1.155-.763 1.155-.811 0-1.625-.406-1.809-.901-.183-.496-.913-.271-1.622.5-1.083 1.176-.812 1.401 1.69 1.401 1.64 0 3.24-.419 3.556-.93zM174.081 272c1.09 0 2.23-.647 2.533-1.437.308-.802 1.287-1.202 2.219-.906.997.318 1.252.192.634-.313-1.085-.886-1.4-3.526-.37-3.094.327.138 1.424-.425 2.437-1.25 1.689-1.376 1.784-1.335 1.15.5-.678 1.97-.666 1.97.814.059.826-1.068 1.502-2.38 1.502-2.917 0-.536.266-.709.592-.384.325.326.02 2.171-.677 4.101-1.032 2.855-1.027 3.801.03 5.075 1.796 2.164 2.972 1.96 3.96-.684.558-1.496.38-2.91-.533-4.223-2.162-3.108-1.666-5.101.595-2.388 1.081 1.299 1.981 1.954 2 1.456.018-.498.922-.1 2.01.884 1.086.983 1.767 2.126 1.512 2.539-.592.957 5.36 3.466 6.21 2.617.349-.35-.228-.642-1.282-.65-1.361-.011-1.548-.25-.643-.824.96-.61.718-1.282-.983-2.735-1.797-1.534-1.98-1.57-.901-.176 2.18 2.816-.267 2.01-3.203-1.055-2.7-2.819-3.615-4.886-1.613-3.65.59.366.493-.265-.216-1.4-.861-1.38-1.523-1.687-1.994-.925-.388.627-.755-6.905-.816-16.738-.061-9.834-.322-18.09-.58-18.347-.257-.258-.468 6.132-.468 14.198 0 13.064-.748 17.357-2.338 13.417-.277-.687-.54-.264-.583.941-.043 1.205-.56 2.488-1.147 2.851-.588.363-.818 1.313-.512 2.111.311.81.12 1.181-.431.84-.544-.336-.989-.169-.989.371s-1.07 2.255-2.379 3.81c-1.308 1.554-2.399 3.265-2.425 3.801-.025.536-.592 1.157-1.26 1.38-.798.266-.93-.069-.383-.975.655-1.088.452-1.072-.958.073-1.715 1.393-1.713 1.483.058 2.18 1.702.67 1.686.732-.203.797-2.235.076-4.468 1.855-4.42 3.52.017.578.49.263 1.05-.7.56-.962 1.911-1.75 3.001-1.75zm8.522-9.5c1.208-1.1 2.354-2.811 2.547-3.803.494-2.544 2.239-2.251 2.939.494.323 1.27 1.014 2.229 1.535 2.13.521-.098.947.72.947 1.818 0 1.871-.08 1.886-1.285.237-1.714-2.344-4.061-2.584-5.255-.537-.534.913-.984 1.268-1 .789-.018-.497-.59-.497-1.328 0-.714.48-.309-.028.9-1.128zm4.08-4.688c-.32-.797-.556-.56-.604.605-.043 1.054.193 1.644.525 1.312.332-.332.368-1.195.08-1.916zM197 273.536c0-.255-1.012-1.004-2.25-1.664-2.04-1.087-2.122-1.043-.878.465 1.278 1.55 3.128 2.258 3.128 1.2zm-17.507-1.524c.35-.566-.051-.734-.941-.393-1.732.665-2.05 1.382-.611 1.382.518 0 1.216-.445 1.552-.989zm12.856-2.479c.31-.807.227-1.676-.185-1.93-.412-.255-.814.405-.894 1.467-.173 2.297.298 2.499 1.08.463zm-7.608-37.743c-.195-3.459-.357-.889-.36 5.711-.001 6.6.159 9.43.357 6.29.198-3.142.2-8.542.004-12zm2.001-1.497c-.192-3.736-.352-.942-.353 6.208-.002 7.15.156 10.206.35 6.792.195-3.415.196-9.265.003-13zm-3.473-12.948c-.677-.274-2.027-.29-3-.037-.973.254-.419.478 1.231.498 1.65.02 2.446-.187 1.769-.461zm5.981-.006c-.688-.277-1.813-.277-2.5 0-.688.277-.125.504 1.25.504s1.938-.227 1.25-.504zm-85.5 29.5c-3.863-1.41-3.705-4.697.264-5.49 1.939-.388 4.435-2.301 7-5.364l3.986-4.762V221.16c0-16.442-.96-19.206-9.566-27.566C98.36 186.725 95 181.374 95 176.981c0-4.03 5.752-5.36 23.113-5.348 22.428.016 25.39 1.73 20.45 11.828-1.627 3.325-4.67 7.096-8.07 10-6.8 5.81-8.342 9.063-8.787 18.539-.27 5.732-.367 4.975-.416-3.212-.035-5.892.223-10.636.573-10.543.35.093 2.064-1.196 3.808-2.865 2.263-2.166 2.687-2.998 1.482-2.91-.928.069-2.301.504-3.05.967-.943.582-1.218.413-.894-.548.257-.764 1.328-1.435 2.38-1.49 3.474-.186 3.822-.388 2.662-1.548-.865-.865-1.77-.741-3.664.5-2.377 1.557-6.02 6.652-3.756 5.253a1.207 1.207 0 0 1 1.659.38c.352.57-.329 1.016-1.548 1.016-2.183 0-2.268-.848-.512-5.085.381-.919-.164-2.6-1.295-3.997l-1.953-2.411-1.24 2.722c-1.102 2.417-.944 3.17 1.409 6.725 3.126 4.724 3.53 7.289.614 3.907l-2.035-2.361 2.031 3.5c2.43 4.186 2.517 5 .539 5-.893 0-1.494.91-1.485 2.25.01 1.344.311 1.785.75 1.094.404-.635.575 4.476.38 11.36-.336 11.783-.252 12.455 1.432 11.513 1.486-.832 2.532-.1 6.165 4.313 2.407 2.924 5.74 5.79 7.407 6.372 3.444 1.2 3.359 3.003-.228 4.833-2.944 1.503-25.125 1.58-29.171.103zm5.519-1.494c-.677-.274-2.027-.29-3-.037-.973.254-.419.478 1.231.498 1.65.02 2.446-.187 1.769-.46zM129 244.98c-1.925-.394-3.05-.835-2.5-.98.55-.145-.575-.595-2.5-1l-3.5-.737 3.946-.131 3.946-.132-3.38-3.488c-3.212-3.313-3.475-3.403-5.252-1.794-1.486 1.344-2.25 1.457-3.708.546-2.008-1.254-3.052-.732-3.052 1.525 0 1.176.286 1.218 1.49.22 1.231-1.023 1.637-.84 2.337 1.053l.848 2.29.569-2.176c.547-2.092 3.756-3.156 3.756-1.246 0 .512.787 1.124 1.75 1.36.963.237.227.237-1.634 0-2.613-.333-3.26-.11-2.843.98.71 1.85-1.198 4.791-1.932 2.98-.28-.688-1.397-1.25-2.483-1.25-1.087 0-1.73-.399-1.428-.886.301-.488-.347-1.12-1.44-1.406-1.094-.286-2.24-.112-2.548.386-.308.498.142.906.999.906s1.559.45 1.559 1 .702 1 1.559 1 1.296.425.975.945c-.353.57 3.096.907 8.69.848 6.536-.068 8.242-.308 5.776-.813zm-22.863-1.768c-.722-.24-1.787.038-2.369.62-.742.742-.351.872 1.312.437 1.352-.354 1.806-.807 1.057-1.057zm10.642-22.296l-.289-11.416-.495 12.204c-.272 6.712-.142 11.849.29 11.416.43-.434.653-5.926.494-12.204zm.206-18.225c.01-1.129-.425-1.537-1.155-1.086-.794.49-.958.171-.511-.993.443-1.156.28-1.482-.5-1-.801.495-.936.134-.436-1.167.397-1.036.403-1.564.012-1.173-.391.39-1.37.164-2.174-.503-.818-.68-.53.316.655 2.258 1.164 1.91 2.125 4.598 2.136 5.973.015 1.982.22 2.19.988 1 .533-.825.976-2.314.985-3.309zm-2.074-8.858c-1.247-2.33-2.05-2.385-1.21-.083.577 1.583.434 1.57-1.508-.134-1.18-1.036-1.924-2.242-1.653-2.68.82-1.326-1.217-1.991-3.505-1.145l-2.15.795 2.29 1.957c1.768 1.51 1.981 1.558.935.207-.745-.962-.905-1.75-.355-1.75 1.508 0 3.332 2.57 2.486 3.502-.407.45-.21.514.44.142s1.417-.294 1.706.173c.289.467 1.196.85 2.015.85 1.135 0 1.256-.437.509-1.834zm23.05-12.218c.022-.487-.924.339-2.1 1.834-1.605 2.04-2.34 2.394-2.946 1.414-.443-.718-1.155-.956-1.582-.53-.426.427-.25 1.1.393 1.498.682.421.83 1.27.353 2.04-.585.948-.998.588-1.466-1.276-.466-1.857-1.286-2.575-2.882-2.525-1.72.054-1.863.226-.624.75.884.374 1.487 1.466 1.34 2.426-.148.96.148 2.004.658 2.32.51.314.653 1.104.317 1.753-.336.65 1.44-1.069 3.945-3.819 2.506-2.75 4.573-5.398 4.595-5.885zm-11.044 5.75c1.372-1.201-1.883-.086-3.476 1.19-1.83 1.467-1.798 1.487.559.365 1.375-.655 2.688-1.355 2.917-1.555zM110 186.5c-1.004-1.21-.979-1.506.128-1.53.895-.02.738-.4-.453-1.092-1.004-.584-2.091-.795-2.417-.47-.325.326-.04.592.634.592s.948.45.608 1c-.758 1.227.236 3 1.681 3 .671 0 .604-.554-.181-1.5zm-4.412-2.246c-.342-.341-1.176-.022-1.855.71-.979 1.055-.975 1.184.017.624.715-.404 1.284-.146 1.329.603.065 1.075.173 1.074.604-.003.289-.722.246-1.592-.095-1.933zm10.457.919c1.928-1.797 1.91-1.82-1.042-1.387-2.944.432-3.665 1.219-2.336 2.547.955.955 1.196.872 3.378-1.16zm8.385.94c.301-.487-.082-1.41-.852-2.048-.975-.81-1.6-.839-2.058-.097-.362.585-1.19.746-1.84.356-.672-.403-.59.02.192.984 1.488 1.834 3.682 2.222 4.558.805zM102 185c0-.55-.477-1-1.059-1s-.78.45-.441 1c.34.55.816 1 1.059 1s.441-.45.441-1zm11.809-3.342c1.09.676 2.438.807 3.233.316.75-.463 1.804-.569 2.345-.235.834.516 15.614 1.077 15.613.593 0-.093.273-.88.607-1.75.458-1.193-.034-1.582-2-1.582-1.734 0-2.607-.541-2.607-1.617 0-1.124.61-1.457 1.999-1.094 1.1.288 2.294.046 2.655-.537.366-.594.184-.77-.414-.4-.588.363-1.256.1-1.484-.584-.308-.924-1.037-.979-2.835-.212-1.332.567-3.996.734-5.921.37l-3.5-.663L125 174l3.5-.263-3.5-.677c-2.373-.46-3.858-.256-4.61.631-.703.83-3.27 1.272-7 1.21-4.46-.076-5.283-.295-3.39-.901 2.35-.753 2.302-.807-.809-.9-2.267-.069-3.084.264-2.595 1.056.508.82-.153.983-2.274.558-2.034-.406-2.989-.2-2.989.644 0 .81 1.351 1.173 3.883 1.043 5.59-.285 4.272 1.976-1.516 2.599-3.653.393-4.459.798-3.774 1.894.63 1.01 1.984 1.216 4.912.748 2.55-.408 4.294-.237 4.727.463.478.774.94.7 1.53-.248.659-1.06 1.254-1.103 2.714-.199zm-16.032-3.086c-.11-1.335-.514-2.235-.895-1.999-.675.417-.02 4.427.723 4.427.205 0 .282-1.093.172-2.428zm96.035 35.745c.722-.289 1.585-.253 1.917.079.332.332-.258.568-1.312.525-1.165-.048-1.402-.285-.604-.604zM35.75 207.356c-2.684-.77-2.334-5.356.409-5.356 1.296 0 3.895-1.891 6.5-4.728L47 192.544v-13.178c0-15.62-1.064-18.45-9.76-25.957-6.854-5.917-9.232-9.79-9.236-15.04-.004-4.095.038-4.142 4.746-5.328 2.612-.658 10.906-1.18 18.43-1.161 20.92.054 23.888 2.132 18.43 12.905-1.316 2.595-4.699 6.663-7.519 9.04C54.923 159.87 54 162.65 54 178.188v12.942l4.239 4.92c2.331 2.707 5.481 5.355 7 5.884 2.964 1.034 3.265 1.72 1.783 4.067-.76 1.205-3.762 1.535-15.235 1.679-7.858.098-15.074-.047-16.037-.323zm22-1.62c1.282.03 2.25-.547 2.25-1.342 0-1.366-2.152-1.811-6.862-1.418-1.67.139-2.135-.172-1.586-1.06.567-.918.26-1.057-1.138-.516-1.053.407-3.151.99-4.664 1.295-2.836.572-3.706 2.715-1.5 3.692.688.304 3.5.271 6.25-.074 2.75-.345 6.013-.604 7.25-.576zm-17-.425c-.963-.252-2.538-.252-3.5 0-.963.251-.175.457 1.75.457s2.712-.206 1.75-.457zm22.98.085c-.333-.332-1.196-.368-1.917-.079-.798.32-.561.556.604.604 1.054.044 1.644-.193 1.312-.525zm-23.48-2.058c-.688-.278-1.813-.278-2.5 0-.688.277-.125.504 1.25.504s1.938-.227 1.25-.504zm5.323-2.233c-1.616-.634-1.676-.851-.372-1.352.856-.328 2.041-.11 2.635.483.772.772 1.495.734 2.54-.134 1.176-.975 1.684-.859 2.591.593.964 1.542 1.028 1.442.437-.687-.623-2.241-.524-2.353.976-1.108 2.587 2.148 3.281.317.814-2.15-1.207-1.207-2.194-1.693-2.194-1.08 0 1.609-3.042 2.54-4.457 1.366-.852-.708-2.038-.129-4.06 1.982L41.625 202l2.937-.07c2.388-.058 2.577-.212 1.01-.825zm6.484-21.605l.504 14 .22-15.316c.126-8.84.69-16.239 1.335-17.5.613-1.201 3.131-4.268 5.595-6.816 2.913-3.01 4.08-4.879 3.337-5.338-1.655-1.023-4.311.235-3.447 1.633.495.802.18.967-.989.518-.944-.362-1.472-.264-1.175.217.298.482-.13 1.431-.948 2.111-.819.68-1.504.843-1.522.363-.019-.48-.919.19-2 1.489-2.088 2.506-2.665 1.312-.932-1.927.719-1.343.708-2.546-.035-3.934-1.37-2.561-2.643-2.536-4.044.082-.916 1.711-.655 2.774 1.465 5.978 1.419 2.143 2.572 4.694 2.564 5.669-.012 1.36-.213 1.46-.866.429-1.403-2.214-1.66 2.087-1.122 18.842l.497 15.5.529-15 .529-15 .505 14zm1.264-22.124c.122-1.582.662-2.796 1.2-2.697.539.098 1.654-.396 2.479-1.098.825-.702 2.175-1.604 3-2.003.825-.4.673-.052-.337.772-1.01.824-2.9 2.94-4.2 4.7l-2.363 3.202zm-4.58 16.874c-.192-3.712-.35-.675-.35 6.75s.158 10.463.35 6.75c.193-3.712.193-9.787 0-13.5zm.459-13.157c.479-3.265-1.953-7.293-4.642-7.687-1.33-.195-1.431.042-.5 1.163.643.775 1.568 1.162 2.055.861.488-.301.887-.098.887.452 0 2.228-1.846 1.888-4.438-.817-2.47-2.578-2.574-2.959-1.043-3.815 1.538-.861 1.546-1.01.09-1.57-.885-.34-2.318-.345-3.184-.013-1.25.48-.698 1.498 2.666 4.925 2.332 2.377 4.692 4.042 5.245 3.7.605-.373.742.062.345 1.096-.405 1.056-.262 1.471.37 1.08.668-.412.788.325.343 2.097-.445 1.776-.325 2.51.345 2.096.567-.35 1.224-1.956 1.46-3.568zM38.18 146.75c.228-1.603.895-2.166 2.32-1.958 1.592.232 1.704.092.548-.684-.799-.537-1.924-.68-2.5-.317-.577.363-1.796.536-2.71.386-.913-.15-1.926.157-2.25.682-.341.551.322.716 1.569.39 1.821-.477 2.07-.228 1.595 1.593-.31 1.187-.188 2.158.272 2.158s.98-1.012 1.156-2.25zm5.82 1.785c0-.255-1.012-.955-2.25-1.555-2.16-1.047-2.173-1.029-.309.465 2.04 1.634 2.559 1.855 2.559 1.09zm7.22-3.329c1.758.146 2.386.658 2.01 1.64-.353.916-.044 1.259.86.958.776-.259 1.545-1.167 1.71-2.02.245-1.26-.822-1.549-5.75-1.549-3.327 0-6.05.136-6.05.3 0 .166.28 1.033.624 1.926.563 1.469.788 1.476 2.331.08.94-.85 2.859-1.451 4.265-1.335zm6.904.527c-.988-.98-1.102-.865-.56.56.376.986.935 1.541 1.243 1.233.308-.307 0-1.114-.683-1.793zm8.856-.212l2.329-2.479-2.488 1.174c-1.368.646-2.488 1.762-2.488 2.48 0 1.686-.07 1.717 2.647-1.175zm.255-4.021c1.23-1.675.859-2.5-1.128-2.5-1.041 0-2.14-.642-2.44-1.426-.375-.977-3.167-1.682-8.857-2.239l-8.31-.813 5.5-.598c4.827-.525 4.46-.603-3-.643-5.788-.03-7.543.2-5.5.719 2.515.64 2.626.783.691.882-1.27.065-2.03.568-1.691 1.118.838 1.355.063 1.262-4.154-.5-4.746-1.983-5.628-1.896-4.381.434 1.382 2.584 1.31 3.066-.465 3.066-2.398 0-1.73 2.828.75 3.18 5.552.789 32.311.237 32.985-.68zM38.5 139c-.36-.583.656-1 2.441-1 1.682 0 3.059.45 3.059 1s-1.098 1-2.441 1c-1.343 0-2.72-.45-3.059-1zm6.5-.555c0-1.228.982-1.49 4.672-1.25 6.672.435 7.02 2.805.411 2.805-3.931 0-5.083-.352-5.083-1.555zm7.269-.1c-.677-.275-2.027-.292-3-.038-.973.254-.419.478 1.231.498 1.65.02 2.446-.187 1.769-.461zM57 139c1.958-1.266 3.282-1.266 2.5 0-.34.55-1.379.993-2.309.985-1.457-.014-1.484-.15-.191-.985zm12.683.813c-.32-.798-.556-.561-.604.604-.043 1.054.193 1.644.525 1.312.332-.332.368-1.195.08-1.917zm-4.016-4.313c0-.825-.375-1.5-.834-1.5-.998 0-1.098 1.401-.166 2.333.927.927 1 .866 1-.833zm109.894 71.6c-.462-.75 1.085-1.1 4.849-1.1 4.502 0 5.42-.278 4.952-1.5-.38-.992-1.81-1.455-4.219-1.368l-3.643.131 3.5.737c3.493.735 3.49.737-1.05.868-2.502.073-5.045.627-5.65 1.231-1.574 1.575-5.3.107-5.3-2.089 0-1.218 1.152-2.235 3.357-2.963 1.846-.61 4.825-2.935 6.62-5.167 2.948-3.669 3.27-4.725 3.34-10.958.095-8.237 1.567-6.983 1.853 1.578l.2 6 .367-5.25c.202-2.888.685-5.25 1.072-5.25.388 0 .541 2.066.34 4.592-.201 2.532.132 5.09.743 5.7.81.81 1.162-2.501 1.31-12.342.112-7.397.298-14.8.415-16.45.116-1.65.25-3.638.297-4.417.047-.779.361-1.141.697-.805.777.777 5.988-5.37 5.598-6.604-.16-.505.348-.674 1.128-.375 2.21.848 3.36-1.036 2.791-4.572l-.518-3.227-.59 3c-.395 2.015-1.149 2.955-2.294 2.863-.937-.076-1.498.197-1.246.605.252.407-.653 1.785-2.01 3.06-2.693 2.53-3.422 1.682-.927-1.076 1.243-1.373 1.284-1.805.21-2.217-.85-.326-1.713.701-2.381 2.836-.576 1.84-.702 3.133-.279 2.872.423-.262 1.027-.058 1.343.453.315.51-.216.807-1.181.658-.965-.149-2.086.228-2.491.838-.476.716-1.613.047-3.214-1.892-1.363-1.65-2.494-2.607-2.514-2.128-.02.48-.824.263-1.786-.482-1.456-1.128-1.434-.984.134.854 1.036 1.215 2.35 1.92 2.92 1.568.641-.396.785.014.377 1.076-.362.944-.26 1.47.226 1.17.486-.3 1.13.095 1.43.88.378.983-.036 1.313-1.337 1.062-1.3-.25-1.715.079-1.338 1.063.301.784.838 1.246 1.193 1.027.355-.22.464 1.695.243 4.255l-.401 4.655-1.218-4.645c-1.518-5.79-2.56-7.266-9.775-13.85-5.957-5.437-8.704-10.172-8.704-15.006 0-4.546 3.964-5.507 22.5-5.45 18.583.057 21.803.94 22.307 6.12.405 4.17-4.078 11.349-9.64 15.44-6.932 5.098-8.434 9.216-8.893 24.391l-.394 13 5.046 5.25c2.775 2.888 5.672 5.25 6.437 5.25 2.56 0 3.746 2.468 2.2 4.582-1.224 1.676-2.972 1.962-13.862 2.268-8.335.233-12.685-.015-13.14-.75zM199 204.94c0-.582.563-.741 1.25-.353.948.535.974.406.107-.534-.908-.985-1.625-.982-3.5.017-2.079 1.108-2.208 1.076-1.095-.275 1.708-2.071-.565-4.222-2.796-2.644-1.214.859-1.171.942.252.486.945-.303 1.984-.12 2.309.406.347.56-1.518.956-4.507.956-4.395 0-4.92.202-3.81 1.462 1.519 1.722 11.79 2.139 11.79.479zm-8.731-.634c.973-.254 2.323-.237 3 .037.677.274-.119.481-1.769.461-1.65-.02-2.204-.244-1.231-.498zM175 204c1.213-.784 1.07-.972-.75-.985-1.238-.008-2.25.435-2.25.985 0 1.253 1.061 1.253 3 0zm7-2.383c0-.888-4.046-1.352-4.558-.523-.308.498.592.906 1.999.906s2.559-.173 2.559-.383zm2.545-4.215c-1.274-1.274-1.899-1.353-3.062-.388-1.916 1.59-1.016 2.938 1.518 2.275 1.45-.379 2.03-.01 2.115 1.344.104 1.675.163 1.687.573.119.251-.962-.263-2.47-1.144-3.35zM190 201.56c0-1.055-1.92-1.499-2.49-.575-.345.559.073 1.016.931 1.016.857 0 1.559-.198 1.559-.441zm2.417-2.425c.295-.477-.289-1.613-1.297-2.526-1.637-1.481-1.969-1.495-3.1-.133-1.045 1.26-.983 1.525.358 1.525.892 0 1.622.45 1.622 1 0 1.228 1.684 1.32 2.417.134zm-14.308-44.521c-2.052-2.117-2.875-3.64-2.196-4.06.598-.369 1.607-.35 2.242.043.729.45.882.273.415-.482-.406-.657-1.505-.952-2.441-.655-1.312.417-1.755-.132-1.926-2.384-.158-2.072.29-3.058 1.537-3.384 1.356-.354 1.403-.486.201-.575-.857-.064-2.432.592-3.5 1.458-1.067.866-1.379 1.29-.691.941.687-.348 1.25-.156 1.25.426s-.711 1.059-1.58 1.059c-.996 0 .362 2.035 3.669 5.5 2.887 3.025 5.486 5.5 5.776 5.5.29 0-.95-1.524-2.756-3.387zm10.15-4.73c-.88-3.364-2.93-4.191-4.573-1.845-1.335 1.905-1.318 2.444.16 5.031l1.654 2.898 1.617-2.133c.89-1.173 1.404-2.951 1.142-3.95zm5.869-2.633c1.243-1.586 1.208-1.621-.378-.378-.963.755-1.75 1.543-1.75 1.75 0 .823.821.294 2.128-1.372zm-16.148-.774c-.696-.838-1.47-1.318-1.723-1.067-.693.694.716 2.591 1.924 2.591.664 0 .588-.574-.201-1.524zm13.836-2.197c-.74-.892-1.463-.987-2.29-.3-.666.552-1.565.67-2 .262-.433-.407-.2.226.52 1.407 1.06 1.74 1.644 1.938 3.08 1.041 1.319-.823 1.495-1.44.69-2.41zm10.49 1.935c1.497-1.654 1.477-1.785-.267-1.785-1.19 0-1.833.656-1.748 1.785.074.982.194 1.786.267 1.786.073 0 .86-.804 1.748-1.786zm-19.657-2.39c-.812-.455-2.204-.548-3.092-.207-1.454.558-1.438.75.16 1.919 1.299.949 2.132 1.004 3.093.206 1.08-.895 1.05-1.24-.16-1.918zm14.034.989c-.32-.798-.556-.561-.604.604-.043 1.054.193 1.644.525 1.312.332-.332.368-1.195.08-1.916zM170 145c0-.55-.477-1-1.059-1s-.78.45-.441 1c.34.55.816 1 1.059 1s.441-.45.441-1zm33.132-4.213c.969-1.568 1-1.547-3.068-2.011-4.173-.477-5.253-2.498-1.353-2.534 5.886-.055 6.89-.253 5.289-1.043-.825-.407-6.72-.506-13.099-.22-10.492.471-11.572.695-11.328 2.341.245 1.646-.444 1.79-7.15 1.5-4.082-.176-7.422-.733-7.422-1.237 0-.504-.267-.65-.593-.325-.325.326-.114 1.413.47 2.417.584 1.004 1.075 1.262 1.092.575.016-.688.48-1.25 1.03-1.25s1 .563 1 1.25c0 .912 2.498 1.24 9.25 1.215 5.088-.019 10.825.214 12.75.517 5.265.83 12.274.193 13.132-1.195zm2.675-.313c-.308-.308-.867.247-1.243 1.233-.542 1.425-.428 1.54.56.56.684-.679.99-1.486.683-1.793zM174 136.117c0-1.172-4.655-2.02-7.296-1.33-2.03.531-2.034.573-.15 1.31 2.726 1.068 7.446 1.08 7.446.02zm2.75-2.806c-.963-.252-2.538-.252-3.5 0-.963.251-.175.457 1.75.457s2.712-.206 1.75-.457zm19.519.033c-.677-.274-2.027-.29-3-.037-.973.254-.419.478 1.231.498 1.65.02 2.446-.187 1.769-.461zm-73.87 61.406c-.396-.688-.351-.916.099-.509.45.408 1.534.183 2.41-.5 1.409-1.098 1.434-1.04.22.509-1.636 2.086-1.8 2.116-2.73.5zM186.158 179c0-1.375.227-1.938.504-1.25.278.688.278 1.813 0 2.5-.277.688-.504.125-.504-1.25zm-3.079-3.583c.048-1.165.285-1.402.604-.604.289.721.253 1.584-.079 1.916-.332.332-.568-.258-.525-1.312zm2.746-3.743c-.373-1.825-.233-2.482.393-1.856.533.533.793 1.805.576 2.826-.291 1.375-.543 1.123-.97-.97zm-.667-8.674c0-1.375.227-1.938.504-1.25.278.688.278 1.813 0 2.5-.277.688-.504.125-.504-1.25zm7.342-9c.995-1.1 2.035-2 2.31-2 .275 0-.315.9-1.31 2-.995 1.1-2.035 2-2.31 2-.275 0 .315-.9 1.31-2zm-89.348-29.885c-2.166-1.372-.896-4.406 2.188-5.23 1.562-.418 4.356-2.476 6.208-4.573l3.369-3.812.041-14.3c.05-16.777-.039-17.021-9.467-26.171C98.063 62.819 96 59.559 96 55.025c0-3.721 2.776-5.1 9.815-4.875 3.172.101 3.716.274 1.685.535-1.65.212-3.9.787-5 1.277-1.1.49-2.675 1.152-3.5 1.47-1.716.66 2.266.05 6-.92 2.345-.61 2.376-.57.5.637-1.908 1.228-1.863 1.317 1 1.95 2.556.566 2.297.682-1.75.783-4.507.112-6.027 1.21-3.682 2.66.588.363 6.326.786 12.75.94 6.425.154 11.907.386 12.182.517.275.13.95.13 1.5 0 .55-.131 2.555-.195 4.455-.142 3.12.088 4.988-1.066 5.03-3.107.008-.413-.912-.75-2.044-.75-3.034 0-1.286-1.98 1.868-2.116 2.074-.09 2.233-.226.691-.597-1.1-.265-2.428-.887-2.95-1.384-.523-.497-3.083-.903-5.691-.903-2.608 0-4.958-.351-5.223-.78-.562-.909 14.692.246 16.289 1.233 1.596.987 1.302 6.266-.568 10.208-.904 1.905-4.493 5.98-7.974 9.056-7.958 7.03-9.383 11.166-9.383 27.23v11.139l4.582 4.898c2.52 2.694 5.557 5.037 6.75 5.207 1.564.223 2.168 1.006 2.168 2.809 0 2.418-.229 2.504-7 2.608l-7 .107 5.922-.607c3.35-.344 6.1-1.147 6.33-1.85.29-.88-.442-1.07-2.528-.653-2.221.444-3.099.164-3.603-1.15-.561-1.463-.426-1.538.856-.474 3.109 2.58 1.377.293-3.046-4.023-2.513-2.452-4.425-3.854-4.25-3.115.175.739-.495 1.864-1.49 2.5-1.448.927-2.057.822-3.062-.527-1.145-1.54-1.42-1.462-3.191.896-1.066 1.42-1.994 2.965-2.063 3.434-.069.47-.181 1.344-.25 1.943-.08.694-1.617.88-4.236.514-3.297-.461-3.898-.318-3.034.722.592.714 3.218 1.409 5.835 1.544 2.617.136 4.958.445 5.201.689.835.835-10.39.411-11.74-.443zm7.34-4.104c.351-.566-.05-.734-.94-.393-1.732.665-2.05 1.382-.611 1.382.518 0 1.216-.445 1.552-.989zm8.248-25.261c-.195-3.438-.355-.625-.355 6.25s.16 9.688.355 6.25c.196-3.438.196-9.063 0-12.5zm-1.509.534c.258-8.919.128-16.006-.288-15.749-.416.257-.48-.545-.14-1.784.505-1.845.682-1.933.982-.489.202.97.793 1.499 1.314 1.177.558-.345.785.987.552 3.237-.218 2.103-.198 3.036.046 2.074.243-.963.891-1.75 1.44-1.75.562 0 .703-.927.323-2.125-.43-1.355-.299-1.893.36-1.486.57.352 1.292-.167 1.606-1.154.313-.987 3.045-4.202 6.072-7.143 5.545-5.39 6.238-6.52 4.615-7.522-.488-.302-.825.234-.75 1.19.085 1.084-.52 1.688-1.602 1.603-.957-.075-1.493.262-1.191.75.563.912-.08 1.073-4.82 1.211-2.697.079-3.368 1.402-2.802 5.526.117.848-.304 1.073-1.131.604-1.059-.601-1.072-.484-.067.6 1.604 1.727 1.623 3.294.028 2.309-1.688-1.043-8.784-1.182-8.152-.16.282.457.93.571 1.442.255.51-.316.858.24.772 1.234-.318 3.66.173 34.628.542 34.225.21-.23.592-7.714.85-16.633zm6.328-22.869c.375-3.42 3.51-5.73 4.846-3.568.288.466-.751 2.069-2.31 3.562l-2.834 2.715zm3.872-3.318c-.263-.263-1.255.333-2.205 1.324-1.65 1.722-1.628 1.744.479.479 1.212-.729 1.989-1.54 1.726-1.803zm-6.69 24.692c-.195-3.459-.357-.889-.36 5.711-.001 6.6.159 9.43.357 6.29.198-3.142.2-8.542.004-12zm-8.068-22.608c-1.486-1.551-2.357-3.198-1.937-3.66.42-.463.201-.518-.486-.122-.688.395-1.25.225-1.25-.38 0-.716-.47-.66-1.351.165-1.123 1.049-.916 1.604 1.225 3.289 1.417 1.115 2.888 2.027 3.268 2.027.38 0 1.029.338 1.441.75.413.412.985.75 1.27.75.287 0-.694-1.269-2.18-2.82zm-2.8-.931c-1.244-1.586-1.21-1.621.377-.378.963.755 1.75 1.543 1.75 1.75 0 .823-.821.294-2.128-1.372zm10.824.5c1.136-2.51-.296-7.05-2.041-6.469-2.309.77-3.077 3.564-1.69 6.154 1.685 3.15 2.42 3.212 3.731.315zm-6.404-1.739c-.286-1.094-.941-1.729-1.455-1.41-.552.34-.455 1.155.236 1.988 1.577 1.9 1.835 1.779 1.219-.578zm-9.122-4.143c-1.194-.442-2.171-1.16-2.171-1.595 0-.436-1.012-1.404-2.25-2.153-1.518-.918-1.14-.196 1.158 2.22 1.875 1.97 3.865 3.3 4.421 2.956.557-.344.036-.987-1.158-1.428zM111 64c-.793-.49-1.667-.666-1.942-.391-.275.275.149.9.942 1.391.793.49 1.667.666 1.942.391.275-.275-.149-.9-.942-1.391zm17 1.031c0-.532-.675-.71-1.5-.393-.825.317-1.5.753-1.5.969 0 .216.675.393 1.5.393s1.5-.436 1.5-.969zm-12.901-3.4c-2.651-1.183-3.795-.175-2.109 1.857 1.02 1.23 1.57 1.292 2.75.312 1.274-1.057 1.187-1.354-.641-2.17zm9.029 1.677c.932-1.15.971-1.451.122-.94-.702.421-1.25.26-1.25-.368 0-.615-.54-.784-1.2-.376-.934.577-.932.832.005 1.144.664.222.953.814.642 1.317-.964 1.56.234 1.006 1.68-.777zm-16.712-.95c.527-1.372.38-1.434-.893-.377-1.735 1.44-1.916 2.019-.63 2.019.491 0 1.176-.739 1.523-1.641zM139 58.643c0-1.27-.462-.703-1.92 2.358-1.122 2.357-1.102 2.39.365.559.855-1.068 1.555-2.38 1.555-2.917zm-20.322 61.198c-.99-.554-2.433-.764-3.207-.467s-1.716.04-2.093-.571c-.4-.648-.234-.831.398-.44.597.369 1.368.213 1.714-.346.345-.559 1.726-1.016 3.069-1.016s2.455-.563 2.473-1.25c.02-.826.445-.711 1.25.338.67.873 1.74 1.412 2.376 1.197.637-.215 1.452.083 1.81.662.64 1.038.235 1.214-3.218 1.395-.962.05-1.98.41-2.262.798-.28.388-1.32.253-2.31-.3zm-1.928-63.577c2.888-.202 7.612-.202 10.5 0s.525.367-5.25.367-8.137-.165-5.25-.367zm.5-1.998c2.612-.206 6.888-.206 9.5 0s.475.375-4.75.375-7.362-.169-4.75-.375zm8.518-1.99c1.797-.222 4.497-.218 6 .01 1.503.229.032.41-3.268.405-3.3-.005-4.53-.192-2.732-.415zm-7.955-.958c.721-.289 1.584-.253 1.916.079.332.332-.258.568-1.312.525-1.165-.048-1.402-.285-.605-.604zm-3.563-2.033c1.512-.23 3.987-.23 5.5 0 1.512.229.275.416-2.75.416s-4.263-.187-2.75-.416zM116 34.64c0-1.299 1.125-4.019 2.5-6.045s2.5-3.798 2.5-3.939c0-.14-1.57-.071-3.49.153-2.62.306-3.653-.019-4.146-1.302-.383-.998-.075-2.076.74-2.593 1.943-1.23 12.639-1.14 13.413.114.35.565-.779 3.152-2.506 5.75-1.728 2.597-3.394 5.96-3.701 7.472-.422 2.071-1.146 2.75-2.935 2.75-1.83 0-2.375-.542-2.375-2.36zm6-6.64c.589-1.1.845-2 .57-2s-.981.9-1.57 2c-.589 1.1-.845 2-.57 2s.981-.9 1.57-2zm1.264-5.704c-1.23-.237-3.48-.243-5-.014-1.52.23-.514.424 2.236.432 2.75.007 3.994-.18 2.764-.418zM6.289 353c.254-4.253.102-6.634-.35-5.5-.44 1.1-.795 4.925-.79 8.5.011 8.202.555 6.769 1.14-3zm.442-22.28c-.21-2.321-.38-.17-.376 4.78.003 4.95.175 6.849.381 4.22.207-2.63.204-6.68-.005-9zm-.048-6.908c-.32-.797-.556-.56-.604.605-.043 1.054.193 1.644.525 1.312.332-.332.368-1.195.08-1.916zm0-5c-.32-.797-.556-.56-.604.605-.043 1.054.193 1.644.525 1.312.332-.332.368-1.195.08-1.916zM6.5 314c.34-.55.141-1-.441-1S5 313.45 5 314s.198 1 .441 1 .72-.45 1.059-1zM119 10.5h111.5l.518 38 .518 38 .232-38.75L232 9H119.607c-101.565 0-112.451.152-113 1.582-.334.87-.497 69.157-.362 151.75L6.49 312.5l.505-151 .505-151zm112.683 221.313c-.32-.798-.556-.561-.604.604-.043 1.054.193 1.644.525 1.312.332-.332.368-1.195.08-1.917zm0-18c-.32-.798-.556-.561-.604.604-.043 1.054.193 1.644.525 1.312.332-.332.368-1.195.08-1.917zm.04-41.063c-.221-1.788-.403-.325-.403 3.25s.182 5.037.403 3.25c.222-1.788.222-4.713 0-6.5zm-.06-7c-.278-.688-.505-.125-.505 1.25s.227 1.938.504 1.25c.278-.688.278-1.813 0-2.5zm.026-6.5c-.251-.963-.457-.175-.457 1.75s.206 2.712.457 1.75c.252-.963.252-2.538 0-3.5zm.018-12.488c-.239-1.244-.444-.462-.455 1.738-.01 2.2.185 3.218.435 2.262s.26-2.756.02-4zm.035-30.973c-.196-3.459-.358-.889-.36 5.711-.002 6.6.158 9.43.356 6.29.198-3.142.2-8.542.004-12zm-.053-13.539c-.251-.963-.457-.175-.457 1.75s.206 2.712.457 1.75c.252-.963.252-2.538 0-3.5zm0-14c-.251-.963-.457-.175-.457 1.75s.206 2.712.457 1.75c.252-.963.252-2.538 0-3.5zm12.563 250.25c.011-2.2.216-2.982.455-1.738.24 1.244.23 3.044-.02 4s-.446-.062-.435-2.262zm.236-174c0-90.2.118-126.952.262-81.671.144 45.28.144 119.08 0 164-.144 44.919-.262 7.871-.262-82.329z"/></svg>