<svg xmlns="http://www.w3.org/2000/svg" width="244" height="420" viewBox="0 0 244 420"><path d="M61.25 418.25c33.413-.146 88.088-.146 121.5 0 33.413.146 6.075.266-60.75.266s-94.162-.12-60.75-.266zM41.5 409l-36-.5-.626-7c-.344-3.85-.681-93.722-.75-199.715C4.005 17.072 4.074 9.03 5.802 8.105c1.98-1.058 223.872-1.551 226.605-.502 1.45.556 1.593 18.589 1.593 200.937v200.325l-2.231.708c-2.254.716-123.861.35-190.269-.573zm157.75-1.749c-12.238-.16-32.263-.16-44.5 0-12.238.16-2.225.29 22.25.29s34.487-.13 22.25-.29zm-188.5-.967c-2-.303-2.772-1.012-2.829-2.6-.043-1.201-.31-1.607-.594-.901-.965 2.401.552 4.22 3.392 4.067l2.781-.15zm5.98.112c-.333-.332-1.196-.368-1.917-.08-.798.32-.561.557.604.605 1.054.043 1.644-.193 1.312-.525zm12 0c-.333-.332-1.196-.368-1.917-.08-.798.32-.561.557.604.605 1.054.043 1.644-.193 1.312-.525zM232 406c0-.55-.198-1-.441-1s-.72.45-1.059 1c-.34.55-.141 1 .441 1s1.059-.45 1.059-1zm-3.391-2.276c.3-.3.216-88.335-.185-195.634L227.693 13l-23.097-.086c-12.703-.047-61.567-.16-108.586-.25L10.52 12.5l-.642 3c-.584 2.733-1.207 387.194-.628 387.733 1.057.983 218.38 1.47 219.359.491zM80.197 372.737c-.576-.694-1.194-3.057-1.372-5.25-.316-3.878-.448-4.008-4.825-4.75-2.475-.42-7.65-1.03-11.5-1.353-13.776-1.16-13.602-.7-15.284-40.384-.734-17.325-1.646-37.8-2.026-45.5l-.69-14-4.5-.5c-3.674-.408-4.557-.9-4.81-2.682-.378-2.649 2.973-4.745 6.263-3.92 3.777.949 5.262-1.971 6.556-12.898.65-5.5 1.384-10.325 1.629-10.722.245-.396 2.479-1.62 4.965-2.72 3.493-1.546 7.517-2.117 17.709-2.513 7.253-.283 16.563-.734 20.688-1.002 4.125-.27 19.425-.78 34-1.135 17.962-.437 26.737-1.01 27.235-1.777.404-.622.741-2.594.75-4.381.009-1.86.55-3.3 1.265-3.368 4-.38 5.91 1.207 5.558 4.618-.602 5.839 5.439 8.403 20.508 8.703 7.188.144 8.986.493 9.735 1.891.504.944 1.176 9.521 1.492 19.06.316 9.54.768 20.046 1.004 23.346.236 3.3.67 12.525.966 20.5.296 7.975.794 19.112 1.108 24.75l.571 10.25h4.345c4.924 0 5.582.564 4.378 3.75-.679 1.795-1.627 2.25-4.692 2.25-6.58 0-7.403 1.31-7.878 12.534-.433 10.25-1.699 13.466-5.3 13.466-.905 0-2.133.488-2.73 1.085-1.2 1.2-21.572 2.355-67.637 3.833-28.088.901-32.852 1.476-32.528 3.928.48 3.628-.353 6.154-2.028 6.154-1.032 0-2.349-.568-2.925-1.263zM82.5 371c-.34-.55-.029-1.007.691-1.015 1-.012 1.021-.199.093-.788-.945-.6-.91-1.364.154-3.414 1.503-2.897 1.143-3.943-1.066-3.096-.848.326-1.2 1.282-.861 2.347.314.989.1 2.088-.473 2.443-1.02.63.32 4.523 1.556 4.523.288 0 .246-.45-.094-1zm13.16-8.745c-6.366-.278-7.735-.616-7.282-1.799.825-2.15-.14-1.769-1.378.544-1.036 1.936-.788 1.994 7.715 1.799l8.785-.201zM83 357.06c0-5.493 1.047-6.87 3.42-4.497 1.194 1.195 1.58 1.255 1.58.247 0-.734-1.012-1.779-2.25-2.322-1.636-.717-2.387-2.08-2.75-4.987-.319-2.551-.795-3.544-1.315-2.741-.448.692-.536 2.134-.197 3.204.987 3.108-2.058 6.7-6.27 7.4-10.96 1.82-14.532 2.653-15.763 3.674-.747.62-2.393.845-3.657.498-2.026-.556-2.084-.497-.487.5.996.623 2.57.802 3.5.398 2.7-1.174 4.189-1.32 4.189-.411 0 .464 1.238.825 2.75.8 1.512-.023 3.987.446 5.5 1.043 2.69 1.062 2.753 1.004 2.91-2.64.159-3.691.164-3.696.563-.475.371 2.987 1.521 3.843 4.527 3.368.412-.065.75.332.75.882s.675 1 1.5 1c1.13 0 1.5-1.216 1.5-4.941zM70 357c0-1.1.408-2 .906-2 .499 0 .671.9.384 2-.288 1.1-.696 2-.907 2-.21 0-.383-.9-.383-2zm11-4.882c0-.55.45-1.278 1-1.618.55-.34 1-.168 1 .382s-.45 1.278-1 1.618c-.55.34-1 .168-1-.382zm44.75 9.154c-2.063-.216-5.438-.216-7.5 0-2.063.215-.375.392 3.75.392s5.813-.177 3.75-.392zm17.98-.876c-.333-.332-1.196-.368-1.917-.08-.798.32-.561.557.604.605 1.054.043 1.644-.193 1.312-.525zm14.52-.128c-2.337-.21-6.162-.21-8.5 0-2.337.21-.425.383 4.25.383s6.588-.173 4.25-.383zm-72.56-5.018c-.252-.963-.458-.175-.458 1.75s.206 2.712.457 1.75c.252-.963.252-2.538 0-3.5zm27.1 4.012c-3.142-.198-8.542-.2-12-.004-3.46.196-.89.358 5.71.36 6.6.002 9.43-.158 6.29-.356zm65.46.006c-2.337-.21-6.162-.21-8.5 0-2.337.21-.425.383 4.25.383s6.588-.172 4.25-.383zM96.5 357.05l3-.703-3.68-.464c-2.024-.256-3.477-.136-3.229.265.248.401-.346 1.241-1.32 1.866-1.601 1.028-1.58 1.07.229.438 1.1-.384 3.35-1.015 5-1.402zm75.407.887c15.89-.105 7.185-1.618-11.907-2.07-9.625-.227-15.588-.265-13.25-.083 6.36.496 5.122 2.067-2 2.539-3.438.227-.892.248 5.657.046 6.549-.203 16.224-.397 21.5-.432zM187 353.643c0-2.246.383-2.776 1.75-2.42 1.506.392 1.793-.414 2.06-5.783.45-9.063 1.396-11.656 5.029-13.778 2.626-1.534 3.48-1.643 4.733-.603 1.252 1.04 1.829.969 3.192-.395 1.553-1.552 1.42-1.664-1.968-1.664-4.537 0-6.796-.834-6.796-2.51 0-.848-1.77-1.417-5.119-1.643-4.183-.284-5.367.009-6.483 1.602-.943 1.347-2.45 1.918-4.881 1.849-1.934-.055-3.517.332-3.517.86s-.45.682-1 .342-1-.168-1 .382c0 1.678 1.855 2.266 3.825 1.212 1.335-.715 2.431-.603 3.854.394 1.7 1.19 1.988 1.19 1.988-.004 0-.768-.344-1.184-.765-.924-.42.26-1.07-.023-1.444-.628-.438-.708.146-.982 1.637-.767 2.016.291 2.358.983 2.636 5.335.176 2.75.684 6.35 1.13 8 1.231 4.549-.06 13.111-1.89 12.543-.809-.25-4.396-.517-7.971-.592-4.037-.085-4.605-.003-1.5.215 7.602.535 9.76 1.211 9.128 2.86-.46 1.199-.22 1.236 1.409.218 1.211-.756 1.963-2.327 1.963-4.102zm3-22.077c0-1.887-.617-2.527-2.75-2.85-1.787-.27-1.174-.463 1.75-.55 2.868-.087 4.006.178 3.137.728-1.09.69-1.104.95-.07 1.295.757.252 1.024 1.132.644 2.121-.967 2.52-2.711 2.041-2.711-.744zm4-1.597c0-.533.675-.969 1.5-.969s1.5.177 1.5.393c0 .216-.675.652-1.5.969-.825.316-1.5.14-1.5-.393zm-9.25-3.631c.688-.278 1.813-.278 2.5 0 .688.277.125.504-1.25.504s-1.938-.227-1.25-.504zm5 0c.688-.278 1.813-.278 2.5 0 .688.277.125.504-1.25.504s-1.938-.227-1.25-.504zM87.683 355.812c-.32-.797-.556-.56-.604.605-.043 1.054.193 1.644.525 1.312.332-.332.368-1.195.08-1.916zm41.046.584c-.332-.332-1.195-.368-1.917-.08-.797.32-.56.557.605.605 1.054.043 1.644-.193 1.312-.525zM55 355.559c0-.243-.45-.72-1-1.059-.55-.34-1-.141-1 .441S53.45 356 54 356s1-.198 1-.441zm135.541-.626c1.026-1.66.105-1.89-1.33-.332-.71.77-.849 1.399-.31 1.399.54 0 1.278-.48 1.64-1.067zm-131.812-.537c-.332-.332-1.195-.368-1.917-.08-.797.32-.56.557.605.605 1.054.043 1.644-.193 1.312-.525zm55.188.243c-.23-.198-5.367-.605-11.417-.903-6.08-.3-9.882-.183-8.5.261 2.422.778 20.757 1.37 19.917.642zm4.333-.301c-.688-.278-1.813-.278-2.5 0-.688.277-.125.504 1.25.504s1.937-.227 1.25-.504zm-67.128-3.013c-1.179-2.027-1.463-1.378-.498 1.136.342.894.834 1.415 1.091 1.157.258-.257-.01-1.29-.593-2.293zm102.158 1.944c-2.32-.21-6.37-.212-9-.006-2.629.207-.73.379 4.22.382 4.95.003 7.101-.166 4.78-.376zm-97.483-4.404c-.315-2.001-.455-1.86-.916.916-.33 1.988-.183 2.92.372 2.366.504-.504.749-1.98.544-3.282zM72 351.411c5.77-.864 7.773-2.594 7.237-6.248-.44-3.002 2.06-6.564 4.125-5.876.622.208 1.403 2.05 1.735 4.096.333 2.045 1.02 4.135 1.53 4.643 1.288 1.29 9.408 1.748 52.373 2.96 20.625.582 39.173 1.229 41.218 1.437l3.719.378-.488-7.605c-.616-9.602-2.162-12.196-7.272-12.196-4.12 0-6.177-1.399-6.177-4.2 0-1.888.23-1.972 6.246-2.271 2.06-.103 3.967-.409 4.238-.68.271-.27.721-4.51 1-9.42.28-4.911.723-12.304.985-16.429.261-4.125.77-20.367 1.13-36.093l.654-28.593-5.876.378c-14.342.923-16.804 1.949-17.536 7.308-.26 1.909-.932 2.5-2.841 2.5-2.099 0-2.551-.53-2.818-3.307-.174-1.82-.929-3.542-1.676-3.829-.747-.287-21.979-1.08-47.182-1.764-25.203-.683-46.601-1.592-47.551-2.02-1.58-.71-1.684-.08-1.213 7.433.614 9.792 2.26 12.706 7.44 13.172 2.96.266 3.548.73 3.81 3.005.29 2.512.027 2.71-4 3l-4.31.31-.632 16c-1.3 32.94-2.139 72.352-1.57 73.832.607 1.585 3.527 1.602 13.702.079zm49.728.86c-2.075-.217-5.225-.214-7 .007-1.776.221-.078.398 3.772.394 3.85-.004 5.302-.185 3.228-.402zm-17.944-1.005c-2.595-.205-7.095-.207-10-.005-2.906.203-.784.371 4.716.374 5.5.003 7.878-.163 5.284-.369zm-49.326-17.293c1.059-30.408 1.384-66.381.578-63.973-.46 1.375-.881 15.438-.936 31.25-.055 15.813-.438 28.75-.85 28.75-.412.001-.525-13.836-.25-30.75.275-16.912.201-31.875-.164-33.25l-.664-2.5-.081 2.5c-.113 3.472-.234 61.197-.156 73.95.097 15.602 1.922 11.277 2.523-5.977zm2.289-24.223c-.173-6.737-.315-1.225-.315 12.25s.142 18.988.315 12.25c.173-6.737.173-17.762 0-24.5zm-7.022 13.018c-.223-1.797-.41-.568-.415 2.732-.006 3.3.176 4.77.405 3.268.228-1.503.232-4.203.01-6zm133.993-5.504c-.23-1.52-.424-.514-.432 2.236-.007 2.75.18 3.994.418 2.764.237-1.23.243-3.48.014-5zm2.962-19.514l-.011-25.25-.597 24.5c-.547 22.475-.502 26 .333 26 .158 0 .282-11.363.276-25.25zm8.038 18.514c-.23-1.52-.424-.514-.432 2.236-.007 2.75.18 3.994.418 2.764.237-1.23.243-3.48.014-5zm-5.687-24.676c-.049-15.88-.327-29.258-.619-29.73-.291-.472-.054-.858.529-.858.72 0 1.064 8.747 1.074 27.25.01 15.866.42 27.877.985 28.75.658 1.018.965-2.038.956-9.5-.017-12.977-1.76-53.157-2.865-66-.774-9-.774-9-.963 5.5-.599 45.95-.53 73.967.181 73.73.446-.148.77-13.262.722-29.142zm-140.287 5.708c-.188-4.288-.343-1.046-.344 7.204-.001 8.25.152 11.758.342 7.796.189-3.963.19-10.713.002-15zm1.21-27.102c-.796-1.246-.933 1.19-.518 9.212.31 5.998.668 17.473.795 25.5.153 9.69.328 6.595.518-9.212.191-15.849-.074-24.373-.795-25.5zm134.792 13.056c-.18-5.362-.327-.975-.327 9.75s.147 15.113.326 9.75c.18-5.362.18-14.137 0-19.5zm-127.014 1.5c-.21-2.337-.383-.425-.383 4.25s.173 6.588.383 4.25c.21-2.337.21-6.162 0-8.5zm135.991 1c-.221-1.788-.403-.325-.403 3.25s.182 5.037.403 3.25c.222-1.788.222-4.713 0-6.5zm-145.998-7.982c-.223-1.797-.41-.568-.415 2.732-.006 3.3.176 4.77.405 3.268.228-1.503.232-4.203.01-6zm145.02-18.97c-.186-4.564-.339-1.098-.34 7.702-.001 8.8.15 12.534.337 8.297.187-4.236.188-11.436.002-16zM57.662 276.75c-.277-.688-.504-.125-.504 1.25s.227 1.938.504 1.25c.278-.688.278-1.813 0-2.5zm128.063-13.982c-.223-1.797-.41-.568-.415 2.732-.006 3.3.176 4.77.405 3.268.228-1.503.232-4.203.01-6zm-128.058-1.244c-.092-.537.958-1.113 2.333-1.28 5.17-.628 7.066-1.328 6.422-2.37-.362-.586-1.952-.876-3.533-.644-1.58.232-2.68.229-2.445-.007.236-.236-.617-1.395-1.895-2.576-2.888-2.67-5.029-15.972-3.347-20.797 1.22-3.5.98-3.876-1.805-2.82-1.843.698-2.254 2.136-3.32 11.616-.67 5.95-1.592 11.277-2.05 11.836-1.403 1.716-1.59 5.135-.362 6.614 1.32 1.59 10.265 1.972 10.002.427zm-6.653-1.938c.648-.648 1.324-.648 1.972 0 .647.647.31.985-.986.985-1.295 0-1.633-.338-.986-.985zm6.529-1.517c-.317-.512-.118-1.213.44-1.559.56-.345 1.017.074 1.017.931 0 1.757-.6 2.015-1.457.628zm-6.074-2.12c-.368-.595-.4-1.352-.07-1.682.33-.33.608.037.616.816.013 1.167.187 1.152.985-.083.582-.901.975-1.025.985-.309.021 1.684-1.716 2.553-2.516 1.259zM52 233.5c0-.825.375-1.5.833-1.5.459 0 .834.675.834 1.5s-.375 1.5-.834 1.5c-.458 0-.833-.675-.833-1.5zm-6 24.161c0-1.7-6.457-1.604-8.182.12-.957.958-.212 1.219 3.482 1.219 3.26 0 4.7-.41 4.7-1.339zm145.728-20.411c-.215-2.063-.392-.375-.392 3.75s.177 5.813.392 3.75c.216-2.063.216-5.438 0-7.5zm-32.451 2.008c.123-1.698.448-3.073.723-3.055 1.828.123 2.072-.423.872-1.953-1.236-1.576-1.203-1.617.334-.414.939.735 2.121 1.08 2.628.766.507-.313 5.14-.829 10.294-1.146 5.155-.317 10.572-1.171 12.04-1.898 1.996-.99 2.99-1.037 3.951-.19.938.826.924.656-.05-.63-.999-1.32-1.666-1.487-2.654-.668-.784.651-2.251.778-3.617.314-1.264-.429-2.626-.694-3.027-.59-.4.106-4.225-.272-8.5-.839-6.855-.91-8.11-1.41-10.645-4.243-2.502-2.796-2.805-2.92-2.344-.962.292 1.238.067 2.25-.5 2.25-.644 0-.763-1.222-.318-3.25 1.139-5.181 1.112-6.008-.214-6.476-.87-.307-1.25.826-1.25 3.736 0 3.286-.412 4.285-1.93 4.682-1.063.278-2.174 1.136-2.47 1.907-.615 1.603.96 1.92 1.91.385 1.134-1.835 2.492.07 2.372 3.325l-.119 3.191-.72-3-.719-3-.8 3c-.44 1.65-1.243 3.563-1.784 4.25-.874 1.11.844 1.695 4.26 1.451.275-.02.432 1.773.349 3.983-.177 4.695 1.582 3.85 1.928-.926zm-.262-7.926c-.03-2.295 1.223-4.332 2.665-4.332.807 0 1.321.699 1.143 1.553-.178.854-.723 1.49-1.211 1.414-.489-.076-1.27.463-1.735 1.198-.553.873-.852.93-.862.167zm-16.765 3.924c-4.537-.185-11.963-.185-16.5 0-4.537.185-.825.337 8.25.337s12.787-.152 8.25-.337zm-36.5-.991c-2.612-.206-6.888-.206-9.5 0s-.475.375 4.75.375 7.362-.169 4.75-.375zm-35.5-.988c-1.788-.222-4.713-.222-6.5 0-1.788.221-.325.403 3.25.403s5.037-.182 3.25-.403zm80.355-.005c-.254-.254-6.007-.682-12.784-.952-6.776-.27-12.508-.677-12.738-.905-.229-.228 3.596-.512 8.5-.632 4.905-.12.142-.472-10.583-.783l-19.5-.565 18-.292c9.9-.16 20.025-.675 22.5-1.143 3.156-.598.916-.73-7.5-.442-6.6.226-25.05.666-41 .978-26.989.528-36.211 1.086-35.17 2.128.233.233 7.004.693 15.047 1.023 11.057.454 14.623.307 14.623-.602 0-.662.457-.92 1.016-.575.56.346.765 1.035.458 1.533-.321.52 5.955 1.044 14.733 1.233 23.648.508 44.908.505 44.398-.005zm-49.792-3.955c.721-.289 1.584-.253 1.916.08.332.332-.258.568-1.312.524-1.165-.048-1.402-.285-.605-.604zm-42.017 1.729c-.671-1.075-1.414-1.761-1.65-1.524-.43.428 1.75 3.478 2.485 3.478.212 0-.163-.88-.835-1.954zM150 229c.825-.533 1.05-.97.5-.97s-1.675.437-2.5.97c-.825.533-1.05.97-.5.97s1.675-.437 2.5-.97zm-70.75-1.74c-3.438-.196-9.063-.196-12.5 0-3.438.195-.625.355 6.25.355s9.688-.16 6.25-.355zm23.5-.995c-2.612-.206-6.888-.206-9.5 0s-.475.375 4.75.375 7.362-.169 4.75-.375zm35-1c-2.612-.206-6.888-.206-9.5 0s-.475.375 4.75.375 7.362-.169 4.75-.375zm-58.617-60.447c-.488-1.275-1.28-3.636-1.76-5.246-.923-3.096-2.865-3.996-10.736-4.973-8.853-1.1-11.132-1.665-12.59-3.124-2.234-2.233-.144-4.92 4.054-5.21 14.066-.977 21.258-4.18 20.667-9.207-.309-2.62 2.201-4.668 4.596-3.749 1.136.436 1.636 1.846 1.636 4.614 0 5.022-2.558 4.634 40 6.072 50.108 1.694 56.189 2.083 58.748 3.76 2.753 1.803 2.92 4.817.344 6.196-1.124.601-20.937 1.484-48.237 2.15-25.48.62-47.319 1.505-48.529 1.965-1.638.623-2.28 1.807-2.513 4.635-.252 3.057-.75 3.861-2.553 4.117-1.59.226-2.499-.356-3.127-2zm3.882-3.068c.027-5.564.83-6.003 11.124-6.066l9.361-.057-8.093-.35-8.092-.35-.174-4.896c-.163-4.626-.021-4.92 2.593-5.337 2.337-.373 2.223-.448-.734-.483-1.925-.023-4.774-.32-6.33-.66-1.83-.4-2.604-.254-2.191.415.351.569.125 1.034-.503 1.034-.629 0-.944-.562-.702-1.25.243-.687 1.18-1.187 2.084-1.111 1.27.107 1.642-.76 1.642-3.833 0-4.691-2.323-4.88-2.8-.229-.338 3.3-3.067 7.383-5.249 7.855-6.36 1.374-7.953 1.962-7.966 2.943-.009.619-.452.45-.985-.375-.836-1.294-.971-1.27-.985.183-.008.925.998 1.953 2.235 2.285 6.999 1.873 10.378 2.988 11.416 3.765.762.57 1.33.247 1.634-.93.298-1.15.51-.784.584 1.006.064 1.545-.269 2.571-.74 2.28-.78-.482-.544 3.098.406 6.161.78 2.515 2.45 1.16 2.465-2zm-.687-5.842c.355-1.324.65-4.32.658-6.658.01-3.105.418-4.25 1.514-4.25 2.504 0 2.003 8.497-.658 11.158l-2.158 2.158zm2.378-8.158c-.239-1.238-.434-.225-.434 2.25s.195 3.487.434 2.25c.238-1.238.238-3.263 0-4.5zm35.544 6.518c-2.337-.21-6.162-.21-8.5 0-2.337.21-.425.383 4.25.383s6.588-.173 4.25-.383zm.667-1.906c.833-.725-27.488-.14-29.917.617-1.375.43 4.7.548 13.5.263 8.8-.284 16.188-.68 16.417-.88zm39.833.899c-3.163-.198-8.338-.198-11.5 0-3.163.198-.575.36 5.75.36s8.912-.162 5.75-.36zm23.25-1.809c0-1.181-1.89-1.18-2.344.003-.37.963-.072 1.258.895.887.797-.306 1.449-.706 1.449-.89zM57.488 150.25a84.73 84.73 0 0 0-.411-2.059c-.043-.17-.549-.017-1.126.339-.716.443-.678 1.094.123 2.059 1.534 1.848 1.82 1.78 1.414-.339zm6.512 0c0-1.2-.786-1.75-2.5-1.75-3.111 0-3.309 2.205-.25 2.794 1.238.239 2.362.495 2.5.57.138.075.25-.652.25-1.614zm28 .25c.685-.825 1.002-1.5.704-1.5-.297 0-1.365-.267-2.372-.594-1.53-.497-1.585-.414-.332.5 1.333.972 1.333 1.203 0 2.079-.825.541-.993.991-.372 1 .62.008 1.687-.66 2.372-1.485zm74.917.635c7.379-.074 13.197-.354 12.93-.622-.268-.268-7.605-.775-16.305-1.127-11.623-.47-15.633-.342-15.12.487.382.62.22 1.127-.363 1.127-.582 0-1.059-.675-1.059-1.5 0-1.22-1.45-1.467-7.75-1.323l-7.75.176 7 .647c6.8.628 6.858.656 2 .965l-5 .319 4 .673c2.2.37 6.25.593 9 .494 2.75-.1 11.037-.241 18.417-.316zm-59.667-3.867c-2.337-.21-6.162-.21-8.5 0-2.337.21-.425.383 4.25.383s6.588-.173 4.25-.383zm63.956-.011c-4.011-.19-10.311-.19-14 .003-3.688.191-.406.347 7.294.346 7.7-.002 10.718-.159 6.706-.35zm-28.456-.985c-2.063-.216-5.438-.216-7.5 0-2.063.215-.375.392 3.75.392s5.813-.177 3.75-.392zm-24-1.007c-2.612-.206-6.888-.206-9.5 0s-.475.375 4.75.375 7.362-.169 4.75-.375zm83.75 7.601c-1.1-.612-3.8-3.04-6-5.394-9.912-10.607-38.069-41.03-47.638-51.472-5.796-6.325-11.226-11.634-12.067-11.798-.84-.163-2.89.85-4.556 2.25-3.828 3.222-5.035 3.207-5.858-.07-.53-2.108-.046-3.189 2.481-5.55 3.651-3.413 3.753-3.996 1.323-7.622-.999-1.49-2.716-4.06-3.818-5.71-1.101-1.65-2.295-3.788-2.653-4.75-1.096-2.945-2.3-2.038-7.532 5.672-5.36 7.9-5.714 10.312-2.034 13.867 1.019.984 1.852 2.896 1.852 4.25 0 3.115-2.92 3.292-7.512.454l-3.248-2.008-13.37 14.281c-7.353 7.855-18.095 19.431-23.87 25.725-20.528 22.373-25.312 26.971-28.75 27.633-3.232.622-3.25.603-3.25-3.396 0-4.287.195-4.573 15.011-22.048 3.582-4.224 9.038-10.83 12.126-14.68 3.088-3.85 11.07-13.514 17.739-21.475 12.322-14.712 13.987-17.957 10.242-19.962-1.036-.554-2.168-1.752-2.518-2.662-1.536-4.003 5.29-6.15 7.632-2.401 1.24 1.984 6.768 2.91 6.768 1.133 0-.477 1.688-2.012 3.75-3.412 2.063-1.4 5.663-4.385 8.002-6.633 3.088-2.97 5.09-4.088 7.316-4.088 4.112 0 6.932 1.641 6.932 4.035 0 1.08.594 1.965 1.321 1.965s3.435 2.025 6.018 4.5c5.17 4.955 7.435 5.512 10.161 2.5 2.154-2.38 6.319-2.636 7.161-.44.36.94-.49 2.696-2.141 4.42-1.507 1.572-2.578 3.294-2.38 3.825.327.878 14.39 18.177 33.86 41.654 23.917 28.838 24.868 30.127 25.189 34.148.261 3.268-.01 3.932-1.689 4.133-1.1.132-2.9-.261-4-.874zM199 146.5c-2.429-2.475-4.641-4.5-4.916-4.5-.275 0 1.487 2.025 3.916 4.5s4.641 4.5 4.916 4.5c.275 0-1.487-2.025-3.916-4.5zM53.388 133.818c-.597-.965 6.61-8.937 7.553-8.355.697.431 5.193-4.028 13.568-13.457 3.212-3.616 3.357-3.921.741-1.563-4.379 3.95-4.162 1.834.25-2.443 1.925-1.866 3.5-2.985 3.5-2.488 0 1.215 8.175-6.804 13.265-13.012l4.099-5-5.182 4.962C88.332 95.192 86 97.026 86 96.538c0-.488-1.138.183-2.53 1.49-1.39 1.307-2.317 2.927-2.059 3.6.259.675-.178 1.764-.97 2.421-.793.658-1.441.828-1.441.377 0-.45-1.575.708-3.5 2.574-6.338 6.143-3.656 2.087 5.558-8.406 4.982-5.673 9.747-11.39 10.59-12.704 2.1-3.278-1.756.95-14.547 15.95-5.72 6.707-10.634 11.96-10.92 11.674-.288-.287.567-1.718 1.898-3.18 1.332-1.46 1.891-2.353 1.244-1.981-.647.37-2.653 2.581-4.457 4.91-1.973 2.549-2.4 3.478-1.073 2.332 1.214-1.048 2.207-1.47 2.207-.937 0 1.313-5.502 6.507-6.177 5.832-.296-.296-1.165.26-1.93 1.236-1.267 1.613-1.234 1.65.357.402.963-.755 1.75-.938 1.75-.405 0 1.26-3.51 4.434-4.17 3.773-.28-.28-1.369.472-2.42 1.67-1.05 1.198-1.347 1.849-.66 1.447.688-.402 1.25-.31 1.25.206 0 1.192-2.525 3.323-3.171 2.676-.268-.268-1.577.749-2.908 2.259L45.5 136.5l2.574-2.26c2.444-2.144 3.926-2.109 3.926.093 0 .55-.285.716-.632.368-.61-.61-11.368 11.798-11.368 13.111 0 .356 3.115-2.481 6.922-6.305 3.806-3.823 6.716-7.284 6.466-7.689zm1.176-6.922c.316-.51.946-.699 1.401-.417.455.28 4.073-3.312 8.04-7.984 3.966-4.672 7.291-8.495 7.389-8.495.098 0 .177.97.177 2.154 0 2.177-9.38 13.371-10.372 12.378-.295-.295-1.382.229-2.416 1.164-2.026 1.833-5.161 2.725-4.219 1.2zm8.564-4.646c1.243-1.586 1.208-1.621-.378-.378-.962.755-1.75 1.543-1.75 1.75 0 .823.821.294 2.128-1.372zM68 116.5c1.866-1.925 3.167-3.5 2.892-3.5-.275 0-2.026 1.575-3.892 3.5s-3.167 3.5-2.892 3.5c.275 0 2.026-1.575 3.892-3.5zm14-15.19c0-.55.9-1.815 2-2.81 1.1-.995 2-1.36 2-.81s-.9 1.815-2 2.81c-1.1.995-2 1.36-2 .81zm120.836 44.94c-10.377-12.32-14.64-17.517-16.184-19.734-1.017-1.459-2.11-2.39-2.43-2.07-.321.32-1.803-.586-3.293-2.014-1.878-1.8-2.932-2.236-3.434-1.423-.49.791-2.048-.076-4.795-2.668-2.238-2.113.821 1.446 6.799 7.909 5.977 6.462 11.104 11.75 11.393 11.75.288 0-1.482-2.05-3.934-4.557-2.452-2.506-3.67-4.258-2.708-3.893 1.849.701 2.467-.989.75-2.05-.55-.34-1-1.097-1-1.681 0-.658.589-.575 1.543.217.848.704 1.385 1.996 1.193 2.872-.296 1.343 15.61 19.092 17.11 19.092.255 0-.2-.788-1.01-1.75zm-23.737-21.645c-1.478-1.573-1.872-2.627-1.15-3.074.611-.377.978-.11.826.6-.151.703.357 1.299 1.13 1.324.772.025 1.52.833 1.661 1.795.33 2.245.221 2.217-2.467-.644zM51.5 140c3.82-3.85 6.721-7 6.446-7-.275 0-3.626 3.15-7.446 7s-6.721 7-6.446 7c.275 0 3.626-3.15 7.446-7zm154.5 6.622c0-.207-.787-.995-1.75-1.75-1.586-1.243-1.621-1.208-.378.378 1.307 1.666 2.128 2.195 2.128 1.372zm-3-4c0-.207-.787-.995-1.75-1.75-1.586-1.243-1.621-1.208-.378.378 1.307 1.666 2.128 2.195 2.128 1.372zM44 139.5c1.292-1.375 2.124-2.5 1.849-2.5-.275 0-1.557 1.125-2.849 2.5-1.292 1.375-2.124 2.5-1.849 2.5.275 0 1.557-1.125 2.849-2.5zm154-2.878c0-.207-.787-.995-1.75-1.75-1.586-1.243-1.621-1.208-.378.378 1.307 1.666 2.128 2.195 2.128 1.372zM57 131.5c1.292-1.375 2.124-2.5 1.849-2.5-.275 0-1.557 1.125-2.849 2.5-1.292 1.375-2.124 2.5-1.849 2.5.275 0 1.557-1.125 2.849-2.5zm137 .155c0-.19-1.012-1.202-2.25-2.25l-2.25-1.905 1.905 2.25c1.79 2.114 2.595 2.705 2.595 1.905zM66 124.5c2.987-3.025 5.207-5.5 4.932-5.5-.275 0-2.945 2.475-5.932 5.5-2.987 3.025-5.207 5.5-4.932 5.5.275 0 2.945-2.475 5.932-5.5zm123 1.174c0-.179-1.238-1.416-2.75-2.75l-2.75-2.424 2.424 2.75c2.266 2.57 3.076 3.209 3.076 2.424zm-7.996-6.17c-1.29-1.373-2.573-2.269-2.85-1.99-.278.277-1.552-.478-2.83-1.68-1.278-1.2-2.324-1.8-2.324-1.334 0 .467-1.238-.238-2.75-1.566-1.836-1.613-1.618-1.185.658 1.287 1.875 2.035 3.757 3.486 4.181 3.224.425-.263 1.06-.013 1.411.555.351.568.997.81 1.435.54.439-.271 1.603.397 2.586 1.484.984 1.087 2.023 1.976 2.308 1.976.286 0-.536-1.123-1.825-2.496zm2.996.118c0-.207-.787-.995-1.75-1.75-1.586-1.243-1.621-1.208-.378.378 1.307 1.666 2.128 2.195 2.128 1.372zM77.5 112c2.709-2.75 4.7-5 4.425-5-.275 0-2.716 2.25-5.425 5-2.709 2.75-4.7 5-4.425 5 .275 0 2.716-2.25 5.425-5zm100.5 3.674c0-.179-1.238-1.416-2.75-2.75l-2.75-2.424 2.424 2.75c2.266 2.57 3.076 3.209 3.076 2.424zm-11-3.962c0-.158-2.362-2.52-5.25-5.25l-5.25-4.962 4.962 5.25c4.612 4.878 5.538 5.709 5.538 4.962zm2.51-2.702c-1.575-1.644-3.092-2.76-3.371-2.482-.28.279-2.112-.963-4.073-2.76-3.377-3.093-3.359-3.043.347.942 2.151 2.314 4.229 4.011 4.616 3.772.387-.24 1.509.455 2.492 1.542.984 1.087 2.028 1.976 2.321 1.976.293 0-.757-1.345-2.332-2.99zm-.667-4.223A20900.94 20900.94 0 0 0 158.5 92.385c-3.3-3.953-7.143-8.657-8.541-10.453-2.228-2.863-2.782-3.113-4.5-2.03-1.875 1.182-1.863 1.215.269.766 1.778-.374 2.972.57 5.917 4.681 3.848 5.372 20.358 24.651 21.11 24.651.237 0-1.523-2.346-3.912-5.213zm6.157 3.835c0-.207-.787-.995-1.75-1.75-1.586-1.243-1.621-1.208-.378.378 1.307 1.666 2.128 2.195 2.128 1.372zM73 104.5c1.292-1.375 2.124-2.5 1.849-2.5-.275 0-1.557 1.125-2.849 2.5-1.292 1.375-2.124 2.5-1.849 2.5.275 0 1.557-1.125 2.849-2.5zm87-6.5c-3.413-3.85-6.473-7-6.8-7-.325 0 .846 1.484 2.604 3.298 4.442 4.582 4.016 5.848-.554 1.648L151.5 92.5l3.408 3.711c1.875 2.041 3.719 3.52 4.097 3.286.38-.234 1.967.908 3.53 2.539 5.285 5.517 3.708 3.006-2.535-4.036zm12 6.674c0-.179-1.238-1.416-2.75-2.75L166.5 99.5l2.424 2.75c2.266 2.57 3.076 3.209 3.076 2.424zM92.5 96c3.266-3.3 5.712-6 5.437-6-.275 0-3.171 2.7-6.437 6-3.266 3.3-5.712 6-5.437 6 .275 0 3.171-2.7 6.437-6zm-14.372 2.25c1.243-1.586 1.208-1.621-.378-.378-.963.755-1.75 1.543-1.75 1.75 0 .823.821.294 2.128-1.372zm76.872.462c0-.158-2.362-2.52-5.25-5.25L144.5 88.5l4.962 5.25c4.612 4.878 5.538 5.709 5.538 4.962zm12-.09c0-.207-.787-.995-1.75-1.75-1.586-1.243-1.621-1.208-.378.378 1.307 1.666 2.128 2.195 2.128 1.372zM83.128 92.25c1.243-1.586 1.208-1.621-.378-.378-.963.755-1.75 1.543-1.75 1.75 0 .823.821.294 2.128-1.372zm13.015-8.75c-.237-1.1-.872-2.563-1.41-3.25-.902-1.152-.337-1.661 1.517-1.368.412.065.75-.332.75-.882 0-2.233-2.065-.684-6.998 5.25l-5.196 6.25 4.73-5c2.601-2.75 4.45-4.19 4.108-3.198-.368 1.067-.218 1.553.367 1.19.544-.335.989.187.989 1.161s-1.913 3.798-4.25 6.275l-4.25 4.504 5.038-4.466c3.62-3.209 4.916-5.029 4.605-6.466zM162 92.622c0-.207-.787-.995-1.75-1.75-1.586-1.243-1.621-1.208-.378.378 1.307 1.666 2.128 2.195 2.128 1.372zm-10-.926c0-.167-1.688-1.854-3.75-3.75L144.5 84.5l3.446 3.75c3.208 3.49 4.054 4.21 4.054 3.446zm1-2.041c0-.19-1.012-1.202-2.25-2.25L148.5 85.5l1.905 2.25c1.79 2.114 2.595 2.705 2.595 1.905zm-53.385-5.237c.13-.88-.069-1.298-.44-.926-.371.37-.682.975-.69 1.341-.009.367-.412 1.342-.897 2.167-.714 1.216-.628 1.265.455.26.735-.682 1.443-1.96 1.572-2.842zm14.385.749c0-.825-.293-1.207-.651-.85-.358.359-1.158-.04-1.777-.887-.672-.92-1.813-1.275-2.834-.883-1.543.592-1.501.824.43 2.388 2.63 2.13 4.832 2.236 4.832.232zm43 1.455c0-.207-.787-.995-1.75-1.75-1.586-1.243-1.621-1.208-.378.378 1.307 1.666 2.128 2.195 2.128 1.372zM105.84 81.5c-.192-2.52.273-3.5 1.66-3.5.825 0 1.5.75 1.5 1.667 0 .916.28 1.386.624 1.043.342-.343.269-1.43-.164-2.417-1.263-2.876-1.187-3.676.547-5.793 2.694-3.289 8.282-12.545 7.84-12.987-.227-.226-2.32 1.1-4.654 2.946-2.763 2.187-3.798 3.56-2.968 3.94.701.32.308.346-.874.056-1.51-.37-2.744.23-4.144 2.01-1.097 1.394-2.943 2.535-4.1 2.535-1.16 0-2.143.563-2.186 1.25-.06.938-.21.923-.603-.06-.289-.72-1.63-2.503-2.982-3.961-1.985-2.142-2.625-2.38-3.332-1.236-.595.963-.176 2.09 1.31 3.528 1.203 1.162 2.482 1.97 2.843 1.795.36-.175.407.694.102 1.933-.305 1.238-.195 1.92.244 1.517.44-.404 1.44.046 2.222 1 .783.953 1.138 1.172.79.484-.893-1.763.494-1.552 2.656.405 3.825 3.461 1.37 5.925-2.592 2.602-1.618-1.356-1.557-1.151.276.926 1.408 1.596 2.045 3.17 1.585 3.914-.423.685.41.38 1.853-.676 1.442-1.057 2.588-2.371 2.546-2.921zm25.331 2.845c2.691-2.435 2.226-3.651-.671-1.753-1.375.9-2.5 2.036-2.5 2.523 0 1.343 1.143 1.066 3.171-.77zM148.5 84c-.34-.55-1.154-.993-1.809-.985-.716.01-.592.403.309.985 1.921 1.242 2.267 1.242 1.5 0zm-5.986-5.435c.079-1.073.733-2.147 1.454-2.388.777-.259 1.026.023.612.693-.384.622-.221 1.13.361 1.13S146 77.459 146 76.797s1.895.576 4.21 2.75l4.212 3.953-4.195-4.71c-4.485-5.036-4.604-6.43-.904-10.54 1.114-1.238 1.552-2.25.973-2.25-.578 0-1.677.942-2.441 2.092-.948 1.427-2.522 2.125-4.95 2.194-2.97.084-4.185-.59-7.324-4.065-2.07-2.291-5.096-4.83-6.724-5.642-2.799-1.397-2.926-1.372-2.345.46.882 2.779 5.481 10.839 6.568 11.51.506.313.92 1.667.92 3.01 0 1.343.563 2.473 1.25 2.511.688.039.35.457-.75.93l-2 .86 2 .085c1.664.071 1.748.249.5 1.055-1.138.736-.716.973 1.75.985 1.909.009 3.263.53 3.28 1.265.046 1.864 2.317-2.42 2.484-4.685zm-2.955.933c1.912-1.48 1.911-1.494-.059-.913-1.605.474-1.445.08.806-1.997 2.822-2.603 5.694-3.42 5.694-1.62 0 .533-.603.738-1.34.455-.737-.283-1.823.069-2.415.781C141.183 77.484 141 78.043 141 80c0 .55-.761 1-1.691 1-1.477 0-1.446-.19.25-1.502zM143 71.94c0-.582.45-.78 1-.441.55.34 1 .816 1 1.059s-.45.441-1 .441-1-.477-1-1.059zm-12-3.319c0-.207.787-.995 1.75-1.75 1.586-1.243 1.621-1.208.378.378-1.307 1.666-2.128 2.195-2.128 1.372zm-8-11.039c0-.779.563-1.643 1.25-1.92.793-.32.653-.534-.383-.584-.899-.043-1.87.821-2.157 1.921-.287 1.1-.115 2 .384 2 .498 0 .906-.638.906-1.417zM119.5 57c-.34-.55-.067-1 .608-1 .674 0 .955-.27.625-.6-.898-.898-2.855.593-2.19 1.67.316.511.8.93 1.075.93.275 0 .222-.45-.118-1zm-.833-20.667c-1.295-1.294-.638-4.096 1.803-7.693l2.47-3.64h-2.348c-2.638 0-5.102-2.366-4.12-3.956.356-.574 3.334-1.044 6.618-1.044 7.173 0 8.215 1.406 4.597 6.201-1.37 1.814-3.187 4.986-4.038 7.049-1.435 3.478-3.383 4.683-4.982 3.083zM125.9 24.25c1.131-2.174 1.026-2.245-3.115-2.09-3.756.14-3.878.21-.989.567 2.86.353 3.208.695 2.626 2.59-.784 2.552-.177 2.114 1.478-1.067zm105.833 361.526c-.21-2.352-.387-.676-.39 3.724-.004 4.4.169 6.324.384 4.276s.218-5.648.007-8zM8.256 11.336c.57-.878 27.92-1.108 110.734-.934 60.488.128 110.208.462 110.489.744.281.281.626 49.976.766 110.433.14 60.456.506 113.521.813 117.921.308 4.4.645-45.407.75-110.683.181-112.252.097-118.711-1.558-119.214-3.407-1.035-221.7-.414-223 .635-.994.8-1.2 40.4-1.006 193.134L6.487 395.5 6.994 204C7.272 98.675 7.84 11.976 8.256 11.335zM231.662 365.75c-.277-.688-.504-.125-.504 1.25s.227 1.938.504 1.25c.278-.688.278-1.813 0-2.5zm.021-8.938c-.32-.797-.556-.56-.604.605-.043 1.054.193 1.644.525 1.312.332-.332.368-1.195.079-1.916zm.063-33.51c-.18-5.391-.328-1.252-.33 9.198 0 10.45.147 14.86.328 9.802.181-5.059.182-13.609.002-19zm-.028-17.038c-.23-1.52-.424-.514-.432 2.236-.007 2.75.18 3.994.418 2.764.237-1.23.243-3.48.014-5zm.029-36.459c-.176-6.218-.32-1.405-.32 10.695-.002 12.1.142 17.187.319 11.305.176-5.882.177-15.782 0-22zm-.03-18.541c-.23-1.52-.423-.514-.431 2.236-.007 2.75.18 3.994.418 2.764.237-1.23.243-3.48.014-5z"/></svg>