<svg xmlns="http://www.w3.org/2000/svg" width="246" height="420" viewBox="0 0 246 420"><path d="M152.75 418.338c.688-.278 1.813-.278 2.5 0 .688.277.125.504-1.25.504s-1.938-.227-1.25-.504zm26-.087c12.238-.16 32.263-.16 44.5 0 12.238.16 2.225.29-22.25.29s-34.487-.13-22.25-.29zM5.41 409.913c-.51-.79-.993-23.664-1.098-51.913-.104-27.775-.478-117.352-.833-199.059-.535-123.488-.418-148.747.695-149.67.953-.791 33.8-1.322 113.918-1.842 109.928-.713 112.596-.685 113.306 1.165.4 1.042.929 66.697 1.176 145.9.248 79.203.617 168.823.822 199.154l.371 55.149-2.918.583c-1.605.321-52.78.89-113.724 1.264-94.88.583-110.937.478-111.716-.731zM30 408.338c-10.92-.732-22.004-.777-22.002-.088 0 .412 5.964.669 13.252.57 7.287-.1 11.225-.316 8.75-.482zm16.269.006c-.677-.274-2.027-.29-3-.037-.973.253-.419.477 1.231.498 1.65.02 2.446-.187 1.769-.461zm152.981-1.093c-11.688-.16-30.813-.16-42.5 0-11.688.16-2.125.291 21.25.291s32.938-.13 21.25-.29zm32.557-18.001c-.194-17.86-.56-15.753-1.045 6.002-.144 6.464.075 11.751.488 11.75.413-.001.663-7.99.557-17.752zM8 370.333c0-19.616-.177-35.479-.393-35.25C6.624 336.126 6.518 406 7.5 406c.275 0 .5-16.05.5-35.667zm181 34.164c16.775-.165 32.587-.345 35.138-.399l4.638-.098-.402-129.25c-.664-213.631-.996-260.33-1.864-261.733-1.17-1.894-216.441-.662-217.769 1.247-.474.682-.609 43.56-.3 95.736 1.49 251.389 1.824 294.56 2.285 295.336.432.724 37.972.547 178.274-.839zM60.073 361.611l-6.427-2.233-2.818-6.939c-3.423-8.432-3.8-13.926-.902-13.169 1.423.373 2.24-.257 3.134-2.415.665-1.606.924-3.205.575-3.554-.35-.349-.635-.083-.635.591 0 .674-.498.918-1.107.542-.754-.466-.88.032-.395 1.56.526 1.656.357 2.118-.643 1.767-.745-.262-1.22-1.328-1.055-2.369.165-1.04.267-2.454.226-3.142-.123-2.083-.023-4.364.596-13.615.419-6.266.22-9.562-.68-11.242-.985-1.841-1.009-2.95-.106-4.932 1.359-2.982 1.586-18.461.271-18.461-1.713 0-2.142-3.298-.712-5.48 1.132-1.728 2.132-2.096 4.675-1.723 2.905.426 3.177.257 2.676-1.661-.307-1.175-.15-2.136.348-2.136s.906.906.906 2.014c0 1.107.558 2.907 1.24 4 .988 1.58.988 2.391 0 3.972-1.493 2.393-1.693 18.616-.24 19.514 1.363.842 1.272 5.5-.107 5.5-1.26 0-.807 22.712.494 24.818 1.306 2.113 1.865 11.513.903 15.182-.937 3.577-2.524 3.939-3.02.69-.153-1.008.17-1.537.727-1.192.552.341 1.003.143 1.003-.439S58.273 346 57.383 346c-1.124 0-1.457.61-1.093 2 .288 1.1.03 2-.572 2s-.147.884 1.013 1.964c2.009 1.872 2.263 1.885 5.438.295 1.832-.918 4.906-1.63 6.831-1.583 6.74.165 17.059 1.61 17.586 2.463.746 1.208 17.16 1.08 17.914-.139.691-1.118 4.806-1.36 5.824-.343 1.31 1.31 12.297 1.497 17.341.295 6.408-1.527 8.882-.842 7.343 2.033-.82 1.534-.771 2.019.207 2.03.903.011.84.303-.215.985-1.015.656 1.732.917 8.5.808 9.992-.161 9.994-.162 3-.808l-7-.647 7-.327c6.749-.315 6.839-.351 2.5-1.026l-4.5-.7 4.5-.333c3.572-.265 2.85-.464-3.5-.967l-8-.633 8.191-.184c4.505-.1 8.476-.645 8.825-1.21.35-.564 2.063-.969 3.81-.9 1.745.07 5.874-.196 9.174-.59 3.501-.417 7.58-.279 9.796.333 4.207 1.162 4.149 1.418 1.465-6.432-.768-2.246-.744-4.394.087-7.693.633-2.517 1.184-6.29 1.222-8.384.064-3.44 1.691-9.324 1.86-6.724.038.596.745 1.084 1.57 1.084 1.215 0 1.487-1.534 1.43-8.084-.048-5.445-.351-7.43-.93-6.083-.794 1.847-.872 1.809-1.03-.5l-.17-2.5-.68 2.433c-.632 2.265-.771 2.154-2.012-1.605-.98-2.971-1.048-4.572-.256-6.052.593-1.107.856-2.235.584-2.506-.27-.271-.535-10.793-.586-23.382-.067-16.493-.475-24.006-1.457-26.888-1.767-5.182-1.736-7.436.166-11.986.857-2.052 1.363-3.925 1.124-4.164-.238-.238-2.31.317-4.604 1.235-3.544 1.418-5.028 1.496-9.875.516-4.839-.977-39.97-1.01-84.204-.076-1.925.041-5.436.73-7.802 1.53-4.02 1.36-8.347 1.139-10.698-.548-.55-.395-2.057-.978-3.349-1.295-2.574-.632-2.577-.724.222 6.875 1.322 3.59 1.33 4.805.07 10-.789 3.252-1.738 8.613-2.11 11.913-.587 5.21-.769 5.605-1.386 3l-.71-3L55 265l-.237 3.5-.763-3c-.686-2.696-.792-2.493-1.05 2l-.286 5-.664-6-.664-6-.3 7.5-.302 7.5-.816-8.5c-.45-4.675-1.352-12.15-2.007-16.611-1.09-7.424-1.01-8.705.938-15.118 1.17-3.854 2.696-7.465 3.39-8.023 1.528-1.231 14.857-5.934 16.261-5.738.55.077 3.25.516 6 .977 2.75.46 6.35.898 8 .972 1.65.075 5.25.29 8 .48l5 .345-4 .716c-2.975.533-3.316.753-1.333.858 1.466.078 2.893.705 3.17 1.392.404 1 .52 1 .584 0 .043-.688.556-1.25 1.138-1.25.582 0 .78.45.441 1-.375.607.88.953 3.191.882 3.763-.117 3.773-.128.809-.882l-3-.763 3.5-.25 3.5-.25L100 225l-3.5-.737 3.191-.131c1.755-.073 3.47-.582 3.809-1.132.801-1.297 5.199-1.297 6 0 .34.55 1.829 1.06 3.309 1.132 2.356.115 2.256.223-.809.868-2.057.433-2.675.82-1.5.939l2 .202-2 .859c-1.322.568 1.09.883 7.111.93l9.112.07-.478-2.5c-.263-1.375-.088-2.53.388-2.568.477-.038 8.517-.22 17.867-.404 9.35-.184 19.103-.896 21.673-1.582 4.21-1.124 5.298-1.022 11 1.036 7.76 2.8 9.166 4.324 11.937 12.929 2.047 6.353 2.088 7.059.665 11.236-1.27 3.73-1.489 10.898-1.334 43.905.166 35.602.365 39.966 2.045 44.765 1.73 4.942 1.751 5.646.301 10-.858 2.576-2.062 6.537-2.675 8.804-1.075 3.974-1.38 4.215-8.52 6.75-8.195 2.909-10.698 3.178-13.853 1.49-3.103-1.661-27.524-2.146-31.548-.627-4.22 1.593-6.823.122-6.37-3.597l.322-2.637-9.321.18-9.322.18 7.5.64 7.5.64-6.719.18c-5.105.137-6.597.497-6.211 1.501.315.821 1.593 1.162 3.378.9 1.58-.232 3.7.06 4.712.648 1.469.854.72 1.076-3.71 1.1-3.053.017-6.078.559-6.723 1.204-.897.897-1.778.897-3.747 0-3.674-1.674-22.815-1.462-29.48.327-7 1.879-8.143 1.815-15.927-.889zm14.72-1.753c4.053-.935 4.859-1.474 4.464-2.984-.282-1.078-1.99-2.26-4.12-2.852-4.862-1.351-6.257-1.287-10.483.478-4.182 1.747-8.654 1.969-8.654.429 0-.59-.675-1.747-1.5-2.572-1.857-1.857-1.878-.67-.047 2.643.937 1.694 3.103 3.033 6.715 4.152 6.664 2.065 7.543 2.11 13.625.706zm33.7.153c.35-.566-.051-.734-.941-.393-1.158.445-1.552-.066-1.552-2.011V355H95.5c-5.775 0-10.5.402-10.5.893 0 2.107-3.114 1.982-3.975-.16-.494-1.228-.927-1.64-.962-.917-.034.723.381 2.145.924 3.16 1.13 2.11 5.013 1.652 5.013-.593 0-1.08 2.078-1.383 9.5-1.383 8.545 0 9.5.184 9.5 1.833 0 2.907 2.196 4.277 3.493 2.178zm24.193-2.037c.373-2.44-1.367-2.635-1.997-.224-.355 1.36-.483 1.265-.573-.427-.068-1.28.605-2.389 1.634-2.692 1.373-.405 1.322-.472-.239-.312-2.363.242-3.174 3.177-1.451 5.253 1.408 1.696 2.197 1.216 2.626-1.598zm38.953 1.31c-.094-1.156.839-1.91 2.861-2.31l3-.596-3.767-.49c-2.396-.312-3.628-.108-3.385.56.21.579-.023 1.84-.518 2.802-.653 1.269-.509 1.75.524 1.75.783 0 1.361-.772 1.285-1.716zm6.115-.387c2.734-1.535 3.07-1.944 1.246-1.514-1.375.324-3.212.596-4.083.603-.871.008-1.584.689-1.584 1.514 0 1.898-.046 1.905 4.42-.603zm-77.474.372c-2.32-.21-6.37-.212-9-.006-2.629.207-.73.379 4.22.382 4.95.003 7.101-.166 4.78-.376zm57.03-1.833c-1.494-1.133-1.54-1.378-.26-1.404.853-.018 2.09.508 2.75 1.168 1.324 1.324 1.518.793.593-1.618-.334-.87-1.429-1.582-2.433-1.582-2.265 0-3.71 3.918-1.865 5.059 2.12 1.31 3.193-.124 1.215-1.623zm9.19 1.596c1.63-.675 1.404-.819-1.216-.779-1.768.027-2.98.431-2.69.898.62 1.005 1.236.986 3.906-.12zm-66.22-1.763c-2.32-.21-6.37-.212-9-.006-2.629.207-.73.379 4.22.382 4.95.003 7.101-.166 4.78-.376zm64.45-.873c-.333-.332-1.196-.368-1.917-.08-.798.32-.561.557.604.605 1.054.043 1.644-.193 1.312-.525zm22.153-8.155c2.05-6.744 2.207-8.338 1.233-12.559-.614-2.659-1.116-6.075-1.116-7.592 0-3.504-.906-4.404-2.85-2.831-1.257 1.017-1.381.987-.687-.164.575-.955.475-1.175-.313-.687-.638.394-1.103 2.6-1.034 4.904.069 2.303-.207 6.051-.612 8.328-.518 2.906-.234 5.657.953 9.23 1.909 5.747 1.378 9.328-1.258 8.485-1.36-.435-1.418-.344-.29.458 2.46 1.749 3.566.348 5.974-7.572zM109 354.607c0-.216-.698-.661-1.552-.989-.89-.341-1.291-.173-.94.393.586.95 2.492 1.406 2.492.596zm54.5-.607c-.34-.55-1.068-1-1.618-1s-.722.45-.382 1c.34.55 1.068 1 1.618 1s.722-.45.382-1zm5.5.067c0-1.126-3.908-2.493-4.742-1.658-.325.325.159.591 1.075.591.917 0 1.667.45 1.667 1s.45 1 1 1 1-.42 1-.933zm10-.067c.825-.533 1.05-.97.5-.97s-1.675.437-2.5.97c-.825.533-1.05.97-.5.97s1.675-.437 2.5-.97zm-3-1c.825-.533 1.05-.97.5-.97s-1.675.437-2.5.97c-.825.533-1.05.97-.5.97s1.675-.437 2.5-.97zm-2.27-1.604c-.333-.332-1.196-.368-1.917-.08-.798.32-.561.557.604.605 1.054.043 1.644-.193 1.312-.525zm-120.506-3.647c-.387-1.48-.695-1.613-1.347-.584-1.197 1.889-1.078 2.502.486 2.502.85 0 1.174-.72.861-1.918zM52 343.559c0-.243-.45-.72-1-1.059-.55-.34-1-.141-1 .441S50.45 344 51 344s1-.198 1-.441zm5.51-4.543c-.287-.465.02-1.026.683-1.247.761-.254.579-.643-.494-1.054-1.323-.508-1.699-.092-1.699 1.875 0 1.458.43 2.262 1.016 1.9.56-.346.781-1.009.494-1.474zm.49-10.114c0-.393-.854-.491-1.898-.218-1.661.434-1.841 1.11-1.147 4.316.15.688 3.045-3.209 3.045-4.098zM53 329c-.589-1.1-1.28-2-1.535-2-.256 0-.465.9-.465 2 0 1.131.667 2 1.535 2 1.225 0 1.32-.404.465-2zm3-2c0-.55-.702-1-1.559-1s-1.28.45-.941 1c.34.55 1.041 1 1.559 1s.941-.45.941-1zm-3.262-16.216c-.202-2.906-.37-.784-.373 4.716-.002 5.5.163 7.878.369 5.284.205-2.595.207-7.095.004-10zm4.205-7.063c-.331-.43-.613 4.296-.627 10.5l-.025 11.279.627-10.5c.344-5.775.356-10.85.025-11.28zm-2.21 8.029c-.211-2.337-.384-.425-.384 4.25s.173 6.588.383 4.25c.21-2.337.21-6.162 0-8.5zm131.95 7.063c-.32-.798-.556-.561-.604.604-.043 1.054.193 1.644.525 1.312.332-.332.368-1.195.08-1.916zM54.224 303.24c-1.741-.58-1.717-19.875.026-20.579.688-.277.237-.54-1-.583-3.049-.107-2.881-2.079.177-2.079 1.47 0 2.607.69 2.884 1.75.344 1.317.486 1.193.573-.5.095-1.85-.407-2.25-2.825-2.25-3.41 0-4.729 1.488-3.08 3.475.756.91 1.044 4.974.837 11.8-.302 9.95-.228 10.389 1.658 9.893 1.1-.289 1.433-.7.75-.927zm130.846-.158c.052-1.164.298-1.054.93.417.82 1.908.863 1.897.93-.25.05-1.607-.502-2.25-1.93-2.25-2.255 0-2.733-2.867-.8-4.8.933-.933.933-1.2 0-1.2-.66 0-1.2-1.2-1.2-2.667 0-1.466-.234-2.433-.519-2.147-.576.575-1.318 13.643-.805 14.157.974.974 3.334.098 3.394-1.26zM54.735 288.25c-.206-2.612-.375-.475-.375 4.75s.169 7.362.375 4.75.206-6.888 0-9.5zm2 0c-.206-2.612-.375-.475-.375 4.75s.169 7.362.375 4.75.206-6.888 0-9.5zM187 279.5c0-.55-1.35-1-3-1s-3 .45-3 1 1.35 1 3 1 3-.45 3-1zm-3.71-5.5c.287-1.1.115-2-.384-2-.498 0-.906.9-.906 2s.173 2 .383 2c.211 0 .62-.9.907-2zm-.119-8c-.21-2.2-.559-4-.776-4-.217 0-.395 1.8-.395 4s.35 4 .776 4c.427 0 .605-1.8.395-4zM56.024 255.75c.013-2.888.403-6.883.867-8.879.634-2.727.35-5.053-1.142-9.366l-1.985-5.739 2.774-2.383c1.807-1.553 2.25-2.383 1.273-2.383-2.365 0-4.308 2.964-6.696 10.214-1.88 5.707-2.047 7.326-1.11 10.802.605 2.25 2.022 5.01 3.148 6.137 1.617 1.617 1.785 2.288.8 3.197-.949.875-1.078.851-.54-.1.387-.688.228-1.25-.354-1.25-1.197 0-1.342 1.1-.452 3.418.334.87 1.234 1.582 2 1.582 1.01 0 1.4-1.44 1.417-5.25zm129.482.241c.873-1.414-.45-5.144-1.578-4.447-1.216.752-1.205 5.456.013 5.456.518 0 1.222-.454 1.565-1.009zm-3.36-6.88c-1.075-.68-1.11-1.31-.168-3.07 1.502-2.806.62-3.781-1.502-1.66-.916.916-1.128 1.619-.488 1.619.621 0 .852.45.512 1-.788 1.276.26 3.005 1.809 2.985.8-.01.746-.298-.162-.873zm5.07-3.689c-.657-1.175-.883-.772-.883 1.578s.226 2.753.883 1.578c.511-.913.511-2.243 0-3.156zM185 239.56c0-.793-.52-1.762-1.155-2.154-.751-.465-.88-.272-.371.552.456.738.207 1.631-.596 2.14-1.09.69-1.012.876.372.888.963.008 1.75-.633 1.75-1.426zm2.722-3.693l-1.38-3.366-.004 3.206c-.003 1.763.37 2.974.828 2.691.459-.283.834.036.834.71 0 .675.247.979.55.676.303-.303-.07-2.065-.829-3.917zm-6.637 1.687c.503.31.915.115.915-.435s-.45-1.278-1-1.618c-.55-.34-1-.403-1-.14 0 .262-.151 1.076-.336 1.808-.185.733-.147.992.085.576.232-.416.833-.502 1.336-.191zM183 234c0-.55-.477-1-1.059-1s-.78.45-.441 1c.34.55.816 1 1.059 1s.441-.45.441-1zm-111.776-1.759c-.673-.224-1.224-1.045-1.224-1.824 0-1.63-1.587-1.895-2.5-.417-.34.55-.156 1 .41 1 .565 0 .78.642.48 1.427-.412 1.073.024 1.277 1.755.825 1.267-.331 1.753-.786 1.08-1.01zm-7.087.059c-1.151-.458-1.151-.684 0-1.451.89-.594.32-.697-1.637-.298-2.286.465-2.643.357-1.5-.455 1.784-1.267.105-1.449-1.863-.202-1.023.648-.648 1.124 1.5 1.906 2.898 1.055 6.014 1.5 3.5.5zM76.5 232c1.1-.473 1.41-.891.691-.93-.72-.038-1.034-.515-.698-1.059.35-.566-.05-.735-.935-.395-.85.327-1.321.958-1.046 1.403.275.446-.065 1.038-.756 1.317-.69.278-.806.51-.256.515.55.005 1.9-.378 3-.851zm8.05-2c.132-.825.4-2.175.595-3 .393-1.66-3.203-1.925-6.559-.483-1.257.54-1.692.464-1.268-.222.715-1.158-7.964-3.982-9.013-2.933-.351.35.363.638 1.587.638s1.974.408 1.666.907c-.309.498.41.653 1.597.342 1.406-.367 1.924-.186 1.487.521-.742 1.2 2.8 2.692 4.256 1.793.505-.312.662.403.351 1.592-.386 1.479-.2 1.933.593 1.442.637-.393 1.158-1.311 1.158-2.04 0-.728.866-1.55 1.925-1.827 1.348-.353 1.766-.09 1.395.877-.291.76-1.045 1.073-1.675.695-.657-.393-.59 0 .158.922 1.1 1.357 1.021 1.691-.5 2.135-1.604.468-1.593.505.103.334 1.048-.106 2.013-.868 2.144-1.693zm-11.55.559c0-.243-.45-.72-1-1.059-.55-.34-1-.141-1 .441S71.45 231 72 231s1-.198 1-.441zm34 .048c0-.216-.698-.661-1.552-.989-.89-.341-1.291-.173-.94.393.586.95 2.492 1.406 2.492.596zm25-.576c0-.532-.787-.72-1.75-.418-1.494.47-1.466.32.191-1.031 1.068-.87 1.405-1.582.75-1.582s-1.191-.477-1.191-1.059.45-.78 1-.441c.55.34 1 .108 1-.514 0-.623-.782-.982-1.739-.798-3.097.597-2.908 6.812.208 6.812.842 0 1.531-.436 1.531-.969zm45-1.174l4.5-2.098-3.494-1.482c-5.175-2.195-9.102-2.597-13.578-1.392-3.012.81-4 1.582-4 3.123 0 4.031 9.597 5.102 16.572 1.85zm-24.638-.357c-.464-1.209-2.448-1.463-10.219-1.311l-9.643.189 9 .593 9 .594-6 .528-6 .529 7.219.189c6.053.158 7.125-.053 6.643-1.311zm6.282-1.5c.122-2.988-.879-3.615-3.914-2.45-2.316.889-.937 5.45 1.647 5.45 1.688 0 2.17-.638 2.267-3zm-3.144 1c.34-.55 1.068-1 1.618-1s.722.45.382 1c-.34.55-1.068 1-1.618 1s-.722-.45-.382-1zm-84.75-.69c-.963-.25-2.538-.25-3.5 0-.963.252-.175.458 1.75.458s2.712-.206 1.75-.457zm35.292-2.31c.492 0 .636.675.32 1.5-.317.825-.045 1.5.604 1.5.65 0 1.029-.787.844-1.75-.411-2.134-3.24-2.343-3.393-.25-.063.862.069.969.31.25.23-.688.823-1.25 1.315-1.25zm-36.313.396c-.332-.332-1.195-.368-1.917-.08-.797.32-.56.557.605.605 1.054.043 1.644-.193 1.312-.525zm70.084 129.92c.721-.288 1.584-.252 1.916.08.332.332-.258.568-1.312.525-1.165-.048-1.402-.285-.604-.604zm-22.051-129.023c1.244-.24 3.044-.23 4 .02s-.062.446-2.262.435c-2.2-.011-2.982-.216-1.738-.455zM119 224c1.375-.44 3.4-.839 4.5-.885 1.648-.07 1.736.086.5.885-.825.533-2.85.931-4.5.885-2.94-.083-2.95-.1-.5-.885zm-53-66.716a3473.24 3473.24 0 0 0-6.75-2.493c-7.765-2.861-7.154-4.778 2.788-8.745 7.91-3.156 8.112-3.183 12.615-1.649 6.16 2.099 27.205 3.284 30.167 1.7 2.22-1.189 10.296-.438 8.43.783-.521.34-.94 1.407-.932 2.37.013 1.524 1.082 1.75 8.287 1.75 7.654 0 8.26-.15 8.12-2-.134-1.778-.867-2-6.604-2-3.55 0-6.198-.256-5.885-.57.314-.313 9.051-.715 19.417-.893 10.366-.178 20.647-.548 22.847-.823 14.907-1.864 14.825-1.867 21.5.631 8.922 3.34 8.737 5.077-.95 8.969-7.008 2.815-7.722 2.916-12 1.7-5.1-1.448-28.244-2.563-30.86-1.486-.93.382-13.744.694-28.476.693-20.005-.002-27.957.349-31.41 1.388-4.788 1.441-7.728 1.634-10.304.675zm13.793-6.639c-.205-1.362-1.699-2.354-4.976-3.306-4.266-1.24-5.18-1.175-10.231.715-3.052 1.141-5.771 2.437-6.045 2.879-.273.442 2.304 1.686 5.727 2.765 5.792 1.825 6.556 1.855 11.02.427 3.787-1.21 4.736-1.944 4.505-3.48zM171 151.893c0-1.041-.436-1.893-.969-1.893-.532 0-.707.68-.388 1.511.416 1.085.122 1.336-1.043.889-1.177-.452-1.46-.197-1.029.926.792 2.064 3.429.962 3.429-1.433zm1.718-3.63c-.23-1.52-.424-.513-.432 2.237-.007 2.75.18 3.994.418 2.764.237-1.23.243-3.48.014-5zm-86.094 4.972c2.106-1.377-.286-5.235-3.245-5.235h-2.685l2.153 1.867c2.345 2.034 3.046 4.119.742 2.207-.798-.662-1.655-.776-1.973-.262-1.19 1.925 2.594 3 5.008 1.423zm23.105.16c-.332-.331-1.195-.367-1.917-.078-.797.32-.56.556.605.604 1.054.043 1.644-.193 1.312-.525zm34.427-.381c8.161-.013 8.627-.128 8.134-2.014-.467-1.787-1.364-2-8.407-2-4.589 0-7.883.418-7.883 1 0 .55 1.012 1.06 2.25 1.132 1.38.08.897.37-1.25.75-3.383.597-3.518.5-4.043-2.882l-.543-3.5-.489 4.31c-.448 3.95-.32 4.264 1.543 3.763 1.118-.3 5.927-.552 10.688-.56zm-.343-1.697c.721-.289 1.584-.253 1.916.079.332.332-.258.568-1.312.525-1.165-.048-1.402-.285-.604-.604zm32.745 1.776c-.309-.498.41-.653 1.597-.342 1.479.386 1.933.2 1.442-.593-.45-.73.025-1.158 1.285-1.158 1.1 0 2.248-.401 2.551-.892.537-.869-6.865.423-8.612 1.503-1.04.642-.09 2.389 1.297 2.389.55 0 .748-.408.44-.907zm-17-1.526c2.249-1.659 1.32-3.085-2.641-4.063-1.942-.479-2.584-.252-2.584.914 0 1.178.32 1.285 1.334.444 1.018-.845 1.333-.723 1.333.516 0 .892-.788 1.629-1.75 1.637-1.496.013-1.532.157-.25.985 1.978 1.278 2.28 1.25 4.559-.433zm3.942.433c.34-.55.168-1-.382-1s-1.278.45-1.618 1c-.34.55-.168 1 .382 1s1.278-.45 1.618-1zm-54-1c.345-.558-.403-.993-1.691-.985-1.858.013-2.016.205-.809.985 1.86 1.202 1.757 1.202 2.5 0zm-14.77-.604c-.333-.332-1.196-.368-1.917-.08-.798.32-.561.557.604.605 1.054.043 1.644-.193 1.312-.525zm8.032-.083c-.956-.25-2.756-.26-4-.02-1.244.239-.462.444 1.738.455 2.2.01 3.218-.185 2.262-.435zm7.065-3.021c-.58-.699-1.565-.937-2.19-.531s-5.187 1.017-10.137 1.357l-9 .617 11.19-.087c8.926-.069 10.978-.343 10.137-1.356zm61.094-.042c-.043-.962-.289-1.24-.545-.615-.318.774-1.632.871-4.143.305-2.022-.456-3.866-.64-4.098-.408-.504.504 1.442 1.218 4.865 1.783 1.375.227 2.837.474 3.25.549.412.075.714-.651.671-1.614zm9.392-.015c-.997-.732-2.601-1.126-3.564-.876-.964.25-1.5.046-1.191-.452.308-.499.083-.907-.499-.907s-1.059.644-1.059 1.43c0 1.382 2.546 2.259 6.313 2.175 1.75-.039 1.75-.086 0-1.37zm-31.033.034c-2.32-.21-6.37-.212-9-.006-2.629.207-.73.379 4.22.382 4.95.003 7.101-.166 4.78-.376zm-116.795 4.707c-.752-1.217 3.235-13.922 4.943-15.75.654-.7 2.591-2.05 4.304-3 3.808-2.11 20.029-19.903 20.84-22.858.322-1.173 1.402-2.523 2.4-3 2.507-1.2 12.703-13.382 13.954-16.673C79.489 89.213 80.55 88 81.285 88c2.588 0 15.671-16.386 18.886-23.654 1.549-3.5 3.184-5.049 8.79-8.323 3.788-2.213 7.934-4 9.213-3.973 1.28.028 5.185 1.49 8.679 3.25 5.065 2.552 6.86 4.112 8.853 7.7 1.374 2.475 3.209 5.3 4.076 6.277.867.977 2.508 3.283 3.647 5.124C146.679 79.655 154.64 88 156.403 88c.878 0 1.599.787 1.6 1.75.004 1.972 11.143 15.314 13.82 16.555.956.442 2.318 2.117 3.028 3.72 1.687 3.812 16.877 18.975 21.505 21.467 2.868 1.545 4.12 3.23 6.124 8.235 4.505 11.252 3.295 12.625-6.716 7.626-5.646-2.82-7.147-4.132-9.278-8.108-3.301-6.163-9.983-14.565-16.228-20.407-2.735-2.558-5.22-5.255-5.521-5.994C163.67 110.234 151.772 97 150.493 97c-.714 0-1.743-1.238-2.289-2.75-1.303-3.616-17.68-20.222-22.379-22.692-3.954-2.078-5.294-4.209-6.418-10.202l-.717-3.823-1.347 3.984c-2.177 6.439-3.59 8.56-6.808 10.22-3.417 1.762-19.621 18.187-21.612 21.906-.711 1.33-4.51 5.73-8.442 9.778-3.931 4.048-7.727 8.759-8.436 10.47-.708 1.71-1.806 3.109-2.439 3.109C68.36 117 56 131.359 56 132.808c0 .485-.87 1.67-1.935 2.633-1.064.963-2.864 3.727-3.998 6.14-1.771 3.767-3.072 4.888-9.175 7.904-8.088 3.998-7.57 3.844-8.407 2.491zm3.198-4.163c-.32-.798-.556-.561-.604.604-.043 1.054.193 1.645.525 1.312.332-.332.368-1.195.08-1.916zm7.95-3.34c-1.6-1.17-1.482-1.347 1.292-1.957 1.679-.368 3.352-1.155 3.718-1.747.42-.68.191-.784-.618-.284-.862.532-1.118.336-.78-.596.278-.764.995-1.282 1.594-1.151.599.131.835-.425.524-1.235-.454-1.184-.934-1.033-2.431.762-1.026 1.23-1.88 1.763-1.899 1.185-.018-.577.53-1.645 1.217-2.372 1.032-1.092.857-1.12-1-.165-1.237.636-2.25 1.79-2.25 2.563 0 2.115-1.891 2.86-3.62 1.424-1.25-1.037-1.7-1.007-2.44.164-1.208 1.908-1.195 5.212.016 4.463.526-.325.745-1.364.485-2.309-.259-.945.11-.505.822.978.97 2.02 1.662 2.463 2.765 1.766.81-.512 1.922-.922 2.472-.911.55.01-.102.63-1.45 1.376-1.347.747-3.034 1.133-3.75.858-.738-.284-1.3.204-1.3 1.128 0 1.422.53 1.357 4.196-.513 3.804-1.94 4.032-2.26 2.436-3.427zm157-2.387c-1.512-4.315-2.885-6.394-5.078-7.69-1.654-.977-4.725-3.529-6.825-5.671-3.177-3.242-4.07-3.687-5.319-2.651-1.246 1.034-2.213.585-5.706-2.648l-4.205-3.893 4.078 4.297c2.243 2.363 4.918 4.42 5.946 4.57 1.027.151 2.039.91 2.248 1.687.297 1.105.149 1.086-.68-.087-.916-1.294-1.063-1.26-1.077.25-.017 2.013 2.025 2.31 3.785.55.667-.667 1.2-.756 1.2-.2 0 .55-.425 1.428-.945 1.95-.594.597-.302 2.406.786 4.869 1.512 3.421 6.31 7.094 13.761 10.534.057.026-.83-2.614-1.969-5.867zM41.5 139c-.34-.55-1.379-.968-2.309-.93-1.379.058-1.321.23.309.93 2.676 1.15 2.71 1.15 2 0zm3.146-3.465c1.15-.805 2.4-1.156 2.775-.78.377.376.392-.079.034-1.01-.587-1.532-.923-1.554-3.49-.227-1.56.807-3.118 1.921-3.46 2.475-.934 1.51 1.757 1.212 4.141-.458zm8.56-3.903c-.161-.897.194-1.632.79-1.632.678 0 .601-.519-.207-1.39-.774-.834-1.533-1-1.9-.414-.337.536-1.012 1.036-1.5 1.11-.49.074-.746.756-.572 1.515.175.76-.157 1.087-.739.727-.638-.394-.823-.047-.468.879.801 2.087 4.985 1.364 4.596-.795zm7.148-10.939l4.854-6.193-5.067 5.5c-2.786 3.025-5.567 5.376-6.178 5.225-.611-.15-.827.187-.478.75 1.067 1.728 1.842 1.132 6.869-5.282zm9.646-7.57c0-.272 1.012-1.645 2.25-3.051 1.94-2.205 1.963-2.317.171-.815-1.143.959-2.591 1.743-3.218 1.743-.627 0-.881.675-.565 1.5.317.825.147 1.5-.377 1.5-1.628 0-.791-4.749 1.266-7.183 1.948-2.304 1.944-2.304-.74.066-1.484 1.31-2.606 2.885-2.493 3.5.113.614-.244 1.065-.794 1-.55-.063-2.328 1.512-3.952 3.5l-2.952 3.617 3.209-2.943c2.444-2.243 3.486-2.666 4.375-1.777.889.889-.094 2.661-4.129 7.443l-5.295 6.277 6.622-6.941C67.02 116.74 70 113.395 70 113.123zm108.003 6.88c-2.301-2.748-4.706-5.3-5.344-5.672-1.28-.745 1.17 2.412 5.756 7.419 4.548 4.965 4.29 3.869-.412-1.747zm2.12-.855c-2.233-2.669-4.854-5.481-5.823-6.25-.969-.769.66 1.415 3.62 4.852 2.959 3.438 5.58 6.25 5.823 6.25.244 0-1.385-2.183-3.62-4.852zM57.129 121.25c1.243-1.586 1.208-1.621-.378-.378-.963.755-1.75 1.543-1.75 1.75 0 .823.821.294 2.128-1.372zm114.543-5.061c-1.224-1.352-1.43-2.557-.812-4.75.724-2.57.44-3.246-2.266-5.383l-3.093-2.443 2.4 2.667c2.161 2.403 2.229 2.733.68 3.328-1.186.455-3.02-.548-5.9-3.224l-4.18-3.884 3.953 4.25c2.174 2.337 4.51 4.25 5.19 4.25.682 0 1.564.526 1.962 1.17.505.817.146.949-1.19.436-1.395-.536-1.12.093 1.024 2.33 3.12 3.257 5 4.312 2.232 1.253zM71.5 108c.995-1.1 1.585-2 1.31-2-.275 0-1.315.9-2.31 2-.995 1.1-1.585 2-1.31 2 .275 0 1.315-.9 2.31-2zm96.5.655c0-.19-1.012-1.202-2.25-2.25l-2.25-1.905 1.905 2.25c1.79 2.114 2.595 2.705 2.595 1.905zm-89.437-5.905L81.5 99.5l-3.25 2.937c-3.03 2.738-3.71 3.563-2.937 3.563.172 0 1.635-1.462 3.25-3.25zm-2-1L79.5 98.5l-3.25 2.937c-3.03 2.738-3.71 3.563-2.937 3.563.172 0 1.635-1.462 3.25-3.25zm86.883.53c.363-.945.327-1.386-.08-.98-.407.408-2.535-.956-4.73-3.03l-3.99-3.77 3.927 4.717c2.16 2.595 3.991 4.732 4.07 4.75.079.018.44-.74.803-1.687zM74.5 101c.995-1.1 1.585-2 1.31-2-.275 0-1.315.9-2.31 2-.995 1.1-1.585 2-1.31 2 .275 0 1.315-.9 2.31-2zm84.5.674c0-.179-1.238-1.416-2.75-2.75L153.5 96.5l2.424 2.75c2.266 2.57 3.076 3.209 3.076 2.424zm4-2c0-.179-1.238-1.416-2.75-2.75L157.5 94.5l2.424 2.75c2.266 2.57 3.076 3.209 3.076 2.424zm-77.031-5.136c.017-.53 1.944-3.004 4.281-5.5L94.5 84.5l-4.587 4.299c-3.784 3.545-4.79 4.054-5.742 2.908-.634-.765-.834-1.71-.443-2.102.391-.39-.052-.418-.984-.06-.932.357-2.369 2.001-3.193 3.653-1.302 2.61-1.305 2.843-.024 1.78.81-.673 1.473-1.843 1.473-2.6 0-.758.366-1.378.814-1.378 1.09 0 .92 5.133-.23 6.92-.537.837.17.631 1.72-.5 1.448-1.056 2.647-2.353 2.665-2.882zm-2.636-.994c0-.8.375-1.224.834-.941.458.283.833.938.833 1.456s-.375.941-.833.941c-.459 0-.834-.655-.834-1.456zm71.825-1.327c.236-1.082-2.17-4.306-6.505-8.717l-6.88-7 5.614 6.42c3.087 3.532 5.613 6.768 5.613 7.191 0 2.276-2.603 1.719-5.836-1.249L143.5 85.5l3.25 3.548c1.788 1.95 3.25 4.05 3.25 4.666 0 3.043 4.45 1.751 5.158-1.497zM93.184 82.75c4.665-5.862 2.826-4.403-3.15 2.5-2.977 3.438-4.157 5.125-2.623 3.75 1.533-1.375 4.131-4.188 5.773-6.25zm55 3.5c-1.642-2.063-4.242-4.875-5.778-6.25-1.536-1.375-.388.313 2.55 3.75 5.835 6.824 8.01 8.51 3.228 2.5zM87.5 86c.995-1.1 1.585-2 1.31-2-.275 0-1.315.9-2.31 2-.995 1.1-1.585 2-1.31 2 .275 0 1.315-.9 2.31-2zm9-4c.995-1.1 1.585-2 1.31-2-.275 0-1.315.9-2.31 2-.995 1.1-1.585 2-1.31 2 .275 0 1.315-.9 2.31-2zm44.326-.868c-1.28-1.578-2.515-2.701-2.747-2.496-.423.374 3.922 5.364 4.671 5.364.221 0-.645-1.29-1.924-2.868zM96.798 77c.66 0 1.202.436 1.202.969 0 .532.675.71 1.5.393.825-.317 1.502-1.315 1.505-2.219.003-.904 2.457-3.211 5.454-5.128 5.32-3.403 5.974-4.34 9.657-13.827.867-2.233.684-2.199-5.267.973-5.35 2.852-6.482 3.98-8.575 8.55-1.325 2.896-2.942 5.618-3.592 6.048-.65.43-3.207 3.02-5.682 5.757-3.358 3.712-3.6 4.151-.952 1.73C93.998 78.46 96.136 77 96.798 77zm43.183-.967c1.27-.804 1.18-1.334-.634-3.735-1.264-1.672-2.844-2.662-3.927-2.46-1.55.29-1.622.11-.494-1.25.837-1.008.92-1.588.228-1.588-.6 0-.861-.6-.58-1.333.286-.744-.147-1.334-.977-1.334-1.114 0-1.25.446-.543 1.768 1.333 2.49 1.188 2.929-.728 2.194-1.176-.451-1.002.03.587 1.618 1.616 1.616 2.088 2.948 1.655 4.674-.508 2.022-.239 2.41 1.663 2.398 1.248-.009 2.936-.437 3.75-.952zm-4.343-1.533c.317-.825.753-1.5.969-1.5.216 0 .393.675.393 1.5s-.436 1.5-.969 1.5c-.532 0-.71-.675-.393-1.5zM131 72c-1.265-.818-1.274-.972-.059-.985 1.185-.012 1.16-.238-.135-1.265-.867-.688-1.858-1.925-2.202-2.75-.344-.825-.438-.487-.209.75.23 1.238.01 2.25-.489 2.25-.498 0-.906-.525-.906-1.167 0-.641-.33-.836-.735-.431-.78.78 3.545 4.549 5.235 4.56.55.004.325-.429-.5-.962zm-4.333-6.456c0-.8-.383-1.22-.85-.93-.467.288-.59.943-.274 1.455.808 1.308 1.124 1.161 1.124-.525zm-3.495-4.608l-.889-2.403-.706 2.224c-.823 2.595.195 4.87 1.566 3.5.546-.546.557-1.893.029-3.321zM128 62.622c0-.207-.787-.995-1.75-1.75-1.586-1.243-1.621-1.208-.378.378 1.307 1.666 2.128 2.195 2.128 1.372zm3.35-1.09c.31-.807.226-1.676-.186-1.93-.412-.255-.814.405-.894 1.467-.173 2.297.298 2.499 1.08.463zm-2.683-1.988c0-.8-.375-1.224-.834-.941-.458.283-.833.148-.833-.3 0-1.002-8.034-3.603-8.79-2.846-.299.298.165.543 1.03.543.931 0 1.466.714 1.31 1.75-.145.963-.07 1.188.167.5.236-.688.734-1.217 1.106-1.177.495.054 6.016 3.2 6.76 3.854.046.04.084-.582.084-1.383zM124 149.607c0-.216.698-.661 1.552-.989.89-.341 1.291-.173.94.393-.586.95-2.492 1.406-2.492.596zM114.004 34.25c.002-.963 1.352-3.775 3-6.25l2.994-4.5-3.749-.5c-2.444-.326-3.749-1.022-3.749-2 0-1.156 1.548-1.568 6.75-1.796 6.076-.266 6.75-.105 6.75 1.61 0 2.906-8.229 15.043-10.25 15.12-1.027.039-1.748-.657-1.746-1.684zm3.378-1.802c.341-.89.173-1.291-.393-.94-.544.335-.989 1.033-.989 1.551 0 1.438.717 1.121 1.382-.61zm113.28 295.302c-.277-.688-.504-.125-.504 1.25s.227 1.938.504 1.25c.278-.688.278-1.813 0-2.5zM7.693 324.269c-.254-.973-.478-.419-.498 1.231-.02 1.65.187 2.446.46 1.769.275-.677.292-2.027.038-3zM230.75 164.327c-.147-29.605-.268-5.677-.268 53.173s.12 83.072.268 53.827c.147-29.246.147-77.396 0-107zM7.706 310.75c-.239-1.238-.434-.225-.434 2.25s.195 3.487.434 2.25c.238-1.238.238-3.263 0-4.5zm.091-12.885c-.315-2.001-.455-1.86-.916.916-.33 1.988-.183 2.92.372 2.366.504-.504.749-1.98.544-3.282zM6.75 176.325c-.15-21.904-.274-4.275-.274 39.175 0 43.45.123 61.371.274 39.824.15-21.546.15-57.096 0-79zM6.217 88.75c-.157-24.888-.44-46.375-.63-47.75s-.343 18.987-.34 45.25c0 26.263.284 47.75.629 47.75.345 0 .498-20.362.34-45.25zm224.511 10.5c-.215-2.063-.392-.375-.392 3.75s.177 5.813.392 3.75c.216-2.063.216-5.438 0-7.5zm-1.039-60c-.251-.962-.457-.175-.457 1.75s.206 2.712.457 1.75c.252-.963.252-2.538 0-3.5zM5.683 34.812c-.32-.797-.556-.56-.604.605-.043 1.054.193 1.644.525 1.312.332-.332.368-1.195.08-1.916zM229.74 18.75c-.195-3.438-.355-.625-.355 6.25s.16 9.688.355 6.25c.196-3.438.196-9.063 0-12.5zM5.707 26.762c-.239-1.244-.444-.462-.455 1.738-.01 2.2.185 3.218.435 2.262s.26-2.756.02-4zM6.341 14.2c.393-2.061.26-3.071-.356-2.69-.542.334-.985 2.006-.985 3.716 0 3.777.5 3.396 1.341-1.026zm66.462-3.945c-5.333-.18-14.333-.18-20-.001-5.667.178-1.303.325 9.697.326 11 0 15.636-.145 10.303-.325zM229 10c0-.614-3.954-.925-10.25-.806l-10.25.193 10 .613c5.5.337 10.113.7 10.25.806.137.107.25-.256.25-.806zm-112.25-.69c-.963-.25-2.538-.25-3.5 0-.963.252-.175.458 1.75.458s2.712-.206 1.75-.457zm69-.059c-11.963-.16-31.538-.16-43.5 0-11.963.16-2.175.29 21.75.29s33.712-.13 21.75-.29zM244.195 278.5c.02-1.65.244-2.204.498-1.231.254.973.237 2.323-.037 3-.274.677-.481-.119-.461-1.769zm.29-146c0-72.6.12-102.152.265-65.672.145 36.48.145 95.88 0 132-.146 36.12-.265 6.272-.265-66.328z"/></svg>