<svg xmlns="http://www.w3.org/2000/svg" width="245" height="420" viewBox="0 0 245 420"><path d="M44.75 411.253L7 410.976l-.125-11.488c-.069-6.318-.318-12.726-.553-14.238-.873-5.601-1.347-376.781-.484-378.085.73-1.1 20.581-1.316 113.24-1.233 61.796.056 112.675.432 113.065.835 1.18 1.22 1.847 83.448 2.015 248.233l.158 156.5-75.908.015c-41.75.009-92.895-.109-113.658-.262zm187.221-2.229c2.53-1.575.772-1.803-6.471-.84-4.076.543-34.154.708-72 .397-35.75-.294-82.631-.545-104.18-.557-38.454-.024-39.19-.061-39.634-2.04-.376-1.676-.43-1.634-.32.25L9.5 408.5l49.5.5c93.356.943 171.477.954 172.971.024zm-3.373-3.29c.62-.618.49-289.422-.143-320.763-.25-12.39-.455-34.103-.455-48.25V11H119.559c-69.466 0-108.658.35-109.044.976-.997 1.614-.214 371.358.802 378.524.234 1.65.483 5.797.554 9.215L12 405.93l64.172.04c35.295.023 64.33.198 64.52.39.554.552 87.346-.064 87.906-.625zM40.631 371.3c-8.615-1.37-18.442-10.19-20.715-18.592-1.432-5.293-.708-16.279 1.333-20.216 2.261-4.361 7.947-9.878 12.385-12.018 8.863-4.272 22.048-2.658 29.682 3.635 11.801 9.728 12.31 29.555 1.027 40.031-5.877 5.457-15.724 8.43-23.712 7.16zm11.098-2.904c-.332-.332-1.195-.368-1.917-.08-.797.32-.56.557.605.605 1.054.043 1.644-.193 1.312-.525zm-13.812-.715c-1.59-1.219-7.917-4.521-7.917-4.133 0 .669 6.294 4.444 7.417 4.448.504.002.729-.14.5-.315zM49 365.663c-1.74-.91-3.336-1.028-5.25-.388-3.989 1.335-3.416 1.727 2.5 1.71 4.935-.014 5.1-.093 2.75-1.322zm-12.218-2.77c-3.87-1.986-3.985-2.826-1.474-10.866l1.397-4.472-4.353-3.323c-2.393-1.828-4.359-3.866-4.367-4.528-.032-2.489-1.955 1.869-1.97 4.463-.019 3.332 3.167 10.91 5.348 12.72.9.747 1.637 1.808 1.637 2.358 0 .61-.523.566-1.342-.114-.738-.612-1.71-.78-2.16-.372-.45.407-.452.109-.004-.664.555-.956.438-1.171-.364-.675-.649.4-1.08.358-.957-.096.398-1.469-1.293-5.368-2.109-4.864-.435.27-.791-3.313-.791-7.96 0-5.561.353-8.231 1.033-7.81.622.383.792.007.427-.943-.356-.927.014-1.82.894-2.157.825-.317 1.27-.946.99-1.4-.28-.452.825-1.61 2.455-2.573 1.648-.974 2.665-2.234 2.291-2.838-.381-.617-.212-.803.392-.43 1.231.76 4.429-.243 3.835-1.204-.22-.355 2.295-.763 5.586-.906 4.307-.188 7.284.313 10.618 1.788 5.792 2.562 7.898 4.453 10.382 9.32 2.277 4.46 3.702 4.188 1.823-.35-1.778-4.293-9.494-10.783-14.389-12.104-9.967-2.688-21.523 2.236-26.123 11.133-2.262 4.373-2.907 11.718-1.49 16.972 1.428 5.293 9.952 14.62 12.477 13.65.84-.322 1.526-.123 1.526.442 0 .566.517.708 1.15.318.714-.442-.181-1.394-2.368-2.515zM53.5 365c-.34-.55-1.068-1-1.618-1s-.722.45-.382 1c.34.55 1.068 1 1.618 1s.722-.45.382-1zm6.642-2.965c3.639-3 7.566-9.66 6.39-10.837-.922-.921-2.6 2.057-2.033 3.604.263.716.082 1.057-.401.759-.91-.563-4.705 4.39-4.332 5.653.115.393-.46.457-1.277.143-1.193-.457-.898-1.315 1.482-4.32 1.633-2.062 3.44-4.988 4.016-6.502.825-2.17 1.334-2.513 2.409-1.622 1.078.896 1.463.606 1.845-1.39.74-3.877-.27-7.726-1.868-7.112-.875.335-1.898-.731-2.822-2.943-.797-1.908-2.71-4.65-4.25-6.093C56.037 328.317 48.856 325 45.5 325c-5.7 0-15.071 6.27-16.825 11.257-.537 1.527 0 1.738 4.104 1.61 5.46-.17 8.221-1.316 8.221-3.416 0-.813.417-2.26.927-3.215.51-.955 1.183-2.557 1.497-3.56 1.002-3.207 3.827-1.404 5.49 3.503 1.958 5.778 2.366 6.185 6.369 6.363 6.918.309 7.717.506 7.717 1.908 0 .798-.609 1.81-1.353 2.25-.743.44-2.76 2.002-4.483 3.471l-3.13 2.672 1.483 4.204c3.021 8.564 1.312 9.996-5.96 4.992l-4.305-2.961-3.876 2.933c-2.132 1.613-4.551 2.964-5.376 3.001-.825.038-.22.762 1.344 1.61 2.884 1.562 12.648 1.534 17.24-.05 1.547-.534 2.083-.303 2.083.898 0 .966-.557 1.402-1.386 1.084-.762-.292-1.11-.086-.774.457.936 1.515 1.742 1.233 5.635-1.976zM60 360.622c0-.207.787-.995 1.75-1.75 1.586-1.243 1.621-1.208.378.378-1.307 1.666-2.128 2.195-2.128 1.372zm4 .878c1.292-1.375 2.124-2.5 1.849-2.5-.275 0-1.557 1.125-2.849 2.5-1.292 1.375-2.124 2.5-1.849 2.5.275 0 1.557-1.125 2.849-2.5zM25 357c-.589-1.1-1.295-2-1.57-2-.275 0-.019.9.57 2s1.295 2 1.57 2c.275 0 .019-.9-.57-2zm12.5 0c.34-.55.141-1-.441-1S36 356.45 36 357s.198 1 .441 1 .72-.45 1.059-1zm16.69-2.5c-.477-4.083-.917-4.338-2.159-1.25-.831 2.069-.91 2.089-.983.25-.126-3.21-1.674-5.046-3.222-3.822-.73.577-2.001 1.075-2.826 1.105-.825.031-2.513.292-3.75.58-1.79.415-2.27.075-2.35-1.67-.091-2.02-.155-1.995-.809.307-.496 1.75-.294 2.601.673 2.837.76.186 1.128 1.002.817 1.813-.4 1.044.282.872 2.33-.587 3.78-2.69 4.901-2.57 9.051.978 1.904 1.627 3.502 2.959 3.55 2.959.047 0-.097-1.575-.322-3.5zm-32.497-7.231c-.254-.973-.478-.419-.498 1.231-.02 1.65.187 2.446.46 1.769.275-.677.292-2.027.038-3zm20.929-1.399c-1.786-2.55-2.216-6.355-.606-5.36.56.346.707 1.16.328 1.81-.378.649.367.28 1.656-.82 1.29-1.1 2.015-1.438 1.613-.75-.455.778-.142 1.25.828 1.25.996 0 1.559.902 1.559 2.5 0 1.375-.402 2.5-.893 2.5s-1.17.72-1.507 1.6c-.448 1.167.788.809 4.558-1.321 2.845-1.607 5.289-3.716 5.431-4.687.243-1.656.145-1.661-1.595-.086-1.753 1.586-1.826 1.566-1.323-.357.324-1.24 1.569-2.195 3.18-2.443 1.568-.24.762-.467-1.976-.556-4.317-.14-4.666-.354-5.238-3.216-.382-1.91-1.035-2.806-1.732-2.375-.736.454-.919.049-.535-1.184.785-2.52-.824-5.241-1.72-2.907-.416 1.087-.238 1.396.531.92.793-.49.94-.144.465 1.093-.429 1.116-.05 2.52.99 3.67.927 1.024 1.363 2.183.97 2.576-.393.393-1.133.053-1.645-.756-.791-1.25-.933-1.222-.946.191-.01 1.15-1.223 1.866-3.937 2.325-5.008.846-5.896 3.05-2.61 6.48 1.393 1.454 2.532 3.277 2.532 4.052 0 1.126.327 1.083 1.622-.212 1.495-1.496 1.495-1.802 0-3.937zm6.711-1.37c0-.825.375-1.5.834-1.5.458 0 .833.675.833 1.5s-.375 1.5-.833 1.5c-.459 0-.834-.675-.834-1.5zM53 348.941c0-.518-.45-.941-1-.941s-1 .702-1 1.559.45 1.28 1 .941c.55-.34 1-1.041 1-1.559zm17.693-5.672c-.254-.973-.478-.419-.498 1.231-.02 1.65.187 2.446.46 1.769.275-.677.292-2.027.038-3zM34.5 342c-.34-.55-1.154-.993-1.809-.985-.716.01-.592.403.309.985 1.921 1.242 2.267 1.242 1.5 0zm24 0c.34-.55.141-1-.441-1S57 341.45 57 342s.198 1 .441 1 .72-.45 1.059-1zm-22.77-2.604c-.333-.332-1.196-.368-1.917-.08-.798.32-.561.557.604.605 1.054.043 1.644-.193 1.312-.525zM24.19 333.5c.906-1.968.895-1.969-.635-.059-.855 1.068-1.52 2.643-1.476 3.5.068 1.347.155 1.355.635.059.306-.825.97-2.4 1.476-3.5zm19.81.774c0-3.134-.479-2.772-1.4 1.06-.446 1.858-.322 2.612.36 2.19.572-.353 1.04-1.815 1.04-3.25zm23-2.652c0-.207-.787-.995-1.75-1.75-1.586-1.243-1.621-1.208-.378.378 1.307 1.666 2.128 2.195 2.128 1.372zm-5-5c0-.207-.787-.995-1.75-1.75-1.586-1.243-1.621-1.208-.378.378 1.307 1.666 2.128 2.195 2.128 1.372zM57.5 323c-.34-.55-1.154-.993-1.809-.985-.716.01-.592.403.309.985 1.921 1.242 2.267 1.242 1.5 0zm-13.231-2.656c-.677-.274-2.027-.29-3-.037-.973.253-.419.478 1.231.498 1.65.02 2.446-.187 1.769-.461zm6 0c-.677-.274-2.027-.29-3-.037-.973.253-.419.478 1.231.498 1.65.02 2.446-.187 1.769-.461zM187 370.94c-6.825-.785-12.732-3.732-16.826-8.395-5.455-6.213-6.586-9.304-6.632-18.123-.038-7.283.256-8.56 2.98-12.966 1.661-2.688 4.943-6.353 7.291-8.144 13.763-10.497 35.284-5.018 41.983 10.688 1.953 4.58 1.938 16.452-.027 21.073-4.694 11.04-16.088 17.324-28.769 15.867zm1.25-2.602c-.688-.278-1.813-.278-2.5 0-.688.277-.125.504 1.25.504s1.938-.227 1.25-.504zm7.512-.025c-.956-.25-2.756-.26-4-.02-1.244.239-.462.444 1.738.455 2.2.01 3.218-.185 2.262-.435zm6.804-4.871c6.69-4.169 10.606-11.345 10.567-19.37-.03-6.518-1.109-8.802-7.096-15.033-4.856-5.055-7.58-6.344-14.037-6.643-6.203-.288-12.704 1.3-11.255 2.75.572.571 2.048.501 3.842-.183 2.773-1.058 13.356-1.027 14.413.043.275.278 2.216 1.785 4.314 3.35 2.097 1.563 4.534 4.354 5.414 6.2.881 1.847 1.977 3.126 2.437 2.842.46-.284.835.384.835 1.484 0 2.916-1.744 3.524-2.528.883-1.48-4.99-5.784-9.768-11.038-12.253-2.92-1.381-6.408-2.512-7.75-2.512-3.036 0-9.34 2.584-12.645 5.184-3.905 3.072-8.134 10.229-4.842 8.194.658-.407 3.35-.625 5.981-.486 5.206.277 4.8.705 8.73-9.22 1.347-3.4 3.133-3.07 4.877.902 3.157 7.192 3.776 7.925 6.764 8.008 7.243.203 8.451.47 8.451 1.87 0 .799-1.983 2.816-4.407 4.484l-4.407 3.032 1.407 4.675c.774 2.571 1.407 5.292 1.407 6.047 0 2.668-2.87 2.417-7.06-.618-2.332-1.69-4.735-3.065-5.34-3.057-.605.008-2.9 1.546-5.1 3.417l-4 3.402 2.815 1.083c3.992 1.536 11.13 1.341 15.34-.417 4.343-1.815 4.012-1.811 4.012-.044 0 .8-.342 1.245-.759.987-1-.618-5.908 1.64-5.908 2.718 0 1.284-3.441.998-4.842-.403-.877-.877-1.449-.921-1.95-.15-.39.6-1.383 1.382-2.208 1.735-.825.354 1.278.508 4.673.342 4.753-.232 7.257-.978 10.893-3.243zm.434-3.986c0-.299 1.125-1.757 2.5-3.24 1.375-1.482 2.5-3.263 2.5-3.956 0-.693.498-1.26 1.107-1.26.664 0 .817.7.38 1.75-.398.963-.747 2.293-.773 2.956-.026.663-.4.988-.83.722-.431-.266-1.272.429-1.869 1.544-.98 1.831-3.015 2.833-3.015 1.484zm6.494-9.465c-.342-.555-.32-1.964.05-3.132.53-1.669.862-1.828 1.55-.741 1.166 1.84 1.144 4.882-.035 4.882-.518 0-1.222-.454-1.565-1.009zM185 365.121c0-.483-1.315-1.423-2.923-2.089-3.055-1.266-10.077-7.716-10.077-9.258 0-.49-.45-.614-1-.274-.55.34-1 .216-1-.274 0-2.454 1.632-1.722 5.375 2.413l4.125 4.556.085-3.347c.046-1.842.43-4.757.851-6.48.718-2.932.46-3.344-4.025-6.43-2.844-1.956-4.944-2.84-5.166-2.173-.206.617-1.02.875-1.81.572-1.03-.395-1.435.216-1.435 2.163 0 2.031.387 2.566 1.538 2.124 2.31-.887 2.97 2.157.951 4.388-1.646 1.819-1.65 2.093-.077 4.494.947 1.445 2.166 2.255 2.802 1.862.741-.458.903-.116.474 1.002-.486 1.267.534 2.45 4.026 4.664 4.699 2.98 7.286 3.72 7.286 2.087zm-10-1.447c0-.179-1.238-1.416-2.75-2.75l-2.75-2.424 2.424 2.75c2.266 2.57 3.076 3.209 3.076 2.424zm34-2.174c1.292-1.375 2.124-2.5 1.849-2.5-.275 0-1.557 1.125-2.849 2.5-1.292 1.375-2.124 2.5-1.849 2.5.275 0 1.557-1.125 2.849-2.5zm5-7.858c0-1.27-.462-.703-1.92 2.358-1.122 2.357-1.102 2.39.365.559.855-1.068 1.555-2.38 1.555-2.917zm-16.25 1.786c-2.714-1.472-3.325-3.387-2.975-9.321l.14-2.394-1.996 2.144c-1.747 1.875-3.121 2.384-5.557 2.058-.736-.099-2.324 2.198-2.347 3.394-.008.445.548.471 1.235.058.81-.487.755-.141-.158.983-2.22 2.737-3.591.342-1.57-2.743.94-1.434 2.075-2.607 2.523-2.607.449 0 .403-1.44-.102-3.199-.637-2.222-.567-3.415.23-3.907 1.411-.873 4.004.01 3.313 1.13-.277.447.845 1.11 2.494 1.472 1.648.362 3.228 1.031 3.51 1.487.281.456 1.467.58 2.634.274 2.102-.55 2.1-.567-.235-1.817-2.355-1.26-2.354-1.262 1.127-2.26 3.28-.941 3.118-1.005-2.766-1.09-4.955-.071-6.25-.413-6.25-1.65 0-.857-.45-1.28-1-.94-.583.36-1-.656-1-2.441 0-1.682.436-3.059.969-3.059.532 0 .68.749.33 1.664-.467 1.216-.278 1.441.701.836.95-.588 1.172-.391.762.677-.647 1.686.696 4.517 1.509 3.18.286-.472-.16-2.556-.992-4.632-1.217-3.036-1.784-3.55-2.896-2.628-.76.631-1.39 1.88-1.398 2.775-.008.896-.579 2.744-1.269 4.107-1.074 2.123-1.898 2.459-5.735 2.339-2.465-.077-3.449.079-2.188.346 1.659.352 2.137.98 1.728 2.27-.312.983.105 2.34.93 3.026 1.659 1.376 1.8 10.04.165 10.04-.522 0-.685.265-.361.588.323.324 2.582-.58 5.019-2.008l4.43-2.597 3.786 3.009c2.082 1.654 4.286 2.99 4.897 2.968.612-.022-.125-.711-1.637-1.532zM182.5 344c-.34-.55-.141-1 .441-1s1.059.45 1.059 1-.198 1-.441 1-.72-.45-1.059-1zm15.415 5.187c-.61-1.753-1.565-3.187-2.12-3.187-.555 0-.736.712-.402 1.582.334.87.607 2.246.607 3.059 0 .873.478 1.181 1.17.754.816-.505.95-.145.44 1.191-.517 1.36-.418 1.606.344.85.763-.756.752-1.981-.039-4.25zm16.768.625c-.32-.797-.556-.56-.604.605-.043 1.054.193 1.644.525 1.312.332-.332.368-1.195.08-1.916zm-48.965-7.548c-.23-1.52-.424-.514-.432 2.236-.007 2.75.18 3.994.418 2.764.237-1.23.243-3.48.014-5zm49.971-.014c-.251-.963-.457-.175-.457 1.75s.206 2.712.457 1.75c.252-.963.252-2.538 0-3.5zm-23.96 2.146c-.332-.333-1.195-.368-1.917-.08-.797.32-.56.557.605.605 1.054.043 1.644-.193 1.312-.525zM179 342c0-.55-.477-1-1.059-1s-.78.45-.441 1c.34.55.816 1 1.059 1s.441-.45.441-1zm24.5 0c.34-.55.141-1-.441-1s-1.059.45-1.059 1 .198 1 .441 1 .72-.45 1.059-1zm-14.5-1c0-.55-.198-1-.441-1s-.72.45-1.059 1c-.34.55-.141 1 .441 1s1.059-.45 1.059-1zm-18.926-3.454c.497.307.607-.214.245-1.158-.417-1.087-.268-1.475.406-1.058.586.362 1.318 0 1.627-.804.308-.804.15-1.716-.353-2.027-.874-.54-4.084 4.538-3.92 6.201.043.44.307.235.585-.456.279-.691.913-1.005 1.41-.698zm42.05-5.813c-.988-.98-1.102-.865-.56.56.376.986.935 1.541 1.243 1.233.308-.307 0-1.114-.683-1.793zm-32.84-6.084c-.324-.523-1.196-.123-1.937.89-.74 1.014-1.347 1.463-1.347.997 0-.465-.89-.041-1.976.943-3.304 2.99-1.148 3.705 2.47.819 1.858-1.483 3.113-3.125 2.79-3.649zM173 327.5c1.292-1.375 2.124-2.5 1.849-2.5-.275 0-1.557 1.125-2.849 2.5-1.292 1.375-2.124 2.5-1.849 2.5.275 0 1.557-1.125 2.849-2.5zm31.14-3.533c-1.3-1.082-2.874-1.965-3.5-1.962-.627.003.21.87 1.86 1.927 3.897 2.496 4.612 2.512 1.64.035zM198 321c-.825-.533-2.625-.923-4-.866-2.306.095-2.268.162.5.866 4.322 1.1 5.202 1.1 3.5 0zm-10.75-.662c-.688-.278-1.813-.278-2.5 0-.688.277-.125.504 1.25.504s1.938-.227 1.25-.504zM35 276.92c-5.554-2.51-10.511-7.152-13.268-12.421-1.626-3.109-2.108-5.91-2.162-12.573-.064-7.823.18-8.95 2.798-12.907 7.438-11.24 18.447-15.943 30.535-13.043 23.978 5.752 27.106 39.831 4.632 50.463-6.922 3.275-15.93 3.467-22.535.481zm14.264-.625c-1.23-.237-3.48-.243-5-.014-1.52.23-.514.425 2.236.432 2.75.007 3.994-.18 2.764-.418zM48 274.263c-1.375-.256-2.725-.82-3-1.253-.275-.434-1.08-.163-1.79.6-1.087 1.172-.616 1.369 3 1.254 2.79-.089 3.416-.299 1.79-.601zM41.5 273c.564-.912.078-1.094-3.75-1.4-1.345-.108-3.843-2.84-3.192-3.49.216-.218 1.048.148 1.849.813 2.583 2.144 12.112 2.533 16.934.69 5.15-1.966 7.978-4.738 10.16-9.96 1.288-3.083 1.863-3.596 2.988-2.662 1.133.94 1.515.505 2.047-2.33.808-4.307-.235-7.99-2.064-7.289-.85.327-2.097-1.03-3.38-3.677-1.357-2.802-3.747-5.316-7.195-7.571-4.85-3.172-5.555-3.345-11.628-2.858-5.736.46-6.88.924-10.14 4.109-4.216 4.115-8.923 11.283-5.669 8.63 1.008-.82 4.082-1.575 6.831-1.674 5.435-.196 6.15-.808 7.765-6.644 1.383-5 3.873-4.578 5.936 1.005.848 2.297 1.803 4.437 2.123 4.756.32.32 2.91.634 5.757.698 7.653.172 8.33 2.236 2.431 7.421-4.504 3.96-4.595 4.156-3.464 7.4 1.455 4.176 1.488 7.713.078 8.584-.595.368-3.017-.72-5.381-2.418l-4.3-3.087-4.208 3.049c-6.747 4.887-8.3 2.668-5.433-7.766.482-1.754-.333-2.847-4.25-5.695-2.664-1.94-4.996-3.097-5.18-2.573-.185.523-.798.666-1.362.317-1.482-.916-2.578 1.35-2.032 4.203.288 1.51 1.06 2.35 2.006 2.185.938-.162 1.826.78 2.275 2.412.405 1.473 1.963 4.286 3.461 6.25 1.498 1.965 2.237 3.572 1.642 3.572-.596 0-2.152-1.573-3.458-3.495-1.306-1.922-2.744-3.16-3.195-2.75-.451.41-.497-.155-.102-1.255.575-1.6.467-1.75-.535-.756-1.725 1.712 3.969 9.903 6.562 9.44 1.005-.18 1.501.123 1.145.699-.783 1.267 2.437 3.021 4.317 2.352.85-.302 1.118-.055.691.635-.4.648-.058 1.13.802 1.13.825 0 1.778-.45 2.118-1zm-11.628-5.75c-1.243-1.586-1.208-1.621.378-.378.963.755 1.75 1.543 1.75 1.75 0 .823-.821.294-2.128-1.372zM65 252c0-1.859.516-3 1.356-3 .864 0 1.318 1.088 1.25 2.998-.14 3.954-2.606 3.956-2.606.002zm-6.447 18.75c4.749-3.23 8.922-9.173 7.76-11.053-.334-.54-1.273.32-2.085 1.91-2.348 4.596-4.398 6.522-9.458 8.888-2.602 1.216-4.44 2.503-4.083 2.858 1.244 1.244 3.124.622 7.866-2.603zM32 272.696c0-.167-1.688-1.854-3.75-3.75L24.5 265.5l3.446 3.75c3.208 3.49 4.054 4.21 4.054 3.446zM63.5 270c.995-1.1 1.585-2 1.31-2-.275 0-1.315.9-2.31 2-.995 1.1-1.585 2-1.31 2 .275 0 1.315-.9 2.31-2zM42 262.5c4.026-2.97 4.73-3.042 7.317-.75 1.9 1.685 1.935 1.675.921-.26-1.175-2.245-.554-7.177 1.027-8.154.65-.401.805.25.422 1.773-.332 1.324-.197 3.066.3 3.87 1.45 2.345 1.899.845 1.082-3.61-.789-4.306.628-7.443 3.931-8.699.825-.313-.3-.608-2.5-.655-7.47-.159-9.5-.513-9.5-1.658 0-.629.675-1.402 1.5-1.719.825-.316 1.5-.064 1.5.56 0 .624.236.9.524.612 1.04-1.04-.724-3.67-2.107-3.14-.78.3-1.417.046-1.417-.563S45.45 239 46 239s1-.45 1-1-.406-1-.902-1c-1.036 0-3.36 6.071-2.611 6.82.273.273.04 1.044-.516 1.715-.739.89-.09 1.655 2.41 2.842 1.882.892 3.916 1.623 4.52 1.623.605 0 1.099.436 1.099.969 0 .532-.727.69-1.615.348-1.285-.493-1.476-.179-.933 1.532.408 1.284.253 2.151-.385 2.151-.587 0-1.067.477-1.067 1.059s.52.738 1.155.346c.72-.446.882-.274.43.457-.398.644-1.17.894-1.717.556-.547-.338-1.906.212-3.022 1.221-1.115 1.01-3.224 2.367-4.687 3.017-1.462.65-1.984 1.225-1.159 1.278 1.333.086 1.333.204 0 1.066-.825.533-1.025.976-.444.985.58.008 2.58-1.11 4.444-2.485zm13 2.107c0-.216-.698-.661-1.552-.989-.89-.341-1.291-.173-.94.393.586.95 2.492 1.406 2.492.596zm-13.5-6.608c-.263-.425.08-.712.76-.636 1.716.19 1.86-1.203.608-5.863-1.231-4.582-2.233-5.463-6.235-5.485-2.476-.013-2.79.291-2.3 2.235.546 2.165.513 2.177-.872.323-.792-1.06-1.7-1.668-2.016-1.351-.317.317 1.14 1.856 3.24 3.421 4.95 3.692 5.303 4.26 4.294 6.912-.717 1.886-.554 2.147 1.077 1.72 1.057-.276 1.706-.85 1.444-1.276zm-16 .001c.34-.55.141-1-.441-1S24 257.45 24 258s.198 1 .441 1 .72-.45 1.059-1zm-3.782-8.736c-.23-1.52-.424-.514-.432 2.236-.007 2.75.18 3.994.418 2.764.237-1.23.243-3.48.014-5zm48.988.486c-.239-1.238-.434-.225-.434 2.25s.195 3.487.434 2.25c.238-1.238.238-3.263 0-4.5zM47 252c0-.55-.45-1-1-1s-1 .45-1 1 .45 1 1 1 1-.45 1-1zm9.614-2.576c.206-1.405.006-1.39-1.666.123-1.046.946-1.636 2.15-1.312 2.674.741 1.199 2.655-.6 2.978-2.797zm13.07-4.611c-.32-.798-.557-.561-.605.604-.043 1.054.193 1.644.525 1.312.332-.332.368-1.195.08-1.917zm-3.18-1.803c-1.931-6.083-12.243-13.616-17.002-12.421-1.542.387-2.502.203-2.502-.48 0-.61-.702-1.109-1.559-1.109-.916 0-1.267.472-.851 1.145.495.802-.161.976-2.191.582-3.944-.766-8.49 1.564-13.36 6.846-4.161 4.515-4.757 5.865-3.05 6.92.589.364.727-.117.34-1.191-.356-.991-.315-1.503.092-1.138.407.365 2.391-1.166 4.41-3.403 4.518-5.008 8.518-6.761 15.425-6.761 7.388 0 13.41 3.201 17.243 9.167 3.123 4.86 4.164 5.498 3.004 1.843zM27 240.622c0-.207.787-.995 1.75-1.75 1.586-1.243 1.621-1.208.378.378-1.307 1.666-2.128 2.195-2.128 1.372zm4-4c0-.207.787-.995 1.75-1.75 1.586-1.243 1.621-1.208.378.378-1.307 1.666-2.128 2.195-2.128 1.372zm-6.618 4.826c.341-.89.173-1.291-.393-.94-.544.335-.989 1.033-.989 1.551 0 1.438.717 1.121 1.382-.61zM67 238.622c0-.207-.787-.995-1.75-1.75-1.586-1.243-1.621-1.208-.378.378 1.307 1.666 2.128 2.195 2.128 1.372zm-37.872-4.372c1.243-1.586 1.208-1.621-.378-.378-.963.755-1.75 1.543-1.75 1.75 0 .823.821.294 2.128-1.372zm32.375-1.245c-.338-.547-1.602-1.477-2.809-2.067-1.89-.924-1.848-.789.306.973 2.8 2.29 3.406 2.555 2.503 1.094zm-20.774-4.61c-.332-.331-1.195-.367-1.916-.078-.798.32-.561.556.604.604 1.054.043 1.644-.193 1.312-.525zm7.021-1.084c-.963-.252-2.538-.252-3.5 0-.963.251-.175.457 1.75.457s2.712-.206 1.75-.457zm130.75 49.083c-6.593-3.367-8.687-5.433-11.856-11.698-3.548-7.012-3.74-17.784-.433-24.403 8.165-16.35 30.475-20.115 44.165-7.453 6.57 6.076 9.392 18.253 6.578 28.385-1.542 5.555-6.87 11.935-12.479 14.944-4.162 2.232-6.282 2.677-12.975 2.724-6.676.046-8.828-.367-13-2.499zm10.75-.056c-.688-.278-1.813-.278-2.5 0-.688.277-.125.504 1.25.504s1.938-.227 1.25-.504zm7.019.006c-.677-.274-2.027-.29-3-.037-.973.253-.419.477 1.231.498 1.65.02 2.446-.187 1.769-.461zM181 274.607c0-.216-.698-.661-1.552-.989-.89-.341-1.291-.173-.94.393.586.95 2.492 1.406 2.492.596zm12.643-1.107c-1.845-1.844-2.61-1.84-5.084.032-1.805 1.365-1.641 1.468 2.321 1.468 3.79 0 4.096-.167 2.763-1.5zm9.85.511c.35-.566-.051-.734-.941-.393-1.732.665-2.05 1.382-.611 1.382.518 0 1.216-.445 1.552-.989zm-18.037-.939c.315-.51-.446-1.238-1.691-1.616-1.246-.378-3.672-1.741-5.392-3.029-1.72-1.287-3.479-2.022-3.91-1.634-.431.389-.512.229-.18-.355.832-1.465-2.854-6.94-3.724-5.533-.373.602-.174 1.095.441 1.095s.863.412.552.915c-1.316 2.13 9.069 11.131 10.821 9.378.345-.344.627-.101.627.54 0 1.392 1.644 1.552 2.455.239zm13.544-.131c0-.582.47-.769 1.043-.414 1.543.953 7.641-4.08 10.728-8.857 2.28-3.528 2.692-5.247 2.676-11.17-.017-5.965-.447-7.687-2.915-11.649-1.803-2.895-4.82-5.815-8-7.742-4.41-2.673-5.983-3.076-11.568-2.967-7.077.14-12.469 2.064-14.049 5.016-.558 1.044-1.359 1.686-1.778 1.426-.866-.534-6.137 7.19-6.137 8.994 0 .647.675 1.737 1.5 2.422s1.5 2.717 1.5 4.515c0 1.985-.59 3.497-1.5 3.847-1.191.457-1.53-.396-1.65-4.143-.103-3.25-.284-3.813-.581-1.811-.238 1.6-.142 4.458.214 6.353.589 3.138.763 3.284 1.961 1.646 1.209-1.653 1.479-1.48 3.33 2.147 1.107 2.17 3.038 4.846 4.291 5.946 1.254 1.1 1.956 1.447 1.562.772-.395-.675-.022-3.57.828-6.431.85-2.862 1.545-5.32 1.545-5.46 0-.141-2.025-1.711-4.5-3.488-2.475-1.778-4.507-3.943-4.515-4.813-.014-1.385-.135-1.395-.985-.08-.533.825-.976 1.2-.985.832-.008-.368-.316-1.454-.685-2.414-.423-1.102-.281-1.506.384-1.095.586.362 1.625-.727 2.34-2.452.707-1.707 2.994-4.342 5.082-5.855 2.088-1.512 3.6-2.947 3.358-3.189-.241-.241 2.963-.547 7.12-.68 9.104-.29 14.954 2.062 19.157 7.705 1.495 2.007 2.95 3.873 3.234 4.148.283.275.588 3.2.676 6.5l.161 6-.789-5.06C209.39 240.763 200.86 233 190.793 233c-3.987 0-5.98.68-10.207 3.487-2.889 1.917-5.777 4.637-6.418 6.043l-1.164 2.556 6.025-.5c3.313-.276 6.407-.738 6.875-1.027.467-.289 1.362-2.558 1.987-5.042.854-3.39 1.616-4.517 3.056-4.517 1.13 0 2.184.923 2.565 2.25.356 1.238 1.307 3.713 2.114 5.5 1.397 3.093 1.732 3.25 6.952 3.25 6.392 0 8.411 2.192 4.535 4.925-7.562 5.33-7.583 5.366-6.01 10.17 1.59 4.863 1.407 7.905-.48 7.905-.676 0-3.14-1.405-5.475-3.123l-4.247-3.123-4.917 3.356c-2.947 2.011-4.554 3.72-4.01 4.264 1.267 1.267 10.191 2.005 14.491 1.199 4.373-.82 10.349-5.883 12.214-10.348 1.35-3.231 3.321-3.592 3.321-.607 0 .825-.384 1.263-.854.972-.882-.545-3.65 4.27-3.296 5.734.11.454-.331.497-.98.096-.802-.496-.919-.28-.364.675.448.773.48 1.106.073.74-.408-.365-2.343.422-4.3 1.75-1.957 1.328-3.945 2.415-4.419 2.415-.473 0-.86.45-.86 1s.45 1 1 1 1-.477 1-1.059zm-22-.245c0-.167-1.688-1.854-3.75-3.75l-3.75-3.446 3.446 3.75c3.208 3.49 4.054 4.21 4.054 3.446zm30.128-1.446c1.243-1.586 1.208-1.621-.378-.378-1.666 1.307-2.195 2.128-1.372 2.128.207 0 .995-.787 1.75-1.75zm4-4c1.243-1.586 1.208-1.621-.378-.378-1.666 1.307-2.195 2.128-1.372 2.128.207 0 .995-.787 1.75-1.75zm-22.632-6.243c1.026-1.66 3.178-1.152 6.322 1.493 3.591 3.022 4.99 3.309 2.115.433-1.677-1.677-1.835-2.346-.838-3.547.99-1.193 1.397-1.228 2.097-.183.794 1.185.328-2.49-.76-5.993-.68-2.193 1.921-5.206 4.559-5.28 2.274-.064 2.322-.146.509-.877-1.1-.443-2.474-.43-3.053.03-.585.463-2.14.286-3.5-.401-3.37-1.702-5.357-1.505-5.757.568-.233 1.212.3 1.75 1.737 1.75 1.551 0 2.073.637 2.073 2.531 0 1.393-.672 2.79-1.494 3.105-.822.316-1.241.984-.931 1.485.31.501 1.052.61 1.649.24.632-.39.799-.207.398.44-.377.612-1.234.902-1.904.645-.67-.257-2.358.591-3.752 1.884-1.394 1.293-3.275 2.242-4.18 2.109-1.052-.154-1.597.416-1.51 1.579.125 1.656.382 1.693 2.867.408 1.502-.776 3.01-1.865 3.353-2.419zm6.583-5.59c.048-1.165.285-1.402.604-.604.289.721.253 1.584-.079 1.916-.332.332-.568-.258-.525-1.312zm0-4c.048-1.165.285-1.402.604-.604.289.721.253 1.584-.079 1.916-.332.332-.568-.258-.525-1.312zm4.921 10.75c0-.459-.655-.834-1.456-.834-.8 0-1.224.375-.941.834.283.458.938.833 1.456.833s.941-.375.941-.833zm14.788-2.304c-.25-.749-.703-.295-1.057 1.057-.435 1.663-.305 2.054.437 1.312.582-.582.86-1.647.62-2.369zM185 259c0-.55-.45-1-1-1s-1 .45-1 1 .45 1 1 1 1-.45 1-1zm5-2.835c0-.42-.492-1.257-1.093-1.858-.67-.67-.764-1.811-.244-2.95.466-1.021.83-3.544.81-5.607-.037-3.713.783-4.763 2.08-2.663.412.666 1.031.729 1.597.163 1.233-1.233-.707-6.274-2.375-6.171-1.003.062-1.008.186-.025.583.687.278 1.25 1.19 1.25 2.028 0 .907-.576 1.303-1.423.978-1.675-.643-3.136 3.205-3.06 8.058.068 4.308-2.166 4.985-5.599 1.696-1.515-1.452-3.242-2.34-3.837-1.972-.594.367-1.081.134-1.081-.519 0-.824 1.22-.991 4-.547 2.453.392 4 .248 4-.372 0-1.239-6.967-1.32-8.888-.103-1.061.673-.38 1.609 2.9 3.985 2.359 1.708 4.783 3.12 5.388 3.138.605.017 2 .749 3.1 1.625 1.98 1.577 1.979 1.588-.175 1.081-1.558-.366-2.026-.123-1.65.857.39 1.016 1.014 1.107 2.425.352 1.045-.56 1.9-1.362 1.9-1.782zm-23.338-1.415c-.277-.688-.504-.125-.504 1.25s.227 1.938.504 1.25c.278-.688.278-1.813 0-2.5zm49.021 1.063c-.32-.798-.556-.561-.604.604-.043 1.054.193 1.644.525 1.312.332-.332.368-1.195.08-1.916zM192 252c0-.55-.198-1-.441-1s-.72.45-1.059 1c-.34.55-.141 1 .441 1s1.059-.45 1.059-1zm10.043-.833c1.796-1.455 1.923-1.834.614-1.834-.907 0-2.395.825-3.308 1.834-.912 1.008-1.19 1.833-.615 1.833s2.063-.825 3.308-1.833zm-15.522-3.979c-.286-.287-.521.004-.521.645 0 .642-.73 1.167-1.622 1.167-1.37 0-1.417.248-.305 1.588 1.181 1.423 1.403 1.356 2.144-.645.454-1.228.591-2.468.304-2.755zm-19.859-.438c-.277-.688-.504-.125-.504 1.25s.227 1.938.504 1.25c.278-.688.278-1.813 0-2.5zm47.93-3.149c-.934-2.444-2.291-4.936-3.017-5.539-.726-.602-.252 1.014 1.053 3.591 1.304 2.577 2.372 5.36 2.372 6.183 0 .824.29 1.207.644.853.355-.354-.119-2.644-1.052-5.088zm-41.03-8.851l2.938-3.25-3.25 2.937c-3.03 2.738-3.71 3.563-2.937 3.563.172 0 1.635-1.462 3.25-3.25zm8.355-5.385c1.372-1.201-1.883-.086-3.476 1.19-1.83 1.467-1.798 1.487.559.365 1.375-.655 2.688-1.355 2.917-1.555zM200 229c-.825-.533-2.175-.945-3-.914-.99.036-.819.347.5.914 2.75 1.181 4.328 1.181 2.5 0zm-7.731-1.656c-.677-.274-2.027-.29-3-.037-.973.254-.419.478 1.231.498 1.65.02 2.446-.187 1.769-.461zm-153.18-38.387c-6.064-1.248-11.719-5.43-15.942-11.791-3.386-5.1-3.558-5.773-3.568-14.012-.012-9.973 1.696-14.252 8.086-20.258 5.129-4.82 10.895-6.898 19.105-6.887 5.604.008 7.586.5 11.842 2.942 9.417 5.401 14.33 13.51 14.366 23.716.064 17.967-15.531 30.065-33.889 26.29zm14.161-2.62c-.688-.277-1.813-.277-2.5 0-.688.278-.125.505 1.25.505s1.938-.227 1.25-.504zm3.47-3.969c.751-1.027 1.572-1.755 1.823-1.618.251.137.457.025.457-.25 0-.772-.234-.718-4.415 1.03-2.621 1.094-6.093 1.54-10.5 1.348-6.498-.283-6.66-.36-12.252-5.812-3.117-3.039-5.453-5.872-5.191-6.296.262-.423 0-.77-.583-.77-1.288 0-1.365-2.968-.128-4.922.66-1.044 1.21-.247 2.07 3 2.918 11.013 15.94 17.08 25.789 12.014 4.595-2.364 8.722-6.64 10.221-10.592 1.094-2.883 1.194-2.924 2.564-1.059 1.2 1.634 1.425 1.682 1.425.3 0-.903-.716-2.042-1.59-2.532-1.844-1.032-1.573-5.334.377-5.976.898-.296 1.146.355.82 2.155-.258 1.419-.05 2.838.462 3.155 1.05.648 1.215-2.882.295-6.314-.48-1.796-.897-2.032-1.986-1.128-.758.63-1.378.85-1.378.489 0-.36-2.418 1.17-5.374 3.402l-5.373 4.058 1.33 3.725c2.883 8.078.726 10.096-5.722 5.354l-4.176-3.07-4.04 2.97c-5.96 4.383-7.043 4.029-6.238-2.041.366-2.757.894-5.609 1.174-6.338.298-.776-1.167-2.434-3.536-4.002-2.47-1.634-4.045-3.45-4.045-4.662 0-1.736.68-1.986 5.402-1.986 5.185 0 5.45-.13 6.59-3.25 3.465-9.49 3.378-9.767-2.335-7.38-4.155 1.736-10.237 8.78-11.038 12.783-.437 2.19-1.041 2.899-2.116 2.487-.962-.37-1.541.042-1.609 1.141-.562 9.12 3.226 15.79 11.923 20.994 4.585 2.743 18.802 2.466 20.903-.407zM33 183.622c0-.207-.787-.995-1.75-1.75-1.586-1.243-1.621-1.208-.378.378 1.307 1.666 2.128 2.195 2.128 1.372zm-5-5c0-.207-.787-.995-1.75-1.75-1.586-1.243-1.621-1.208-.378.378 1.307 1.666 2.128 2.195 2.128 1.372zm36.927-3.257c2.242-2.85 2.704-4.742 1.022-4.181-1.525.508-5.337 6.816-4.12 6.816.564 0 1.959-1.186 3.098-2.635zm-27.244-2.553c-.32-.797-.556-.56-.604.605-.043 1.054.193 1.644.525 1.312.332-.332.368-1.195.08-1.917zm5.557-1.334c1.496-1.387 2.954-2.512 3.24-2.5 3.596.15 3.695.02 3.02-3.978-.478-2.827-.323-4 .529-4 .712 0 .99.817.681 2-.287 1.1-.157 2 .29 2 .447 0 .599.819.337 1.82-.262 1 .23 2.406 1.093 3.122 1.387 1.15 1.493.924.918-1.952-.538-2.69-.234-3.573 1.75-5.1 1.709-1.313 1.955-1.852.852-1.868-.853-.012-2.145.54-2.872 1.228-1.09 1.03-1.124.863-.188-.957.624-1.214 1.875-2.622 2.78-3.128 1.211-.678.643-.887-2.153-.793-3.356.113-3.927-.22-4.907-2.872-.61-1.65-1.772-3.146-2.582-3.324-1.12-.247-1.037.157.348 1.687 1.001 1.106 1.495 2.537 1.097 3.18-.535.866-.947.817-1.583-.186-.628-.991-.864-.75-.875.893-.009 1.327-.63 2.25-1.515 2.25-.825 0-1.5-.372-1.5-.827 0-.455-1.318-.633-2.93-.397-1.998.294-2.758.874-2.392 1.827.327.851-.115 1.397-1.13 1.397-.916 0-1.388-.45-1.048-1 .34-.55.393-1 .118-1s-.766.43-1.092.957c-.325.527.773 1.664 2.441 2.526 1.668.863 3.04 2.12 3.048 2.793.036 2.87 1.643 3.978 3.965 2.735 1.634-.875 1.937-1.494 1.127-2.304-2.616-2.616-.006-7.999 2.983-6.151 1.303.805 1.127 5.444-.207 5.444-.624 0-.886.882-.593 2.001.288 1.101.143 1.766-.323 1.479-.466-.288-2.336.384-4.157 1.494-1.82 1.11-2.635 2.027-1.81 2.038 1.333.016 1.333.126 0 .988-.825.533-1.045.976-.49.985.556.008 2.234-1.12 3.73-2.507zM47.5 167c.34-.55.816-1 1.059-1s.441.45.441 1-.477 1-1.059 1-.78-.45-.441-1zm-7.293-1.464c.39-.431-.285-1.613-1.5-2.627-1.214-1.013-1.671-1.857-1.016-1.876.655-.018 1.536.525 1.957 1.207.523.845.993.447 1.477-1.25.618-2.163.693-2.054.574.836-.075 1.83-.6 3.589-1.167 3.91-.568.322-.714.232-.325-.2zm10.863 6.595c-.55-1.027-.692-2.176-.315-2.552.376-.377-.09-.388-1.035-.025-2.027.778-2.16 1.606-.52 3.246 1.838 1.838 2.991 1.426 1.87-.669zM55 173c0-.55-.45-1-1-1s-1 .45-1 1 .45 1 1 1 1-.45 1-1zm-32.317-4.188c-.32-.797-.556-.56-.604.605-.043 1.054.193 1.644.525 1.312.332-.332.368-1.195.08-1.917zm48.033-8.562c-.229-1.512-.416-.275-.416 2.75s.187 4.263.416 2.75c.23-1.512.23-3.987 0-5.5zm-49.01.5c-.239-1.238-.434-.225-.434 2.25s.195 3.487.434 2.25c.238-1.238.238-3.263 0-4.5zm3.656-3.25c-.326-.85-.024-1.5.698-1.5.7 0 .994-.28.653-.62-.838-.838 8.096-10.185 10.447-10.93 1.835-.583 1.65-2.45-.241-2.45-1.877 0-10.07 8.424-11.484 11.81-1.685 4.033-1.79 5.19-.466 5.19.532 0 .71-.675.393-1.5zM27 151.622c0-.207.787-.995 1.75-1.75 1.586-1.243 1.621-1.208.378.378-1.307 1.666-2.128 2.195-2.128 1.372zm5-5c0-.207.787-.995 1.75-1.75 1.586-1.243 1.621-1.208.378.378-1.307 1.666-2.128 2.195-2.128 1.372zm-9.317 9.19c-.32-.797-.556-.56-.604.605-.043 1.054.193 1.644.525 1.312.332-.332.368-1.195.08-1.917zm21.06-1.05c.127-1.686-.05-1.883-.721-.797-.49.792-.668 1.798-.397 2.237.754 1.22.935.988 1.118-1.44zm17.885-2.577C59.061 148.481 51.985 144 48.701 144c-1.44 0-1.44.422.001 4.75.87 2.612 2.005 5.291 2.523 5.953.784 1.001 11.39 2.312 12.674 1.565.219-.127-.803-1.965-2.27-4.083zm4.616 2.15c-.691-.278-.96-.987-.596-1.575.394-.637.188-.777-.51-.345-1.377.85-.55 2.62 1.171 2.506.852-.056.834-.223-.065-.585zM24.92 151c1.122-2.357 1.102-2.39-.365-.559-.855 1.068-1.555 2.38-1.555 2.917 0 1.27.462.703 1.92-2.358zM69 153.11c0-.488-.906-1.95-2.014-3.25l-2.015-2.36 1.765 3.244c1.85 3.401 2.264 3.834 2.264 2.367zm-5.403-4.275c-2.308-3.295-8.272-6.897-10.198-6.158-1.174.45-1.496.288-1.004-.507.43-.695.114-1.17-.777-1.17-2.876 0-2.613 1.842.357 2.494 1.645.362 3.245.604 3.555.538.31-.066 2.23 1.646 4.266 3.804 3.776 4 6.383 4.685 3.801 1zm-17.473-1.102c-.988-.98-1.102-.865-.56.56.376.986.935 1.541 1.243 1.233.308-.307 0-1.114-.683-1.793zM29 145.5c1.292-1.375 2.124-2.5 1.849-2.5-.275 0-1.557 1.125-2.849 2.5-1.292 1.375-2.124 2.5-1.849 2.5.275 0 1.557-1.125 2.849-2.5zm36 1.122c0-.207-.787-.995-1.75-1.75-1.586-1.243-1.621-1.208-.378.378 1.307 1.666 2.128 2.195 2.128 1.372zm-4.497-3.617c-.338-.547-1.602-1.477-2.809-2.067-1.89-.924-1.848-.789.306.973 2.8 2.29 3.406 2.555 2.503 1.094zM41.5 142c.34-.55-.11-1-1-1s-1.34.45-1 1c.34.55.79 1 1 1 .21 0 .66-.45 1-1zm6.25-1.69c-.963-.25-2.538-.25-3.5 0-.963.252-.175.458 1.75.458s2.712-.206 1.75-.457zm1.514-2.014c-1.23-.237-3.48-.243-5-.014-1.52.23-.514.425 2.236.432 2.75.007 3.994-.18 2.764-.418zm133.972 50.725c-1.796-.426-5.022-1.937-7.17-3.358-11.492-7.606-15.294-21.918-9.098-34.253 3.5-6.967 8.352-11.124 15.883-13.609 6.81-2.247 10.47-2.265 17.284-.085 7.34 2.347 15.125 10.054 17.195 17.023 1.69 5.69 1.333 14.74-.781 19.798-4.852 11.612-19.172 17.838-33.313 14.484zm11.028-1.725c-1.23-.237-3.48-.243-5-.014-1.52.23-.514.425 2.236.432 2.75.007 3.994-.18 2.764-.418zm.278-2.364c.363-.588 1.294-.825 2.068-.528.774.297 2.505.123 3.846-.387 3.275-1.245 10.668-8.008 9.977-9.126-.303-.49-.118-.891.41-.891 2.848 0 4-13.045 1.649-18.68-2.777-6.658-11.634-14.247-15.082-12.924-.776.298-1.41.105-1.41-.427 0-.533-2.277-.969-5.059-.969-3.547 0-4.847.342-4.35 1.146.492.797-.044.957-1.758.527-2.492-.626-5.1.638-9.552 4.628-1.22 1.095-1.974 2.386-1.675 2.87.66 1.07 7.008-4.116 6.619-5.407-.151-.503.692-.608 1.875-.232 1.278.405 1.91.294 1.56-.275-.365-.588 2.57-.836 7.624-.645 9.995.38 10.766.498 10.113 1.555-.283.458-.146.833.304.833.924 0 4.76 3.49 7.878 7.17 2.631 3.103 3.207 13.013 1.055 18.163-.805 1.927-1.165 3.838-.799 4.246.366.408.168.458-.44.112-.607-.346-2.182.525-3.5 1.935-3.16 3.382-7.144 5.385-10.595 5.326-2.384-.04-2.13-.279 1.7-1.603 5.212-1.8 7.21-3.369 11.146-8.749 5.736-7.839 3.125-17.715-6.656-25.175-3.044-2.322-4.67-2.793-9.845-2.853-5.461-.063-6.719.31-10.554 3.13-4.705 3.46-8.091 8.185-8.091 11.29 0 2.349-2.661 1.687-3.327-.827-.243-.916-.458 1.26-.478 4.835-.02 3.575.19 5.937.467 5.25.923-2.287 2.921-1.292 4.133 2.059 1.384 3.828 7.434 10.283 6.581 7.022-.277-1.062.15-3.83.95-6.153l1.456-4.223-4.434-3.633c-6-4.917-5.49-6.683 2.118-7.322l5.949-.5 1.042-4.002c2.168-8.32 4.483-8.661 7.073-1.04l1.855 5.457 6.058.292c5.365.26 6.093.543 6.369 2.485.226 1.588-.507 2.616-2.655 3.727-5.622 2.907-6.243 4.085-4.606 8.727.797 2.258 1.449 4.738 1.449 5.511 0 2.792-3.139 2.582-7.426-.496l-4.312-3.097-4.636 3.296c-4.522 3.215-4.58 3.324-2.381 4.427 1.24.621 3.38 1.312 4.755 1.535 1.84.299 1.562.442-1.054.542-5.034.193-11.878-4.4-14.582-9.785-1.372-2.731-2.403-3.825-2.879-3.055a1.423 1.423 0 0 0 .472 1.95c.668.412 1.107 1.092.976 1.51-.438 1.397 5.103 7.483 8.355 9.177 5.733 2.987 13.088 4.158 14.254 2.27zM175.5 148c.995-1.1 2.035-2 2.31-2 .275 0-.315.9-1.31 2-.995 1.1-2.035 2-2.31 2-.275 0 .315-.9 1.31-2zm-.5 33.622c0-.207-.787-.995-1.75-1.75-1.586-1.243-1.621-1.208-.378.378 1.307 1.666 2.128 2.195 2.128 1.372zm23.675-6.28c-.362-.362-.202-1.207.355-1.878 1.118-1.347-.149-5.801-1.968-6.926-1.643-1.015-1.254 2.058.438 3.462 2.015 1.672 1.896 2.885-.25 2.548-.997-.157-1.624-.978-1.457-1.908.225-1.255-.352-1.549-2.5-1.27-4.469.58-7.96 2.33-7.96 3.991 0 1.283.453 1.215 2.738-.412 3.531-2.514 4.275-2.46 7.523.551 2.308 2.139 4.969 3.73 3.081 1.842zm-11.82-5.582c1.455-.61 3.73-1.235 5.057-1.388 2.462-.283 4.045-1.886 4.073-4.122.008-.688-.435-1.25-.985-1.25s-.947.338-.882.75c.315 1.993-.219 3.306-1.118 2.75-.55-.34-1-.086-1 .563 0 .848-.453.806-1.6-.147-3.484-2.89-5.795-1.676-6.826 3.59-.322 1.647-.311 2.402.025 1.68.336-.724 1.801-1.815 3.256-2.426zm-1.252-1.593c-.283-.459.12-.834.897-.834s1.18.375.897.834c-.283.458-.687.833-.897.833-.21 0-.614-.375-.897-.833zm30.08.645c-.32-.797-.556-.56-.604.605-.043 1.054.193 1.644.525 1.312.332-.332.368-1.195.08-1.917zm-48.977-8.062c-.239-1.238-.434-.225-.434 2.25s.195 3.487.434 2.25c.238-1.238.238-3.263 0-4.5zm22.41.885c.063-.624.125-2.823.137-4.885.013-2.063.438-3.75.944-3.75.507 0 .613-.498.237-1.107-1.051-1.7-2.388 1.033-2.498 5.107-.052 1.925-.32 2.938-.598 2.25-.278-.688-1.67-1.25-3.096-1.25-2.552 0-2.562.029-.667 1.872 1.059 1.03 2.257 1.681 2.664 1.448.406-.233.464.29.129 1.164-.553 1.441-.829 1.444-2.989.029-1.308-.858-2.379-1.269-2.379-.914 0 .355-.58.253-1.289-.227s.057.316 1.703 1.768c2.777 2.45 3.157 2.532 5.29 1.135 1.262-.828 2.348-2.016 2.411-2.64zm2.884 1.806c0-.857-.457-1.276-1.016-.93-.56.345-.758 1.046-.441 1.558.857 1.387 1.457 1.129 1.457-.628zm8.066.524c1.064-.57 1.934-1.56 1.934-2.2 0-.867-.307-.858-1.2.035-1.451 1.451-3.165 1.6-2.3.2.34-.55-.041-1-.847-1-.973 0-1.29.672-.943 2 .604 2.31.76 2.354 3.356.965zm-2.816-3.607c2.063-.34 3.75-1.07 3.75-1.62 0-.585-1.46-.763-3.522-.428-2.09.339-3.286.189-2.941-.37.32-.517-.57-.94-1.978-.94-2.408 0-3.428 1.797-1.892 3.333.815.816 1.779.82 6.583.025zm-18.52-1.962c-.333-.332-1.196-.368-1.917-.08-.798.32-.561.557.604.605 1.054.043 1.644-.193 1.312-.525zm-5.592-4.585c.512-.997.477-1.93-.085-2.278-1.377-.851-3.168 3.005-2.366 5.094.538 1.4.775 1.468 1.132.322.248-.797.842-2.21 1.319-3.138zm19.96-2.051c-1.034-2.722-3.098-4.6-3.098-2.819 0 .582.499 1.059 1.108 1.059.665 0 .872.942.519 2.352-.648 2.581.248 4.173 1.593 2.828.472-.472.418-2.002-.121-3.42zm18.992-2.592c-.54-1.008-1.766-2.47-2.727-3.25-1.08-.878-.838-.18.634 1.832 2.626 3.588 3.611 4.255 2.093 1.418zM174 146.5c1.866-1.925 3.167-3.5 2.892-3.5-.275 0-2.026 1.575-3.892 3.5s-3.167 3.5-2.892 3.5c.275 0 2.026-1.575 3.892-3.5zm33-1.878c0-.207-.787-.995-1.75-1.75-1.586-1.243-1.621-1.208-.378.378 1.307 1.666 2.128 2.195 2.128 1.372zm-24.083-4.257c1.372-1.201-1.883-.086-3.476 1.19-1.83 1.467-1.798 1.487.559.365 1.375-.655 2.688-1.355 2.917-1.555zm3.812-.97c-.332-.331-1.195-.367-1.917-.078-.797.32-.56.556.605.604 1.054.043 1.644-.193 1.312-.525zm11 0c-.332-.331-1.195-.367-1.917-.078-.797.32-.56.556.605.604 1.054.043 1.644-.193 1.312-.525zM35.581 97.986c-12.634-4.932-19.04-18.565-15.554-33.097 1.044-4.354 2.34-6.414 6.893-10.968 4.552-4.552 6.615-5.849 10.962-6.892 13.773-3.304 25.874 1.767 31.863 13.352 3.755 7.266 3.777 17.943.05 25.12-3.26 6.276-5.863 8.702-12.795 11.924-6.725 3.126-14.34 3.326-21.419.562zm13.169-.701c-1.512-.23-3.987-.23-5.5 0-1.512.229-.275.416 2.75.416s4.263-.187 2.75-.416zm-.25-2.373c-1.54-.731-1.195-.83 1.5-.432 2.508.371 3.075.24 2-.465-.825-.54-3.75-.929-6.5-.863-2.75.067-3.915.326-2.588.576 1.867.352 2.093.657 1 1.348-.96.609-.133.877 2.588.84 3.282-.046 3.641-.226 2-1.004zm10.059-.466c1.83-1.467 1.798-1.487-.559-.365-3.061 1.458-3.628 1.92-2.358 1.92.537 0 1.85-.7 2.917-1.555zM39 93c.825-.533 1.05-.97.5-.97s-1.675.437-2.5.97c-.825.533-1.05.97-.5.97s1.675-.437 2.5-.97zm16 0c-1.235-.798-1.25-.972-.083-.985.779-.008 1.18-.25.893-.539-.288-.287-1.3-.225-2.25.14-1.37.525-1.451.838-.394 1.508.734.465 1.784.845 2.334.845s.325-.436-.5-.969zm-24-.326c0-.179-1.238-1.416-2.75-2.75L25.5 87.5l2.424 2.75C30.19 92.82 31 93.459 31 92.674zm3.633-.924c-.104-.688-.588-1.889-1.075-2.67-.698-1.118-.48-1.247 1.028-.607 7.947 3.377 10.578 3.809 15.923 2.612 4.182-.935 6.154-2.076 8.96-5.181 1.978-2.19 3.863-5.315 4.189-6.943.635-3.177 2.05-3.885 2.97-1.487.312.811-.133 2.174-.988 3.03-.86.859-1.275 2.285-.928 3.189.377.98.22 1.383-.389 1.007-1.182-.73-6.603 4.598-6.927 6.809-.173 1.174.313 1.078 2.251-.446 3.532-2.779 6.58-6.886 5.912-7.968-.314-.508-.095-1.083.488-1.277C68.67 80.943 69.407 67 66.83 67c-.522 0-.672-.446-.335-.992s.201-1.729-.302-2.628c-1.361-2.432-2.122-.275-.924 2.62.568 1.375.929 3.337.8 4.36-.139 1.116.2 1.592.85 1.19.594-.367 1.081-.191 1.081.391 0 .582-.563 1.066-1.25 1.074-.847.01-.767.357.25 1.076 1.333.943 1.333 1.016 0 .658-.825-.222-2.011-2.44-2.636-4.93-2.098-8.353-5.22-11.842-13.21-14.763-5.048-1.845-5.26-1.845-10.307 0-5.546 2.027-9.264 4.96-11.34 8.944l-1.301 2.5 6.065-.5 6.066-.5 1.663-5c1.176-3.538 2.25-5.087 3.674-5.299 1.662-.247 2.255.62 3.422 5l1.412 5.299 5.996.5c7.773.648 8.458 3.003 2.211 7.605-2.332 1.717-4.038 3.728-3.82 4.5l1.456 5.14c1.693 5.983-.247 6.887-5.966 2.78-4.153-2.983-4.877-3.197-6.768-2.005-6.248 3.94-7.546 4.45-8.61 3.386-.698-.697-.766-1.936-.19-3.493 2.514-6.813 2.386-7.428-2.25-10.758-5.117-3.675-5.275-3.712-5.878-1.405-.333 1.277-.488 1.123-.573-.571-.103-2.064-.283-2.155-1.616-.822-1.9 1.9-1.955 5.643-.083 5.643.779 0 1.618-.563 1.864-1.25.246-.688.96.604 1.587 2.87.626 2.265 2.037 5.261 3.135 6.657 2.715 3.452 2.522 4.565-.327 1.888-1.278-1.2-2.671-1.842-3.095-1.424-.424.417-.675.084-.558-.741.462-3.245.028-4.45-1.172-3.251-.865.865-.73 1.787.544 3.732.931 1.42 2.058 2.357 2.504 2.082.445-.276 1.854.61 3.13 1.968C33.305 89.889 34.019 91 33.615 91c-.403 0-.455.45-.115 1 .846 1.369 1.362 1.255 1.133-.25zM58 90.696c0-.177 1.406-1.644 3.125-3.259 2.188-2.056 2.743-2.307 1.852-.835-1.1 1.816-4.977 5.005-4.977 4.094zm-4.447-5.61c-.311-.504 0-1.174.69-1.491.692-.317.188-.307-1.118.021-1.753.442-2.171.268-1.596-.663.507-.82.376-1.012-.374-.548-.635.392-1.155.236-1.155-.346S49.238 81 48.306 81c-1.14 0-.587.817 1.694 2.5 3.623 2.673 4.454 3.044 3.553 1.585zM45.5 80.74c2.096-1.048 3.722-1.229 5.395-.6 1.318.496 2.63.667 2.917.38.287-.286.074-.521-.472-.521-1.697 0-.232-5.9 1.61-6.484.954-.303 2.763-1.646 4.021-2.986l2.288-2.435-5.002.34c-5.23.356-7.666-.465-7.846-2.643-.058-.71-.175-2.005-.259-2.875-.083-.871-.829-1.584-1.656-1.584-1.276 0-1.249.283.176 1.857 1.289 1.424 1.406 2.132.504 3.034-.901.901-1.197.72-1.266-.774-.053-1.134-.495-.543-1.058 1.412-.878 3.053-1.086 3.2-2.257 1.599-.834-1.14-1.525-1.383-1.956-.686-.438.709-1.708.779-3.71.205-1.674-.48-3.943-.54-5.043-.133-1.985.734-1.984.754.1 2.64 2.014 1.823 2.07 1.825 1.387.043-.494-1.288-.354-1.636.457-1.135.644.398 1.17 1.357 1.17 2.132 0 .775 1.238 2.08 2.75 2.901 1.512.82 2.357 1.51 1.878 1.532-.975.045 1.255 3.049 2.244 3.025.346-.009 1.285-.431 2.088-.94 1.26-.796 1.227-1.18-.242-2.804-1.436-1.586-1.496-2.162-.387-3.68 1.014-1.386 2.042-1.638 4.492-1.1 3.814.838 4.144 3.141.677 4.721-1.375.626-2.5 1.572-2.5 2.101 0 .529.748.344 1.663-.41 1.426-1.178 1.588-1.16 1.142.127-.286.825-1.254 1.438-2.152 1.363-.897-.075-1.388.257-1.09.738.297.482-.107.628-.898.324-.885-.34-2.324.722-3.74 2.761-1.895 2.727-1.96 3.025-.364 1.685 1.066-.897 3.289-2.305 4.939-3.13zM50 77.5c0-.825.436-1.5.969-1.5.532 0 .71.675.393 1.5-.317.825-.753 1.5-.969 1.5-.216 0-.393-.675-.393-1.5zm-9.118-.25a5.792 5.792 0 0 1-.007-1.481c.062-.402-.972-1.442-2.297-2.31-3.179-2.083-4.048-4.37-1.59-4.185 1.03.078 1.685.447 1.454.82-.231.374.203 1.196.964 1.828 1.074.892 1.351.818 1.239-.328-.08-.812.305-1.458.855-1.435.55.022.827.558.615 1.191-.212.632-.406 2.388-.432 3.9-.043 2.542-.526 3.746-.801 2zm12.295-6.163C53.93 69.885 55.53 69 56.955 69c2.148 0 2.281.183 1.01 1.393-.806.766-2.506 1.705-3.778 2.087-2.14.643-2.215.538-1.01-1.393zm-14.523 9.259c.11-1.898-.1-2.253-.735-1.25C36.83 80.82 36.734 83 37.75 83c.412 0 .82-1.194.904-2.653zM21.662 74.75c-.277-.688-.504-.125-.504 1.25s.227 1.938.504 1.25c.278-.688.278-1.813 0-2.5zm49.027-3.5c-.251-.963-.457-.175-.457 1.75s.206 2.712.457 1.75c.252-.963.252-2.538 0-3.5zM47 72.941c0-.518-.45-.941-1-.941s-1 .702-1 1.559.45 1.28 1 .941c.55-.34 1-1.041 1-1.559zM21.662 68.75c-.277-.688-.504-.125-.504 1.25s.227 1.938.504 1.25c.278-.688.278-1.813 0-2.5zm4.412-3.204c.497.307.607-.214.245-1.158-.447-1.164-.283-1.484.511-.993.644.398 1.17.31 1.17-.196 0-.505 1.543-2.427 3.428-4.27 1.886-1.844 3.19-3.737 2.9-4.207-.29-.47.079-.772.822-.67 2.5.343 3.972-.046 3.438-.909-.29-.471 2.27-.77 5.691-.664 7.304.226 10.507-.529 6.721-1.583-4.156-1.158-9.202-1.032-8.434.211.458.741-.002.89-1.39.449-2.468-.784-8.27 1.94-7.919 3.716.134.675-.657 1.239-1.757 1.252-1.342.016-1.902.597-1.703 1.766.164.958-.06 1.622-.5 1.476-.438-.146-.91.072-1.047.484-.137.413-1.15 1.65-2.25 2.75s-1.964 2.563-1.921 3.25c.063.993.183.992.585-.006.279-.691.913-1.005 1.41-.698zM44 63c0-1.65-.174-3-.387-3-.212 0-.584 1.35-.826 3s-.069 3 .386 3S44 64.65 44 63zm17.235-6.111c-2.345-2.194-4.708-3.715-5.25-3.38-.542.335-.985.106-.985-.509s-.487-.817-1.083-.449c-.647.4.086 1.38 1.822 2.437 1.598.971 3.998 3.12 5.333 4.776 1.564 1.939 2.784 2.672 3.428 2.061.653-.618-.482-2.333-3.265-4.936zm5.795 3.167c-.573-1.07-1.535-2.25-2.14-2.623-.603-.374-.324.501.621 1.944 2.002 3.055 3.038 3.518 1.519.679zm-20.847-2.273c-.717-.717-1.183-.776-1.183-.15 0 .569.3 1.334.667 1.7.366.367.899.435 1.183.15.284-.284-.016-1.049-.667-1.7zM29 55.5c1.292-1.375 2.124-2.5 1.849-2.5-.275 0-1.557 1.125-2.849 2.5-1.292 1.375-2.124 2.5-1.849 2.5.275 0 1.557-1.125 2.849-2.5zm33-.878c0-.207-.787-.995-1.75-1.75-1.586-1.243-1.621-1.208-.378.378C61.18 54.916 62 55.445 62 54.622zM39.022 49.19c-.9-.315-7.022 2.529-7.022 3.262 0 .22 1.78-.354 3.954-1.275 2.174-.922 3.555-1.816 3.068-1.987zm14.707.207c-.332-.332-1.195-.368-1.917-.08-.797.32-.56.557.605.605 1.054.043 1.644-.193 1.312-.525zm-5.465-1.1c-1.23-.237-3.48-.243-5-.014-1.52.23-.514.424 2.236.432 2.75.007 3.994-.18 2.764-.418zM183.5 99.143c-1.1-.361-3.8-1.622-6-2.803-14.323-7.683-17.734-28.528-6.766-41.343 9.287-10.849 27.164-12.12 37.872-2.694 6.477 5.7 9.378 12.268 9.362 21.197-.02 11.356-5.106 19.295-15.468 24.142-5.005 2.34-14.228 3.07-19 1.501zm10.764-1.847c-1.23-.237-3.48-.243-5-.014-1.52.23-.514.424 2.236.432 2.75.007 3.994-.18 2.764-.418zm3.596-2.872c.197-.17-1.153-.703-3-1.183l-3.36-.873 4.666-1.177c7.552-1.906 13.47-9.095 14.973-18.191.731-4.423.739-4.406.446 1-.164 3.025-.083 4.887.18 4.137.292-.836.72-.97 1.106-.345.346.56.583-2.004.526-5.698-.07-4.63-.671-7.628-1.934-9.654-2.672-4.288-5.643-7.447-6.504-6.915-.412.255-1.005-.201-1.316-1.014-.351-.914-1.217-1.228-2.27-.824-1.143.439-1.466.273-.985-.506.48-.776.16-.945-.966-.513-1.347.517-1.01.994 1.697 2.394 1.86.961 3.729 1.532 4.155 1.268.427-.263.652.117.5.846-.15.728.322 1.2 1.05 1.05.793-.165 1.032.198.596.904-.488.789-.296.911.58.37.865-.535 1.068-.418.597.344-.392.634-.012 2.153.845 3.377.857 1.223 1.558 1.824 1.558 1.335 0-.49.236-.654.524-.366.287.288.231 1.284-.126 2.214-.51 1.33-1.314.668-3.773-3.107-3.499-5.37-12.209-10.545-16.625-9.876-9.156 1.387-18 9.017-18 15.53 0 2.78-2.752 2.613-3.294-.201-.239-1.238-.495.352-.57 3.532-.153 6.486 1.287 10.708 5.26 15.418 1.787 2.12 3.245 2.991 4.315 2.58 1.091-.418 1.378-.232.881.571-.953 1.543 5.898 4.48 9.047 3.878 1.265-.242 2.045-.026 1.732.48-.499.807 6.492.075 7.489-.785zm-12.263-1.582c.49-.793.037-.98-1.442-.593-1.396.365-1.923.185-1.492-.512.42-.68.056-.843-.987-.443-1.019.39-1.56.169-1.414-.58.13-.668-.489-1.22-1.376-1.23-2.305-.02-4.858-2.393-4.258-3.956.28-.73-.042-1.666-.714-2.081-.832-.514-.99-.307-.494.648.4.773.05.574-.777-.442-.828-1.016-1.263-2.479-.967-3.25.296-.772.04-1.403-.569-1.403S170 78.1 170 77c0-3.223 2.691-2.295 3.383 1.166.642 3.208 5.041 9.834 6.53 9.834.445 0 .61-1.049.364-2.33-.245-1.282.253-4.002 1.106-6.044l1.551-3.713-4.467-3.15c-6.52-4.595-6.033-6.592 1.7-6.965l6.168-.298 1.664-5c1.234-3.708 2.224-5.083 3.832-5.32 1.267-.186 2.169.216 2.169.967 0 .707.736 3.214 1.636 5.57L197.272 66h5.305c2.953 0 5.624.516 6.024 1.163.695 1.125-3.432 5.524-7.121 7.588-1.639.917-1.64 1.25-.034 6.087 2.618 7.88-.084 9.558-6.661 4.136l-3.671-3.026-5.061 3.115c-4.42 2.72-5.794 4.937-3.06 4.937.483 0 2.128.476 3.658 1.057 2.227.847 2.489 1.243 1.315 1.985-2.033 1.286-3.225 1.186-2.369-.2zM178 88.622c0-.207-.787-.995-1.75-1.75-1.586-1.243-1.621-1.208-.378.378 1.307 1.666 2.128 2.195 2.128 1.372zm10.204-6.958l2.704-1.972 3.445 2.628c3.008 2.295 3.603 2.438 4.689 1.13.684-.824.954-1.787.6-2.14-.353-.354-.642-.193-.642.357 0 1.737-2.675 1.082-3.956-.968-1.124-1.8-1.003-1.924 1.422-1.46 1.726.33 2.489.114 2.188-.617-.254-.617-.749-1.832-1.1-2.7-.42-1.04.145-1.99 1.655-2.782 1.26-.66 1.526-.986.592-.722-1.176.332-1.528.034-1.143-.969.357-.93-.11-1.485-1.301-1.549-1.375-.074-1.209-.307.643-.9 3.568-1.143 6-1.155 6-.031 0 .532-.563.831-1.25.664-.688-.168-.91-.116-.494.116.416.232.451.946.078 1.586-.373.64.317.292 1.532-.774 1.984-1.741 2.041-2.033.56-2.863-.908-.508-3.122-.684-4.92-.393-3.78.614-5.45-.646-5.642-4.255-.12-2.249-.186-2.293-.56-.373-.233 1.198-1.15 2.773-2.037 3.5-1.415 1.16-1.542 1.046-1.034-.926.318-1.237.185-2.493-.298-2.79-.966-.598-2.495 4.162-2.1 6.539.19 1.152.046 1.202-.624.215-.48-.707-2.636-1.493-4.792-1.746l-3.919-.461 3.286 1.034c1.807.568 3.05 1.416 2.76 1.883-.288.466.146 1.404.965 2.084 1.926 1.599 4.615-.387 3.835-2.832-.326-1.023-.205-1.259.31-.604.464.59 1.631 1.363 2.594 1.719.963.355 1.75 1.526 1.75 2.603 0 3.71-6.286 3.046-10.75-1.136-1.238-1.16-2.25-1.734-2.25-1.278 0 .456-.977-.028-2.172-1.076-1.347-1.182-1.84-1.335-1.297-.405 1.078 1.849 5.6 5.5 6.81 5.5.49 0 1.062 1.913 1.272 4.25.21 2.337-.024 4.25-.521 4.25-.498 0-.67-.9-.382-2 .313-1.195.03-2-.7-2-.677 0-.967.67-.648 1.5.316.825.214 1.5-.227 1.5-.44 0-.802.632-.802 1.405 0 1.667 2.017 1.068 5.87-1.741zM187 79.122c0-.617.338-1.173.75-1.236 4.81-.731 6.57-.702 5.29.09-.795.49-1.823.658-2.286.372-.463-.286-1.497.024-2.298.688-1.025.851-1.456.877-1.456.086zm8.079-3.705c.048-1.165.285-1.402.604-.604.289.721.253 1.584-.079 1.916-.332.332-.568-.258-.525-1.312zm-3.734-14.96c-.326-.849-.807-1.329-1.069-1.067-.262.262-.18.957.183 1.543.986 1.596 1.562 1.286.886-.476zM178 93.703c0-.163-1.913-2.076-4.25-4.25L169.5 85.5l3.953 4.25c3.676 3.952 4.547 4.71 4.547 3.953zm22.459-.77c-.38-.613-.007-.932.875-.75.844.174 1.564-.02 1.6-.433.078-.886-.788-.931-3.199-.166-1.775.563-1.481 2.416.383 2.416.55 0 .703-.48.34-1.067zm6.669-.683c1.243-1.586 1.208-1.621-.378-.378-1.666 1.307-2.195 2.128-1.372 2.128.207 0 .995-.787 1.75-1.75zm4.263-9.674c-.42-1.095-1.443-.372-3.838 2.716-1.796 2.314-3.034 4.618-2.75 5.119.826 1.463 7.232-6.156 6.588-7.835zM207 87.5c1.292-1.375 2.574-2.5 2.849-2.5.275 0-.557 1.125-1.849 2.5-1.292 1.375-2.574 2.5-2.849 2.5-.275 0 .557-1.125 1.849-2.5zm5.128-.25c1.243-1.586 1.208-1.621-.378-.378-1.666 1.307-2.195 2.128-1.372 2.128.207 0 .995-.787 1.75-1.75zm-45.422-16.5c-.239-1.238-.434-.225-.434 2.25s.195 3.487.434 2.25c.238-1.238.238-3.263 0-4.5zm49.977 2.063c-.32-.798-.556-.561-.604.604-.043 1.054.193 1.644.525 1.312.332-.332.368-1.195.08-1.916zm-36.988-16.41c2.3-1.756 3.984-3.39 3.74-3.634-.243-.244 2.688-.364 6.514-.267 3.826.096 7.54-.232 8.253-.73.842-.585.463-.667-1.077-.23-1.616.457-2.157.318-1.691-.435.464-.751-.86-1.102-4.125-1.092-3.638.012-4.444.27-3.309 1.061 1.134.79.768.906-1.5.475-3-.571-9.813 2.51-9.254 4.187.14.419-.036.762-.391.762-1.66 0-4.664 3.835-4.118 5.258.396 1.03.204 1.324-.556.854-.78-.482-.943-.156-.5 1 .447 1.164.283 1.484-.511.993-1.243-.768-1.633.599-.496 1.736.37.37 1.611-.996 2.756-3.037 1.145-2.041 3.964-5.147 6.265-6.902zM173 60.622c0-.208.787-.996 1.75-1.75 1.586-1.244 1.621-1.21.378.377-1.307 1.666-2.128 2.195-2.128 1.372zm5-5.053c0-.275.9-.981 2-1.57 1.1-.589 2-.845 2-.57s-.9.981-2 1.57c-1.1.589-2 .845-2 .57zm35.124 5.163c-.988-.98-1.102-.865-.56.56.376.986.935 1.541 1.243 1.233.308-.307 0-1.114-.683-1.793zM212 58.696c0-.167-1.688-1.854-3.75-3.75L204.5 51.5l3.446 3.75c3.208 3.49 4.054 4.21 4.054 3.446zM174.5 55c.995-1.1 1.585-2 1.31-2-.275 0-1.315.9-2.31 2-.995 1.1-1.585 2-1.31 2 .275 0 1.315-.9 2.31-2zm13.75-6.662c-.688-.278-1.813-.278-2.5 0-.688.277-.125.504 1.25.504s1.938-.227 1.25-.504zm7.512-.025c-.956-.25-2.756-.26-4-.02-1.244.239-.462.444 1.738.455 2.2.01 3.218-.185 2.262-.435zm-79.655-13.114c-1.294-2.418-1.23-13.345.087-14.933 1.363-1.642 6.256-1.633 7.623.014 1.588 1.913 1.756 13.325.223 15.172-1.778 2.143-6.736 1.985-7.933-.253zm2.7-7.725c-.308-.308-.867.247-1.243 1.233-.542 1.425-.428 1.54.56.56.684-.679.99-1.486.683-1.793zm5-3c-.308-.308-.867.247-1.243 1.233-.542 1.425-.428 1.54.56.56.684-.679.99-1.486.683-1.793zm-2.765-2.173c1.552.406 1.925.266 1.208-.45-1.407-1.408-4.49-.698-4.993 1.149-.34 1.246-.245 1.264.565.107.592-.848 1.853-1.164 3.22-.806zM8.744 362.75c-.185-4.537-.337-.825-.337 8.25s.152 12.787.337 8.25c.185-4.537.185-11.963 0-16.5zM7.693 192.269c-.254-.973-.478-.419-.498 1.231-.02 1.65.187 2.446.46 1.769.275-.677.292-2.027.038-3zm.014-11.507c-.239-1.244-.444-.462-.455 1.738-.01 2.2.185 3.218.435 2.262s.26-2.756.02-4zm-.001-10.012c-.239-1.238-.434-.225-.434 2.25s.195 3.487.434 2.25c.238-1.238.238-3.263 0-4.5zm-.023-6.938c-.32-.797-.556-.56-.604.605-.043 1.054.193 1.644.525 1.312.332-.332.368-1.195.08-1.917zm223.98-17.062c-.278-.688-.505-.125-.505 1.25s.227 1.938.504 1.25c.278-.688.278-1.813 0-2.5zm.08-48.05c-.185-4.51-.335-.55-.334 8.8.001 9.35.153 13.04.336 8.2.184-4.839.183-12.489-.002-17zM7.75 40.25c-.156-14.712-.283-2.675-.283 26.75s.127 41.462.283 26.75c.156-14.713.156-38.788 0-53.5zm223.958 32.512c-.239-1.244-.444-.462-.455 1.738-.01 2.2.185 3.218.435 2.262s.26-2.756.02-4zM230.55 9.268c-.304-.792-2.093-1.202-4.768-1.093l-4.281.174 4.25.383 4.25.383.232 25.692.231 25.693.287-24.982c.157-13.74.067-25.553-.2-26.25zM9.5 9c.34-.55.141-1-.441-1S8 8.45 8 9s.198 1 .441 1 .72-.45 1.059-1zm54.25-.69c-.963-.25-2.538-.25-3.5 0-.963.252-.175.458 1.75.458s2.712-.206 1.75-.457zm7.5.028c-.688-.278-1.813-.278-2.5 0-.688.277-.125.504 1.25.504s1.938-.227 1.25-.504zm16.019.006c-.677-.274-2.027-.29-3-.037-.973.254-.419.478 1.231.498 1.65.02 2.446-.187 1.769-.46zm10.981-.006c-.688-.278-1.813-.278-2.5 0-.688.277-.125.504 1.25.504s1.938-.227 1.25-.504zm11-.061c-1.788-.222-4.713-.222-6.5 0-1.788.221-.325.403 3.25.403s5.037-.182 3.25-.403zm14.48.119c-.333-.332-1.196-.368-1.918-.08-.797.32-.56.557.605.605 1.054.043 1.644-.193 1.312-.525zm8.02-.085c-.963-.252-2.538-.252-3.5 0-.963.251-.175.457 1.75.457s2.712-.206 1.75-.457zm14.519.033c-.677-.274-2.027-.29-3-.037-.973.254-.419.478 1.231.498 1.65.02 2.446-.187 1.769-.46zm4.46.052c-.332-.332-1.195-.368-1.917-.08-.797.32-.56.557.605.605 1.054.043 1.644-.193 1.312-.525zm10.033-.083c-.956-.25-2.756-.26-4-.02-1.244.239-.462.444 1.738.455 2.2.01 3.218-.185 2.262-.435zm22.444-.056c-4.011-.19-10.311-.19-14 .002-3.688.192-.406.348 7.294.346 7.7-.001 10.718-.158 6.706-.348zm13.523.139c-.332-.332-1.195-.368-1.917-.08-.797.32-.56.557.605.605 1.054.043 1.644-.193 1.312-.525zm10.021-.112c-1.512-.23-3.987-.23-5.5 0-1.512.229-.275.416 2.75.416s4.263-.187 2.75-.416z"/></svg>