<svg xmlns="http://www.w3.org/2000/svg" width="245" height="419" viewBox="0 0 245 419"><path d="M44.766 409.238l-37.734-.262-.6-2.738c-.33-1.506-.765-3.282-.968-3.946-.203-.664-.454-89.106-.557-196.538C4.76 53.01 4.986 9.996 5.945 8.462c1.204-1.928 3.15-1.966 111.998-2.176 85.614-.165 111.125.062 112.322 1 1.386 1.087 1.584 22.172 1.892 201.714l.343 200.5h-75c-41.25 0-91.98-.118-112.734-.262zM78 405.983c-37.675-.285-68.612-.622-68.75-.75-.137-.128-.337-3.72-.443-7.983l-.192-7.75-.361 6.47c-.198 3.557-.104 7.491.21 8.742l.57 2.273 61.733.257c33.953.142 64.883.033 68.733-.242 3.85-.275-23.825-.733-61.5-1.017zm134.412 1.08l18.911-.063-.627-108.632c-.345-59.748-.924-108.91-1.287-109.25-.363-.34-.353 48.32.023 108.132l.684 108.75-38.808.168c-21.344.093-36.108.43-32.808.75 3.3.32 12.525.497 20.5.394 7.975-.103 23.01-.216 33.412-.25zm15.216-55.813c-.34-29.012-.626-113.275-.634-187.25-.01-73.975-.301-138.438-.649-143.25l-.632-8.75H11.95l-1.01 2.657c-1.227 3.228-.863 386.19.369 388.093.639.987 23.52 1.25 108.873 1.25h108.064zm-39.866 21.043c1.244-.24 3.044-.23 4 .02s-.062.446-2.262.435c-2.2-.011-2.982-.216-1.738-.455zm-151.87-1.277c-7.064-.91-7.892-1.445-7.892-5.108 0-4.88 4.318-12.08 9.461-15.773 2.573-1.847 5.276-4.771 6.008-6.497A859.999 859.999 0 0 0 45.83 338c.968-2.342 1.038-2.363 1.101-.332.038 1.193.37 2.954.738 3.914.413 1.076.277 1.503-.354 1.113-.563-.348-1.58.591-2.259 2.086-.68 1.496-.899 2.385-.488 1.978.41-.408 1.35-.24 2.089.372 1.42 1.18 1.862-.073.592-1.681-.412-.523-.344-.634.153-.247s1.682.286 2.635-.223c1.337-.716 1.7-.54 1.596.773-.073.934.504 1.71 1.283 1.723.779.013 1.625.65 1.88 1.413.308.926.034 1.125-.822.596-.824-.51-1.038-.396-.597.317.377.61 1.301.875 2.053.586.752-.288 1.668-.036 2.037.56.369.597 1.111.812 1.65.48.617-.382.55-1.124-.183-2.006-.639-.77-1.63-1.11-2.203-.756-.572.353-.76.19-.419-.364.343-.554-.039-1.861-.847-2.905-1.432-1.847-1.455-1.844-.874.103.455 1.525.359 1.665-.405.59-.551-.774-.742-2.086-.425-2.913.353-.919.16-1.246-.497-.84-.732.451-.902-.693-.532-3.587.67-5.248 1.267-6.142 1.267-1.897 0 4.018 3.664 9.89 8.448 13.54 5.964 4.548 9.552 10.24 9.552 15.15 0 4.364-1.016 5.457-5.076 5.457-2.18 0-2.18-3.605-.002-4.952.701-.433 1.112-1.634.913-2.668-.327-1.696-1.486-1.899-11.849-2.073-6.317-.106-14.069-.331-17.225-.5-4.084-.218-5.887.077-6.25 1.025-.884 2.304-.562 3.125.991 2.529 2.05-.787 6.498.424 6.498 1.77 0 .675-1.238.886-3.25.553-1.788-.297-4.15-.153-5.25.318l-2 .857 2 .216c1.1.119 3.575.157 5.5.085 2.854-.107 3.131.038 1.5.784-1.701.779-1.506.926 1.309.986 1.966.041 3.058-.336 2.691-.93-.384-.62 1.49-1 4.941-1 4.198 0 5.559-.356 5.559-1.455 0-1.942 6.116-3.03 9.696-1.725l2.804 1.022-3 .094c-2.319.073-2.66.315-1.5 1.064 1.276.825 1.233.972-.285.985-1.475.012-1.599.363-.715 2.015 1.038 1.94.779 1.996-8.715 1.869-5.382-.072-12.308-.456-15.393-.853zM31.97 359.5c0-.55-.436-.325-.969.5-.533.825-.97 1.95-.97 2.5s.437.325.97-.5c.533-.825.97-1.95.97-2.5zM64 358.383c0-.76-.45-1.383-1-1.383s-1 .502-1 1.117c0 .677-1.075.91-2.731.594-2.439-.466-2.54-.383-.954.778 2.115 1.546 5.685.851 5.685-1.106zm-8.241-.16c.69-2.069-1.834-2.31-4.254-.405l-2.476 1.947 3.192-.25c1.755-.139 3.347-.72 3.538-1.292zm10.649-.723c-.9-1.375-2.288-2.5-3.082-2.5s-1.197-.399-.896-.887c.301-.487-.062-1.393-.808-2.012-1.02-.847-1.641-.783-2.506.259-.92 1.108-.498 1.648 2.118 2.712 1.796.73 3.854 2.138 4.573 3.128 1.979 2.727 2.471 2.154.601-.7zm-19.67.317c-.68-.432-.874-.793-.429-.802.445-.008.517-.487.161-1.064-.436-.704-1.172-.623-2.246.25-1.369 1.112-1.504 1.046-.94-.46.363-.967.242-2.858-.27-4.202-.745-1.962-.642-2.334.523-1.886.798.306 1.16 1.029.803 1.606-.382.618-.168.753.522.326.644-.398.869-1.212.5-1.809-.425-.687-.2-.794.613-.291.836.516 1.133.34.85-.508-.625-1.877-3.527-2.04-4.987-.281-1.516 1.826-1.94 4.122-.884 4.776.427.264.657 1.57.51 2.902-.236 2.155.11 2.412 3.124 2.326 2.059-.058 2.903-.405 2.15-.883zm-11.322-1.458c.527-1.373.38-1.435-.893-.378-1.735 1.44-1.916 2.019-.63 2.019.491 0 1.176-.739 1.523-1.641zm23.555-.398c-2.371-1.5-3.652-1.035-1.544.56 1.06.802 2.172 1.214 2.471.914.3-.299-.118-.962-.927-1.474zm-6.845-1.337c.857-1.881.722-2.927-.649-5.018-1.618-2.47-1.818-2.527-3.072-.874-1.634 2.154-1.73 3.792-.37 6.334 1.386 2.589 2.778 2.438 4.09-.442zm-12.842-1.645c-.413-1.58-.827-1.773-1.895-.887-1.548 1.285-.947 2.908 1.076 2.908.86 0 1.156-.731.82-2.021zM167 371.11c-1.997-.551-2.562-1.424-2.807-4.34-.427-5.08 1.918-9.038 9.922-16.746 4.8-4.624 6.89-7.372 6.9-9.078.027-4.31 1.694-5.57 2.154-1.628.227 1.947.104 3.35-.273 3.117-.833-.515-2.158 2.635-1.42 3.374.288.288.524-.028.524-.702 0-.674.477-.931 1.06-.571.674.417.437 1.11-.653 1.907-1.063.778-1.407 1.747-.907 2.556.628 1.015 1.103.896 2.153-.54 1.16-1.586 1.347-1.615 1.347-.21 0 .898-.448 1.909-.995 2.247-.547.338-1.492 1.544-2.1 2.68-.725 1.356-.744 1.842-.055 1.416.577-.357 1.567.318 2.2 1.5l1.15 2.15 2.033-2.032 2.032-2.032-2.026-4.34c-1.17-2.504-1.965-6.136-1.882-8.59.079-2.337-.274-4.388-.784-4.558-.51-.17-.596-.845-.191-1.5 1.518-2.457 2.618-1.042 2.618 3.368 0 4.854 1.92 5.431 2.102.632.096-2.508.156-2.468.878.58.51 2.146 3.743 6.35 9.398 12.216 8.261 8.569 8.622 9.135 8.622 13.503 0 3.974-.33 4.685-2.565 5.535-2.553.97-11.072 1.276-8.679.31.691-.278.962-.983.602-1.565-.43-.694.328-.872 2.193-.516 3.99.763 7.45-.764 7.45-3.288 0-1.274-.433-1.817-1.113-1.397-.611.378-1.445.148-1.853-.512-.407-.66-2.63-1.34-4.939-1.513-2.309-.172-4.471-.586-4.805-.92-.334-.333-1.16-.147-1.838.415-.806.67-2.656.7-5.368.092-2.275-.512-5.025-.698-6.111-.414-1.086.284-1.974.028-1.974-.569s.616-.849 1.369-.56c.812.312 1.587-.312 1.906-1.533.296-1.132.158-1.823-.307-1.535-.465.287-1.21-.066-1.656-.785-.669-1.077-1.43-1.076-4.312.003l-3.5 1.31 4-.508c3.435-.436 3.65-.361 1.525.527-1.362.57-3.945.837-5.74.595-1.985-.267-3.027-.054-2.658.543.334.54 2.359.816 4.5.611 2.374-.226 3.754.03 3.538.657-.194.565-2.336 1.027-4.759 1.027-3.808 0-4.45.305-4.725 2.25-.218 1.531.193 2.25 1.285 2.25 1.258 0 1.388.404.602 1.873-.925 1.728-.635 1.846 3.715 1.52 3.487-.262 4.065-.138 2.217.474l-2.5.828 2.5.516c1.572.325.83.53-2 .553-2.475.02-5.625-.274-7-.653zm-1.317-6.298c-.32-.798-.556-.561-.604.604-.043 1.054.193 1.644.525 1.312.332-.332.368-1.195.08-1.916zm1.699-3.365c.341-.89.173-1.291-.393-.94-.544.335-.989 1.033-.989 1.551 0 1.438.717 1.121 1.382-.61zm26.236-2.495c-3.968-1.95-6.524-1.742-4.743.386.534.639 2.693 1.242 4.798 1.341l3.827.18zm7.82-2.134c-1.616-1.75-4.172-4.261-5.68-5.582-1.508-1.32-3.483-3.656-4.389-5.19-1.13-1.914-2.23-2.635-3.508-2.3-2.439.637-2.38.959 1.139 6.253 1.645 2.475 2.993 3.964 2.996 3.309.002-.655-.446-1.47-.996-1.809-.55-.34-1-1.111-1-1.714s.882-.298 1.96.678c1.078.976 1.866 2.283 1.75 2.905-.117.63.813 1.02 2.098.882 1.334-.143 2.047.174 1.69.752-.34.55.534 1.439 1.942 1.974 1.408.535 2.56 1.435 2.56 1.998 0 .564.534 1.025 1.187 1.025s-.135-1.431-1.75-3.18zm-7.123-3.52c.598-.967-3.014-5.113-4.565-5.238-.86-.07-1.04-.71-.575-2.036.179-.51 1.79.824 3.58 2.963 2.213 2.644 2.883 4.117 2.095 4.605-.66.408-.89.282-.535-.293zm.256 3.13c-1.059-.775-2.182-1.151-2.496-.837-.315.314.295 1.205 1.354 1.98 1.059.774 2.182 1.15 2.496.836.315-.314-.295-1.205-1.354-1.98zm-20.183-1.61c-.324-.524.019-.87.762-.767 2.526.346 3.97-.05 3.42-.939-.301-.487.206-1.5 1.128-2.25 1.485-1.208 1.591-1.135.93.637-.585 1.568-.484 1.74.47.792.956-.948.95-1.529-.026-2.706-.684-.824-.954-1.968-.599-2.542 1.302-2.107-.163-.92-5.354 4.336-4.695 4.753-5.012 5.322-2.728 4.886 1.422-.272 2.32-.923 1.997-1.447zm13.881 15.488c.973-.254 2.323-.237 3 .037.677.274-.119.481-1.769.461-1.65-.02-2.204-.244-1.231-.498zm13.674-2.14c1.105-.784.52-1.118-2.5-1.427-3.9-.4-3.892-.406.748-.572 2.58-.092 4.97.282 5.309.832.34.55.178 1-.36 1-.537 0-1.8.267-2.808.594-1.46.474-1.539.387-.39-.428zm-152.6-26.917c.261-.963.116-8.5-.324-16.75l-.8-15 .14 13.657c.078 7.51-.19 13.136-.594 12.5-.404-.636-.741-6.38-.75-12.762L47 311.29l-5.295-4.895c-2.912-2.692-6.14-5.373-7.175-5.957-1.095-.618-1.574-1.558-1.146-2.25 1.103-1.784 3.616-1.429 3.616.512 0 1.322.267 1.433 1.2.5.66-.66 2.797-1.139 4.75-1.064 2.638.101 2.908.242 1.05.55-5.342.881-5.481 1.223-1.969 4.846 3.512 3.623 5.356 4.268 6.574 2.298.486-.787.178-.96-.941-.531-1.104.424-1.664.125-1.664-.89 0-.84-.47-1.237-1.044-.882-1.158.716-3.956-1.223-3.956-2.741 0-.59 4.578-.84 11.67-.64 8.15.23 11.787-.017 12.054-.817.273-.82-1.991-1.048-7.921-.8-8.051.336-8.105.324-1.76-.405 3.6-.413 7.107-1.098 7.794-1.523 1.445-.893 4.163 1.03 4.163 2.944 0 .715-1.557 1.814-3.461 2.442-2.106.695-4.65 2.76-6.5 5.275-2.912 3.96-3.047 4.593-3.242 15.185l-.202 11.053L53 321l-.595-12.5-.394 9-.394 9-.684-9c-.472-6.2-.584-3.634-.363 8.25.209 11.195-.034 17.25-.692 17.25-.557 0-.798-.787-.536-1.75zM54.697 306c.94-1.247.654-1.5-1.695-1.5-2.623 0-2.707.117-1.165 1.621.914.892 1.677 1.567 1.695 1.5.018-.067.542-.796 1.165-1.621zM59 302c0-.559-2.317-.934-5.25-.85l-5.25.15 4.5.7c2.475.385 4.838.767 5.25.85.413.082.75-.3.75-.85zm-13.27-.604c-.333-.332-1.196-.368-1.917-.08-.798.32-.561.557.604.605 1.054.043 1.644-.193 1.312-.525zM183.13 320c-.17-7.451-.199-7.528-4.568-11.867-2.419-2.402-5.443-4.888-6.721-5.525-1.278-.637-2.467-1.906-2.643-2.82-.417-2.164 5.686-3.95 9.541-2.79 2.318.697 1.918.844-2.489.916-3.962.065-5.25.454-5.25 1.586 0 .825.477 1.5 1.059 1.5s.821-.385.53-.856c-.29-.47.583-.643 1.941-.383 1.359.26 2.47.896 2.47 1.415 0 .518-.562.618-1.25.223-.687-.396-.907-.342-.487.12.419.462 2.556 1.007 4.75 1.211 3.095.288 3.987.025 3.987-1.18 0-2.032 2.888-2.006 3.67.034.49 1.275.773 1.324 1.454.25.684-1.08.848-1.085.86-.025.009.72.435 1.05.947.734.512-.317 1.182-.17 1.489.327.884 1.43-2.206 3.42-4.414 2.842-1.102-.288-2.302-.004-2.665.632-.364.636-.305.834.13.441.436-.393 1.565-.301 2.509.204 1.323.709 2.484.127 5.065-2.535 1.84-1.9 2.847-3.454 2.235-3.454-.613 0-1.34.563-1.618 1.25-.283.702-.539.426-.583-.628-.069-1.641.456-1.804 4.171-1.294 2.455.337 3.428.251 2.304-.204-1.861-.753-1.85-.813.249-1.362 1.207-.316 2.46-.147 2.782.376.89 1.44-1.3 3.551-4.357 4.197-2.87.606-7.22 6.156-8.36 10.665-.55 2.177-.649 2.048-.765-1-.101-2.652-.369-3.136-1.103-2-.828 1.282-.972 1.246-.985-.25-.008-.962-.403-1.75-.876-1.75-.474 0-.69 1.238-.479 2.75.358 2.576.32 2.607-.606.5-.544-1.237-1.117-2.25-1.272-2.252-.155 0-.133 2.63.05 5.848.181 3.217.136 7.155-.101 8.752-.237 1.596-.508-.473-.601-4.598zm-1.008-13.675c-.584-1.004-1.075-1.432-1.092-.953-.016.48-.817.269-1.78-.47-.962-.738-.66-.12.67 1.374 2.63 2.95 3.906 2.979 2.202.049zM185.158 324c0-1.375.227-1.938.504-1.25.278.688.278 1.813 0 2.5-.277.688-.504.125-.504-1.25zm-139.49-27.122c-1.007-.588-2.694-.843-3.75-.567-1.055.276-1.918.094-1.918-.405 0-1.2 17.715-1.175 18.457.025.325.525-1.287.886-3.69.828-2.347-.057-4.942.187-5.767.542-.825.355-2.324.164-3.332-.423zm145.993-.059c1.493-.722 3.038-.726 5-.011 2.619.954 2.451 1.035-2.161 1.045-4.185.01-4.648-.159-2.84-1.034zm-5.911-7.481c.688-.278 1.813-.278 2.5 0 .688.277.125.504-1.25.504s-1.938-.227-1.25-.504zm-150.392-1.014c-10.096-1.045-9.434-8.451 1.749-19.568 9.232-9.178 9.902-11.022 9.852-27.128l-.041-13.128-3.82-4.222c-2.1-2.322-5.007-4.673-6.459-5.225-3.035-1.154-3.562-4.456-.889-5.565 3.097-1.286 23.956-1.773 24.695-.577.786 1.272 1.18 1.239-12.788 1.092-6.782-.072-10.62.249-10.244.856.33.534.034 1.198-.657 1.477-.773.311-.598.536.455.585.941.043 2.695 1.092 3.897 2.329 1.202 1.238 1.844 1.649 1.427.914-.584-1.028.063-1.266 2.799-1.03 1.957.169 3.883-.017 4.279-.414.706-.706-2.422-1.121-5.845-.775-.953.096-2.528-.296-3.5-.87-1.275-.755 2.078-.972 12.035-.78 7.591.148 12.991-.035 12-.406-1.733-.648-1.732-.703.014-1.414 1.008-.41 2.303-.255 2.908.35 1.497 1.497-.478 3.751-3.997 4.564-1.665.384-3.994 2.386-5.978 5.139L54 229.037v13.547c0 8.112.453 14.424 1.13 15.732.62 1.201 4.432 5.605 8.469 9.787C70.965 275.735 73 279.073 73 283.53c0 4.037-3.178 4.883-19 5.06-7.975.09-16.364-.03-18.642-.265zm30.077-1.22c1.002-1.62-2.439-2.104-14.958-2.104-11.063 0-15.789.902-12.233 2.336 2.234.9 26.62.693 27.191-.231zm-19.148-.844c3.182-.2 8.132-.197 11 .004 2.867.201.263.364-5.787.362-6.05-.002-8.396-.167-5.213-.366zm5.048-2.1c15.885.35 18.364-.174 17.047-3.606-.582-1.518-4.205-1.834-19.872-1.733-2.195.014-4.517-.412-5.161-.946-.762-.633-1.39-.617-1.799.044-.35.566-2.004.74-3.739.393-2.357-.471-3.438-.175-4.461 1.224-.743 1.016-1.35 2.098-1.351 2.405-.001.308 7.537.537 16.75.51 14.382-.044 14.771-.01 2.751.242-15.192.318-18.5.755-18.5 2.449 0 .754.462.72 1.461-.11 1.048-.87 5.826-1.117 16.874-.872zm5.219-9.073c-.973-1.574-3.554-1.335-3.554.33 0 1.681 2.138 2.664 3.363 1.545.474-.433.56-1.277.19-1.875zm-17.124.485c-1.477-1.08-1.478-1.287-.008-2.507 1.164-.966 1.312-1.68.542-2.609-.749-.902-.745-1.473.012-1.941.59-.365.95-.124.799.536-.151.66.4 1.43 1.225 1.71.825.282 1.166.155.759-.282-.85-.91.986-3.479 2.486-3.479.558 0 .45.663-.245 1.5-.718.865-.815 1.5-.23 1.5 1.272 0 2.432-2.864 1.664-4.107-.315-.509-1.036-.639-1.603-.289-.605.374-.548-.265.139-1.548.938-1.752 1.453-1.95 2.6-.998 1.508 1.251 1.758.793 1.482-2.712-.212-2.685 1.738-4.056 2.595-1.824.348.907-.33 3.453-1.507 5.658-2.505 4.692-2.662 6.723-.728 9.369 1.363 1.863 1.456 1.835 2.66-.809.962-2.11.982-3.326.089-5.287-.639-1.4-1.151-2.863-1.139-3.25.036-1.12 3.931 4.18 3.956 5.38.012.596.585 1.126 1.272 1.177 3.429.258 9.238 3.234 9.111 4.67-.076.863.261 1.57.75 1.57 2.035 0 .587-2.575-4.247-7.548-3.465-3.564-5.766-5.164-7.069-4.913-1.194.23-1.763-.088-1.489-.833.244-.663.964-1.089 1.6-.946.758.171.628-.76-.375-2.7-1.152-2.227-1.586-6.876-1.753-18.76l-.222-15.8-.503 15.5-.503 15.5-.564-16-.563-16-.212 15.781c-.175 13.11-.47 15.881-1.74 16.369-1.008.386-1.313 1.272-.894 2.594.423 1.332.265 1.777-.47 1.322-.609-.376-1.107-.2-1.107.392 0 .592-2.106 3.093-4.679 5.559-2.573 2.466-4.273 4.483-3.777 4.483.495 0-.1.7-1.321 1.557-1.223.856-2.21 2.093-2.193 2.75.017.656.49.405 1.05-.557.56-.963 1.447-1.75 1.97-1.75 1.119 0 .83 2.223-.407 3.125-.471.344.326.625 1.77.625 2.26 0 2.403-.164 1.017-1.178zm17.205-6.645c-1.45-1.14-2.628-2.602-2.62-3.25.01-.688.418-.554.985.323.804 1.245.972 1.257.985.076.01-.991.776-.71 2.515.924 4.29 4.03 2.784 5.585-1.865 1.927zm-8.705 6.823c-.039-.688-.41-2.117-.825-3.177-.703-1.794-.802-1.805-1.433-.16-.373.972-.451 2.135-.174 2.584.278.45-.508.624-1.747.39-2.097-.399-2.114-.363-.251.522 2.844 1.351 4.511 1.291 4.43-.159zm15.8.646c-.333-.332-1.196-.368-1.917-.08-.798.32-.561.557.604.605 1.054.043 1.644-.193 1.312-.525zM60 274.107c0-.491-.675-1.152-1.5-1.469-1.524-.585-2.048.48-.833 1.695.955.956 2.333.822 2.333-.226zM43.5 273c.34-.55.168-1-.382-1s-1.278.45-1.618 1c-.34.55-.168 1 .382 1s1.278-.45 1.618-1zm3.683-9.217c-.717-.717-1.183-.776-1.183-.15 0 1.335 1.183 2.518 1.85 1.85.284-.284-.016-1.049-.667-1.7zm1.559-30.533c-.193-3.712-.35-.675-.35 6.75s.157 10.463.35 6.75c.192-3.712.192-9.787 0-13.5zm4-10.049c1.086.901 2.125.398 4.885-2.361l3.505-3.506-4.066.047c-4.607.053-5.48 1.291-1.316 1.865l2.75.378-2.5 1.073c-1.686.723-2.907.745-3.75.065-.84-.677-1.25-.674-1.25.008 0 1.818-3.323 2.404-4.249.75-.48-.86-1.326-1.283-1.878-.942-.611.378-.342 1.35.688 2.49 1.505 1.662 1.918 1.71 3.747.429 1.562-1.095 2.387-1.166 3.434-.296zm115.353 64.927c-6.863-1.92-4.849-9.744 4.92-19.112 9.066-8.695 9.985-11.182 9.985-27.02v-12.76l-4.25-4.524c-2.337-2.488-5.289-4.83-6.558-5.204-3.575-1.053-2.596-4.949 1.308-5.204 2.544-.166 2.649-.09.691.5-2.489.75-3.096 2.394-1.127 3.05.69.23.916-.077.523-.713-.697-1.128.665-.888 4.913.866 3.408 1.407 6.5 1.847 6.5.924 0-.501.971-.512 2.25-.026 3.553 1.35 3.724 1.342 6.247-.31 1.597-1.047 3.45-1.356 5.58-.93 2.476.496 3.087.325 2.729-.763-.254-.771-2.227-1.691-4.384-2.045l-3.922-.643 4.5.143c4.095.13 4.5.368 4.5 2.643 0 1.962-.572 2.566-2.655 2.807-1.798.208-3.497 1.58-5.264 4.25-1.435 2.169-3.053 3.943-3.595 3.943-.603 0-.986 5.651-.986 14.535 0 16.928-.217 16.374 10.645 27.209 5.216 5.203 7.442 8.204 7.901 10.65 1.288 6.867-.305 8.3-9.463 8.506-5.533.125-4.994-.706.676-1.04 3.817-.226 4.065-.397 2.72-1.883-1.996-2.206-1.861-2.977.521-2.977 1.1 0 2-.461 2-1.025 0-1.874-4.394-2.592-14.882-2.431-9.34.143-10.432-.027-10.867-1.693-.266-1.018-.868-1.851-1.336-1.851-.469 0-.593.675-.277 1.5.46 1.196-.335 1.5-3.924 1.5-3.18 0-4.678.464-5.107 1.582-.851 2.218-.786 2.418.786 2.418.766 0 1.644.654 1.95 1.453.383.996 2.54 1.573 6.858 1.834 6.118.369 6.092.377-.906.296-8.282-.095-8.496 1.12-.295 1.675l5.5.372-6 .085c-3.3.047-7.082-.217-8.405-.587zm.905-2.521c0-.216-.698-.661-1.552-.989-.89-.341-1.291-.173-.94.393.586.95 2.492 1.406 2.492.596zm37.73-.211c-.333-.332-1.196-.368-1.917-.08-.798.32-.561.557.604.605 1.054.043 1.644-.193 1.312-.525zm-38.348-7.948c.341-.89.173-1.291-.393-.94-.544.335-.989 1.033-.989 1.551 0 1.438.717 1.121 1.382-.61zm34.656-1.91c-1.845-1.903-3.81-3.179-4.367-2.834-.562.347-.158.945.908 1.343 1.057.394 2.778 1.67 3.826 2.835s2.149 2.118 2.446 2.118c.298 0-.968-1.557-2.813-3.461zm-18.393.397c-1.444-1.136-3.08-1.784-3.635-1.441-1.153.712-1.407 2.854-.26 2.19.412-.238 1.65-.072 2.75.37 3.468 1.396 3.858 1.015 1.145-1.119zm7.785 1.178c.301-.487-.062-1.393-.808-2.012-1.022-.848-1.646-.777-2.531.29-.907 1.092-.88 1.533.117 1.933 1.983.795 2.626.753 3.222-.21zm8.072-.354c.45.407.495.179.1-.509-.995-1.728-2.268-1.563-3.018.391-.498 1.298-.344 1.404.735.51.75-.624 1.733-.8 2.183-.392zM176 272.504c1.925-.288 2.938-.257 2.25.07-1.782.845-1.554 2.48.25 1.788.936-.36 1.341-1.454 1.077-2.91-.374-2.062 1.567-4.952 3.327-4.952.328 0 .482-.9.343-2-.207-1.635-.073-1.726.735-.5 1.025 1.556 1.227 1.14 1.41-2.897.062-1.39.792-2.5 1.737-2.644 1.182-.179 1.506.34 1.18 1.897-.317 1.522-.209 1.708.373.644.45-.825.572-8.7.269-17.5l-.55-16-.412 15-.412 15-.577-16-.577-16-.212 15.281c-.178 12.879-.46 15.377-1.792 15.888-.922.354-1.385 1.355-1.11 2.404.265 1.013-.173 2.045-1.003 2.363-.81.31-1.27 1.127-1.024 1.815.585 1.63-1.039 4.749-2.472 4.749-.616 0-.263-1.006.785-2.235 1.048-1.23.07-.667-2.172 1.25s-3.933 3.67-3.756 3.895c.176.226-.577 1.039-1.673 1.807-1.097.768-1.994 1.907-1.994 2.53 0 .625.563.38 1.25-.542.688-.923 2.825-1.914 4.75-2.201zm.543-2.435c-.317-.512-.193-1.167.274-1.456.467-.289.85.13.85.931 0 1.686-.316 1.833-1.124.525zm11.512 3.365c1.027-1.238 1.053-2.247.122-4.82-1.439-3.98-1.484-5.745-.085-3.343.567.974 1.393 1.547 1.836 1.274.443-.274 1.61.392 2.593 1.479 1.871 2.067.725 2.822-1.265.832-.859-.859-1.005-.612-.586.989.306 1.173.947 1.892 1.423 1.598.476-.295 1.662-.113 2.636.404 1.895 1.006 5.099-1.218 3.33-2.31-.506-.313-1.203-.112-1.549.447-.345.559-1.078 1.016-1.628 1.016-.55 0-.76-.39-.465-.866.295-.477-.354-1.672-1.44-2.655-2.725-2.466-2.507-4.247.23-1.884 1.958 1.691 1.93 1.557-.25-1.198-1.887-2.384-2.645-2.785-3.268-1.73-.447.757-1.23 1.117-1.741.8-1.52-.939-4.295 6.013-3.564 8.927.748 2.982 1.81 3.282 3.67 1.04zm.945-8.375c0-.518.445-1.216.989-1.552.566-.35.734.051.393.941-.665 1.732-1.382 2.05-1.382.611zm6.5 8.941c-.34-.55-1.068-1-1.618-1s-.722.45-.382 1c.34.55 1.068 1 1.618 1s.722-.45.382-1zm-13.817-4.188c-.32-.797-.556-.56-.604.605-.043 1.054.193 1.644.525 1.312.332-.332.368-1.195.08-1.916zm3.06-36.018c-.19-4.012-.347-.994-.348 6.706-.002 7.7.154 10.982.346 7.294.191-3.689.193-9.989.003-14zm3.738-9.81c1.213 1.007 1.821 1.01 3.019.016.825-.685 1.5-1.562 1.5-1.95 0-1.015-6.252.003-7.847 1.278-1.005.805-1.591.64-2.311-.646-.53-.948-1.417-1.445-1.969-1.104-.61.377-.325 1.37.724 2.53 1.609 1.777 1.853 1.795 3.547.262 1.483-1.342 2.099-1.413 3.337-.386zM196 219.5c.718-.865.815-1.5.23-1.5-.56 0-1.275.675-1.592 1.5-.316.825-.42 1.5-.23 1.5.191 0 .907-.675 1.592-1.5zm-18.5-.5c-.34-.55-1.154-.993-1.809-.985-.716.01-.592.403.309.985 1.921 1.242 2.267 1.242 1.5 0zm14.313 67.317c.721-.289 1.584-.253 1.916.079.332.332-.258.568-1.312.525-1.165-.048-1.402-.285-.604-.604zm4.949-.024c1.244-.24 3.044-.23 4 .02s-.062.446-2.262.435c-2.2-.011-2.982-.216-1.738-.455zm-14.034-2.015c1.775-.22 4.925-.224 7-.008 2.074.217.622.397-3.228.402-3.85.004-5.548-.173-3.772-.394zm-2.478-2.013c2.612-.206 6.888-.206 9.5 0s.475.374-4.75.374-7.362-.168-4.75-.374zm-4.092-76.146c-.995-.63-.736-.96 1-1.274 3.153-.569 5.999.092 5.295 1.23-.712 1.154-4.503 1.18-6.295.044zM188 206c-2.108-.675-1.794-.829 2-.981 10.382-.418 11.5-.565 11.5-1.519 0-.55-1.462-.852-3.25-.672-2.445.247-3.25-.067-3.25-1.266 0-1.155-.826-1.53-3-1.365-1.682.128-3 .801-3 1.532 0 .832-1.084 1.22-3 1.074-1.65-.126-3-.755-3-1.4 0-1.941-3.811-2.344-5.213-.55-1.149 1.47-1.1 1.5.463.275 1.489-1.168 1.75-1.162 1.75.043 0 1.71-8.074 4.119-9.408 2.807-1.252-1.233 1.19-3.978 3.54-3.978 1.038 0 2.67-.96 3.628-2.134 6.406-7.856 5.895-7.486 7.895-5.7 1.58 1.41 2.03 1.445 3.134.24 1.967-2.145 2.774-1.775 6.765 3.094 2.028 2.475 4.443 4.5 5.366 4.5 1.98 0 4.08 1.88 4.08 3.653 0 2.61-11.305 4.17-17 2.347zm-13.27-3.604c-.333-.332-1.196-.368-1.917-.08-.798.32-.561.557.604.605 1.054.043 1.644-.193 1.312-.525zm22.615-1.94c-.326-.848-.807-1.328-1.069-1.066-.262.262-.18.957.183 1.543.986 1.596 1.562 1.286.886-.476zm-4.51-4.13c-1.895-2.019-2.317-2.101-4.154-.815-1.464 1.025-2.407 1.131-3.319.374-1.245-1.033-3.362-.451-3.362.924 0 .934 5.641.883 6.583-.059 1.164-1.164 2.417-.886 2.417.536 0 .707.888 1.285 1.973 1.285 1.923 0 1.92-.056-.137-2.246zm-157.683 7.789c-2.234-1.416-.926-4.581 2.035-4.925 3.291-.381 9.46-7.577 10.079-11.756.378-2.553.47-2.414.716 1.066l.281 4L49 189l.737-3.5.131 3.75c.073 2.063.54 3.75 1.038 3.75.499 0 .751-.787.562-1.75-.753-3.817-1.382-33.675-.687-32.576.41.646.88 8.071 1.045 16.5.166 8.43.612 15.643.992 16.03.379.386.586-1.189.46-3.5-.714-13.131-.785-23.679-.15-22.062.403 1.022.763 6.647.802 12.501l.07 10.643 4.69 5.107c2.579 2.809 5.224 5.107 5.877 5.107.653 0 1.748.675 2.433 1.5.993 1.197.993 1.803 0 3-.91 1.098-3.023 1.45-7.872 1.31l-6.628-.188 6-.366c3.3-.201 6.42-.784 6.933-1.294 1.516-1.508.15-1.99-3.046-1.073-2.586.742-3 .587-3.133-1.166-.115-1.522.131-1.738.997-.872.632.632 1.492 1.149 1.91 1.149.419 0-1.134-1.768-3.45-3.928-3.809-3.554-4.37-3.785-5.878-2.42-1.264 1.143-2.144 1.252-3.645.449-1.47-.787-2.258-.721-3.068.254-.863 1.04-.418 1.296 2.145 1.23 1.78-.047 3.8-.451 4.492-.898.78-.505 1.476-.243 1.833.686.316.826 1.168 1.273 1.892.996.723-.278 1.613-.025 1.976.563.56.906-1.313 1.355-4.096.983-.351-.047-1.02.515-1.485 1.25-.684 1.08-.85 1.085-.862.026-.008-.72-.465-1.03-1.015-.691-.55.34-1 .254-1.001-.191-.001-.445-1.542-.861-3.425-.925-3.188-.108-3.362.044-2.535 2.218.836 2.2.703 2.301-2.326 1.78-1.767-.306-3.813-.741-4.547-.97-.733-.227-1.148.15-.922.837.226.688 2.626 1.518 5.334 1.844l4.922.593-5 .142c-2.75.078-5.607-.243-6.348-.713zm149.031-26.306c-.115-7.951.208-12.932.863-13.337.701-.434.876 1.113.53 4.69l-.518 5.338.978-4.5c1.058-4.867.43-10-1.222-10-.566 0-.769.675-.452 1.5.316.825.14 1.5-.393 1.5s-.969-.67-.969-1.488c0-.819-3.311-4.767-7.358-8.775-4.047-4.007-8.12-8.76-9.052-10.563-1.858-3.593-1.548-8.95.597-10.31 2.207-1.4 6.813-1.013 6.813.573 0 .861 1.3 1.616 3.25 1.886 2.326.323 1.97.426-1.25.363-2.475-.049-4.761-.463-5.08-.92-.922-1.325-3.922.281-3.905 2.091.01 1.01.299 1.23.75.57.473-.692 2.693-.832 6.235-.392l5.5.683-5.323.141c-4.496.12-5.27.413-4.976 1.891.232 1.165 1.093 1.645 2.574 1.437 1.224-.172 2.225.166 2.225.75 0 .957-2.156 1.533-4.324 1.157-.454-.08-.535.325-.181.898a1.228 1.228 0 0 0 1.686.396c.573-.354 1.426-.024 1.895.734.7 1.133 1.169 1.058 2.638-.426 1.685-1.702 1.686-1.766.025-1.139-1.307.494-1.61.273-1.178-.856.45-1.173 2.183-1.502 7.56-1.437 3.837.046 7.137.343 7.333.66.197.317 3.607.576 7.578.576 6.38 0 7.396-.262 8.717-2.25 1.424-2.144 1.37-2.25-1.162-2.25-2.348 0-2.533-.233-1.587-2 1.112-2.078.123-2.723-1.574-1.026-.602.602-2.11.635-3.95.086-2.845-.849-2.866-.895-.476-1.044 2.307-.145 2.345-.223.5-1.016-1.6-.688-1.244-.874 1.782-.93 2.08-.038 5.343.582 7.25 1.379 2.697 1.127 3.468 2.027 3.468 4.05 0 5.005-4.591 11.973-10.9 16.544-5.164 3.74-6.144 5.716-7.654 15.427l-1.248 8.03-.099-6.816c-.054-3.748.387-7.724.982-8.835 1.388-2.595.605-3.392-1.382-1.406-1.168 1.169-1.68 1.24-2.128.298-.678-1.425-.004 3.682 1.027 7.791.491 1.96.36 2.56-.452 2.058-.828-.512-1.201 2.149-1.345 9.6-.195 10.16-.206 10.2-.708 2.81l-.509-7.5-.608 8c-.57 7.486-.621 7.184-.793-4.691zm3.077-20.82c.954-1.072.794-1.058-.697.06-1.736 1.3-1.872 1.276-1.308-.23.469-1.252.159-1.591-1.21-1.328-1.013.195-2.865-.735-4.117-2.068-2.247-2.391-1.444-3.54.862-1.233 1.434 1.434 4.457 2.02 3.646.706-.316-.51-.942-.701-1.392-.423-.45.278-1.43-.25-2.18-1.171-1.177-1.446-1.146-1.595.22-1.085.892.334 1.583.07 1.583-.606 0-1.394-3.517-1.513-5.587-.19-1.064.68-1.267.509-.81-.68.435-1.135-.26-1.89-2.436-2.65-2.747-.957-2.422-.393 3.31 5.76 6.438 6.91 7.883 7.643 10.116 5.137zm-9.527-7.113c.679-.684 1.486-.99 1.793-.683.308.308-.247.867-1.233 1.243-1.425.542-1.54.428-.56-.56zm12.967 6.783c-.283-.737-.17-1.9.253-2.584.575-.93.927-.83 1.396.393.363.946.216 1.381-.349 1.032-.537-.332-.734.03-.437.804.376.98 2.342-.412 6.489-4.597 3.271-3.302 5.934-6.5 5.918-7.106-.017-.605-.49-.313-1.05.649-.56.963-2.01 1.757-3.22 1.765-1.787.013-1.918.198-.7.985 1.688 1.09.061 1.344-2.448.382-1.449-.556-1.432-.766.169-2.082 1.664-1.369 1.666-1.426.029-.882-.962.32-2.537.891-3.5 1.27-1.517.595-1.572.468-.414-.957 1.381-1.699.836-3.731-1.002-3.731-.576 0-.789.675-.472 1.5.316.825.084 1.5-.516 1.5-.72 0-.667.51.154 1.5.685.825 1.891 1.5 2.681 1.5s1.162.445.826.989c-.358.58.135.747 1.191.406 1.25-.403 1.045.036-.67 1.434-1.36 1.108-2.8 1.812-3.2 1.565-1.02-.63-3.053 3.433-2.315 4.627.899 1.454 1.78 1.186 1.187-.362zm4.3-4.159c1.292-1.375 2.574-2.5 2.849-2.5.275 0-.557 1.125-1.849 2.5-1.292 1.375-2.574 2.5-2.849 2.5-.275 0 .557-1.125 1.849-2.5zm-4.022-3.095c.012-.602-.832-1.868-1.877-2.813-1.805-1.634-1.976-1.61-3.448.494-1.4 1.999-1.4 2.504.014 5.236l1.563 3.024 1.863-2.423c1.024-1.333 1.873-2.916 1.885-3.518zm-11.405-3.926c-1.06-.802-2.172-1.214-2.471-.914-.628.627 1.912 2.412 3.398 2.388.55-.01.133-.673-.927-1.474zm4.857-.366c.649-1.05-1.846-3.363-2.703-2.507-.772.773.248 3.394 1.321 3.394.459 0 1.08-.399 1.382-.887zM189.5 143c-.34-.55-1.154-.993-1.809-.985-.716.01-.592.403.309.985 1.921 1.242 2.267 1.242 1.5 0zm9.769.344c-.677-.274-2.027-.29-3-.037-.973.254-.419.478 1.231.498 1.65.02 2.446-.187 1.769-.461zm8.538-3.87c-.308-.308-.867.247-1.243 1.233-.542 1.425-.428 1.54.56.56.684-.679.99-1.486.683-1.793zm.317-3.74c-.988-.98-1.102-.866-.56.56.376.985.935 1.54 1.243 1.232.308-.307 0-1.114-.683-1.793zM47.194 181.5c.021-1.65.245-2.204.499-1.231.254.973.237 2.323-.037 3-.274.677-.481-.119-.461-1.769zm-.115-6.083c.048-1.165.285-1.402.604-.604.289.721.253 1.584-.079 1.916-.332.332-.568-.258-.525-1.312zm141-2c.048-1.165.285-1.402.604-.604.289.721.253 1.584-.079 1.916-.332.332-.568-.258-.525-1.312zm-141-9.188c-.095-3.938-4.053-10.21-8.661-13.724C33.365 146.651 29 139.756 29 135.629c0-1.931.497-3.818 1.104-4.194.608-.375 3.87-.792 7.25-.926s4.234-.054 1.896.179c-5.77.572-5.4 1.837.5 1.71 3.683-.08 3.908-.01 1 .307-2.41.264-3.75.925-3.75 1.852 0 .794-.9 1.443-2 1.443-2.798 0-2.556 2.98.25 3.078l12.076.413c8.098.276 10.077.658 11.252 2.172 1.381 1.778 1.406 1.777.774-.026-.586-1.673-.181-1.825 3.984-1.493 3.224.256 4.794-.04 5.15-.97.866-2.256.58-3.174-.986-3.174-.825 0-1.5-.633-1.5-1.406 0-.94.747-1.241 2.25-.908 1.882.417 1.797.247-.515-1.042-1.52-.847-5.12-1.706-8-1.907-5.06-.355-5.018-.373 1.265-.537 10.496-.275 13.557 2.551 11.036 10.19-.977 2.961-3.194 5.464-12.693 14.334-1.31 1.224-2.657 3.596-2.992 5.271-.76 3.796-2.351 4.956-2.351 1.714 0-2.749 5.38-10.701 7.256-10.724.826-.01.745-.33-.24-.954-1.055-.667-2.141-.323-3.75 1.19-2.67 2.508-3.039 1.347-.516-1.625 1.676-1.974 1.673-2.002-.055-.661-2.913 2.261-4.08 5.096-2.64 6.422.965.89 1.083.7.533-.857-.567-1.605-.457-1.753.553-.75 1.012 1.005 1 1.495-.066 2.5-1.053.994-1.418.995-1.78.008-.33-.898-.981-.961-2.353-.227-1.468.786-1.779.708-1.376-.343.723-1.883-3.006-6.403-3.981-4.826-.427.69-.232 1.073.466.913.66-.151 1.393.251 1.63.895.238.643-.223 1.074-1.024.956-2.462-.361-4.536-2.66-4.16-4.611.4-2.079-2.095-3.573-2.853-1.709-.282.691-.52.506-.565-.44-.043-.898-1.02-1.879-2.17-2.18-1.415-.37-.119 1.508 4 5.797 3.35 3.49 6.091 6.86 6.091 7.49 0 .63.356.925.791.656.435-.269.627 1.167.428 3.191-.51 5.15-1.047 6.285-1.14 2.409zm6.942-14.16c1.305-1.886 1.856-3.111 1.226-2.722-.652.403-1.615-.167-2.232-1.319-1.434-2.679-2.814-2.563-4.14.348-.858 1.883-.722 2.928.656 5.031.957 1.46 1.825 2.529 1.928 2.374.104-.154 1.256-1.825 2.562-3.712zm10.294-4.149c-.998-.358-1.965-.262-2.148.214-.184.476-1.084.88-2 .898-1.44.027-1.405.23.263 1.492 1.71 1.293 2.146 1.265 3.815-.246 1.809-1.636 1.811-1.733.07-2.358zM60 144.924c0-.474-.675-.602-1.5-.286-.825.317-1.5.964-1.5 1.438 0 .473.675.602 1.5.286.825-.317 1.5-.964 1.5-1.438zm-16.427-.445c-1.06-.802-2.172-1.214-2.471-.914-.628.627 1.912 2.412 3.398 2.388.55-.01.133-.673-.927-1.474zm13.75-2.078c-.391-1.02-.92-1.15-1.782-.435-.674.56-1.582.683-2.018.275-.437-.407-.252.3.411 1.574.944 1.811 1.503 2.067 2.576 1.176.754-.625 1.12-1.79.814-2.59zm-8.552.787c.217-.653-.337-1.468-1.231-1.811-2.086-.8-2.756-.103-1.94 2.022.7 1.826 2.532 1.704 3.17-.211zm18.664.917c.305-.493-.096-1.145-.89-1.45-.963-.369-1.258-.07-.887.896.645 1.68 1.01 1.794 1.777.554zM39 143.07c0-.512 1.012-1.121 2.25-1.354 1.238-.232.456-.411-1.737-.398-2.193.013-3.428.21-2.744.438.684.228.99.826.678 1.33-.31.502-.088.914.494.914s1.059-.419 1.059-.93zm7.702 12.597c-.281-.734.078-1.334.798-1.334.72 0 1.08.6.798 1.334-.282.733-.64 1.333-.798 1.333-.157 0-.516-.6-.798-1.333zM57.5 152c.995-1.1 2.035-2 2.31-2 .275 0-.315.9-1.31 2-.995 1.1-2.035 2-2.31 2-.275 0 .315-.9 1.31-2zm-9.213-15.74c3.182-.2 8.132-.197 11 .004 2.867.201.263.364-5.787.362-6.05-.002-8.396-.167-5.213-.366zm.497-1.998c2.905-.203 7.405-.2 10 .005 2.594.205.216.37-5.284.368-5.5-.003-7.622-.17-4.716-.373zm7.966-1.985c1.788-.222 4.713-.222 6.5 0 1.788.221.325.403-3.25.403s-5.037-.182-3.25-.403zm127.012.016c1.244-.24 3.044-.23 4 .02s-.062.446-2.262.435c-2.2-.011-2.982-.216-1.738-.455zm-2.012-2.016c1.788-.222 4.713-.222 6.5 0 1.788.221.325.403-3.25.403s-5.037-.182-3.25-.403zm-131-.94c.688-.277 1.813-.277 2.5 0 .688.278.125.505-1.25.505s-1.938-.227-1.25-.504zm-6.932-5.85c-.375-.376-2.4-.752-4.5-.836-3.35-.132-3.818-.453-3.818-2.614 0-1.925.716-2.667 3.283-3.404 2.199-.63 4.264-2.394 6.25-5.337 2.911-4.314 2.967-4.64 2.967-17.378 0-8.879-.44-14-1.391-16.2-.765-1.77-4.399-6.143-8.075-9.718C31.101 60.772 29 57.504 29 53.172c0-5.291 1.481-5.672 22.05-5.672 17.027 0 18.934.174 20.846 1.905 2.726 2.468 2.652 4.102-.47 10.368-1.682 3.374-4.243 6.39-7.387 8.699-5.93 4.353-7.577 7.774-8.68 18.028l-.859 8-.292-7.731c-.199-5.274.164-8.602 1.143-10.469 1.274-2.432 1.25-2.875-.209-3.98-1.455-1.103-1.396-1.2.52-.856 2.103.377 5.2-1.973 5.192-3.939-.002-.536.542-1.157 1.21-1.38.798-.266.93.069.383.975-.648 1.076-.434 1.058.97-.083 1.088-.884 1.36-1.611.686-1.836-.613-.204-.861-.783-.55-1.286.31-.503.074-.915-.525-.915-.6 0-1.349.672-1.664 1.494-.316.822-1.046 1.203-1.623.846-.578-.357-.77-.195-.426.36.343.555-.488 2.053-1.846 3.329-2.43 2.282-3.61 1.511-1.269-.829.66-.66.895-1.2.523-1.2s-1.394 1.095-2.271 2.433c-1.24 1.892-1.348 2.892-.488 4.5 1.05 1.962.807 2.251-1.675 1.993-.391-.04-1.034.747-1.43 1.75-.588 1.493-.731 1.36-.789-.726-.038-1.403.493-3.156 1.18-3.897.755-.813.797-1.093.105-.705-.63.352-1.428-.096-1.774-.997-.345-.9-.922-1.344-1.28-.985-.959.958-5.349-3.48-4.616-4.666.355-.573.125-.7-.53-.295-.635.392-1.155.25-1.155-.315s-.749-.74-1.664-.389c-1.119.43-1.427.256-.941-.531.447-.723.032-1.197-1.086-1.24-1.626-.063-1.607-.167.191-1.02 1.864-.886 1.847-.922-.25-.524-1.238.235-2.25.045-2.25-.422 0-.467 1.913-.998 4.25-1.18 3.79-.297 3.586-.384-1.879-.808l-6.129-.476 6.06 6.237c3.332 3.43 6.273 6.021 6.536 5.758C45.478 69.855 48 72 48 73.181c0 .516-.445.662-.989.326-.566-.35-.735.05-.395.935.327.85 1.066 1.255 1.643.898.578-.357.78-.212.45.322-.33.533.03 2.74.802 4.904 1.192 3.347 1.425 3.561 1.563 1.434.152-2.341.211-2.31.926.5.42 1.65.757 4.8.75 7l-.013 4L52 90c-.465-2.21-.742 1.106-.752 9-.009 6.875.19 11.707.444 10.738.253-.97.875-1.505 1.384-1.191.508.314.956-.468.994-1.738.053-1.726.242-1.91.75-.726 1.353 3.15 7.85 9.84 10.552 10.868 3.596 1.368 3.35 5.2-.372 5.787-5.444.86-20.54 1.395-21.182.75zm20.005-1.93c2.552-.81 2.942-3.557.506-3.557-.92 0-2.607-.776-3.75-1.723-1.144-.948-1.517-1.083-.829-.3.687.782 1.25 1.783 1.25 2.223 0 .44-4.33.8-9.622.8-9.014 0-9.537-.11-8.268-1.75 1.17-1.51 1.058-1.496-.814.098-1.194 1.016-2.601 1.581-3.128 1.256-.527-.326-1.185 0-1.463.722-.4 1.043 1.7 1.277 10.145 1.132 10.514-.182 10.541-.176 2.15.429-4.675.337-7.633.838-6.574 1.113 2.734.71 17.796.382 20.397-.444zm-5.068-4.135c-.969-.97-5.755-1.206-5.755-.284 0 .474 1.425.862 3.167.862 1.741 0 2.906-.26 2.588-.578zm-11.213-2.49c.363-.588 1.347-.805 2.186-.483.839.322 2.115.096 2.835-.501.946-.786 1.915-.762 3.496.083 2.175 1.165 2.177 1.158.345-1.27l-1.842-2.442-1.71 2.09c-1.371 1.677-1.962 1.843-2.981.84-1.766-1.736-2.63-1.568-3.871.751-1.113 2.08.304 2.936 1.542.932zm2.174-12.682c-.229-1.512-.416-.275-.416 2.75s.187 4.263.416 2.75c.23-1.512.23-3.987 0-5.5zm-.023-13.981c-.254-.973-.478-.419-.498 1.231-.02 1.65.187 2.446.46 1.769.275-.677.292-2.027.038-3zm3.614-19.614c1.4-2.137 1.374-2.592-.288-5.126l-1.824-2.78-1.484 2.833c-1.315 2.51-1.313 3.096.017 5.126 1.838 2.805 1.704 2.807 3.579-.053zm-6.029-.777c-.617-.617-.897-1.708-.621-2.425.531-1.386-4.305-5.139-5.317-4.126-.33.329.602 1.145 2.07 1.814 1.467.668 2.46 1.755 2.207 2.415C45.192 66.663 46.74 69 47.9 69c.275 0-.005-.505-.622-1.122zM61 61.868c0-1.637-5.163-2.936-10.55-2.655-4.857.254-5.18.423-4.223 2.211.959 1.792 1.128 1.811 2.265.256 1.58-2.16 5.107-2.168 5.934-.013.487 1.27.917 1.39 1.807.5.642-.642 1.807-1.167 2.59-1.167 1.16 0 1.19.28.158 1.523-1.057 1.273-.995 1.42.378.893.902-.347 1.641-1.043 1.641-1.548zm7.076-.588c1.333-1.496 1.708-2.175.832-1.508-.876.666-1.891.911-2.257.545-1.149-1.148-5.445-.943-4.991.238.506 1.32 3.34 1.506 3.34.22 0-.491.472-.601 1.049-.245.716.443.678 1.094-.123 2.059-2.128 2.564-.323 1.465 2.15-1.309zm-25.601-4.32c.367.594 1.501.62 2.958.066 1.299-.494 2.544-.716 2.767-.493.223.224 4.762.629 10.087.901 8.66.443 9.784.302 10.662-1.338 1.334-2.494.543-2.996-3.34-2.12-4.923 1.11-20.682 1.194-24.109.129-2.823-.878-2.705-.948 2-1.18 4.587-.225 4.71-.292 1.5-.815-2.5-.408-.93-.737 5.5-1.151l9-.581-10-.203c-5.5-.111-11.064-.487-12.363-.835-2.163-.579-2.266-.45-1.215 1.514 1.006 1.88.886 2.146-.96 2.146-1.45 0-2.006.534-1.78 1.706.392 2.034 4.63 3.325 7.007 2.134.984-.492 1.939-.442 2.286.12zm29.187-4.21c-.277-.688-.504-.125-.504 1.25s.227 1.938.504 1.25c.278-.688.278-1.813 0-2.5zM66.725 51c-.17-2.253-2.725-2.79-2.725-.573 0 .784-.787 1.632-1.75 1.884-.963.251-.315.51 1.438.573 2.605.095 3.16-.25 3.037-1.884zm-10.949-2.727c-2.048-.215-5.648-.218-8-.006-2.352.21-.676.387 3.724.39 4.4.004 6.324-.169 4.276-.384zM172.2 122.8c-2.153-2.153-1.437-4.8 1.3-4.8 2.434 0 3.589-.907 8.25-6.48 2.098-2.509 2.25-3.635 2.25-16.704 0-16.438-.771-18.805-8.192-25.138C169.74 64.498 165 57.559 165 53.852c0-1.946.829-3.35 2.706-4.579 2.318-1.519 5.009-1.764 18.75-1.713 10.16.038 17.42.525 19.794 1.327 3.495 1.182 3.75 1.54 3.75 5.256 0 5.487-1.12 7.31-9.444 15.357-8.444 8.165-8.534 8.441-8.625 26.713l-.063 12.667 4.291 4.56c2.36 2.508 5.06 4.56 5.999 4.56 1.824 0 3.383 3.315 2.348 4.991-.343.555-2.033 1.009-3.756 1.009-2.969 0-3.031-.077-1.191-1.468 1.91-1.445 1.908-1.469-.109-1.5-1.127-.018-2.564-.546-3.193-1.175-1.542-1.542-7.253-1.927-7.272-.49-.008.623-.452.458-.985-.367-.704-1.09-.974-1.142-.985-.191-.009.796-.505 1.003-1.265.528-.687-.43-1.7-.862-2.25-.962-.55-.1-1.793-.5-2.761-.89-1.366-.549-1.618-.332-1.12.963.46 1.2-.027 1.846-1.73 2.291-2.346.614-2.34.634.62 1.896l2.991 1.275-4.05.045c-2.227.025-4.59-.495-5.25-1.155zm30.341-2.733c-.362-.587-1.401-1.067-2.308-1.067-.907 0-3.283-1.596-5.28-3.546-3.255-3.179-3.77-3.38-4.962-1.944-.731.882-.916 1.506-.41 1.388 1.301-.305 4.609 1.14 6.676 2.915 2.07 1.778 6.092 3.966 6.593 3.586.193-.146.054-.746-.309-1.332zm-25.272-.723c-.677-.274-2.027-.29-3-.037-.973.254-.419.478 1.231.498 1.65.02 2.446-.187 1.769-.46zm8.999-5.344c-.942-1.1-1.768-2-1.835-2-.068 0-.938.9-1.933 2-1.779 1.965-1.747 2 1.835 2 3.55 0 3.6-.053 1.933-2zm1.415-4.188c-.32-.797-.556-.56-.604.605-.043 1.054.193 1.644.525 1.312.332-.332.368-1.195.08-1.917zm1.98-6.062c-.278-.688-.505-.125-.505 1.25s.227 1.938.504 1.25c.278-.688.278-1.813 0-2.5zm0-9c-.278-.688-.505-.125-.505 1.25s.227 1.938.504 1.25c.278-.688.278-1.813 0-2.5zm-1.259-13.25c.415-2.473.327-3.49-.228-2.666-.726 1.08-1.014 1.031-1.505-.25-.335-.871-1.017-1.584-1.516-1.584-.499 0-.188 2 .691 4.445.88 2.444 1.664 4.356 1.743 4.25.08-.107.447-1.995.815-4.195zm2.767-2.336c.572-1.834 2.437-4.926 4.144-6.87 3.238-3.688 4.104-5.917 2.648-6.817-.472-.292-.692.336-.488 1.394.214 1.11-.656 2.89-2.052 4.201-2.795 2.626-3.264 1.585-.673-1.493 1.724-2.048 1.72-2.053-.331-.327-1.145.964-2.321 1.512-2.615 1.219-.293-.293-1.266.585-2.162 1.952-1.457 2.224-1.466 2.576-.09 3.346 1.231.69 1.33 1.411.493 3.611-.575 1.513-.993 3.733-.929 4.935.107 2.013.151 2.027.565.185.247-1.1.918-3.501 1.49-5.336zM191 75.06c0-.518.445-1.216.989-1.552.566-.35.734.051.393.941-.665 1.732-1.382 2.05-1.382.611zm-4.393-.332c.365-.366-.108-1.843-1.051-3.283-.944-1.44-1.976-2.357-2.294-2.04-.318.319-1.294.02-2.17-.663-1.402-1.093-1.431-1.036-.246.477.74.945 1.809 1.62 2.375 1.5.566-.12 1.223.308 1.46.952.626 1.695-2.254 1.026-4.559-1.06-1.108-1.002-1.804-2.664-1.587-3.79.28-1.458-.026-1.845-1.127-1.423-.86.33-1.248.153-.9-.41.337-.545-.585-1.446-2.05-2.003-1.51-.574-2.45-1.562-2.173-2.284.287-.749-.28-1.271-1.38-1.271-1.638 0-1.534.374.847 3.035 7.734 8.644 10.673 11.392 11.584 10.829.586-.363.754.03.403.944-.596 1.554 1.453 1.904 2.868.49zm3.135-10.413c-1.355-1.356-1.912-1.418-3.192-.356-1.985 1.648-1.955 3.018.128 5.993l1.679 2.396 1.513-3.196c1.37-2.893 1.358-3.351-.128-4.837zM183 67c0-.55-.787-.993-1.75-.985-1.496.013-1.532.157-.25.985 1.887 1.22 2 1.22 2 0zm12.526-.807c-.307-.308-1.114 0-1.793.683-.98.988-.865 1.102.56.56.986-.376 1.541-.935 1.233-1.243zM205 61.826c0-.454-.45-.826-1-.826s-1 .648-1 1.441c0 2.637-1.99 2.716-2.977.12-1.388-3.651-2.058-3.17-.953.682.511 1.784.93 3.438.93 3.675 0 .237 1.125-.626 2.5-1.918 1.375-1.292 2.5-2.72 2.5-3.174zm-9.866.174c2.453 0-.15-1.246-3.134-1.5-2.863-.244-2.98-.135-1.548 1.447.851.94 1.577 2.35 1.611 3.132.035.781.47.409.968-.829.498-1.237 1.444-2.25 2.103-2.25zm1.359 2.011c.35-.566-.051-.734-.941-.393-1.732.665-2.05 1.382-.611 1.382.518 0 1.216-.445 1.552-.989zm-16.362-1.353c-.612-.738-.896-1.642-.63-2.008.265-.367-.015-.252-.622.255-1.227 1.023-.355 3.095 1.302 3.095.727 0 .71-.426-.05-1.342zm3.898-2.123c-1.313-1.582-3.494-1.097-2.476.55a1.107 1.107 0 0 0 1.516.372c.512-.316.931-.023.931.65 0 .675.29.937.642.584.354-.354.078-1.324-.613-2.156zm22.105-3.81c.77-1.377.567-1.725-1.013-1.725-1.088 0-2.573-.59-3.3-1.31-.726-.722-3.346-1.793-5.821-2.38-4.006-.953-4.17-1.094-1.5-1.29 2.943-.215 2.952-.233.5-.952-2.865-.84-5.25-.282-4.435 1.037.304.492-2.286.902-5.756.91-3.47.009-5.77.358-5.112.777.728.462.866 1.297.353 2.127-.63 1.02-2.136 1.195-5.947.689-2.807-.372-5.096-.324-5.088.108.047 2.4 1.928 3.03 8.234 2.76 3.711-.16 6.931.006 7.155.367.223.362 4.987.646 10.585.633 8.583-.021 10.33-.295 11.145-1.75zm2.85-1.916c.009-.93-.322-1.898-.734-2.15-.412-.253-.784 1.082-.826 2.968-.047 2.113.235 2.938.734 2.15.446-.702.818-2.038.827-2.968zm-41.3.004c-.32-.798-.557-.561-.605.604-.043 1.054.193 1.644.525 1.312.332-.332.368-1.195.08-1.916zm1.842-3.62c-.307-.308-1.114 0-1.793.683-.98.988-.865 1.102.56.56.986-.376 1.541-.935 1.233-1.243zm8.474.916c0-.49-1.5-1.065-3.333-1.28-2.244-.261-3.334.03-3.334.891 0 .784 1.292 1.28 3.334 1.28 1.833 0 3.333-.4 3.333-.89zm26.667-.609c0-.825-.6-1.5-1.334-1.5-1.685 0-1.744 1.667-.083 2.338.688.277 1.288.54 1.333.583.046.043.084-.596.084-1.421zm-24.917-2.19c-.963-.25-2.538-.25-3.5 0-.963.252-.175.458 1.75.458s2.712-.206 1.75-.457zM57 70.623c0-.207.787-.995 1.75-1.75 1.586-1.243 1.621-1.208.378.378C57.82 70.916 57 71.445 57 70.622zM42.405 67.75L40.5 65.5l2.25 1.905C44.864 69.195 45.455 70 44.655 70c-.19 0-1.202-1.012-2.25-2.25zm72.72-29.625c-2.515-2.515-2.687-14.256-.25-17.126 2.56-3.015 6.304-3.432 9.343-1.042 2.389 1.879 2.627 2.693 2.583 8.807-.063 8.522-1.59 11.236-6.324 11.236-2.066 0-4.238-.76-5.352-1.875zm8.263-.944c.279-.45-.82-.624-2.44-.387-1.622.238-2.948.607-2.948.82 0 .761 4.893.369 5.388-.433zm-1.93-3.112c.739-1.197-1.142-2.382-2.474-1.559-1.119.691-.384 2.49 1.016 2.49.485 0 1.14-.419 1.457-.93zm3.225-1.257c-.32-.797-.556-.56-.604.605-.043 1.054.193 1.644.525 1.312.332-.332.368-1.195.08-1.917zm-3.189-2.568c2.05.392 2.492.095 2.427-1.633-.043-1.16-.306-1.549-.583-.861-.593 1.47-4.519 1.67-5.888.3-.6-.6-.95-.079-.95 1.415 0 1.773.312 2.106 1.244 1.332.685-.568 2.372-.817 3.75-.553zm.047-4.31c.92-1.49-.147-2.3-2.061-1.565-.884.34-1.327 1.07-.984 1.624.81 1.311 2.215 1.284 3.045-.06zM123.5 22c-.34-.55-1.379-.968-2.309-.93-1.379.058-1.321.23.309.93 2.676 1.15 2.71 1.15 2 0zM7.683 382.813c-.32-.798-.556-.561-.604.604-.043 1.054.193 1.644.525 1.312.332-.332.368-1.195.08-1.916zm0-54c-.32-.798-.556-.561-.604.604-.043 1.054.193 1.644.525 1.312.332-.332.368-1.195.08-1.916zm.01-8.544c-.254-.973-.478-.419-.498 1.231-.02 1.65.187 2.446.46 1.769.275-.677.292-2.027.038-3zm-.03-22.519c-.278-.688-.505-.125-.505 1.25s.227 1.938.504 1.25c.278-.688.278-1.813 0-2.5zm0-28c-.278-.688-.505-.125-.505 1.25s.227 1.938.504 1.25c.278-.688.278-1.813 0-2.5zm.044-7.988c-.239-1.244-.444-.462-.455 1.738-.01 2.2.185 3.218.435 2.262s.26-2.756.02-4zm0-29c-.239-1.244-.444-.462-.455 1.738-.01 2.2.185 3.218.435 2.262s.26-2.756.02-4zm-.045-20.012c-.277-.688-.504-.125-.504 1.25s.227 1.938.504 1.25c.278-.688.278-1.813 0-2.5zm.021-5.938c-.32-.797-.556-.56-.604.605-.043 1.054.193 1.644.525 1.312.332-.332.368-1.195.08-1.917zm0-4c-.32-.797-.556-.56-.604.605-.043 1.054.193 1.644.525 1.312.332-.332.368-1.195.08-1.917zm.035-11.548c-.23-1.52-.424-.514-.432 2.236-.007 2.75.18 3.994.418 2.764.237-1.23.243-3.48.014-5zm222.03-44.014c-.17-7.563-.31-1.375-.31 13.75s.14 21.313.31 13.75c.17-7.563.17-19.938 0-27.5zM7.662 182.75c-.277-.688-.504-.125-.504 1.25s.227 1.938.504 1.25c.278-.688.278-1.813 0-2.5zm0-9c-.277-.688-.504-.125-.504 1.25s.227 1.938.504 1.25c.278-.688.278-1.813 0-2.5zm.056-8.486c-.23-1.52-.424-.514-.432 2.236-.007 2.75.18 3.994.418 2.764.237-1.23.243-3.48.014-5zm.032-113.44C7.599 31.296 7.475 47.8 7.475 88.5s.123 57.496.275 37.324c.15-20.172.15-53.472 0-74zm221.933 78.989c-.32-.798-.556-.561-.604.604-.043 1.054.193 1.644.525 1.312.332-.332.368-1.195.08-1.917zm.006-7.563c-.251-.963-.457-.175-.457 1.75s.206 2.712.457 1.75c.252-.963.252-2.538 0-3.5zm.053-22.958c-.193-3.736-.352-.942-.354 6.208-.002 7.15.156 10.206.351 6.792.195-3.415.196-9.265.003-13zm-.06-17.48c-.318-.797-.555-.56-.603.605-.044 1.054.193 1.644.525 1.312.332-.332.368-1.195.079-1.916zm.007-16.562c-.251-.963-.457-.175-.457 1.75s.206 2.712.457 1.75c.252-.963.252-2.538 0-3.5zm-.006-5.438c-.32-.797-.556-.56-.604.605-.044 1.054.193 1.644.525 1.312.332-.332.368-1.195.079-1.917zm.024-9.05c-.239-1.244-.444-.462-.455 1.738-.01 2.2.185 3.218.435 2.262s.26-2.756.02-4zm-.024-5.95c-.32-.797-.556-.56-.604.605-.044 1.054.193 1.644.525 1.312.332-.332.368-1.195.079-1.917zm.01-6.543c-.254-.973-.478-.419-.498 1.231-.02 1.65.187 2.446.46 1.769.275-.677.292-2.027.038-3zM230 13.476c0-2.287-.606-3.73-1.845-4.393-1.733-.928-44.086-.447-45.072.512-.229.223 9.784.405 22.25.405H228v4.059c0 2.451.396 3.814 1 3.441.55-.34 1-2.15 1-4.024zM81.05 10c39.022 0 70.95-.338 70.95-.75s-32.255-.647-71.679-.52c-72.257.232-74.626.35-72.617 3.6.315.51.983.194 1.484-.702C10.017 10.148 16.536 10 81.05 10zm91.61-.674C171.726 8.394 153 8.322 153 9.25c0 .412 4.575.75 10.167.75 5.591 0 9.863-.303 9.492-.674zm5.07-.93c-.333-.332-1.196-.368-1.917-.08-.798.32-.561.557.604.605 1.054.043 1.644-.193 1.312-.525zm65.465 2.104c.02-1.65.244-2.204.498-1.231.254.973.237 2.323-.037 3-.274.677-.481-.119-.461-1.769zm-.116-8.083c.048-1.165.285-1.402.604-.604.289.721.253 1.584-.079 1.916-.332.332-.568-.258-.525-1.312z"/></svg>