<svg xmlns="http://www.w3.org/2000/svg" width="244" height="420" viewBox="0 0 244 420"><path d="M126.75 418.338c.688-.278 1.813-.278 2.5 0 .688.277.125.504-1.25.504s-1.938-.227-1.25-.504zm15.063-.021c.721-.289 1.584-.253 1.916.079.332.332-.258.568-1.312.525-1.165-.048-1.402-.285-.604-.604zm27.437-.066c13.613-.157 35.888-.157 49.5 0 13.613.157 2.475.286-24.75.286s-38.362-.129-24.75-.286zM5.186 406.325l-2.22-1.825-.232-197.215C2.527 32.005 2.67 9.901 4.02 8.551c1.34-1.34 14.861-1.525 114.92-1.568 91.23-.04 113.56.202 114.21 1.234.444.706.852 79.133.906 174.283.054 95.15.264 184.04.465 197.531.205 13.67-.035 25.182-.54 26-.787 1.275-15.838 1.512-113.741 1.794-108.008.31-112.93.246-115.054-1.5zm215.564-1.133c9.772-.275 11.248-.539 11.235-2.004-.013-1.385-.177-1.433-.913-.27-.763 1.205-17.47 1.487-111.461 1.878l-110.563.46-1.024-2.693C6.9 399.608 6.51 18.699 7.625 13.125L8.25 10H229l.086 15.25c.048 8.387.201 22.45.342 31.25.14 8.8.421 67.525.625 130.5.204 62.975.633 131.825.954 153 .321 21.175.563-44.525.538-146L231.5 9.5l-112.124-.254c-88.936-.202-112.338.005-113.16 1-1.15 1.394-1.556 84.94-1.344 276.851L5 403.694l2.25 1.12c1.623.807 30.094 1.06 102.25.907 55-.117 105.063-.355 111.25-.53zm-9.842-3.15l18.407-.042-.66-47.25c-.364-25.988-.732-94.725-.818-152.75-.086-58.025-.35-124.513-.589-147.75L226.815 12H10.272l-.636 4.64C9.286 19.19 9 62.006 9 111.783v90.504l12.75-.637c27.283-1.363 43.169-2.482 44.187-3.111.585-.361 1.063-2.43 1.063-4.598 0-3.25.344-3.941 1.965-3.941 2.395 0 4.37 3.368 3.53 6.018-.34 1.068-.19 2.706.334 3.64.948 1.694 2.316 1.976 13.671 2.81 9.47.697 10.5 1.141 10.5 4.532 0 3.387-1.654 4.102-10.301 4.454-11.841.481-11.584.416-12.997 3.296-.742 1.512-1.166 3.56-.943 4.548.52 2.3-1.462 4.702-3.881 4.702-1.514 0-1.878-.751-1.878-3.878 0-2.132-.574-4.353-1.275-4.935-1.841-1.528-8.375-2.052-33.975-2.724L9 211.865v93.002c0 59.578.36 93.948 1 95.633l1 2.63 90.75-.522c49.912-.287 99.033-.542 109.158-.565zM112.17 352.25c-1.544-2.999-3.108-25.37-4.283-61.25-.645-19.706-1.559-35.036-2.13-35.75-.551-.688-2.495-1.25-4.32-1.25-1.826 0-3.597-.45-3.937-1-.34-.55-1.31-1-2.155-1-.845 0-2.86-.942-4.476-2.093-3.606-2.568-2.831-3.131-16.794 12.22C30.667 309.852 23.73 317 20.813 317c-6.337 0-4.65-5.124 5.923-18 3.839-4.675 9.181-11.294 11.872-14.709 2.69-3.414 11.901-14.89 20.468-25.5 8.566-10.61 15.916-19.872 16.333-20.581.479-.814-.215-2.057-1.88-3.366-1.68-1.321-2.527-2.85-2.333-4.21.409-2.867 3.937-3.25 6.264-.678 3.026 3.343 6.597 2.593 11.59-2.436 2.448-2.464 5.013-4.489 5.7-4.5.688-.011 1.25-.68 1.25-1.485 0-3.076 7.282-4.848 8.362-2.035.996 2.598.018 4.273-10.318 17.667-1.605 2.079-1.853 3.205-1.128 5.113.512 1.346 1.64 2.72 2.507 3.052.877.337 1.577 1.76 1.577 3.208 0 2.366.143 2.46 1.571 1.031.865-.864 2.694-1.571 4.066-1.571 4.778 0 6.115-1.558 6.863-7.997.385-3.319.7-7.691.7-9.717 0-5.118 1.396-8.286 3.653-8.286 2.91 0 3.944 1.963 4.483 8.508 1.257 15.242 2.327 17.492 8.32 17.492 2.261 0 3.608.625 4.355 2.02 1.542 2.883.436 3.98-4.011 3.98-2.135 0-4.085.338-4.332.75-.57.95-1.467 26.313-2.28 64.522-.586 27.45-.787 29.965-2.584 32.25-2.287 2.907-4.374 3.177-5.634.728zm4.425-2.5c1.903-2.248 1.903-2.249-.176-.498-1.145.964-2.454 1.414-2.91 1-.457-.414-.506-.19-.11.498.94 1.635.973 1.625 3.196-1zM112.136 335c-.584-8.61-.891-10.477-.985-6-.145 6.894.961 21.18 1.51 19.497.178-.548-.058-6.622-.525-13.497zm4.284-12.75c1.005-40.02 1.523-55.368 2.035-60.25.421-4.02.297-3.834-1.166 1.75-1.197 4.572-2.093 6.25-3.336 6.25-1.317 0-1.815-1.18-2.216-5.25-.285-2.888-.405-5.375-.266-5.528.139-.153.928 1.118 1.754 2.824 1.363 2.813 1.553 2.91 2.046 1.027.298-1.142.157-1.838-.314-1.546-.471.29-1.37-.432-2-1.606-2.338-4.37-3.219-.503-2.333 10.243.543 6.59.968 8.79 1.172 6.073.279-3.713.506-4.078 1.762-2.822 1.027 1.027 1.397 3.55 1.285 8.764-.153 7.102-.178 7.171-.843 2.321-.613-4.47-.702-4.612-.843-1.332-.086 2.018-.43 4.38-.764 5.25-.398 1.038-.054 1.582 1 1.582 1.042 0 1.607.868 1.607 2.469 0 1.783-.416 2.308-1.5 1.893-1.281-.492-1.511 1.228-1.577 11.781-.042 6.796-.227 13.145-.411 14.107-.185.969.268 1.75 1.016 1.75.825 0 1.504-1.46 1.744-3.75l.392-3.75.168 4.25c.092 2.337-.282 4.25-.832 4.25s-.997 1.913-.994 4.25c.011 7.775 1.28 20.75 2.03 20.75.406 0 1.029-11.588 1.384-25.75zm2.305-4.482c-.223-1.797-.41-.568-.415 2.732-.006 3.3.176 4.77.405 3.268.228-1.503.232-4.203.01-6zM21.358 310c.993-1.305.914-1.321-.608-.128-.963.755-1.698 2.33-1.634 3.5.11 2.021.14 2.028.608.128.27-1.1 1.005-2.675 1.634-3.5zm3.77 3.25c1.27-1.619 1.222-1.64-.628-.283-1.1.807-2.188 1.594-2.417 1.75-.229.156.054.283.628.283s1.662-.787 2.417-1.75zm11.426-16.156c4.92-5.173 8.325-9.048 7.566-8.61-.892.513-1.236.365-.975-.42.223-.668.662-1.068.976-.889.929.528 3.903-2.328 3.352-3.22-.278-.449.021-1.142.665-1.54.789-.488.913-.265.382.68-1.097 1.955 3.266-2.524 16.825-17.271C76.466 253.728 80.944 247.785 73.5 255c-4.603 4.461-4.48 3.13.208-2.247l3.708-4.253-3.708 3.446c-4.23 3.931-4.8 3.4-1.356-1.263 3.013-4.077 4.431-6.978 1.8-3.683-11.502 14.408-27.1 32.457-27.904 32.29-.555-.116-1.85.784-2.879 2L41.5 283.5l2.27-1.923c2.269-1.922 2.27-1.922 1.9.5-.203 1.333-.887 2.48-1.52 2.548-.632.069-1.487.235-1.9.368-.412.134-1.045.205-1.405.157-.36-.048-2.31 2.036-4.332 4.632l-3.676 4.718 3.974-4.384c3.853-4.25 4.01-4.32 5.117-2.25.652 1.217.734 2.134.19 2.134-.523 0-1.11-.475-1.303-1.055-.194-.58-1.755.882-3.47 3.25-1.716 2.368-6.149 8.13-9.85 12.805-6.948 8.775-6.104 8.038 9.06-7.906zm12.455-15.903c-.005-.723-.519-.994-1.147-.606-1.286.795 18.385-22.715 20.417-24.401 1.02-.847 1.302-.58 1.267 1.197-.05 2.533-6.086 10.022-7.414 9.2-.463-.286-1.92.704-3.237 2.2L56.5 271.5l2.75-2.424c4.936-4.352 2.803-.734-3.788 6.424-3.544 3.85-6.448 6.41-6.453 5.691zm7.112-8.441c1.569-2.892.514-2.01-3.581 3-3.57 4.366-3.621 4.508-.626 1.75 1.792-1.65 3.685-3.788 4.207-4.75zM66.506 261l2.99-3.5-3.748 3.446c-2.061 1.896-3.748 3.898-3.748 4.45 0 .625.286.645.758.054.417-.523 2.103-2.525 3.748-4.45zM31.5 306c2.709-2.75 4.7-5 4.425-5-.275 0-2.716 2.25-5.425 5-2.709 2.75-4.7 5-4.425 5 .275 0 2.716-2.25 5.425-5zm79.207-.238c-.239-1.244-.444-.462-.455 1.738-.01 2.2.185 3.218.435 2.262s.26-2.756.02-4zM24.5 306c.995-1.1 1.585-2 1.31-2-.275 0-1.315.9-2.31 2-.995 1.1-1.585 2-1.31 2 .275 0 1.315-.9 2.31-2zm3.628-4.75c1.243-1.586 1.208-1.621-.378-.378-.963.755-1.75 1.543-1.75 1.75 0 .823.821.294 2.128-1.372zM40.5 296c2.148-2.2 3.68-4 3.406-4-.275 0-2.258 1.8-4.406 4-2.148 2.2-3.68 4-3.406 4 .275 0 2.258-1.8 4.406-4zm-8.372.25c1.243-1.586 1.208-1.621-.378-.378-.963.755-1.75 1.543-1.75 1.75 0 .823.821.294 2.128-1.372zM120.2 274.5c.263-9.9.153-15.075-.244-11.5-.753 6.763-1.228 30.646-.596 29.917.199-.23.577-8.517.84-18.417zM52 283.5c2.987-3.025 5.207-5.5 4.932-5.5-.275 0-2.945 2.475-5.932 5.5-2.987 3.025-5.207 5.5-4.932 5.5.275 0 2.945-2.475 5.932-5.5zm57.3-12.115c-.421-7.637-.93-12.535-1.13-10.885-.438 3.603.853 25.81 1.465 25.199.236-.237.085-6.678-.336-14.314zM48.5 276c.995-1.1 1.585-2 1.31-2-.275 0-1.315.9-2.31 2-.995 1.1-1.585 2-1.31 2 .275 0 1.315-.9 2.31-2zm4-5c.995-1.1 1.585-2 1.31-2-.275 0-1.315.9-2.31 2-.995 1.1-1.585 2-1.31 2 .275 0 1.315-.9 2.31-2zm14-3c2.709-2.75 4.7-5 4.425-5-.275 0-2.716 2.25-5.425 5-2.709 2.75-4.7 5-4.425 5 .275 0 2.716-2.25 5.425-5zm-9-3c.995-1.1 1.585-2 1.31-2-.275 0-1.315.9-2.31 2-.995 1.1-1.585 2-1.31 2 .275 0 1.315-.9 2.31-2zm4-5c.995-1.1 1.585-2 1.31-2-.275 0-1.315.9-2.31 2-.995 1.1-1.585 2-1.31 2 .275 0 1.315-.9 2.31-2zm53.5-1.5c0-.825-.436-1.5-.969-1.5-.532 0-.71.675-.393 1.5.317.825.753 1.5.969 1.5.216 0 .393-.675.393-1.5zm1.683-.688c-.32-.797-.556-.56-.604.605-.043 1.054.193 1.644.525 1.312.332-.332.368-1.195.08-1.916zM78 255.5c1.866-1.925 3.167-3.5 2.892-3.5-.275 0-2.026 1.575-3.892 3.5s-3.167 3.5-2.892 3.5c.275 0 2.026-1.575 3.892-3.5zm32 0c-1.86-2.241.175-4.018 4.465-3.899 3.975.111 6.912 1.973 4.452 2.823-.78.27-2.767.667-4.417.883-2.467.324-2.288.42 1.01.543 3.16.118 4.314-.326 5.45-2.1 1.82-2.84 2.16-4.75.845-4.75-.56 0-.76.675-.443 1.5 1.204 3.14-1.404 1.336-2.76-1.908-1.367-3.275-3.24-15.754-2.75-18.342.13-.687-.46-1.25-1.308-1.25-.903 0-1.544-.874-1.544-2.107 0-1.493.452-1.934 1.552-1.511.933.358 1.295.18.908-.446-1.785-2.889-2.813.392-3.013 9.62-.222 10.196-2.21 17.525-4.71 17.365-.962-.061-.957-.192.02-.585.69-.279 1-.92.688-1.424-.334-.541-1.394-.474-2.584.162-1.11.594-2.585.862-3.28.596-.694-.267-1.897-.083-2.672.407-.972.616-.245.897 2.348.908 2.748.01 4.34.686 5.93 2.515 2.306 2.653 3.926 3.546 1.813 1zm-43.872-1.25c1.243-1.586 1.208-1.621-.378-.378-.963.755-1.75 1.543-1.75 1.75 0 .823.821.294 2.128-1.372zm51.122-.912c-.688-.278-1.813-.278-2.5 0-.688.277-.125.504 1.25.504s1.938-.227 1.25-.504zM69.5 250c.995-1.1 1.585-2 1.31-2-.275 0-1.315.9-2.31 2-.995 1.1-1.585 2-1.31 2 .275 0 1.315-.9 2.31-2zm13.682-1.485c.293.293 1.102-.153 1.798-.99.865-1.043.91-1.525.142-1.525-.617 0-1.122.54-1.122 1.2 0 .887-.293.907-1.122.078-.617-.617-1.816-.855-2.664-.53-.894.343-1.282.17-.922-.411.341-.552-.035-1.004-.836-1.004-1.662 0-1.655-.015-.873 2.022.351.915 1.245 1.278 2.25.912 1.381-.502 1.326-.192-.326 1.813l-1.993 2.42 2.567-2.26c1.412-1.242 2.807-2.018 3.1-1.725zM129 251.559c0-.243-.45-.72-1-1.059-.55-.34-1-.141-1 .441s.45 1.059 1 1.059 1-.198 1-.441zm-34-2.524c0-.53-1.012-1.489-2.25-2.13l-2.25-1.164 2 2.07c2.341 2.423 2.5 2.501 2.5 1.224zM74 244.5c1.292-1.375 2.124-2.5 1.849-2.5-.275 0-1.557 1.125-2.849 2.5-1.292 1.375-2.124 2.5-1.849 2.5.275 0 1.557-1.125 2.849-2.5zm15.73.896c-.333-.332-1.196-.368-1.917-.08-.798.32-.561.557.604.605 1.054.043 1.644-.193 1.312-.525zM82.6 243.49c-.122-.83-.823-2.068-1.558-2.75-1.083-1.005-1.17-.956-.455.26.485.825.945 1.837 1.022 2.25.279 1.493.397 1.75.802 1.75.226 0 .311-.68.19-1.51zm7.607-1.74c-1.274-1.535 4.733-11.637 9.718-16.342 3.66-3.454 4.01-5.68.824-5.228-1.446.206-2.364 1.124-2.57 2.57-.175 1.237-.937 2.25-1.693 2.25-.755 0-1.962.791-2.68 1.758-.719.967-3.67 3.534-6.557 5.705-2.888 2.172-5.25 4.498-5.25 5.17 0 1.82 4.91 5.339 6.564 4.704.79-.303 1.436.022 1.436.723 0 .7.29.984.643.63.353-.353.157-1.226-.435-1.94zm-5.865-3.298c-.535-1.395 2.026-4.336 3.848-4.42 1.164-.054 1.999 1.96.868 2.093-.582.069-1.584.181-2.226.25-.641.069-1.375.75-1.63 1.514-.308.926-.034 1.125.822.596.842-.52 1.038-.396.57.36-.96 1.556-1.543 1.454-2.252-.393zM99.08 222.25c.048-1.056.28-1.252.585-.494.279.691.988.96 1.576.596.632-.39.777-.189.355.493-1.078 1.745-2.605 1.384-2.516-.595zM79 241c0-.55-.477-1-1.059-1s-.78.45-.441 1c.34.55.816 1 1.059 1s.441-.45.441-1zm.457-2.93c.317-.513.118-1.214-.44-1.56-.56-.345-1.017.074-1.017.931 0 1.757.6 2.015 1.457.628zm-2.437-5.546c-.696-.838-1.997-1.514-2.892-1.502-1.214.017-.995.509.857 1.932 2.789 2.142 3.964 1.894 2.035-.43zm125.689 80.292c-1.773-1.824-16.454-17.153-32.623-34.066-16.17-16.913-29.598-30.75-29.839-30.75-.24 0-1.742.928-3.336 2.063-1.593 1.135-3.35 1.783-3.904 1.441-1.685-1.041-1.125-5.58.906-7.344 2.242-1.945 3.725-6.16 2.167-6.16-.914 0-2.16-1.613-7.58-9.812-.55-.832-1.787-2.34-2.75-3.35-.963-1.011-1.75-2.963-1.75-4.338 0-2.146.453-2.5 3.199-2.5 2.488 0 4.247 1.056 7.914 4.75 8.23 8.29 8.887 8.762 11.705 8.4 1.475-.19 3.042-.977 3.482-1.748.44-.771 2.127-1.402 3.75-1.402 3.784 0 3.91 2.388.326 6.13l-2.624 2.739 2.205 2.815c2.15 2.746 17.897 21.37 37.043 43.809 22.035 25.825 20.881 24.269 21.232 28.65.25 3.129.045 3.378-3.016 3.673-2.63.253-3.925-.344-6.507-3zm5.181.934c-.243-.138-3.58-3.175-7.416-6.75l-6.974-6.5 6.471 6.75c3.56 3.712 6.897 6.75 7.417 6.75.52 0 .746-.113.502-.25zm.11-3.35c0-.33-2.83-3.818-6.288-7.75-3.458-3.933-8.823-10.3-11.922-14.15-5.006-6.22-15.435-17.904-11.88-13.31.776 1.002 1.21 2.023.964 2.27-.56.56-19.885-20.987-19.844-22.126.017-.459 3.888 3.216 8.602 8.166l8.57 9-9.387-11c-12.56-14.717-16.808-20.878-12.065-17.498.963.686.48.06-1.072-1.392-2.874-2.686-5.046-2.731-4.03-.084.31.805.964 1.214 1.457.91.492-.305.895-.152.895.338 0 1.745-1.34 2.19-2.908.967-1.409-1.098-1.434-1.04-.22.509 1.164 1.483 1.164 1.752 0 1.765-1.083.012-1.059.214.116.957 1.082.683 1.777.401 2.545-1.034.975-1.822 1.308-1.618 4.319 2.654 3.984 5.653 3.56 6.78-.719 1.907-1.723-1.963-3.133-3.187-3.133-2.72 0 .465 1.35 2.14 3 3.721 4.813 4.611 3.454 5.002-1.848.531-4.779-4.03-10.703-6.604-8.168-3.55.64.77 1.743 1.177 2.452.905.75-.288 8.503 7.264 18.534 18.053 9.484 10.2 17.675 18.28 18.202 17.955.545-.337.214-1.415-.767-2.5-.95-1.048-1.504-2.128-1.233-2.4.272-.271 2.014 1.42 3.871 3.756 1.858 2.338 2.679 3.691 1.825 3.009-1.864-1.49-2.948-.693-2.16 1.589.315.908-2.416-1.26-6.068-4.82-3.652-3.558-6.64-6.247-6.64-5.974 0 .273 3.437 3.86 7.637 7.971 4.2 4.111 7.324 6.913 6.94 6.225-.382-.688-.25-1.25.294-1.25s4.935 4.275 9.759 9.5c7.921 8.58 10.37 10.682 10.37 8.9zm-22-18.958c0-.205.9-.853 2-1.442 1.105-.591 2-.66 2-.152 0 .505-.9 1.154-2 1.442-1.1.287-2 .356-2 .152zm-13.455-17.192c-4.773-5.362-10.082-11.205-11.796-12.983-1.715-1.777-2.866-3.483-2.56-3.79.307-.307 4.945 4.403 10.306 10.467 5.361 6.063 10.112 10.799 10.557 10.524.994-.614 2.308 1.378 2.484 3.764.071.973.03 1.768-.09 1.768-.122 0-4.127-4.388-8.9-9.75zm35.505 32.472l-2.338-2.222 1.894 2.652c1.042 1.459 2.094 2.459 2.338 2.222.245-.236-.607-1.43-1.894-2.652zm-2.05-3.048c0-.179-1.238-1.416-2.75-2.75l-2.75-2.424 2.424 2.75c2.266 2.57 3.076 3.209 3.076 2.424zm-6-7c0-.179-1.238-1.416-2.75-2.75l-2.75-2.424 2.424 2.75c2.266 2.57 3.076 3.209 3.076 2.424zm-5-6c0-.179-1.238-1.416-2.75-2.75l-2.75-2.424 2.424 2.75c2.266 2.57 3.076 3.209 3.076 2.424zm-6-7c0-.179-1.238-1.416-2.75-2.75l-2.75-2.424 2.424 2.75c2.266 2.57 3.076 3.209 3.076 2.424zm-6-7.019c0-.19-1.012-1.202-2.25-2.25l-2.25-1.905 1.905 2.25c1.79 2.114 2.595 2.705 2.595 1.905zm-15-3.928c0-.15-3.712-3.863-8.25-8.25l-8.25-7.977 7.977 8.25c7.408 7.662 8.523 8.706 8.523 7.977zm10-2.04c0-.172-1.462-1.635-3.25-3.25l-3.25-2.937 2.937 3.25c2.738 3.03 3.563 3.71 3.563 2.937zm-6-7.032c0-.19-1.012-1.202-2.25-2.25l-2.25-1.905 1.905 2.25c1.79 2.114 2.595 2.705 2.595 1.905zm-5-5.968c0-.172-1.462-1.635-3.25-3.25l-3.25-2.937 2.937 3.25c2.738 3.03 3.563 3.71 3.563 2.937zm-7-8.032c0-.19-1.012-1.202-2.25-2.25l-2.25-1.905 1.905 2.25c1.79 2.114 2.595 2.705 2.595 1.905zM140.191 246c1.009 0 1.539-.541 1.255-1.281-.636-1.656 6.039-8.156 7.468-7.272.597.369 1.086.229 1.086-.311s1.165-2.367 2.589-4.06c2.75-3.269 2.285-4.177-.74-1.44-2.888 2.614-8.444 2.647-11.237.066a873.5 873.5 0 0 0-5.748-5.242c-1.85-1.671-3.862-3.921-4.471-5-.61-1.078-1.96-2.072-3-2.209-1.456-.191-1.373-.025.357.718 1.516.651 2.25 1.822 2.25 3.59 0 2.612 2.132 6.051 7.116 11.478l2.615 2.848-1.817 4.057c-.999 2.232-2.288 4.058-2.865 4.058-.577 0-1.049.7-1.049 1.557 0 1.409.211 1.409 2.223 0 1.222-.856 3.008-1.557 3.968-1.557zm6.309-11c-.782-1.266.542-1.266 2.5 0 1.293.835 1.266.971-.191.985-.93.008-1.97-.435-2.309-.985zm-.132 10.786c-.268-.432-.135-1.349.295-2.036.896-1.435 1.442-4.188.679-3.425-.28.28-.359.735-.175 1.011.183.277-.667 1.568-1.89 2.87-2.077 2.21-2.098 2.365-.323 2.365 1.044 0 1.68-.353 1.414-.785zm-18.701-23.242c0-.8-.383-1.22-.85-.93-.467.288-.59.943-.274 1.455.808 1.308 1.124 1.161 1.124-.525zm30.083.374c-1.162-.676-1.755-2.26-1.765-4.718-.008-2.035-.365-4.25-.792-4.922-.437-.688-5.116-1.707-10.698-2.329C133.435 209.716 131 208.823 131 206c0-2.8 2.484-3.697 11.666-4.206 10.085-.56 13.334-2.313 13.334-7.195 0-3.677 2.118-6.151 4.487-5.242 1.007.386 1.513 1.939 1.513 4.643 0 2.514.521 4.263 1.368 4.588.752.288 14.81.837 31.238 1.218 27.333.635 29.898.843 30.205 2.444.305 1.592-.802 1.75-12.238 1.75-9.383 0-12.577.317-12.588 1.25-.01.833-.339.75-.985-.25-.646-1-.974-1.083-.985-.25-.009.765-1.276 1.204-3.265 1.132l-3.25-.119 3-.763c2.254-.574 1.384-.753-3.5-.722-3.575.023-5.001.226-3.17.451 2.384.293 3.175.816 2.782 1.84-.45 1.173 1.012 1.431 8.12 1.431 8.168 0 10.382-1.182 4.268-2.28-1.821-.326-1.482-.485 1.25-.584 2.063-.075 3.75.314 3.75.864 0 .583 3.333 1 8 1 6.399 0 8 .296 8 1.48 0 2.199-2.054 2.414-31.668 3.314-19.423.59-27.604 1.187-28.697 2.094-.84.697-1.664 3.11-1.831 5.362-.327 4.401-1.292 5.274-4.054 3.668zm3.235-6.168c-.012-3.112-.275-3.849-.985-2.75-.533.825-1.033 1.163-1.11.75l-.28-1.5c-.078-.412-.516-1.342-.975-2.067-1.192-1.878-.13-2.533 1.496-.923 1.048 1.038 3.36 1.203 9.869.703 7.453-.573 7.785-.672 2.691-.808-3.308-.088-5.56-.557-5.232-1.09.318-.513 2.257-.753 4.31-.533 3.419.367 3.48.332.731-.411l-3-.812 2.5-1.091c1.443-.63 1.844-1.118.947-1.155-.854-.035-3.433 1.32-5.73 3.009-2.297 1.689-4.636 2.787-5.197 2.44-.56-.346-1.02-2.4-1.02-4.563 0-3.83.083-3.923 3.203-3.582 2.91.319 5.441 2.633 2.88 2.633-.595 0-1.083.454-1.083 1.008 0 .596.823.495 2.012-.247 1.106-.692 1.802-1.804 1.545-2.472-.34-.886 2.031-1.305 8.739-1.545 8.172-.292 7.775-.352-3.546-.536L161 201v-3.418c0-4.176-.904-6.76-2.105-6.017-.492.304-.895 1.851-.895 3.438 0 1.587-1.037 4.09-2.304 5.564-2.05 2.382-3.232 2.748-10.685 3.306-7.68.575-8.246.76-6.776 2.225 1.34 1.334 7.399 2.488 16.515 3.145.688.05 1.25.889 1.25 1.865s.45 2.052 1 2.392c.55.34 1 2.166 1 4.059 0 2.392.457 3.441 1.5 3.441 1.1 0 1.496-1.132 1.485-4.25zm-5.58-12.905c-.443-.715-.275-.883.44-.44.669.412 1.155.108 1.155-.724 0-.79.675-1.996 1.5-2.681 1.036-.86 1.5-.898 1.5-.122 0 .617-.45 1.122-1 1.122s-1 .9-1 2c0 2.192-1.468 2.67-2.595.845zm46.363 5.44c-1.503-.228-4.203-.232-6-.01-1.797.223-.568.41 2.732.415 3.3.006 4.77-.176 3.268-.405zm19.982-.974c-.963-.252-2.538-.252-3.5 0-.963.251-.175.457 1.75.457s2.712-.206 1.75-.457zm-86-1c-.963-.252-1.75-.901-1.75-1.443s.52-.665 1.155-.273c.744.46.881.273.387-.528-.512-.827-1.101-.908-1.768-.241-1.33 1.33-.084 3.203 2.035 3.058 1.525-.105 1.519-.161-.059-.573zm27.933-1.498c-.32-.798-.556-.561-.604.604-.043 1.054.193 1.644.525 1.312.332-.332.368-1.195.08-1.916zm13.567-2.519c-1.238-.238-3.263-.238-4.5 0-1.238.239-.225.434 2.25.434s3.487-.195 2.25-.434zm44.014-.998c-1.23-.237-3.48-.243-5-.014-1.52.23-.514.425 2.236.432 2.75.007 3.994-.18 2.764-.418zM91.868 187.844c-7.688-7.58-10.253-8.545-13.947-5.252-2.147 1.915-5.842 1.776-6.62-.248-.426-1.111.426-2.605 2.589-4.537 3.18-2.842 3.2-2.912 1.417-5.233-.994-1.294-4.755-6.115-8.357-10.714C19.183 100.89 20 101.963 20 100.216c0-1.081.434-.97 1.75.444.963 1.035 1.413 1.445 1 .911-.412-.534-.75-1.4-.75-1.926 0-1.712 3.971 2.584 10.15 10.98 4.497 6.111 6.482 8.074 7.704 7.616 1.36-.508 1.433-.353.424.89-.977 1.204-.892 1.975.423 3.853 1.229 1.754 1.285 2.139.222 1.522-.844-.49-1.084-.456-.59.084.459.5 1.134.917 1.5.925 1.286.03 3.167 1.613 3.167 2.666 0 .64-.697.524-1.75-.291-1.417-1.097-1.386-.929.16.883 1.051 1.232 2.135 2.015 2.409 1.742.672-.673 3.181 1.48 3.181 2.73 0 .55-.787.382-1.75-.373-1.584-1.242-1.62-1.207-.387.367.75.956 1.736 1.51 2.19 1.228.455-.28 2.091 1.116 3.637 3.104 4.745 6.104 21.525 26.869 22.57 27.929.542.55.504.063-.083-1.082s-1.767-2.663-2.622-3.373c-1.764-1.464-2.139-3.524-.451-2.48.607.374.33-.5-.615-1.942-1.911-2.916-2.73-3.413-1.85-1.123.922 2.404-.257 1.734-2.199-1.25-1.557-2.393-1.572-2.572-.115-1.378.921.755 1.675.923 1.675.373s-.675-1.56-1.5-2.245c-1.2-.996-1.5-.99-1.5.033 0 .859-.655.684-2-.533-1.1-.996-2-2.26-2-2.81 0-.55.947-.143 2.105.905s2.293 1.782 2.524 1.63c.23-.15 3.51 2.775 7.288 6.5 5.771 5.691 6.647 6.981 5.477 8.064-1.785 1.652-1.78 2.878.01 2.878.837 0 1.173-.606.83-1.498-.404-1.054-.182-1.255.75-.679.895.553 1.087.433.59-.37-.522-.844.052-1.046 1.981-.696l2.715.493-2.31-2.459c-2.51-2.672-3.978-3.39-1.96-.958.685.825.8 1.5.257 1.5-.952 0-5.33-4.747-26.608-28.844C50.23 128.02 45.644 123 45.456 123c-.188 0-.156.96.07 2.135.226 1.175.088 1.812-.307 1.417-.396-.395-.726-1.019-.734-1.385-.009-.367-.416-1.299-.905-2.072-.642-1.014-.533-1.184.395-.61.857.53 1.129.331.816-.596-.258-.764-1.43-1.336-2.607-1.271-1.176.065-1.893-.28-1.592-.766.3-.487 1.078-.59 1.727-.229.65.361-1.334-1.994-4.409-5.233-3.074-3.24-7.296-8.034-9.382-10.654-2.085-2.62-4.825-5.023-6.088-5.34-2.537-.637-3.922-2.98-2.34-3.958 3.336-2.062 7.556 1.548 23.454 20.062 3.778 4.4 10.967 12.5 15.977 18s10.652 11.78 12.538 13.954c1.887 2.174 6.325 7.124 9.862 11 3.536 3.875 6.571 7.23 6.743 7.457.173.225 1.202-.394 2.287-1.376 1.105-1 2.83-1.562 3.92-1.276 1.332.348 2.102-.086 2.44-1.375.38-1.456 1.417-1.884 4.566-1.884 3.407 0 4.16-.369 4.59-2.25.282-1.238.87-22.275 1.307-46.75.846-47.456 1.028-49 5.788-49 3.366 0 4.26 3.572 4.885 19.5 1.103 28.178 3.274 78 3.409 78.25.074.138 1.859.25 3.967.25 4.608 0 5.018.328 4.407 3.523-.399 2.087-1.046 2.482-4.107 2.509-6.216.054-7.092 1.47-7.789 12.592-.679 10.843-1.485 13.376-4.257 13.376-2.686 0-4.452-2.643-4.674-6.998-.46-8.996-1.698-15.993-3.024-17.094-2.185-1.813-9.389-2.91-9.389-1.429 0 .666-.855 1.985-1.9 2.93-2.416 2.187-3.272 5.375-1.703 6.343 1.43.883 7.603 9.97 7.603 11.191 0 .464.637 1.087 1.416 1.386.879.338 1.352 1.799 1.25 3.857-.29 5.81-3.411 4.926-11.798-3.342zM102.2 191.8c-.933-.933-1.467-.933-2.4 0-.933.933-.667 1.2 1.2 1.2s2.133-.267 1.2-1.2zm-4.64-7.639c-.882-.914-2.553-2.932-3.713-4.486-1.16-1.553-3.288-3.29-4.728-3.86-2.468-.975-2.504-1.083-.619-1.855 1.1-.45 1.55-.858 1-.905-.55-.047-.329-.51.492-1.029 1.27-.803 1.285-1.134.103-2.234-1.143-1.064-1.247-1.044-.587.113.537.94.42 1.169-.353.69-.635-.392-1.155-.161-1.155.513s-.236.99-.524.702c-1.043-1.043.816-3.912 2.193-3.384 1.745.67 5.331-1.46 5.331-3.167 0-1.645-.567-1.589-3.527.351-1.352.885-3.186 1.33-4.077.989-1.18-.454-1.455-.196-1.015.951.45 1.174.06 1.494-1.535 1.262-1.44-.21-2.228.278-2.412 1.494-.22 1.455.002 1.577 1.146.627.781-.648 1.42-.835 1.42-.416 0 .978-3.191 3.414-4.5 3.436-.55.009-.325-.42.5-.953 1.09-.704 1.142-.974.191-.985-.72-.008-1.05-.434-.734-.946.317-.512.049-1.256-.595-1.654-.731-.452-.903-.29-.457.43 1.702 2.755-2.197.827-5.25-2.595l-3.344-3.75 3.167 4.236c1.743 2.33 3.585 4.494 4.095 4.81 1.68 1.038.969 3.511-1.73 6.012-2.576 2.387-2.68 4.779-.117 2.688.7-.572 3.187-1.607 5.524-2.301 2.337-.694 4.268-1.753 4.29-2.353.02-.6.65.316 1.4 2.036.748 1.72 3.031 4.42 5.073 6 2.041 1.58 4.223 3.39 4.85 4.022.854.864 1.22.655 1.468-.84.182-1.093-.39-2.735-1.272-3.649zM80 177c-1.282-.828-1.246-.972.25-.985.963-.008 1.75.435 1.75.985 0 1.22-.113 1.22-2 0zm35.493 11.011c.35-.566-.05-.735-.935-.395-1.017.39-1.867-.211-2.488-1.761-.55-1.375-.97-1.71-1.007-.805-.115 2.816 3.165 5.009 4.43 2.961zm-.1-6.593c.334-.87.607-4.444.607-7.943 0-5.44.322-6.587 2.223-7.918 1.222-.856 1.672-1.557 1-1.557-.673 0-1.223-.675-1.223-1.5s.487-1.5 1.083-1.5.898-.557.671-1.238c-.596-1.789-10.384-1.913-11.846-.15-.838 1.008-.846 1.388-.03 1.388.617 0 1.122.675 1.122 1.5s-.787 1.493-1.75 1.485c-1.34-.012-1.438-.213-.415-.862.996-.631.743-1.004-1-1.47-3.525-.944-6.835-.776-6.835.347 0 .55.845 1 1.878 1s3.45.657 5.373 1.46c1.922.804 3.708 1.248 3.968.988.26-.26.527 1.22.593 3.29.11 3.425.348 5.041 1.768 12.012.532 2.613 1.938 2.947 2.813.668zm-2.58-13.101c.721-.289 1.584-.253 1.916.079.332.332-.258.568-1.312.525-1.165-.048-1.402-.285-.604-.604zm-1.563-5.98c-2.409-.971-1.216-1.929 2.5-2.007 2.973-.062 3.144.017.826.38-2.204.344-2.574.679-1.5 1.358 1.5.95.3 1.127-1.826.27zM78 163.656c0-.19-1.012-1.202-2.25-2.25L73.5 159.5l1.905 2.25c1.79 2.114 2.595 2.705 2.595 1.905zm50.241-1.496c.879-.879.566-1.156-1.291-1.145-3.685.02-6.997 1.102-6.388 2.086.728 1.177 6.236.502 7.68-.941zM71 162.655c0-.19-1.012-1.202-2.25-2.25L66.5 158.5l1.905 2.25c1.79 2.114 2.595 2.705 2.595 1.905zm9-4.952c0-.163-1.913-2.076-4.25-4.25L71.5 149.5l3.953 4.25c3.676 3.952 4.547 4.71 4.547 3.953zm-14-1.08c0-.208-.787-.996-1.75-1.75-1.586-1.244-1.621-1.21-.378.377 1.307 1.666 2.128 2.195 2.128 1.372zm42.743-19.83c-.19-4.01-.347-.993-.348 6.707-.002 7.7.154 10.982.346 7.294.191-3.689.193-9.989.003-14zm4.428 17.552c1.348-1.22 1.829-1.307 1.829-.333 0 .727.236 1.086.524.798.687-.687-.524-3.81-1.478-3.81-.407 0-1.147.912-1.643 2.027-.563 1.263-.773-5.045-.559-16.75.19-10.328.11-18.548-.175-18.269-.881.863-1.987 37.992-1.132 37.992.443 0 1.628-.745 2.634-1.655zm6.518-3.095c-.251-.963-.457-.175-.457 1.75s.206 2.712.457 1.75c.252-.963.252-2.538 0-3.5zM116.986 141l-.643-13.5-.172 10.625c-.142 8.827.545 17.799 1.276 16.66.1-.157-.107-6.36-.46-13.785zM63 152.622c0-.207-.787-.995-1.75-1.75-1.586-1.243-1.621-1.208-.378.378 1.307 1.666 2.128 2.195 2.128 1.372zm-3-3.967c0-.19-1.012-1.202-2.25-2.25L55.5 144.5l1.905 2.25c1.79 2.114 2.595 2.705 2.595 1.905zm12 .048c0-.163-1.913-2.076-4.25-4.25L63.5 140.5l3.953 4.25c3.676 3.952 4.547 4.71 4.547 3.953zm41.683-7.89c-.32-.798-.556-.561-.604.604-.043 1.054.193 1.645.525 1.312.332-.332.368-1.195.08-1.916zM52 138.623c0-.208-.787-.996-1.75-1.75-1.586-1.244-1.621-1.21-.378.377 1.307 1.666 2.128 2.195 2.128 1.372zm11 .064c0-.172-1.462-1.634-3.25-3.25L56.5 132.5l2.937 3.25c2.738 3.03 3.563 3.71 3.563 2.937zm55.69-12.437c-.252-.963-.458-.175-.458 1.75s.206 2.712.457 1.75c.252-.963.252-2.538 0-3.5zM54 128.703c0-.163-1.913-2.076-4.25-4.25L45.5 120.5l3.953 4.25c3.676 3.952 4.547 4.71 4.547 3.953zm55.84-12.453c-.173-13.79-.613-12.544-1.06 3-.154 5.364.058 9.751.47 9.75.412 0 .678-5.738.59-12.75zM38 120.655c0-.19-1.012-1.202-2.25-2.25L33.5 116.5l1.905 2.25c1.79 2.114 2.595 2.705 2.595 1.905zm8-.959c0-.167-1.688-1.854-3.75-3.75L38.5 112.5l3.446 3.75c3.208 3.49 4.054 4.21 4.054 3.446zm69.683-1.884c-.32-.797-.556-.56-.604.605-.043 1.054.193 1.644.525 1.312.332-.332.368-1.195.08-1.917zM31 112c-1.742-2.2-3.393-4-3.668-4-.275 0 .926 1.8 2.668 4s3.393 4 3.668 4c.275 0-.926-1.8-2.668-4zm85.864-33.095c.129-11.915.015-12.698-2.114-14.5L112.5 62.5l1.878 2.22c1.757 2.078 1.845 3.78 1.368 26.5-.325 15.49-.24 19.935.237 12.28.41-6.6.807-17.668.881-24.595zm-3.157 29.857c-.239-1.244-.444-.462-.455 1.738-.01 2.2.185 3.218.435 2.262s.26-2.756.02-4zM38 110.687c0-.172-1.462-1.635-3.25-3.25L31.5 104.5l2.937 3.25c2.738 3.03 3.563 3.71 3.563 2.937zm79.662-4.937c-.277-.688-.504-.125-.504 1.25s.227 1.938.504 1.25c.278-.688.278-1.813 0-2.5zM27 106.622c0-.207-.787-.995-1.75-1.75-1.586-1.243-1.621-1.208-.378.378 1.307 1.666 2.128 2.195 2.128 1.372zm87.87-26.79c.137-11.214-.47-15.07-1.994-12.666-1.053 1.662-1.108 13.13-.13 27.428l.745 10.906.624-7.5c.343-4.125.682-12.3.754-18.168zM28 99.5c-1.866-1.925-4.092-3.471-4.946-3.437-1.091.045-.959.31.446.891 1.1.455 3.09 2.001 4.424 3.437 1.334 1.435 2.66 2.609 2.946 2.609.287 0-1.004-1.575-2.87-3.5zm89.706-2.75c-.239-1.238-.434-.225-.434 2.25s.195 3.487.434 2.25c.238-1.238.238-3.263 0-4.5zm-6.487-27.93c.2-2.024.008-3.46-.428-3.19-.435.268-.755 2.374-.712 4.679.089 4.704.593 4.045 1.14-1.489zm14.031 125.518c-1.735-.7-1.568-6.333.245-8.254 2.574-2.728 6.096-7.458 7.994-10.735 1.789-3.088 1.782-3.224-.332-6.807-3.775-6.398-1.86-9.901 3.284-6.01 3.044 2.302 4.103 1.831 8.728-3.88 2.382-2.942 10.582-12.505 18.222-21.25a9204.799 9204.799 0 0 0 25.382-29.195C203.323 91.377 209 88.083 209 96.472c0 2.793-1.259 5.16-6.003 11.281-41.253 53.236-50.428 65.213-50.845 66.37-.192.531.855 2.08 2.326 3.444 4.931 4.57.946 6.99-5.812 3.527l-3.833-1.964-8.02 7.935c-7.747 7.664-8.86 8.364-11.563 7.273zm3.48-1.942c-.333-.332-1.196-.368-1.917-.08-.798.32-.561.557.604.605 1.054.043 1.644-.193 1.312-.525zm9.462-10.511c3.154-2.881 4.631-4.876 3.93-5.31-1.42-.877-1.462-2.575-.063-2.575.582 0 .8.419.484.93-1.055 1.708 1.449 2.22 3.045.625.865-.866 1.987-1.318 2.493-1.005.505.312.919-.434.919-1.658s-.297-1.928-.66-1.565c-.363.363-1.302-.255-2.085-1.374-.99-1.412-2.087-1.853-3.59-1.442-2.045.56-2.064.512-.348-.868.999-.804 1.752-1.738 1.675-2.077-.078-.339.081-1.167.354-1.841.275-.678.531-.414.575.592.059 1.351.592 1.655 2.079 1.183 1.547-.49 2-.18 2 1.374 0 1.104.457 2.29 1.016 2.636.56.346.758 1.047.441 1.56-1.13 1.829.236.883 2.619-1.813l2.424-2.743-2.42 1.993c-2.193 1.806-2.358 1.824-1.761.191.393-1.077.26-1.556-.33-1.19-.544.335-.989-.287-.989-1.384 0-1.096 3.487-6.191 7.75-11.322 11.054-13.306 13.771-17.099 13.468-18.802-.192-1.077.035-1.008.806.248 1.162 1.892.462 2.952-11.368 17.209-3.214 3.874-6.497 8.393-7.296 10.043l-1.452 3 2.585-3c1.421-1.65 6.396-7.95 11.055-14s9.902-12.8 11.652-15l3.18-4-3.69 3.446c-2.03 1.896-3.69 3.149-3.69 2.785 0-1.284 6.212-7.718 6.989-7.238.433.268 2.412-1.497 4.399-3.922 3.523-4.3 4.558-6.274 2.681-5.114-.512.317-1.199.142-1.527-.388-.332-.538.306-.79 1.444-.572 1.383.267 2.597-.475 3.771-2.302.952-1.482 4.598-6.431 8.101-10.998 3.504-4.566 6.147-8.525 5.874-8.798-.273-.273-3.979 3.463-8.235 8.302-4.257 4.84-8.333 8.741-9.058 8.67-.725-.07-2.358 1.054-3.629 2.5l-2.31 2.629 2.644-2.325c1.725-1.516 2.88-1.946 3.32-1.234.37.6 1.093.833 1.605.516.512-.316.931-.125.931.425 0 1.585-1.78 2.261-2.3.874-.307-.817-1.648-.073-3.836 2.128-1.85 1.861-2.689 3-1.864 2.528 2.333-1.331 4.153-1.371 3.723-.082-.214.644-.915 1.226-1.556 1.295-.642.069-1.504.235-1.917.368-.412.134-1.024.212-1.358.173-.335-.04-1.91 1.353-3.5 3.093s-2.105 2.564-1.142 1.83c.963-.734 1.75-.884 1.75-.334 0 1.282-2.517 3.395-3.213 2.698-.292-.291-5.674 5.45-11.962 12.759-11.686 13.583-14.946 17.847-10.997 14.383 1.195-1.048 2.172-1.418 2.172-.823s-1.667 2.456-3.703 4.135c-2.613 2.153-3.922 2.7-4.443 1.856-.407-.658-.203-1.886.453-2.73 1.04-1.337.973-1.36-.528-.185-.946.742-2.98 3.251-4.521 5.576-1.54 2.326-3.354 4.044-4.03 3.819-.772-.258-1.003.178-.622 1.173.335.871 1.2 1.584 1.924 1.584.777 0 .22 1.19-1.357 2.906-4.079 4.433-6.815 8.35-7.62 10.907-.678 2.155-.58 2.224 1.429 1 1.186-.722 4.43-3.39 7.21-5.928zm15.85-25.235c-.043-.872 15.784-19.65 16.561-19.65.54 0-8.224 11.146-12.972 16.5-1.951 2.2-3.566 3.617-3.59 3.15zM172 134.622c0-.207.787-.995 1.75-1.75 1.586-1.243 1.621-1.208.378.378-1.307 1.666-2.128 2.195-2.128 1.372zm8-6.681c0-.582-.563-.721-1.25-.308-.827.497-.779.17.142-.965.766-.944 1.625-1.484 1.908-1.2.284.283 1.198-.044 2.033-.727 1.098-.898 1.022-.482-.273 1.509-1.92 2.95-2.56 3.372-2.56 1.691zM153 180c-.825-.533-1.107-.976-.628-.985.48-.008.375-.615-.234-1.349-.61-.734-2.005-1.268-3.102-1.187-2.405.177-4.017 1.521-1.825 1.521.85 0 2.104.675 2.789 1.5s1.977 1.493 2.872 1.485c1.417-.014 1.433-.142.128-.985zm-17.374-14.533c-.31-.807-1.14-1.431-1.845-1.388-1.003.062-1.01.188-.031.583.687.278 1.286 1.48 1.329 2.671.043 1.192.31 1.59.594.884.284-.706.262-1.943-.047-2.75zm21.502-1.217c1.243-1.586 1.208-1.621-.378-.378-1.666 1.307-2.195 2.128-1.372 2.128.207 0 .995-.787 1.75-1.75zm4-5c1.243-1.586 1.208-1.621-.378-.378-.963.755-1.75 1.543-1.75 1.75 0 .823.821.294 2.128-1.372zm-9.565-4.5l2.937-3.25-3.25 2.937c-3.03 2.738-3.71 3.563-2.937 3.563.172 0 1.635-1.462 3.25-3.25zm12.565.5c1.243-1.586 1.208-1.621-.378-.378-.963.755-1.75 1.543-1.75 1.75 0 .823.821.294 2.128-1.372zm3-4c1.243-1.586 1.208-1.621-.378-.378-.963.755-1.75 1.543-1.75 1.75 0 .823.821.294 2.128-1.372zm-9.565-3.5l2.937-3.25-3.25 2.937c-3.03 2.738-3.71 3.563-2.937 3.563.172 0 1.635-1.462 3.25-3.25zM170.5 147c.995-1.1 1.585-2 1.31-2-.275 0-1.315.9-2.31 2-.995 1.1-1.585 2-1.31 2 .275 0 1.315-.9 2.31-2zm3.628-4.75c1.243-1.586 1.208-1.621-.378-.378-1.666 1.307-2.195 2.128-1.372 2.128.207 0 .995-.787 1.75-1.75zM164 140.5c1.292-1.375 2.124-2.5 1.849-2.5-.275 0-1.557 1.125-2.849 2.5-1.292 1.375-2.124 2.5-1.849 2.5.275 0 1.557-1.125 2.849-2.5zm14.128-3.25c1.243-1.586 1.208-1.621-.378-.378-.963.755-1.75 1.543-1.75 1.75 0 .823.821.294 2.128-1.372zm-6.565-5.5l2.937-3.25-3.25 2.937c-3.03 2.738-3.71 3.563-2.937 3.563.172 0 1.635-1.462 3.25-3.25zm9.565 1.5c1.243-1.586 1.208-1.621-.378-.378-.963.755-1.75 1.543-1.75 1.75 0 .823.821.294 2.128-1.372zm3-4c1.243-1.586 1.208-1.621-.378-.378-.963.755-1.75 1.543-1.75 1.75 0 .823.821.294 2.128-1.372zm-6.565-4.5l2.937-3.25-3.25 2.937c-1.788 1.615-3.25 3.078-3.25 3.25 0 .773.825.092 3.563-2.937zm10.565-.5c1.243-1.586 1.208-1.621-.378-.378-1.666 1.307-2.195 2.128-1.372 2.128.207 0 .995-.787 1.75-1.75zm3-4c1.243-1.586 1.208-1.621-.378-.378-1.666 1.307-2.195 2.128-1.372 2.128.207 0 .995-.787 1.75-1.75zm3-4c1.243-1.586 1.208-1.621-.378-.378-1.666 1.307-2.195 2.128-1.372 2.128.207 0 .995-.787 1.75-1.75zM191.5 109c.995-1.1 1.585-2 1.31-2-.275 0-1.315.9-2.31 2-.995 1.1-1.585 2-1.31 2 .275 0 1.315-.9 2.31-2zm5.5-6.5c1.292-1.375 2.124-2.5 1.849-2.5-.275 0-1.557 1.125-2.849 2.5-1.292 1.375-2.124 2.5-1.849 2.5.275 0 1.557-1.125 2.849-2.5zm7.128.75c1.243-1.586 1.208-1.621-.378-.378-1.666 1.307-2.195 2.128-1.372 2.128.207 0 .995-.787 1.75-1.75zM61.466 144.624c-2.181-2.352-3.245-3.343-2.365-2.2 3.21 4.162 2.947 4.978-.416 1.294-1.899-2.08-3.392-4.544-3.319-5.476.074-.931-.406-1.705-1.066-1.718-1.75-.035-3.775-2.338-3.788-4.31-.007-.94-.574-1.766-1.262-1.836-.687-.07-1.587-.238-2-.371-.412-.134-1.164-.165-1.67-.069-.505.096-.354-.506.337-1.338.69-.832.928-2.095.528-2.806-1.321-2.352 5.629 5.381 18.39 20.462.817.966 1.286 1.956 1.041 2.201-.244.245-2.229-1.48-4.41-3.833zM54 135.622c0-.207-.787-.995-1.75-1.75-1.586-1.243-1.621-1.208-.378.378 1.307 1.666 2.128 2.195 2.128 1.372zm54.674-94.43c-2.414-2.667-1.733-17.944.885-19.858 2.999-2.193 7.064-1.629 9.368 1.3 2.142 2.723 2.756 6.826 1.168 7.807-.497.308-.662 2.37-.365 4.582.404 3.01.09 4.52-1.25 6-2.272 2.51-7.604 2.602-9.806.17zm8.454-1.942c1.193-1.522 1.177-1.601-.128-.608-.825.629-2.4 1.364-3.5 1.634-1.9.467-1.893.498.128.608 1.17.064 2.745-.672 3.5-1.634zm-6.783-.793c-.326-.849-.807-1.329-1.069-1.067-.262.262-.18.957.183 1.543.986 1.596 1.562 1.286.886-.476zm5.112-1.388c.74-1.197-1.141-2.382-2.473-1.559-1.119.691-.384 2.49 1.016 2.49.485 0 1.14-.419 1.457-.93zm1.625-3.916c-.687-1.283-.62-2.235.215-3.117.862-.91.564-.886-1.047.087-1.677 1.012-2.696 1.08-4 .265-1.468-.917-1.75-.737-1.75 1.112 0 1.842.286 2.026 1.734 1.122 1.336-.835 2.13-.686 3.464.648 2.223 2.222 2.618 2.19 1.384-.117zM116 27c0-1.442-2.827-1.893-3.348-.535-.283.737-.276 1.577.015 1.868.708.709 3.333-.341 3.333-1.333zM70.458 218.868c-.343-1.08-.072-2.628.602-3.44.674-.812.911-1.79.528-2.173s-1.146-.035-1.696.774c-.806 1.186-.938 1.084-.682-.527.174-1.1.986-2.043 1.803-2.098.818-.055 1.712-.206 1.987-.335 1.788-.845 12.966-3.13 15.14-3.096 1.545.025 2.9-.633 3.265-1.585.51-1.33.12-1.525-2.14-1.07-1.521.305-6.541-.174-11.157-1.065-6.354-1.228-8.505-2.054-8.857-3.401-.413-1.578-.635-1.61-1.957-.29-1.064 1.065-2.536 1.303-5.142.832-2.009-.363-3.349-.334-2.978.064s2.621.824 5 .946l4.326.223v4.436c0 3.726-.29 4.388-1.807 4.13-1.628-.276-1.604-.104.25 1.75 1.305 1.305 2.057 3.358 2.057 5.616 0 2.21.394 3.315 1.04 2.916.573-.354.76-1.527.418-2.607zM71 207.5c0-2.697.402-3.482 1.75-3.421 1.045.047 1.247.282.5.583-1.582.638-1.63 3.044-.073 3.564.647.215.846.928.441 1.583C72.222 212.068 71 210.99 71 207.5zm5.429-.573c0-1.06.353-1.927.785-1.927.432 0 .786.648.786 1.441s-.354 1.66-.786 1.927c-.432.267-.785-.382-.785-1.441zM57.25 211.26c-3.438-.196-9.063-.196-12.5 0-3.438.195-.625.355 6.25.355s9.688-.16 6.25-.355zm.993-1.512c3.158-.097 5.183-.433 4.5-.746-.684-.312-6.756-.329-13.495-.035-6.739.293-12.251.195-12.25-.217.001-.413 3.715-.782 8.252-.82 4.537-.039 9.024-.376 9.97-.75.945-.374-4.905-.627-13-.562l-14.72.118 13.17-.618c7.242-.34 13.542-1.008 14-1.485.467-.488-5.716-.587-14.17-.226-22.546.963-31.5 1.734-31.5 2.711 0 .845 14.689 1.51 22 .995 5.263-.37 2.453 1.678-3 2.187-3.84.358 7.267.155 30.243-.552zm36.603-3.2c.216-1.11-.074-1.525-.766-1.097-.612.378-.877 1.068-.59 1.533.287.465.058 1.075-.509 1.356-.567.28-.457.394.244.252.701-.142 1.43-1.061 1.621-2.043zm-33.434-1.153c1.63-.625 1.237-2.395-.53-2.395-.55 0-.746.412-.435.915.311.503 0 1.142-.69 1.42-.692.28-.956.543-.589.586.368.043 1.378-.193 2.244-.526zM39.5 203.008c4.185-.445.566-.542-9-.24-8.8.277-16.188.668-16.417.868-.71.62 18.032.157 25.417-.628z"/></svg>