<svg xmlns="http://www.w3.org/2000/svg" width="246" height="420" viewBox="0 0 246 420"><path d="M132.25 418.25c20.762-.15 54.737-.15 75.5 0 20.762.151 3.775.275-37.75.275s-58.513-.124-37.75-.275zM7.494 409.99c-.343-.554-.864-64.792-1.158-142.75C5.366 10.226 5.366 10.235 6.8 8.8c1.048-1.048 22.896-1.352 112.726-1.567l111.427-.267.668 2.66c.367 1.464.368 9.91 0 18.768-.662 15.99-.718 63.192-.326 271.576l.205 108.47-2.5 1.266c-3.218 1.628-220.503 1.907-221.506.285zm18.09-2.24c.412-.413-2.61-.75-6.717-.75-4.474 0-7.948-.481-8.667-1.2-.933-.933-1.2-.84-1.2.417 0 .889.548 1.799 1.218 2.022 2.092.698 14.577.3 15.366-.489zm13.081-.082c.368-.367-2.107-.668-5.498-.668-3.392 0-6.167.338-6.167.75 0 .922 10.736.847 11.665-.082zm11.252-.306c.229-.199-1.935-.362-4.81-.362-2.873 0-4.973.407-4.666.905.5.81 8.443.355 9.476-.543zm16.077.5c.003-.352-3.031-.611-6.744-.576-4.604.043-5.796.27-3.75.712 3.74.808 10.487.72 10.494-.137zm6.735.534c-.332-.332-1.195-.368-1.916-.079-.798.32-.561.556.604.604 1.054.044 1.644-.193 1.312-.525zm22-1c-.332-.332-1.195-.368-1.916-.079-.798.32-.561.556.604.604 1.054.044 1.644-.193 1.312-.525zm37.021-.14c-4.263-.187-11.238-.187-15.5 0-4.263.188-.775.342 7.75.342s12.012-.154 7.75-.341zm96.596-.006c.42-.679-46.902-.655-76.846.04-6.6.152 7.886.375 32.191.493 24.305.12 44.4-.12 44.655-.533zm-34.19-3.014l32.655-.29-.511-96.223c-.281-52.923-.645-96.367-.808-96.543-.164-.176-2.613.677-5.443 1.894-4.704 2.023-5.506 2.098-9.347.864-6.221-1.997-56.37-2.165-63.068-.211-3.456 1.008-5.63 1.136-7.5.442-1.449-.538-4.884-1.541-7.634-2.229-11.387-2.848-10.173-5.594 4.22-9.544 5.652-1.552 6.652-1.57 10.965-.192 3.815 1.217 9.954 1.479 31.28 1.333 23.042-.157 27.1-.419 30.824-1.983 4.198-1.764 4.405-1.757 9.839.322 3.052 1.168 5.749 2.124 5.991 2.124.243 0 .135-34.322-.24-76.271-.521-58.194-.377-80.487.609-94.06.998-13.752 1.021-18.06.102-18.98-1.8-1.798-211.993-1.032-213.88.78-.241.23-.495 169.693-.278 184.706l.068 4.676 6.029-2.363c5.55-2.175 6.302-2.248 9.468-.925 1.891.79 5.002 1.437 6.912 1.437 1.91 0 3.687.347 3.95.77.262.425 2.2.614 4.309.421 2.107-.193 4.845-.287 6.082-.209 1.238.079 5.288.136 9 .127 3.713-.01 8.1.009 9.75.039 8.504.156 11.414.055 15.874-.55 2.681-.364 5.689-1.097 6.684-1.63 2.747-1.47 5.105-1.2 13.952 1.595 10.587 3.344 10.435 4.846-.882 8.684-8.063 2.735-8.526 2.782-12.994 1.315-6.872-2.256-54.562-2.079-61.387.228-4.536 1.534-5.025 1.509-10.75-.551L12 211.08l-.01 4.21c-.287 118.508.181 188.2 1.27 188.89 1.138.72 102.392.752 180.895.056zm-78.18-58.801c-.537-1.41-.976-2.972-.976-3.47 0-.497-.977-2.778-2.171-5.07-2.003-3.842-2.068-4.522-.832-8.78 1.377-4.746 1.67-7.263 2.609-22.473.359-5.806.134-9.855-.651-11.751-.866-2.091-.897-3.255-.112-4.202.724-.872 1.015-8.554.872-23-.118-11.93.122-21.802.534-21.94.412-.137-.15-2.616-1.25-5.51-2.614-6.879-2.539-8.368.894-17.795 3.893-10.688 5.288-10.762 8.544-.454 2.957 9.359 3.086 11.275 1.14 16.794-.784 2.22-1.18 4.28-.88 4.579.298.299.255 2.08-.098 3.958-.511 2.727-1.09 3.391-2.87 3.297-2.127-.113-2.237.27-2.402 8.382-.114 5.594.108 7.645.65 6l.824-2.5.1 2.441c.093 2.284.185 2.324 1.432.618 1.177-1.609 1.36-1.631 1.556-.191.318 2.338.186 6.148-.487 14.082-.375 4.417-.137 8.322.653 10.717.982 2.974.986 4.079.02 5.244-1.653 1.99-.212 26.468 1.882 31.975 1.586 4.172 1.315 6.474-1.693 14.352-2.998 7.85-5.481 9.45-7.289 4.697zm6.014-5.935c.002-.55-.896.473-1.994 2.274-2.588 4.246-2.585 5.636.004 1.726 1.093-1.65 1.988-3.45 1.99-4zm-3.44-.323c-.852-.178-1.55-.767-1.55-1.31 0-.541-.45-.707-1-.367-.55.34-1 .067-1-.608 0-.674-.258-.967-.574-.652-.315.316.19 2.052 1.124 3.858 1.63 3.152 1.755 3.205 3.124 1.342 1.247-1.696 1.232-1.98-.124-2.263zm-.59-6.725c-.663-.799-2.162-1.407-3.332-1.352-1.878.088-1.834.18.372.79 1.607.445 2.65 1.57 2.919 3.151.322 1.896.513 2.047.832.661.228-.989-.128-2.451-.79-3.25zm4.232.76c-1.206-.801-2.192-2.151-2.192-3 0-.85-.3-1.245-.668-.877-1.074 1.073 1.674 5.332 3.44 5.332 1.217 0 1.075-.357-.58-1.456zm-6.638-4.3c.37-.597.144-1.61-.5-2.25-.895-.886-1-.708-.443.752.509 1.336.375 1.696-.441 1.191-.644-.398-1.17-.246-1.17.336 0 1.383 1.693 1.364 2.554-.028zm7.843.255c.283-.459-.12-.834-.897-.834s-1.18.375-.897.834c.283.458.687.833.897.833.21 0 .614-.375.897-.833zm-4.714-3.354c-.32-.798-.556-.561-.604.604-.043 1.054.193 1.644.525 1.312.332-.332.368-1.195.08-1.916zm-2.095-3.558c-1.075-1.075-1.646.43-.891 2.352.708 1.802.762 1.805 1.112.065.202-1.006.103-2.093-.22-2.417zm4.334-8.637c-.926-.852-1.016-.761-.377.382.746 1.333.634 1.333-1.007 0-2.102-1.709-2.484-1.691-3.66.165-1.375 2.168-1 4.835.681 4.835.857 0 1.3.418.985.929-.315.51.446 1.073 1.691 1.25 1.922.272 2.313-.191 2.583-3.06.175-1.86-.228-3.886-.896-4.5zM117 316.941c0-.582.45-.78 1-.441.55.34 1 .816 1 1.059s-.45.441-1 .441-1-.477-1-1.059zM119.036 293c1.842 0 1.952-.667 1.77-10.75l-.193-10.75-.557 9.759c-.311 5.468-.996 9.759-1.556 9.759s-1.245-4.29-1.556-9.76c-.37-6.488-.551-2.889-.541 10.742.009 11.275.163 16.113.342 10.75.3-8.912.496-9.75 2.291-9.75zm1.699 5.25c-.206-2.612-.375-.475-.375 4.75s.169 7.362.375 4.75.206-6.888 0-9.5zm-2.003.5c-.21-2.337-.383-.425-.383 4.25s.173 6.588.383 4.25c.21-2.337.21-6.162 0-8.5zm0-23.03c-.21-2.321-.38-.17-.377 4.78.003 4.95.175 6.849.382 4.22.206-2.63.204-6.68-.006-9zm.268-7.22c.825 0 1.872.45 2.326 1 .494.597.664.396.423-.5-.222-.825-1.606-1.642-3.076-1.816-2.235-.265-2.661.063-2.603 2 .05 1.648.267 1.884.75.816.374-.825 1.355-1.5 2.18-1.5zm-2.27-15.78c-.209-2.321-.378-.17-.375 4.78.003 4.95.175 6.849.381 4.22.207-2.63.204-6.68-.006-9zm4.07-5.92c1.457-1.457 1.608-4.17.184-3.29-.56.346-.777 1.016-.484 1.49a1.026 1.026 0 0 1-.346 1.405c-.942.582-.894-1.944.083-4.405 3.878-9.766 3.904-10.095 1.396-17.893l-2.377-7.393-1.681 5.393c-.925 2.966-2.058 6.094-2.517 6.952-1.2 2.236 1.943 11.923 3.896 12.011 1.352.062 1.358.156.046.75-1.943.88-2.575 6.18-.738 6.18.736 0 1.878-.54 2.538-1.2zm76.908 64.917c-5.589-3.47-6.722-4.61-6.395-6.437.22-1.22.003-1.976-.478-1.678-.482.298-1.516-.989-2.298-2.86-.782-1.87-2.122-3.983-2.98-4.694-.856-.711-1.557-1.968-1.557-2.793 0-1.863-9.514-13.707-12.674-15.777-1.28-.838-2.326-2.159-2.326-2.935 0-1.664-9.074-13.206-11.985-15.245-1.108-.776-2.015-1.84-2.015-2.365 0-.937-10.631-14.482-14.457-18.42-1.077-1.107-3.918-3.363-6.316-5.013-3.595-2.475-4.872-4.282-7.292-10.317-3.11-7.754-3.73-12.183-1.708-12.183.675 0 4.721 2.112 8.991 4.694 6.836 4.132 7.965 5.238 9.44 9.25.921 2.506 2.5 5.485 3.509 6.62 1.008 1.136 1.833 2.452 1.833 2.924 0 1.148 11.89 15.66 14.188 17.319.997.718 1.812 1.765 1.812 2.326 0 1.603 8.9 12.755 11.582 14.513 1.33.871 2.418 2.054 2.418 2.628 0 2.778 15.216 20.088 21.5 24.459 2.257 1.57 3.698 4.085 5.819 10.16 4.079 11.684 2.524 12.736-8.611 5.824zm6.668-.487c-1.582-1.523-3.06-2.652-3.284-2.509-.224.144-1.037-.26-1.806-.899-1.092-.906-1.332-.85-1.092.259.168.78 2.106 2.411 4.306 3.624 5.18 2.855 5.301 2.825 1.876-.475zm1.124-1.995c-.55-.404-1.045-1.298-1.1-1.985-.232-2.906-.451-3.336-1.4-2.75-.55.34-1 .067-1-.608 0-.674-.236-.99-.524-.702-.94.942.705 3.816 1.799 3.14.654-.404.833-.054.464.908-.657 1.713-.011 2.77 1.678 2.747.702-.01.732-.274.083-.75zm-8.833-1.691c0-.8-.344-1.243-.765-.984-.42.26-1.026.048-1.347-.472-.321-.52.334-1.236 1.457-1.592 1.123-.356 2.771-1.762 3.663-3.123 1.323-2.019 1.383-2.697.327-3.674-1.008-.933-1.144-.93-.615.01.374.665.106 2.13-.596 3.254-1.276 2.043-1.278 2.043-3.101-.21-1.739-2.147-1.775-2.153-.778-.108.802 1.645.695 2.436-.458 3.393-1.333 1.107-1.313 1.46.176 3.105 2.02 2.233 2.037 2.236 2.037.401zm-4.072-6.699c.475-.768.27-.88-.61-.335-.996.615-1.144.343-.596-1.096.557-1.46.452-1.638-.443-.751-.644.64-.87 1.652-.5 2.25.853 1.38 1.263 1.368 2.15-.068zm5.006-3.355c-.122-.83-.725-2.015-1.342-2.63-1.297-1.298-1.24.779.078 2.89 1.048 1.677 1.534 1.577 1.264-.26zm-4.345-2.238c-.63-.21-.894-1.033-.588-1.83.769-2.003-1.473-4.434-3.405-3.693-1.178.452-1.369.242-.735-.81.738-1.223.616-1.224-.884-.006-.957.777-1.606 2.34-1.442 3.475.345 2.389 4.366 4.715 6.64 3.843.944-.363 1.107-.748.414-.979zm-4.983-2.282c-.111-1.472.345-1.998 1.534-1.769 2.113.407 2.235 3.167.158 3.567-.95.183-1.595-.5-1.692-1.798zm-4.654-8.403c-3.214-4.214-3.376-5.518-.369-2.972l2.25 1.905-1.91-2.256c-1.051-1.241-2.143-2.024-2.426-1.741-.284.283-1.646-.501-3.028-1.744-1.525-1.372-1.063-.45 1.176 2.344 4.152 5.182 4.813 7.16 1.438 4.302l-2.25-1.905 1.884 2.226c1.036 1.225 2.242 2.005 2.68 1.734.439-.27 1.08-.035 1.426.524.345.559.88 1.016 1.188 1.016.308 0-.619-1.545-2.06-3.433zm4.381 2.055c0-.207-.787-.995-1.75-1.75-1.586-1.243-1.621-1.208-.378.378 1.307 1.666 2.128 2.195 2.128 1.372zm-9-4.967c0-.19-1.012-1.202-2.25-2.25l-2.25-1.905 1.905 2.25c1.79 2.114 2.595 2.705 2.595 1.905zm-.13-6.616c-1.203-1.628-2.636-2.684-3.184-2.345-.547.338-.705.146-.352-.426.354-.573.01-1.568-.766-2.212-1.153-.956-1.312-.794-.873.887.391 1.494.062 2.057-1.2 2.057-1.44 0-1.523.261-.485 1.512.98 1.181 1.567 1.254 2.677.333 1.127-.935 1.872-.73 3.59.987 2.984 2.985 3.187 2.714.594-.793zm-7.87-3.384c0-.19-1.012-1.202-2.25-2.25l-2.25-1.905 1.905 2.25c1.79 2.114 2.595 2.705 2.595 1.905zm1-2c0-.19-1.012-1.202-2.25-2.25l-2.25-1.905 1.905 2.25c1.79 2.114 2.595 2.705 2.595 1.905zm-5-3c0-.19-1.012-1.202-2.25-2.25l-2.25-1.905 1.905 2.25c1.79 2.114 2.595 2.705 2.595 1.905zm5-.033c0-.207-.787-.995-1.75-1.75-1.586-1.243-1.621-1.208-.378.378 1.307 1.666 2.128 2.195 2.128 1.372zm-5-3c0-.207-.787-.995-1.75-1.75-1.586-1.243-1.621-1.208-.378.378 1.307 1.666 2.128 2.195 2.128 1.372zm1-2c0-.207-.787-.995-1.75-1.75-1.586-1.243-1.621-1.208-.378.378 1.307 1.666 2.128 2.195 2.128 1.372zm-7.09-2.23c-1.128-1.36-1.07-1.802.38-2.862 1.576-1.152 1.465-1.528-1.371-4.642-2.41-2.646-2.728-2.808-1.453-.738 2.005 3.254.144 4.51-2.916 1.97-1.073-.891-.231.517 1.87 3.13 2.102 2.612 4.047 4.75 4.323 4.75.276 0-.099-.724-.833-1.608zM155 249c-1.742-2.2-3.393-4-3.668-4-.275 0 .926 1.8 2.668 4s3.393 4 3.668 4c.275 0-.926-1.8-2.668-4zm-2 .622c0-.207-.787-.995-1.75-1.75-1.586-1.243-1.621-1.208-.378.378 1.307 1.666 2.128 2.195 2.128 1.372zm4-1.967c0-.19-1.012-1.202-2.25-2.25l-2.25-1.905 1.905 2.25c1.79 2.114 2.595 2.705 2.595 1.905zm-7-2c0-.19-1.012-1.202-2.25-2.25l-2.25-1.905 1.905 2.25c1.79 2.114 2.595 2.705 2.595 1.905zm1-2.033c0-.207-.787-.995-1.75-1.75-1.586-1.243-1.621-1.208-.378.378 1.307 1.666 2.128 2.195 2.128 1.372zm2-.967c0-.19-1.012-1.202-2.25-2.25l-2.25-1.905 1.905 2.25c1.79 2.114 2.595 2.705 2.595 1.905zm-8.452-5.405c-.534-1.403-.417-1.502.593-.5.692.688 1.619 1.25 2.059 1.25 1.603 0 .733-2-2.157-4.956-1.626-1.664-3.482-4.778-4.124-6.92-.838-2.796-2.19-4.486-4.793-5.99a178.64 178.64 0 0 1-6.787-4.156l-3.161-2.062 2.731 7.02c2.17 5.577 3.585 7.639 6.877 10.024 2.353 1.705 4.81 2.749 5.68 2.415 1.113-.428 1.53.057 1.519 1.768-.013 1.889-.208 2.059-.985.857-.593-.918-.975-1.034-.985-.3-.008.66.772 1.66 1.735 2.22 2.4 1.397 2.562 1.337 1.798-.67zm-114.17 76.292c-.308-.802.699-5.086 2.237-9.52 2.409-6.944 3.312-8.371 6.514-10.292 4.4-2.639 18.198-17.833 20.415-22.48.852-1.788 1.973-3.25 2.49-3.25C63.35 268 75 253.174 75 251.502c0-.752.787-1.64 1.75-1.971 3.02-1.043 14.337-16.498 18.603-25.407 1.706-3.562 3.586-5.366 9.147-8.777 3.85-2.36 7.622-4.304 8.382-4.32 1.897-.037 1.009 6.127-1.758 12.2-1.168 2.565-2.124 5.126-2.124 5.692 0 .567-1.338 1.721-2.973 2.567-1.635.846-4.836 3.42-7.114 5.72C93.531 242.642 84 254.449 84 255.68c0 .528-1.012 1.846-2.25 2.93-1.238 1.083-4.5 4.836-7.25 8.339s-6.074 7.505-7.388 8.893c-5.32 5.624-11.207 13.449-12.567 16.704-.794 1.9-1.87 3.454-2.394 3.454-.522 0-1.775 2.294-2.784 5.099-1.388 3.86-2.687 5.572-5.35 7.052a270.51 270.51 0 0 0-7.517 4.385c-4.683 2.846-5.373 2.96-6.122 1.006zm9.21-5.934c.13-.89-.181-1.36-.692-1.044-.51.316-.622 1.07-.248 1.675.422.684.113.883-.817.526-.878-.337-1.498-.011-1.498.787 0 1.907 2.947.146 3.254-1.944zm-2.16-1.68c2.962-2.694 5.783-7.794 3.548-6.413-1.454.899-2.203-1.537-.94-3.059 1.73-2.084 3.48-1.807 1.854.294-1.291 1.667-1.257 1.667.706 0 1.879-1.595 4.404-2.358 4.404-1.332 0 .23.301 1.204.67 2.164.457 1.19.298 1.516-.5 1.023-.644-.398-1.17-.273-1.17.277s.403 1.249.895 1.553c1.426.881 2.2-2.39 1.066-4.507-.986-1.844-.325-2.446 2.26-2.056.395.06 1.239-.9 1.874-2.132.635-1.232 2.111-3.351 3.28-4.71 1.385-1.61 1.516-2.002.375-1.127-.963.738-1.75.907-1.75.374 0-1.26 3.51-4.434 4.17-3.773.28.28 1.369-.5 2.42-1.73 1.546-1.813 1.577-1.981.16-.884-.963.745-1.75.99-1.75.545 0-.445-1.362.495-3.026 2.09-1.664 1.594-2.797 3.494-2.518 4.222.36.935-.293 1.24-2.224 1.038-2.318-.242-2.877.207-3.689 2.965-.526 1.788-1.34 3.25-1.809 3.25-.469 0-.55-.487-.183-1.083 1.036-1.675-4.83 1.629-6.847 3.857-1.57 1.735-1.6 2.052-.247 2.571 2.125.816 1.932 2.993-.457 5.155-1.1.995-2 1.317-2 .714s.45-1.374 1-1.714c.55-.34 1-1.041 1-1.559s-.829-.153-1.841.809c-1.013.963-1.68 2.056-1.484 2.43.197.375-.1.964-.659 1.31-1.053.65-1.416 2.51-.49 2.51.29 0 2.046-1.382 3.903-3.072zM45 305.68c0-.138-.825-.25-1.833-.25-1.009 0-1.834.554-1.834 1.231 0 .885.517.955 1.834.25 1.008-.539 1.833-1.093 1.833-1.23zm.958-4.757c-.612-1.143-.842-2.782-.512-3.642.493-1.286.335-1.343-.891-.326-1.768 1.468-1.617 3.081.445 4.76 2.09 1.703 2.231 1.587.958-.792zM54.5 282c.995-1.1 1.585-2 1.31-2-.275 0-1.315.9-2.31 2-.995 1.1-1.585 2-1.31 2 .275 0 1.315-.9 2.31-2zm9.506-7.99c.575.93 1.206 1.107 1.71.482.44-.546 2.146-2.565 3.792-4.488 2.498-2.92 2.569-3.126.428-1.25-2.928 2.564-5.432 2.98-4.58.76.477-1.242.249-1.284-1.393-.259-1.08.674-1.963 1.656-1.963 2.18 0 .526-1.238 2.33-2.75 4.01L56.5 278.5l3.297-2.982c2.738-2.477 3.452-2.733 4.209-1.509zm-.549 3.06c.317-.513.193-1.168-.274-1.457-.467-.289-.85.13-.85.931 0 1.686.316 1.833 1.124.525zM70 266.5c1.292-1.375 2.124-2.5 1.849-2.5-.275 0-1.557 1.125-2.849 2.5-1.292 1.375-2.124 2.5-1.849 2.5.275 0 1.557-1.125 2.849-2.5zm-1.5-1.5c.995-1.1 1.585-2 1.31-2-.275 0-1.315.9-2.31 2-.995 1.1-1.585 2-1.31 2 .275 0 1.315-.9 2.31-2zm6.628-1.75c1.243-1.586 1.208-1.621-.378-.378-.963.755-1.75 1.543-1.75 1.75 0 .823.821.294 2.128-1.372zm2.054-3.735c.293.293 1.16-.265 1.925-1.24 1.237-1.576 1.214-1.636-.199-.534-.876.683-1.811 1.022-2.08.754-.267-.268-1.576.749-2.907 2.259L71.5 263.5l2.574-2.26c1.416-1.242 2.814-2.018 3.108-1.725zM72.5 260c.995-1.1 1.585-2 1.31-2-.275 0-1.315.9-2.31 2-.995 1.1-1.585 2-1.31 2 .275 0 1.315-.9 2.31-2zm6.662-4.93c1.234.691 1.606.552 1.445-.54-.119-.81-.533-1.79-.92-2.177-.388-.387.311-1.85 1.554-3.249 1.3-1.465 1.5-1.96.471-1.17-.983.756-3.214 3.217-4.957 5.47-1.743 2.253-2.288 3.34-1.212 2.417 1.374-1.178 2.454-1.402 3.62-.75zm4.966-2.82c1.243-1.586 1.208-1.621-.378-.378-.963.755-1.75 1.543-1.75 1.75 0 .823.821.294 2.128-1.372zm-1-2c1.243-1.586 1.208-1.621-.378-.378-.963.755-1.75 1.543-1.75 1.75 0 .823.821.294 2.128-1.372zm4-2c1.243-1.586 1.208-1.621-.378-.378-.963.755-1.75 1.543-1.75 1.75 0 .823.821.294 2.128-1.372zM86.5 246c.995-1.1 1.585-2 1.31-2-.275 0-1.315.9-2.31 2-.995 1.1-1.585 2-1.31 2 .275 0 1.315-.9 2.31-2zm-1-2c.995-1.1 1.585-2 1.31-2-.275 0-1.315.9-2.31 2-.995 1.1-1.585 2-1.31 2 .275 0 1.315-.9 2.31-2zm5.628-.75c1.243-1.586 1.208-1.621-.378-.378-.963.755-1.75 1.543-1.75 1.75 0 .823.821.294 2.128-1.372zm-1-2c1.243-1.586 1.208-1.621-.378-.378-.963.755-1.75 1.543-1.75 1.75 0 .823.821.294 2.128-1.372zm2.457-3.112c.565.914 1.165.427 2.06-1.675 1.21-2.836 1.267-2.858 1.31-.513.034 1.856.326 2.17 1.203 1.292.876-.876.849-1.529-.114-2.689-.699-.842-1.67-1.284-2.157-.983-.488.301-.887.016-.887-.633 0-.88-.382-.865-1.5.063-.825.685-1.5 1.723-1.5 2.308 0 .585-1.012 2.217-2.25 3.628L86.5 241.5l2.645-2.325c2.025-1.78 2.83-2.024 3.44-1.037zm-.02-2.431c.375-.986.934-1.541 1.242-1.233.308.307 0 1.114-.683 1.793-.988.98-1.102.865-.56-.56zm12.451-7.03c.834-.648 2.684-4.158 4.111-7.802l2.595-6.624-5.81 3.461c-6.792 4.046-7.25 4.543-8.898 9.657-1.981 6.145 1.113 6.65 8.002 1.307zm-.796-28.857c-5.681-3.136-7.729-4.897-9.319-8.014-2.232-4.374-12.287-17.156-18.038-22.93-2-2.007-4.048-4.384-4.55-5.282-.502-.897-3.888-4.885-7.524-8.862-3.636-3.978-8.38-9.482-10.544-12.232-5.446-6.923-9.855-11.5-11.079-11.5-.567 0-1.309-.875-1.649-1.945-.339-1.07-2.736-3.249-5.326-4.843-4.121-2.535-4.992-3.7-6.96-9.305C26.645 107.55 26.38 104 28.411 104c.777 0 4.505 1.783 8.286 3.963 5.642 3.253 7.112 4.641 8.205 7.75.732 2.083 2.424 4.912 3.76 6.287 1.336 1.375 5.096 5.965 8.356 10.2 3.259 4.235 6.838 8.188 7.953 8.785 1.116.597 2.028 1.54 2.028 2.094 0 1.574 10.007 13.278 12.52 14.642 1.237.672 2.51 2.247 2.828 3.5.814 3.197 16.667 19.236 21.4 21.65 3.357 1.713 4.376 3.085 7.086 9.542 3.357 7.997 3.963 11.638 1.916 11.507-.687-.044-4.526-1.89-8.53-4.1zm6.424-1.07c-.772-1.238-2.179-4.35-3.127-6.916-1.382-3.738-2.593-5.127-6.09-6.982-5.952-3.158-7.335-1.763-4.414 4.453 1.7 3.615 3.229 5.127 7.318 7.238 2.843 1.467 5.596 3.07 6.119 3.562 1.595 1.503 1.666 1.007.194-1.355zM95.44 182.468c1.068-.807 1.405-1.468.75-1.468s-1.079-.563-.941-1.25c.158-.79-.92-1.25-2.93-1.25-2.145 0-4.24-.977-6.434-3-1.855-1.712-1.134-.536 1.68 2.737 2.714 3.156 5.159 5.73 5.434 5.719.275-.01 1.374-.68 2.441-1.488zM89 175.674c0-.179-1.238-1.416-2.75-2.75L83.5 170.5l2.424 2.75c2.266 2.57 3.076 3.209 3.076 2.424zm2-1c0-.179-1.238-1.416-2.75-2.75L85.5 169.5l2.424 2.75c2.266 2.57 3.076 3.209 3.076 2.424zm-9-4.019c0-.19-1.012-1.202-2.25-2.25L77.5 166.5l1.905 2.25c1.79 2.114 2.595 2.705 2.595 1.905zm2-.98c0-.18-1.238-1.417-2.75-2.75L78.5 164.5l2.424 2.75c2.266 2.57 3.076 3.209 3.076 2.424zm1-2.02c0-.19-1.012-1.202-2.25-2.25L80.5 163.5l1.905 2.25c1.79 2.114 2.595 2.705 2.595 1.905zm-6.495-3.67c.351-1.108 1.051-1.76 1.556-1.448 2.253 1.393-.52-2.285-3.38-4.48l-3.181-2.444 2.4 2.667c2.146 2.386 2.22 2.737.699 3.32-1.075.413-2.67-.221-4.334-1.723-1.947-1.758-1.738-1.274.801 1.855 3.901 4.808 4.543 5.074 5.439 2.253zM75 159.622c0-.207-.787-.995-1.75-1.75-1.586-1.243-1.621-1.208-.378.378 1.307 1.666 2.128 2.195 2.128 1.372zm-6-3.948c0-.179-1.238-1.416-2.75-2.75L63.5 150.5l2.424 2.75c2.266 2.57 3.076 3.209 3.076 2.424zm-.662-4.174c-3.681-4.404-4.338-5.01-4.338-4.003 0 .638 7.09 8.503 7.666 8.503.239 0-1.26-2.025-3.328-4.5zM72 152.655c0-.19-1.012-1.202-2.25-2.25L67.5 148.5l1.905 2.25c1.79 2.114 2.595 2.705 2.595 1.905zm-9.899-5.033c-.896-1.08-.724-1.487.794-1.884 1.065-.279 2.53.004 3.256.628.725.624.24-.098-1.08-1.605-2.372-2.709-2.414-2.716-3.822-.707-1.122 1.602-1.167 2.34-.213 3.489.665.801 1.434 1.457 1.709 1.457.275 0-.015-.62-.644-1.378zm-5.552-9.405l-3.852-3.717 3.392 4.177c1.865 2.297 3.598 3.97 3.851 3.716.253-.253-1.273-2.132-3.391-4.176zm.451 3.47c0-.172-1.462-1.635-3.25-3.25L50.5 135.5l2.937 3.25c2.738 3.03 3.563 3.71 3.563 2.937zm5-1c0-.172-1.462-1.635-3.25-3.25L55.5 134.5l2.937 3.25c2.738 3.03 3.563 3.71 3.563 2.937zm-12.345-7.516c-3.69-4.077-.987-5.663 3.28-1.925 2.392 2.095 2.38 2.04-.185-.804-1.512-1.678-2.75-3.517-2.75-4.086 0-1.835-5.038-3.57-6.6-2.272-1.565 1.298-.838 3.305.824 2.278.652-.403.797-.205.363.498-.417.674.67 2.644 2.565 4.654 3.351 3.553 5.515 4.986 2.503 1.657zm3.345.451c0-.207-.787-.995-1.75-1.75-1.586-1.243-1.621-1.208-.378.378 1.307 1.666 2.128 2.195 2.128 1.372zm-12.333-10.078c0-.8-.445-1.181-.988-.846-.554.343-.673.102-.272-.547.413-.669 1.747-.9 3.154-.546 1.882.472 2.439.216 2.439-1.119 0-1.35-.3-1.482-1.367-.596-1.853 1.538-4.068-1.12-3.319-3.984.43-1.645.167-2.003-1.21-1.643-.97.253-2.602-.154-3.63-.905-1.55-1.135-1.64-1.576-.524-2.612 1.055-.978 1.193-.98.645-.008-.485.86-.174 1.037 1.017.58 1.033-.396 1.47-.259 1.096.345-.341.552.015 1.003.792 1.003s1.178-.378.893-.84c-.815-1.318-6.515-4.038-7.144-3.409-.31.311-1.281.02-2.157-.646-.876-.666-.503.011.829 1.505 1.33 1.494 2.118 3.018 1.75 3.386-.37.37-.671.056-.671-.695 0-.97-.31-1.056-1.068-.299-1.335 1.335.91 7.142 3.605 9.332 1.016.825 1.565 1.029 1.22.452-.343-.576-.212-1.701.294-2.5.762-1.204.921-1.154.934.298.008.962-.098 1.956-.235 2.207-.18.33 2.905 3.157 3.833 3.511.046.018.084-.623.084-1.424zm-8.287-6.996c-1.077-2.806.625-3.658 3.689-1.848 3.256 1.923 4.094 3.993.931 2.3-1.356-.726-2-.737-2-.035 0 1.558-1.983 1.243-2.62-.417zm10.76-.798c-1.01-1.003-1.114-.871-.53.664.549 1.439.401 1.71-.595 1.096-.914-.566-1.086-.435-.557.423.553.894 1.072.937 1.855.154.783-.783.735-1.437-.172-2.337zM123 202.918c0-.596 1.35-4.159 3-7.918 1.65-3.76 3-7.317 3-7.905 0-.588 1.913-2.26 4.25-3.713 5.357-3.331 21.614-20.13 22.387-23.132.32-1.238 1.143-2.25 1.83-2.25 1.191 0 10.345-9.762 13.533-14.431.825-1.208 4.103-4.908 7.284-8.222 3.182-3.314 6.557-7.046 7.5-8.295.944-1.248 2.893-3.683 4.331-5.41 1.439-1.728 3.567-5.018 4.729-7.31 1.7-3.352 3.594-4.986 9.674-8.342 4.159-2.295 8.197-3.93 8.974-3.632 1.984.762 1.039 5.227-3.005 14.193-1.825 4.047-3.105 5.424-6.441 6.928-2.29 1.033-5.068 3.148-6.173 4.7-1.105 1.551-2.6 2.821-3.324 2.821-1.585 0-12.388 12.447-13.624 15.696-.481 1.267-1.503 2.304-2.27 2.304-1.533 0-12.724 12.955-13.872 16.059-.395 1.067-1.216 1.941-1.824 1.941-1.42 0-10.786 10.208-13.672 14.901-1.217 1.98-3.395 5.849-4.84 8.599-2.282 4.343-3.666 5.558-10.539 9.25-7.997 4.296-10.908 5.141-10.908 3.168zm19.325-15.125c1.554-3.2 3.245-5.559 3.757-5.242.513.317 1.219-.24 1.57-1.238.35-.997 2.035-3.387 3.743-5.31l3.105-3.499-3.214 2.9c-2.547 2.3-3.506 2.659-4.62 1.733-1.101-.913-1.925-.736-3.787.815-1.341 1.117-1.808 1.996-1.07 2.015.72.018 1.055.445.744.948-.311.503 0 1.166.69 1.474.692.308.357.472-.743.365-2.153-.21-10.5 4.094-10.5 5.414 0 .44-1.283 3.45-2.852 6.688l-2.852 5.888 6.602-3.566c5.88-3.177 6.91-4.203 9.427-9.385zM151 173.5c1.292-1.375 2.124-2.5 1.849-2.5-.275 0-1.557 1.125-2.849 2.5-1.292 1.375-2.124 2.5-1.849 2.5.275 0 1.557-1.125 2.849-2.5zm-1-2c1.292-1.375 2.124-2.5 1.849-2.5-.275 0-1.557 1.125-2.849 2.5-1.292 1.375-2.124 2.5-1.849 2.5.275 0 1.557-1.125 2.849-2.5zm7.563-2.75l2.937-3.25-3.25 2.937c-3.03 2.738-3.71 3.563-2.937 3.563.172 0 1.635-1.462 3.25-3.25zM156 167.5c1.292-1.375 2.124-2.5 1.849-2.5-.275 0-1.557 1.125-2.849 2.5-1.292 1.375-2.124 2.5-1.849 2.5.275 0 1.557-1.125 2.849-2.5zm2.814-4.5c.653 0 1.186.45 1.186 1s.675 1 1.5 1 1.5-.541 1.5-1.202c0-.662 1.462-2.798 3.25-4.748 3.201-3.492 3.204-3.504.195-.798-3.272 2.944-5.396 3.52-5.524 1.498-.063-.993-.183-.992-.585.006-.279.69-.806 1.096-1.171.9-.366-.197-1.997 1.263-3.625 3.243-2.496 3.036-2.564 3.248-.435 1.35 1.388-1.237 3.057-2.25 3.71-2.25zm7.749-7.25l2.937-3.25-3.25 2.937c-3.03 2.738-3.71 3.563-2.937 3.563.172 0 1.635-1.462 3.25-3.25zm-1-2l2.937-3.25-3.25 2.937c-3.03 2.738-3.71 3.563-2.937 3.563.172 0 1.635-1.462 3.25-3.25zm8-3l2.937-3.25-3.25 2.937c-3.03 2.738-3.71 3.563-2.937 3.563.172 0 1.635-1.462 3.25-3.25zM172 149.5c1.292-1.375 2.124-2.5 1.849-2.5-.275 0-1.557 1.125-2.849 2.5-1.292 1.375-2.124 2.5-1.849 2.5.275 0 1.557-1.125 2.849-2.5zm3.772-4.267c1.483-.073 2.04.3 1.603 1.078-.5.889-.34.884.636-.019 1.06-.982 1.065-1.495.024-2.75-1.887-2.273-3.202-1.811-6.495 2.28-2.516 3.127-2.59 3.366-.5 1.6 1.353-1.143 3.482-2.128 4.732-2.19zM182.5 141c.995-1.1 1.585-2 1.31-2-.275 0-1.315.9-2.31 2-.995 1.1-1.585 2-1.31 2 .275 0 1.315-.9 2.31-2zm-.937-2.25l2.937-3.25-3.25 2.937c-1.788 1.615-3.25 3.078-3.25 3.25 0 .773.825.092 3.563-2.937zM180 137.5c1.292-1.375 2.124-2.5 1.849-2.5-.275 0-1.557 1.125-2.849 2.5-1.292 1.375-2.124 2.5-1.849 2.5.275 0 1.557-1.125 2.849-2.5zm8-3c1.292-1.375 2.124-2.5 1.849-2.5-.275 0-1.557 1.125-2.849 2.5-1.292 1.375-2.124 2.5-1.849 2.5.275 0 1.557-1.125 2.849-2.5zm-1-2c1.292-1.375 2.124-2.5 1.849-2.5-.275 0-1.557 1.125-2.849 2.5-1.292 1.375-2.124 2.5-1.849 2.5.275 0 1.557-1.125 2.849-2.5zm-.5-2.5c.995-1.1 1.585-2 1.31-2-.275 0-1.315.9-2.31 2-.995 1.1-1.585 2-1.31 2 .275 0 1.315-.9 2.31-2zm9.5-2.88c0-.85-5.852-.602-6.739.285-.327.327-.021.595.68.595.7 0 1.034.624.741 1.386-.442 1.152-.04 1.14 2.393-.073 1.609-.803 2.925-1.79 2.925-2.194zm-.101-3.742c-1.574-1.897-2.47-1.725-2.47.472 0 1.292.545 1.708 1.806 1.378 1.41-.368 1.556-.775.664-1.85zm-3.899.063c0-.857-.45-1.28-1-.941-.55.34-1 1.041-1 1.559s.45.941 1 .941 1-.702 1-1.559zm10.24-1.065c2.812-1.454 2.966-1.753 1.466-2.849-.921-.674-1.386-1.514-1.032-1.867.353-.354 1.246-.141 1.984.471 1.86 1.543 1.689.359-.224-1.554-1.42-1.42-1.326-1.546 1.023-1.351 1.693.14 2.411.675 2.077 1.546-.281.732-.096 1.075.412.761 1.214-.75 4.347-11.574 3.574-12.347-.33-.33-.882.483-1.228 1.804-.59 2.254-.68 2.282-1.475.456-.66-1.515-.735-1.359-.337.708.436 2.27.04 2.834-2.735 3.899-3.352 1.285-4.302 1.608-5.367 1.822-.343.069-.143.703.443 1.409 1.703 2.053.313 6.716-2.002 6.716-.671 0-.604-.554.181-1.5.718-.865.815-1.5.23-1.5-1.263 0-2.434 2.861-1.674 4.09.751 1.216 1.036 1.172 4.684-.714zm-.507-1.5c.679-.684 1.486-.99 1.793-.683.308.308-.247.867-1.233 1.243-1.425.542-1.54.428-.56-.56zm4.552-7.23c.531-1.594 2.382-1.859 2.382-.34 0 .748-.613 1.36-1.361 1.36-.75 0-1.208-.459-1.021-1.02zm-6.927 2.461c-.17-.215-1.08.235-2.021 1-1.53 1.245-1.632 1.18-.965-.607.539-1.443.442-1.698-.346-.917-.6.595-.817 1.798-.481 2.672.552 1.44.776 1.432 2.366-.082.965-.92 1.617-1.85 1.447-2.066zm5.206-6.342c.138-.94-.283-1.426-.996-1.153-1.46.56-1.693 3.596-.239 3.112.548-.183 1.104-1.064 1.235-1.959zm-88.573 87.485c-.64-2.063-1.8-5.168-2.577-6.901-1.704-3.798-1.81-8.226-.29-12.034.62-1.548 1.282-4.615 1.473-6.815 1.511-17.415 1.562-20.834.345-23.109-.995-1.86-1.018-2.891-.103-4.641.784-1.5.97-4.914.555-10.25-.342-4.4-.542-9.238-.444-10.75.815-12.64-.003-27.042-1.975-34.75-1.047-4.094-.89-5.176 1.735-11.996 3.302-8.576 5.354-9.87 7.629-4.813 3.04 6.76 3.907 11.085 3.243 16.197-1.033 7.957-1.763 20.513-1.576 27.112.093 3.3.102 7.237.02 8.75-.157 2.905-.226 17.844-.104 22.5.04 1.512-.01 8.15-.11 14.75-.106 7.03.35 14.174 1.103 17.25 1.03 4.208 1.04 6.292.05 10.5-2.013 8.556-3.985 12.75-5.996 12.75-1.223 0-2.193-1.223-2.978-3.75zm6.401-18.56c-.848-2.305-1.99-5.021-2.537-6.037-.546-1.016-.737-2.104-.424-2.417.313-.313.569-.044.569.597 0 .642.45 1.167 1 1.167s1-1.125 1-2.5c0-1.928-.515-2.498-2.25-2.493-1.948.006-2.276.577-2.446 4.25-.107 2.334-.867 6.134-1.688 8.445-1.331 3.745-1.326 4.668.05 8.5 3.648 10.158 3.357 10.06 5.935 1.987 2.204-6.903 2.248-7.544.791-11.5zm-5.935-7.62c.317-.513.118-1.214-.44-1.56-.56-.345-1.017.073-1.017.931 0 1.757.6 2.015 1.457.628zm5.611-15.88c.105-5.645-.165-10.585-.599-10.977-.434-.392-.466-.15-.07.537.506.88-.114 1.23-2.09 1.18-2.51-.063-2.596-.169-.809-.992l2-.921-2 .255c-2.734.349-2.536 3.152.25 3.548 2.145.304 2.25.744 2.25 9.416 0 12.337.83 10.747 1.068-2.045zm-2.267 1.393l-.198-8.083-.506 7.5-.506 7.5-.615-7.5-.616-7.5-.18 8.083c-.147 6.599.096 8.084 1.32 8.084 1.226 0 1.464-1.477 1.301-8.084zm-2.083-20.32c-.23-1.52-.424-.513-.432 2.237-.008 2.75.18 3.994.418 2.764.237-1.23.243-3.48.014-5zm2.15-2.513c-.095-6.724-.332-8.294-.868-5.75l-.737 3.5-.131-3.309c-.073-1.82-.495-3.085-.938-2.81-.444.273-.62 2.096-.392 4.05.228 1.954.816 3.305 1.306 3.002.49-.303.892 1.95.892 5.008 0 3.057.225 5.559.5 5.559s.44-4.162.368-9.25zm1.867-4.5c-.206-2.612-.375-.475-.375 4.75s.169 7.362.375 4.75.206-6.888 0-9.5zM121 123c-1-.646-1.083-.974-.25-.985.924-.011 1.196-2.429 1.044-9.265l-.205-9.25-.334 8.75c-.257 6.746-.659 8.75-1.756 8.75-1.095 0-1.51-2.02-1.793-8.75l-.37-8.75.082 9.656c.047 5.526-.305 9.416-.822 9.095-.498-.308-.584-.04-.191.594.392.635 1.924 1.148 3.404 1.14 2.105-.012 2.364-.227 1.191-.985zm-1.266-15.224c-.212-2.352-.388-.676-.391 3.724-.004 4.4.169 6.324.384 4.276s.218-5.648.007-8zm1.904-6.276c-.316-.825-.145-1.5.382-1.5.557 0 .76-2.61.485-6.25-.345-4.573-.187-5.848.588-4.75.701.993.94 1.052.708.175-.563-2.125-2.29-1.338-2.41 1.098-.223 4.588-.404 4.957-2.204 4.486-1.49-.39-1.853.2-2.036 3.31-.19 3.231.11 3.846 2.063 4.22 1.257.241 2.447.5 2.643.575.196.075.098-.539-.219-1.364zm-3.145-14.489c.35-.566-.051-.734-.941-.393-1.732.665-2.05 1.382-.611 1.382.518 0 1.216-.445 1.552-.989zm2.236-3.615c-.332-.332-1.195-.368-1.917-.08-.797.32-.56.557.605.605 1.054.043 1.644-.193 1.312-.525zM119 79.059c0-3.751-1.755-4.893-2.877-1.873-1.037 2.79-.413 4.814 1.484 4.814.875 0 1.393-1.094 1.393-2.941zm3.28-.719c.4 1.012.434 2.362.076 3-.488.872-.341.876.59.017.947-.873.97-1.646.096-3.278-1.457-2.723-3.077-1.764-2.924 1.73.118 2.672.123 2.67.778-.309.549-2.499.78-2.693 1.385-1.16zm-1.861-5.691c-.346-.9-1.053-1.375-1.572-1.054-.563.348-.463 1.163.247 2.018 1.463 1.763 2.173 1.246 1.325-.964zm-4.14-31.67c-2.607-1.048-3.871-5.004-2.449-7.662.668-1.248.666-2.466-.006-3.666-1.33-2.376.711-7.369 3.356-8.208 5.11-1.622 9.816 2.95 8.174 7.94-.384 1.164-.59 3.757-.457 5.762.187 2.83-.272 4.004-2.05 5.25-2.565 1.796-3.378 1.868-6.567.585zm4.45-1.583c-.332-.332-1.195-.368-1.917-.08-.797.32-.56.557.605.605 1.054.043 1.644-.193 1.312-.525zM121 36c0-.55-.675-1-1.5-1s-1.5.45-1.5 1 .675 1 1.5 1 1.5-.45 1.5-1zm-.907-4c.931 0 1.976-.739 2.323-1.641.54-1.406.4-1.45-.974-.31-1.337 1.108-1.966 1.105-3.773-.02-1.896-1.18-2.015-1.164-.943.134.812.983.897 1.882.25 2.66-.703.848-.64.898.224.177.66-.55 1.962-1 2.893-1zm.907-5c0-.55-.423-1-.941-1s-1.22.45-1.559 1c-.34.55.084 1 .941 1S121 27.55 121 27zm-.27-3.604c-.333-.332-1.196-.368-1.918-.08-.797.32-.56.557.605.605 1.054.043 1.644-.193 1.312-.525zM228.75 266.75c-.156-14.988-.284-2.725-.284 27.25s.128 42.237.283 27.25c.156-14.988.156-39.513 0-54.5zm-.057-42.481c-.254-.973-.478-.419-.498 1.231-.02 1.65.187 2.446.461 1.769.274-.677.29-2.027.037-3zM8.663 218.75c-.278-.688-.505-.125-.505 1.25s.227 1.938.504 1.25c.278-.688.278-1.813 0-2.5zm220.101-39l-.235-37.25-.279 32.25-.278 32.25-3.236-.015c-2.154-.01-2.79-.299-1.901-.862 1.895-1.201-1.722-2.065-4.351-1.038-1.781.695-1.729.783.516.86 1.991.068 2.195.283 1 1.055-1.218.787-1.236.972-.097.985.91.01.593.718-.903 2.015-1.268 1.1-2.033 2-1.7 2 1.457 0 5.7-2.404 5.7-3.23 0-.5 1.012-.765 2.25-.59 1.87.266 2.302 1.037 2.557 4.57.17 2.338.507 4.25.75 4.25.244 0 .337-16.762.207-37.25zM8.693 211.269c-.254-.973-.478-.419-.498 1.231-.02 1.65.187 2.446.46 1.769.275-.677.292-2.027.038-3zm13.395 1.004c-1.911-.36-2.119-.657-1-1.43 1.028-.709.8-.802-.838-.341-1.376.387-2.25.195-2.25-.494 0-.62-.51-.81-1.135-.425-1.454.9 2.863 3.385 5.635 3.245 1.547-.078 1.454-.203-.412-.555zm6.69-.115c.926-.587.567-1.135-1.297-1.985C24.328 208.737 23 208.685 23 210c0 .55.338.947.75.882.412-.066 1.65-.059 2.75.015 1.668.111 1.75.295.5 1.103-.825.533-1.05.97-.5.97s1.575-.366 2.278-.812zm185.951.238c-.332-.332-1.195-.368-1.917-.08-.797.32-.56.557.605.605 1.054.043 1.644-.193 1.312-.525zM102.89 209.27l4.39-1.87-6.226-1.885c-5.304-1.605-6.882-1.71-10.654-.7-2.436.651-5.9 1.184-7.7 1.184-2.637 0-3.271.4-3.271 2.06 0 1.474.5 1.93 1.756 1.602.967-.253 4.133.136 7.036.864 6.116 1.534 8.625 1.319 14.669-1.255zm50.61 1.267c4.32-.033 5.041-.327 5.303-2.16.352-2.47-1.453-3.438-4.303-2.31-1.1.435-1.41.823-.691.862.72.038 1.03.52.691 1.07-.923 1.493-2.5 1.207-2.5-.453 0-1.56-5.84-3.584-10-3.464-4.169.12-12.58 3.44-11.075 4.37 3.001 1.856 10.786 3.39 14.075 2.776 1.925-.36 5.75-.67 8.5-.691zm56.028.55c-1.728-.675-1.605-.84.997-1.338 1.755-.335 3.272-.093 3.707.591.542.851.741.827.753-.091.008-.688.708-1.25 1.554-1.25 1.267 0 1.311-.248.25-1.396-1.099-1.19-1.375-1.16-1.871.196-.465 1.271-.698 1.15-1.156-.604-.384-1.466-1.353-2.201-2.918-2.211-1.939-.013-2.085-.202-.844-1.095 1.248-.897 1.192-.979-.332-.484-1.007.327-2.357.6-3 .61-2.185.028 1.805 1.953 4.082 1.969 1.238.008 2.25.364 2.25.791 0 .427-1.8.605-4 .395-2.2-.21-4-.751-4-1.203 0-.87-16.913-.388-17.809.507-.288.289 2.299.525 5.75.525 4.984 0 6.162.29 5.733 1.408-.821 2.14 4.427 3.175 5.897 1.164.692-.946 2.5-1.526 4.54-1.456 1.977.068 2.556.3 1.389.559-4.566 1.01-5.07 1.353-3.472 2.363.81.512 2.147.907 2.972.876.974-.035.808-.325-.472-.825zM201.5 209c.34-.55.141-1-.441-1s-1.059-.436-1.059-.969c0-.532.675-.71 1.5-.393 1.702.654 2.057 3.362.441 3.362-.582 0-.78-.45-.441-1zm-152 0c-.356-1.848.2-2.014 7.307-2.183l7.693-.184-8-.566c-4.4-.312-10.25-.358-13-.103l-5 .464 4.602.536c3.657.426 4.549.896 4.339 2.286-.145.963.345 1.75 1.09 1.75.816 0 1.201-.795.969-2zm19.303-.701c.318-2.146-2.306-3.913-3.336-2.246-.908 1.47.546 5.109 1.868 4.674.64-.211 1.301-1.304 1.468-2.428zm101.864 1.201c0-.825-.375-1.5-.834-1.5-.998 0-1.098 1.401-.166 2.333.927.927 1 .866 1-.833zm1.668-3.374c-.46-.354-3.535-.355-6.835-.003l-6 .642 6.252-.133c6.004-.127 6.257-.033 6.386 2.368l.134 2.5.449-2.365c.247-1.301.073-2.655-.386-3.01zm17.027 3.374c-.317-.825-.705-1.5-.862-1.5-.157 0-.545.675-.862 1.5-.347.905-.005 1.5.862 1.5s1.209-.595.862-1.5zm-153.528-.376c1.049-.665.948-.994-.472-1.539-1.535-.589-1.585-.832-.334-1.623.81-.512 1-.938.422-.947-.578-.008-1.478.391-2 .888-.523.497-1.85 1.12-2.95 1.384-1.807.435-1.783.492.25.597 1.237.064 2.25.566 2.25 1.116 0 1.213 1.043 1.259 2.834.124zM11 208.559c0-.243-.45-.72-1-1.059-.55-.34-1-.141-1 .441S9.45 209 10 209s1-.198 1-.441zm33.25-.221c-.688-.278-1.813-.278-2.5 0-.688.277-.125.504 1.25.504s1.938-.227 1.25-.504zm16.518-.052c-1.503-.229-4.203-.233-6-.01-1.797.222-.568.409 2.732.414 3.3.006 4.77-.176 3.268-.404zm14.994.027c-.956-.25-2.756-.26-4-.02-1.244.239-.462.444 1.738.455 2.2.01 3.218-.185 2.262-.435zm91 0c-.956-.25-2.756-.26-4-.02-1.244.239-.462.444 1.738.455 2.2.01 3.218-.185 2.262-.435zm12.507.031c-.677-.274-2.027-.29-3-.037-.973.253-.419.478 1.231.498 1.65.02 2.446-.187 1.769-.461zm15.981-.006c-.688-.277-1.813-.277-2.5 0-.688.277-.125.504 1.25.504s1.938-.227 1.25-.504zm-176.52-.942c-.333-.332-1.196-.368-1.918-.08-.797.32-.56.557.605.605 1.054.043 1.644-.193 1.312-.525zm7.02-.085c-2.544-.665-2.154-3.3.5-3.374l2.25-.064-2.295-.92c-1.544-.62-3.334-.498-5.467.372-2.622 1.07-2.865 1.412-1.403 1.973 1.061.407 1.524.283 1.158-.31-.336-.543.143-.988 1.065-.988 1.183 0 1.522.588 1.152 2-.43 1.647-.054 1.98 2.134 1.884 1.693-.074 2.022-.282.906-.573zm50.5-1.017c-1.238-.238-3.263-.238-4.5 0-1.238.239-.225.434 2.25.434s3.487-.195 2.25-.434zm106.518-.009c-1.503-.228-4.203-.232-6-.01-1.797.223-.568.41 2.732.415 3.3.006 4.77-.177 3.268-.405zM31.116 204.72c-.427-.43-1.866-.35-3.196.175-2.272.897-2.224.945.777.78 1.758-.096 2.847-.526 2.42-.955zM27.5 12c9.9-.275 59.287-.5 109.75-.5 60.722 0 91.635-.338 91.413-1-.37-1.106-218.422-1.074-219.529.032-.349.35-.64 44.134-.649 97.301L8.471 204.5l.514-96 .515-96zm186.796 190.896c-.76-.76-1.292-.71-1.838.171-.494.8-.357.988.387.528.635-.392 1.155-.161 1.155.513s.307.918.683.542c.376-.376.202-1.165-.387-1.754zm14.411-148.134c-.239-1.244-.444-.462-.455 1.738-.01 2.2.185 3.218.435 2.262s.26-2.756.02-4zm.021-21.512c-.215-2.063-.392-.375-.392 3.75s.177 5.813.392 3.75c.216-2.063.216-5.438 0-7.5zm15.733 13.25c0-25.3.13-35.507.288-22.681.159 12.825.158 33.525 0 46-.159 12.474-.288 1.981-.288-23.319z"/></svg>