<svg xmlns="http://www.w3.org/2000/svg" width="246" height="420" viewBox="0 0 246 420"><path d="M86.3 411c-54.67-.354-77.525-.824-78.311-1.611-1.444-1.444-1.823-32.58-1.773-145.889.021-48.95-.032-91.025-.117-93.5-.086-2.475-.418-40.066-.738-83.536-.55-74.705-.485-79.116 1.183-80.5 1.333-1.107 4.473-1.44 12.86-1.364 6.103.055 56.085.403 111.07.775 54.987.37 100.27 1 100.628 1.4.359.399.935 63.725 1.28 140.725s.92 167.493 1.277 201.096c.547 51.507.432 61.23-.737 61.952-1.638 1.013-41.218 1.135-146.622.452zm-68.57-2.604c-.333-.332-1.196-.368-1.917-.08-.798.32-.561.557.604.605 1.054.043 1.644-.193 1.312-.525zm57 0c-.333-.332-1.196-.368-1.917-.08-.798.32-.561.557.604.605 1.054.043 1.644-.193 1.312-.525zM95.5 408c-.34-.55-2.279-.936-4.309-.858l-3.691.142 4 .716c2.2.394 4.14.78 4.309.858.17.078.03-.308-.309-.858zm25.262.313c-.956-.25-2.756-.26-4-.02-1.244.239-.462.444 1.738.455 2.2.01 3.218-.185 2.262-.435zm110.843-3.572l.105-3.758-.415 3.5-.415 3.5-53.69.272-53.69.272 54-.014 54-.013.105-3.759zM10.362 406.5c-.317-.825-.753-1.5-.969-1.5-.216 0-.393.675-.393 1.5s.436 1.5.969 1.5c.532 0 .71-.675.393-1.5zm29.367.896c-.332-.332-1.195-.368-1.916-.08-.798.32-.561.557.604.605 1.054.043 1.644-.193 1.312-.525zm188.8-97.018c-.296-52.733-.765-112.303-1.041-132.378-.277-20.075-.508-65.862-.515-101.75L226.961 11l-50.73.01c-27.902.004-74.581-.233-103.731-.529-29.15-.295-54.563-.55-56.473-.564-2.194-.018-3.95.624-4.768 1.744-1.054 1.441-1.199 34.973-.776 179.805.286 97.919.79 186.134 1.119 196.034l.599 18 108.433.378 108.434.378zm-44.855 62.117c-16.811-3.357-25.82-23.979-17.098-39.14 4.795-8.334 13.625-13.355 23.487-13.355 10.582 0 18.989 4.674 23.943 13.313 2.618 4.564 2.976 6.15 2.985 13.202.01 8.691-1.662 13.287-6.843 18.805-6.298 6.708-15.849 9.296-26.474 7.175zm2.055-2.1c-.332-.331-1.195-.367-1.917-.078-.797.32-.56.556.605.604 1.054.043 1.644-.193 1.312-.525zm12 0c-.332-.331-1.195-.367-1.917-.078-.797.32-.56.556.605.604 1.054.043 1.644-.193 1.312-.525zm-15.812-.76c-.23-.2-1.542-.9-2.917-1.555-2.357-1.122-2.39-1.102-.559.365 1.593 1.276 4.848 2.391 3.476 1.19zm18.647-3.053c.623-.853 1.427-1.258 1.785-.9.358.358.651.126.651-.515 0-1.475-.024-1.473-4.437.371-3.667 1.532-17.915 1.841-17.005.369.237-.384-.227-.95-1.032-1.259-.804-.308-1.733-.122-2.064.414-2.06 3.332 19.684 4.827 22.102 1.52zm-24.564.105c0-.172-1.462-1.635-3.25-3.25l-3.25-2.937 2.937 3.25c2.738 3.03 3.563 3.71 3.563 2.937zm32.563-2.937l2.937-3.25-3.25 2.937c-1.788 1.615-3.25 3.078-3.25 3.25 0 .773.825.092 3.563-2.937zm-10.118.171c6.287-2.78 10.555-9.29 10.555-16.096v-4.784l-4.576 3.226c-4.14 2.918-4.515 3.511-3.935 6.229 1.825 8.562 1.828 9.504.037 9.504-.955 0-3.726-1.343-6.158-2.985l-4.423-2.984-4.641 2.888c-7.03 4.376-8.606 3.022-5.785-4.973 1.641-4.652 1.837-4.26-3.84-7.724-1.564-.954-3.063-2.92-3.363-4.408-.297-1.477-1.175-2.93-1.951-3.228-1.161-.445-1.202-.15-.229 1.669.65 1.215 1.36 4.449 1.575 7.186.697 8.827 4.051 13.656 11.639 16.753 5.584 2.28 9.484 2.21 15.095-.273zm-22.515-2.496c-1.221-1.3-2.64-2.105-3.15-1.789-.512.316.069 1.639 1.29 2.939s2.64 2.105 3.15 1.789c.512-.316-.069-1.639-1.29-2.939zm31.001 1.148c1.705-1.814 1.883-2.369.704-2.196-1.97.29-2.964 1.256-3.242 3.152-.285 1.944-.132 1.886 2.538-.956zM200 359c0-.55-.477-1-1.059-1s-.78.45-.441 1c.34.55.816 1 1.059 1s.441-.45.441-1zm-28.184-3.504c-.61-1.338-1.558-2.155-2.108-1.815-.632.39-.747-.389-.314-2.116.45-1.79.327-2.51-.354-2.09-1.463.905-1.294 3.134.503 6.607 1.833 3.546 3.912 3.01 2.273-.586zM210 357.833c0-.458-.016-1.074-.036-1.369-.02-.294.656-1.226 1.5-2.071 1.069-1.068 1.515-3.416 1.466-7.714-.048-4.202-.33-5.54-.884-4.179-.447 1.1-.72 3.89-.606 6.2.115 2.31-.05 4.05-.366 3.868-.316-.183-1.268 1.114-2.116 2.883-1.197 2.499-1.253 3.216-.25 3.216.71 0 1.292-.375 1.292-.834zm-13.75-.495c-.688-.278-1.25-1.865-1.25-3.528 0-2.495-.306-2.895-1.75-2.283-.963.407-2.547.707-3.522.667-.974-.04-1.541.299-1.26.754.28.454-.22.765-1.111.69-.892-.076-1.74.602-1.886 1.506-.244 1.525-.056 1.525 2.604 0 2.745-1.574 2.963-1.548 5.118.606 1.238 1.238 2.714 2.214 3.28 2.171.564-.043.464-.306-.223-.583zM184 355.607c0-.216-.698-.661-1.552-.989-.89-.341-1.291-.173-.94.393.586.95 2.492 1.406 2.492.596zm14.247-3.095c-.262-1.369-.836-2.266-1.276-1.994-.44.272-1.06-.07-1.376-.762-.317-.69-.295-.131.049 1.244.49 1.962 1.887 3.836 2.967 3.985.062.008-.102-1.105-.364-2.473zm16.436-1.7c-.32-.797-.556-.56-.604.605-.043 1.054.193 1.644.525 1.312.332-.332.368-1.195.08-1.916zm-25.987-.397c.198-.597-.798-2.245-2.215-3.662-1.417-1.417-2.144-2.844-1.614-3.17.53-.328 1.14-.063 1.357.588.223.67.937.847 1.645.41.944-.583.807-1.11-.56-2.145-2.62-1.987-5.983-1.74-7.592.558-.768 1.096-1.581 1.869-1.807 1.716-.225-.152 1.39 1.414 3.59 3.48 3.885 3.65 6.456 4.445 7.196 2.225zm-4.565-.757c-.612-.738-.854-1.602-.537-1.919.318-.317-.361-1.08-1.508-1.693-2.648-1.417-2.658-2.663-.029-3.35 1.32-.346 1.903-.119 1.627.633-.236.644.526 2.256 1.693 3.582 1.248 1.418 1.505 2.108.623 1.676-.825-.404-.626-.027.441.839 1.568 1.271 1.64 1.574.373 1.574-.863 0-2.07-.604-2.683-1.342zm8.932-.1c.035.519.537-.183 1.114-1.558.621-1.477 1.243-1.988 1.52-1.25.663 1.765 2.402 1.52 5.303-.75 1.936-1.514 2.121-1.96.821-1.978-.923-.012-2.473.766-3.444 1.728-1.681 1.667-1.734 1.667-1.102 0 .717-1.894.367-2.029-2.956-1.138-1.335.358-1.973 1.125-1.646 1.978.294.766-.187 1.67-1.07 2.009-.881.338-1.589 1.354-1.571 2.258.027 1.395.254 1.35 1.5-.298.807-1.068 1.497-1.518 1.531-1zm-27.356-4.796c-.239-1.244-.444-.462-.455 1.738-.01 2.2.185 3.218.435 2.262s.26-2.756.02-4zM170 346c0-.55-.45-1-1-1s-1 .45-1 1 .45 1 1 1 1-.45 1-1zm21 .559c0-.243-.45-.72-1-1.059-.55-.34-1-.141-1 .441s.45 1.059 1 1.059 1-.198 1-.441zm-15.876-4.826c-.988-.98-1.102-.865-.56.56.376.986.935 1.541 1.243 1.233.308-.307 0-1.114-.683-1.793zm24.536.408c.005-1.007-1.02-1.222-3.948-.83-6.266.841-7.118 2.75-1.09 2.445 3.445-.175 5.034-.685 5.038-1.615zm6.34.359c1.02-1.229.951-1.5-.378-1.5-.892 0-1.622.675-1.622 1.5s.17 1.5.378 1.5c.207 0 .937-.675 1.622-1.5zm-36.655-1.043c-.326-.849-.807-1.329-1.069-1.067-.262.262-.18.957.183 1.543.986 1.596 1.562 1.286.886-.476zm45.338-.645c-.32-.797-.556-.56-.604.605-.043 1.054.193 1.644.525 1.312.332-.332.368-1.195.08-1.916zm-21.328-2.64c-.67-3.69-1.355-4.03-1.355-.672 0 1.558-.296 2.537-.658 2.175-.362-.362-1.262-.156-2 .456-1.893 1.571-1.757-.573.158-2.488 2.005-2.005 1.89-2.558-.408-1.957-2.14.56-3.34 3.665-1.953 5.053.5.5 2.21.717 3.8.483 2.504-.367 2.828-.776 2.416-3.05zm18.073-.499c-.35-.914-1.117-1.365-1.703-1.003-.662.41-.83.045-.443-.963.906-2.36-7.905-9.961-10.567-9.117-1.299.413-1.733.249-1.281-.483.84-1.359-.412-1.414-2.434-.107-1.253.81-1.17.998.5 1.143 1.1.096 2.786.108 3.746.028s1.635.21 1.5.643c-.135.434 1.42 2.257 3.456 4.05 2.036 1.792 3.981 4.138 4.322 5.212.345 1.085 1.108 1.651 1.718 1.274.733-.453.856-.042.369 1.236-.526 1.38-.425 1.612.363.831.6-.595.805-1.83.454-2.744zm-5.99-5.923l-2.938-3.25 3.25 2.937c3.03 2.738 3.71 3.563 2.937 3.563-.172 0-1.635-1.462-3.25-3.25zm-19.016 2.196c2.299-6.392 5.153-6.577 7.259-.47.754 2.187 1.743 4.348 2.2 4.804.455.456 3.437.692 6.626.524l5.798-.304-2.861-3.392c-3.46-4.103-9.598-7.056-14.726-7.086-6.417-.037-14.128 4.187-16.845 9.228-.849 1.575-.358 1.75 4.894 1.75h5.838zM168.92 335c1.122-2.357 1.102-2.39-.365-.559-.855 1.068-1.555 2.38-1.555 2.917 0 1.27.462.703 1.92-2.358zm2.379 1.336c-.392-1.02-.238-1.416.397-1.024.57.353 1.842-.249 2.825-1.336 1.117-1.234 1.333-1.976.575-1.976-.668 0-.929-.462-.58-1.027.35-.564 1.388-.902 2.31-.75.94.156 1.557-.292 1.408-1.02-.146-.714.304-1.201 1-1.083.696.118 3.059-.156 5.25-.608 3.285-.678 3.635-.958 2-1.597-2.902-1.133-3.693-1.063-2.879.255.499.807.158.953-1.098.471-2.635-1.011-9.662 3.79-8.808 6.018.4 1.04.243 1.423-.416 1.016-1.342-.83-3.67 1.89-2.81 3.281 1.005 1.626 1.535 1.228.826-.62zm18.734-3.836c1.357-1.85 1.336-1.897-.283-.628-.963.755-1.75 1.843-1.75 2.417 0 .574.127.857.283.628.156-.23.943-1.317 1.75-2.417zM212 333.655c0-.19-1.012-1.202-2.25-2.25l-2.25-1.905 1.905 2.25c1.79 2.114 2.595 2.705 2.595 1.905zM172.5 330c.995-1.1 1.585-2 1.31-2-.275 0-1.315.9-2.31 2-.995 1.1-1.585 2-1.31 2 .275 0 1.315-.9 2.31-2zm8.026-5.807c-.307-.308-1.114 0-1.793.683-.98.988-.865 1.102.56.56.986-.376 1.541-.935 1.233-1.243zm11.724.101c-1.238-.238-3.263-.238-4.5 0-1.238.239-.225.434 2.25.434s3.487-.195 2.25-.434zm1.014-1.998c-1.23-.237-3.48-.243-5-.014-1.52.23-.514.425 2.236.432 2.75.007 3.994-.18 2.764-.418zM40.852 371.675c-6.432-2.414-12.616-8.472-15.366-15.053-2.287-5.475-1.96-17.254.616-22.137 5.179-9.815 13.601-14.956 24.398-14.89 14.908.09 25.179 9.73 26.274 24.658.816 11.132-4.58 21.056-14.086 25.906-5.095 2.6-16.787 3.411-21.836 1.516zm7.398-1.337c-.688-.278-1.813-.278-2.5 0-.688.277-.125.504 1.25.504s1.938-.227 1.25-.504zm6.48.058c-.333-.332-1.196-.368-1.917-.08-.798.32-.561.557.604.605 1.054.043 1.644-.193 1.312-.525zM60 369c1.828-1.181.25-1.181-2.5 0-1.319.567-1.49.878-.5.914.825.03 2.175-.38 3-.914zm-19.083-.303c-.23-.166-1.767-1.093-3.417-2.059l-3-1.757 2.36 2.06c1.3 1.132 2.837 2.059 3.417 2.059.581 0 .869-.136.64-.303zm19.22-2.23c4.919-2.488 7.814-5.43 7.12-7.238-.376-.98-.19-1.305.504-.877.605.374 1.364.254 1.686-.267a1.112 1.112 0 0 0-.354-1.528c-1.199-.74-5.277 4.9-4.313 5.966.396.439.088.431-.685-.017-1.007-.585-1.175-.445-.595.494.528.854.418 1.067-.316.614-.619-.383-2.601.07-4.405 1.007-3.378 1.754-17.15 2.788-16.177 1.215.284-.46.04-.836-.54-.836-.581 0-2.79-1.567-4.91-3.482-2.12-1.915-4.218-3.153-4.663-2.75-.444.403-.553.016-.24-.859.826-2.32-.77-4.597-1.638-2.337-.871 2.27 7.966 10.94 12.594 12.356 4.422 1.353 12.798.63 16.932-1.461zm7.86-3.125l2.496-2.842-3.497 2.992c-5.54 4.742-5.601 4.807-3.496 3.722 1.1-.567 3.123-2.31 4.496-3.872zm-12.105.698c2.95-1.079 6.194-2.713 7.21-3.633 3.437-3.11 5.905-9.715 5.782-15.473-.064-2.989-.313-4.69-.554-3.782-.242.908-2.258 2.912-4.482 4.453-4.329 3-4.281 2.747-2.287 12.145.643 3.032.509 3.25-2.003 3.25-1.48 0-4.26-1.196-6.175-2.657l-3.484-2.657-4.32 3.046c-5.958 4.2-7.448 3.185-5.647-3.845l1.344-5.241-4.154-3.573C31.07 340.865 31.52 339 38.831 339c6.293 0 6.789-.417 8.93-7.5 1.49-4.936 4.372-3.954 6.602 2.25l1.888 5.25h5.91c5.324 0 5.815-.173 4.956-1.75-3.439-6.315-12.976-11.072-19.45-9.702-5.074 1.073-10.602 4.611-12.825 8.207-1.923 3.112-2.15 3.213-3.453 1.538-1.323-1.702-1.36-1.696-.722.121.465 1.323.312 1.69-.497 1.191-.644-.398-1.17-.273-1.17.277 0 1.55 1.98 2.403 2.15.927.084-.72.44 2.126.793 6.324.792 9.42 3.754 13.929 11.449 17.429 6.309 2.869 5.99 2.857 12.5.478zM32 361.622c0-.207-.787-.995-1.75-1.75-1.586-1.243-1.621-1.208-.378.378 1.307 1.666 2.128 2.195 2.128 1.372zm27-3.015c0-.216-.698-.661-1.552-.989-.89-.341-1.291-.173-.94.393.586.95 2.492 1.406 2.492.596zM50 354c.738 0 2.137.719 3.107 1.597 1.651 1.494 1.76 1.397 1.676-1.514-.048-1.711.205-3.405.564-3.764.36-.359.653.35.653 1.573 0 1.23.448 1.95 1 1.608.55-.34 1-.179 1 .358 0 .536-.461 1.204-1.025 1.484-.564.28-.451.38.25.225.701-.155 1.149-1.134.995-2.175-1.172-7.915-1.62-9.392-2.852-9.392-1.612 0-1.81 2.158-.333 3.635.713.713-.23 1.084-3.034 1.194-4.61.18-6.212-1.785-3.76-4.616 1.406-1.625 1.645-7.66.354-8.952-.588-.587-.984 2.068-.67 4.489.1.762-1.026 1.25-2.881 1.25-1.674 0-3.044.498-3.044 1.107s.675.848 1.5.531c.825-.316 1.5-.187 1.5.286 0 1.331-2.56 2.004-5.1 1.34-2.177-.57-2.194-.643-.346-1.453 1.725-.755 1.69-.803-.304-.425-1.238.235-2.25.019-2.25-.48 0-.498-.477-.906-1.059-.906-1.578 0-.37 1.492 4.024 4.972 3.475 2.752 3.891 2.878 3.544 1.073-.415-2.152.91-2.793 2.03-.982.361.585-.009 1.822-.823 2.75-2.57 2.93-3 5.929-1.01 7.042 1.296.725 2.23.607 3.372-.426.869-.786 2.184-1.429 2.922-1.429zm-3.921-10.583c.048-1.165.285-1.402.604-.604.289.721.253 1.584-.079 1.916-.332.332-.568-.258-.525-1.312zm-15.094 8.274c.008-.445-.471-.509-1.065-.142-.731.452-.993-.974-.81-4.417.149-2.797-.04-5.396-.42-5.775-.858-.859-.888 8.3-.038 11.478.467 1.743.84 1.996 1.471 1 .466-.734.853-1.7.862-2.144zM72.915 346c.062-5.129-1.153-8.042-2.467-5.916-.47.76-.315 1.46.375 1.69.669.223 1.177 2.325 1.177 4.868 0 2.73-.39 4.235-1 3.858-1.176-.727-1.242-.295-.325 2.095.626 1.632.73 1.62 1.43-.168.415-1.06.78-3.952.81-6.427zm-46.253 3.75c-.277-.688-.504-.125-.504 1.25s.227 1.938.504 1.25c.278-.688.278-1.813 0-2.5zm48.063-5.982c-.223-1.797-.41-.568-.415 2.732-.006 3.3.176 4.77.405 3.268.228-1.503.232-4.203.01-6zM52 346.559c0-1.055-1.92-1.499-2.49-.575-.345.559.074 1.016.931 1.016.857 0 1.559-.198 1.559-.441zm12.945-3.993c.912-1.099.956-1.566.146-1.566-.635 0-1.397.634-1.695 1.41-.297.775-1.633 1.684-2.968 2.019-1.336.335-2.428 1.062-2.428 1.616 0 1.251 5.168-1.337 6.945-3.48zM53.5 343c.34-.55-.057-1-.882-1s-1.778.45-2.118 1c-.34.55.057 1 .882 1s1.778-.45 2.118-1zm-26.817-2.188c-.32-.797-.556-.56-.604.605-.043 1.054.193 1.644.525 1.312.332-.332.368-1.195.08-1.916zm31.773 1.26c.315-.511-.433-1.074-1.663-1.25-1.615-.233-2.525-1.354-3.273-4.03-.57-2.04-1.649-4.29-2.396-5-1.146-1.089-1.146-.938-.001.958 1.093 1.81 1.116 2.638.118 4.236-1.841 2.948-1.522 4.014 1.2 4.014 1.343 0 2.72.45 3.059 1 .775 1.255 2.203 1.289 2.956.071zM51 338.94c0-.582.45-.78 1-.441.55.34 1 .816 1 1.059s-.45.441-1 .441-1-.477-1-1.059zm20-2.059c0-.55-.526-.675-1.17-.277-.767.474-.967.194-.58-.816 1.028-2.676-9.841-11.778-12.27-10.276-.54.333-.98.185-.98-.329 0-1.333-5.45-2.244-9.08-1.518-4.205.841-1.766 2.299 3.88 2.319 2.364.008 5.64.708 7.279 1.556 1.639.847 3.529 1.225 4.2.84.672-.386.892-.338.489.107s.835 2.544 2.75 4.664c1.915 2.12 3.482 4.329 3.482 4.91 0 .58.45.778 1 .438s1-1.068 1-1.618zm2-.771c0-.49-.906-1.952-2.014-3.25L68.97 330.5l1.765 3.244c1.85 3.401 2.264 3.834 2.264 2.367zm-33.4-8.866c.123-.69-.193-.996-.704-.68-.51.315-.622 1.069-.248 1.674.434.702.094.876-.937.48-1.857-.712-7.11 4.826-6.11 6.444.659 1.066 7.624-5.829 7.998-7.918zm-6.69 5.923c.54-1.008 1.766-2.47 2.727-3.25 1.08-.878.838-.18-.634 1.832-2.626 3.588-3.611 4.255-2.093 1.418zm.653-4.418l2.937-3.25-3.25 2.937c-3.03 2.738-3.71 3.563-2.937 3.563.172 0 1.635-1.462 3.25-3.25zm9.872-2.855c-.846-1.37-2.102-1.065-2.102.51 0 .772.598 1.175 1.328.895.73-.28 1.079-.912.774-1.405zM66 327.622c0-.207-.787-.995-1.75-1.75-1.586-1.243-1.621-1.208-.378.378 1.307 1.666 2.128 2.195 2.128 1.372zm-19.27-5.226c-.333-.332-1.196-.368-1.917-.08-.798.32-.561.557.604.605 1.054.043 1.644-.193 1.312-.525zm10 0c-.333-.332-1.196-.368-1.917-.08-.798.32-.561.557.604.605 1.054.043 1.644-.193 1.312-.525zm-4.48-1.058c-.688-.278-1.813-.278-2.5 0-.688.277-.125.504 1.25.504s1.938-.227 1.25-.504zm130.318-40.23c-2.713-.954-6.934-3.477-9.381-5.605-15.375-13.375-10.674-38.25 8.6-45.511 6.724-2.533 11.73-2.519 18.6.052 9.851 3.685 16.243 11.973 17.326 22.465 1.418 13.734-5.55 24.227-19.141 28.824-6.087 2.059-9.66 2.009-16.004-.224zm14.161-1.712c-.332-.332-1.195-.368-1.917-.08-.797.32-.56.557.605.605 1.054.043 1.644-.193 1.312-.525zm-.729-2.503c0-.609.704-.837 1.563-.507.86.33 2.773-.032 4.25-.804 3.603-1.882 8.585-7.218 7.414-7.941-.515-.319-2.014.591-3.332 2.022-3.29 3.572-9.564 6.289-14.586 6.315-2.305.012-4.47.472-4.809 1.022-.38.616 1.323 1 4.441 1 3.032 0 5.059-.444 5.059-1.107zm7-3.206c0-.172 1.462-1.635 3.25-3.25l3.25-2.937-2.937 3.25c-2.738 3.03-3.563 3.71-3.563 2.937zm.493 3.324c.35-.566-.051-.734-.941-.393-1.732.665-2.05 1.382-.611 1.382.518 0 1.216-.445 1.552-.989zm-18.648-.894c.992-.629.658-1.025-1.275-1.51-1.441-.362-4.371-2.24-6.511-4.173-2.14-1.933-4.138-3.116-4.44-2.627-.572.926 3.111 4.703 7.354 7.54 2.83 1.893 3.047 1.927 4.872.77zm-9.92-5.867l-2.425-2.75 2.75 2.424c2.57 2.266 3.209 3.076 2.424 3.076-.179 0-1.416-1.238-2.75-2.75zm2.075 5.446c0-.167-1.688-1.854-3.75-3.75l-3.75-3.446 3.446 3.75c3.208 3.49 4.054 4.21 4.054 3.446zm32-3.196c1.866-1.925 3.167-3.5 2.892-3.5-.275 0-2.026 1.575-3.892 3.5s-3.167 3.5-2.892 3.5c.275 0 2.026-1.575 3.892-3.5zm-10.019.28c1.74-1.087 1.496-1.45-3.004-4.481-2.694-1.815-5.253-3.286-5.688-3.271-.434.015-2.517 1.335-4.629 2.934-6.264 4.741-7.833 2.422-5.092-7.528.441-1.602-.346-2.701-3.5-4.886-6.59-4.568-5.23-7.548 3.444-7.548 4.33 0 4.356-.02 6.3-5.25 1.408-3.785 2.544-5.34 4.07-5.57 1.39-.21 2.118.218 2.118 1.244 0 .86.781 3.365 1.736 5.57l1.736 4.006h5.764c3.725 0 5.764.413 5.764 1.167 0 .641.258.908.574.593 1.048-1.048-2.524-6.62-5.823-9.085-6.684-4.991-14.502-5.718-20.647-1.92-3.967 2.452-8.104 6.471-8.104 7.873 0 .69-.52 1.576-1.158 1.97-.793.49-.98.036-.593-1.44.31-1.186.086-2.451-.497-2.812-.624-.385-.767-.18-.347.5.392.634.22 1.154-.381 1.154-.772 0-.79.57-.06 1.934 1.551 2.897 1.268 9.628-.464 11.066-.825.685-1.5 1.726-1.5 2.314 0 .587.6.249 1.331-.753 1.222-1.67 1.531-1.422 3.75 3.007 2.662 5.313 5.51 7.791 11.477 9.985 4.207 1.547 10.267 1.198 13.423-.773zm8.857-8.629c.55-1.458 1.283-3.942 1.63-5.519.747-3.402 1.037-3.221 1.873 1.168.393 2.061.26 3.071-.356 2.69-.542-.334-.985-.158-.985.392s.403 1.249.895 1.553c1.265.782 2.272-2.333 1.52-4.701-.417-1.314-.255-1.753.478-1.3.731.452 1.107-.543 1.107-2.934 0-2.464-.365-3.392-1.146-2.91-.803.496-.952-.063-.499-1.869.417-1.662.131-3.092-.806-4.03-.8-.799-1.138-1.804-.751-2.232.386-.429.182-.482-.454-.118-.636.363-.922 1.555-.636 2.649.285 1.093.995 1.694 1.576 1.335.667-.413.81-.011.386 1.093-.369.96-.699 2.721-.733 3.914l-.064 2.168-.891-2.215c-.887-2.204-.902-2.205-3.187-.27a155.813 155.813 0 0 1-4.59 3.715c-2.25 1.734-2.265 1.86-.703 6.27.876 2.475 1.375 5.339 1.11 6.364-.43 1.655-.22 1.616 1.871-.348 1.296-1.218 2.806-3.407 3.355-4.865zm-21.623 1.349c4.353-2.958 5.499-3.07 8.03-.778 1.467 1.327 1.829 1.39 1.579.274-.178-.796-1.321-2.266-2.54-3.267-2.08-1.708-2.37-1.718-4.75-.16-1.394.914-2.534 2.045-2.534 2.514 0 .47-1.237 1.524-2.75 2.345-1.512.82-2.292 1.51-1.732 1.532.56.022 2.673-1.085 4.697-2.46zm13.706-1.872c-.05-.703-.27-.654-.585.128-.279.691-.843 1.048-1.255.794-.411-.254-.748.186-.748.978 0 1.087.328 1.169 1.334.334.733-.609 1.297-1.614 1.254-2.234zm-28.114-1.154c-.308-.308-.867.247-1.243 1.233-.542 1.425-.428 1.54.56.56.684-.679.99-1.486.683-1.793zm14.874-1.42c3.537-2.158 7.006-2.31 7.762-.343.55 1.434 4.557 1.796 4.557.411 0-.482-.76-1.495-1.687-2.25-1.478-1.201-1.606-1.154-1.032.378.361.963.22 1.75-.312 1.75-2.3 0-.69-3.094 2.281-4.38 1.788-.774 4.15-2.13 5.25-3.016l2-1.609-2 .595c-3.14.935-10.5 4.66-10.502 5.317-.001.326-1.4.643-3.106.705-1.707.061-3.45.672-3.873 1.357-.504.816-.99.888-1.409.21-.351-.57.245-1.315 1.324-1.658 1.2-.381 1.746-1.192 1.403-2.085-.958-2.497 1.48-4.456 4.24-3.407 1.537.585 2.423.565 2.423-.054 0-.536 1.323-.975 2.941-.975 1.618 0 3.254-.506 3.636-1.125.483-.781-.417-.996-2.94-.701-2 .233-3.637.065-3.637-.375s-.637-.799-1.417-.799c-.779 0-1.643-.563-1.92-1.25-.315-.78-.535-.623-.584.417-.043.916.483 1.893 1.171 2.17.688.278.8.534.25.569-.55.035-1.64-.341-2.42-.836-1.207-.764-1.158-1.302.329-3.571.963-1.47 1.49-2.933 1.17-3.252-.318-.32-.586.057-.594.836-.013 1.21-.149 1.207-.924-.018-.687-1.087-1.123-.602-1.795 2-.746 2.89-1.433 3.527-4.326 4.016l-3.44.582 2.5 1.105c2.53 1.119 1.432 1.668-2.5 1.25-2.742-.293-3.215-.954-1.471-2.057 1.162-.735.998-.934-.779-.946-3.38-.023-2.73 1.524 2 4.766 4.282 2.935 4.456 3.285 3.217 6.469-.88 2.26.271 2.207 4.214-.197zm-2.758-3.304c-.042-.138-.23-1.063-.42-2.056-.275-1.451-.066-1.576 1.066-.636.775.643 1.162 1.568.861 2.055-.518.838-1.339 1.185-1.507.637zm31.74 0c-.278-.688-.505-.125-.505 1.25s.227 1.938.504 1.25c.278-.688.278-1.813 0-2.5zm-48.947-5.5c-.229-1.512-.416-.275-.416 2.75s.187 4.263.416 2.75c.23-1.512.23-3.987 0-5.5zm1.99.5c-.239-1.238-.434-.225-.434 2.25s.195 3.487.434 2.25c.238-1.238.238-3.263 0-4.5zm23.023 2.646c-.332-.332-1.195-.368-1.917-.08-.797.32-.56.557.605.605 1.054.043 1.644-.193 1.312-.525zm23.954-3.583c-.32-.798-.556-.561-.604.604-.043 1.054.193 1.644.525 1.312.332-.332.368-1.195.08-1.917zm-45.56-2.488c-1.18-2.027-1.464-1.378-.5 1.136.343.894.835 1.415 1.092 1.157.258-.257-.009-1.29-.593-2.293zm23.166-4.326c-.72-2.752-1.289-2.504-1.289.56 0 1.407.408 2.307.906 1.999.498-.308.671-1.46.383-2.559zm-23.907-.55c.341-.89.173-1.292-.393-.942-.544.336-.989 1.034-.989 1.552 0 1.438.717 1.121 1.382-.61zm10.01-7.624c-.292-.472-.956-.594-1.477-.272-.521.322-.726.944-.455 1.382.271.439-.397 1.603-1.484 2.586-1.895 1.716-2.783.924-1.226-1.092.412-.534-.035-.127-.995.904-3.148 3.384-.611 3.92 2.819.595 1.841-1.784 3.11-3.63 2.818-4.103zm27.94 2.976c-3.659-3.85-7.752-5.96-9.933-5.124-1.174.45-1.496.288-1.004-.507.523-.847-1.02-1.166-5.586-1.155-4.442.011-5.865.302-4.809.985.825.533 3.3.986 5.5 1.007 4.86.045 11.157 2.814 14.395 6.33 1.318 1.43 2.817 2.34 3.332 2.022.516-.318-.337-1.92-1.895-3.558zm-1.895-.051l-2.937-3.25 3.25 2.937c3.03 2.738 3.71 3.563 2.937 3.563-.172 0-1.635-1.462-3.25-3.25zm-14.092.707c-.326-.849-.807-1.329-1.069-1.067-.262.263-.18.957.183 1.544.986 1.595 1.562 1.285.886-.477zm20.655 1.24c0-.168-1.688-1.855-3.75-3.75l-3.75-3.447 3.446 3.75c3.208 3.49 4.054 4.21 4.054 3.446zm-26.668-5.767c.642-.039.268-.427-.832-.862-2.368-.937-4.739-.264-3.893 1.105.327.53 1.262.708 2.076.395.814-.312 2.006-.6 2.649-.638zM182 233c.825-.533 1.05-.97.5-.97s-1.675.437-2.5.97c-.825.533-1.05.97-.5.97s1.675-.437 2.5-.97zm4.73-1.604c-.333-.332-1.196-.368-1.917-.08-.798.32-.561.557.604.605 1.054.043 1.644-.193 1.312-.525zM41.43 280.239c-7.64-2.727-12.057-6.664-15.921-14.194-2.26-4.402-2.407-17.005-.26-22.118 5.91-14.076 23.135-20.4 36.75-13.493 5.942 3.014 8.793 5.82 12.257 12.066 1.81 3.261 2.221 5.599 2.231 12.656.012 8.471-.073 8.78-3.988 14.47-6.947 10.097-20.01 14.56-31.069 10.613zm10.319-.928c-.963-.252-2.538-.252-3.5 0-.963.251-.175.457 1.75.457s2.712-.206 1.75-.457zM43.5 278c-2.75-1.181-4.328-1.181-2.5 0 .825.533 2.175.945 3 .914.99-.036.819-.347-.5-.914zm14.23.396c-.333-.332-1.196-.368-1.917-.08-.798.32-.561.557.604.605 1.054.043 1.644-.193 1.312-.525zm-6.48-1.058c-.688-.278-1.813-.278-2.5 0-.688.277-.125.504 1.25.504s1.938-.227 1.25-.504zM39 276.615c0-.212-1.238-1.138-2.75-2.06l-2.75-1.674 2.36 2.06c2.305 2.01 3.14 2.455 3.14 1.674zm22.674-2.395c3.738-2.678 7.098-6.36 7.501-8.22.179-.825.71-1.781 1.182-2.125.471-.344.358-.933-.25-1.309-.609-.376-1.107-.207-1.107.375 0 1.78-.401 2.425-3.137 5.04-1.45 1.385-2.691 2.964-2.758 3.508-.067.545-.906.995-1.864 1-.957.006-1.666.462-1.574 1.013.285 1.708-13.16 1.737-17.23.036-2.007-.839-4.121-1.233-4.698-.877-.655.405-.745.158-.239-.661.57-.921.421-1.07-.5-.5-.848.524-1.067.418-.622-.302.377-.61 1.46-.821 2.404-.467 1.42.532 1.508.385.507-.85-.952-1.173-.907-2.644.213-6.89.784-2.969 1.328-5.445 1.211-5.502-.117-.057-2.186-1.626-4.597-3.486l-4.384-3.383.448 6.193c.31 4.274 1.125 7.109 2.634 9.15 2.691 3.64 2.832 4.931.285 2.627-1.092-.989-2.154-1.31-2.496-.756-.948 1.532 6.127 7.207 8.06 6.465 1.06-.406 1.421-.244.995.446-.967 1.564.574 1.837 9.36 1.659 6.088-.124 8.458-.61 10.656-2.184zm-27.802-4.97c-1.243-1.586-1.208-1.621.378-.378.963.755 1.75 1.543 1.75 1.75 0 .823-.821.294-2.128-1.372zm23.268 3.178c1.672-.865 3.67-1.331 4.438-1.036.769.295 1.303.215 1.188-.178-.116-.393 1.085-2.9 2.669-5.57 3.812-6.428 4.429-12.903 1.797-18.853-2.244-5.072-7.332-9.461-12.066-10.408-3.595-.719-3.604-.676-1.336 6.117l1.67 5 5.75.3c4.839.252 5.75.596 5.75 2.166 0 1.026-1.758 3.258-3.907 4.96l-3.907 3.094 1.361 5.16c.749 2.837 1.13 5.533.848 5.99-.936 1.514-3.665.862-6.984-1.67-1.803-1.375-3.572-2.5-3.93-2.5-.36 0-2.652 1.435-5.095 3.189l-4.44 3.189 2.777 1.23c3.931 1.74 9.856 1.661 13.417-.18zM32 270.622c0-.207-.787-.995-1.75-1.75-1.586-1.243-1.621-1.208-.378.378 1.307 1.666 2.128 2.195 2.128 1.372zm21.88-5.825c1.991 1.485 3.103 2.025 2.47 1.201-.878-1.144-.836-1.786.177-2.719 1.044-.96 1.446-.96 1.89 0 .31.672.295.096-.034-1.279-.329-1.375-1.234-3.169-2.013-3.987-1.23-1.292-1.33-1.063-.767 1.75.72 3.597-.078 3.993-3.382 1.68-1.224-.858-2.743-1.238-3.377-.846-.69.426-.882.274-.479-.379.371-.6 1.534-1.026 2.585-.947 1.051.08 1.72.454 1.486.832-.233.378.169.915.894 1.193.989.38 1.271-.64 1.128-4.072-.16-3.836.008-4.307 1.036-2.901 1.568 2.144 2.436 2.087 5.506-.362l2.5-1.994-2.75.992c-2.89 1.042-3.574.265-1.55-1.759.933-.933.156-1.2-3.5-1.2-4.078 0-4.7-.272-4.7-2.059 0-1.132-.355-1.84-.788-1.572-1.295.8-1.31-4.532-.018-6.265 1.071-1.436 1.028-1.447-.41-.104-1.671 1.559-4.034 8.786-3.275 10.015.239.386-1.175.574-3.142.418l-3.575-.283 2.354 2.56c2.309 2.512 2.312 2.54.147 1.413-1.214-.63-2.61-1.866-3.101-2.745-.77-1.376-.973-1.392-1.462-.116-.35.913.576 2.328 2.413 3.686 2.583 1.91 2.892 2.63 2.304 5.378-.373 1.746-1.14 3.747-1.705 4.448-.565.701-.738 1.563-.384 1.917.353.353.642.09.642-.583 0-.674.457-.943 1.016-.598.56.346.691 1.154.294 1.797-.397.643 1.23-.266 3.614-2.02l4.337-3.19 3.62 2.7zm-10.305-1.668c2.162-2.101 2.964-1.975 2.08.328-.326.849-1.36 1.543-2.299 1.543-1.53 0-1.508-.193.219-1.871zM44.5 258c-.34-.55-.168-1 .382-1s1.278.45 1.618 1c.34.55.168 1-.382 1s-1.278-.45-1.618-1zm3.51-1.487c-1.643-1.98-.564-4.513 1.923-4.513 2.155 0 4.075 2.724 3.349 4.75-.615 1.715-3.769 1.573-5.271-.237zM51 255c0-.55-.45-1-1-1s-1 .45-1 1 .45 1 1 1 1-.45 1-1zm-18.648 9.474c-.31-.805-1.04-1.166-1.627-.804-.695.43-.812-.007-.336-1.256.55-1.441.445-1.632-.422-.771-.866.858-.868 1.673-.01 3.278 1.243 2.322 3.31 1.936 2.395-.447zm40.455 0c-.308-.308-.867.247-1.243 1.233-.542 1.425-.428 1.54.56.56.684-.679.99-1.486.683-1.793zm-46.124-4.661c-.32-.798-.556-.561-.604.604-.043 1.054.193 1.644.525 1.312.332-.332.368-1.195.08-1.916zm45.836-8.562c-.583-3.11-.85-3.413-1.685-1.92-.624 1.116-.642 2.218-.05 2.971 1.184 1.503 1.202 5.008.03 5.778-.485.319-.548 1.444-.14 2.5 1.158 2.996 2.697-4.787 1.845-9.329zm2.197.999c-.229-1.512-.416-.275-.416 2.75s.187 4.263.416 2.75c.23-1.512.23-3.987 0-5.5zm-49.023 1.019c-.254-.973-.478-.419-.498 1.231-.02 1.65.187 2.446.46 1.769.275-.677.292-2.027.038-3zm3.899-1.421c-.612-3.826-.53-4.043 1.034-2.75 1.317 1.087 1.794 1.12 2.12.152.268-.796 2.401-1.25 5.869-1.25 4.302 0 5.569-.368 6.023-1.75 1.499-4.555 3.732-8.868 5.189-10.018 1.348-1.065 1.05-1.163-1.861-.607-6.387 1.218-10.807 4.58-15.736 11.97-1.205 1.807-1.241 1.794-.71-.26.31-1.192.098-2.453-.468-2.803-.633-.391-.776.024-.37 1.08.426 1.113.272 1.477-.44 1.038-1.52-.94-2.53 2.765-1.737 6.372.988 4.497 1.845 3.57 1.087-1.174zm-2.909-3.036c-.32-.797-.556-.56-.604.605-.043 1.054.193 1.644.525 1.312.332-.332.368-1.195.08-1.917zm26.117-4.956c-1.147-3.291-1.368-3.423-2.182-1.304-.362.943-.181 1.296.46.9.58-.36.972-.045.87.698-.102.742-.125 2.25-.051 3.35.104 1.558.329 1.692 1.016.606.52-.82.474-2.567-.113-4.25zm16.232-1.304c-3.514-5.686-11.945-11.12-13.457-8.673-.326.528.963 1.474 2.866 2.101 3.676 1.214 8.928 6.458 10.07 10.055.47 1.483 1.012 1.842 1.715 1.139.703-.703.327-2.162-1.194-4.622zm-4.627-3.802L62.5 236.5l2.25 1.905c1.238 1.048 2.25 2.06 2.25 2.25 0 .8-.805.21-2.595-1.905zm-35.023 3.698c.341-.89.173-1.291-.393-.94-.544.335-.989 1.033-.989 1.551 0 1.438.717 1.121 1.382-.61zm9.827-6.786c-.16-.499.426-.632 1.302-.296.922.354 1.336.195.982-.377-.336-.544-.98-.989-1.431-.989-1.575 0-9.132 8.078-8.505 9.092.716 1.159 8.106-6.015 7.652-7.43zM33 237.5c1.292-1.375 2.124-2.5 1.849-2.5-.275 0-1.557 1.125-2.849 2.5-1.292 1.375-2.124 2.5-1.849 2.5.275 0 1.557-1.125 2.849-2.5zm37 2.187c0-.172-1.462-1.635-3.25-3.25L63.5 233.5l2.937 3.25c2.738 3.03 3.563 3.71 3.563 2.937zm-24-5.07c0-.211-.9-.62-2.001-.907-1.101-.288-1.75-.115-1.441.383.538.871 3.442 1.313 3.442.524zM53.5 233c1.437-.617.452-.86-3.5-.86s-4.937.243-3.5.86c1.1.473 2.675.86 3.5.86.825 0 2.4-.387 3.5-.86zm-6.25-2.662c-.688-.278-1.813-.278-2.5 0-.688.277-.125.504 1.25.504s1.938-.227 1.25-.504zm8 0c-.688-.278-1.813-.278-2.5 0-.688.277-.125.504 1.25.504s1.938-.227 1.25-.504zm53.25 3.844c-10.265-4.806-15.512-13.264-15.483-24.96.024-9.614 3.544-16.344 11.363-21.722 5.799-3.989 5.842-4 15.467-4 8.407 0 10.204.316 13.92 2.444 5.733 3.283 10.487 9.636 12.714 16.994 1.6 5.282 1.678 6.774.608 11.555-1.637 7.314-6.468 14.259-12.508 17.978-4.32 2.66-5.962 3.063-13.5 3.306-6.72.217-9.448-.129-12.581-1.595zm9.25-.871c-.963-.252-2.538-.252-3.5 0-.963.251-.175.457 1.75.457s2.712-.206 1.75-.457zm8 0c-.963-.252-2.538-.252-3.5 0-.963.251-.175.457 1.75.457s2.712-.206 1.75-.457zm7-2.3c4.515-2.753 4.093-3.426-.5-.797-4.62 2.645-4.806 2.787-3.667 2.782.504-.002 2.38-.895 4.167-1.985zm-22.75.596c0-.216-.698-.661-1.552-.989-.89-.341-1.291-.173-.94.393.586.95 2.492 1.406 2.492.596zm18.532-1.056c1.907-.797 3.468-1.922 3.468-2.5 0-1.416-.558-1.335-4.3.627-2.88 1.51-13.686 2.552-13.707 1.322-.017-1.009-5.308-2.925-6.383-2.312-.61.348-.772.26-.358-.197 1.009-1.111-2.243-4.614-3.54-3.813-.562.347-.766.219-.455-.285.689-1.115-1.278-3.793-3.053-4.157-3.859-.791 5.48 8.873 10.796 11.172 4.477 1.936 13.072 2.006 17.532.143zm.468-4.1c4.292-2.184 10-9.607 10-13.005 0-1.126.576-1.398 2-.946 1.75.555 2 .18 2-3 0-3.095-.278-3.547-1.87-3.041-1.469.466-1.996-.038-2.458-2.351-.62-3.096-5.654-9.493-8.795-11.174-1.017-.544-3.9-1.372-6.409-1.841-4.163-.778-4.437-.71-3.15.778.774.896 2.206 3.766 3.181 6.379l1.773 4.75h6.364c7.885 0 8.194 1.247 1.673 6.751l-4.691 3.96 1.765 4.62c2.786 7.297 1.025 8.422-5.817 3.714l-4.295-2.955-4.121 3.031c-5.318 3.91-7.752 3.532-7.364-1.146.157-1.895.72-3.88 1.25-4.41 1.893-1.895.82-4.113-3.541-7.321-5.795-4.262-5.16-6.052 2.289-6.447l5.605-.297 1.73-5.84 1.729-5.839-2.674.65c-11.307 2.75-17.485 16.12-12.218 26.443 2.325 4.558 7.158 8.858 10.871 9.674 1.47.323 3.123.73 3.673.905 1.738.552 8.899-.72 11.5-2.043zm12.26-8.336c.962-3.68-.982-4.486-2.166-.9-.627 1.9-2.464 4.723-4.082 6.273-1.617 1.55-2.654 3.282-2.304 3.85.746 1.206 7.82-6.422 8.552-9.223zm1.38 2.615c.829-1.604 1.25-3.174.934-3.49-.316-.315-.574-.111-.574.454 0 .565-1.18 2.765-2.621 4.89-1.442 2.124-1.862 3.232-.934 2.462s2.365-2.712 3.195-4.316zM101 224.622c0-.207-.787-.995-1.75-1.75-1.586-1.243-1.621-1.208-.378.378 1.307 1.666 2.128 2.195 2.128 1.372zM120.454 217c.716 0 1.853.666 2.529 1.479.91 1.098 1.715 1.218 3.122.465 1.595-.854 1.913-.652 2.011 1.27.068 1.349.288 1.65.535.734.23-.853-.254-3.103-1.077-5-.823-1.897-1.513-2.661-1.535-1.698-.021.963-.489 1.75-1.039 1.75-1.302 0-1.29-1.702.016-2.51.56-.346.76-1.042.448-1.548-.312-.505.018-.704.734-.44.716.263 3.102-1.075 5.302-2.974 2.2-1.9 3.437-3.47 2.75-3.49-.688-.021-1.25.398-1.25.93 0 .533-.788.716-1.75.406-1.204-.387-1.363-.283-.51.334.876.634.193 1.276-2.325 2.187-1.96.709-3.831 1.022-4.157.697-.325-.326.271-.599 1.325-.607 1.633-.013 1.694-.176.417-1.095-1.287-.925-1.263-1.003.167-.547.917.292 1.898-.07 2.18-.803.356-.93-.759-1.525-3.685-1.963-3.482-.523-4.437-1.172-5.605-3.81l-1.408-3.18-1.158 3.456c-1.09 3.254-1.468 3.486-6.441 3.957-4.992.472-5.18.59-3.417 2.122 1.027.891 2.922 2.167 4.211 2.835 1.747.905 2.191 1.766 1.742 3.379-1.668 5.997-1.74 6.664-.726 6.664.593 0 .818-.675.502-1.5-.317-.825-.11-1.5.458-1.5.568 0 1.241-.787 1.495-1.75s.43-.4.392 1.25c-.038 1.65-.55 3.67-1.138 4.49-.588.819.428.256 2.258-1.25 1.83-1.507 3.912-2.74 4.627-2.74zm4.359.317c.721-.289 1.584-.253 1.916.079.332.332-.258.568-1.312.525-1.165-.048-1.402-.285-.605-.604zm-2.743-3.067c-.038-.688-.984-1.25-2.101-1.25-1.118 0-2.29-.672-2.605-1.494-.316-.822-1.089-1.177-1.719-.788-.63.389-.02-.714 1.355-2.45 1.375-1.737 3.4-3.13 4.5-3.097 1.664.05 1.706.138.25.518-2.074.542-2.355 2.311-.367 2.311 1.741 0 2.55 2.91 1.532 5.516-.426 1.091-.806 1.421-.845.734zm-1.07-3.691c0-.243-.45-.72-1-1.059-.55-.34-1-.141-1 .441s.45 1.059 1 1.059 1-.198 1-.441zm-11.25-2.248c-2.756-.72-2.043-1.899 1.124-1.857 1.883.025 2.708.47 2.393 1.292-.5 1.301-.623 1.321-3.517.565zm5.329-1.894c.048-1.165.285-1.402.604-.604.289.721.253 1.584-.079 1.916-.332.332-.568-.258-.525-1.312zm2-1c.048-1.165.285-1.402.604-.604.289.721.253 1.584-.079 1.916-.332.332-.568-.258-.525-1.312zM117 202c0-.55.45-1 1-1s1 .45 1 1-.45 1-1 1-1-.45-1-1zm-17.638 14.5c.316-.825.14-1.5-.393-1.5s-.969.675-.969 1.5.177 1.5.393 1.5c.216 0 .652-.675.969-1.5zm-3.679-3.688c-.32-.797-.556-.56-.604.605-.043 1.054.193 1.644.525 1.312.332-.332.368-1.195.08-1.917zm2.035-5.548c-.23-1.52-.424-.514-.432 2.236-.007 2.75.18 3.994.418 2.764.237-1.23.243-3.48.014-5zm-2.035-2.452c-.32-.797-.556-.56-.604.605-.043 1.054.193 1.644.525 1.312.332-.332.368-1.195.08-1.917zm6.664-5.517c1.784-3.449 6.78-7.646 10.418-8.75 1.245-.38 2.076-.994 1.846-1.367-.23-.373 2.014-.702 4.986-.73 2.972-.03 5.403.217 5.403.548 0 .331 1.536 1.158 3.414 1.837 4.345 1.571 10.462 8.298 11.284 12.41.534 2.667.744 2.857 1.338 1.21.838-2.32-1.799-7.981-5.189-11.14-3.644-3.398-10.892-6.268-15.847-6.277-5.49-.01-9.164.89-8.437 2.066.298.481-.184.597-1.07.257-2.497-.958-11.801 9.094-10.937 11.816.485 1.53.323 1.868-.619 1.286-.92-.568-1.09-.301-.607.957.369.96.709 2.271.756 2.914.047.642.429.04.848-1.338.42-1.379 1.506-3.943 2.413-5.699zm-2.347.764c0-.518.445-1.216.989-1.552.566-.35.734.051.393.941-.665 1.732-1.382 2.05-1.382.611zm4.004-5.4c1.373-1.564 3.396-3.306 4.496-3.873 2.105-1.085 2.044-1.02-3.496 3.722l-3.497 2.992zm18.451 6.091c-.944-3.124-2.09-4.15-2.997-2.683-.494.8-.357.988.387.528.758-.468 1.155.166 1.155 1.846 0 1.407.48 2.559 1.067 2.559.642 0 .797-.897.388-2.25zm19.67-3.017c-.989-.98-1.103-.865-.56.56.375.986.934 1.541 1.242 1.233.308-.307 0-1.114-.683-1.793zm-42.636-1.356c.945-1.443 1.224-2.318.62-1.944-1.154.713-3.483 4.567-2.76 4.567.232 0 1.194-1.18 2.14-2.623zM120 194.882c0-.55-.45-.722-1-.382-.55.34-1 1.068-1 1.618s.45.722 1 .382c.55-.34 1-1.068 1-1.618zm21 .814c0-.167-1.688-1.854-3.75-3.75l-3.75-3.446 3.446 3.75c3.208 3.49 4.054 4.21 4.054 3.446zM111.306 187c.565 0 .77-.258.454-.574-.772-.771-6.06 2.026-7.806 4.13-.77.927.338.507 2.462-.935 2.125-1.441 4.325-2.621 4.89-2.621zm11.944-1.723c-1.788-.222-4.713-.222-6.5 0-1.788.221-.325.403 3.25.403s5.037-.182 3.25-.403zm-81.256 5.849c-10.954-3.594-17.838-12.258-18.737-23.58-.89-11.212 3.618-20.101 13.2-26.025 4.405-2.723 5.682-3.017 12.965-2.98 9.143.048 12.736 1.44 18.886 7.32 5.59 5.342 7.984 11.221 7.999 19.639.027 14.927-10.08 25.358-25.307 26.122-3.575.18-7.628-.044-9.006-.496zm10.27-1.83c-1.23-.237-3.48-.243-5-.014-1.52.23-.514.425 2.236.432 2.75.007 3.994-.18 2.764-.418zm2.218-2.267c2.19-.508 4.142-1.4 4.336-1.982.194-.583.737-.822 1.208-.531.47.29 2.48-.899 4.465-2.642 4.37-3.837 7.103-8.68 5.693-10.09-.647-.647-1.221-.242-1.673 1.181-1.035 3.262-6.117 8.629-9.494 10.028-1.645.681-2.746 1.637-2.445 2.123.667 1.08-1.617 1.143-3.273.09-.765-.486.61-1.593 3.795-3.055C62.554 179.647 68 173.284 68 169.41c0-3.224 1.837-3.987 2.945-1.223.739 1.842.928 1.192.928-3.186s-.189-5.028-.928-3.186C69.85 164.546 68 163.83 68 160.674c0-3.18-4.337-9.101-8.594-11.732-6.904-4.267-18.641-2.577-23.722 3.416-1 1.178-2.677 3.942-3.728 6.142-1.052 2.2-1.922 3.382-1.934 2.628-.018-1.107-.313-1.132-1.522-.128-1.728 1.434-2.05 8-.393 8 .609 0 .837.704.507 1.563-.737 1.922 2.014 7.514 3.533 7.18.607-.134 1.33.382 1.608 1.146.35.966.084 1.136-.875.558-1.168-.703-1.17-.573-.018.849 2.345 2.891 7.809 5.768 9.629 5.07 1.372-.528 1.044-.942-1.637-2.07-1.845-.775-3.457-1.272-3.582-1.103-.126.169-1.746-2.048-3.6-4.926-1.855-2.879-3.736-4.904-4.181-4.5-.445.403-.513-.091-.15-1.099.362-1.007.69-2.582.73-3.5.038-.917.697.04 1.463 2.128 2.7 7.357 7.936 12.1 14.598 13.226 4.479.757 7.393 3.358 3.5 3.124-1.342-.08-2.232-.483-1.977-.896.576-.932-.926-.967-3.25-.075-1.632.626-1.62.73.168 1.43 2.636 1.032 5.215 1.012 9.91-.076zM62 182.687c0-.172 1.462-1.635 3.25-3.25l3.25-2.937-2.937 3.25c-2.738 3.03-3.563 3.71-3.563 2.937zm-23.52-3.937c-.252-.688.145-3.263.883-5.723l1.342-4.472-4.409-3.366c-4.82-3.68-5.531-6.943-1.386-6.353 1.299.185 3.819.062 5.6-.272 2.8-.525 3.508-1.316 5.225-5.836 2.607-6.86 4.978-7.04 7.179-.549.872 2.574 1.877 4.965 2.233 5.314.356.349 3.056.718 6 .82 4.527.158 5.392.495 5.609 2.187.18 1.405-1.085 2.892-4.248 5-2.477 1.65-4.309 3.45-4.07 4 3.514 8.123 2.754 12.363-1.713 9.547-7.344-4.629-7.042-4.583-11.272-1.709-4.3 2.922-6.274 3.322-6.973 1.412zm7.878-4.16c1.573-1.286 2.44-2.597 1.928-2.913-.511-.316-2.095.752-3.518 2.374-3.092 3.524-2.362 3.772 1.59.539zm11.627-1.84c.008-.963-.322-1.75-.735-1.75-1.253 0-.811-6.853.513-7.963.912-.765.974-.722.237.163-2.732 3.278-.082 3.728 3.243.55 1.295-1.238 1.48-1.575.41-.75-1.843 1.422-1.881 1.38-.738-.797 1.1-2.096 1.003-2.28-1.104-2.095-5.623.494-6.358.035-7.643-4.769-.867-3.243-1.564-4.343-2.292-3.615-.728.728-.556 1.993.565 4.161.904 1.748 1.16 3.115.585 3.115-.564 0-1.046-.787-1.071-1.75-.029-1.11-.55-.653-1.426 1.25-1.358 2.95-1.374 2.917-.959-2 .404-4.781.376-4.847-.625-1.5-.575 1.925-1.99 4.3-3.143 5.28l-2.096 1.778 2.156 2.295c1.186 1.263 1.916 2.535 1.623 2.829-.293.293 2.027 2.64 5.156 5.217 5.752 4.735 7.305 4.81 7.344.351zm-3.604.488c-1.01-1.617-.228-6.238 1.055-6.238.276 0 .272.597-.008 1.328-.28.73-.052 2.53.506 4 1.144 3.007.128 3.602-1.553.91zm-5.01-3.532c-.38-.663-.323-.872.127-.465.45.408 1.422.24 2.16-.372.844-.7 1.342-.737 1.342-.098 0 1.561-2.848 2.296-3.628.935zm-2.01-3.206c-.892-2.327.366-4.5 2.608-4.5 1.364 0 2.031.656 2.031 2 0 2.463 1.685 2.646 2.31.25.43-1.646.465-1.644.574.025.068 1.048-.935 2.174-2.45 2.75-3.486 1.326-4.398 1.231-5.072-.525zM51 165c0-.55-.45-1-1-1s-1 .45-1 1 .45 1 1 1 1-.45 1-1zm-6.85-1.95c.43-1.29 1.801-1.52 1.925-.325.041.399-.465.905-1.125 1.125-.66.22-1.02-.14-.8-.8zm-1.91 11.598c.637.394.777.188.345-.51-.85-1.377-2.62-.55-2.506 1.171.056.852.223.834.585-.065.279-.691.988-.96 1.576-.596zm1.041-4.398c-.594-1.586-.474-1.611 1.282-.267 1.91 1.462 1.91 1.45.032-.75-1.442-1.69-1.563-2.24-.5-2.263 1.656-.036-1.8-2.267-4.068-2.625-.81-.129-2.042-1.013-2.74-1.966-.696-.953-1.517-1.483-1.823-1.177-.306.306 1.221 1.965 3.394 3.686 2.897 2.294 3.812 3.66 3.43 5.12-.287 1.096-.033 1.992.564 1.992.617 0 .802-.755.43-1.75zm-2.552-9.854c-.332-.332-1.195-.368-1.916-.08-.798.32-.561.557.604.605 1.054.043 1.644-.193 1.312-.525zm25.32 22.94c2.231-2.015 4.519-4.602 5.085-5.75.565-1.147-.152-.642-1.594 1.123-1.442 1.765-4.066 4.348-5.83 5.74-1.766 1.39-2.874 2.534-2.463 2.54.411.006 2.572-1.638 4.803-3.653zM35 184.674c0-.179-1.238-1.416-2.75-2.75L29.5 179.5l2.424 2.75c2.266 2.57 3.076 3.209 3.076 2.424zm-9.317-15.862c-.32-.797-.556-.56-.604.605-.043 1.054.193 1.644.525 1.312.332-.332.368-1.195.08-1.917zm48.98-5.062c-.278-.688-.505-.125-.505 1.25s.227 1.938.504 1.25c.278-.688.278-1.813 0-2.5zm-48.98-2.938c-.32-.797-.556-.56-.604.605-.043 1.054.193 1.644.525 1.312.332-.332.368-1.195.08-1.917zm4.302-3.366c.008.52 1.307-1.092 2.886-3.582 1.817-2.865 4.407-5.287 7.051-6.596 2.299-1.137 3.707-2.225 3.129-2.418-.578-.192 2.286-.35 6.366-.35 4.079 0 7.24.176 7.026.39-.215.216 1.592 1.649 4.016 3.186s5.45 4.62 6.724 6.852C69.409 158.826 71 160.106 71 158c0-.55-.477-1-1.059-1s-.769-.47-.414-1.043c1.008-1.632-4.142-7.647-8.97-10.477-3.165-1.854-5.161-2.391-7.216-1.94-2.174.476-2.489.372-1.341-.444 1.178-.837.749-1.065-2-1.065-2.725 0-3.168.231-2 1.045 1.12.78.696.887-1.677.421-3.619-.71-9.813 1.901-8.716 3.675.398.645.106.884-.718.588-1.956-.703-4.877 2.109-4.152 3.998.388 1.01.2 1.321-.524.873-.664-.41-1.762.53-2.67 2.287-1.697 3.281-2.081 5.463-.543 3.082.533-.825.976-1.074.985-.554zm33.887-8.196c-1.243-1.586-1.208-1.621.378-.378.963.755 1.75 1.543 1.75 1.75 0 .823-.821.294-2.128-1.372zM73 156.191c0-.445-.682-1.682-1.516-2.75-1.406-1.8-1.43-1.741-.34.809 1.178 2.751 1.856 3.461 1.856 1.941zm-5.563-8.277c-1.615-1.697-3.837-3.562-4.937-4.143-1.1-.582.025.788 2.5 3.045 5.345 4.873 6.543 5.413 2.437 1.098zM33 147.5c1.292-1.375 2.124-2.5 1.849-2.5-.275 0-1.557 1.125-2.849 2.5-1.292 1.375-2.124 2.5-1.849 2.5.275 0 1.557-1.125 2.849-2.5zm7.917-5.135c1.372-1.201-1.883-.086-3.476 1.19-1.83 1.467-1.798 1.487.559.365 1.375-.655 2.688-1.355 2.917-1.555zM55.5 141c-1.1-.473-4.025-.82-6.5-.773l-4.5.087 5 .686c7.154.981 8.283.981 6 0zm125.094 48.99c-5.801-2.265-9.786-5.822-13.433-11.99-2.32-3.923-2.661-5.59-2.661-13 0-7.578.311-9.02 2.868-13.289C172.627 142.93 179.979 139 191.152 139c9.044 0 14.12 2.284 20.263 9.117 5.16 5.74 7.236 12.915 6.136 21.21-2.279 17.176-20.211 27.203-36.957 20.664zm13.156-.706c-1.512-.23-3.987-.23-5.5 0-1.512.229-.275.416 2.75.416s4.263-.187 2.75-.416zm3.085-1.936c1.743-.467 1.996-.84 1-1.471-1.826-1.158-3.085-1.091-2.335.123.381.617-1.343 1-4.5 1-2.855 0-4.867-.406-4.55-.919.312-.505-.847-1.229-2.577-1.609-1.73-.38-5.096-2.643-7.482-5.028-2.386-2.386-4.612-3.896-4.946-3.355-.814 1.317 7.199 9.25 8.519 8.433.57-.352 1.036-.137 1.036.478s.453.838 1.008.495c.554-.342 1.711.081 2.571.941 1.605 1.605 7.913 2.074 12.256.912zm-21.91-7.098l-2.425-2.75 2.75 2.424c2.57 2.266 3.209 3.076 2.424 3.076-.179 0-1.416-1.238-2.75-2.75zm3.525 5.992c-.522-.417-2.32-1.879-3.996-3.25-2.89-2.364-2.879-2.326.235.758 1.805 1.788 3.603 3.25 3.996 3.25.393 0 .287-.341-.235-.758zm22.009-1.309c-.368-.594-.049-.926.72-.75.76.174 1.48-.02 1.6-.433.264-.897-.625-.934-3.161-.129-1.509.48-1.608.771-.5 1.473 1.831 1.16 2.134 1.123 1.34-.16zM209 182.5c1.292-1.375 2.124-2.5 1.849-2.5-.275 0-1.557 1.125-2.849 2.5-1.292 1.375-2.124 2.5-1.849 2.5.275 0 1.557-1.125 2.849-2.5zm-10.03-.105c4.478-1.791 10.03-8.453 10.03-12.033 0-2.547 1.593-4.02 2.29-2.118.343.937.766.969 1.664.127 1.668-1.564.427-9.067-2.294-13.868-2.646-4.671-9.027-10.013-10.714-8.97-1.49.92 2.985 3.6 4.541 2.719.557-.315.68-.204.272.246-1.015 1.12 1.213 3.637 2.509 2.836.648-.4.736-.15.232.666-.57.921-.421 1.07.5.5.82-.507 1.066-.417.66.241-.778 1.26 1.754 6.512 2.688 5.577.837-.837.846 2.013.013 4.184-.498 1.298-.817 1.378-1.445.363-.615-.996-1.82-.562-5.11 1.84-4.481 3.27-4.607 3.689-3.303 11.045.686 3.873.57 4.25-1.316 4.25-1.138 0-2.349-.453-2.691-1.007-.343-.554-1.99-1.714-3.661-2.579-2.867-1.482-3.167-1.45-5.297.55-1.241 1.167-3.558 2.214-5.148 2.329-2.597.186-2.886-.097-2.854-2.793.02-1.65.355-4.197.746-5.66.633-2.37.219-2.972-3.784-5.5-2.529-1.598-4.495-3.605-4.496-4.59-.001-1.47.946-1.75 5.915-1.75h5.918l1.693-4.75c.93-2.613 1.866-5.346 2.08-6.074.873-2.991 3.76-.466 5.513 4.824 1.002 3.025 1.835 5.612 1.85 5.75.016.137 2.692.25 5.946.25 3.797 0 6.097.448 6.42 1.25.327.808.533.684.584-.35.043-.88-1.219-3.391-2.805-5.58-8.167-11.276-24.732-10.22-32.195 2.05l-1.796 2.954.088-3.127c.05-1.72.402-2.935.785-2.698.383.236 1.943-.871 3.466-2.462 1.524-1.59 4.062-3.427 5.64-4.08 1.58-.654 2.628-1.581 2.332-2.061-.297-.48 1.503-.592 4.012-.248 3.097.424 4.552.26 4.552-.512 0-.655-1.66-1.136-3.918-1.136-4.832 0-7.281.869-6.412 2.275.417.674.029.823-1.058.406-1.156-.443-1.482-.28-1 .5.472.763.173.95-.875.548-2.286-.877-10.166 7.797-9.164 10.087.405.926 1.044 4.609 1.419 8.184 1.024 9.767 3.914 14.327 11.038 17.417 4.56 1.978 10.964 1.97 15.94-.022zM173 152.687c0-.172 1.462-1.635 3.25-3.25l3.25-2.937-2.937 3.25c-2.738 3.03-3.563 3.71-3.563 2.937zm34.4 27.151c-.342-.553-1.15-.46-1.978.227-.77.639-1.14 1.582-.822 2.097.342.553 1.15.46 1.978-.227.77-.639 1.14-1.582.822-2.097zm3.157-4.55c-.294-.766-.136-1.146.35-.846.486.3 1.156-.163 1.488-1.03.87-2.265.747-3.412-.364-3.412-.532 0-.686.787-.34 1.75.345.963.257 1.413-.196 1.002-.941-.854-4.465 4.329-3.772 5.547.751 1.319 3.411-1.507 2.834-3.011zM213 177c.589-1.1.845-2 .57-2s-.981.9-1.57 2c-.589 1.1-.845 2-.57 2s.981-.9 1.57-2zm-26.523-.974c2.777-3.069 5.234-3.398 8.163-1.095 3.215 2.53 5.387 2.66 5.281.319-.047-1.045-.282-1.247-.583-.5-.278.688-.944 1.25-1.48 1.25-.537 0-.655-.52-.263-1.155.443-.715.275-.883-.44-.44-.635.392-1.155.27-1.155-.273 0-.542-.787-1.225-1.75-1.517-.963-.293-.367-.415 1.323-.273 2.766.234 3.027.016 2.609-2.172-.359-1.876.424-3.229 3.426-5.916 2.14-1.917 3.104-2.927 2.142-2.247-.963.681-1.75.903-1.75.493 0-.41-.76-.127-1.687.628-1.478 1.201-1.606 1.154-1.032-.378.512-1.364.125-1.75-1.753-1.75-2.608 0-3.773-1.257-4.131-4.458-.126-1.123-.885-3.295-1.687-4.827-1.33-2.539-1.505-2.608-1.982-.784-.307 1.177-.06 1.912.6 1.785.66-.127 1.181 1.43 1.266 3.784.079 2.2-.056 3.213-.299 2.25-.243-.962-.859-1.75-1.368-1.75-.51 0-.956-.787-.99-1.75-.047-1.295-.308-1.14-1.002.592-1.114 2.779-.157 5.037 1.277 3.015.705-.994.835-.777.49.813-.349 1.6.088 2.311 1.662 2.707 1.175.295 3.036 1.267 4.136 2.161 1.275 1.036 1.456 1.485.5 1.24-.825-.213-2.467.621-3.648 1.853-2.335 2.433-2.12 3.576.496 2.64.908-.324 1.375-.279 1.037.101-.338.38-1.688.892-3 1.138-1.312.246-3.172 1.407-4.135 2.58l-1.75 2.132v-2.611c0-1.436-.45-2.611-1-2.611-1.239 0-1.239.202.006 3.685.918 2.57.88 2.652-.447.947-1.399-1.8-1.446-1.79-1.293.25.2 2.654 1.887 2.711 4.211.144zM195 169.94c0-.582.45-.78 1-.441.55.34 1 .816 1 1.059s-.45.441-1 .441-1-.477-1-1.059zm-23 2.941c0-.55-.498-.692-1.107-.316-.759.469-.88-.064-.388-1.69.558-1.841.447-2.117-.492-1.227-1.37 1.3-.399 5.707 1.059 4.806.51-.315.928-1.023.928-1.573zm16.284-2.74c-.981-.196-2.371-.835-3.09-1.418-1.064-.865-1.086-.581-.121 1.536 1.017 2.233 1.45 2.432 3.089 1.419 1.784-1.104 1.791-1.202.122-1.537zm-21.568-7.892c-.229-1.512-.416-.275-.416 2.75s.187 4.263.416 2.75c.23-1.512.23-3.987 0-5.5zm49.002 1.014c-.23-1.52-.424-.514-.432 2.236-.007 2.75.18 3.994.418 2.764.237-1.23.243-3.48.014-5zm-46.168.08c-.406-1.62-.261-2.283.41-1.869 1.249.772 1.336-.46.163-2.31-1.062-1.676-2.103 1.745-2.079 6.835.014 2.948.184 3.213 1.077 1.678.583-1.003.776-2.953.43-4.334zm19.66 4.406c-.568-.688-1.185-2.6-1.372-4.25-.288-2.558-.706-2.949-2.838-2.652-3.484.484-3.809 1.087-1.498 2.778 1.826 1.337 2.055 1.265 2.666-.832.538-1.848.643-1.667.539.933-.124 3.11-.21 3.174-2.383 1.75-1.24-.812-2.971-1.477-3.848-1.477-.992 0-1.322-.472-.875-1.25.396-.688.351-.916-.099-.509-.45.408-1.534.246-2.41-.36-.876-.606-.034.297 1.87 2.008 1.904 1.711 4.24 3.111 5.191 3.111.951 0 2.007.45 2.347 1 .34.55 1.322 1 2.181 1 1.136 0 1.28-.342.53-1.25zM192 166c0-.55-.45-1-1-1s-1 .45-1 1 .45 1 1 1 1-.45 1-1zm-11.27-5.604c-.333-.332-1.196-.368-1.917-.08-.798.32-.561.557.604.605 1.054.043 1.644-.193 1.312-.525zm33.953-2.583c-.32-.798-.556-.561-.604.604-.043 1.054.193 1.644.525 1.312.332-.332.368-1.195.08-1.917zm-45.301-3.365c.341-.89.173-1.291-.393-.94-.544.335-.989 1.033-.989 1.551 0 1.438.717 1.121 1.382-.61zm42.648-2.392c-.573-1.07-1.535-2.25-2.14-2.623-.603-.374-.324.501.621 1.944 2.002 3.055 3.038 3.518 1.519.679zm-4.03-4.434c0-.207-.787-.995-1.75-1.75-1.586-1.243-1.621-1.208-.378.378 1.307 1.666 2.128 2.195 2.128 1.372zm-30.872-2.372c1.243-1.586 1.208-1.621-.378-.378-1.666 1.307-2.195 2.128-1.372 2.128.207 0 .995-.787 1.75-1.75zm22.302-.136c.301-.488-.46-1.157-1.691-1.487-3.106-.832-3.739-.774-3.739.342 0 .532.749.68 1.664.33 1.119-.43 1.427-.256.941.531-.43.695-.114 1.17.777 1.17.825 0 1.746-.399 2.048-.886zm3.129-1.646c-1.068-.807-2.418-1.452-3-1.433-.583.02.066.679 1.441 1.465 3.24 1.852 4.028 1.836 1.559-.032zm-15.83-2.072c-.332-.332-1.195-.368-1.917-.08-.797.32-.56.557.605.605 1.054.043 1.644-.193 1.312-.525zm10.521-.058c-.688-.278-1.813-.278-2.5 0-.688.277-.125.504 1.25.504s1.937-.227 1.25-.504zm-4.52-.942c-.333-.332-1.196-.368-1.918-.08-.797.32-.56.557.605.605 1.054.044 1.644-.193 1.312-.525zm-8.997-40.43c-7.253-1.813-13.713-7.101-17.326-14.183-1.9-3.723-2.402-6.25-2.385-12 .026-8.515 2.02-13.759 7.209-18.947C176.944 49.122 181.316 47.5 191 47.5c7.744 0 8.944.274 13.486 3.076 2.743 1.692 6.54 5.238 8.436 7.879 3.123 4.347 3.491 5.584 3.883 13.049.253 4.83-.051 9.712-.736 11.787-1.61 4.878-8.232 12.126-13.33 14.59-5.043 2.437-13.769 3.394-19.006 2.085zm9.029-1.653c-.956-.25-2.756-.26-4-.02-1.244.239-.462.444 1.738.455 2.2.01 3.218-.185 2.262-.435zm-7.033-.917c-.332-.332-1.195-.368-1.917-.08-.797.32-.56.557.605.605 1.054.043 1.644-.193 1.312-.525zm8.914-2.018c2.42.55 2.571.477.989-.48-1.043-.63-4.01-.924-6.717-.664-2.666.256-4.611.083-4.322-.384.47-.762-1.122-1.199-4.176-1.146-.596.01-1.084-.614-1.084-1.386 0-.87.603-1.173 1.581-.797 5.995 2.3 11.39 2.635 15.736.975 2.46-.94 4.734-1.446 5.054-1.125.32.32-.155.865-1.055 1.21-.9.346-1.359 1.08-1.018 1.63.386.626-.275.757-1.756.348-1.996-.55-2.098-.48-.638.436 2.101 1.318 6.213-.458 5.127-2.215-.442-.715-.128-.904.865-.522 1.766.677 6.478-3.703 4.98-4.629-.518-.32-1.747.308-2.73 1.395-3.362 3.714-3.654 1.985-.367-2.166 2.708-3.419 3.354-5.209 3.699-10.25.23-3.363 1.073-6.854 1.876-7.767 1.28-1.456 1.269-2.026-.088-4.65-2.334-4.513-9.566-10.336-11.913-9.591-1.275.404-1.703.236-1.252-.493.376-.609.234-1.107-.316-1.107-2.122 0-2.034 1.89.117 2.544 1.246.379 3.672 1.741 5.392 3.029 1.72 1.287 3.444 2.022 3.833 1.634.389-.389.557-.032.373.793-.183.825.213 1.393.881 1.262.749-.147.971.395.58 1.414-.46 1.197-.27 1.427.69.834.924-.57 1.088-.435.542.447-.444.72-.248 1.597.453 2.03.84.519.894.973.17 1.42-.585.362-1.715-.594-2.511-2.124-2.818-5.417-10.137-10.31-15.338-10.253-2.264.025-2.486.214-1.162.988.901.526 1.944 2.2 2.318 3.72C194.91 65.65 196.595 67 202.523 67c4.677 0 5.477.272 5.477 1.864 0 1.046-1.755 3.08-4 4.636-4.51 3.126-4.43 2.865-2.794 8.98 1.772 6.627.226 7.601-5.65 3.558l-4.624-3.181-4.638 3.071C183.744 87.618 181 89 180.198 89c-1.482 0-1.435-1.282.349-9.68.616-2.9.316-3.43-3.398-6-4.548-3.149-5.473-6.269-1.899-6.407 4.245-.163 8.942-.772 9.386-1.216.244-.244 1.287-2.75 2.318-5.57 2.12-5.803 1.726-6.073-4.642-3.182-2.462 1.118-5.487 3.685-7.339 6.228-2.913 4.002-3.122 4.824-2.786 10.938.282 5.137.973 7.532 3.102 10.75 1.507 2.276 2.309 4.139 1.782 4.139-.527 0-2.049-1.83-3.382-4.066-1.855-3.11-2.57-3.686-3.045-2.448-.383.998-.217 1.368.434.966.627-.388.927.099.739 1.198-.197 1.149.203 1.74 1.056 1.56.83-.177 1.157.27.828 1.127-.703 1.832 1.13 3.665 2.962 2.962.848-.325 1.302-.005 1.128.795-.425 1.959 6.185 5.082 9.459 4.47 1.78-.332 2.755-.082 2.765.711.01.849.285.8.893-.16.592-.936 1.806-1.175 3.735-.737zM205.5 89c.995-1.1 2.035-2 2.31-2 .275 0-.315.9-1.31 2-.995 1.1-2.035 2-2.31 2-.275 0 .315-.9 1.31-2zm-27.527 5.347c-1.36-.91-3.625-2.597-5.032-3.75-1.407-1.154-.787-.41 1.379 1.653 2.165 2.063 4.43 3.75 5.031 3.75.602 0-.019-.744-1.378-1.653zm30.59-3.597l2.937-3.25-3.25 2.937c-3.03 2.738-3.71 3.563-2.937 3.563.172 0 1.635-1.462 3.25-3.25zM214 82.642c0-1.27-.462-.703-1.92 2.358-1.122 2.357-1.102 2.39.365.559.855-1.068 1.555-2.38 1.555-2.917zm-27 .858c4.096-3.022 5.154-3.093 7.5-.5.995 1.1 2.29 2 2.877 2 .588 0 .11-.672-1.063-1.493-1.462-1.024-1.957-2.157-1.576-3.613.494-1.891.326-1.999-1.551-.994-1.158.62-2.462 1.05-2.896.955-1.452-.317-4.287 1.343-3.757 2.2.681 1.103-3.281 3.22-4.555 2.432-.538-.333-.979-.128-.979.454 0 1.775 2.433 1.19 6-1.441zm23.961.572c.568-1.06.74-2.687.383-3.617-.528-1.377-.872-1.159-1.857 1.178-1.72 4.081-.492 6.114 1.474 2.44zm-12.154-3.598c-.308-.308-.867.247-1.243 1.233-.542 1.425-.428 1.54.56.56.684-.679.99-1.486.683-1.793zm-28.425-.026c.341-.89.173-1.291-.393-.94-.544.335-.989 1.033-.989 1.551 0 1.438.717 1.121 1.382-.61zm14.382-2.03c-.22-2.66-1.188-2.08-2.217 1.326-.533 1.763-.347 2.116.868 1.65.889-.34 1.462-1.606 1.349-2.977zm12.102-1.251c-.476-.184-.866-.773-.866-1.31 0-.536.388-.735.863-.442.475.294 2.612-1.08 4.75-3.052s3.17-3.09 2.295-2.483c-.876.606-1.96.77-2.41.361-.45-.407-.495-.178-.1.509.441.766.135 1.25-.79 1.25-.83 0-1.967.787-2.528 1.75-.935 1.605-1.022 1.61-1.05.059-.016-.93.42-1.97.97-2.309 1.706-1.055 1.104-2.346-1.25-2.68-1.66-.236-2.603-1.436-3.595-4.57-.74-2.338-1.752-3.999-2.25-3.691-.498.307-.905 1.009-.905 1.559s.45.722 1 .382c1.525-.943 1.191 1.452-.429 3.071-1.956 1.957-2.83 1.795-1.741-.321.495-.963.693-2.328.44-3.034-.252-.706.146-2.056.885-3 1.213-1.548 1.174-1.582-.405-.344-.963.755-1.757 2.105-1.765 3-.008.896-.582 2.75-1.276 4.122-1.059 2.092-1.903 2.463-5.236 2.3-2.834-.139-3.31.006-1.664.506 1.27.385 2.263 1.062 2.206 1.504-.056.442.93 1.665 2.191 2.717 1.262 1.052 1.901 1.927 1.422 1.946-.48.018-.255.794.5 1.725.908 1.12.953 1.44.133.948-.838-.503-1.048-.248-.65.79.46 1.196 1.026 1.3 2.572.472 1.91-1.022 1.917-1.134.194-3.038-1.454-1.606-1.567-2.33-.603-3.874.66-1.055.788-2.143.29-2.45-.49-.304-1.121.013-1.4.704-.362.899-.529.917-.585.065-.106-1.598 1.981-2.809 2.783-1.614.35.523 1.425 1.241 2.388 1.597 1.15.424 1.75 1.705 1.75 3.736 0 1.805-.416 2.833-1 2.472-.55-.34-1 .11-1 1 0 2.348 1.963.783 3.6-2.87 1.289-2.875 1.39-2.927 1.246-.63-.086 1.375-.055 3.625.069 5 .207 2.294.291 2.335 1.021.5.438-1.1.406-2.15-.07-2.333zm17.817 1.645c-.32-.797-.556-.56-.604.605-.043 1.054.193 1.644.525 1.312.332-.332.368-1.195.08-1.917zm-48-1c-.32-.797-.556-.56-.604.605-.043 1.054.193 1.644.525 1.312.332-.332.368-1.195.08-1.917zM213 78.5c0-.825-.436-1.5-.969-1.5-.532 0-.71.675-.393 1.5.317.825.753 1.5.969 1.5.216 0 .393-.675.393-1.5zm-44.317-1.688c-.32-.797-.556-.56-.604.605-.043 1.054.193 1.644.525 1.312.332-.332.368-1.195.08-1.916zm43.66-5.312c.425-2.788.335-3.394-.296-2-.87 1.92-1.437 7.276-.68 6.417.202-.23.642-2.217.977-4.417zm3.32 1.25c-.278-.688-.505-.125-.505 1.25s.227 1.938.504 1.25c.278-.688.278-1.813 0-2.5zm-32.104.718c-1.068-.807-2.382-1.468-2.921-1.468-.54 0-1.716-.563-2.614-1.25-.899-.688-.276-.013 1.383 1.5 1.66 1.512 3.71 2.736 4.555 2.718 1.21-.025 1.123-.345-.403-1.5zM191 74c0-.55-.477-1-1.059-1s-.78.45-.441 1c.34.55.816 1 1.059 1s.441-.45.441-1zm-24.317-6.188c-.32-.797-.556-.56-.604.605-.043 1.054.193 1.644.525 1.312.332-.332.368-1.195.08-1.916zm48 0c-.32-.797-.556-.56-.604.605-.043 1.054.193 1.644.525 1.312.332-.332.368-1.195.08-1.916zm-44.5-1.029c-.717-.717-1.183-.776-1.183-.15 0 1.335 1.183 2.518 1.85 1.85.284-.284-.016-1.049-.667-1.7zm32.546 1.613c-.332-.332-1.195-.368-1.917-.08-.797.32-.56.557.605.605 1.054.043 1.644-.193 1.312-.525zm-30.854-9.879c1.535-1.872 1.524-1.904-.19-.573-1.82 1.413-4.72 6.256-4.645 7.756.022.44.753-.55 1.625-2.2.872-1.65 2.317-3.892 3.21-4.983zm7.122-1.515c1.14-.61 1.75-1.602 1.367-2.222-.451-.73-.113-.898.972-.481 2.053.787 4.855-.18 4.093-1.414-.309-.5 1.491-.829 4.01-.733 2.513.095 4.868-.125 5.232-.49.829-.829-7.943-.879-10.083-.057-.867.332-1.328 1.007-1.024 1.498.304.492-.486.782-1.756.645-1.516-.163-2.208.223-2.017 1.125.18.85-.27 1.157-1.185.806-1.412-.542-8.606 6.276-8.606 8.157 0 2.375 1.567 1.68 4.102-1.818 1.56-2.153 3.762-4.41 4.895-5.016zm-7.211 5.498c.567-1.1 2.31-3.123 3.872-4.496l2.842-2.497-2.992 3.497c-4.742 5.54-4.807 5.601-3.722 3.496zM212 60.655c0-.19-1.012-1.202-2.25-2.25L207.5 56.5l1.905 2.25c1.79 2.114 2.595 2.705 2.595 1.905zm-35.872-6.405c1.243-1.586 1.208-1.621-.378-.378-1.666 1.307-2.195 2.128-1.372 2.128.207 0 .995-.787 1.75-1.75zm29.872.235c0-.73-6.298-4.48-7.5-4.465-.55.007.8 1.088 3 2.402 4.707 2.812 4.5 2.717 4.5 2.063zm-25.474-3.292c-.307-.308-1.114 0-1.793.683-.98.988-.865 1.102.56.56.986-.376 1.541-.935 1.233-1.243zm13.724-1.916c-1.788-.222-4.713-.222-6.5 0-1.788.221-.325.403 3.25.403s5.037-.182 3.25-.403zM37.22 97.422c-9.526-4.747-14.373-13.05-14.337-24.56.027-8.528 2.397-14.075 8.286-19.396 5.514-4.981 9.555-6.468 17.549-6.456 24.083.034 35.98 26.93 19.823 44.813-7.664 8.484-20.815 10.834-31.321 5.6zm8.51-.026c-.333-.332-1.196-.368-1.918-.08-.797.32-.56.557.605.605 1.054.043 1.644-.193 1.312-.525zm10 0c-.333-.332-1.196-.368-1.918-.08-.797.32-.56.557.605.605 1.054.043 1.644-.193 1.312-.525zm4.829-1.951c1.83-1.467 1.798-1.487-.559-.365-3.061 1.458-3.628 1.92-2.358 1.92.537 0 1.85-.7 2.917-1.555zm-13.309-.107c-.688-.278-1.813-.278-2.5 0-.688.277-.125.504 1.25.504s1.938-.227 1.25-.504zM52.5 95c-2.752-1.183-3.731-1.183-3 0 .34.55 1.604.968 2.809.93 2.112-.068 2.12-.101.191-.93zM44 94c.825-.533 1.05-.97.5-.97s-1.675.437-2.5.97c-.825.533-1.05.97-.5.97s1.675-.437 2.5-.97zm15.094-.05c1.079-.578 1.65-1.554 1.27-2.17-.446-.722-.121-.9.915-.503 2.179.836 7.903-5.64 7.02-7.94-.427-1.112-.254-1.427.52-.95.775.48.945.162.514-.962-.53-1.38-.905-1.167-2.11 1.198-1.7 3.335-5.201 7.377-6.39 7.377-.451 0 .734-2.035 2.633-4.523 5.586-7.318 5.953-14.684 1.115-22.35C61.963 58.983 55.82 55 52.04 55c-2.5 0-2.506.266-.144 6.5l1.895 5 6.105.298c5.286.258 6.104.56 6.104 2.25 0 1.073-.338 1.964-.75 1.979-.412.015-2.287 1.301-4.165 2.859l-3.415 2.832 1.665 4.161c3.179 7.945 1.365 9.495-5.718 4.888l-4.692-3.052-4.376 3.142C42.142 87.586 39.732 89 39.194 89c-1.844 0-2.017-2.704-.475-7.388.848-2.576 1.37-4.806 1.161-4.955-5.23-3.725-8.887-7.139-8.596-8.026.204-.622 3.01-1.356 6.234-1.631l5.862-.5 1.265-4.98c.696-2.74 2.073-5.6 3.06-6.354 1.636-1.251 1.574-1.312-.705-.685-6.66 1.832-11.552 5.115-13.83 9.278-2.226 4.07-4.17 4.826-4.17 1.623 0-.825.45-1.222 1-.882.55.34 1 .202 1-.306s.998-2.194 2.219-3.745c2.926-3.72 3.377-6.298.673-3.851-4.359 3.944-6.078 8.224-6.238 15.52-.085 3.89.164 7.27.552 7.51.389.24.47 1.051.182 1.803-.67 1.746 1.236 2.987 2.197 1.43.461-.744.29-.902-.47-.432-.87.538-1.009-.004-.51-1.994.387-1.54.295-2.493-.21-2.183-.492.302-.895-2.063-.895-5.257 0-3.193.338-5.597.75-5.341.412.255.75 2.48.75 4.945 0 4.65 2.714 11.248 6.188 15.046 1.3 1.42 1.594 2.372.87 2.819-1.63 1.007-.247 2.546 1.638 1.822 1.084-.415 1.391-.237.916.533-.479.774-.162.946.953.518 1.436-.551 1.338-.839-.698-2.052l-2.367-1.41 2.5.646c5.664 1.463 13.1 1.68 16.027.468 1.67-.692 3.34-.955 3.711-.584.371.37-.356.944-1.616 1.273-1.768.463-1.986.816-.957 1.547.953.677.69.807-.916.455-1.239-.271-2-.085-1.691.413.735 1.19 2.127 1.146 4.536-.143zM64 88.5c1.292-1.375 2.574-2.5 2.849-2.5.275 0-.557 1.125-1.849 2.5-1.292 1.375-2.574 2.5-2.849 2.5-.275 0 .557-1.125 1.849-2.5zM32 59.622c0-.207.787-.995 1.75-1.75 1.586-1.243 1.621-1.208.378.378C32.82 59.916 32 60.445 32 59.622zM65.128 92.25c1.243-1.586 1.208-1.621-.378-.378-.962.755-1.75 1.543-1.75 1.75 0 .823.821.294 2.128-1.372zM34 92.655c0-.19-1.012-1.202-2.25-2.25L29.5 88.5l1.905 2.25C33.195 92.864 34 93.455 34 92.655zm1.097-3.958c-.592-.592-1.795-1.182-2.673-1.311-1.405-.206-1.39-.006.123 1.666.946 1.046 2.15 1.636 2.674 1.312.586-.363.539-1.004-.124-1.667zm6.87-4.717c-1.06-.656-1.036-1.331.132-3.642.789-1.561 2.065-2.976 2.837-3.144 1.007-.22 1.123.061.41 1-.546.718-1.047 2.366-1.115 3.662-.114 2.194 0 2.246 1.652.75.976-.883 2.328-1.606 3.005-1.606.676 0 .971-.419.655-.93-.317-.513-.118-1.214.44-1.56 1.809-1.117 1.079-2.493-1.192-2.248-1.466.158-2.338-.387-2.594-1.618-.522-2.521.88-3.698 3.57-2.995C51.51 72.105 52 72.96 52 75.533c0 1.815-.49 3.464-1.089 3.663-.649.217-.258 1.361.967 2.834 1.13 1.358 2.07 1.934 2.089 1.279.018-.655-.424-1.474-.983-1.82-.56-.345-.702-1.136-.318-1.757.865-1.4.908-5.795.077-7.96-.341-.889-1.436-1.817-2.432-2.062-.996-.245.214-.31 2.689-.145s3.6.057 2.5-.24c-3.14-.848-4.242-2.138-4.923-5.764-.347-1.852-1.26-3.609-2.028-3.904-1.19-.456-1.188-.036.016 2.844 1.338 3.202 1.308 3.36-.572 2.998-1.22-.235-2.386.366-3.024 1.56-.572 1.067-1.656 1.941-2.41 1.941-.877 0-1.184.718-.852 1.989.286 1.094.989 1.699 1.561 1.345.574-.354.745-.164.382.423-.463.75-1.555.728-3.679-.074-2.557-.965-2.748-1.256-1.245-1.895 1.564-.666 1.538-.73-.226-.547-1.1.115-2.675-.204-3.5-.708-1.312-.802-1.321-.697-.073.841.785.967 2.743 2.438 4.352 3.27 2.244 1.16 2.8 2.018 2.392 3.684a674.019 674.019 0 0 1-1.49 5.898c-.915 3.552-.865 3.675 1.065 2.642 1.54-.824 1.713-1.275.722-1.888zM45 80.107c0-.491.739-1.176 1.641-1.523 1.373-.527 1.435-.38.378.893-1.44 1.735-2.019 1.916-2.019.63zm1.079-11.69c.048-1.165.285-1.402.604-.604.289.721.253 1.584-.079 1.916-.332.332-.568-.258-.525-1.312zM33 85.559c0-1.055-1.92-1.499-2.49-.575-.345.559.074 1.016.931 1.016.857 0 1.559-.198 1.559-.441zm24.081-5.408c-1.64-3.064-1.297-5.948.787-6.61 1.028-.325 2.703-1.593 3.724-2.817 1.02-1.223 1.25-1.697.51-1.052-.74.644-2.078.94-2.974.656-1.407-.447-1.425-.37-.128.562 1.203.865.898 1.082-1.536 1.095-2.78.014-3.027.29-2.923 3.265.063 1.788.737 4.242 1.499 5.455 1.695 2.698 2.54 2.249 1.041-.554zM71 79.5c0-.825-.436-1.5-.969-1.5-.532 0-.71.675-.393 1.5.317.825.753 1.5.969 1.5.216 0 .393-.675.393-1.5zm2.707-7.738c-.239-1.244-.444-.462-.455 1.738-.01 2.2.185 3.218.435 2.262s.26-2.756.02-4zm-49.014.507c-.254-.973-.478-.419-.498 1.231-.02 1.65.187 2.446.46 1.769.275-.677.292-2.027.038-3zm46.996-1.019c-.251-.963-.457-.175-.457 1.75s.206 2.712.457 1.75c.252-.963.252-2.538 0-3.5zm-45.006 1.563c-.32-.798-.556-.561-.604.604-.043 1.054.193 1.644.525 1.312.332-.332.368-1.195.08-1.916zM71 67.882c0-.55-.52-.678-1.158-.285-.781.483-.986.062-.63-1.299.656-2.509-.954-5.576-2.443-4.655-.71.44-.886.105-.488-.932.692-1.805-4.805-7.123-6.366-6.159-.503.311-.915.104-.915-.462 0-.565-.709-.755-1.575-.423-1.197.46-.82.97 1.57 2.128 3.619 1.752 7.503 6.467 9.098 11.043C69.087 69.69 71 70.377 71 67.882zm-7.128-9.632c-1.243-1.586-1.208-1.621.378-.378.963.755 1.75 1.543 1.75 1.75 0 .823-.821.294-2.128-1.372zM39.73 68.396c-.332-.332-1.195-.368-1.917-.08-.797.32-.56.557.605.605 1.054.043 1.644-.193 1.312-.525zm7.454-6.613c-.717-.717-1.183-.776-1.183-.15 0 1.335 1.183 2.518 1.85 1.85.284-.284-.016-1.049-.667-1.7zm-14.62-6.033L35.5 52.5l-3.25 2.937C29.22 58.175 28.54 59 29.313 59c.172 0 1.635-1.462 3.25-3.25zM69 58.687c0-.172-1.462-1.635-3.25-3.25L62.5 52.5l2.937 3.25C68.175 58.78 69 59.46 69 58.687zm-30.648-3.926c-.442-.715-.079-.87 1.036-.442 1.11.426 1.477.272 1.039-.438-.456-.737.1-.881 1.698-.44 2.01.554 2.105.485.625-.443-2.086-1.308-4.984-.008-5.337 2.394-.13.89.18 1.36.691 1.044.51-.316.622-1.07.248-1.675zM56 53c1.735-1.121 2.08-1.052-7.5-1.507-4.814-.228-5.407-.107-3 .614 1.65.494 4.294.624 5.875.289 1.97-.418 2.66-.261 2.191.497-.84 1.359.412 1.414 2.434.107zm-15.083-2.635c1.372-1.201-1.883-.086-3.476 1.19-1.83 1.467-1.798 1.487.559.365 1.375-.655 2.687-1.355 2.917-1.555zM61.5 52c-.34-.55-1.154-.993-1.809-.985-.716.01-.592.403.309.985 1.921 1.242 2.267 1.242 1.5 0zm-16.25-2.662c-.688-.278-1.813-.278-2.5 0-.688.277-.125.504 1.25.504s1.938-.227 1.25-.504zm9.48.058c-.333-.332-1.196-.368-1.917-.08-.798.32-.561.557.604.605 1.054.043 1.644-.193 1.312-.525zm62.02-10.476c-.963-.56-1.75-1.911-1.75-3.001 0-1.64.599-1.941 3.465-1.748 1.905.128 3.78-.083 4.166-.469.386-.386-.922-.702-2.908-.702-6.405 0-8.827-6.438-4.27-11.354 2.694-2.907 4.225-3.205 7.89-1.536 3.06 1.395 4.657 4.827 4.657 10.014 0 3.12-.66 4.69-2.923 6.953-3.05 3.05-5.372 3.564-8.327 1.843zM120 37c-.825-.533-1.95-.97-2.5-.97s-.325.437.5.97c.825.533 1.95.97 2.5.97s.325-.437-.5-.97zm4.903-3.43c-.263-.264-1.074.513-1.803 1.725-1.265 2.107-1.243 2.128.479.479.991-.95 1.587-1.942 1.324-2.205zm-7.114-3.97c-.709-.769-1.447-1.249-1.64-1.066-.592.564.911 2.466 1.95 2.466.539 0 .4-.63-.31-1.4zm7.211.431c0-.532-.675-.71-1.5-.393-.825.317-1.5.753-1.5.969 0 .216.675.393 1.5.393s1.5-.436 1.5-.969zm-3.12-4.676c-.872-1.05-1.475-1.106-2.525-.235-1.05.872-1.106 1.475-.235 2.525.872 1.05 1.475 1.106 2.525.235 1.05-.872 1.106-1.475.235-2.525zm1.699-2.129c-1.722-1.65-1.744-1.628-.479.479.729 1.212 1.54 1.989 1.803 1.726.263-.263-.333-1.255-1.324-2.205zM231.693 388.27c-.254-.973-.478-.419-.498 1.231-.02 1.65.187 2.446.46 1.769.275-.677.292-2.027.038-3zM8.749 320.25c-.159-12.512-.288-2.275-.288 22.75s.13 35.263.288 22.75c.159-12.512.159-32.987 0-45.5zm223.133 36.5c-.065-13.887-.403-23.94-.75-22.337-.704 3.246-.327 47.587.405 47.587.254 0 .41-11.363.345-25.25zm-1.132-139c-.153-18.288-.278-3.325-.278 33.25s.125 51.538.278 33.25c.152-18.288.152-48.212 0-66.5zm-222-33c-.151-20.488-.275-3.725-.275 37.25s.124 57.737.275 37.25c.15-20.488.15-54.013 0-74.5zm221.943-4.481c-.254-.973-.478-.419-.498 1.231-.02 1.65.187 2.446.46 1.769.275-.677.292-2.027.038-3zm-.944-84.019c-.156-14.162-.284-2.575-.284 25.75s.128 39.913.284 25.75c.157-14.162.157-37.337 0-51.5zm-.087-30.5c-.277-.688-.504-.125-.504 1.25s.227 1.938.504 1.25c.278-.688.278-1.813 0-2.5zM230 9.5c0-.825-.693-1.5-1.54-1.5-1.271 0-1.315.254-.25 1.462 1.64 1.858 1.79 1.862 1.79.038zM12.503 7.7c2.746-.441 2.71-.47-.426-.34-2.107.086-3.578.717-3.826 1.64-.272 1.013-.134 1.123.426.34.456-.638 2.178-1.376 3.826-1.64zm31.247-.443c-4.263-.188-11.238-.188-15.5 0-4.263.187-.775.34 7.75.34s12.012-.153 7.75-.34zm11.98.139c-.333-.332-1.196-.368-1.917-.08-.798.32-.561.557.604.605 1.054.043 1.644-.193 1.312-.525zm35.032-.083c-.956-.25-2.756-.26-4-.02-1.244.239-.462.444 1.738.455 2.2.01 3.218-.185 2.262-.435zM244.195 134.5c.02-1.65.244-2.204.498-1.231.254.973.237 2.323-.037 3-.274.677-.481-.119-.461-1.769zm.274-74.5c0-32.725.126-46.112.28-29.75.155 16.363.155 43.138 0 59.5-.154 16.363-.28 2.975-.28-29.75z"/></svg>