<svg xmlns="http://www.w3.org/2000/svg" width="246" height="420" viewBox="0 0 246 420"><path d="M92.75 418.338c.688-.278 1.813-.278 2.5 0 .688.277.125.504-1.25.504s-1.938-.227-1.25-.504zm43.574-.088c20.253-.151 53.103-.15 73 0 19.897.152 3.326.276-36.824.276s-56.43-.124-36.176-.276zM9.243 407.793c-.895-1.078-1.346-17.665-1.764-64.87C7.17 308.04 6.714 269.374 6.464 257c-.249-12.375-.664-33.075-.922-46C4.596 163.56 4.04 7.093 4.816 6.614c1.457-.9 226.31-.89 227.143.01.446.482 1.122 38.451 1.503 84.376.38 45.925.903 85.975 1.162 89 .784 9.19 2.019 120.235 1.945 175l-.069 51.5-9 .62c-4.95.342-55.812.959-113.028 1.371-90.232.65-104.187.558-105.23-.698zm4.507-1.955L11 404.833l-.216-13.666-.216-13.667-.323 12.5c-.4 15.488-.08 17.025 3.524 16.921l2.731-.079zm14 .446c-1.512-.23-3.987-.23-5.5 0-1.512.229-.275.416 2.75.416s4.263-.187 2.75-.416zm14.519.06c-.677-.274-2.027-.29-3-.037-.973.253-.419.478 1.231.498 1.65.02 2.446-.187 1.769-.461zm162.648-.98c.676-.592-87.707-.152-122.417.61-17.873.391 1.993.493 45 .228 42.35-.26 77.188-.637 77.417-.837zM234.67 369c.094-19.525-.2-50.125-.652-68-.71-28.055-.802-23.269-.67 35l.151 67.5-14 .5c-7.7.275-12.65.725-11 1 1.65.275 8.175.275 14.5 0l11.5-.5zm-88.84 34.044c46.932-.48 85.498-1.04 85.702-1.243.453-.454-1.356-168.122-1.973-182.801-.242-5.775-.765-54.973-1.162-109.329l-.722-98.829-91.088.329c-50.098.18-99.287.461-109.309.622l-18.22.294.485 66.706c.507 69.735 1.088 121.812 1.934 173.207.276 16.775.717 57.465.98 90.421.377 47.225.75 60.094 1.76 60.735 1.592 1.01 23.643.992 131.613-.112zm-113.583-34.75c-6.674-1.285-3.709-12.183 5.442-20 8.206-7.01 9.312-10.073 9.298-25.732l-.012-13.062-4.574-4.75c-2.517-2.613-5.121-4.75-5.789-4.75-1.983 0-3.417-2.033-2.88-4.084.385-1.475 1.336-1.889 4.134-1.798 3.5.114 3.526.142.715.75-1.604.348-3.11 1.214-3.347 1.926-.313.94.284 1.114 2.18.638 1.6-.402 3.231-.14 4.213.675 2.335 1.937 6.355 1.93 6.45-.011.048-.945.278-1.109.566-.402.267.656 1.131.946 1.92.643.79-.303 1.436-.165 1.436.306 0 1.022 5.67.96 8.5-.091 1.1-.41 2.638-.94 3.417-1.18 1.898-.586.25-2.083-2.917-2.651-1.821-.327-1.482-.486 1.25-.585 3.38-.122 3.75.114 3.75 2.39 0 2.008-.617 2.647-3.016 3.127-2.099.42-3.922 1.947-6 5.025-2.959 4.385-2.984 4.54-2.984 18.392 0 12.971.17 14.238 2.368 17.722 1.303 2.063 4.48 5.482 7.062 7.597C73.674 356.784 76.46 368 68.3 368c-2.76 0-3.213-3.39-.646-4.827 1.06-.593 1.413-1.555.982-2.678-.538-1.403-1.47-1.647-4.654-1.22-2.19.294-4.234.126-4.542-.373-.328-.53-1.378-.47-2.521.142-1.078.576-2.36.8-2.85.498-.49-.302-5.317-.635-10.727-.738-8.694-.167-9.876.017-10.177 1.577-.201 1.046-.915 1.545-1.752 1.224-.958-.368-1.408.173-1.398 1.676.011 1.616.248 1.852.87.87 1.357-2.141 4.653-.928 4.382 1.613-.23 2.143.033 2.188 14.5 2.488l14.733.306-15 .085c-8.25.046-16.013-.11-17.252-.35zm38.245-3.283c.35-.566-.051-.734-.941-.393-1.732.665-2.05 1.382-.611 1.382.518 0 1.216-.445 1.552-.989zm-.37-6.686c-1.18-2.027-1.464-1.378-.5 1.136.343.894.835 1.415 1.092 1.157.258-.257-.01-1.29-.593-2.293zm-37.741.123c.341-.89.173-1.291-.393-.94-.544.335-.989 1.033-.989 1.551 0 1.438.717 1.121 1.382-.61zm12.9-2.198c-.578-1.541-.452-1.584 1.055-.357.941.765 2 1.103 2.354.75.353-.354.117-.643-.524-.643-.642 0-1.114-.338-1.049-.75.456-2.883-.252-3.504-1.676-1.47-.857 1.223-1.28 2.673-.94 3.222.998 1.616 1.49 1.143.78-.752zm10.718.5V355c0-1.443-1.183-1.2-3.744.772L50.01 357.5h2.995c1.647 0 2.994-.337 2.994-.75zm7 .25c1.293-.835 1.266-.971-.191-.985-.93-.008-1.97.435-2.309.985-.782 1.266.542 1.266 2.5 0zm-23.5-2.223c.57-.426.249-.753-.75-.762-.973-.009-1.75.725-1.75 1.652 0 .916.338 1.26.75.761.412-.497 1.2-1.24 1.75-1.651zm27.5.903c0-.725-1.012-2.207-2.25-3.292-1.238-1.084-4.235-4.203-6.662-6.93-2.427-2.727-4.076-4.376-3.664-3.664.411.711.197 1.957-.476 2.769-.976 1.176-.919 1.825.284 3.206.829.952 1.374 2.305 1.213 3.006-.162.701-.073.835.197.298.303-.601 1.716-.447 3.675.402 1.75.759 4.017 1.64 5.037 1.96 1.133.356 1.631 1.161 1.281 2.073-.315.82-.136 1.492.396 1.492.533 0 .969-.594.969-1.32zm-10.32-6.717c-1.583-1.245-2.362-2.629-2.004-3.562.476-1.238 1.124-1.008 3.455 1.224 4.54 4.35 3.415 6.166-1.45 2.338zM45 352.397c0-.292-1.012-.253-2.25.087-2.187.602-2.195.576-.309-.932 1.068-.854 1.575-1.552 1.128-1.552-.448 0-.266-.66.404-1.468.67-.807 1.738-1.37 2.373-1.25.635.12 1.154-.457 1.154-1.282s-.582-1.381-1.293-1.236c-1.024.21-1.05-.207-.127-2 .64-1.245.769-1.814.285-1.264-.484.55-2.227 2.573-3.873 4.496-2.88 3.367-2.89 3.407-.242 1.076 1.512-1.331 2.75-1.947 2.75-1.369 0 1.548-2.741 3.555-5.03 3.684-1.098.062-2.058.563-2.134 1.113-.075.55-.814 1.495-1.641 2.1-1.178.86-.82.999 1.65.636 1.978-.29 3.155-.034 3.155.686 0 .838.54.86 2 .078 1.1-.589 2-1.31 2-1.603zm7.48-4.434c-1.793-3.468-1.836-4.037-.28-3.713.905.189 1.126-4.269.904-18.25-.162-10.175-.476-18.688-.7-18.917-.222-.229-.404 6.184-.404 14.25 0 13.064-.748 17.357-2.338 13.417-.301-.747-.536-.545-.583.5-.043.963-.503 1.75-1.022 1.75s-.79 1.688-.602 3.75c.457 5.008.437 4.965 1.545 3.25.843-1.305.971-1.289.985.128.008.895-.614 2.149-1.382 2.786-1.465 1.216-1.102 4.584.75 6.939.866 1.102 1.39.948 2.835-.837 1.605-1.982 1.633-2.462.293-5.053zm-1.951-5.318c-1.173-.858-1.613-1.983-1.199-3.064.854-2.224 2.304-1.276 2.912 1.904.563 2.946.65 2.887-1.713 1.16zM60 354.107c0-.491-.675-1.152-1.5-1.469-1.524-.585-2.048.48-.833 1.695.955.956 2.333.822 2.333-.226zM48.74 313.75c-.195-3.438-.355-.625-.355 6.25s.16 9.688.355 6.25c.196-3.438.196-9.063 0-12.5zm2.002-1.458c-.192-3.736-.352-.942-.353 6.208-.002 7.15.156 10.206.35 6.792.195-3.415.196-9.265.004-13zm-2.15-9.067c.142-.701.03-.814-.25-.25-.818 1.648-2.34 1.18-2.357-.725-.011-1.261-.24-1.398-.816-.49-.595.938-1.405.617-3.159-1.25-1.297-1.38-2.724-2.51-3.17-2.51-.446 0 .87 1.57 2.925 3.488 3.729 3.483 6.34 4.147 6.827 1.737zm7.46-.78c1.745-1.858 1.93-2.375.674-1.894-.95.365-1.726 1.035-1.726 1.49 0 .455-1.238.606-2.75.337-2.648-.472-2.676-.434-.75 1.034 1.1.838 2.034 1.539 2.076 1.556.041.018 1.156-1.118 2.476-2.524zm132.76 65.872c.722-.289 1.585-.253 1.917.079.332.332-.258.568-1.312.525-1.165-.048-1.402-.285-.604-.604zM167 366.712c-5.589-2.813-2.847-10.764 6.848-19.86 4.459-4.182 6.333-6.775 7.228-10l1.208-4.352.832 2.975c.623 2.23.462 3.182-.642 3.8-2.298 1.285-1.82 2.98.492 1.743 1.626-.87 2.253-.614 3.627 1.483 1.555 2.374 1.745 2.423 3.002.767 1.557-2.052 1.826-3.646.474-2.81-1.534.947-1.958-.795-1.091-4.483.791-3.364.82-3.382.92-.574.078 2.234 1.8 4.532 7.49 10 8.202 7.88 11.603 12.78 11.608 16.727.005 3.696-1.984 4.94-8.677 5.422-3.97.286-5.025.153-3.319-.42l2.5-.837-2.5-.522c-1.375-.287-.535-.354 1.866-.15 3.953.337 4.316.184 3.843-1.624-.339-1.297-.029-1.997.885-1.997 1.693 0 1.874-2.593.25-3.596-.636-.393-6.486-.697-13-.676-10.313.034-11.842-.172-11.829-1.595.014-1.42.142-1.437.985-.133.862 1.333.973 1.333 1 0 .027-1.333.138-1.333 1 0 .761 1.178.973 1.206.985.128.01-.93.42-1.07 1.265-.44 1.105.826 3.048.914 9.5.43 1.257-.093.932-.557-1.15-1.643-2.644-1.379-3.073-1.357-4.846.248-1.867 1.689-2.021 1.665-3.85-.592-1.047-1.294-1.904-1.948-1.904-1.455 0 .494-1.012.948-2.25 1.01-1.238.06-1.688-.106-1-.371s1.25-.88 1.25-1.367-.7-.617-1.555-.289c-.985.379-1.443 1.557-1.25 3.219.288 2.477.09 2.605-3.597 2.31-2.431-.195-4.217.182-4.735 1-1.427 2.25-.947 3.812 1.172 3.812 1.63 0 1.848.35 1.097 1.75-.84 1.57-.406 1.734 4.215 1.593 3.191-.097 4.01.054 2.153.397l-3 .553 2.5.754c1.936.584 1.372.773-2.5.839-2.75.046-6.125-.482-7.5-1.174zm2-2.105c0-.216-.698-.661-1.552-.989-.89-.341-1.291-.173-.94.393.586.95 2.492 1.406 2.492.596zm1.032-9.607c.532 0 .954-.563.936-1.25-.017-.688-1.142.013-2.5 1.556-1.357 1.543-2.45 3.343-2.428 4 .022.657.711-.044 1.532-1.556.82-1.512 1.927-2.75 2.46-2.75zm36.09 2.325c-1.179-2.027-1.463-1.378-.498 1.136.342.894.834 1.415 1.091 1.157.258-.257-.009-1.29-.593-2.293zm-30.872-1.987c-.688-.278-1.813-.278-2.5 0-.688.277-.125.504 1.25.504s1.938-.227 1.25-.504zm25.48.058c-.333-.332-1.196-.368-1.917-.08-.798.32-.561.557.604.605 1.054.043 1.644-.193 1.312-.525zm-12.769-2.861c1.423-1.287 1.967-1.285 4.478.018 1.572.815 3.1 1.242 3.394.948.294-.295-.836-1.053-2.512-1.686-1.721-.65-3.827-2.6-4.841-4.482-.987-1.833-2.174-3.333-2.637-3.333-.464 0-.879-.787-.922-1.75-.048-1.056-.28-1.252-.585-.494-.279.691-.977.966-1.551.611-.598-.37-.829-.052-.54.744.278.764 1.011 1.276 1.63 1.139 1.435-.319 1.42.306-.07 2.69-.917 1.468-.922 2.509-.02 4.486 1.352 2.969 1.947 3.127 4.177 1.109zm11.754-.398c.077-1.025-1.81-3.776-4.191-6.114-4.204-4.125-4.365-4.188-5.463-2.137-.622 1.163-.89 2.17-.596 2.239.294.069.872.188 1.285.265 1.617.303 3.258 1.788 2.798 2.533-.267.431.626 1.29 1.983 1.91 1.358.618 2.469 1.584 2.469 2.146 0 1.84 1.57 1.069 1.715-.842zm-4.471-2.637c.765-.844-3.18-4.166-4.458-3.754-.393.126-.457-.44-.143-1.258.728-1.897.515-1.977 3.752 1.402 2.119 2.212 2.456 3.071 1.437 3.66-.733.424-.997.401-.588-.05zm-20.849 1.33c-.492-.796-.169-.957 1.013-.504.955.367 2.604.203 3.664-.365 1.435-.768 1.95-.703 2.014.254.047.707.476-.02.953-1.613.594-1.985.466-3.47-.407-4.716-1.178-1.683-1.638-1.449-6.165 3.148-4.33 4.395-4.63 4.966-2.62 4.966 1.48 0 2.019-.408 1.548-1.17zm3.148-1.9c.556-.9.3-1.084-.879-.631-2.373.91-2.069.377 1.132-1.99 2.677-1.979 2.803-1.987 2.938-.19.078 1.032-.785 2.373-1.917 2.979-1.613.863-1.889.827-1.274-.168zM42.75 366.257c3.987-.19 10.512-.19 14.5 0 3.987.19.725.346-7.25.346s-11.238-.156-7.25-.346zm2-1.997c3.438-.196 9.063-.196 12.5 0 3.438.195.625.355-6.25.355s-9.688-.16-6.25-.355zm-1-2.003c3.987-.19 10.512-.19 14.5 0 3.987.19.725.346-7.25.346s-11.238-.156-7.25-.346zm140-.92c.688-.277 1.813-.277 2.5 0 .688.278.125.505-1.25.505s-1.938-.227-1.25-.504zm5 0c.688-.277 1.813-.277 2.5 0 .688.278.125.505-1.25.505s-1.938-.227-1.25-.504zm-3.006-21.926c-.324-.324-.362-2.237-.084-4.25.398-2.879.263-3.34-.631-2.161-.966 1.275-1.09 1.212-.833-.417.167-1.055.866-2.105 1.554-2.333.89-.297 1.25 1.045 1.25 4.667 0 5.077-.147 5.603-1.256 4.494zm2.413-28.102c-.173-5.72-1.351-7.257-3.736-4.873-2.273 2.273-2.97 2.007-6.61-2.521-1.805-2.247-4.751-4.699-6.547-5.449-1.795-.75-3.264-1.782-3.264-2.293 0-1.97 3.023-3.285 6.68-2.906l3.82.397-4.25.168c-3.094.122-4.25.588-4.25 1.713 0 1.213.724 1.41 3.36.915 2.59-.486 3.506-.252 3.994 1.019.378.986 1.49 1.523 2.766 1.335 1.465-.216 2.397.39 2.974 1.936.998 2.669.245 2.867-2.265.595-1.006-.91-1.829-1.19-1.829-.622 0 2.236 2.972 3.61 5.407 2.501 1.513-.69 2.692-.725 3.316-.101.624.624 2.089-.016 4.122-1.8 2.928-2.57 4.426-5.227 2.155-3.823-.55.34-1 .091-1-.552 0-.785 1.098-.965 3.333-.545 2.586.485 3.334.285 3.334-.889 0-1.094-1.132-1.532-4.084-1.577-3.42-.053-3.723-.209-1.86-.958 3.065-1.234 8.277.68 8.277 3.04 0 1.194-.99 2.04-2.874 2.453-4.185.92-9.486 7.928-10.219 13.512l-.593 4.516zM186.272 310c0-2.475.195-3.487.434-2.25.238 1.238.238 3.263 0 4.5-.239 1.238-.434.225-.434-2.25zM184 299.563c0-1.533.428-2.416 1-2.063.55.34 1.014.029 1.03-.691.02-.853.367-.732.998.348.571.979 1.74 1.455 2.857 1.163 1.039-.272 2.183-.018 2.543.564.704 1.139-4.104 2.774-5.133 1.745-.336-.337-1.215-.11-1.953.502-1.066.885-1.342.562-1.342-1.568zm-150.5-14c-4.574-1.06-5.026-1.425-5.308-4.287-.408-4.153 2.754-10.126 7.889-14.9 7.295-6.783 7.816-7.556 8.941-13.27 1.56-7.921 1.81-8.264 1.895-2.606.08 5.334-2.27 10.5-6.26 13.763-1.876 1.534-1.908 1.674-.243 1.08 1.473-.526 1.722-.356 1.078.737-.462.786.104.597 1.269-.424 1.157-1.014 1.861-2.477 1.565-3.25-.297-.773-.081-1.406.479-1.406.56 0 .887 1.2.726 2.668l-.293 2.668 1.859-2.418c2.546-3.312 2.403-1.429-.165 2.178-1.936 2.718-4.894 4.27-3.337 1.75.438-.708.275-.884-.42-.454-.623.385-1.979.248-3.011-.304-1.582-.847-2.531-.202-6.02 4.088-2.28 2.801-4.126 5.595-4.104 6.209.022.613.703-.106 1.513-1.599.876-1.613 2.035-2.497 2.86-2.18.895.342 1.334-.114 1.237-1.287-.09-1.092.521-1.824 1.53-1.832.923-.007 2.01-.344 2.416-.75.406-.405 1.423-.737 2.262-.737 1.187 0 1.095.344-.417 1.555-1.875 1.502-1.867 1.52.243.5 3.048-1.472 3.778-1.316 2.28.487-1.597 1.925-.024 3.802 2.405 2.87 1.547-.594 1.564-.866.178-2.98-.876-1.338-1.125-2.575-.586-2.908.516-.319 1.427.333 2.024 1.448 1.434 2.679 2.814 2.563 4.14-.348.85-1.863.731-2.914-.544-4.86-.949-1.448-1.347-3.27-.957-4.373.53-1.492.403-1.644-.599-.72-1.298 1.2-4.025.744-4.025-.671 0-.432.698-1.054 1.552-1.382 1.004-.385 1.303-.192.845.548-.388.629-.293.888.211.576.505-.312.975-8.594 1.046-18.404.074-10.4-.185-16.17-.621-13.838-.56 2.994-.81 3.371-.99 1.5l-.242-2.5L47 228c-.68 2.12-.816 2.191-.9.466-.106-2.152-9.382-11.763-12.35-12.795-.962-.334-1.75-1.311-1.75-2.171 0-2.022 2.804-3.096 4.267-1.633.844.844.684 1.133-.626 1.133-.977 0-1.47.468-1.108 1.053.357.579 1.151.886 1.763.682.612-.204 2.202.784 3.533 2.197 1.331 1.412 1.952 1.892 1.378 1.065-.748-1.079-.655-2.032.33-3.378 1.162-1.59 2.716-1.875 10.167-1.87 4.838.003 9.353-.439 10.033-.983 1.754-1.403 4.263-.18 4.263 2.078 0 1.293-.911 2.088-2.831 2.472-1.707.342-4.259 2.308-6.422 4.948l-3.59 4.38-.328 14.18c-.181 7.798.008 14.178.421 14.177.412 0 .75.728.75 1.618 0 .89 3.312 4.828 7.36 8.75 8.797 8.521 11.89 13.23 9.63 14.658-1.101.697-1.146.946-.17.958.788.009 1.19.906 1 2.228-.418 2.889-6.541 4.54-6.333 1.707.071-.964.716-2.46 1.433-3.324 2.951-3.556.833-4.297-11.83-4.137-6.65.084-12.09-.098-12.09-.403.002-1.265-10.165.21-10.678 1.548-.85 2.212 3.73 5.34 7.678 5.244 3.014-.073 3.153-.172 1-.716-1.375-.348-2.612-1.194-2.75-1.882-.19-.952 2.674-1.216 12-1.108 8.37.097 10.983.369 8.25.858-2.2.394-3.1.833-2 .976 1.497.195 1.246.452-1 1.024-2.663.678-2.46.777 1.809.882 2.926.072 4.567.51 4.191 1.118-.34.55.159 1 1.108 1 .949 0 1.411.314 1.027.698-1.193 1.193-24.865 1.087-30.135-.135zm7.5-.954c0-.214-1.543-.57-3.43-.79-1.886-.22-3.21-.045-2.94.39.483.783 6.37 1.153 6.37.4zm12.762-.296c-.956-.25-2.756-.26-4-.02-1.244.239-.462.444 1.738.455 2.2.01 3.218-.185 2.262-.435zm-6.512-3.975c-.688-.278-1.813-.278-2.5 0-.688.277-.125.504 1.25.504s1.938-.227 1.25-.504zm16.122-5.924c.62.142.788.069.372-.163-.416-.232-.502-.833-.191-1.336.31-.503.088-.915-.494-.915S62 272.45 62 273c0 1.436-3.053 1.221-6.233-.438-1.587-.828-2.975-1.035-3.31-.494-1.016 1.645.706 3.134 3.096 2.677 1.275-.244 2.906-.08 3.624.364s1.702.412 2.186-.073c.485-.484 1.388-.764 2.009-.622zM60 272.107c0-.491-.712-1.166-1.582-1.5-2.446-.939-2.77-.735-1.418.893 1.38 1.662 3 1.99 3 .607zm-1.422-8.028C56.06 261.523 54 258.97 54 258.407c0-.564-.672-1.898-1.494-2.966-1.388-1.804-1.476-1.642-1.25 2.308.15 2.6.729 4.249 1.494 4.25.688 0 1.25.478 1.25 1.06 0 .582-.563.741-1.25.353-.995-.562-.997-.433-.01.631.682.735 1.944 1.44 2.806 1.567 1.256.184 1.329-.056.367-1.214-.659-.795-.973-1.67-.698-1.944.667-.668 3.142 2.375 3.409 4.19.15 1.021-.42 1.269-1.956.851-1.905-.517-1.955-.455-.41.513.967.606 2.204.826 2.75.49.546-.338.992-.152.992.414 0 .565.71.755 1.578.422 1.244-.478.61-1.587-3-5.253zm-7.895-13.267c-.32-.797-.556-.56-.604.605-.043 1.054.193 1.644.525 1.312.332-.332.368-1.195.08-1.917zm1-6c-.32-.797-.556-.56-.604.605-.043 1.054.193 1.644.525 1.312.332-.332.368-1.195.08-1.917zm-3.858-24.037c.937-.937 1.661-.953 3.078-.068 1.548.967 2.286.705 4.489-1.594 1.45-1.513 2.33-3.058 1.955-3.432-.374-.375.718-.681 2.427-.681 1.71 0 3.416-.498 3.792-1.107.481-.779-.317-.882-2.69-.349-1.857.417-5.508.668-8.113.558-3.946-.166-4.637.063-4.134 1.375.464 1.209.922 1.31 1.975.437.785-.652 2.509-.852 4.04-.467 4.458 1.119.778 3.514-5.847 3.806-4.37.192-5.394.526-4.589 1.497 1.3 1.568 2.07 1.573 3.617.025zm119.423 63.519c-1.239-.239-2.712-1.292-3.273-2.341-.823-1.538-.726-1.795.502-1.324.838.322 1.523.055 1.523-.592 0-.648 1.01-1.033 2.25-.857 1.477.21 2.25 1.007 2.25 2.32 0 1.914.667 2 15.5 2h15.5l-.313-2.25c-.239-1.718.184-2.25 1.785-2.25 1.737 0 1.927-.32 1.101-1.863-.893-1.668-2.177-1.842-12.285-1.661-6.208.11-11.725-.04-12.26-.333-.534-.294-3.009-.599-5.5-.677-3.485-.109-4.926.34-6.256 1.946-2.567 3.102-2.139.324.46-2.98 1.227-1.56 1.64-2.471.919-2.025-.722.446-2.218 2.225-3.325 3.952l-2.011 3.141.659-2.939c.9-4.018 3.63-7.624 9.466-12.51 2.8-2.344 5.376-5.517 5.96-7.34.567-1.766 1.159-9.29 1.315-16.718l.285-13.507-3.933-4.71c-2.164-2.59-5.236-5.162-6.829-5.717-3.484-1.215-3.419-4.388.1-4.889 2.101-.299 2.208-.125 1.143 1.866-.937 1.75-.911 2.107.126 1.762.716-.239 2.222.518 3.347 1.683 1.125 1.164 1.464 1.363.753.442-1.837-2.38.526-3.213 9.793-3.45 4.125-.105 8.956-.801 10.736-1.546 2.433-1.019 3.52-1.07 4.383-.208 1.404 1.405.332 4.678-1.219 3.72-.782-.484-.71-.945.243-1.549 1.11-.703 1.084-.884-.143-.993-2.544-.227-4.456.225-5.5 1.299-.681.701-.283.812 1.25.349 2.498-.755 3.117.87.822 2.155-.785.44-2.81 2.709-4.5 5.041L189 224.983v14.092c0 10.829-.29 13.995-1.25 13.675-.688-.23-1.25-.904-1.25-1.5 0-2.301-1.508-2.453-1.65-.167-.083 1.33-.465.392-.85-2.083l-.7-4.5-.15 3.782c-.082 2.08-.83 5.412-1.663 7.404-.832 1.991-1.298 3.836-1.035 4.099.263.263.068 1.244-.433 2.18-.656 1.226-.52 1.702.491 1.702.771 0 1.127-.445.791-.988-.335-.543-.123-.687.472-.319.606.374 1.394-.31 1.788-1.551.428-1.35.26-2.369-.428-2.598-2.213-.738-1.08-2.131 2.545-3.133 3.215-.887 3.855-.762 5.087.997.775 1.106 4.485 4.965 8.244 8.574 7.485 7.186 9.302 10.377 8.813 15.478-.27 2.825-.803 3.466-3.322 4-3.346.71-33.727.846-37.252.167zm39.435-5.482c-.32-.797-.556-.56-.604.605-.043 1.054.193 1.644.525 1.312.332-.332.368-1.195.08-1.916zm-24.328-5.395c1.775-.681 1.052-3.417-.903-3.417-1.675 0-2.768 1.68-1.952 3 .722 1.168.85 1.187 2.855.417zM180.5 272c-.34-.55-.141-1 .441-1s1.059.45 1.059 1-.198 1-.441 1-.72-.45-1.059-1zm18.77.057c1.007-1.065.814-1.088-1.058-.124-2.41 1.24-6.221.564-7.426-1.318-.483-.754-1.291-.486-2.5.83-1.684 1.834-1.684 1.869-.013.609 1.529-1.153 1.689-1.118 1.162.256-.513 1.336.13 1.548 3.997 1.32 2.535-.149 5.162-.857 5.838-1.573zm-25.02.28c-.688-.277-1.813-.277-2.5 0-.688.278-.125.505 1.25.505s1.938-.227 1.25-.504zm21.291-2.27c-.362-.587-1.42-1.053-2.35-1.035-1.485.028-1.456.21.236 1.49 2.055 1.554 3.203 1.307 2.114-.455zm-16.982-.535c1.067-.808 1.469-1.483.891-1.5-.577-.018-1.477.38-2 .883-.522.504-2.075 1.117-3.45 1.364l-2.5.449 2.559.136c1.407.075 3.432-.525 4.5-1.332zm8.726-5.627c-1.377-2.33-1.46-3.128-.436-4.145 1.022-1.015 1.154-.956.675.303-.574 1.51 1.91 4.612 3.976 4.966.55.094.881.595.736 1.114-.146.518.754.4 2-.264 1.997-1.064 2.114-1.024.988.34-1.045 1.268-1.011 1.649.186 2.108 3.092 1.187 2.099-2.033-2.064-6.685-2.39-2.672-4.356-5.372-4.369-6-.025-1.309-6.92 9.377-6.954 10.78-.013.506.754 1.78 1.704 2.828 1.694 1.873 1.76 1.868 3.495-.275 1.671-2.065 1.675-2.34.063-5.07zm5.205.079c-.346-.56-1.016-.777-1.49-.484-.474.293-1.227-.037-1.674-.734-.9-1.401-1.248-6.203-.365-5.012.305.41 1.873 2.208 3.484 3.996 1.611 1.788 2.422 3.25 1.801 3.25-.62 0-1.41-.457-1.756-1.016zm-2.366-3.25c-.988-.98-1.102-.866-.56.56.376.985.935 1.54 1.243 1.232.308-.307 0-1.114-.683-1.793zM201 269.5c-1.394-1.68-3-1.986-3-.573 0 .51.787 1.132 1.75 1.384.963.251 1.918.51 2.122.573.205.064-.187-.559-.872-1.384zm-25.882-1.867c.066-.623.054-1.504-.024-1.957-.08-.454.325-.535.898-.181.572.354.785 1.057.472 1.563-.312.506.193.627 1.124.27 1.538-.59 1.547-.756.1-1.814-1.43-1.045-1.367-1.407.61-3.524 1.21-1.297.402-.85-1.798.994-2.2 1.845-4.541 4.111-5.203 5.037-1.05 1.47-.891 1.624 1.25 1.215 1.349-.258 2.506-.98 2.571-1.603zm10.571-26.383c-.251-.963-.457-.175-.457 1.75s.206 2.712.457 1.75c.252-.963.252-2.538 0-3.5zm-1.996-.981c-.254-.973-.478-.419-.498 1.231-.02 1.65.187 2.446.46 1.769.275-.677.292-2.027.038-3zm.014-11.507c-.239-1.244-.444-.462-.455 1.738-.01 2.2.185 3.218.435 2.262s.26-2.756.02-4zm.118-8.987c.942-.942 1.657-.955 3.096-.056 1.507.94 2.17.838 3.405-.525 1.42-1.57 1.227-1.67-2.646-1.368-2.3.18-5.209.338-6.467.353-1.842.023-2.061.3-1.127 1.425 1.423 1.715 2.161 1.749 3.739.171zM183 215c0-.55-1.462-.947-3.25-.882l-3.25.119 3 .763c1.65.42 3.112.817 3.25.882.137.065.25-.332.25-.882zm10.5 0c-.34-.55-2.729-.93-5.309-.843l-4.691.157 5 .686c2.75.377 5.14.756 5.309.843.17.086.03-.293-.309-.843zm-15.25 67.257c4.263-.188 11.238-.188 15.5 0 4.263.187.775.34-7.75.34s-12.012-.153-7.75-.34zm2.534-1.995c2.905-.203 7.405-.2 10 .005 2.594.205.216.37-5.284.368-5.5-.003-7.622-.17-4.716-.373zm-.497-2.002c3.182-.2 8.132-.197 11 .004 2.867.201.263.364-5.787.362-6.05-.002-8.396-.167-5.213-.366zM46.252 241.5c.011-2.2.216-2.982.455-1.738.24 1.244.23 3.044-.02 4s-.446-.062-.435-2.262zM106 244.178c-3.392-1.031-3.92-4.763-.808-5.704 1.27-.385 4.257-2.786 6.64-5.336l4.332-4.638-.351-14c-.409-16.27-1.134-18.277-8.726-24.16-7.647-5.927-12.42-16.237-8.837-19.091 1.43-1.14 8.488-2.106 20.75-2.84 9.538-.572 20.796 1.32 22.33 3.753.53.839.628 3.247.222 5.411-.578 3.084-2.254 5.367-8.01 10.913-4.003 3.858-7.788 7.997-8.41 9.198-.69 1.333-1.132 7.86-1.132 16.737 0 14.232.06 14.641 2.75 18.582 1.68 2.462 3.811 4.265 5.478 4.634 3.978.881 5.508 3.055 3.538 5.025-1.211 1.212-4.447 1.643-14.414 1.92-7.069.195-13.977.014-15.352-.404zM128.5 243c.34-.55 1.979-1 3.642-1 1.976 0 2.88-.434 2.607-1.25-.265-.795-2.39-1.25-5.833-1.25-2.979 0-5.747-.45-6.15-1-.484-.657-.74-.643-.75.042-.01.608-2.478 1.024-5.929 1-5.102-.036-5.753-.248-4.75-1.542 1.019-1.314.94-1.325-.633-.09-.987.776-1.56 2.024-1.272 2.773.401 1.046.093 1.133-1.323.375-1.015-.543-2.144-.69-2.509-.325-.364.365.364 1.233 1.619 1.93 2.742 1.522 20.376 1.802 21.281.337zm-9.75-1.662c.688-.278 1.813-.278 2.5 0 .688.277.125.504-1.25.504s-1.938-.227-1.25-.504zm5.837-7.095c-1.34-1.278-1.95-1.41-2.29-.493-.634 1.709-2.785 1.571-4.318-.275-1.13-1.362-1.462-1.348-3.099.133-1.008.913-1.562 2.097-1.231 2.632.373.605.861.552 1.289-.14.943-1.525 10.25-.255 9.392 1.283-.343.614-.014.551.73-.14 1.132-1.051 1.055-1.543-.473-3zm-2.894-23.974c-.254-.973-.478-.419-.498 1.231-.02 1.65.187 2.446.46 1.769.275-.677.292-2.027.038-3zm.854-9.924c.313-1.945 2.64-5.543 6.069-9.386 4.204-4.712 5.234-6.439 4.222-7.08-1.078-.683-1.046-.858.162-.895 1.147-.036 1.043-.393-.441-1.516-1.068-.807-2.418-1.461-3-1.453-.72.01-.71.25.029.75.598.404 1.355 1.792 1.682 3.084.327 1.292.354 2.108.06 1.814-.295-.295-1.69-.097-3.1.44-1.874.712-2.809.628-3.473-.314-.697-.987-.812-.938-.495.211.228.825 1.347 1.5 2.486 1.5 1.14 0 2.337.338 2.662.75.324.412.306.54-.041.285-.348-.255-1.585.066-2.75.715-1.166.648-2.473 1.195-2.905 1.215-1.594.071-2.568 2.938-1.609 4.731.668 1.25.614 1.804-.177 1.804-.653 0-.881.75-.533 1.75.509 1.459.36 1.427-.893-.191-.826-1.068-1.502-2.332-1.502-2.81 0-.476-.445-.592-.989-.256-.56.347-.737-.043-.408-.901.424-1.104.033-1.407-1.447-1.122-2.08.4-4.409-1.585-4.774-4.07-.113-.77.45-1.4 1.25-1.4s1.323.736 1.162 1.636c-.174.97.473 1.757 1.587 1.931 1.398.219 1.59.005.75-.836-.622-.622-1.131-1.859-1.131-2.749 0-1.218-.82-1.553-3.319-1.356-3.038.239-3.303.034-3.137-2.432.13-1.932.06-2.057-.248-.444-.236 1.238-1.13 2.25-1.985 2.25-1.241 0-1.314.291-.36 1.44.657.793 1.911 1.166 2.786.83.945-.362 1.336-.197.963.407-.809 1.308 4.665 6.6 5.779 5.587.462-.42.557.024.212.986-.346.963-.206 1.75.309 1.75s.712.588.436 1.307c-.276.719.17 2.856.992 4.75.886 2.043 1.51 2.705 1.533 1.627.021-.998-.453-2.734-1.054-3.857-.703-1.315-.748-2.386-.125-3.01.623-.622 1.209.395 1.646 2.858.373 2.104.976 4.725 1.339 5.825.594 1.803.69 1.753.966-.5.168-1.375.535-3.92.814-5.655zm.088-5.854c-.403-1.051-.217-1.35.546-.879.772.477.947.165.525-.936-.349-.909-.313-1.562.08-1.452.393.11 1.84-.403 3.214-1.141 2.376-1.276 2.352-1.175-.5 2.032-1.65 1.856-3.057 3.51-3.126 3.673-.07.164-.402-.42-.739-1.297zm-1.314-4.092c1.42-2.795 1.424-3.318.038-5.298-1.22-1.74-1.832-1.953-2.95-1.026-.775.643-1.409 1.994-1.409 3 0 1.73 2.085 7.223 2.535 6.68.116-.14.92-1.65 1.786-3.356zm-4.593-7.435c.963-1.274.744-1.572-1.283-1.74-1.345-.11-2.445.153-2.445.587 0 .747 2.255 3.418 2.466 2.922.055-.128.623-.924 1.262-1.77zM128.5 184c.34-.55.168-1-.382-1s-1.278.45-1.618 1c-.34.55-.168 1 .382 1s1.278-.45 1.618-1zm-2.734-3.567c-.338-.339-1.573-.312-2.743.06-1.739.552-1.906.943-.912 2.141 1.067 1.286 1.405 1.279 2.744-.06.84-.84 1.25-1.803.91-2.142zM104 182.607c0-.216-.698-.661-1.552-.989-.89-.341-1.291-.173-.94.393.586.95 2.492 1.406 2.492.596zm32.5-.607c.34-.55.141-1-.441-1s-1.059.45-1.059 1 .198 1 .441 1 .72-.45 1.059-1zm-36.155-3.543c-.326-.849-.807-1.329-1.069-1.067-.262.262-.18.957.183 1.543.986 1.596 1.562 1.286.886-.476zm25.155.301c8.276-.194 11.328-.63 12.324-1.758 1.139-1.29 1.252-1.164.806.894-.664 3.069.925 1.417 1.823-1.894.373-1.375.311-2.044-.137-1.486-.464.576-6.21 1.06-13.316 1.121-6.875.06-10.126-.083-7.224-.317 3.448-.277 5.044-.8 4.607-1.507-.461-.746 1.048-.94 4.86-.624 4.618.383 5.491.2 5.303-1.114-.145-1.011-1.443-1.674-3.635-1.855-2.572-.213-3.042-.032-1.911.735 1.057.716-1.602.979-9 .89-8.161-.099-9.609-.305-6.5-.926 3.12-.624 2.519-.712-2.737-.397-3.705.221-7.98 1.077-9.5 1.901-2.599 1.41-2.63 1.501-.513 1.539 1.237.022 2.25-.41 2.25-.96 0-1.39 4.722-1.26 5.595.155.443.715.275.883-.44.44-.635-.392-1.155-.274-1.155.263 0 .536.563 1.202 1.25 1.48.688.277-.7.54-3.083.583-2.945.054-4.203.47-3.926 1.301.532 1.596 4.039 2.383 9.154 2.056 2.258-.144 9.055-.378 15.105-.52zm-8.75-5.464c1.238-.238 3.263-.238 4.5 0 1.238.239.225.434-2.25.434s-3.487-.195-2.25-.434zM48.158 242c0-1.375.227-1.938.504-1.25.278.688.278 1.813 0 2.5-.277.688-.504.125-.504-1.25zm-4.408-31.737c2.888-.202 7.612-.202 10.5 0s.525.367-5.25.367-8.137-.165-5.25-.367zm139.012-.97c1.244-.24 3.044-.23 4 .02s-.062.446-2.262.435c-2.2-.011-2.982-.216-1.738-.455zm7.507.014c.973-.254 2.323-.237 3 .037.677.274-.119.482-1.769.461-1.65-.02-2.204-.244-1.231-.498zM58.5 202.04c-1.606-.658-1.213-.89 2-1.18 2.2-.198 3.868-.81 3.706-1.36-.162-.55-1.625-.859-3.25-.686-1.706.181-2.956-.16-2.956-.809 0-.632.546-.795 1.25-.372.85.51.81.209-.122-.941-1.486-1.832-2.634-2.32-1.628-.692.34.55-.196 1.016-1.191 1.036-.995.02-4.509.266-7.809.548-3.3.282-7.957.47-10.349.418-5.294-.116-5.346 2.144-.072 3.151 3.07.587 2.96.638-1.079.5-3.71-.126-4.5-.489-4.5-2.064 0-1.262 1.097-2.28 3.232-3 1.778-.599 4.545-2.682 6.15-4.629 2.88-3.493 2.92-3.72 3.177-17.5.161-8.644-.167-14.995-.862-16.677-.618-1.495-4.679-6.22-9.025-10.5-6.502-6.404-7.978-8.438-8.33-11.477-.686-5.929.361-7.425 5.71-8.158 6.762-.927 13.532-.743 10.948.298-1.872.753-1.84.84.5 1.36 1.375.305-.538.452-4.25.327-5.914-.2-6.75-.005-6.75 1.57 0 .988-.675 1.797-1.5 1.797-1.698 0-2.039 2.549-.47 3.518 1.43.884 10.332.995 11.705.146.62-.383 1.372-.3 1.672.185.3.485 2.806.715 5.569.51 3.055-.227 5.024.036 5.024.67 0 .717.598.721 1.918.015 1.055-.565 3.218-.767 4.806-.45 1.948.39 3.305.076 4.168-.964 1.483-1.787.687-3.63-1.568-3.63-1.065 0-1.392-.632-1.034-2 .287-1.1.115-2-.384-2-.498 0-.906.499-.906 1.108 0 .683-.96.868-2.5.481-1.442-.361-2.5-.196-2.5.392 0 .56-1.688 1.09-3.75 1.176-3.442.144-3.339.214 1.25.843l5 .686-4.5.215c-2.475.118-6.255.398-8.4.622-2.145.225-4.62-.013-5.5-.527-1.26-.737-.964-.963 1.4-1.065 2.95-.128 2.959-.144.5-.931-1.782-.57-.204-.874 5.5-1.057 7.56-.243 7.726-.295 3-.943l-5-.686 6-.289c5.403-.26 5.652-.362 2.5-1.025-3.18-.67-2.997-.748 2-.863 3.025-.07 7.188.343 9.25.916 3.417.948 3.75 1.35 3.75 4.526 0 5.493-2.292 9.63-8.304 14.988-8.312 7.409-8.687 8.51-8.663 25.433l.021 14.5 3.563 3.833c1.96 2.109 4.872 4.29 6.473 4.848 3.711 1.294 3.9 4.492.345 5.844-1.41.536-2.648.943-2.75.905-.102-.039-1.085-.44-2.185-.89zm-14.268-6.351c.242.446.327.31.188-.302-.158-.7 1.216-1.03 3.7-.89 2.545.144 3.814-.172 3.563-.887-.215-.61-1.165-.97-2.11-.8-.947.172-2.25-.098-2.897-.6-.796-.615-2.138.255-4.15 2.69-1.634 1.98-2.018 2.785-.853 1.789 1.166-.996 2.317-1.446 2.56-1zM55 193.607c0-.766-.685-1.656-1.523-1.978-1.243-.476-1.328-.22-.465 1.394 1.24 2.318 1.988 2.537 1.988.584zm-3.903-15.057c.497-.522.896-1.873.888-3-.012-1.575-.22-1.726-.899-.655-.71 1.121-.979 1.023-1.369-.5-.267-1.042-.485.58-.485 3.605s.216 4.6.481 3.5c.265-1.1.887-2.428 1.384-2.95zm.586 1.262c-.32-.797-.556-.56-.604.605-.043 1.054.193 1.644.525 1.312.332-.332.368-1.195.08-1.917zm-.69-15.317c.45.28.589-.379.305-1.463-.283-1.084-.049-3.308.52-4.942.853-2.444.783-2.874-.39-2.424-.786.302-1.428.976-1.428 1.5s-.45.674-1 .334-1-.198-1 .316-.234 2.453-.52 4.309c-.403 2.624-.307 2.93.43 1.375.887-1.869.96-1.836 1.099.5.082 1.375.377 1.935.655 1.244.279-.691.876-1.028 1.328-.749zm-4.273-6.458c-.56-2.14 1.444-4.473 2.815-3.278.468.407-.624-1.171-2.426-3.509-2.925-3.794-5.224-5.863-3.607-3.247.53.858-.598.868-4.502.04-.275-.059.4-.828 1.5-1.71 1.624-1.301 1.671-1.489.25-.999-.962.332-1.75.211-1.75-.268 0-.478-1.35-1.341-3-1.916s-3-1.52-3-2.098c0-1.255 2.16-.964 3.326.448.493.597.661.395.417-.5-.529-1.937-4.243-1.963-4.243-.03 0 .81 1.125 2.04 2.5 2.736 1.375.695 2.12 1.271 1.657 1.28-.463.007 1.23 2.318 3.762 5.135 2.532 2.816 4.872 6.191 5.2 7.5.33 1.308.827 2.379 1.106 2.379.28 0 .277-.883-.005-1.963zm-3.723-6.287c-1.348-1.842-1.646-2.655-.688-1.878 1.337 1.086 1.691 1.103 1.691.084 0-2.372 1.5.176 1.546 2.627.026 1.33-.002 2.417-.061 2.417-.06 0-1.18-1.462-2.488-3.25zm13.203-1.277c1.265-1.608 2.214-3.16 2.109-3.449-.106-.288.443-.464 1.22-.39.776.073 2.627-1.501 4.113-3.5 1.486-1.999 2.328-3.3 1.872-2.893-.457.408-1.546.183-2.422-.5-1.373-1.07-1.422-1.022-.35.351 1.468 1.884.716 2.902-2.159 2.923-1.719.013-1.82.188-.583 1.003 1.172.772.96.933-.973.735-1.577-.161-2.483.26-2.5 1.164-.015.779-.652 1.625-1.416 1.88-.954.317-1.135.03-.578-.917.446-.76-.167-.523-1.361.525-1.195 1.048-2.158 2.398-2.14 3 .017.602.64.294 1.382-.684 1.196-1.578 1.418-1.6 1.956-.198.347.903.188 1.322-.37.977-.566-.35-.732.153-.394 1.198.337 1.042.226 1.38-.262.802-1.093-1.295-3.344-1.744-3.344-.667 0 2.995 3.353 2.26 6.2-1.36zm-5.326-2.096c.977-2.143.91-3.057-.363-5-1.93-2.945-2.094-2.943-4.057.053-1.462 2.232-1.455 2.64.092 5 2.118 3.232 2.835 3.223 4.328-.053zm-9.18-5.909c-2.448-2.153-2.557-2.468-.857-2.468 1.072 0 2.235.746 2.585 1.657.566 1.475.854 1.424 2.614-.465 1.189-1.276 2.674-1.9 3.721-1.564 1.417.456 1.473.37.297-.464-.887-.628-2.093-.678-3.119-.13-.92.493-1.94.627-2.268.3-.328-.328-2.126-.69-3.996-.803-2.876-.175-3.324.082-2.91 1.665.27 1.03 1.671 2.513 3.114 3.298 3.786 2.057 4.007 1.78.82-1.026zm13.796 1.548c.335-.541 2.049-1.4 3.81-1.91 2.896-.838 2.96-.934.673-1.016-1.39-.05-3.502-.772-4.692-1.606-1.96-1.373-2.256-1.351-3.138.224-1.63 2.912 1.623 7.098 3.347 4.308zm-2.49-.874c0-1.028 3.029-2.446 3.729-1.747.243.244-.496.945-1.643 1.56-1.148.613-2.086.698-2.086.187zm7.73-3.746c-.333-.332-1.196-.368-1.917-.08-.798.32-.561.557.604.605 1.054.043 1.644-.193 1.312-.525zm-31.534-4.146c-.29-1.512-.72-2.173-.956-1.467-.425 1.272.336 4.217 1.09 4.217.216 0 .156-1.238-.134-2.75zM68.914 134c-.036-.99-.347-.819-.914.5-1.181 2.75-1.181 4.328 0 2.5.533-.825.945-2.175.914-3zm-20.185-1.604c-.332-.332-1.195-.368-1.917-.08-.797.32-.56.557.605.605 1.054.043 1.644-.193 1.312-.525zM176.5 201.96c-2.895-1.188-1.893-1.276 12.167-1.072 4.216.061 7.433.344 7.149.629-.917.917-17.247 1.291-19.316.443zm-8.076-2.3c-.8-2.081.296-3.706 2.045-3.034.83.318 3.262-1.399 5.942-4.195l4.536-4.734.276-14.1c.33-16.758.137-17.253-10.93-28.142-5.83-5.735-7.279-7.755-7.223-10.066.06-2.466.187-2.597.865-.89l.795 2 .52-2c.422-1.632.54-1.678.634-.25.072 1.092.962 1.775 2.366 1.815 6.598.191 22.837.931 26.75 1.219 5.159.379 8-.66 8-2.926 0-.986.559-1.358 1.5-.996.924.354 1.5-.002 1.5-.929 0-1.176-.42-1.278-1.934-.468-1.064.57-3.427.989-5.25.933l-3.316-.103 3.3-.781c3.743-.887 4.86-1.688 3.812-2.735-.396-.397-1.034-.284-1.416.25-.984 1.374-4.196 1.768-4.196.515 0-.574.563-1.05 1.25-1.06.833-.01.75-.338-.25-.984-2.183-1.41 4.53-1.322 7.178.095 1.732.927 1.948 1.713 1.406 5.105-.95 5.942-2.929 9.086-8.964 14.241-7.93 6.776-8.62 8.795-8.62 25.248v13.886l4.75 4.572c2.612 2.514 5.537 4.846 6.5 5.18 2.54.886 2.283 4.673-.317 4.673-1.613 0-1.928-.44-1.433-2 .383-1.208.18-2-.514-2-.632 0-3.026-1.538-5.32-3.418-3.742-3.066-4.368-3.273-6.086-2.017-1.419 1.038-2.262 1.114-3.248.296-1.75-1.453-4.454.659-3.621 2.828.454 1.183.118 1.392-1.441.897-1.274-.405-2.225-.144-2.548.696-.378.984.257 1.228 2.382.916 2.09-.307 2.896-.983 2.896-2.428 0-1.46.504-1.871 1.858-1.517 1.022.267 2.543.102 3.38-.367.95-.531 2.69-.27 4.623.694 3.863 1.928 4.484 2.89 2.778 4.304-1.012.84-1.901.623-3.649-.893-1.27-1.102-2.563-1.751-2.871-1.443-.309.308.077.955.858 1.438 1.74 1.075-.882 1.76-8.977 2.346-3.025.22-6.507.735-7.738 1.147-1.604.536-2.408.305-2.838-.818zm4.305-1.265c-.332-.332-1.195-.368-1.917-.08-.797.32-.56.557.605.605 1.054.043 1.644-.193 1.312-.525zM187.073 181c.51 0 .882-1.238.827-2.75l-.1-2.75-.761 2.5c-.687 2.255-.808 2.108-1.232-1.5-.367-3.114-.482-2.67-.523 2-.029 3.3.154 5.213.405 4.25.252-.963.875-1.75 1.384-1.75zm-2.066-19.99c.547.887 1.51-.34 3.018-3.846 1.223-2.844 4.062-6.817 6.345-8.879 2.271-2.052 3.988-3.897 3.813-4.1-.174-.202.501-1.002 1.5-1.779 1.527-1.185 1.549-1.318.14-.83-1.334.463-1.572.105-1.163-1.747.37-1.676.244-1.949-.448-.972-.568.8-1.208.959-1.562.386-.33-.534-2.45-.97-4.713-.97-2.637 0-3.633.304-2.775.848 1.292.819.398 1.317-1.662.926-.55-.104-.486.334.143.975.868.884 1.768.755 3.742-.539 2.919-1.912 5.887-1.354 5.006.941-.317.825-1.494 1.791-2.616 2.147-1.416.45-1.668.877-.823 1.4.873.539.699.977-.618 1.553-1.009.442-2.134.842-2.5.89-.367.047-.971.39-1.342.761-.372.371.028.572.887.446.86-.127 1.876-.543 2.259-.925.382-.383 1.183-.682 1.779-.664.596.017.23.678-.814 1.468-1.044.79-2.311 1.18-2.817.868-.506-.313-.836.039-.734.782.484 3.526-.089 4.242-1.632 2.04-1.46-2.087-1.423-2.519.502-5.783 1.145-1.94 1.595-3.226 1-2.859-.595.368-1.757-.295-2.582-1.473l-1.5-2.141-2.004 2.547-2.003 2.547 3.677 5.12c3.805 5.295 3.614 6.8-.867 6.837-1.28.01-1.668.507-1.25 1.597.334.87.66 2.332.723 3.25.092 1.33.215 1.283.601-.227.365-1.423.686-1.57 1.29-.594zm9.326-15.554c0-.8.375-1.456.834-1.456.458 0 .833.423.833.941s-.375 1.173-.833 1.456c-.459.283-.834-.14-.834-.941zm-11.342 4.53c-1.044-1.465-2.706-3.29-3.694-4.058-1.677-1.3-1.675-1.25.032.755 1.898 2.23 3.093 7.696 1.462 6.688-.51-.315-.704-1.155-.431-1.866.272-.71-.583-2.305-1.901-3.544-1.319-1.238-2.192-2.584-1.94-2.99.25-.407-1.001-1.315-2.782-2.02-1.78-.704-4.117-1.994-5.193-2.866-1.436-1.163-1.303-.738.5 1.598 1.68 2.176 3.089 3.048 4.456 2.759 1.1-.233 1.433-.164.741.154-.857.392.022 2.032 2.75 5.131 2.205 2.505 4.009 4.937 4.009 5.404 0 .467.875.1 1.944-.815 1.912-1.637 1.913-1.709.047-4.33zm-6.067-1.736l-2.424-2.75 2.75 2.424c2.57 2.266 3.209 3.076 2.424 3.076-.179 0-1.416-1.238-2.75-2.75zm11.421 2.207c-.326-.849-.807-1.329-1.069-1.067-.262.262-.18.957.183 1.543.986 1.596 1.562 1.286.886-.476zM185 138.73c.825-.257-.189-.482-2.253-.5-3.776-.031-5.65 1.093-3.763 2.259.559.345 1.016 1.062 1.016 1.592s-1.139.218-2.531-.694c-1.392-.913-2.782-1.408-3.089-1.102-.306.307.72 1.233 2.282 2.06 2.668 1.411 2.958 1.362 4.838-.823 1.1-1.278 2.675-2.534 3.5-2.792zm8.971 3.308c.81-.512 1.226-1.175.927-1.474-.3-.3-1.411.112-2.471.914-2.108 1.595-.827 2.06 1.544.56zm-19.661-3.123c.446-.335-.575-.648-2.268-.696-1.709-.048-2.817.335-2.49.863a1.109 1.109 0 0 0 1.517.374c.512-.316.931-.024.931.65 0 .683.332.825.75.321.412-.497 1.115-1.178 1.56-1.512zm30.556-3.785c-.201-.586-.935.147-1.63 1.63-1.167 2.49-1.14 2.57.367 1.065.896-.896 1.464-2.11 1.263-2.695zm-39.616-2.837c-1.347-.26-2.25-1.161-2.25-2.247 0-1.036.965-2.072 2.25-2.417 3.727-.998 5.75-.712 5.75.815 0 1.005 1.447 1.56 4.75 1.82l4.75.375-4.816.18c-2.648.099-5.734-.312-6.857-.913-1.523-.814-2.332-.777-3.184.148-.886.96-.737 1.096.659.604 1.022-.36 1.55-.228 1.22.306-.336.543 2.293 1.09 6.198 1.293l6.78.35-6.5.06c-3.575.033-7.513-.135-8.75-.374zm14.534-4.032c2.905-.203 7.405-.2 10 .005 2.594.205.216.37-5.284.368-5.5-.003-7.622-.17-4.716-.373zm-132.034-.924c.688-.278 1.813-.278 2.5 0 .688.277.125.504-1.25.504s-1.938-.227-1.25-.504zm131.5-1.077c3.163-.198 8.338-.198 11.5 0 3.163.198.575.36-5.75.36s-8.912-.162-5.75-.36zm-144.245-6.155c-3.811-1.06-3.712-3.784.198-5.418 1.834-.766 4.594-3.044 6.134-5.063l2.8-3.671-.319-16.015-.318-16.015-7.341-7.18C26.453 57.25 22.975 50.423 26.2 47.2c1.75-1.75 6.467-1.53 6.467.3 0 .825-.402 1.5-.893 1.5-.49 0-.614.45-.274 1 .34.55-.132 1-1.048 1-1.108 0-1.463.53-1.059 1.582.334.87.607 1.657.607 1.75 0 .092 5.425.139 12.055.102 6.63-.036 12.212.19 12.404.5.192.312 2.6.413 5.352.226 3.915-.267 5.112-.756 5.502-2.25.353-1.348-.02-1.91-1.268-1.91-1.346 0-1.654-.596-1.29-2.5.402-2.1.1-2.498-1.888-2.485-1.895.013-2.068.209-.867.985 1.132.732.642.99-2 1.055-2.872.07-3.141.24-1.5.945 1.1.473 1.55.923 1 1-.55.077-.1.527 1 1 1.256.54-2.99.886-11.417.93-7.379.038-13.217-.13-12.973-.374.244-.243 1.782-1.14 3.417-1.993l2.973-1.55-2.809-.007c-1.617-.003-2.547-.43-2.191-1.006.34-.55.029-1.007-.691-1.015-.951-.011-.899-.28.191-.985 2.252-1.455 23.774-1.187 28.952.361 6.063 1.813 6.81 3.32 4.603 9.281-1.26 3.404-3.713 6.674-8.195 10.926-4.016 3.81-6.76 7.342-7.378 9.493-.54 1.884-.982 9.313-.982 16.51v13.083l4.25 4.56c2.337 2.509 5.289 4.875 6.558 5.26 1.639.495 2.22 1.323 2 2.852C64.5 119.485 61 121.09 61 119.073c0-.59.66-1.073 1.469-1.073.922 0 1.245-.583.867-1.567-.426-1.11-.912-1.257-1.669-.5-.587.587-1.765 1.06-2.617 1.052-1.251-.013-1.288-.181-.193-.875.875-.555.988-1.088.319-1.501-.57-.353-1.32-.184-1.666.375-.345.559-1.303 1.016-2.128 1.016-.836 0-1.2-.487-.82-1.1.494-.8.119-.8-1.376 0-3.015 1.614-4.186 1.353-4.186-.931 0-2.616 2.217-3.444 5.172-1.932l2.328 1.19-2.065-2.15c-1.817-1.893-2.356-1.997-4.5-.864-1.689.893-2.337 1.976-2.115 3.537.187 1.32-.227 2.299-1 2.368-.726.065.03.462 1.68.882 2.19.557.975.776-4.5.811-5.03.033-6.841-.235-5.5-.811 2.525-1.085-.193-1.175-2.946-.098-1.818.711-1.784.82.5 1.625 1.345.475 7.171 1.137 12.946 1.47l10.5.608-11 .098c-6.05.054-12.123-.215-13.495-.597zM45 116.031c0-.532-.675-.71-1.5-.393-.825.317-1.5.753-1.5.969 0 .216.675.393 1.5.393s1.5-.436 1.5-.969zm.5-5.031c.34-.55.168-1-.382-1s-1.278.45-1.618 1c-.34.55-.168 1 .382 1s1.278-.45 1.618-1zm1.713-8c.242-1.65.069-3-.386-3S46 101.35 46 103s.174 3 .387 3c.212 0 .584-1.35.826-3zm.584-12.618l-.34-3.882-.482 4.704c-.265 2.586-.112 4.333.34 3.881.452-.452.669-2.568.482-4.703zM48.317 78c.342-2.587.257-3.665-.2-2.536-.717 1.776-.859 1.7-1.486-.796-.945-3.766.122-5.202 2.36-3.176 1.06.96 1.612 2.517 1.352 3.815-.29 1.445.037 1.17.957-.807.769-1.65 1.164-3.636.879-4.414-.288-.786-.074-1.139.483-.795.55.34 3.215-1.64 5.92-4.403s4.243-4.88 3.418-4.705c-.958.202-1.394-.316-1.206-1.433.19-1.13-.342-1.745-1.5-1.735-1.354.012-1.47.222-.47.855 1.07.678 1.007 1.156-.322 2.485-2.102 2.102-4.213 2.206-2.483.122 1.061-1.278.991-1.418-.435-.87-.934.358-1.462 1.268-1.173 2.022.29.754.128 1.371-.36 1.371-.486 0-1.111-.563-1.389-1.25-.363-.901-.526-.918-.583-.059-.13 1.95 1.727 2.483 4.15 1.192 1.982-1.056 2.113-1.018 1.03.295-.683.828-1.018 1.73-.744 2.003.273.274-.405 1.315-1.509 2.313-2.08 1.883-2.873.773-.875-1.225.84-.84.648-1.055-.75-.836-1.166.182-1.76.954-1.564 2.03.188 1.03-.118 1.469-.75 1.078-.587-.362-1.067-.182-1.067.4 0 1.962-2.094 1.08-5.01-2.112-1.593-1.745-2.623-3.614-2.289-4.155.35-.567.091-.664-.612-.23-.927.574-.844 1.17.346 2.484 2.44 2.696 1.838 3.677-.76 1.237-1.277-1.2-2.725-1.842-3.216-1.424-.491.417-.337.028.342-.865 1.074-1.413.688-1.762-2.97-2.691l-4.206-1.068 5.937 5.613c3.266 3.087 6.297 5.529 6.735 5.426.44-.103.703.382.588 1.078-.274 1.646 2.047 11.22 2.567 10.591.148-.179.537-2.35.865-4.825zm-7.26-10.404L38.612 64.5l2.774 2.5c1.526 1.375 3.064 2.354 3.419 2.175.354-.179.802.271.995 1 .277 1.046.15 1.038-.604-.038-.525-.75-1.122-.931-1.326-.404-.204.528-1.47-.434-2.815-2.137zm8.605 12.154c-.277-.688-.504-.125-.504 1.25s.227 1.938.504 1.25c.278-.688.278-1.813 0-2.5zm.405-13.875c.867-1.62.833-2.694-.146-4.523-2.293-4.283-6.195-.444-4.138 4.07 1.427 3.134 2.773 3.276 4.284.453zM41 60c0-.55-.788-.993-1.75-.985-1.496.013-1.532.157-.25.985 1.887 1.22 2 1.22 2 0zm3.414-3.304c-2.227-1.253-3.549.115-2.2 2.276 1.089 1.742 1.264 1.757 2.402.204.988-1.35.949-1.833-.202-2.48zm-9.73 1.117c-.32-.798-.557-.561-.605.604-.043 1.054.193 1.644.525 1.312.332-.332.368-1.195.08-1.917zm18.87 1.1c1.03-1.668-1.287-3.58-2.667-2.2C49.733 57.867 50.455 60 52 60c.485 0 1.184-.49 1.554-1.087zM32.5 58c.34-.55-.11-1-1-1s-1.34.45-1 1c.34.55.79 1 1 1 .21 0 .66-.45 1-1zm31.897.167c.283-.459-.12-.834-.897-.834s-1.18.375-.897.834c.283.458.687.833.897.833.21 0 .614-.375.897-.833zm-36.275-4.842c-1.179-2.027-1.463-1.378-.498 1.136.342.894.834 1.415 1.091 1.157.258-.257-.01-1.29-.593-2.293zm11.607-2.93c-.332-.331-1.195-.367-1.916-.078-.798.32-.561.556.604.604 1.054.043 1.644-.193 1.312-.525zm10 0c-.332-.331-1.195-.367-1.916-.078-.798.32-.561.556.604.604 1.054.043 1.644-.193 1.312-.525zm-20.203-2.202c-.307-.308-1.114 0-1.793.683-.98.988-.865 1.102.56.56.986-.376 1.541-.935 1.233-1.243zM171 119c0-.55 1.125-1.067 2.5-1.15a196.08 196.08 0 0 0 3.667-.25c.641-.055 1.354.463 1.583 1.15.288.864-.844 1.25-3.667 1.25-2.245 0-4.083-.45-4.083-1zm19.365.218c.734-1.187 6.635-1.395 6.635-.234 0 .559-1.602 1.016-3.559 1.016s-3.342-.352-3.076-.781zm8.408-1.445c1.251-1.507.7-2.784-1.19-2.758-.596.008-.408.452.417.985 1.142.738.74.973-1.683.985-2.355.011-3.354-.527-3.844-2.07-.504-1.587-1.216-1.945-2.985-1.501-1.395.35-2.544.084-2.876-.666-.37-.835-.524-.752-.464.252.184 3.093-.19 4-1.648 4-.825 0-1.5-.45-1.5-1s-.62-1-1.378-1c-.757 0-1.933-.67-2.613-1.489-1.475-1.778-3.156-1.057-2.362 1.013.594 1.547-.194 1.966-5.397 2.864-2.76.477-3.25.264-3.25-1.413 0-1.4.676-1.975 2.325-1.975 1.279 0 3.076-.787 3.995-1.75 3.622-3.797 6.455-7.846 6.822-9.75.612-3.178 2.302-1.916 2.966 2.217.391 2.434.659 2.912.75 1.342.138-2.37.186-2.385 1.644-.5 1.41 1.822 1.463 1.826.846.067-.63-1.794-.546-1.802 1.928-.181 1.422.932 3.326 2.825 4.232 4.208.906 1.383 3.217 3.17 5.135 3.971 3.822 1.597 4.32 4.567.877 5.23-1.613.31-1.744.121-.747-1.08zm-24.504-2.429c-.677-.274-2.027-.29-3-.037-.973.254-.419.478 1.231.498 1.65.02 2.446-.187 1.769-.46zm10.414-1.531c-.32-.798-.556-.561-.604.604-.043 1.054.193 1.644.525 1.312.332-.332.368-1.195.08-1.917zm1.489-3.261c.92-.388 2.72-.156 4 .517 2.323 1.22 2.324 1.217.415-.932-1.743-1.963-2.11-2.024-4.158-.682-1.977 1.295-2.392 1.295-3.47-.004-.925-1.115-1.556-1.2-2.58-.35-.747.619-1.17 1.428-.941 1.798.507.821 4.447.617 6.734-.348zm-2.745-28.21c-.59-.215-.939-1.842-.775-3.616.268-2.888.213-2.964-.52-.726-.777 2.369-.882 2.28-2.002-1.7-.879-3.127-3.07-6.035-8.564-11.367-11.37-11.035-13.335-18.948-5.087-20.495 2.501-.47 3.897-.205 5.059.957 1.473 1.473 1.455 1.606-.217 1.62-1.001.009-2.496.495-3.321 1.081-1.138.809-.776.91 1.5.42 1.65-.357 3.659-1.293 4.464-2.082 1.284-1.257 1.245-1.434-.309-1.434-.975 0-1.495-.45-1.155-1 .75-1.215 19.173-1.215 22 0 1.746.75 1.619.886-1 1.066-2.875.198-2.896.232-.5.812 1.463.354-1.132.816-6.26 1.113-4.819.28-8.788.959-8.821 1.509-.118 1.934-3.096 2.663-8.075 1.979-4.875-.67-4.994-.628-3.911 1.395.985 1.84 1.972 2.073 8.342 1.967 3.974-.066 11.417-.026 16.54.088 6.026.135 9.82-.212 10.75-.983 1.649-1.369 1.967-3.393.378-2.41-.581.358-2.245.354-3.698-.01-1.947-.49-2.284-.884-1.284-1.502.747-.462 2.035-.58 2.862-.262.98.376 1.253.17.782-.592-.398-.644-1.357-1.17-2.133-1.17-.842 0-1.178-.604-.834-1.5.722-1.88 4.375-1.942 6.872-.116 2.327 1.701 2.379 6.997.111 11.382-.872 1.686-4.296 5.423-7.61 8.305-4.46 3.88-6.326 6.303-7.186 9.335-1.27 4.472-2.797 6.891-2.87 4.544-.025-.797-.587-.273-1.25 1.166-.663 1.438-1.688 2.44-2.278 2.225zm2.532-7.849c.661 1.786.922 1.63 2.506-1.5.973-1.921 2.704-4.515 3.846-5.765 2.263-2.474 2.986-4.927 1.688-5.729-.453-.28-.693.281-.533 1.246.16.965-.62 2.754-1.733 3.974-1.956 2.145-3.733 2.223-3.733.163 0-.55.399-.753.887-.452.487.301 1.5-.208 2.25-1.133.937-1.156.973-1.446.113-.93-.688.413-1.25.274-1.25-.308 0-.582.563-1.095 1.25-1.138.855-.054.808-.254-.15-.633-1.061-.42-.82-1.033 1-2.54l2.4-1.985-2.75 1.641c-1.512.903-2.75 1.196-2.75.651 0-.545 1.191-1.615 2.647-2.378l2.648-1.387-2.617-.5c-1.539-.295-2.372-.104-2.023.462.358.579-.35.694-1.78.29-1.831-.519-2.032-.433-.875.377.825.578 1.11 1.057.635 1.066-.476.008-.179 1.063.66 2.343 1.394 2.126 1.354 2.6-.463 5.469-1.968 3.108-1.623 6.902.37 4.06.769-1.098.872-1.07.54.143-.224.825-1.046 1.5-1.825 1.5-2.11 0-2.904 1.597-2.734 5.5.152 3.483.155 3.48.595-.5.345-3.117.605-3.56 1.18-2.007zM185 68.815c0-.754.617-2.258 1.372-3.342.882-1.268 1.085-2.74.57-4.12-1.255-3.362-2.71-3.637-4.53-.86-1.55 2.367-1.554 2.693-.044 4.361 1.83 2.023 2.138 4.716.643 5.639-.543.336-.749-.012-.456-.774.302-.788-.094-1.386-.917-1.386-.874 0-1.22.593-.873 1.498.405 1.054.183 1.255-.75.679-.887-.55-1.085-.433-.6.352.398.644 1.19.882 1.761.53.677-.42.784.184.307 1.733-.711 2.311-.674 2.304 1.393-.283 1.168-1.461 2.124-3.274 2.124-4.027zM177.5 67c-.995-1.1-1.46-2-1.033-2 .428 0 .277-.604-.336-1.342-.612-.738-.873-1.583-.58-1.876.295-.294-.183-.81-1.06-1.147-1.061-.407-1.385-.198-.969.626.345.682-.02.452-.808-.511-.789-.962-1.947-1.75-2.574-1.75-.627 0-1.14-.675-1.14-1.5s-.69-1.5-1.533-1.5c-.896 0 1.048 2.698 4.683 6.5 3.42 3.575 6.429 6.5 6.688 6.5.26 0-.343-.9-1.338-2zm4.5-.378c0-.207-.635-.904-1.411-1.548-1.08-.897-1.585-.89-2.154.032-.455.735-.322.942.341.532.597-.369 1.368-.213 1.714.346.618 1 1.51 1.377 1.51.638zm15.35-6.39c-.32-1.227-.98-2.232-1.467-2.232-1.218 0-1.114 2.739.133 3.51.56.346.718 1.16.354 1.81-.46.819-.323.869.45.163.613-.56.852-2.022.53-3.25zM177 59c-.825-.533-1.95-.97-2.5-.97s-.325.437.5.97c.825.533 1.95.97 2.5.97s.325-.437-.5-.97zm23.554-1.913c-.37-.598-1.883-1.08-3.363-1.072-1.967.012-2.312.256-1.282.908.775.49 2.091.63 2.924.31 1.157-.443 1.341-.126.781 1.343-.559 1.468-.455 1.648.44.761.644-.64.87-1.652.5-2.25zm-18.655.535c.891-1.074.753-1.471-.628-1.802-.974-.233-2.59-.249-3.593-.035-1.762.377-1.762.434 0 1.77 2.31 1.751 2.816 1.76 4.22.067zm-7.433-2.472c-.564-.593-2.466.91-2.466 1.948 0 .54.63.4 1.4-.309.769-.709 1.249-1.447 1.066-1.64zm30.328-4.794c-.291-1.375-.543-1.123-.97.97-.372 1.825-.232 2.482.394 1.856.533-.533.793-1.805.576-2.826zm-38.655-2.9c1.106-.351 1.791-.859 1.522-1.128-1.162-1.162-4.652 1.89-4.525 3.957l.136 2.215.428-2.203c.234-1.211 1.332-2.49 2.439-2.841zm-51.916-11.013c-2.521-1.765-3-5.443-.71-5.443.833 0 2.397.551 3.476 1.225 1.547.967 2.22.967 3.186 0 .967-.967.702-1.225-1.252-1.225-4.336 0-6.923-2.637-6.923-7.057 0-7.456 7.583-10.83 11.927-5.308 3.162 4.02 2.946 13.583-.382 16.91-2.818 2.819-6.126 3.137-9.322.898zm4.277-1.167c-1.1-.27-2.675-1.005-3.5-1.634-1.305-.993-1.321-.914-.128.608.755.963 2.33 1.698 3.5 1.634 2.021-.11 2.028-.14.128-.608zm1.23-6.88c-.333-.332-1.196-.368-1.918-.08-.797.32-.56.557.605.605 1.054.043 1.644-.193 1.312-.525zm-4.385-1.94c-.326-.848-.807-1.328-1.069-1.066-.262.262-.18.957.183 1.543.986 1.596 1.562 1.286.886-.476zm8.64-.206c-.01-.999-.336-1.32-.762-.75-.41.55-1.154 1.337-1.651 1.75-.498.412-.155.75.761.75.927 0 1.66-.777 1.652-1.75zm-3.485-2.764c0-2.798-2.929-2.488-3.331.353-.257 1.814.08 2.26 1.5 1.986 1.042-.2 1.831-1.208 1.831-2.339zM10.718 370.264c-.23-1.52-.424-.514-.432 2.236-.007 2.75.18 3.994.418 2.764.237-1.23.243-3.48.014-5zm-.978-21.977c-.199-3.183-.364-.837-.366 5.213-.002 6.05.16 8.654.362 5.787.201-2.868.203-7.818.004-11zm.002-24.995c-.192-3.736-.352-.942-.353 6.208-.002 7.15.156 10.206.35 6.792.195-3.415.196-9.265.003-13zm-1-99.503c-.196-3.459-.358-.889-.36 5.711-.002 6.6.158 9.43.356 6.29.198-3.142.2-8.542.003-12zm224.005-17.984c-.176-6.218-.32-1.405-.32 10.695-.002 12.1.142 17.187.319 11.305.176-5.882.177-15.782 0-22zm-1.43-120.055c-.433-54.502-.939-77.466-1.716-77.985-.605-.404-1.776-.71-2.601-.682-.919.032-.628.473.75 1.137L230 9.306l.212 61.597c.116 33.878.273 63.397.349 65.597.075 2.2.205 9.063.288 15.25.083 6.188.36 11.25.617 11.25.256 0 .189-34.763-.149-77.25zM7.728 136.25c-.215-2.063-.392-.375-.392 3.75s.177 5.813.392 3.75c.216-2.063.216-5.438 0-7.5zm-.045-6.438c-.32-.797-.556-.56-.604.605-.043 1.054.193 1.644.525 1.312.332-.332.368-1.195.08-1.917zm.065-54.562c-.163-9.763-.297-1.775-.297 17.75s.134 27.512.297 17.75c.164-9.762.164-25.738 0-35.5zM7.5 32.75V9.5l45.488-.321c25.018-.177 45.686-.52 45.927-.76.241-.242-20.454-.322-45.988-.18L6.5 8.5l-.268 23.75c-.148 13.063.077 23.75.5 23.75.422 0 .768-10.462.768-23.25zM126.3 8.257c-4.511-.185-12.161-.186-17-.002-4.84.183-1.15.335 8.2.336 9.35.001 13.31-.15 8.8-.334zm15.969.087c-.677-.274-2.027-.29-3-.037-.973.254-.419.478 1.231.498 1.65.02 2.446-.187 1.769-.46zm9.481-.06c-1.512-.23-3.987-.23-5.5 0-1.512.229-.275.416 2.75.416s4.263-.187 2.75-.416zm6.5.054c-.688-.278-1.813-.278-2.5 0-.688.277-.125.504 1.25.504s1.938-.227 1.25-.504zm11.48.058c-.333-.332-1.196-.368-1.917-.08-.798.32-.561.557.604.605 1.054.043 1.644-.193 1.312-.525zm14.52-.102c-1.238-.238-3.263-.238-4.5 0-1.238.239-.225.434 2.25.434s3.487-.195 2.25-.434zm5.48.102c-.333-.332-1.196-.368-1.917-.08-.798.32-.561.557.604.605 1.054.043 1.644-.193 1.312-.525zM244.475 80c0-43.725.123-61.612.274-39.75.15 21.863.15 57.638 0 79.5-.15 21.863-.274 3.975-.274-39.75z"/></svg>