<svg xmlns="http://www.w3.org/2000/svg" width="244" height="420" viewBox="0 0 244 420"><path d="M61.25 418.25c33.413-.146 88.088-.146 121.5 0 33.413.146 6.075.266-60.75.266s-94.162-.12-60.75-.266zm-55.941-11.5c-.445-.688-.943-89.9-1.106-198.25-.241-160.224-.054-197.308 1-198.647C6.365 8.377 11.67 8.143 56 7.607c88.841-1.073 175.187-.923 175.947.307.379.613.805 90.4.947 199.525.256 197.305.246 198.416-1.736 199.477-3.109 1.663-224.77 1.5-225.849-.166zm224.459-2.102c1.017-.632 1.216-32.667 1.006-161.968-.144-88.649-.388-177.493-.542-197.43L229.95 9h-74.642c-41.053 0-74.346.297-73.983.66.362.362 33.737.595 74.167.518l73.507-.14.03 21.23c.017 11.678.294 100.035.618 196.35.33 98.616.209 175.35-.28 175.648-.477.291-50.368.688-110.868.882l-110 .352-.573-7-.574-7-.176 6.168c-.098 3.393.107 6.908.454 7.812.58 1.514 9.312 1.617 110.75 1.3 60.565-.19 110.69-.7 111.387-1.132zm-40.47-2.638l38.799-.01-.495-124.25c-.272-68.338-.519-156.062-.548-194.943L227 12.114l-108.215.482c-83.196.37-108.393.762-108.985 1.693-.932 1.467-1.061 368.697-.134 380.616l.654 8.404 70.09-.644c38.55-.355 87.55-.65 108.888-.655zm-78.96-16.76c-10.116-9.605-10.763-9.836-16.539-5.917-3.357 2.278-6.2 1.835-6.61-1.03-.208-1.45.544-2.737 2.25-3.855 1.408-.923 2.561-2.563 2.561-3.646 0-1.76-10.477-15.209-45.85-58.858-7.67-9.464-11.19-14.637-11.658-17.136-.738-3.931.346-5.312 3.408-4.34 1.736.551 31.554 31.61 55.953 58.282 5.66 6.187 10.674 11.25 11.142 11.25.469 0 2.284-1.205 4.034-2.678 2.495-2.1 3.538-2.447 4.827-1.609 2.332 1.518 1.598 5.404-1.498 7.932-3.184 2.6-2.861 4.712 1.816 11.875 4.226 6.472 6.826 8.356 6.826 4.949 0-.843.658-1.784 1.462-2.093.804-.308 1.766-1.532 2.137-2.718.371-1.187 1.72-3.408 2.996-4.935 2.611-3.124 2.31-5.035-1.34-8.49-2.643-2.503-2.662-4.948-.05-6.592 1.336-.842 2.216-.594 4.065 1.142 1.297 1.22 3.118 2.217 4.045 2.217 1.977 0 6.77-5.06 48.573-51.284 7.353-8.13 14.182-15.218 15.175-15.75.993-.531 2.96-.966 4.371-.966 2.156 0 2.566.457 2.566 2.856 0 3.295-2.172 6.249-32.184 43.779-11.376 14.226-21.613 27.061-22.75 28.523-2.39 3.075-2.7 6.661-.643 7.45 3.455 1.327 2.369 6.392-1.371 6.392-.937 0-2.76-1.125-4.052-2.5-1.292-1.375-2.88-2.5-3.53-2.5-.649 0-3.474 2.426-6.278 5.39-7.754 8.199-9.906 9.61-14.657 9.61-3.636 0-4.862-.633-9.198-4.75zm7.662 2.417c0-.734-.668-1.334-1.484-1.334-1.124 0-1.215.324-.378 1.334.609.733 1.277 1.333 1.484 1.333.208 0 .378-.6.378-1.333zm12.078-7.07c9.224-9.2 10.916-9.822 14.891-5.47 1.638 1.793 3.291 2.946 3.675 2.563.383-.384-.28-1.738-1.473-3.008-2.985-3.178-2.726-5.484 1.079-9.613 1.881-2.041 2.231-2.693.83-1.548-2.203 1.802-2.36 1.818-1.761.177.393-1.077.26-1.556-.33-1.19-1.29.796-1.284-2.751.008-4.312.548-.662.264-.565-.63.216-1.045.912-1.417 2.253-1.04 3.753.787 3.136.656 4.386-.427 4.085-.495-.138-.9.61-.9 1.662 0 1.127-.613 1.821-1.494 1.692-2.395-.352-7.506-4.528-7.506-6.134 0-2.18 3.016-1.782 5.928.78 2.06 1.812 2.248 1.86.967.25-3.107-3.906-3.033-4.436 1.304-9.327 4.255-4.8 4.247-4.796-.798.372-6.221 6.374-8.246 7.151-11.652 4.473-3.03-2.384-4.918-2.622-4.111-.519.316.825 1.99 1.864 3.719 2.31 2.147.553 3.244 1.503 3.463 3 .175 1.205-.12 2.191-.657 2.191s-.722-.97-.412-2.156c.405-1.55.215-1.941-.675-1.391-.739.457-.994 1.737-.633 3.176.45 1.792-.428 3.93-3.419 8.336-2.213 3.259-4.024 6.384-4.024 6.945 0 1.329-3.48 3.177-5.178 2.75-.727-.183-.985-.143-.572.087.412.23.75 1.057.75 1.836 0 3.2 4.077.997 11.078-5.986zm-8.266 4.72c.722-.289 1.585-.253 1.917.079.332.332-.258.568-1.312.525-1.165-.048-1.402-.285-.605-.604zm-6.36-2.567c-.375-1.238-1.53-3.179-2.567-4.314-1.037-1.136-1.885-2.416-1.885-2.846 0-.43-.946-2.11-2.102-3.733-1.843-2.589-1.95-3.32-.863-5.942.682-1.645 2.078-3.44 3.102-3.988 1.025-.549 1.827-1.994 1.784-3.212-.043-1.218-.306-1.652-.583-.965-.278.688-1.072 1.25-1.766 1.25-1.942 0-4.915 3.67-3.62 4.47.594.367.83 1.075.522 1.572-.307.498-2.565-1.189-5.016-3.748-2.452-2.558-4.458-4.346-4.458-3.973 0 .373.038.966.085 1.317.047.351-.515 1.02-1.25 1.485-1.023.649-.927.85.415.862.963.008 1.874-.098 2.025-.235.604-.55 3.465 2.818 3.307 3.895-.242 1.648-2.641 4.355-3.86 4.355-.567 0-.258-.855.688-1.9 1.035-1.144 1.323-2.147.724-2.517-1.046-.646-2.436.983-2.78 3.259-.314 2.066-1.354 2.7-1.354.825 0-.917-.499-1.667-1.108-1.667-.71 0-.86-.989-.42-2.748.38-1.511.358-2.415-.049-2.009-.406.407-1.455.203-2.331-.453-1.333-1-1.389-.966-.342.208 2.116 2.373 1.382 3.422-1 1.428-1.237-1.036-.787-.297 1 1.643 4.02 4.362 4.063 6.03.25 9.931-1.65 1.688-3 3.264-3 3.503 0 .72 3.392-.715 5.066-2.143 2.962-2.528 7.688-2.793 10.167-.57a2079.38 2079.38 0 0 1 6.225 5.622c4.57 4.142 5.957 4.513 4.994 1.338zm-19.309-9.64c-.946-.6-1.021-1.067-.25-1.544.609-.376 1.107-.18 1.107.434 0 .615.52.797 1.155.405.715-.443.883-.275.44.44-.842 1.364-.735 1.352-2.452.265zm2.421-13.817c-.542-1.425-.428-1.54.56-.56.684.679.99 1.486.683 1.793-.308.308-.867-.247-1.243-1.233zm41.436 6.33c0-.208-.787-.996-1.75-1.75-1.586-1.244-1.621-1.21-.378.377 1.307 1.666 2.128 2.195 2.128 1.372zm3.561-5.377c-.28-1.88 15.168-19.532 16.418-18.76.402.25 1.761-.645 3.021-1.986s2.61-2.241 3-2c.39.241 1.787-.785 3.105-2.28l2.395-2.72-2.75 2.424c-1.512 1.334-2.75 2.037-2.75 1.563s-1.35.432-3 2.013c-1.65 1.58-3 2.424-3 1.874 0-.55 1.35-2.293 3-3.874 1.65-1.58 3-2.48 3-2s1.269-.341 2.82-1.827c1.55-1.486 3.061-2.458 3.358-2.162.297.297 2.212-1.502 4.257-3.997 2.045-2.496 4.083-4.312 4.528-4.037.446.276 1.424-.255 2.174-1.18.937-1.156.973-1.446.113-.93-.687.413-1.25.33-1.25-.186 0-1.202 2.527-3.32 3.181-2.666.274.273 1.358-.518 2.408-1.759l1.911-2.256-2.25 1.905c-1.7 1.44-2.254 1.561-2.265.5-.013-1.17-.16-1.178-.875-.048-.638 1.007-1.047 1.054-1.586.182-.44-.712.058-1.378 1.267-1.694 1.095-.287 4.403-3.51 7.35-7.163 8.617-10.679 9.528-12.123 3.27-5.182-3.224 3.575-8.596 9.2-11.94 12.5-3.342 3.3-5.04 5.134-3.774 4.076 1.267-1.059 2.303-1.48 2.303-.937 0 1.28-5.484 6.544-6.138 5.89-.274-.274-2.043 1.18-3.93 3.234l-3.432 3.733 3.25-2.935c1.788-1.614 3.25-2.49 3.25-1.944 0 1.335-6.49 7.56-7.171 6.879-.297-.297-6.327 5.85-13.4 13.66-7.186 7.934-12.321 14.38-11.638 14.608.672.224.924.888.56 1.476-.37.6-.193.78.405.41.586-.362.949-1.444.805-2.404zM172 329.622c0-.207.787-.995 1.75-1.75 1.586-1.243 1.621-1.208.378.378-1.307 1.666-2.128 2.195-2.128 1.372zm2.45-4.79c-.424-.733-.392-.988.07-.568.463.42 2.06-.404 3.551-1.832 2.085-1.997 2.887-2.289 3.48-1.264.423.733.391.988-.071.568-.463-.42-2.06.404-3.551 1.832-2.085 1.997-2.887 2.289-3.48 1.264zM89 360.622c0-.207-.787-.995-1.75-1.75-1.586-1.243-1.621-1.208-.378.378 1.307 1.666 2.128 2.195 2.128 1.372zm66.894-9.122l5.245-7-5.093 5.5c-2.801 3.025-5.806 6.85-6.678 8.5-2.15 4.068-.195 1.972 6.526-7zM93 357.674c0-.179-1.238-1.416-2.75-2.75L87.5 352.5l2.424 2.75c2.266 2.57 3.076 3.209 3.076 2.424zm3 .022c0-.167-1.688-1.854-3.75-3.75L88.5 350.5l3.446 3.75c3.208 3.49 4.054 4.21 4.054 3.446zm-8.64-2.946C80.465 346.944 77 342.593 77 341.737c0-.54.787-.381 1.75.352.963.734.433-.106-1.177-1.867-1.61-1.76-3.144-2.985-3.408-2.72-.66.66-3.165-1.513-3.165-2.747 0-.558.663-.45 1.5.245.825.685 1.5.871 1.5.414s2.138 1.176 4.75 3.628l4.75 4.458-4.416-4.707c-2.428-2.588-4.72-4.518-5.091-4.289-.372.23-2.14-1.093-3.931-2.94-1.79-1.847-4-3.236-4.909-3.086-.909.15-2.553-.459-3.653-1.353-1.98-1.608-1.98-1.602-.116.601 1.036 1.225 2.236 2.01 2.666 1.743.43-.266 2.888 1.98 5.46 4.992 2.574 3.012 4.974 5.437 5.335 5.39 1.76-.234 2.528.26 1.46.94-.82.52.871 3.198 5.355 8.485 3.604 4.248 6.808 7.724 7.12 7.724.313 0-.326-1.012-1.42-2.25zm-19.436-23.5L65.5 328.5l2.75 2.424c1.512 1.334 2.75 2.571 2.75 2.75 0 .785-.81.146-3.076-2.424zm88.204 24c1.243-1.586 1.208-1.621-.378-.378-.963.755-1.75 1.543-1.75 1.75 0 .823.821.294 2.128-1.372zm-1.5-5.96c2.68-3.14 4.35-5.388 3.713-4.996-1.398.858-9.727 10.706-9.056 10.706.26 0 2.664-2.57 5.344-5.71zM159.5 351c.995-1.1 1.585-2 1.31-2-.275 0-1.315.9-2.31 2-.995 1.1-1.585 2-1.31 2 .275 0 1.315-.9 2.31-2zm-78.5-.345c0-.19-1.012-1.202-2.25-2.25L76.5 346.5l1.905 2.25c1.79 2.114 2.595 2.705 2.595 1.905zm6 .02c0-.18-1.238-1.417-2.75-2.75L81.5 345.5l2.424 2.75c2.266 2.57 3.076 3.209 3.076 2.424zm6 .021c0-.167-1.688-1.854-3.75-3.75L85.5 343.5l3.446 3.75c3.208 3.49 4.054 4.21 4.054 3.446zm-4-1.009c0-.172-1.462-1.634-3.25-3.25L82.5 343.5l2.937 3.25c2.738 3.03 3.563 3.71 3.563 2.937zm63-4.187c1.866-1.925 3.167-3.5 2.892-3.5-.275 0-2.026 1.575-3.892 3.5s-3.167 3.5-2.892 3.5c.275 0 2.026-1.575 3.892-3.5zm12.128-.25c1.243-1.586 1.208-1.621-.378-.378-.963.755-1.75 1.543-1.75 1.75 0 .823.821.294 2.128-1.372zM77 345.655c0-.19-1.012-1.202-2.25-2.25L72.5 341.5l1.905 2.25c1.79 2.114 2.595 2.705 2.595 1.905zm87-4.155c1.292-1.375 2.124-2.5 1.849-2.5-.275 0-1.557 1.125-2.849 2.5-1.292 1.375-2.124 2.5-1.849 2.5.275 0 1.557-1.125 2.849-2.5zm-79 .212c0-.158-2.362-2.52-5.25-5.25L74.5 331.5l4.962 5.25c4.612 4.878 5.538 5.709 5.538 4.962zm-12-1.057c0-.19-1.012-1.202-2.25-2.25L68.5 336.5l1.905 2.25c1.79 2.114 2.595 2.705 2.595 1.905zm87.563-4.905l2.937-3.25-3.25 2.937c-1.788 1.615-3.25 3.078-3.25 3.25 0 .773.825.092 3.563-2.937zm10.565.5c1.243-1.586 1.208-1.621-.378-.378-.963.755-1.75 1.543-1.75 1.75 0 .823.821.294 2.128-1.372zm4-5c1.243-1.586 1.208-1.621-.378-.378-.963.755-1.75 1.543-1.75 1.75 0 .823.821.294 2.128-1.372zm-107.104-4.725c-2.974-3.012-5.617-5.266-5.873-5.009-.902.902-3.151-1.783-3.151-3.76 0-1.659.255-1.79 1.489-.765.819.68 1.197 1.747.84 2.372-.357.625-.266.788.203.361.47-.426 3.354 1.596 6.41 4.495 3.057 2.9 1.991 1.584-2.369-2.924-4.36-4.507-8.35-7.933-8.868-7.612-.519.32-4.535-3.19-8.925-7.8-7.508-7.886-7.67-7.997-2.726-1.883 2.891 3.575 6.338 7.513 7.66 8.752 2.688 2.52 2.206 5.192-.553 3.064-1.266-.977-1.224-.768.177.877 1.01 1.187 2.606 2.01 3.544 1.83 1.112-.214 1.759.361 1.856 1.65.129 1.707-.083 1.8-1.544.683-.932-.713-.604-.072.729 1.423 2.335 2.62 2.497 2.655 4.483.97 1.62-1.377 1.794-1.405.814-.132-1.476 1.918.178 3.805 2.94 3.356.913-.148 2.91 1.035 4.437 2.629 1.528 1.594 3.015 2.898 3.306 2.898.29 0-1.905-2.464-4.879-5.475zm-4.69-2.176c0-.984.336-1.038 1.333-.21.733.608 1.333 1.2 1.333 1.317 0 .116-.6.21-1.333.21a1.33 1.33 0 0 1-1.334-1.317zm-6.781-8.264a1.117 1.117 0 0 1 .362-1.532 1.117 1.117 0 0 1 1.532.362c.322.52.16 1.21-.362 1.532-.52.322-1.21.16-1.532-.362zm122.575 10.165c1.243-1.586 1.208-1.621-.378-.378-.963.755-1.75 1.543-1.75 1.75 0 .823.821.294 2.128-1.372zm-6.565-3.5l2.937-3.25-3.25 2.937c-3.03 2.738-3.71 3.563-2.937 3.563.172 0 1.635-1.462 3.25-3.25zM183.5 311c3.266-3.3 5.712-6 5.437-6-.275 0-3.171 2.7-6.437 6-3.266 3.3-5.712 6-5.437 6 .275 0 3.171-2.7 6.437-6zM50 312.622c0-.207-.787-.995-1.75-1.75-1.586-1.243-1.621-1.208-.378.378 1.307 1.666 2.128 2.195 2.128 1.372zM191.5 311c.995-1.1 1.585-2 1.31-2-.275 0-1.315.9-2.31 2-.995 1.1-1.585 2-1.31 2 .275 0 1.315-.9 2.31-2zM47 308.674c0-.179-1.238-1.416-2.75-2.75L41.5 303.5l2.424 2.75c2.266 2.57 3.076 3.209 3.076 2.424zm7 .022c0-.167-1.688-1.854-3.75-3.75L46.5 301.5l3.446 3.75c3.208 3.49 4.054 4.21 4.054 3.446zM195.5 306c.995-1.1 1.585-2 1.31-2-.275 0-1.315.9-2.31 2-.995 1.1-1.585 2-1.31 2 .275 0 1.315-.9 2.31-2zM42 302.655c0-.19-1.012-1.202-2.25-2.25L37.5 298.5l1.905 2.25c1.79 2.114 2.595 2.705 2.595 1.905zm152-3.155c1.866-1.925 3.167-3.5 2.892-3.5-.275 0-2.026 1.575-3.892 3.5s-3.167 3.5-2.892 3.5c.275 0 2.026-1.575 3.892-3.5zm-156.866-4.75c-.325-2.03-.667-2.57-.911-1.442-.373 1.72.307 4.692 1.072 4.692.197 0 .125-1.462-.161-3.25zm4.866.75c-1.292-1.375-2.745-2.5-3.23-2.5-.833 0 4.252 4.901 5.154 4.968.234.018-.632-1.093-1.924-2.468zm160.683-1.688c-.32-.797-.556-.56-.604.605-.043 1.054.193 1.644.525 1.312.332-.332.368-1.195.08-1.916zm-2.157-.619c-.307-.308-1.114 0-1.793.683-.98.988-.865 1.102.56.56.986-.376 1.541-.935 1.233-1.243zM154.2 308.8c-.66-.66-1.2-2.863-1.2-4.895v-3.694l-12.25-.424c-6.737-.232-27.19-.53-45.448-.66-30.465-.217-35.403-.538-40.552-2.63-2.8-1.138-2.07-4.28 1.413-6.081 2.65-1.37 10.399-1.87 47.75-3.078 24.523-.793 45.6-1.652 46.837-1.909 1.932-.401 2.25-1.105 2.25-4.98 0-3.255.456-4.687 1.636-5.14 2.773-1.064 4.844 1.127 5.168 5.465.167 2.239.964 4.618 1.771 5.289.824.683 5.738 1.432 11.197 1.705 11.066.553 13.228 1.32 13.228 4.69 0 2.734-3.563 4.21-10.8 4.473-2.364.086-5.43.586-6.814 1.112-1.384.527-3.564.957-4.844.957-2.536 0-3.542 1.67-3.542 5.882 0 2.81-1.579 5.118-3.5 5.118-.605 0-1.64-.54-2.3-1.2zm3.355-5.055c-.395-4.744-.46-4.922-1.555-4.245-1.1.68-1.381 6.785-.36 7.806 1.28 1.28 2.18-.392 1.915-3.561zm9.169-8.18c9.934-1.154 12.276-1.746 12.276-3.103 0-.723.563-1.509 1.25-1.745.688-.237.49-.319-.44-.183-3.026.443-19.284-1.646-20.26-2.602-1.42-1.393-5.273-1.127-8.6.594-1.622.839-2.95 1.75-2.95 2.025 0 .275 1.41-.229 3.133-1.12 3.8-1.965 5.209-.616 4.248 4.069-.813 3.968-.774 3.95-4.42 2.13-2.418-1.206-2.89-1.25-2.008-.187.905 1.091.766 1.48-.65 1.808-.992.23.664.467 3.679.528 3.079.062 5.645.603 5.856 1.236.218.652.95.304 1.742-.826.964-1.375 3.074-2.15 7.144-2.623zm-30.474 1.692c-3.988-.19-10.513-.19-14.5 0-3.988.19-.725.346 7.25.346s11.237-.156 7.25-.346zm-70.42-1.173c-8.49-.646-10.293-1.541-7.387-3.666 1.066-.78 1.516-1.404.998-1.386-.517.017-1.755.648-2.749 1.402-1.721 1.305-1.698 1.448.472 2.969 1.634 1.144 4.275 1.55 9.309 1.431l7.027-.165zm79.985-.602c-.797-.798-13.68-.95-14.46-.17-.379.378 2.837.688 7.145.688s7.6-.233 7.315-.518zM108.5 294c-3.82-.684-3.23-1.349 1-1.124 1.626.086 1.532-.094-.5-.965-2.406-1.03-10.256-.887-39.37.722-19.297 1.067-9.273 2.342 17.37 2.21 14.025-.07 23.7-.45 21.5-.843zm44.193-2.731c-.254-.973-.478-.419-.498 1.231-.02 1.65.187 2.446.46 1.769.275-.677.292-2.027.038-3zM146 293c-.825-.533-2.4-.931-3.5-.885-1.648.07-1.56.225.5.885 3.536 1.132 4.752 1.132 3 0zm37.921-1.309c-.056-.852-.223-.834-.585.065-.279.691-.988.96-1.576.596-.637-.394-.777-.188-.345.51.85 1.376 2.62.55 2.506-1.171zm-52.192.705c-.332-.332-1.195-.368-1.917-.08-.797.32-.56.557.605.605 1.054.043 1.644-.193 1.312-.525zm7.033-.083c-.956-.25-2.756-.26-4-.02-1.244.239-.462.444 1.738.455 2.2.01 3.218-.185 2.262-.435zm11.967.083c-.332-.332-1.195-.368-1.917-.08-.797.32-.56.557.605.605 1.054.043 1.644-.193 1.312-.525zm-77.979-2.124c-2.063-.216-5.438-.216-7.5 0-2.063.215-.375.392 3.75.392s5.813-.177 3.75-.392zm71.75-.296c1.655-.434-1.93-.544-8-.245-6.05.298-11.188.706-11.417.906-.807.704 16.455.116 19.417-.66zm-43.75-.692c-1.512-.23-3.987-.23-5.5 0-1.512.229-.275.416 2.75.416s4.263-.187 2.75-.416zm26.5-1.016c-2.337-.21-6.162-.21-8.5 0-2.337.21-.425.383 4.25.383s6.588-.173 4.25-.383zm19.526-.995c-2.048-.215-5.648-.218-8-.007-2.352.211-.676.387 3.724.39 4.4.005 6.324-.168 4.276-.383zm10.793-6.011c-.411-4.582-2.219-5.5-2.025-1.028.226 5.253.403 5.917 1.406 5.297.522-.323.8-2.244.619-4.27zm-80.578-3.28c-.63-1.176-.916-2.734-.637-3.463.804-2.094-1.648-4.613-4.888-5.022-1.631-.207-6.116-.46-9.966-.562-10.867-.29-14.781-2.757-11.002-6.933 1.305-1.442 3.026-1.909 6.872-1.863 7.572.089 14.892-1.176 16.88-2.916.988-.865 1.75-2.937 1.75-4.756 0-3.562 2.148-6.008 4.487-5.11.941.36 1.513 1.869 1.513 3.99 0 1.874.563 3.854 1.25 4.399 1.427 1.13 26.072 2.17 58.25 2.455 33.028.293 38.658.656 41.312 2.657 2.752 2.076 2.158 4.38-1.568 6.077-1.652.752-12.812 1.579-29.695 2.199l-46.787 1.717c-10.856.399-20.158 1.158-20.673 1.687-.514.529-1.082 2.312-1.262 3.962-.414 3.803-4.094 4.737-5.836 1.483zm6.077-7.877c1.609-.979 2.625-2.078 2.26-2.444-.366-.366-1.48.072-2.476.973-2.008 1.817-2.22 1.535-3.223-4.297-.356-2.069-.055-3.568.87-4.336 2.191-1.819 3.584-.35 2.463 2.6-1.19 3.129-1.192 3.399-.028 3.399.513 0 1.076-1.235 1.25-2.745.246-2.135.983-2.887 3.316-3.382 2.877-.61 2.836-.649-1-.938-2.2-.166-5.012-.247-6.25-.18-2.458.133-2.73-.466-1.25-2.755.798-1.235.972-1.25.985-.083.008.779.304 1.127.658.774.353-.354.015-1.402-.75-2.33-1.087-1.316-1.117-1.78-.137-2.109 1.373-.462.712-2.252-.83-2.252-.527 0-.86 1.29-.74 2.866.379 4.96-2.345 7.765-8.311 8.556-2.893.384-5.736.997-6.318 1.362-1.05.659-1.548.771-4.7 1.064-3.184.295-2.74 2.648.52 2.75 1.718.054 5.903.167 9.302.25 3.892.096 6.716.69 7.63 1.604.8.8 1.634 1.271 1.856 1.05.222-.223.377 1.036.344 2.797-.08 4.206.9 5.99 1.313 2.392.21-1.825 1.346-3.43 3.246-4.586zM65 264.5c0-.825.45-1.5 1-1.5s1 .675 1 1.5-.45 1.5-1 1.5-1-.675-1-1.5zm26.269 4.844c-.677-.274-2.027-.29-3-.037-.973.253-.419.478 1.231.498 1.65.02 2.446-.187 1.769-.461zm29.507-1.07c-2.048-.216-5.648-.219-8-.008-2.352.211-.676.387 3.724.39 4.4.005 6.324-.168 4.276-.383zm26.974-1.016c-3.712-.192-9.787-.192-13.5 0-3.712.193-.675.35 6.75.35s10.463-.157 6.75-.35zm13.25-2.732c15.127-1.138 15.793-1.265 8-1.526-4.675-.157-11.304-.42-14.73-.584-4.417-.213-6.164.047-6 .892.168.87-3.273 1.209-12.77 1.255l-13 .063 12.5-.61 12.5-.61L135 263l-12.5-.405L135 262c8.843-.42 4.016-.62-16.5-.679-15.95-.046-27.65.26-26 .679 1.65.42 4.8.89 7 1.045 3.79.266 3.712.316-1.5.955l-5.5.674 6.5.34 6.5.34-7 .715c-11.588 1.185 44.715-.205 62.5-1.543zm9.75 1.746c-2.063-.216-5.438-.216-7.5 0-2.063.215-.375.392 3.75.392s5.813-.177 3.75-.392zm-118.212-1.21c-.319-.517.217-1.403 1.191-1.97.974-.567 1.264-1.045.643-1.062-1.49-.04-3.536 2.473-2.697 3.312.977.976 1.529.797.863-.28zm37.988-.869c-.307-.308-1.114 0-1.793.683-.98.988-.865 1.102.56.56.986-.376 1.541-.935 1.233-1.243zm90.904-.08c.301-.487-.087-1.413-.862-2.057-1.153-.956-1.312-.794-.873.887.594 2.271.92 2.49 1.735 1.17zM88.5 262c-.34-.55-1.154-.993-1.809-.985-.716.01-.592.403.309.985 1.921 1.242 2.267 1.242 1.5 0zm71-2.051c-7.7-.388-26.375-.658-41.5-.6l-27.5.105L120 260c16.225.3 34.9.57 41.5.6l12 .053-14-.704zM34.555 262.75c.66-3.006 10.186-15.618 25.945-34.35C77.3 208.43 92 189.647 92 188.15c0-.506-1.125-1.658-2.5-2.559-1.553-1.018-2.5-2.576-2.5-4.115 0-2.142.452-2.477 3.345-2.477 2.075 0 4.032.76 5.155 2 .995 1.1 2.353 2 3.017 2 .664 0 4.605-3.375 8.756-7.5 7.083-7.037 7.82-7.5 11.917-7.5 4.01 0 4.93.534 11.196 6.5 3.755 3.575 7.61 6.5 8.566 6.5.956 0 2.553-.9 3.548-2 2.156-2.383 5.755-2.602 7.534-.459 1.075 1.295.78 2.056-1.846 4.765l-3.124 3.223 5.218 6.647c5.236 6.671 12.816 15.72 28.754 34.324 25.342 29.583 29.075 35.587 22.587 36.329-3.206.366-7.26-3.514-47.741-45.677l-20.496-21.348-3.087 2.598c-6.12 5.15-10.323 1.41-4.886-4.347 3.068-3.248 3.41-5.753 1.322-9.685-3.562-6.708-9.735-11.984-9.735-8.321 0 .576-1.8 3.758-4 7.07-2.2 3.312-4 6.669-4 7.458 0 .79 1.125 2.414 2.5 3.61 3.131 2.722 3.507 7.813.577 7.813-1.058 0-3.295-1.154-4.972-2.565-1.988-1.673-3.534-2.282-4.441-1.75-1.29.754-23.238 24.676-42.036 45.815C44.325 262.833 40.874 266 37.2 266c-3.268 0-3.339-.087-2.644-3.25zm3.695 1.588c-1.864-.752-1.533-2.279 1.3-5.994 1.404-1.839 2.327-3.344 2.052-3.344-.275 0-1.698 1.57-3.162 3.49-2.623 3.439-2.731 6.586-.221 6.431 1.003-.062 1.01-.188.031-.583zm3.878-2.088c1.243-1.586 1.208-1.621-.378-.378-.963.755-1.75 1.543-1.75 1.75 0 .823.821.294 2.128-1.372zm9.805-14.583c5.738-6.457 10.97-11.535 11.625-11.283.655.251 2.935-1.414 5.067-3.7 2.131-2.286 2.695-3.126 1.253-1.866-2.288 1.998-2.702 2.084-3.243.673-.35-.913-1.127-1.305-1.782-.9-.74.457-.891.28-.418-.485.518-.838 1.12-.89 1.984-.173.902.748 2.015.224 4.064-1.916 1.553-1.62 3.133-2.754 3.512-2.52.378.234 2.222-1.235 4.097-3.265 1.874-2.029 2.374-2.822 1.11-1.762-2.643 2.216-5.52 2.923-4.884 1.2.238-.644.889-1.074 1.447-.957.559.118 4.3-3.482 8.315-8 4.014-4.517 5.638-6.662 3.61-4.767-2.03 1.896-3.69 3.055-3.69 2.576 0-.479-1.046.112-2.324 1.313-1.278 1.2-2.556 1.951-2.84 1.668-.283-.283-1.375.5-2.425 1.74L74.5 217.5l2.25-1.905c1.238-1.048 2.25-1.555 2.25-1.128 0 .428.675.218 1.5-.467.837-.694 1.5-.803 1.5-.245 0 .55-.675 1.56-1.5 2.245s-1.5.895-1.5.467c0-.427-.9.038-2 1.033-1.1.995-2 1.431-2 .968 0-.463-1.269.373-2.82 1.859-1.55 1.486-3.053 2.467-3.339 2.18-.286-.285-1.38.496-2.43 1.737L64.5 226.5l2.25-1.905c1.238-1.048 2.25-1.47 2.25-.937 0 1.292-5.496 6.512-6.159 5.85-.286-.286-1.38.495-2.43 1.736L58.5 233.5l2.25-1.905c2.313-1.959 3.198-.943 1.05 1.205-.933.933-.835 1.2.441 1.2.903 0 1.879.385 2.17.856.29.47-.47.667-1.691.437-1.82-.342-3.843 1.59-11.22 10.713-9.677 11.969-14.89 18.752-11.87 15.448 1.028-1.126 6.565-7.33 12.303-13.787zm14.759-18.356c-.293-.475 1.508-3.102 4.003-5.837 2.496-2.736 3.996-4.206 3.335-3.268-1.347 1.912-.484 4.193 1.194 3.156.669-.414.795-.203.33.55-.415.672-1.017.958-1.338.637-.322-.321-2.026.813-3.788 2.52-1.761 1.708-3.443 2.716-3.736 2.242zm3.87-3.561l2.938-3.25-3.25 2.937c-3.03 2.738-3.71 3.563-2.937 3.563.172 0 1.635-1.462 3.25-3.25zM76 219.622c0-.207.787-.995 1.75-1.75 1.586-1.243 1.621-1.208.378.378-1.307 1.666-2.128 2.195-2.128 1.372zm125.124 38.111c-.988-.98-1.102-.865-.56.56.376.986.935 1.541 1.243 1.233.308-.307 0-1.114-.683-1.793zM50.5 253c2.148-2.2 3.68-4 3.406-4-.275 0-2.258 1.8-4.406 4-2.148 2.2-3.68 4-3.406 4 .275 0 2.258-1.8 4.406-4zm137.933-7.25c-8.778-10.287-12.294-13.695-11.308-10.96.427 1.183 19.81 22.21 20.475 22.21.238 0-3.887-5.063-9.167-11.25zM200 255.622c0-.207-.787-.995-1.75-1.75-1.586-1.243-1.621-1.208-.378.378 1.307 1.666 2.128 2.195 2.128 1.372zM45.128 251.25c1.243-1.586 1.208-1.621-.378-.378-.963.755-1.75 1.543-1.75 1.75 0 .823.821.294 2.128-1.372zm144.872.48c0-.15-4.162-4.312-9.25-9.25l-9.25-8.98 8.98 9.25c8.339 8.591 9.52 9.705 9.52 8.98zm6-1.108c0-.207-.787-.995-1.75-1.75-1.586-1.243-1.621-1.208-.378.378 1.307 1.666 2.128 2.195 2.128 1.372zM48.5 247c.995-1.1 1.585-2 1.31-2-.275 0-1.315.9-2.31 2-.995 1.1-1.585 2-1.31 2 .275 0 1.315-.9 2.31-2zm15.5-8.708c0-.751-.898.043-5.042 4.458L54.5 247.5l4.75-4.458c2.612-2.452 4.75-4.59 4.75-4.75zm127 6.363c0-.19-1.012-1.202-2.25-2.25l-2.25-1.905 1.905 2.25c1.79 2.114 2.595 2.705 2.595 1.905zM52.5 242c.995-1.1 1.585-2 1.31-2-.275 0-1.315.9-2.31 2-.995 1.1-1.585 2-1.31 2 .275 0 1.315-.9 2.31-2zm134.5-2.313c0-.172-1.462-1.635-3.25-3.25l-3.25-2.937 2.937 3.25c2.738 3.03 3.563 3.71 3.563 2.937zM57 236.5c1.292-1.375 2.124-2.5 1.849-2.5-.275 0-1.557 1.125-2.849 2.5-1.292 1.375-2.124 2.5-1.849 2.5.275 0 1.557-1.125 2.849-2.5zm118.5-2.5c-.34-.55.159-1 1.108-1 2.469 0 1.34-.789-1.994-1.394-2.764-.5-2.793-.461-1.073 1.44 1.882 2.078 2.987 2.617 1.959.954zm5.5-1.345c0-.19-1.012-1.202-2.25-2.25l-2.25-1.905 1.905 2.25c1.79 2.114 2.595 2.705 2.595 1.905zm-10.333-2.155c0-.825-.24-1.26-.535-.966-.294.294-6.181-4.993-13.083-11.75L144.5 205.5l12.986 13.25c7.142 7.288 13.03 13.25 13.083 13.25.054 0 .098-.675.098-1.5zm3.02-3.305c-3.258-3.4-3.57-5.252-.437-2.6l2.25 1.905-1.91-2.256c-1.051-1.241-2.147-2.02-2.435-1.733-.288.289-2.016-.922-3.84-2.69-1.823-1.767-3.315-2.822-3.315-2.343 0 .479-1.238-.213-2.75-1.537-1.512-1.324-.767-.3 1.657 2.274s4.842 4.591 5.375 4.483c.532-.109 1.162.328 1.4.972 1.067 2.892-3.354.128-9.97-6.234L152.5 210.5l7.426 7.7c4.084 4.236 7.731 7.512 8.104 7.281.374-.23 1.723.692 2.999 2.05 1.276 1.358 3 2.469 3.832 2.469 1.072 0 .729-.819-1.174-2.805zm-2.282-.445l-1.905-2.25 2.25 1.905c2.114 1.79 2.705 2.595 1.905 2.595-.19 0-1.202-1.012-2.25-2.25zm-6-7l-1.905-2.25 2.25 1.905c2.114 1.79 2.705 2.595 1.905 2.595-.19 0-1.202-1.012-2.25-2.25zM72 218.5c1.292-1.375 2.124-2.5 1.849-2.5-.275 0-1.557 1.125-2.849 2.5-1.292 1.375-2.124 2.5-1.849 2.5.275 0 1.557-1.125 2.849-2.5zm99 2.174c0-.179-1.238-1.416-2.75-2.75l-2.75-2.424 2.424 2.75c2.266 2.57 3.076 3.209 3.076 2.424zm-12.004-10.679c-2.861-3.302-5.718-6.312-6.349-6.688-.63-.376.556 1.22 2.637 3.545 2.081 2.326 3.474 4.73 3.095 5.343-.385.624-.239.836.333.483.561-.347 1.826.259 2.81 1.346.983 1.087 1.988 1.976 2.232 1.976.244 0-1.897-2.702-4.758-6.005zM76.5 213c.995-1.1 1.585-2 1.31-2-.275 0-1.315.9-2.31 2-.995 1.1-1.585 2-1.31 2 .275 0 1.315-.9 2.31-2zm11.5-1.5c1.866-1.925 3.167-3.5 2.892-3.5-.275 0-2.026 1.575-3.892 3.5s-3.167 3.5-2.892 3.5c.275 0 2.026-1.575 3.892-3.5zm78 3.187c0-.172-1.462-1.635-3.25-3.25l-3.25-2.937 2.937 3.25c2.738 3.03 3.563 3.71 3.563 2.937zm-80.836-7.19c.283.283 1.375-.5 2.425-1.74 1.91-2.256 1.91-2.256-.17-.505-1.145.964-2.306 1.528-2.58 1.254s-1.587.738-2.918 2.248L79.5 211.5l2.574-2.26c1.416-1.242 2.806-2.026 3.09-1.743zm71.836 3.2c0-.168-1.688-1.855-3.75-3.75l-3.75-3.447 3.446 3.75c3.208 3.49 4.054 4.21 4.054 3.446zm-9.807-7.002c-3.437-3.468-5.937-6.618-5.554-7 .382-.382.17-.695-.472-.695s-1.167.325-1.167.723c0 .807 12.155 13.277 12.942 13.277.275 0-2.312-2.837-5.749-6.305zm-66.065 3.555c1.243-1.586 1.208-1.621-.378-.378-.963.755-1.75 1.543-1.75 1.75 0 .823.821.294 2.128-1.372zm78.872.405c0-.19-1.012-1.202-2.25-2.25l-2.25-1.905 1.905 2.25c1.79 2.114 2.595 2.705 2.595 1.905zm-57.75-10.968c.963-.343 1.75-1.538 1.75-2.656 0-1.173.659-2.031 1.559-2.031.857 0 1.308-.406 1.002-.902-.307-.496 1.254-3.759 3.469-7.25s4.275-7.07 4.578-7.955c.532-1.552 7.308-4.31 8.258-3.36.257.257-.088.467-.766.467-.679 0 .296 1.912 2.166 4.25 5.178 6.474 7.956 11.495 6.767 12.23-1.558.963-1.24 2.536.387 1.912.92-.353 1.537.236 1.75 1.673.351 2.36 4.351 4.518 5.357 2.891.325-.526-.56-.956-1.968-.956-3.533 0-3.255-2.31.644-5.361 3.49-2.732 5.261-2.521 4.463.531-.398 1.52-.221 1.706.81.85 1.819-1.51.706-5.02-1.593-5.02-1.035 0-1.883-.45-1.883-1s-.525-1-1.167-1c-1.201 0-3.998-2.374-11.485-9.75-4.087-4.026-8.64-5.713-8.098-3 .137.688-.65 1.25-1.75 1.25s-3.176 1.125-4.614 2.5c-7.604 7.274-10.94 10-12.235 10-3.018 0-2.861 3.423.285 6.234 3.116 2.784 4.082 4.47 1.814 3.165-.688-.396-.92-.354-.515.092.404.447-.435 1.419-1.864 2.16-3.188 1.654-4.726 1.733-3.776.194.446-.72.274-.882-.457-.43-.644.398-.912 1.142-.595 1.654.316.512.05.931-.592.931-.733 0-.944-.893-.567-2.396.96-3.822-1.565-3.66-4.857.31-1.635 1.972-2.049 2.798-.919 1.834s2.427-1.414 2.883-1c.457.414.506.19.11-.498-.395-.688-.242-1.25.34-1.25 1.459 0 1.333 3.293-.191 5.002-1.062 1.19-.989 1.204.487.088.956-.723 2.486-1.027 3.4-.676 1.518.583 1.497.838-.237 2.93-1.045 1.26-.1.419 2.1-1.87 2.2-2.29 4.788-4.444 5.75-4.787zM84.5 203c.995-1.1 1.585-2 1.31-2-.275 0-1.315.9-2.31 2-.995 1.1-1.585 2-1.31 2 .275 0 1.315-.9 2.31-2zm2.628.25c1.243-1.586 1.208-1.621-.378-.378-.963.755-1.75 1.543-1.75 1.75 0 .823.821.294 2.128-1.372zm55.872-.576c0-.179-1.238-1.416-2.75-2.75l-2.75-2.424 2.424 2.75c2.266 2.57 3.076 3.209 3.076 2.424zm4.687-2.479c-1.478-1.542-2.723-3.455-2.766-4.25-.061-1.126-.196-1.152-.61-.115-.462 1.158 4.203 7.17 5.563 7.17.275 0-.709-1.262-2.187-2.805zm4.313 1.46c0-.19-1.012-1.202-2.25-2.25l-2.25-1.905 1.905 2.25c1.79 2.114 2.595 2.705 2.595 1.905zm-40.364-1.93c-.335-2.285-4.144-5.417-5.247-4.314-.68.68-.175 1.747 1.55 3.268 2.926 2.58 3.965 2.873 3.697 1.045zm19.428-3.804c.932-.051 1.019-.249.247-.563-1.44-.586-6.311 2.448-6.311 3.931 0 .583 1.042.081 2.314-1.115 1.273-1.196 2.96-2.21 3.75-2.253zm17.525-1.823c-1.669-1.843-3.833-2.187-5.195-.825-.366.365.267.485 1.406.265 1.14-.219 2.605.245 3.258 1.032.653.786 1.427 1.43 1.72 1.43.292 0-.243-.856-1.19-1.902zm-52.024-1.026c-1.115-1.232-1.508-2.677-1.088-4 .366-1.154.214-2.072-.343-2.072-.55 0-1.144 1.238-1.318 2.75-.22 1.92.287 3.097 1.684 3.902 2.876 1.657 3.019 1.579 1.065-.58zM139.5 191c.995-1.1 1.585-2 1.31-2-.275 0-1.315.9-2.31 2-.995 1.1-1.585 2-1.31 2 .275 0 1.315-.9 2.31-2zm-43.2-5.633c.884-.885-3.437-4.07-5.496-4.05-1.303.013-1.48.421-.761 1.763 1.297 2.424 4.829 3.715 6.256 2.287zm-4.687-2.55c.289-.467.944-.59 1.456-.274 1.308.808 1.161 1.124-.525 1.124-.8 0-1.22-.383-.93-.85zm54.288-.211c3.16-3.365.84-4.408-2.866-1.289-2.808 2.363-3.003 3.683-.543 3.683.638 0 2.172-1.078 3.409-2.394zM117 171c0-.55-.477-1-1.059-1s-.78.45-.441 1c.34.55.816 1 1.059 1s.441-.45.441-1zm-39.921-13.93c-.782-.495-1.682-2.802-2-5.127-.553-4.034-.784-4.278-5.079-5.358-2.475-.622-7.12-1.01-10.32-.86-6.855.318-9.68-.897-9.68-4.162 0-2.778 3.993-4.563 10.206-4.563 5.617 0 13.128-2.054 14.294-3.91.55-.874 1.225-3.165 1.5-5.09.381-2.667.976-3.5 2.5-3.5 1.599 0 2.114.857 2.57 4.27.313 2.348.988 4.649 1.5 5.111.511.463 19.155 1.369 41.43 2.013 55.532 1.605 59 1.87 59 4.503 0 1.991-2.436 3.684-6.722 4.67-2.078.479-23.75 1.57-48.16 2.424-24.41.854-44.772 1.795-45.25 2.09-.477.296-.868 2.037-.868 3.871 0 2.118-.577 3.555-1.582 3.941-1.917.736-1.62.764-3.34-.323zm5.671-9.89c1.238-.175 2.25-.768 2.25-1.317 0-.549.787-.77 1.75-.491.963.278 4.45.105 7.75-.385l6-.892-6.945.433c-6.07.379-6.7.262-5-.927 1.07-.748 2.845-1.624 3.945-1.945 1.289-.376 1.034-.47-.715-.265-1.493.175-2.843-.005-3-.402-.157-.396-1.185-.363-2.285.075-1.825.726-1.781.809.5.947 2.221.134 2.054.36-1.5 2.019-2.2 1.027-4.14 1.468-4.313.981-.665-1.887-3.92 2.881-3.828 5.608.151 4.46 2.064 4.898 2.641.604.391-2.912.99-3.793 2.75-4.043zm7.519.164c-.677-.274-2.027-.29-3-.037-.973.254-.419.478 1.231.498 1.65.02 2.446-.187 1.769-.461zm12.981-1.067c-1.788-.222-4.713-.222-6.5 0-1.788.221-.325.403 3.25.403s5.037-.182 3.25-.403zM79 141.5c0-4.96.768-5.39 5.354-3 1.57.82 3.336 1.192 3.925.828s-1.014-1.27-3.562-2.013c-4.236-1.235-4.687-1.671-5.257-5.083-.879-5.259-1.29-6.16-1.381-3.029-.2 6.871-3.992 9.547-14.544 10.264-2.22.151-4.545.333-5.168.404-.624.07-1.336.916-1.583 1.879-.398 1.554.467 1.763 7.732 1.865 4.5.064 9.036.613 10.082 1.22C78.13 146.885 79 146.226 79 141.5zm53.25 3.777c-1.788-.222-4.713-.222-6.5 0-1.788.221-.325.403 3.25.403s5.037-.182 3.25-.403zm28.5-1.005c-2.063-.216-5.438-.216-7.5 0-2.063.215-.375.392 3.75.392s5.813-.177 3.75-.392zm-107.021-1.364c-.974-.567-1.467-1.523-1.096-2.124.415-.671.212-.806-.527-.35-1.403.868.34 3.588 2.266 3.536.62-.017.331-.495-.643-1.062zm57.543.238c2.081 1.113 29.536.595 55.728-1.052 9.48-.596 8.122-.731-14-1.39-13.475-.4-25.625-.72-27-.709-1.375.011-9.25-.18-17.5-.425-11.533-.342-13.624-.23-9.046.482 3.274.51 6.645 1.619 7.49 2.464.875.874 1.685 1.098 1.878.519.224-.672 1.058-.634 2.45.11zm1.997-.839c.973-.254 2.323-.237 3 .037.677.274-.119.481-1.769.461-1.65-.02-2.204-.244-1.231-.498zm60.981.97c-1.788-.222-4.713-.222-6.5 0-1.788.221-.325.403 3.25.403s5.037-.182 3.25-.403zm-91.265-3.086c-.014-1.457-.15-1.484-.985-.191-1.266 1.958-1.266 3.282 0 2.5.55-.34.993-1.379.985-2.309zM161 139c-.825-.533-5.775-.89-11-.793l-9.5.176 9.5.617c5.225.34 10.175.696 11 .793 1.333.157 1.333.069 0-.793zm13.776.273c-2.048-.215-5.648-.218-8-.007-2.352.211-.676.387 3.724.39 4.4.005 6.324-.168 4.276-.383zm-56.026-2.001c-2.063-.216-5.438-.216-7.5 0-2.063.215-.375.392 3.75.392s5.813-.177 3.75-.392zm-85.083 7.061c-1.822-1.821.228-5.407 10.324-18.06 17.189-21.54 27.804-34.675 36.893-45.65 10.861-13.114 11.203-13.88 7.785-17.447-3.214-3.354-3.416-5.804-.555-6.712 1.402-.445 3.073.038 4.96 1.432C94.639 59.053 96.724 60 97.71 60c1.866 0 7.874-5.276 12.451-10.935 2.08-2.572 3.616-3.398 7.029-3.783 4.557-.514 5.893.36 17.547 11.474 2.701 2.576 6.037 2.257 8.844-.846 2.162-2.389 6-2.473 7.31-.16.785 1.385.282 2.481-2.405 5.25l-3.398 3.5 7.206 9.073c3.963 4.99 14.181 17.553 22.706 27.918 29.64 36.037 29.15 35.384 28.812 38.307-.269 2.325-.73 2.672-3.312 2.485-3.198-.23-16.096-12.795-50.849-49.533C140.937 83.537 133.236 76 132.538 76c-.697 0-2.412.9-3.81 2-4.408 3.467-7.496 2.195-6.294-2.592.342-1.363 1.734-2.902 3.094-3.419 3.553-1.35 3.141-4.595-1.331-10.493-2.087-2.753-4.096-5.79-4.464-6.75-.855-2.229-2.604-2.245-3.453-.032-.362.943-2.347 4.256-4.411 7.364-4.17 6.277-4.212 9.078-.187 12.244 2.623 2.063 3.106 6.439.808 7.32-.83.319-3.05-.595-4.933-2.031-1.883-1.436-3.836-2.611-4.34-2.611-.853 0-14.902 14.715-27.209 28.5-2.946 3.3-10.634 11.625-17.084 18.5-6.45 6.875-13.4 14.412-15.446 16.75-2.661 3.042-4.49 4.25-6.432 4.25-1.492 0-3.013-.3-3.38-.667zm2.016-3.52c-.32-.798-.556-.561-.604.604-.043 1.054.193 1.644.525 1.312.332-.332.368-1.195.08-1.916zM44 137.5c2.987-3.025 5.207-5.5 4.932-5.5-.275 0-2.945 2.475-5.932 5.5-2.987 3.025-5.207 5.5-4.932 5.5.275 0 2.945-2.475 5.932-5.5zm19.922-23.048c.41.254 2.734-1.657 5.162-4.245L73.5 105.5l-4.646 4.356c-5.017 4.704-5.706 5.002-6.94 3.006-.628-1.017-1.34-.81-3.186.923-1.307 1.228-2.616 1.993-2.91 1.7-.293-.293-1.16.265-1.925 1.24-1.245 1.587-1.22 1.64.24.5 1.348-1.053 1.736-1.01 2.219.25.322.839.22 1.525-.226 1.525s-4.983 5.063-10.083 11.25l-9.271 11.25 13.202-13.755c7.26-7.565 13.537-13.547 13.948-13.293zm-6.38 2.617c-.316-.512-.117-1.213.442-1.559.559-.345 1.016-.321 1.016.053 0 .375.787.072 1.75-.673 1.425-1.104 1.396-.94-.155.877-2.162 2.535-2.264 2.578-3.052 1.302zm143.676 19.749c-.626-.626-.766.031-.393 1.856.426 2.093.678 2.345.97.97.216-1.021-.044-2.293-.577-2.826zM38.5 137c.995-1.1 1.585-2 1.31-2-.275 0-1.315.9-2.31 2-.995 1.1-1.585 2-1.31 2 .275 0 1.315-.9 2.31-2zm157.5.622c0-.207-.787-.995-1.75-1.75-1.586-1.243-1.621-1.208-.378.378 1.307 1.666 2.128 2.195 2.128 1.372zm3 0c0-.207-.787-.995-1.75-1.75-1.586-1.243-1.621-1.208-.378.378 1.307 1.666 2.128 2.195 2.128 1.372zM43 131.5c1.292-1.375 2.124-2.5 1.849-2.5-.275 0-1.557 1.125-2.849 2.5-1.292 1.375-2.124 2.5-1.849 2.5.275 0 1.557-1.125 2.849-2.5zm147.712-3.75c-5.35-6.128-8.506-11.916-5.57-10.214.747.433.269-.41-1.063-1.87-1.331-1.462-2.64-2.439-2.908-2.17-.268.267-1.05.019-1.74-.553-.876-.727-1.466-.695-1.96.104-.743 1.203-10.471-7.589-10.471-9.462 0-.545 1.822.788 4.048 2.962 2.227 2.174 4.814 3.96 5.75 3.968.936.008 2.377.433 3.202.942 1.301.804 1.316.7.107-.79-.765-.943-1.634-1.473-1.93-1.177-.296.296-1.807-.677-3.358-2.163-1.55-1.486-2.819-2.322-2.819-1.86 0 .464-.9.029-2-.967-2.736-2.476-2.548-4.285.198-1.905 1.93 1.672-17.23-21.693-20.987-25.595-1.267-1.316-1.307-1.23-.322.694.617 1.207 1.57 2.471 2.116 2.81.547.337.995 1.126.995 1.751 0 .626-1.688-.413-3.75-2.309L144.5 76.5l3.408 3.711c1.875 2.041 3.746 3.503 4.159 3.248.81-.5 13.933 13.723 13.933 15.1 0 .458-1.688-.715-3.75-2.608-3.257-2.99-3.186-2.84.536 1.128 2.505 2.67 4.057 5.167 3.735 6.006-.344.895 2.286 4.254 6.99 8.925 4.146 4.12 7.753 7.377 8.014 7.24 1.14-.6 2.475-.164 2.475.809 0 .582-.563.727-1.25.32-.688-.406 1.875 2.492 5.694 6.441 3.82 3.95 7.12 7.18 7.335 7.18.214 0-2.065-2.813-5.067-6.25zm-12.076-11.6c-1.58-1.745-1.535-1.836.835-1.71 1.377.074 2.963.677 3.525 1.339.561.662.72.987.354.721-.366-.265-1.202-.038-1.856.505-.82.68-1.71.415-2.858-.855zm2.761.017c.283-.459-.12-.834-.897-.834s-1.18.375-.897.834c.283.458.687.833.897.833.21 0 .614-.375.897-.833zm-7.992-8.417l-1.905-2.25 2.25 1.905c1.238 1.048 2.25 2.06 2.25 2.25 0 .8-.805.21-2.595-1.905zM199 133.622c0-.207-.787-.995-1.75-1.75-1.586-1.243-1.621-1.208-.378.378 1.307 1.666 2.128 2.195 2.128 1.372zm-11-4.887c0-.146-5.737-5.883-12.75-12.75L162.5 103.5l12.485 12.75C186.582 128.093 188 129.453 188 128.735zm7-.08c0-.19-1.012-1.202-2.25-2.25l-2.25-1.905 1.905 2.25c1.79 2.114 2.595 2.705 2.595 1.905zM47.128 126.25c1.243-1.586 1.208-1.621-.378-.378-.963.755-1.75 1.543-1.75 1.75 0 .823.821.294 2.128-1.372zM58 122.5c1.866-1.925 3.167-3.5 2.892-3.5-.275 0-2.026 1.575-3.892 3.5s-3.167 3.5-2.892 3.5c.275 0 2.026-1.575 3.892-3.5zm-7.5-.5c.995-1.1 1.585-2 1.31-2-.275 0-1.315.9-2.31 2-.995 1.1-1.585 2-1.31 2 .275 0 1.315-.9 2.31-2zm140.5 1.674c0-.179-1.238-1.416-2.75-2.75l-2.75-2.424 2.424 2.75c2.266 2.57 3.076 3.209 3.076 2.424zM61.353 110.686c1.71 1.71 3.725.797 7.79-3.53 2.484-2.643 2.931-3.35 1.041-1.646-1.823 1.644-4.073 2.997-5 3.005-.926.008-2.291.4-3.034.871-1.089.69-1.136.457-.246-1.207.667-1.247 1.85-1.919 2.989-1.7 1.141.22 3.012-.85 4.745-2.713 1.574-1.691 2.241-2.718 1.482-2.281-.947.545-1.221.358-.875-.596.278-.764.992-1.283 1.587-1.153.596.13 4.934-4.237 9.64-9.704C89.683 80.498 93.405 77 95.346 77c.495 0 .282.787-.473 1.75-1.242 1.584-1.207 1.62.367.387 1.9-1.49 1.482-3.137-.798-3.137C93.555 76 93 74.996 93 73.393c0-1.906.403-2.452 1.5-2.031 1.854.711 1.922.233.174-1.217-1.018-.845-2.12-.246-4.75 2.584-1.883 2.026-2.552 3.029-1.487 2.227 1.755-1.319 1.874-1.287 1.262.346-.43 1.146-.292 1.564.38 1.149.582-.36.816-1.283.52-2.052-.295-.77-.1-1.399.432-1.399.533 0 .969.899.969 1.997 0 2.184-6.76 10.27-7.964 9.526-.41-.254-1.823.76-3.14 2.25-2.21 2.502-2.221 2.565-.146.815C81.987 86.544 83 86.14 83 86.69c0 1.272-3.497 4.48-4.16 3.816-.275-.274-1.588.734-2.92 2.24-2.186 2.475-2.203 2.556-.17.842C78.532 91.24 78.762 93 76 95.5c-1.1.995-2 1.437-2 .98 0-.455-1.046.154-2.324 1.355-1.278 1.2-2.564 1.943-2.858 1.65-.293-.293-1.16.265-1.925 1.24-1.267 1.614-1.234 1.65.357.403.963-.755 1.75-.938 1.75-.405 0 1.259-3.51 4.435-4.17 3.774-.28-.28-2.464 1.857-4.855 4.748-2.39 2.89-3.217 4.238-1.837 2.996 1.38-1.243 2.828-1.942 3.215-1.555zM67.5 104c.995-1.1 2.035-2 2.31-2 .275 0-.315.9-1.31 2-.995 1.1-2.035 2-2.31 2-.275 0 .315-.9 1.31-2zm109.5 2.622c0-.207-.787-.995-1.75-1.75-1.586-1.243-1.621-1.208-.378.378 1.307 1.666 2.128 2.195 2.128 1.372zm-93-12.33c0-.751-.898.043-5.042 4.458L74.5 103.5l4.75-4.458c2.612-2.452 4.75-4.59 4.75-4.75zm8.107-12.663c2.194-3.757-1.1-.462-10.147 10.149L72.818 102.5l9.098-9.5c5.005-5.225 9.59-10.342 10.191-11.37zM156.89 92.75c-4.489-5.088-9.694-10.561-11.569-12.164-2.178-1.863-3-3.166-2.28-3.611.774-.479.663-.875-.359-1.267-3.617-1.388-.295 3.296 10.218 14.405C159.087 96.65 164.352 102 164.6 102c.248 0-3.222-4.162-7.71-9.25zm16.11 8.924c0-.179-1.238-1.416-2.75-2.75L167.5 96.5l2.424 2.75c2.266 2.57 3.076 3.209 3.076 2.424zM71.5 96c.995-1.1 1.585-2 1.31-2-.275 0-1.315.9-2.31 2-.995 1.1-1.585 2-1.31 2 .275 0 1.315-.9 2.31-2zm86.5 1.727c0-.15-3.712-3.863-8.25-8.25L141.5 81.5l7.977 8.25c7.408 7.662 8.523 8.706 8.523 7.977zm10-2.105c0-.207-.787-.995-1.75-1.75-1.586-1.243-1.621-1.208-.378.378 1.307 1.666 2.128 2.195 2.128 1.372zM76 90.5c1.292-1.375 2.124-2.5 1.849-2.5-.275 0-1.557 1.125-2.849 2.5-1.292 1.375-2.124 2.5-1.849 2.5.275 0 1.557-1.125 2.849-2.5zm83 1.196c0-.167-1.688-1.854-3.75-3.75L151.5 84.5l3.446 3.75c3.208 3.49 4.054 4.21 4.054 3.446zM96 81.292c0-.751-.898.043-5.042 4.458L86.5 90.5l4.75-4.458c2.612-2.452 4.75-4.59 4.75-4.75zM80.5 85c.995-1.1 1.585-2 1.31-2-.275 0-1.315.9-2.31 2-.995 1.1-1.585 2-1.31 2 .275 0 1.315-.9 2.31-2zm79.5.674c0-.179-1.238-1.416-2.75-2.75L154.5 80.5l2.424 2.75c2.266 2.57 3.076 3.209 3.076 2.424zM87 80.5c1.292-1.375 2.124-2.5 1.849-2.5-.275 0-1.557 1.125-2.849 2.5-1.292 1.375-2.124 2.5-1.849 2.5.275 0 1.557-1.125 2.849-2.5zm-2.5-.5c.995-1.1 1.585-2 1.31-2-.275 0-1.315.9-2.31 2-.995 1.1-1.585 2-1.31 2 .275 0 1.315-.9 2.31-2zm70.5-.326c0-.179-1.238-1.416-2.75-2.75L149.5 74.5l2.424 2.75c2.266 2.57 3.076 3.209 3.076 2.424zm-43.015-1.424c-.031-1.524-1.548-3-3.807-3.706-1.52-.474-2.124-1.243-1.747-2.225.316-.825.25-2.021-.15-2.66-1.12-1.791-1.197-3.593-.18-4.221C107.367 64.655 114 54.195 114 52.98c0-.54.468-.981 1.04-.981.626 0 .553-.52-.183-1.308-.99-1.059-2.378-.08-7.29 5.14-4.061 4.317-5.983 7.146-5.814 8.558.204 1.704.063 1.821-.735.61-.556-.844-.994-.994-1.003-.344-.009.662-.87.933-2.015.634-2.914-.762-2.465.363 1.551 3.89 2.33 2.044 3.213 3.456 2.568 4.101-1.16 1.16-4.494.135-3.706-1.14.297-.48-.462-1.721-1.687-2.757-2.202-1.864-2.209-1.863-.609.116.89 1.1 1.527 3.013 1.417 4.25-.11 1.238.202 2.25.692 2.25.49 0 .55.554.13 1.232-.418.677.504.237 2.049-.978 2.947-2.319 4.891-2.012 7.55 1.191 1.325 1.598 4.057 2.143 4.03.805zM104 72.5c0-.825.436-1.5.969-1.5.532 0 .71.675.393 1.5-.317.825-.753 1.5-.969 1.5-.216 0-.393-.675-.393-1.5zm23 4.39c1.241-.892 1.179-.974-.361-.473-1.4.456-1.713.219-1.262-.958.345-.898.18-1.303-.388-.952-1.152.712-1.343 3.5-.239 3.478.412-.009 1.425-.501 2.25-1.095zm12.043-2.364c.84.52 1.017.38.525-.415-.407-.66-.147-1.966.579-2.905 1.186-1.535 1.112-1.53-.743.044-2.13 1.809-4.562 2.259-5.755 1.066-1.057-1.057 5.499-7.316 7.664-7.316 1.503 0 1.818.537 1.448 2.47-.27 1.414-.066 2.219.478 1.883.522-.323.736-1.705.475-3.071-.338-1.764.37-3.447 2.439-5.803 1.874-2.134 2.523-3.561 1.818-3.997-1.562-.965-4.951 2.406-4.252 4.228.478 1.245.22 1.328-1.406.458-1.094-.586-2.95-.814-4.124-.507-1.574.411-3.74-.784-8.249-4.552-6.413-5.358-7.94-6.06-7.94-3.65C122 54.877 130.14 65 132.085 65c.988 0 2.05.408 2.357.907.309.498-.282.686-1.311.417-2.347-.614-4.045 4.48-1.939 5.816.991.629.899.833-.383.845-.93.008-1.905.36-2.166.783-.261.423 1.287.6 3.441.395 2.807-.267 3.92.01 3.931.982.013 1.123.165 1.119.889-.023.508-.803 1.401-1.052 2.139-.596zm-.5-11.457a1.095 1.095 0 0 1 .35-1.503c1.305-.806 4.211.457 3.542 1.539-.724 1.172-3.16 1.15-3.892-.036zm8.697 11.58c.637.393.777.187.345-.51-.398-.645-1.142-.913-1.654-.596-.512.316-.931.173-.931-.317 0-1.902 1.417-2.158 3.169-.573 1.007.911 1.831 1.44 1.831 1.176s-1.198-1.571-2.661-2.905c-1.464-1.333-2.337-1.862-1.941-1.174.396.688.243 1.25-.339 1.25-.582 0-1.066.787-1.074 1.75-.013 1.468-.166 1.513-.946.279-.512-.81-1.28-1.122-1.706-.696-.91.91 1.698 2.766 2.87 2.042.438-.271.833.096.876.816.061 1.015.193 1.026.585.053.279-.691.988-.96 1.576-.596zM139.5 69c.995-1.1 1.585-2 1.31-2-.275 0-1.315.9-2.31 2-.995 1.1-1.585 2-1.31 2 .275 0 1.315-.9 2.31-2zM95 66c0-.55-.477-1-1.059-1s-.78.45-.441 1c.34.55.816 1 1.059 1s.441-.45.441-1zm4.47-3.049c-.387-.626-1.754-.939-3.037-.693-1.423.272-2.545-.107-2.876-.97-.299-.778-1.066-1.092-1.704-.697-.696.43-.893.283-.491-.367.83-1.343-.972-2.583-2.437-1.678-2.156 1.333 2.857 5.05 7.152 5.304 2.859.168 3.884-.103 3.393-.899zM119 49.383c0-1.124.609-1.457 2.001-1.093 1.101.288 1.75.115 1.441-.383-1.029-1.666-4.202-.932-4.732 1.093-.287 1.1-.115 2 .384 2 .498 0 .906-.727.906-1.617zm-4.996-14.878c-.682-.822-1.004-2.396-.716-3.499.288-1.102.116-2.256-.382-2.564-1.223-.756-1.148-5.122.13-7.508 1.635-3.057 8.429-2.68 10.569.586 2.13 3.251 1.403 11.27-1.195 13.17-2.405 1.758-6.874 1.66-8.406-.185zm7.44-2.728c.855-1.222 1.556-3.265 1.556-4.539 0-1.93-.232-2.101-1.39-1.027-.855.794-1.007 1.528-.396 1.912.64.402.57 1.413-.2 2.85-.862 1.611-1.849 2.1-3.572 1.771-1.31-.25-2.144-.07-1.853.4 1.002 1.621 4.301.851 5.854-1.367zm-5.511-5.358c-1.085-1.307-1.078-1.958.038-3.75 1.23-1.977 1.203-2.047-.31-.797-1.963 1.622-2.117 3.272-.461 4.928 1.744 1.744 2.27 1.47.733-.381zm3.514-2.504a1.117 1.117 0 0 0-1.532-.362 1.117 1.117 0 0 0-.362 1.532 1.117 1.117 0 0 0 1.532.362 1.117 1.117 0 0 0 .362-1.532zM6.743 365.25c-.187-4.263-.34-.775-.34 7.75s.153 12.012.34 7.75c.188-4.263.188-11.238 0-15.5zm1.014-354c.134-.137 1.48-.311 2.993-.386 2.439-.121 2.49-.186.445-.577C5.658 9.23 5.98-1.54 6.245 176.372L6.487 340.5 7.002 176c.282-90.475.622-164.613.755-164.75zm16.972-.854c-.332-.332-1.195-.368-1.917-.08-.797.32-.56.557.605.605 1.054.043 1.644-.193 1.312-.525zm6 0c-.332-.332-1.195-.368-1.917-.08-.797.32-.56.557.605.605 1.054.043 1.644-.193 1.312-.525zm37.577-.142c-6.156-.175-16.506-.176-23-.001-6.493.174-1.456.317 11.194.318 12.65 0 17.963-.142 11.806-.317z"/></svg>