<svg xmlns="http://www.w3.org/2000/svg" width="246" height="420" viewBox="0 0 246 420"><path d="M61.75 418.25c33.688-.146 88.813-.146 122.5 0 33.688.146 6.125.266-61.25.266s-94.938-.12-61.25-.266zM7.685 411.3c-.306-.495-.862-13.252-1.236-28.35-.374-15.097-.788-30.599-.921-34.449-.133-3.85-.318-81.25-.412-172C4.95 16.475 5.002 11.454 6.814 9.968c1.653-1.355 14.593-1.528 112.477-1.5 79.953.023 110.917.34 111.723 1.147.804.803 1.219 35.394 1.486 124 .204 67.587.684 157.093 1.066 198.904.633 69.157.55 76.14-.912 77.353-1.312 1.089-22.148 1.426-113.01 1.83-65.52.293-111.632.126-111.96-.403zM147 408.95c70.632 0 85-.323 85-1.909 0-.376-2.813-.384-6.25-.018-3.438.367-53.275.624-110.75.572L10.5 407.5l-.6-4.5-.6-4.5-.15 5.083c-.082 2.796.146 5.38.509 5.742.362.362 14.65.426 31.75.142 17.1-.284 64.616-.517 105.591-.517zm32.779-3.915l49.278-.035-.523-28.25c-.75-40.486-1.552-184.57-1.559-279.888l-.006-81.638-7.234-.44c-3.98-.24-24.56-.363-45.735-.271-21.175.092-66.768.239-101.317.327L9.866 15l.498 170.75c.467 160.245 1.004 216.044 2.105 218.996.367.982 12.903 1.148 59.248.785 32.33-.254 80.958-.477 108.062-.496zM112 397.086c-4.74-.68-13-4.769-13-6.434 0-2.169-3.466-8.652-4.625-8.652-.682 0-1.552-1.012-1.933-2.25-.66-2.142-5.883-8.748-12.057-15.25-1.566-1.65-3.982-4.66-5.367-6.688-1.385-2.029-5.106-6.405-8.268-9.724-3.163-3.32-5.75-6.335-5.75-6.7 0-1.478-11.48-13.62-13.66-14.449-1.287-.49-2.34-1.58-2.34-2.423 0-.844-2.227-2.905-4.948-4.58-4.219-2.595-5.255-3.884-7.026-8.74-1.142-3.133-2.569-6.666-3.17-7.85-1.275-2.517-.446-4.354 1.953-4.326.93.01 4.616 1.708 8.191 3.772 5.194 2.999 6.93 4.652 8.644 8.23 1.18 2.463 2.754 5.127 3.5 5.92.746.794 2.256 2.895 3.356 4.67 1.1 1.776 6.275 8.154 11.5 14.173a2053.06 2053.06 0 0 1 18.217 21.33c9.139 10.887 16.831 18.655 22.886 23.11 2.578 1.898 3.966 3.95 4.88 7.214.702 2.508 1.563 4.561 1.912 4.561.35 0 1.449-2.29 2.443-5.088 1.296-3.65 2.672-5.558 4.869-6.75 4.874-2.645 16.395-13.595 21.369-20.309 1.893-2.555 4.022-4.869 4.73-5.14 1.697-.651 12.694-14.116 12.694-15.542 0-.61 1.06-1.684 2.357-2.39C166.69 334.97 177 323.547 177 321.667c0-.862.772-1.999 1.715-2.527.944-.528 2.856-3.091 4.25-5.697 1.394-2.605 3.885-5.473 5.535-6.373 1.65-.9 4.904-2.858 7.23-4.352 8.368-5.375 9.508-3.433 4.434 7.55-2.915 6.31-4.72 8.914-7.274 10.492-4.36 2.695-12.392 10.235-18.365 17.241-2.579 3.025-8.14 9.265-12.357 13.866-4.217 4.601-7.807 8.731-7.977 9.178-.17.446-3.353 3.91-7.072 7.696-6.286 6.399-11.5 13.539-15.16 20.76-1.65 3.253-10.154 8.525-13.459 8.343-1.1-.06-4.025-.401-6.5-.757zm-1.25-3.336c-.23-.688-1.039-1.25-1.8-1.25-.915 0-1.377-1.181-1.368-3.5.012-2.93-.34-3.5-2.157-3.5-2.178 0-2.259 1.513-.221 4.161.551.716.432 1.446-.31 1.904-.813.503-.941.32-.394-.565.57-.921.421-1.07-.5-.5-.787.487-1.066.415-.699-.179.336-.543-.024-.988-.801-.988-1.975 0-.838 1.49 2.86 3.744 3.6 2.196 5.997 2.495 5.39.673zm13.595-1.016c2.115-1.229 4.411-3.359 5.103-4.734a488.694 488.694 0 0 0 3.046-6.221c.985-2.047 2.242-3.442 2.794-3.101.638.395.75-.391.306-2.16-.536-2.134-.164-3.37 1.604-5.328 1.266-1.402.176-.808-2.423 1.321-2.6 2.13-4.523 4.075-4.275 4.323.249.248 1.21-.176 2.138-.941 1.106-.913 1.545-.98 1.275-.196-.227.659-2.888 2.508-5.913 4.11-5.343 2.829-6.4 4.117-9.54 11.635-1.377 3.295-1.356 3.557.277 3.542.97-.01 3.493-1.022 5.608-2.25zm-10.983-.234c-.609-1.586-2.362-2.08-2.362-.667 0 1.058 1.093 2.167 2.135 2.167.441 0 .543-.675.227-1.5zm-2.24-3.404c-.816-.516-1.062-1.428-.603-2.234.599-1.054.49-1.099-.485-.2-1.39 1.283-.597 3.347 1.275 3.323.783-.01.719-.315-.187-.889zm-11.147-5.521c-1.325-1.325-2.15-.194-1.36 1.866.521 1.357.839 1.443 1.483.401.45-.729.395-1.749-.123-2.267zm2.099-.986c-.84-1.012-.861-1.603-.075-2.089.707-.436.208-1.565-1.403-3.177-1.375-1.375-2.94-2.228-3.48-1.895-.537.332-1.303.078-1.701-.566-.473-.765-.289-.902.53-.396 1.913 1.182-.406-2.797-2.64-4.531-1.55-1.203-1.533-1.082.121.856 1.358 1.59 1.614 2.57.866 3.317-1.772 1.772-.284 4.668 3.265 6.352 1.847.876 3.629 2.031 3.96 2.567.33.535.855.973 1.164.973.31 0 .037-.635-.607-1.411zm3.057.069c-.612-.738-.78-1.71-.372-2.16.407-.45.157-.481-.558-.07-1 .578-1.03 1.074-.127 2.161.644.776 1.396 1.411 1.67 1.411.276 0 0-.604-.613-1.342zm38.407-12.9c2.77-2.928 3.306-3.725 1.212-1.805-4.108 3.768-5.08 3.192-1.5-.889l2.25-2.564-2.753 2.427c-1.514 1.335-2.64 3.125-2.5 3.978.14.853-.31 1.617-.997 1.698-2.227.262-2.377.382-1.75 1.397.844 1.366.5 1.607 6.038-4.243zM92.6 372.75c.396-.688.343-.908-.116-.49-.46.417-1.995-.258-3.41-1.5L86.5 368.5l2.424 2.75c2.797 3.172 2.73 3.145 3.677 1.5zm-3.597-5.246c-1.29-1.373-2.57-2.272-2.843-1.998-.274.274-1.435-.29-2.58-1.254-2.076-1.747-2.076-1.746-.197.474 1.036 1.225 2.213 2.023 2.616 1.774.403-.25 1.538.437 2.521 1.524.984 1.087 2.023 1.976 2.308 1.976.286 0-.536-1.123-1.825-2.496zm58.922-6.05c.609.376.827 1.136.486 1.689-.342.553.28.441 1.384-.247 1.102-.689 1.772-1.859 1.487-2.6-.394-1.029-.843-1.076-1.9-.2-.916.761-1.383.792-1.383.09 0-1.475 8.106-10.239 8.974-9.702.39.241 2.243-1.23 4.118-3.27 3.06-3.332 3.095-3.428.339-.948-1.688 1.52-3.301 2.53-3.584 2.247-.506-.505-4.548 3.579-14.342 14.487-4.353 4.848-4.45 5.042-.812 1.635 2.27-2.125 4.624-3.557 5.233-3.18zm-58.922 3.05c-1.29-1.373-2.565-2.277-2.833-2.009-.268.268-1.203-.07-2.079-.754-1.406-1.096-1.433-1.038-.229.498.75.956 1.702 1.53 2.117 1.274.414-.256 1.558.424 2.541 1.51.984 1.088 2.023 1.977 2.308 1.977.286 0-.536-1.123-1.825-2.496zm-4.411-4.107c1.704.654 1.702.586-.033-1.33-1.005-1.111-2.287-1.736-2.848-1.389-.562.347-.72.143-.35-.454.369-.597.213-1.368-.346-1.714-.559-.345-1.016.074-1.016.931 0 1.883-1.103 1.995-3.023.309-.783-.688-.536-.125.55 1.25 2.694 3.414 3.8 4.088 4.596 2.801.371-.6 1.483-.783 2.47-.404zm70.535-3.147c1.243-1.586 1.208-1.621-.378-.378-1.666 1.307-2.195 2.128-1.372 2.128.207 0 .995-.787 1.75-1.75zm2.015-3.774c.271.272 2.038-1.187 3.925-3.241l3.432-3.735-3.566 3.268c-1.96 1.797-3.797 3.036-4.08 2.754-.282-.283-1.602.722-2.933 2.232L151.5 357.5l2.574-2.26c1.416-1.242 2.797-2.036 3.069-1.764zM78.2 354.8c-1.86-1.86-1.415-3.213.55-1.672 1.591 1.248 1.624 1.211.357-.402-.765-.976-1.636-1.53-1.934-1.233-.298.298-2.034-.904-3.857-2.672-1.824-1.767-3.316-2.83-3.316-2.362 0 .468-1.012-.006-2.25-1.054L65.5 343.5l1.91 2.256c1.051 1.241 2.145 2.022 2.431 1.736.673-.672 6.159 4.568 6.159 5.882 0 .55-1.462-.322-3.25-1.937L69.5 348.5l2.903 3.214c1.597 1.768 3.253 2.999 3.68 2.734.429-.264 1.061-.023 1.407.536.345.559.916 1.016 1.269 1.016.353 0 .101-.54-.559-1.2zm-4.54-8.633c-2.442-2.549-6.344-4.082-5.047-1.984.289.467.879.631 1.31.364.433-.267 1.83.626 3.106 1.984 1.276 1.358 2.55 2.469 2.832 2.469.282 0-.708-1.275-2.201-2.833zm91.096-3.457c.691.254 1.005.867.698 1.364-.307.497.09.654.884.35.856-.329 1.233-1.347.93-2.51-.402-1.534-.81-1.71-1.89-.813-3.119 2.589-1.084-.982 2.622-4.601 4.26-4.16 5.516-3.852 1.75.428-1.946 2.212-1.968 2.322-.169.813 1.145-.96 2.3-1.526 2.569-1.258.267.268 2.031-1.193 3.918-3.246l3.432-3.733-3.25 2.935c-1.787 1.614-3.25 2.535-3.25 2.046 0-.49 1.463-2.482 3.25-4.428 2.678-2.916 2.752-3.1.42-1.048-1.557 1.37-3.05 2.346-3.319 2.168-.588-.39-10.351 8.626-10.351 9.558 0 .36-1.238 2.03-2.75 3.71l-2.75 3.055 3-2.625c1.65-1.444 3.565-2.418 4.256-2.165zm-96.13-1.3c1.441.553 1.318.16-.584-1.865-1.783-1.898-2.615-2.238-3.196-1.306-.625 1.004-1.25.977-3.065-.13l-2.281-1.392 2 2.391c2.798 3.346 3.843 3.955 4.623 2.694.373-.604 1.493-.78 2.503-.392zM170.5 340c.995-1.1 1.585-2 1.31-2-.275 0-1.315.9-2.31 2-.995 1.1-1.585 2-1.31 2 .275 0 1.315-.9 2.31-2zm-108.496-4.496c-1.29-1.373-2.575-2.267-2.855-1.986-.28.28-1.892-.734-3.58-2.254L52.5 328.5l2.903 3.214c1.597 1.768 3.224 3.017 3.616 2.774.393-.242 1.519.449 2.502 1.536.984 1.087 2.023 1.976 2.308 1.976.286 0-.536-1.123-1.825-2.496zM59.919 330c-2.87-3.3-5.455-6-5.743-6-.289 0 .454 1.042 1.65 2.314 3.11 3.31 2.689 4.488-.576 1.614-2.707-2.383-2.705-2.37.153.79 1.597 1.766 3.219 3.016 3.605 2.777.386-.238 1.745.678 3.021 2.036 4.452 4.74 3.067 2.422-2.11-3.531zm116.581-3c.995-1.1 1.585-2 1.31-2-.275 0-1.315.9-2.31 2-.995 1.1-1.585 2-1.31 2 .275 0 1.315-.9 2.31-2zm-123.929-5.572c-.335-1.336-1.243-2.428-2.017-2.428-.774 0-2.49-2.362-3.811-5.25-2.025-4.423-3.391-5.836-8.668-8.967-4.489-2.664-6.068-3.23-5.572-2 .38.944 1.586 4.016 2.679 6.825 1.64 4.216 2.93 5.7 7.39 8.5 2.971 1.866 5.408 4.017 5.415 4.782.007.764.8 1.967 1.763 2.672 1.448 1.06 1.895 1.024 2.59-.212.462-.822.566-2.587.231-3.922zm132.418 3.085c.68-.818.975-2.165.657-2.993-.903-2.354 3.366-5.754 6.458-5.143 2.559.506 4.896-.816 4.896-2.768 0-.545-.675-.118-1.5.95-1.473 1.905-1.539 1.897-3.5-.42-1.1-1.298-2-2.03-2-1.627 0 .403-.675.173-1.5-.511-1.294-1.075-1.413-.818-.874 1.877.418 2.09.232 3.122-.56 3.122-.681 0-.865-.531-.433-1.25.433-.72-.035-.615-1.105.25-1.754 1.418-1.789 1.363-.637-1 1.148-2.353 1.128-2.386-.336-.559-1.788 2.232-1.995 3.559-.555 3.559 2.285 0 .772 1.891-2 2.5-2.844.625-4.048 3.119-2.333 4.833 1.164 1.164 4.044.72 5.322-.82zm9.157-11.837c-.804-.97-.77-1.678.128-2.647.994-1.073.868-1.196-.665-.653-1.599.566-1.698.436-.637-.842.69-.832 1.654-1.265 2.141-.964.488.301.887.057.887-.543 0-.6 1.012-1.498 2.25-1.996 1.238-.497 1.772-.933 1.187-.968-2.106-.125-11.512 5.007-10.922 5.96.332.538 1.196.977 1.922.977.725 0 1.878.675 2.563 1.5.685.825 1.47 1.5 1.745 1.5.275 0 .006-.596-.599-1.324zm3.153-2.34c-.467-1.216-.278-1.441.701-.836.968.598 1.17.385.726-.771-.337-.88-.076-1.818.58-2.085.91-.37.906-.505-.02-.565-1.512-.098-3.594 3.613-2.773 4.942.972 1.572 1.481 1.128.786-.685zM160 307.253c-6.877-2.367-82.61-3.004-90.33-.76-5.268 1.532-5.49 1.51-12.766-1.262-5.792-2.207-7.474-3.301-7.724-5.026-.238-1.648.189-2.205 1.691-2.205 1.106 0 2.242-.373 2.523-.83.282-.455 2.986-1.421 6.008-2.147 4.266-1.023 6.795-1.069 11.297-.205 14.042 2.692 28.703 3.573 31.405 1.885 1.47-.918 2.343-.905 3.882.056 2.513 1.57 15.035 1.615 20.18.073 2.972-.89 4.176-.89 5.066 0 1.398 1.398 13.807 1.565 18.197.244 1.689-.508 6.43-1.423 10.535-2.033 7.077-1.053 7.867-.967 15.23 1.65 7.439 2.642 9.881 4.632 7.998 6.515-1.315 1.315-14.4 5.761-16.692 5.672-1.1-.043-4.025-.775-6.5-1.627zm13.826-8.278c-6.828-2.495-7.632-2.586-11.826-1.337-2.475.737-6.473 1.345-8.885 1.351l-4.385.011 2.543 2c1.398 1.1 3.371 2.025 4.385 2.056 1.013.03 3.842.867 6.285 1.857 4.41 1.788 4.5 1.783 11.826-.73l7.383-2.53-7.326-2.678zm-108.097 5.42c-.332-.331-1.195-.367-1.916-.078-.798.32-.561.556.604.604 1.054.043 1.644-.193 1.312-.525zm7.128-.285c.746-.473.971-1.088.5-1.368-.938-.555-5.357.868-5.357 1.726 0 .839 3.359.591 4.857-.358zM59.45 303.08c.312-.505-.846-1.229-2.574-1.608-2.31-.508-2.776-.922-1.76-1.566 1.625-1.03.752-1.177-1.604-.273-1.373.527-1.176.948 1.168 2.493 3.193 2.106 3.963 2.26 4.77.954zm37.3.19c-2.063-.215-5.438-.215-7.5 0-2.063.216-.375.393 3.75.393s5.813-.177 3.75-.392zm6.645-.44c-.486-.788-.178-.962.941-.532 1.066.409 1.664.133 1.664-.768 0-2.153 21.955-2.68 22.118-.531.101 1.333.16 1.333.52 0 .333-1.227 2.088-1.44 9.629-1.173 5.071.18 8.959.065 8.638-.255-.32-.32-16.63-.693-36.244-.827l-35.662-.245v2.25c0 1.905.538 2.25 3.501 2.25 2.444 0 3.5-.452 3.5-1.5 0-1.239 1.84-1.5 10.559-1.5 6.785 0 10.338.357 9.941 1-.609.985.142 3 1.118 3 .275 0 .175-.526-.223-1.17zm17.885.438c-2.32-.21-6.37-.212-9-.006-2.629.207-.73.379 4.22.382 4.95.003 7.101-.166 4.78-.376zm8.45.127c-.333-.332-1.196-.368-1.917-.08-.798.32-.561.557.604.605 1.054.043 1.644-.193 1.312-.525zm14.046-.123c-2.048-.215-5.648-.218-8-.007-2.352.211-.676.387 3.724.39 4.4.005 6.324-.168 4.276-.383zM151 302.5c-1.446-1.742-3-1.97-3-.441 0 .582.45.78 1 .441.55-.34 1-.141 1 .441s.505 1.059 1.122 1.059c.776 0 .738-.464-.122-1.5zm-86.2-3.25c.655-1.943.715-3.25.148-3.25-.521 0-.948.675-.948 1.5s-.787 1.536-1.75 1.579c-1.045.047-1.247.282-.5.583.688.278 1.25 1.217 1.25 2.088 0 2.093.47 1.44 1.8-2.5zm8.933-.25c-.188-.898-1.225-1.4-2.582-1.252-1.304.143-2.005-.175-1.65-.75.34-.549.11-.998-.51-.998-.672 0-.87.808-.49 2.005.423 1.33.111 2.207-.926 2.605-3.119 1.196-.537 2.08 2.922 1 2.298-.718 3.44-1.64 3.236-2.61zm-2.92.317c.721-.289 1.584-.253 1.916.079.332.332-.258.568-1.312.525-1.165-.048-1.402-.285-.604-.604zm25.437 1.95c-2.337-.21-6.162-.21-8.5 0-2.337.211-.425.384 4.25.384s6.588-.173 4.25-.383zm25.03.002c-2.32-.21-6.37-.212-9-.006-2.629.206-.73.378 4.22.381 4.95.003 7.101-.166 4.78-.376zm22.496.004c-2.048-.215-5.648-.218-8-.007-2.352.211-.676.387 3.724.39 4.4.004 6.324-.169 4.276-.384zM63 296.875c0-1.112-2.09-1.104-3.857.015-.957.607-.59.86 1.25.86 1.434 0 2.607-.394 2.607-.875zm97.386-21.838c-7.38-2.405-81.94-2.804-89.932-.48-5.202 1.512-5.527 1.483-12.945-1.15-6.49-2.305-7.565-3.011-7.31-4.804.233-1.626 1.915-2.656 7.409-4.54 6.876-2.358 7.35-2.39 14.5-1 10.226 1.988 78.152 2.06 88.392.093 6.91-1.328 7.094-1.307 14.405 1.651 7.83 3.168 10.59 5.724 7.4 6.85-.993.351-3.38 1.276-5.305 2.057-6.64 2.69-11.286 3.06-16.614 1.323zM168 272c.591-1.105.66-2 .152-2-.505 0-1.154.9-1.442 2-.287 1.1-.356 2-.152 2 .205 0 .853-.9 1.442-2zm3.5 1c-.34-.55-1.068-1-1.618-1s-.722.45-.382 1c.34.55 1.068 1 1.618 1s.722-.45.382-1zm-96.25-1.699c5.558-.47 6.75-.88 6.75-2.328 0-1.991-2.275-3.188-4.463-2.349-.804.309-3.672-.172-6.373-1.07-4.766-1.583-5.124-1.558-12.2.824l-7.289 2.455 6.413 2.013c3.526 1.106 7.312 1.79 8.412 1.519 1.1-.272 5.037-.75 8.75-1.064zm86.25.699c1.908-.82 1.897-.863-.25-.93-1.238-.038-2.25-.61-2.25-1.27 0-.881-.296-.904-1.113-.087-.612.612-.81 1.602-.44 2.2.775 1.255 1.309 1.266 4.053.087zm13 0c-.34-.55-.067-1 .608-1 .674 0 .945-.28.602-.624-.98-.98-3.909.493-3.214 1.617.342.554 1.072 1.007 1.622 1.007s.722-.45.382-1zm-77.22-.73c-2.32-.21-6.37-.213-9-.007-2.629.207-.73.379 4.22.382 4.95.003 7.101-.166 4.78-.376zm7.72.337c0-.216-.698-.661-1.552-.989-.89-.341-1.291-.173-.94.393.586.95 2.492 1.406 2.492.596zm15.75-.342c-2.612-.206-6.888-.206-9.5 0s-.475.374 4.75.374 7.362-.168 4.75-.374zm8.98.13c-.333-.331-1.196-.367-1.917-.078-.798.32-.561.556.604.604 1.054.043 1.644-.193 1.312-.525zm13.52-.127c-2.337-.21-6.162-.21-8.5 0-2.337.21-.425.383 4.25.383s6.588-.173 4.25-.383zm12.735-1.018c-.055-2.683-2.197-3.126-16.241-3.36-8.098-.134-15.041.074-15.43.463-.39.39.618.612 2.239.495 6.33-.459 22.44.192 22.329.902-.293 1.855.341 2.25 3.618 2.25 1.925 0 3.493-.338 3.485-.75zM180 270c.825-.533 1.05-.97.5-.97s-1.675.437-2.5.97c-.825.533-1.05.97-.5.97s1.675-.437 2.5-.97zm-80.5-1c-.34-.55-3.715-1-7.5-1s-7.16.45-7.5 1c-.393.635 2.343 1 7.5 1s7.893-.365 7.5-1zm21.78.27c-2.32-.21-6.37-.213-9-.007-2.629.207-.73.379 4.22.382 4.95.003 7.101-.166 4.78-.376zm22.496.003c-2.048-.215-5.648-.218-8-.007-2.352.212-.676.387 3.724.391 4.4.004 6.324-.17 4.276-.384zm18.953.123c-.332-.332-1.195-.368-1.917-.079-.797.32-.56.556.605.604 1.054.044 1.644-.193 1.312-.525zm-60.319-1.54c-.487-.79.107-.99 1.911-.645 1.44.275 2.38.115 2.09-.355-.687-1.111-4.137-1.108-4.825.005-.292.473-.244 1.148.108 1.5 1.04 1.04 1.48.73.716-.506zm75.59.68c0-1.447-4.056-2.437-6.176-1.508-2.15.942-2.113.976.51.455 1.829-.363 2.606-.194 2.19.477-.365.591.246 1.04 1.417 1.04 1.132 0 2.059-.21 2.059-.465zm-63.238-1.223c-.956-.25-2.756-.26-4-.02-1.244.239-.462.444 1.738.455 2.2.01 3.218-.185 2.262-.435zm6.988-.002c-.963-.252-2.538-.252-3.5 0-.963.251-.175.457 1.75.457s2.712-.206 1.75-.457zm42.5-.398c-1.362-1.249-5.544-2.198-4.869-1.105.347.562.111 1.195-.525 1.407-.636.212.487.385 2.494.385 2.008 0 3.313-.31 2.9-.687zm-68-.645c-2.337-.21-6.162-.21-8.5 0-2.337.21-.425.383 4.25.383s6.588-.172 4.25-.383zM167.5 265c.368-.596-.719-.96-2.691-.9-3.111.093-3.16.147-.809.9 1.375.44 2.586.846 2.691.9.105.055.47-.35.809-.9zm26.346 4.485c-5.983-3.071-6.838-3.899-8.478-8.2-2.374-6.229-7.424-13.303-14.826-20.773-3.278-3.307-6.428-6.75-7-7.652-2.555-4.022-12.033-14.48-14.177-15.642-1.3-.705-2.365-1.946-2.365-2.759 0-1.701-10.775-13.796-12.726-14.285-.715-.18-1.98-1.637-2.808-3.24-.83-1.603-3.216-3.786-5.304-4.851-4.642-2.368-5.733-3.657-6.623-7.822-1.035-4.84-2.207-4.8-4.395.147-1.332 3.01-3.097 5.046-5.44 6.274C106.458 192.384 88 211.498 88 213.158c0 .417-3.422 4.265-7.604 8.55-4.182 4.286-8.051 9.03-8.598 10.542-.546 1.512-1.57 2.75-2.274 2.75-.705 0-3.468 2.587-6.142 5.75-2.673 3.163-6.1 7.1-7.617 8.75-1.516 1.65-3.852 5.31-5.192 8.133-2.517 5.303-4.967 7.534-12.42 11.306-4.53 2.293-7.153 2.165-7.153-.35 0-.811 1.175-4.645 2.611-8.519 2.136-5.762 3.273-7.437 6.25-9.205 6.111-3.628 15.766-13.174 20.343-20.115 1.723-2.612 3.482-4.75 3.91-4.75.426 0 3.99-3.712 7.916-8.25 3.928-4.537 10.117-11.487 13.754-15.443 3.638-3.956 7.435-8.793 8.439-10.75 1.004-1.956 2.255-3.557 2.782-3.557.526 0 1.978-2.13 3.226-4.732 1.852-3.862 3.465-5.423 8.769-8.486 7.56-4.367 9.031-4.33 17.515.437 4.928 2.768 6.4 4.238 8.335 8.322 1.293 2.727 2.98 5.319 3.75 5.759.77.44 2.034 2.015 2.809 3.5.775 1.485 4.6 5.979 8.5 9.986 3.9 4.007 7.091 7.653 7.091 8.102 0 .45 3.597 4.596 7.993 9.215 4.396 4.618 7.996 8.64 8 8.936.007.568 9.925 11.9 13.757 15.719 1.237 1.233 2.25 2.638 2.25 3.123 0 .484 2.435 2.113 5.412 3.619 5.26 2.661 5.499 2.968 8.5 10.92 1.698 4.5 3.088 8.72 3.088 9.38 0 2.181-5.401 1.152-12.154-2.315zm6.623-6.21c-2.406-6.158-3.209-7.185-7.509-9.602-2.654-1.492-6.379-4.838-8.302-7.458-1.918-2.613-4.528-5.643-5.8-6.733-1.27-1.09-.804-.216 1.038 1.942 3.01 3.528 3.182 4.045 1.703 5.127-1.478 1.081-1.29 1.63 1.86 5.399 1.927 2.307 4.026 5.938 4.665 8.068 1.003 3.35 2.051 4.344 7.757 7.356 3.628 1.915 6.75 3.328 6.939 3.14.188-.189-.87-3.446-2.351-7.239zM35 266.893c0-.609.701-.838 1.559-.509 1.267.487 1.464 0 1.053-2.605-.278-1.765.033-3.868.692-4.683.961-1.19.925-1.317-.184-.649-.906.546-1.24.415-.975-.383.75-2.25 2.356-.979 2.2 1.74-.087 1.483.063 2.134.332 1.446.517-1.32 3.535-1.705 4.648-.592.362.362.156 1.262-.456 2-1.86 2.24-.316 1.498 1.726-.83 1.048-1.194 1.393-1.874.768-1.51-1.42.825-3.756-1.851-3.102-3.555.315-.821-.433-1.258-2.138-1.248-3.402.02-5.398 1.325-4.723 3.086.296.77.073 1.399-.494 1.399-.568 0-.911.787-.764 1.75.147.962-.29 2.762-.972 4-.782 1.419-.858 2.25-.205 2.25.57 0 1.035-.498 1.035-1.107zm6.667-3.298c0-.8-.61-1.17-1.418-.86-1.166.447-1.18.693-.083 1.389.734.465 1.372.852 1.417.86.046.009.084-.616.084-1.389zm5.926-6.293c-.346 1.094-.166 1.552.46 1.166.565-.35.737-1.555.38-2.677-.472-1.49-.306-1.83.614-1.262.868.536 1.013.377.464-.51-.599-.97-1.253-.698-2.632 1.095-2.24 2.913-2.513 5.046-.297 2.327 1.412-1.734 1.52-1.749 1.011-.14zm-4.926-4.962c0-.885-.517-.955-1.834-.25-1.008.539-1.833 1.093-1.833 1.23 0 .139.825.251 1.833.251 1.009 0 1.834-.554 1.834-1.231zm5.036-1.703c-.975 1.627 2.365 1.177 4.52-.61 2.204-1.825 2.28-3.62.187-4.423-2.19-.84-3.448.135-2.696 2.092.413 1.077.235 1.39-.523.922-1.498-.926-5.432 1.182-4.63 2.48.391.633 1.204.524 2.22-.3.903-.731 1.306-.802.922-.16zM57.5 245c.995-1.1 1.585-2 1.31-2-.275 0-1.315.9-2.31 2-.995 1.1-1.585 2-1.31 2 .275 0 1.315-.9 2.31-2zm121.5.687c0-.172-1.462-1.635-3.25-3.25l-3.25-2.937 2.937 3.25c2.738 3.03 3.563 3.71 3.563 2.937zm-2.633-6.187c-2.612-3.025-4.957-5.5-5.213-5.5-.522 0 1.837 2.92 6.261 7.75 4.826 5.268 4.103 3.716-1.048-2.25zm-116.301-.75c2.408-2.888 3.587-4.618 2.619-3.846-1.946 1.551-8.104 9.096-7.426 9.096.236 0 2.398-2.362 4.807-5.25zM63 238.5c1.292-1.375 2.124-2.5 1.849-2.5-.275 0-1.557 1.125-2.849 2.5-1.292 1.375-2.124 2.5-1.849 2.5.275 0 1.557-1.125 2.849-2.5zm-3-3c1.292-1.375 2.124-2.5 1.849-2.5-.275 0-1.557 1.125-2.849 2.5-1.292 1.375-2.124 2.5-1.849 2.5.275 0 1.557-1.125 2.849-2.5zm110.479.476c-1.393-1.538-1.553-2.302-.669-3.186.885-.885 1.718-.699 3.475.773 1.271 1.065 1.088.738-.406-.727-1.495-1.465-2.534-2.848-2.309-3.073.225-.225-1.042-1.726-2.815-3.336-1.773-1.61-2.443-1.992-1.49-.848.955 1.143 1.735 2.606 1.735 3.25 0 2.232-2.446 1.15-6.962-3.078l-4.538-4.25 4.75 5.034c2.613 2.769 4.75 5.656 4.75 6.416 0 .76.285 1.098.633.75.348-.348 1.505.477 2.572 1.833 1.067 1.356 2.202 2.466 2.523 2.466.32 0-.242-.91-1.25-2.024zm-2.868-3.796c-.324-.524.045-1.48.82-2.122 1.111-.923 1.361-.847 1.184.357-.303 2.065-1.284 2.929-2.004 1.765zm-96.994-1.649c.889-1.882.847-2.263-.202-1.86-2.87 1.101-3.574-.872-1.24-3.479 2.21-2.467 2.151-2.455-1.175.248-1.925 1.564-4.154 3.792-4.952 4.952-1.305 1.893-1.293 1.98.117.846 1.27-1.022 1.784-1.005 2.694.092.618.745.858 1.62.533 1.944-.324.325.242.373 1.26.107 1.017-.266 2.351-1.549 2.965-2.85zm.51-4.281c1.244-1.586 1.21-1.621-.377-.378-.963.755-1.75 1.543-1.75 1.75 0 .823.821.294 2.128-1.372zm89.71-4.25c-2.905-3.3-5.477-6-5.714-6-.529 0 2.143 3.243 6.797 8.25 5.484 5.9 4.752 4.379-1.083-2.25zm-83.274-.25l2.937-3.25-3.25 2.937c-1.788 1.615-3.25 3.078-3.25 3.25 0 .773.825.092 3.563-2.937zM76 220.5c1.866-1.925 3.167-3.5 2.892-3.5-.275 0-2.026 1.575-3.892 3.5s-3.167 3.5-2.892 3.5c.275 0 2.026-1.575 3.892-3.5zm-1.437-1.75l2.937-3.25-3.25 2.937c-3.03 2.738-3.71 3.563-2.937 3.563.172 0 1.635-1.462 3.25-3.25zM159.5 217c-2.148-2.2-4.602-3.971-5.453-3.937-1.08.045-.942.315.453.896 1.1.458 3.322 2.23 4.937 3.937 1.615 1.707 3.17 3.104 3.453 3.104.284 0-1.242-1.8-3.39-4zm-4.5 1.622c0-.207-.787-.995-1.75-1.75-1.586-1.243-1.621-1.208-.378.378 1.307 1.666 2.128 2.195 2.128 1.372zm-68.262-6.659c1.652-2.358 1.014-2.572-1.167-.392-1.428 1.429-1.582 1.406-1.69-.25-.065-1.001-.031-2.258.075-2.793.105-.534-.745-.124-1.89.912-1.857 1.68-1.921 2.062-.595 3.528 1.322 1.46 1.295 1.852-.241 3.503-1.221 1.312-.867 1.21 1.202-.343 1.612-1.21 3.55-3.085 4.306-4.165zM151 214.56c0-.243-.45-.72-1-1.059-.55-.34-1-.141-1 .441s.45 1.059 1 1.059 1-.198 1-.441zm.75-2.809c-.138-.688.537-1.188 1.5-1.111 2.353.187 2.222-.102-1-2.199-2.176-1.416-2.48-1.459-1.451-.204.888 1.085.961 1.794.233 2.244-.585.362-.806 1.077-.49 1.59.822 1.328 1.502 1.149 1.208-.32zm-64.622-3.5c1.243-1.586 1.208-1.621-.378-.378-1.666 1.307-2.195 2.128-1.372 2.128.207 0 .995-.787 1.75-1.75zM92 205.5c1.292-1.375 2.124-2.5 1.849-2.5-.275 0-1.557 1.125-2.849 2.5-1.292 1.375-2.124 2.5-1.849 2.5.275 0 1.557-1.125 2.849-2.5zm56 1.203c0-.163-1.913-2.076-4.25-4.25l-4.25-3.953 3.953 4.25c3.676 3.952 4.547 4.71 4.547 3.953zM91 203.5c1.292-1.375 2.124-2.5 1.849-2.5-.275 0-1.557 1.125-2.849 2.5-1.292 1.375-2.124 2.5-1.849 2.5.275 0 1.557-1.125 2.849-2.5zm50.104-1.035c-3.267-3.72-3.718-4.967-2.148-5.938.526-.325.667-1.364.312-2.309-.819-2.184-3.48-4.205-4.614-3.504-.478.295-.589-.345-.247-1.422.425-1.339.157-1.959-.849-1.959-.808 0-1.238.375-.955.834.788 1.275-1.02.99-2.653-.417-1.21-1.044-1.248-1.015-.224.176.849.987.91 1.807.202 2.661-.703.847-.688 1.443.048 1.898.59.365.95.124.799-.536-.151-.66.356-1.428 1.127-1.708 1.038-.377 1.246.086.801 1.785-.48 1.838.533 3.454 5.099 8.127 6.383 6.535 8.008 7.673 3.302 2.312zm8.896 3.238c0-.163-1.913-2.076-4.25-4.25l-4.25-3.953 3.953 4.25c3.676 3.952 4.547 4.71 4.547 3.953zm-60.437-3.953l2.937-3.25-3.25 2.937c-3.03 2.738-3.71 3.563-2.937 3.563.172 0 1.635-1.462 3.25-3.25zm4.565-5.5c1.243-1.586 1.208-1.621-.378-.378-.963.755-1.75 1.543-1.75 1.75 0 .823.821.294 2.128-1.372zm14.124-8.182c2.294-1.366 4-3.27 4.39-4.9.351-1.468 1.274-3.928 2.05-5.469 1.133-2.246 1.847-2.66 3.61-2.093 1.209.39 2.74.713 3.404.718.663.005.954.418.645.917-.308.499.453 1.986 1.691 3.304 1.858 1.978 2.031 2.662.991 3.915-.693.835-1.659 1.271-2.146.97-.488-.301-.887-.141-.887.356 0 .908 2.477 3.331 4.68 4.578 1.925 1.09 2.444-1.019.617-2.5-1.423-1.155-1.553-1.152-.85.016.575.954.403 1.237-.558.916-2.287-.762-1.607-3.304.861-3.217 1.237.044 2.25-.293 2.25-.75 0-.456-.563-.836-1.25-.844-.833-.01-.75-.339.25-.985 2.354-1.521 3.81-1.176 4.524 1.075.362 1.142.903 1.83 1.203 1.532.3-.3-.201-1.682-1.112-3.072-1.417-2.163-1.933-2.354-3.58-1.325-1.581.988-2.29.87-3.985-.665-2.358-2.134-1.92-3.512.482-1.518 1.317 1.093 1.53 1.075 1.274-.108-.416-1.928-1.652-2.738-6.025-3.95-3.294-.912-4.406-.682-9.737 2.009-4.948 2.498-6.45 3.88-8.446 7.78-1.335 2.608-3.329 5.285-4.43 5.95-2.063 1.242-2.27 2.736-.724 5.215.706 1.131 1.52.7 3.972-2.1 1.696-1.937 4.772-4.527 6.836-5.755zM124 183.392c0-.827-1.942-1.295-2.387-.575-.289.467.13.85.931.85.8 0 1.456-.124 1.456-.275zm-2.783-4.575c-1.525-1.525-2.453-.596-1.608 1.607.465 1.212.967 1.4 1.724.643.756-.756.722-1.412-.116-2.25zm43.283-25.56c-5.799-2.324-83.515-2.847-92.042-.62-5.263 1.374-6.034 1.334-11.897-.617-3.448-1.147-7.122-2.718-8.165-3.492-1.685-1.25-1.729-1.572-.396-2.9.825-.821 4.535-2.628 8.246-4.014 6.388-2.388 6.997-2.445 11.5-1.08 2.627.797 6.213 1.173 8.015.84 1.833-.337 3.844-.117 4.593.505 2.055 1.706 77.084.818 81.378-.963 3.602-1.495 7.89-.721 16.524 2.98 3.37 1.444 4.744 2.605 4.744 4.008 0 1.606-1.566 2.453-8.395 4.535-9.665 2.949-8.897 2.904-14.105.818zm-95.25-1.92c-.688-.277-1.813-.277-2.5 0-.688.278-.125.505 1.25.505s1.938-.227 1.25-.504zm110.048-2.073l3.948-1.58-2.694-1.411c-5.177-2.712-11.037-4.01-13.608-3.014-1.344.52-8.969 1.166-16.944 1.433-16.2.544-20.034 1.308-6.56 1.308 7.25 0 8.677.252 8.218 1.449-.674 1.757 2.225 2.854 5.507 2.084 1.284-.301 4.36.115 6.835.924 4.887 1.6 9.151 1.267 15.298-1.193zm-116.899.335c-.629-1.64-4.165-2.786-4.904-1.59-.421.68.563 1.23 5.224 2.912.12.043-.024-.552-.32-1.322zm6.851-.261c-.688-.278-1.813-.278-2.5 0-.688.277-.125.504 1.25.504s1.938-.227 1.25-.504zM76.5 149c-.34-.55-1.293-1-2.118-1s-1.222.45-.882 1c.34.55 1.293 1 2.118 1s1.222-.45.882-1zm30.993.011c.342-.554-.033-.741-.854-.426-.889.341-1.65-.155-1.936-1.262-.378-1.462-.494-1.378-.587.427-.118 2.289 2.205 3.157 3.377 1.261zm23.007.224c2.32-1.705-.08-6.23-2.508-4.73-1.758 1.086-1.008 5.53.925 5.48.32-.008 1.033-.346 1.583-.75zM128.275 147c-.083-1.1.271-2 .787-2s.938.9.938 2-.354 2-.787 2c-.433 0-.855-.9-.938-2zm-42.99-.016c-.722-2.762-1.715-3.21-7.648-3.449-2.825-.114-4.35-.023-3.387.202 2.04.477 2.296 1.846.5 2.67-.688.316-.29.34.882.054 1.356-.331 2.345.035 2.718 1.01.37.962 1.862 1.529 4.025 1.529 2.954 0 3.364-.284 2.91-2.016zm4.965 1.354c-.688-.278-1.813-.278-2.5 0-.688.277-.125.504 1.25.504s1.938-.227 1.25-.504zm-20.939-2.12a3.188 3.188 0 0 1-2.613-2.53c-.308-1.582-.463-1.326-.562.923-.126 2.89.06 3.07 2.614 2.53 2.436-.515 2.5-.62.561-.923zm-5.068-1.728l-.463-2.419-4.14 2.088c-2.277 1.148-4.215 2.144-4.306 2.214-.092.07 1.98.219 4.602.331 4.547.195 4.748.092 4.307-2.214zm131.301 2.52c-5.76-3.235-7.376-4.733-9.394-8.709-3.106-6.118-17.694-24.021-20.228-24.826-1.057-.335-1.922-1.379-1.922-2.319s-3.6-5.482-8-10.094c-4.4-4.612-8-8.777-8-9.256 0-.478-3.6-4.524-8-8.99-4.4-4.465-8-8.433-8-8.818 0-.384-2.162-2.043-4.804-3.685-3.925-2.44-5.187-3.977-6.898-8.4-1.698-4.39-2.224-5.035-2.78-3.413-1.961 5.71-3.946 9.5-4.976 9.5-.634 0-2.506 1.012-4.16 2.25C105.162 72.66 89 89.982 89 91.024c0 .343-3.6 4.383-8 8.976-4.4 4.593-8 9.184-8 10.2 0 1.036-1.064 2.254-2.417 2.768-1.329.506-4.713 3.757-7.52 7.226-2.808 3.468-6.108 7.498-7.334 8.956-1.226 1.457-3.293 4.699-4.594 7.204-1.823 3.511-3.9 5.483-9.06 8.6C38.393 147.18 34.619 149 33.69 149c-2.542 0-2.113-3.79 1.272-11.257 2.23-4.916 3.9-7.106 6.75-8.846 2.084-1.271 3.943-2.684 4.133-3.138.19-.455 4.127-4.704 8.75-9.443s8.405-8.924 8.405-9.3c0-.377 3.384-4.203 7.52-8.503 4.135-4.3 7.793-8.91 8.128-10.245.335-1.335 1.413-2.73 2.396-3.098C83.34 84.31 95 71.122 95 69.387c0-.724.868-1.781 1.928-2.349 1.06-.567 2.945-3.066 4.187-5.553 1.777-3.56 3.548-5.24 8.321-7.895 7.882-4.386 9.279-4.614 14.064-2.298 6.703 3.245 10.58 6.73 12.52 11.254 1.017 2.372 2.726 4.783 3.8 5.357 1.072.574 2.214 2.069 2.537 3.32.323 1.253 3.974 5.832 8.115 10.177 4.14 4.345 7.528 8.177 7.528 8.515 0 .339 3.348 4.188 7.44 8.555 4.093 4.366 7.938 8.868 8.547 10.005.608 1.136 3.61 4.532 6.672 7.545 3.061 3.014 6.887 6.788 8.502 8.388 1.615 1.599 4.752 4.074 6.971 5.5 3.082 1.98 4.718 4.128 6.924 9.092 3.377 7.6 3.819 12.021 1.194 11.958-.962-.024-4.88-1.8-8.706-3.949zm4.036-3.483c-4.677-4.61-5.374-8.23-1.385-7.186 1.58.413 1.707.246.719-.945-1.045-1.26-1.418-1.25-2.878.071-1.516 1.372-1.934 1.249-4.37-1.294-1.482-1.546-2.364-3.142-1.96-3.545.403-.404-.005-.45-.91-.104-.902.347-1.896 1.294-2.207 2.105-.348.908-.145 1.214.53.798.722-.447.878.008.457 1.334-.92 2.9 3.787 8.056 9.891 10.834 7.044 3.205 7.254 3 2.113-2.068zm-5.96-.72c-.846-.473-1.28-1.528-.967-2.345.393-1.024.101-1.305-.94-.905-1.871.718-3.001-1-3.234-4.915l-.178-2.994 2.369 2.926a138.534 138.534 0 0 0 4.85 5.612c1.364 1.478 2.48 2.865 2.48 3.084 0 .713-2.809.417-4.38-.463zm-3.496-7.074c-.988-.98-1.102-.865-.56.56.376.986.935 1.541 1.243 1.233.308-.307 0-1.114-.683-1.793zM36.7 143.1c-.896-1.108-.9-1.304-.018-.775.65.39 1.506.182 1.904-.462.452-.731.29-.903-.43-.458-.635.393-1.155.286-1.155-.238s.729-1.232 1.62-1.573c1.274-.49 1.522-.117 1.165 1.75l-.453 2.371 3.584-2.423c1.971-1.332 4.602-4.41 5.845-6.841 1.244-2.43 3.381-5.152 4.75-6.05 2.723-1.783 3.32-5.144 1.067-6.008-1.685-.647-5.578 1.239-5.578 2.702 0 .563.45.746 1 .406.55-.34 1-.237 1 .23 0 .466-2.512 2.37-5.583 4.23-4.711 2.856-6.037 4.348-8.5 9.559-3.446 7.295-3.537 7.885-.968 6.28 1.568-.979 1.715-1.506.75-2.7zm165.496.132c-.664-.22-.955-.81-.647-1.309.308-.498.1-1.697-.463-2.664-.692-1.187-1.034-1.312-1.055-.386-.025 1.137-.301 1.148-1.609.063-.878-.729-.545.272.75 2.257 1.281 1.961 2.757 3.313 3.28 3.004.538-.318.427-.737-.256-.964zm-7.509-10.205c-.166-1.086-.579-2.252-.919-2.592-.34-.34-.46.211-.268 1.224.191 1.013.382 2.18.424 2.592.043.412.3.75.57.75.272 0 .359-.888.193-1.974zm-5.503-4.492c.725.404-.142-.776-1.925-2.622-2.922-3.026-3.394-3.205-4.785-1.814-1.39 1.391-1.325 1.82.664 4.348 2.031 2.583 2.306 2.669 3.468 1.08.744-1.017 1.803-1.425 2.578-.992zm-9.183-3.86c0-.179-1.238-1.416-2.75-2.75l-2.75-2.424 2.424 2.75c2.266 2.57 3.076 3.209 3.076 2.424zm1-2c0-.179-1.238-1.416-2.75-2.75l-2.75-2.424 2.424 2.75c2.266 2.57 3.076 3.209 3.076 2.424zm2-1c0-.179-1.238-1.416-2.75-2.75l-2.75-2.424 2.424 2.75c2.266 2.57 3.076 3.209 3.076 2.424zM60.5 117c2.148-2.2 3.68-4 3.406-4-.275 0-2.258 1.8-4.406 4-2.148 2.2-3.68 4-3.406 4 .275 0 2.258-1.8 4.406-4zm2.5.5c1.292-1.375 2.124-2.5 1.849-2.5-.275 0-1.557 1.125-2.849 2.5-1.292 1.375-2.124 2.5-1.849 2.5.275 0 1.557-1.125 2.849-2.5zm112 1.174c0-.179-1.238-1.416-2.75-2.75l-2.75-2.424 2.424 2.75c2.266 2.57 3.076 3.209 3.076 2.424zm-108.558-8.768c.372.602 1.437 1.087 2.367 1.079 1.457-.014 1.484-.15.191-.985-1.305-.843-1.289-.971.128-.985.895-.008 2.245-.803 3-1.765 1.25-1.595 1.213-1.625-.42-.342-2.884 2.265-4.606-.23-2.134-3.09 1.766-2.045 1.66-2.026-1.269.226-1.757 1.35-3.22 2.889-3.25 3.418-.03.53-1.968 3.004-4.305 5.5L56.5 117.5l4.633-4.344c2.874-2.694 4.89-3.928 5.31-3.25zM175 115.655c0-.19-1.012-1.202-2.25-2.25l-2.25-1.905 1.905 2.25c1.79 2.114 2.595 2.705 2.595 1.905zm-1.06-4.405a325.626 325.626 0 0 1-3.246-3.75c-.558-.667-.774-.667-.647 0 .391 2.06-.086 2.715-1.297 1.778-.688-.532-2.039-1.249-3.003-1.593-1.64-.585-1.65-.466-.135 1.845 1.828 2.79 2.474 2.984 4.2 1.259.947-.948 1.69-.731 3.421 1 3.116 3.115 3.59 2.753.706-.539zm-6.94-4.628c0-.207-.787-.995-1.75-1.75-1.586-1.243-1.621-1.208-.378.378 1.307 1.666 2.128 2.195 2.128 1.372zm2-.967c0-.19-1.012-1.202-2.25-2.25l-2.25-1.905 1.905 2.25c1.79 2.114 2.595 2.705 2.595 1.905zm-91.437-4.905L80.5 97.5l-3.25 2.937c-3.03 2.738-3.71 3.563-2.937 3.563.172 0 1.635-1.462 3.25-3.25zM162 103.687c0-.172-1.462-1.635-3.25-3.25L155.5 97.5l2.937 3.25c2.738 3.03 3.563 3.71 3.563 2.937zm-1.46-4.646c-2.126-2.177-4.19-3.757-4.59-3.51-.398.246-1.275-.218-1.95-1.03-.989-1.193-.909-1.599.417-2.107 1.496-.575 1.484-.76-.138-2.086-.978-.801-1.217-1.171-.529-.823.687.348 1.25.119 1.25-.51 0-.628-.563-.946-1.25-.707-.688.239-1.22 1.355-1.182 2.48.056 1.68-.655 1.296-4-2.16-2.237-2.313-2.83-2.807-1.318-1.099s2.75 3.47 2.75 3.915c0 .982 5.211 5.177 6.082 4.895.342-.11 2.126 1.353 3.966 3.25 1.84 1.898 3.572 3.451 3.851 3.451.279 0-1.233-1.781-3.359-3.959zm-83.977-.291L79.5 95.5l-3.25 2.937c-3.03 2.738-3.71 3.563-2.937 3.563.172 0 1.635-1.462 3.25-3.25zM74 98.5c1.292-1.375 2.124-2.5 1.849-2.5-.275 0-1.557 1.125-2.849 2.5-1.292 1.375-2.124 2.5-1.849 2.5.275 0 1.557-1.125 2.849-2.5zm90 1.187c0-.172-1.462-1.635-3.25-3.25L157.5 93.5l2.937 3.25c2.738 3.03 3.563 3.71 3.563 2.937zM85.695 88.87c-1.517-.866-1.597-1.285-.5-2.624 1.026-1.254.71-1.207-1.482.22-3.162 2.058-3.078 4.075.165 3.953 2.099-.08 2.079.025-.579 3-2.611 2.923-2.574 2.912.724-.218 3.178-3.016 3.322-3.389 1.672-4.33zm-6.567 3.381c1.243-1.586 1.208-1.621-.378-.378-.963.755-1.75 1.543-1.75 1.75 0 .823.821.294 2.128-1.372zM92 84.5c1.292-1.375 2.124-2.5 1.849-2.5-.275 0-1.557 1.125-2.849 2.5-1.292 1.375-2.124 2.5-1.849 2.5.275 0 1.557-1.125 2.849-2.5zm-1.437-1.75L93.5 79.5l-3.25 2.937C87.22 85.175 86.54 86 87.313 86c.172 0 1.635-1.462 3.25-3.25zM149 85.696c0-.167-1.688-1.854-3.75-3.75L141.5 78.5l3.446 3.75c3.208 3.49 4.054 4.21 4.054 3.446zm-55.827-7.19c.298.299 1.169-.256 1.934-1.232 1.237-1.575 1.214-1.635-.199-.533-.876.683-1.806 1.027-2.068.765-.262-.262-2.02 1.205-3.908 3.259L85.5 84.5l3.566-3.268c1.96-1.797 3.81-3.023 4.107-2.725zM150 83.697c0-.167-1.688-1.854-3.75-3.75L142.5 76.5l3.446 3.75c3.208 3.49 4.054 4.21 4.054 3.446zm-9-4.074c0-.207-.787-.995-1.75-1.75-1.586-1.243-1.621-1.208-.378.378 1.307 1.666 2.128 2.195 2.128 1.372zm-.74-6.739c-.28-1.07-1.429-2.588-2.553-3.375-1.123-.787-3.205-3.527-4.625-6.088-3.538-6.382-12.696-12.183-16.805-10.646a141.75 141.75 0 0 1-4.64 1.644c-1.416.46-1.599.923-.762 1.931.838 1.01.469 1.9-1.549 3.738-1.457 1.327-2.354 1.898-1.993 1.268.36-.63-.017-1.403-.839-1.719-1.67-.641-2.063.895-.478 1.874.56.346.76 1.042.448 1.548-.312.505.152.643 1.032.305.954-.366 2.173.143 3.02 1.262 1.75 2.31 1.942 1.08.254-1.622-1.026-1.643-.925-2.265.607-3.737 1.76-1.692 1.813-1.683 1.253.234-.321 1.1-.115 2.675.458 3.5.8 1.152.887.948.37-.875-.518-1.831-.361-2.195.685-1.59.746.432 1.023.417.616-.033-.408-.45-.231-1.433.392-2.184.624-.752.849-1.652.5-2-.841-.842 1.264-3.318 2.821-3.318.676 0 2.46 2.9 3.966 6.443 1.688 3.97 3.76 7.085 5.4 8.116 1.464.92 4.075 3.167 5.802 4.993 3.51 3.71 7.556 3.913 6.62.331zM103 69.09c0-.929.47-2.158 1.042-2.731.724-.724.57-1.435-.5-2.323-.912-.757-1.542-.855-1.542-.24 0 .57.563 1.265 1.25 1.543.709.286.446.538-.607.583-1.333.057-1.67.564-1.197 1.799.363.945.352 1.411-.025 1.035-.963-.964-4.421 1.054-4.421 2.58 0 .696.563 1.828 1.25 2.515 1 1 1.6.818 3-.91.963-1.19 1.75-2.922 1.75-3.85zm6.591-2.344c.555-.984.42-.983-.644.005-.741.688-1.734 1.25-2.206 1.25s-.521-.562-.108-1.25c.516-.86.226-.824-.93.113-.925.75-1.434 1.764-1.131 2.253.642 1.04 3.986-.54 5.019-2.371zm-.107-9.77c-.301-.488-1.246-.62-2.1-.292-1.212.465-1.27.77-.266 1.39 1.517.938 3.155.177 2.366-1.098zm4.957-17.414c-1.64-1.215-1.75-1.753-.711-3.454.773-1.267.866-2.239.25-2.62-1.428-.882-1.198-5.806.371-7.952 1.515-2.073 6.92-2.386 9.154-.53 2.09 1.734 2.782 6.596 1.494 10.5-1.734 5.253-6.483 7.077-10.558 4.056zm6.97-2.463c1.195-1.32 1.6-3.078 1.323-5.75l-.398-3.848-.168 4.128c-.18 4.428-2.174 6.967-4.707 5.995-.9-.345-1.305-.18-.954.388.958 1.55 3.024 1.165 4.904-.913zm-2.161-1.76c-.688-.278-1.813-.278-2.5 0-.688.277-.125.504 1.25.504s1.938-.227 1.25-.504zm-3.567-6.526c-.32-.797-.556-.56-.604.605-.043 1.054.193 1.644.525 1.312.332-.332.368-1.195.08-1.916zM120 30c0-.55-.45-1-1-1s-1 .45-1 1 .45 1 1 1 1-.45 1-1zm111.308 266.75c-.292-54.038-.894-115.8-1.338-137.25-.615-29.69-.707-20.021-.383 40.5.234 43.725.504 102 .6 129.5.164 47.195.53 65.5 1.311 65.5.187 0 .102-44.212-.19-98.25zM8.689 373.25c-.251-.962-.457-.175-.457 1.75s.206 2.712.457 1.75c.252-.963.252-2.538 0-3.5zm-.006-5.438c-.32-.797-.556-.56-.604.605-.043 1.054.193 1.644.525 1.312.332-.332.368-1.195.08-1.916zm.059-22.562c-.193-3.712-.35-.675-.35 6.75s.157 10.463.35 6.75c.192-3.712.192-9.787 0-13.5zM7.683 164.812c-.32-.797-.556-.56-.604.605-.043 1.054.193 1.644.525 1.312.332-.332.368-1.195.08-1.917zm.035-39.548c-.23-1.52-.424-.514-.432 2.236-.007 2.75.18 3.994.418 2.764.237-1.23.243-3.48.014-5zm-.029-10.014c-.251-.963-.457-.175-.457 1.75s.206 2.712.457 1.75c.252-.963.252-2.538 0-3.5zm222.059-43.562c-.167-8.354-.304-1.238-.303 15.812 0 17.05.137 23.884.303 15.188.167-8.697.167-22.647 0-31zM7.683 107.812c-.32-.797-.556-.56-.604.605-.043 1.054.193 1.644.525 1.312.332-.332.368-1.195.08-1.917zm.066-56.497c-.163-10.348-.296-2.165-.296 18.185 0 20.35.132 28.817.295 18.815.163-10.001.164-26.651 0-37zm223.134-26c.064-5.052-.322-10.34-.858-11.75L229.049 11l-19.274.217-19.275.216 19 .534 19 .533.425 21c.387 19.109.49 20.1 1.133 11 .389-5.5.76-14.133.825-19.185zM7.716 24.25C7.487 22.738 7.3 23.975 7.3 27s.187 4.263.416 2.75c.23-1.512.23-3.987 0-5.5zM161.5 11.677c1.65-.196-32.213-.429-75.25-.517-43.038-.088-78.25.178-78.25.59 0 .723 147.4.653 153.5-.073zm16.25-.405c-2.063-.216-5.438-.216-7.5 0-2.063.215-.375.392 3.75.392s5.813-.177 3.75-.392zm9.5.066c-.688-.278-1.813-.278-2.5 0-.688.277-.125.504 1.25.504s1.938-.227 1.25-.504zm56.829 207.079c.048-1.165.285-1.402.604-.604.289.721.253 1.584-.079 1.916-.332.332-.568-.258-.525-1.312zM244.482 108c0-59.125.12-83.313.268-53.75.147 29.563.147 77.938 0 107.5-.147 29.563-.268 5.375-.268-53.75z"/></svg>