<svg xmlns="http://www.w3.org/2000/svg" width="245" height="420" viewBox="0 0 245 420"><path d="M74.813 418.317c.721-.289 1.584-.253 1.916.079.332.332-.258.568-1.312.525-1.165-.048-1.402-.285-.604-.604zm7.955-.042c1.797-.222 4.497-.218 6 .01 1.503.229.032.41-3.268.405-3.3-.006-4.53-.192-2.732-.415zm47.408-.025c20.722-.15 54.922-.15 76 0 21.078.151 4.124.275-37.676.275-41.8 0-59.046-.124-38.324-.275zM8.329 407.143c-3.103-2.117-3.196-7.48-3.512-202.143-.174-107.525.044-196.058.486-196.74.628-.97 20.124-1.298 89-1.5 102.571-.302 135.178-.173 137.043.543 1.112.426 1.46 23.007 2.01 130.356.987 192.93.992 267.4.017 268.302-1.032.953-223.665 2.122-225.044 1.182zM75 404.818c25.01-.253 22.744-.351-18.5-.803l-47-.515-.188-19.855c-.104-10.92-.441-20.108-.75-20.417-.86-.86-.638 39.105.225 40.462.917 1.443 7.517 1.873 24.713 1.613 7.15-.108 25.825-.326 41.5-.485zm43.28-.549c-2.32-.21-6.37-.212-9-.006-2.629.207-.73.379 4.22.382 4.95.003 7.101-.166 4.78-.376zm11.47.042c-.963-.252-2.538-.252-3.5 0-.963.251-.175.457 1.75.457s2.712-.206 1.75-.457zm9 0c-.963-.252-2.538-.252-3.5 0-.963.251-.175.457 1.75.457s2.712-.206 1.75-.457zm21.04-.049c-3.142-.198-8.542-.2-12-.004-3.46.196-.89.358 5.71.36 6.6.002 9.43-.158 6.29-.356zm21.96.022c-1.512-.23-3.987-.23-5.5 0-1.512.229-.275.416 2.75.416s4.263-.187 2.75-.416zm31.04-.022c-3.142-.198-8.542-.2-12-.004-3.46.196-.89.358 5.71.36 6.6.002 9.43-.158 6.29-.356zm17.628.131c.87-.334 1.546-1.571 1.503-2.75-.053-1.44-.255-1.65-.615-.643-.295.825-1.245 2.062-2.112 2.75-1.714 1.36-1.261 1.597 1.224.643zm-1.638-15.643l.28-12.75H12l-.077 4.5c-.042 2.475-.077 6.3-.077 8.5s.035 6.04.077 8.532l.077 4.533 108.25-.283 108.25-.282zM25 395.022c0-.995.658-2.06 1.462-2.37.805-.308 2.836-3.281 4.515-6.606 3.897-7.72 6.763-7.835 9.006-.36l.845 2.814.086-2.595c.144-4.35 2.739-5.67 12.586-6.402 7.008-.521 9.415-.357 10.877.743 1.56 1.175 1.681 1.777.714 3.583-.639 1.194-1.628 2.171-2.198 2.171-1.524 0-3.893 2.632-3.893 4.326 0 1.02.991 1.424 3.25 1.321 2.851-.129 3.29.193 3.568 2.623l.319 2.77-20.569-.105C26.435 396.837 25 396.703 25 395.022zm6.58-1.458c.835-.837 1.035-1.684.478-2.028-.527-.326-1.446.32-2.043 1.436-1.264 2.362-.496 2.652 1.564.592zm16.353.216c-1.872-.693-2.078-1.43-1.775-6.335.338-5.493.323-5.528-1.465-3.317-1.095 1.354-1.687 3.445-1.5 5.304.485 4.842-1.435 4.32-4.636-1.262l-2.943-5.13-1.8 2.73c-2.263 3.43-2.403 5.517-.156 2.308 1.583-2.26 1.718-2.284 3-.531 1.602 2.19 1.771 5.453.283 5.453-.582 0-.788.438-.457.974.33.535 3.519.887 7.085.781 4.437-.131 5.814-.439 4.364-.975zm9.817.14c-2.16-1.258-2.315-6.206-.25-7.92 2.224-1.846 1.82-4-.75-4.001-2.104-.001-2.228.358-1.906 5.531.19 3.043-.035 5.465-.5 5.383-2.034-.361-3.413.166-2.844 1.087.34.55 2.279.986 4.309.97 2.993-.025 3.36-.224 1.941-1.05zm5.777.124c-.325-.526-1.252-.703-2.059-.393-2.067.793-1.824 1.349.591 1.349 1.132 0 1.793-.43 1.468-.956zm-21.405-3.719c-1.179-2.027-1.463-1.378-.498 1.136.342.894.834 1.415 1.091 1.157.258-.257-.01-1.29-.593-2.293zm9.296.068c.87-.334 1.582-1.485 1.582-2.559 0-1.101-.455-1.67-1.044-1.307-.574.355-1.699.101-2.5-.563-1.222-1.015-1.456-.707-1.456 1.914 0 3.17.586 3.602 3.418 2.515zm.851-8.049c-.677-.274-2.027-.29-3-.037-.973.253-.419.478 1.231.498 1.65.02 2.446-.187 1.769-.461zm21.052 13.418c-4.804-2.214-5.387-10.518-1.02-14.53 1.947-1.788 3.345-1.99 12.199-1.759 5.5.144 10.338.321 10.75.394 1.908.338.416 4.06-2.75 6.864-3.978 3.522-4.08 3.832-1.955 5.956.85.85 1.374 2.055 1.167 2.68-.484 1.451-15.402 1.772-18.39.395zm5.408-1.366c-.332-.332-1.195-.368-1.916-.08-.798.32-.561.557.604.605 1.054.043 1.644-.193 1.312-.525zm9.521-.058C86.773 393.742 86.543 387 88 387c.55 0 1-.9 1-2 0-2.188 2.528-2.757 3.338-.75.301.747.536.545.583-.5.067-1.487-.86-1.752-6.171-1.764-3.438-.008-7.375-.27-8.75-.582l-2.5-.57 2.5 1.379c2.195 1.21 2.494 2.03 2.45 6.718-.04 4.184.156 4.878.903 3.204 1.377-3.086 4.008-2.804 3.402.365-.413 2.164-.127 2.49 2.134 2.421 1.436-.043 2.048-.306 1.361-.583zm-13.49-6.588c.121-5.863.042-6.095-1.28-3.75-.775 1.375-1.425 3.317-1.445 4.316-.031 1.633 1.618 5.684 2.315 5.684.153 0 .338-2.813.41-6.25zm3.748.115c-.597-4.721-1.508-4.705-1.508.027 0 2.411.408 3.974.949 3.64.522-.323.774-1.973.56-3.667zm22.85 7.626c-.343-.894-.114-2.135.51-2.758 1.76-1.761 1.38-7.83-.58-9.265-1.448-1.058-1.506-1.5-.378-2.86 1.115-1.343 3.74-1.608 15.925-1.608h14.59l2.34 2.75c1.709 2.008 2.066 2.178 1.323.631-.56-1.165-.733-2.402-.386-2.75.347-.347 5.295-.631 10.996-.631 8.33 0 10.479.297 10.945 1.513.77 2.006-1.582 4.736-3.62 4.203-1.358-.355-1.53.238-1.07 3.68.3 2.257.997 4.063 1.547 4.012.55-.05 2.451-3.088 4.225-6.75 3.695-7.627 6.19-8.692 8.32-3.55l1.287 3.107 1.36-2.595c1.661-3.172 3.98-3.815 12.339-3.423 5.84.273 6.435.497 6.12 2.303-1.035 5.946-1.194 10.903-.306 9.604.524-.767 1.674-1.119 2.554-.781 1.275.49 1.601-.08 1.601-2.795 0-1.876-.45-3.688-1-4.028-.55-.34-1-1.491-1-2.559 0-1.79.767-1.941 9.878-1.941 11.344 0 11.906.336 12.757 7.644.5 4.295.273 5.129-1.97 7.22-2.507 2.337-2.76 2.36-22.85 2.184-11.173-.099-21.665-.209-23.315-.245-1.65-.036-6.938.253-11.75.644l-8.75.709v-2.578c0-1.418.392-2.578.872-2.578s.825-1.769.769-3.93c-.079-2.982-.4-3.686-1.328-2.914-.674.559-1.695.726-2.27.371-.675-.418-1.043 1.271-1.043 4.797 0 4.549-.32 5.526-1.943 5.95-1.155.303-2.638-.258-3.656-1.383-1.677-1.854-1.74-1.852-3.113.108-1.166 1.665-2.524 1.998-8.095 1.986-8.107-.019-10.253-1.02-8.443-3.94 2.852-4.603.762-7.33-4.168-5.438-1.707.655-2.16 3.918-.671 4.838.5.31.798 1.349.66 2.309-.354 2.457-8.309 3.093-9.213.737zm6.142-6.075c0-4.393.425-5.908 2-7.131 1.747-1.358 1.769-1.474.168-.92-1.007.35-2.582.635-3.5.635-1.386 0-1.668 1.098-1.668 6.5 0 5.112.32 6.5 1.5 6.497 1.154-.002 1.5-1.29 1.5-5.58zm17.866 4.8c.267-.43-.72-.768-2.19-.75-2.089.027-2.752-.502-3.021-2.41-.207-1.464.335-2.94 1.35-3.683.981-.718 1.377-1.754.94-2.461-.466-.756-.338-.964.339-.545.601.371 1.458.057 1.905-.7.446-.755 1.486-1.665 2.311-2.02.825-.356-1.875-.434-6-.175-4.125.26-7.763.485-8.083.5-.321.016-.584.676-.584 1.467 0 1.247.38 1.244 2.834-.025l2.833-1.465v5.952c0 4.828.33 6.039 1.75 6.41 2.933.766 5.107.73 5.616-.095zm23.466-.214c.367 0 .517-2.666.333-5.926-.33-5.838-.293-5.933 2.5-6.352 1.56-.233-.09-.424-3.665-.424s-5.263.187-3.75.416c2.37.36 2.75.88 2.75 3.769 0 1.843.25 4.005.558 4.804.306.8-.256 2.273-1.25 3.276-1.744 1.759-1.743 1.799.024 1.13 1.007-.383 2.132-.694 2.5-.693zm15.085-1.646c.229-.196-.746-.356-2.167-.356-1.42 0-2.767-.55-2.991-1.224-.225-.674-.665-.244-.978.954-.517 1.977-.28 2.123 2.575 1.58 1.73-.328 3.331-.758 3.56-.954zm11.083.7c-2.074-.528-2.595-1.396-3.06-5.096-.411-3.285-.769-3.998-1.357-2.708-.44.964-.527 2.836-.194 4.161 1.121 4.468-2.682 2.234-5.368-3.152l-2.521-5.055-1.793 3.521c-.986 1.937-1.59 3.724-1.341 3.972.248.249.756-.507 1.128-1.679 1.238-3.9 3.14-1.777 5.097 5.693.207.792 2.328 1.172 6.113 1.095 3.795-.076 4.933-.336 3.296-.752zm9.5-5.556c0-5.11-.32-6.5-1.5-6.502-1.214-.002-1.436 1.237-1.165 6.5.458 8.867 2.665 8.869 2.665.002zm10.676 2.885c-.232-1.988.067-3.917.664-4.286 1.586-.98.208-5.099-1.707-5.099-1.343 0-1.633 1.153-1.633 6.5 0 5.203.31 6.5 1.55 6.5 1.19 0 1.45-.836 1.126-3.615zm11.074 2.953c-1.508-.609-1.652-2.972-.225-3.68.564-.28.494-.406-.154-.282-.65.125-1.546 1.216-1.993 2.425-.688 1.858-.47 2.187 1.404 2.12 1.22-.043 1.655-.306.968-.583zm-68.649-8.77c-.244-.588-.479-.28-.522.682-.117 2.589-1.61 2.143-5.024-1.5l-3.046-3.25.112 5.5c.06 3.025.317 4.713.568 3.75.673-2.574 2.829-2.133 4.893 1l1.813 2.75.825-3.933c.454-2.163.625-4.413.381-5zm-12.202 5.755c1.297.498 1.588-.091 1.533-3.104-.065-3.602-.104-3.64-1.221-1.219-.635 1.375-1.73 2.86-2.432 3.3-.704.44-1.272 1.34-1.264 2 .01.79.317.724.9-.196.485-.767 1.604-1.119 2.484-.781zM180 388.5c0-.697-.787-1.545-1.75-1.884-.963-.34-2.313-.88-3-1.2-.816-.38-1.25.257-1.25 1.834 0 1.33.236 2.652.523 2.94.975.975 5.477-.414 5.477-1.69zm21.523 1.023c1.258-.395 1.307-.822.285-2.459-1.218-1.95-1.264-1.952-3.023-.064-2.176 2.336-2.322 4.105-.285 3.469l3.023-.946zm6.423-7.088c-1.576-1.899-3.86-1.824-4.617.15-.385 1.003.456 2.568 2.281 4.25l2.89 2.665.318-2.815c.175-1.549-.217-3.461-.872-4.25zm-29.291.108c-.625-1.629-5.166-2.144-6.066-.687-.29.47.577.644 1.929.385 1.672-.32 2.66.06 3.093 1.188.35.911.861 1.432 1.136 1.157.275-.275.234-1.194-.092-2.043zm21.33-.852c-.01-.716-.403-.592-.985.309-.798 1.235-.972 1.25-.985.083-.008-.779-.285-1.146-.615-.816-.898.898.593 2.855 1.67 2.19.511-.316.923-1.111.915-1.766zM138.5 382c.34-.55.141-1-.441-1s-1.059.45-1.059 1 .198 1 .441 1 .72-.45 1.059-1zm93.193-8.731c-.254-.973-.478-.419-.498 1.231-.02 1.65.187 2.446.46 1.769.275-.677.292-2.027.038-3zM228.458 249c-.023-67.375-.15-148.262-.281-179.75l-.24-57.25H10l.116 46.75c.064 25.712.334 45.85.6 44.75 1.332-5.506 7.989-9.5 15.833-9.5 10.13 0 15.764 4.708 17.074 14.267.501 3.655.168 5.332-1.729 8.708l-2.35 4.18 2.228 3.87c3.503 6.086 2.995 9.66-2.022 14.253l-4.25 3.89 4.663 4.937c2.67 2.826 5.342 6.929 6.25 9.594 3.232 9.484 1.094 20.397-4.922 25.13-2.315 1.82-2.457 2.173-.876 2.18 5.882.031 17.062 8.308 19.324 14.306 2.406 6.384.785 14.325-3.498 17.132l-2.251 1.475 3.334 3.535c2.142 2.271 3.895 3.32 4.905 2.932.864-.332 1.571-1.023 1.571-1.536 0-2.869 11.842-13.412 16.833-14.988.812-.256-1.019-2.466-4.676-5.647C58.476 186.839 49.686 160 54.961 137.5c3.296-14.06 8.954-24.446 18.515-33.987C82.23 94.777 88.82 90.756 101.5 86.41c7.021-2.407 9.53-2.746 20.5-2.77 14.504-.034 21.143 1.637 34.29 8.63 14.48 7.701 27.657 24.387 32.398 41.026.816 2.862 1.647 10.829 1.848 17.704.2 6.875.67 14.398 1.042 16.718.649 4.043.763 4.157 2.772 2.75 4.15-2.908 11.65-1.01 11.65 2.946 0 .932-1.09 5.607-2.422 10.39-1.333 4.783-2.75 10.94-3.15 13.683-.4 2.742-2.202 7.692-4.005 11-1.804 3.307-3.607 7.813-4.006 10.013-1.68 9.252-21.65 24.4-34.397 26.092-2.974.394-6.837 1.839-9.324 3.486-2.336 1.547-6.462 3.31-9.17 3.916-2.709.607-8.322 2.582-12.475 4.389-4.153 1.807-11.376 4.31-16.051 5.564-4.675 1.254-10.3 2.874-12.5 3.6-2.2.727-7.172 2.243-11.049 3.37l-7.048 2.048.42 6.586c.307 4.832-.045 7.614-1.322 10.446-1.692 3.753-1.682 3.94.367 6.818 3.027 4.25 3.088 11.033.138 15.176C75.492 316.331 63.25 319.25 59 315c-2.563-2.563-2.54-4.64.064-6.034 2.349-1.257 4.936.2 4.936 2.781 0 1.16.743 1.358 3.25.866 4.072-.797 7.749-3.466 9.948-7.22 1.544-2.637 1.56-3.184.168-6.057l-1.53-3.159-5.584 3.912c-8.355 5.852-16.35 5.381-18.486-1.089-.755-2.285 1.06-5 3.34-5 1.634 0 1.973.545 1.716 2.75-.256 2.185.125 2.814 1.851 3.06 2.609.371 9.086-2.778 11.732-5.704 1.048-1.158 2.548-2.106 3.333-2.106.786 0 1.239-.563 1.007-1.25-.233-.688.18-2.698.916-4.468 3.125-7.51-.019-17.782-7.507-24.532-4.575-4.124-6.945-4.588-10.74-2.101-1.895 1.241-2.8 1.365-3.665.5-2.131-2.131-6.555-1.258-10.302 2.032-3.175 2.787-3.564 3.622-3.148 6.75.26 1.963.803 4.581 1.204 5.819.592 1.825.354 2.25-1.264 2.25-2.714 0-4.03-1.836-4.809-6.711-.516-3.228-.183-4.957 1.55-8.04 3.438-6.117 6.74-7.524 18.447-7.861 9.531-.275 10.282-.146 13.963 2.394 2.14 1.476 5.012 4.38 6.383 6.451 2.831 4.278 2.845 4.282 7.957 2.319 2.073-.797 10.51-3.333 18.75-5.636 8.238-2.304 18.494-5.693 22.79-7.532 4.296-1.838 10.317-3.997 13.38-4.797 3.102-.81 6.174-2.319 6.936-3.406.752-1.074 2.503-2.237 3.89-2.586 1.388-.348 2.524-1.31 2.524-2.14 0-.9 2.947-2.849 7.333-4.847 11.084-5.052 20.257-11.619 19.874-14.228-.36-2.447 3.688-4.144 4.992-2.092.583.917.774.89.786-.114.008-.729 1.816-4.409 4.017-8.178 2.202-3.77 4.712-9.623 5.58-13.008 1.458-5.694 1.45-6.294-.099-8.007-1.571-1.736-1.54-2.211.496-7.654 1.194-3.191 2.642-6.37 3.218-7.065 1.695-2.041-.474-1.377-3.341 1.024-3.977 3.33-6.848 8.762-6.852 12.964-.003 2.567-.66 4.302-2.083 5.5-5.83 4.907-9.806 9.414-10.097 11.444-.317 2.219-1.844 3.033-8.01 4.272-1.718.345-3.7 2.07-5.5 4.787-4.2 6.339-11.97 9.89-23.663 10.817-10.742.852-11.602 1.128-18.104 5.823-4.25 3.067-5.742 3.578-10.5 3.591-4.271.012-5.547-.33-5.547-1.484 0-1.03 1.407-1.67 4.5-2.041 2.893-.348 6.52-1.894 10.159-4.331 5.111-3.424 6.709-3.92 16.514-5.13 14.17-1.751 17.116-2.477 14.953-3.688-2.568-1.437-1.908-2.656 1.624-2.997 2.988-.288 3.25-.595 3.25-3.813v-3.5h-5c-4.738 0-5.017.148-5.322 2.81-.177 1.546.273 3.532 1 4.413 1.046 1.268 1.06 1.69.066 2.025-.691.233-1.002.834-.691 1.337.31.503.099.915-.471.915-2.023 0-4.214-4.823-3.897-8.58.26-3.079.742-3.796 2.754-4.099 1.342-.201 2.692-.623 3-.938.75-.763-4.472.199-9.439 1.739-2.502.775-8.68 1.148-16.5.995-6.875-.135-15.65-.31-19.5-.388-13.017-.264-27.77 6.757-33.02 15.715-1.483 2.53-3.548 5.057-4.588 5.614-1.392.745-1.896 2.126-1.907 5.227-.008 2.318-.665 5.34-1.46 6.715-2.013 3.478-2.275 4.123-2.97 7.285-.691 3.152-4.612 5.168-8.266 4.251-1.745-.438-2.289-1.283-2.289-3.555 0-2.93 1.285-3.948 2.5-1.981.34.55 1.379.948 2.309.884 1.525-.105 1.519-.161-.059-.573-2.502-.654-2.277-4.311.265-4.311 2.079 0 5.98-5.221 5.976-8-.004-3.24-2.222-9.231-4.121-11.13-1.495-1.495-2.741-1.838-4.935-1.356-2.288.503-2.935.294-2.935-.948 0-.876-.55-2.472-1.22-3.547-1.209-1.935-1.24-1.935-3.345.042-2.732 2.567-10.942 3.587-15.845 1.969-2.437-.805-4.57-2.554-6.298-5.166-3.057-4.619-5.632-4.768-6.129-.355-.185 1.645-.972 3.35-1.75 3.79-1.969 1.115-1.816 9.049.258 13.42 1.777 3.744 6.283 6.367 9.495 5.527 2.179-.57 5.834-4.88 5.834-6.88 0-1.582-3.526-5.366-5-5.366-.55 0-1 .9-1 2 0 2.79-3.662 2.64-4.56-.188-.881-2.778 2.75-5.998 6.083-5.394C28.34 222.473 31 225.58 31 231.323c0 4.233-2.64 7.681-7.123 9.303-2.6.94-2.872 1.24-1.184 1.298 2.394.083 5.307 3.508 5.307 6.24 0 3.65-3.863 3.347-5.521-.433-.584-1.331-2.037-2.354-3.602-2.535-2.045-.237-3.313.567-5.755 3.65-2.914 3.68-3.124 4.476-3.019 11.467.082 5.409.634 8.37 1.974 10.573 2.238 3.68 6.731 5.208 8.104 2.755 1.378-2.462 4.819-2.106 4.819.499 0 1.177.787 2.721 1.75 3.432 2.023 1.495.905 3.224-2.509 3.881-6.332 1.22-11.246 8.623-11.232 16.923.013 7.63 4.99 17.016 11.456 21.6 4.488 3.182 5.609 3.52 11.667 3.522 5.661.002 7.09-.363 9.209-2.351 1.604-1.505 2.445-3.307 2.333-5-.145-2.203.245-2.647 2.326-2.647 2.066 0 2.553.54 2.803 3.11.236 2.427-.46 3.895-3.175 6.691-8.614 8.87-23.229 6.776-33.405-4.785-2.186-2.484-4.23-4.516-4.54-4.516-.478 0-.931 14.091-.66 20.5.047 1.1.206 9.65.354 19 .147 9.35.348 17.34.446 17.754.097.415 48.89.64 108.427.5l108.25-.254zm-99.537-32.677c-.045-1.05-.293-1.293-.583-.573-.71 1.76-3.007 1.556-3.731-.332-.861-2.243-.792-2.418.952-2.418.925 0 1.296.508.913 1.25-.355.688.236.167 1.313-1.156 2.581-3.17 5.478-2.225 5.032 1.642-.366 3.175-3.767 4.56-3.896 1.587zm102.762 139.49c-.32-.798-.556-.561-.604.604-.043 1.054.193 1.644.525 1.312.332-.332.368-1.195.08-1.916zM8.733 341.75c-.211-2.337-.384-.425-.384 4.25s.173 6.588.383 4.25c.21-2.337.21-6.162 0-8.5zm0-21c-.211-2.337-.384-.425-.384 4.25s.173 6.588.383 4.25c.21-2.337.21-6.162 0-8.5zm30.029 5.563c-.956-.25-2.756-.26-4-.02-1.244.239-.462.444 1.738.455 2.2.01 3.218-.185 2.262-.435zM28 324.607c0-.216-.698-.661-1.552-.989-.89-.341-1.291-.173-.94.393.586.95 2.492 1.406 2.492.596zM48.5 322c.995-1.1 1.585-2 1.31-2-.275 0-1.315.9-2.31 2-.995 1.1-1.585 2-1.31 2 .275 0 1.315-.9 2.31-2zm1.668-6.232c-.742-.742-.872-.351-.437 1.312.354 1.352.807 1.806 1.057 1.057.24-.722-.038-1.787-.62-2.369zm16.561-.372c-.332-.332-1.195-.368-1.916-.08-.798.32-.561.557.604.605 1.054.043 1.644-.193 1.312-.525zM63 314.607c0-.216-.698-.661-1.552-.989-.89-.341-1.291-.173-.94.393.586.95 2.492 1.406 2.492.596zM10.5 305.5c.55 0 .848-.45.662-1-1.195-3.536-.783-9.647.915-13.563 1.305-3.011 1.435-3.794.404-2.437-.835 1.1-2.185 2.793-3 3.761-1.122 1.334-1.445 4.247-1.33 12 .104 7.155.33 8.884.75 5.739.33-2.475 1.049-4.5 1.599-4.5zm1.183 5.313c-.32-.798-.556-.561-.604.604-.043 1.054.193 1.644.525 1.312.332-.332.368-1.195.08-1.916zM77.5 310c.995-1.1 1.585-2 1.31-2-.275 0-1.315.9-2.31 2-.995 1.1-1.585 2-1.31 2 .275 0 1.315-.9 2.31-2zm-64.378-1.675c-1.179-2.027-1.463-1.378-.498 1.136.342.894.834 1.415 1.091 1.157.258-.257-.01-1.29-.593-2.293zm67.571-7.056c-.254-.973-.478-.419-.498 1.231-.02 1.65.187 2.446.46 1.769.275-.677.292-2.027.038-3zM69 298.429c0-.274-.9-.018-2 .571s-2 1.295-2 1.57c0 .275.9.019 2-.57s2-1.295 2-1.57zM72.5 296c.995-1.1 1.585-2 1.31-2-.275 0-1.315.9-2.31 2-.995 1.1-1.585 2-1.31 2 .275 0 1.315-.9 2.31-2zm6.5.622c0-.207-.787-.995-1.75-1.75-1.586-1.243-1.621-1.208-.378.378 1.307 1.666 2.128 2.195 2.128 1.372zM14.465 282l2.35-2.5-3.162-1.503-3.163-1.503-.175 6.503c-.14 5.182.025 5.995.812 4.003.543-1.375 2.045-3.625 3.338-5zm8.061-2.807c-.307-.308-1.114 0-1.793.683-.98.988-.865 1.102.56.56.986-.376 1.541-.935 1.233-1.243zM16 276.607c0-.216-.698-.661-1.552-.989-.89-.341-1.291-.173-.94.393.586.95 2.492 1.406 2.492.596zm-4-1.952c0-.19-.9-1.16-2-2.155-1.727-1.563-2-1.594-2-.228 0 .87.787 1.787 1.75 2.039.963.251 1.863.51 2 .573.138.064.25-.04.25-.229zm25.69-7.405c-.252-.963-.458-.175-.458 1.75s.206 2.712.457 1.75c.252-.963.252-2.538 0-3.5zM79 269.607c0-.216-.698-.661-1.552-.989-.89-.341-1.291-.173-.94.393.586.95 2.492 1.406 2.492.596zm6.73-2.211c-.333-.332-1.196-.368-1.917-.08-.798.32-.561.557.604.605 1.054.043 1.644-.193 1.312-.525zM74 263.687c0-.172-1.462-1.635-3.25-3.25L67.5 257.5l2.937 3.25c2.738 3.03 3.563 3.71 3.563 2.937zm39.917-4.328c1.003-.865-3.567-.227-4.917.687-1.095.741-.69.834 1.5.344 1.65-.37 3.188-.833 3.417-1.03zm-57.188-1.963c-.332-.332-1.195-.368-1.916-.08-.798.32-.561.557.604.605 1.054.043 1.644-.193 1.312-.525zm-4.979-1.085c-.963-.252-2.538-.252-3.5 0-.963.251-.175.457 1.75.457s2.712-.206 1.75-.457zm.98-5.915c-.333-.332-1.196-.368-1.917-.08-.798.32-.561.557.604.605 1.054.043 1.644-.193 1.312-.525zm-37.414-7.323c-.185-.235-1.6.784-3.146 2.264-1.545 1.48-3.115 2.385-3.49 2.01-.374-.374-.68.122-.68 1.102 0 1.435.748 1.125 3.827-1.583 2.105-1.851 3.675-3.558 3.49-3.793zm9.132 1.87c-.967-1.069-2.476-1.914-3.353-1.88-.995.04-.714.417.75 1.003 1.289.517 2.605 1.939 2.925 3.16.329 1.26.766 1.667 1.008.94.235-.705-.364-2.156-1.33-3.224zm121.045 3.068c.35-.566-.051-.734-.941-.393-1.732.665-2.05 1.382-.611 1.382.518 0 1.216-.445 1.552-.989zm-89.83-3.261c-.278-.688-.505-.125-.505 1.25s.227 1.938.504 1.25c.278-.688.278-1.813 0-2.5zm96.254-1.385c1.372-1.201-1.883-.086-3.476 1.19-1.83 1.467-1.798 1.487.559.365 1.375-.655 2.688-1.355 2.917-1.555zM12.428 239.57c-1.081-.79-1.43-1.76-.926-2.574.533-.863.416-1.064-.347-.592-.635.392-1.155 2.486-1.155 4.654V245l2.08-2.08c1.954-1.954 1.975-2.159.348-3.349zm150.449 1.877c1.582-.304 4.37-1.654 6.194-3 1.825-1.347 3.947-2.448 4.716-2.448 1.87 0 6.503-3.703 5.449-4.354-1.05-.65-3.46.791-3.246 1.94.088.476-.436 1.022-1.165 1.215-1.055.28-1.048.157.032-.6 1.014-.71 1.058-1.135.176-1.68-.665-.411-2.24.264-3.603 1.545-1.332 1.251-2.713 1.984-3.07 1.628-.355-.356.09-.93.991-1.275.9-.346 1.346-1.1.989-1.678-.406-.657-.16-.748.66-.241.921.57 1.07.421.5-.5-.57-.921-.421-1.07.5-.5.867.536 1.068.418.595-.347-.514-.831-1.392-.664-3.123.596-1.325.963-2.423 2.115-2.44 2.56-.018.445-.594.471-1.282.058-.72-.433-.615.035.25 1.105 1.403 1.736 1.36 1.78-.678.695-2.312-1.232-5.687-.567-4.757.938.304.492 1.003.895 1.553.895s.722-.45.382-1c-.34-.55-.25-1 .2-1s1.325.81 1.943 1.8c.946 1.514.786 1.823-1.01 1.943-1.173.078-3.483.418-5.133.755-2.905.592-2.928.569-.719-.745 1.255-.746 2.017-1.622 1.693-1.946-.709-.708-4.442.161-4.55 1.06-.043.348-.232 1.448-.421 2.445-.287 1.51.143 1.718 2.576 1.25 1.607-.31 4.216-.81 5.798-1.114zm-141.608-2.104c-.677-.274-2.027-.29-3-.037-.973.254-.419.478 1.231.498 1.65.02 2.446-.187 1.769-.461zM16 238.607c0-.216-.698-.661-1.552-.989-.89-.341-1.291-.173-.94.393.586.95 2.492 1.406 2.492.596zm11.128-2.357c1.243-1.586 1.208-1.621-.378-.378-.963.755-1.75 1.543-1.75 1.75 0 .823.821.294 2.128-1.372zm33.555-2.438c-.32-.797-.556-.56-.604.605-.043 1.054.193 1.644.525 1.312.332-.332.368-1.195.08-1.917zm-52-1c-.32-.797-.556-.56-.604.605-.043 1.054.193 1.644.525 1.312.332-.332.368-1.195.08-1.917zM28.3 226.9c-.466-.466-.622 1.054-.348 3.377.487 4.12.508 4.14.847.847.191-1.858-.033-3.758-.5-4.224zm150.938 3.309c.695.237 3.288-1.558 5.763-3.989 2.475-2.43 3.861-4.076 3.08-3.655-1 .538-1.253.33-.858-.7.394-1.027-.133-1.464-1.766-1.464-1.28 0-2.1.367-1.822.816.277.45.923.558 1.435.241.512-.316.931-.05.931.592 0 .745-.996.962-2.75.6l-2.75-.567 2.75 1.26c2.139.978 2.483 1.525 1.55 2.458-1.532 1.532-3.144 1.566-2.205.045.446-.72.274-.882-.457-.43-.644.398-.91 1.145-.59 1.661.898 1.454-2.533 2.34-3.865.998-.914-.921-.728-1.044.817-.539 1.52.497 1.66.412.582-.354-1.45-1.029-6.082 1.142-6.082 2.85 0 1.311 2.404 1.776 3.737.723.68-.538 1.806-.784 2.5-.546zM60 229.167c0-1.009-1.614-3.596-3.586-5.75l-3.586-3.917 3.086 3.978c1.697 2.188 3.086 4.775 3.086 5.75 0 .975.225 1.772.5 1.772s.5-.825.5-1.833zm62.128-1.917c1.243-1.586 1.208-1.621-.378-.378-.963.755-1.75 1.543-1.75 1.75 0 .823.821.294 2.128-1.372zm-57.533-1.5l1.905-2.25-2.5 1.99c-1.375 1.093-2.688 2.106-2.917 2.25-.229.143.039.26.595.26.557 0 1.87-1.012 2.917-2.25zm-41.345-2.412c-.688-.278-1.813-.278-2.5 0-.688.277-.125.504 1.25.504s1.938-.227 1.25-.504zm116.478-.068c-2.075-.216-5.225-.213-7 .008-1.776.221-.078.398 3.772.394 3.85-.004 5.302-.185 3.228-.402zM151 221c1.828-1.181.25-1.181-2.5 0-1.319.567-1.49.878-.5.914.825.03 2.175-.38 3-.914zm-80.437-3.25l2.937-3.25-3.25 2.937c-3.03 2.738-3.71 3.563-2.937 3.563.172 0 1.635-1.462 3.25-3.25zm-18.992.4c0-1.337-.536-1.71-1.933-1.345-1.868.488-1.871.551-.095 1.85 1.012.74 1.882 1.345 1.934 1.345.052 0 .094-.833.094-1.85zm105.346-.867c.229-.156-.286-.283-1.143-.283-.858 0-1.843.739-2.19 1.641-.548 1.43-.4 1.466 1.143.283a89.913 89.913 0 0 1 2.19-1.641zm-120.188 1.113c-.332-.332-1.195-.368-1.916-.08-.798.32-.561.557.604.605 1.054.043 1.644-.193 1.312-.525zm153.06-1.138c.737-.684 1.046-1.716.689-2.294-.358-.578-.049-1.82.686-2.758 1.155-1.475 1.133-1.547-.164-.533-2.37 1.854-5.387 7.426-3.844 7.1.713-.15 1.898-.832 2.634-1.515zM36.533 215.55c2.672-1.117 3.468-2.034 3.468-4 0-1.403-.45-2.551-1-2.551s-.887.552-.75 1.226c.138.675-.762 1.381-2 1.57-1.814.277-2.25-.131-2.25-2.104 0-1.346.632-2.972 1.404-3.613 3.325-2.759 10.514 2.455 9.18 6.658-.488 1.536-.054 1.817 2.667 1.723 11.925-.41 13.127-13.047 1.946-20.453-7.141-4.73-11.2-5.623-16.293-3.585-8.494 3.398-11.812 7.43-11.869 14.424-.043 5.378 2.847 9.77 7.274 11.05 4.407 1.275 4.338 1.278 8.223-.345zm-26.249-1.255c-.289-.754.259-2.237 1.218-3.297 1.694-1.872 1.669-1.892-.871-.712-2.782 1.29-3.713 5.38-1.225 5.38.778 0 1.17-.611.878-1.37zm134.062.16c-.326-.848-.807-1.328-1.069-1.066-.262.262-.18.957.183 1.543.986 1.596 1.562 1.286.886-.476zm16.655-1.65c0-.522-.675-.274-1.5.551-.825.825-1.5 1.812-1.5 2.194 0 .382.675.134 1.5-.551s1.5-1.672 1.5-2.194zm-103.872.444c1.243-1.586 1.208-1.621-.378-.378-.963.755-1.75 1.543-1.75 1.75 0 .823.821.294 2.128-1.372zm-14.445-2.438c-.32-.797-.556-.56-.604.605-.043 1.054.193 1.644.525 1.312.332-.332.368-1.195.08-1.917zm-23.976-6.05c-.239-1.244-.444-.462-.455 1.738-.01 2.2.185 3.218.435 2.262s.26-2.756.02-4zm21.335 3.539c1.552.406 1.925.266 1.208-.45-1.407-1.408-4.49-.698-4.993 1.149-.34 1.246-.245 1.264.565.107.592-.848 1.853-1.164 3.22-.806zm120.6.377c1.375 1.707 1.404 1.688.448-.297-.56-1.165-.923-2.29-.805-2.5.118-.21.043-.284-.166-.166-.21.118-1.335-.275-2.5-.873-1.745-.895-1.898-.853-.869.236.688.727 1.302 2.245 1.366 3.372.101 1.787.176 1.816.587.228.456-1.762.52-1.762 1.94 0zm-143.607-7.345c1.88-9.062 8.642-15.168 17.165-15.501l4.3-.168-3.75-.392c-2.91-.305-3.75-.827-3.75-2.332 0-1.46.696-1.94 2.809-1.94 3.44 0 5.388-1.443 8.1-6 5.493-9.228-1.435-25.213-12.511-28.869-3.563-1.175-4.48-1.14-7.225.28-3.393 1.754-5.171 5.99-3.3 7.862 1.898 1.898 1.257 3.727-1.306 3.727-2.337 0-3.275-1.355-4.065-5.874-.156-.894.487-2.978 1.429-4.631 1.704-2.99 1.696-3.02-1.49-6L10.24 138.5l-.097 34.573-.097 34.574 2.928-.43c2.65-.389 3.036-.947 4.06-5.884zm156.336 4.668c.479-.463-1.083-.404-3.472.133-2.388.537-4.58 1.236-4.87 1.553-.835.913 7.37-.745 8.342-1.686zM195 206c.589-1.1.845-2 .57-2s-.981.9-1.57 2c-.589 1.1-.845 2-.57 2s.981-.9 1.57-2zm-77.75.338c-.688-.278-1.813-.278-2.5 0-.688.277-.125.504 1.25.504s1.938-.227 1.25-.504zm12 0c-.688-.278-1.813-.278-2.5 0-.688.277-.125.504 1.25.504s1.938-.227 1.25-.504zm6.48-.942c-.333-.332-1.196-.368-1.917-.08-.798.32-.561.557.604.605 1.054.043 1.644-.193 1.312-.525zm32.983-.446c1.656-.577 3.503-2.128 4.103-3.446.6-1.318 2.706-4.183 4.679-6.366 1.972-2.184 3.167-4.229 2.655-4.545-.512-.317-1.667.547-2.566 1.92-.9 1.372-4.108 4.968-7.131 7.99-3.023 3.024-5.329 5.497-5.124 5.497.205 0 1.728-.472 3.384-1.05zM83 204.622c0-.207-.787-.995-1.75-1.75-1.586-1.243-1.621-1.208-.378.378 1.307 1.666 2.128 2.195 2.128 1.372zm9.332-.704c1.774-.066 1.578-.34-1.082-1.502-1.788-.782-6.605-4.609-10.706-8.504-5.87-5.576-8.314-8.831-11.488-15.298-2.218-4.519-4.488-10.617-5.044-13.551-1.33-7.009-1.29-20.615.079-27.264 1.746-8.481 7.526-19.142 14.402-26.564 21.325-23.019 57.323-25.573 81.453-5.78 16.69 13.691 24.203 33.207 21.257 55.22-1.67 12.483-7.258 23.438-16.873 33.075-3.978 3.987-8.043 7.296-9.032 7.352-.989.057-.24.47 1.663.917 3.134.738 3.92.43 8.324-3.258 4.92-4.118 12.73-14.924 16.09-22.261 4.753-10.376 6.34-23.982 4.109-35.227-9.44-47.567-63.197-68.927-101.765-40.435-24.144 17.837-32.362 51.029-19.25 77.748 1.914 3.898 5.378 9.473 7.7 12.39 5.03 6.316 14.79 14.241 16.663 13.53.732-.278 2.307-.543 3.5-.588zm4.792-1.185c-.988-.98-1.102-.865-.56.56.376.986.935 1.541 1.243 1.233.308-.307 0-1.114-.683-1.793zm8.626 1.578c-.963-.252-2.538-.252-3.5 0-.963.251-.175.457 1.75.457s2.712-.206 1.75-.457zm28.47-1.215c5.806-1.047 12.52-2.785 14.919-3.862 8.936-4.01 19.834-16.39 24.854-28.234 2.843-6.704 3.975-24.068 2.07-31.717-6.15-24.674-29.154-42.526-54.63-42.393-25.84.135-49.522 20.465-53.469 45.902-2.814 18.137 2.074 33.219 15.014 46.33 8.075 8.182 14.835 12.265 22.022 13.299 2.475.356 6.075 1.036 8 1.51 5.56 1.372 9.934 1.2 21.22-.835zm4.78-19.653c-4.125-3.033-9.627-6.89-12.226-8.568l-4.727-3.053-11.168 8.089C99.752 187.969 95 189.861 95 186.233c0-.972 1.948-7.644 4.328-14.827l4.329-13.06-7.579-5.348c-15.842-11.18-18.198-13.134-17.874-14.825.282-1.468 2.297-1.707 16.43-1.947l16.108-.274 4.821-14.943c4.569-14.158 6.433-17.413 8.684-15.162.502.502 3.064 7.38 5.692 15.283l4.778 14.37 15.38.5c19.723.641 19.926 1.049 5.718 11.496-5.673 4.171-11.162 8.148-12.197 8.838-1.808 1.204-1.699 1.82 2.75 15.58 2.548 7.881 4.632 14.949 4.632 15.707 0 2.822-4.714 1.18-12-4.178zm9.5 2.557c-.34-.55-1.154-.993-1.809-.985-.716.01-.592.403.309.985 1.921 1.242 2.267 1.242 1.5 0zm-6.5-3.432c0-.237-1.462-1.4-3.25-2.583l-3.25-2.15 3 2.577c3.077 2.644 3.5 2.905 3.5 2.156zm-34.35-5.919c.394-.704.122-.665-.703.101-1.845 1.712-3.734 1.569-4.124-.313-.178-.862-.796-.031-1.377 1.85l-1.054 3.414 3.307-1.951c1.82-1.073 3.597-2.469 3.95-3.1zm36.403 1.8c-.485-1.622-.92-2.161-.967-1.199-.047.963-.622 1.75-1.277 1.75-.655 0-.318.638.748 1.418 2.452 1.793 2.572 1.634 1.496-1.968zm-32.925-4.199c1.243-1.586 1.208-1.621-.378-.378-.963.755-1.75 1.543-1.75 1.75 0 .823.821.294 2.128-1.372zm28.857-1c-.012-1.384-.198-1.462-.889-.372-.508.803-1.401 1.052-2.139.596-.824-.51-1.017-.38-.552.371 1.1 1.781 3.597 1.366 3.58-.595zm2.01-1.962c-1.09-1.7-1.118-1.697-.57.044.316 1.007.61 2.357.654 3 .057.843.216.83.57-.044.271-.667-.023-2.017-.654-3zM107.29 172c-.288-1.1-.696-2-.907-2-.21 0-.383.9-.383 2s.408 2 .906 2c.499 0 .671-.9.384-2zm21.71 1.622c0-.207-.787-.995-1.75-1.75-1.586-1.243-1.621-1.208-.378.378 1.307 1.666 2.128 2.195 2.128 1.372zm-11.433-3.731c.374-.604-.501-.325-1.944.62-1.443.946-2.623 1.908-2.623 2.14 0 .723 3.854-1.606 4.567-2.76zm5.711.385c.75.288 1.293-.228 1.293-1.23 0-1.591-.256-1.574-3.288.215-1.81 1.067-3.568 2.392-3.91 2.943-.34.552.558.232 1.996-.71 1.439-.943 3.198-1.49 3.909-1.218zm12.533-2.526c-1.528-4.581-2.22-5.061-4.177-2.898-1.643 1.816-1.575 1.99 1.574 4.006 1.81 1.16 3.381 2.116 3.49 2.125.109.01-.29-1.446-.886-3.233zm-22.951-2.419c-1.336-1.61-2.32-.873-3.342 2.504-.699 2.308-.677 2.315 1.905.623 2.09-1.37 2.377-1.994 1.437-3.127zm4.528 1.793c1.537-1.698 1.547-1.935.103-2.489-.96-.369-1.341-.202-.957.42.351.568.094 1.688-.57 2.489-1.772 2.134-.566 1.779 1.424-.42zm3.74.126c1.243-1.586 1.208-1.621-.378-.378-1.666 1.307-2.195 2.128-1.372 2.128.207 0 .995-.787 1.75-1.75zm6.536.081c-.367-.368.12-1.605 1.084-2.75 1.747-2.076 1.746-2.076-.474-.197-1.966 1.662-2.262 3.616-.548 3.616.334 0 .306-.3-.062-.669zm-18.952-8.047c-1.596-1.596-3.723-1.006-3.697 1.025.01.783.315.719.889-.187 1.48-2.338 3.258-.19 2.666 3.223l-.546 3.155 1.104-2.848c.886-2.286.804-3.149-.416-4.368zm16.416 4.966c1.243-1.586 1.208-1.621-.378-.378-1.666 1.307-2.195 2.128-1.372 2.128.207 0 .995-.787 1.75-1.75zm-3.71-.116c.294-.477-.467-1.714-1.692-2.75-2.22-1.879-2.221-1.879-.474.197.964 1.145 1.451 2.382 1.084 2.75-.368.368-.396.67-.062.67.335-.001.849-.39 1.143-.867zM114 162.5c-.685-.825-1.726-1.5-2.314-1.5-.587 0-.195.66.873 1.468 2.508 1.898 2.998 1.908 1.441.032zm24.683-1.688c-.32-.797-.556-.56-.604.605-.043 1.054.193 1.644.525 1.312.332-.332.368-1.195.08-1.917zM113 159.569c0-.237-1.462-1.4-3.25-2.583l-3.25-2.15 3 2.577c3.077 2.644 3.5 2.905 3.5 2.156zm14.277-2.878c3.65-3.127 3.738-3.352 2.605-6.713-1.802-5.346-2.66-6-7.244-5.522-2.276.236-4.458.456-4.85.488-.61.049-3.118 7.208-3.244 9.266-.06.963 6.582 5.8 7.9 5.753.58-.02 2.756-1.493 4.833-3.272zm6.26-3.704c-1.27-3.876-1.397-4.01-.93-.986.757 4.888 1.643 7.685 2.054 6.486.192-.558-.314-3.033-1.123-5.5zm6.114 1.466c-1.505-1.635-1.699-1.35-.973 1.426.41 1.568.84 1.902 1.361 1.058.42-.678.245-1.796-.388-2.484zM105 156.622c0-.207-.787-.995-1.75-1.75-1.586-1.243-1.621-1.208-.378.378 1.307 1.666 2.128 2.195 2.128 1.372zm1-2c0-.207-.787-.995-1.75-1.75-1.586-1.243-1.621-1.208-.378.378 1.307 1.666 2.128 2.195 2.128 1.372zm42-4.258c0-.275-1.35.461-3 1.636-1.65 1.175-3 2.361-3 2.636 0 .275 1.35-.461 3-1.636 1.65-1.175 3-2.361 3-2.636zm-47 3.258c0-.207-.787-.995-1.75-1.75-1.586-1.243-1.621-1.208-.378.378 1.307 1.666 2.128 2.195 2.128 1.372zm1-2c0-.207-.787-.995-1.75-1.75-1.586-1.243-1.621-1.208-.378.378 1.307 1.666 2.128 2.195 2.128 1.372zm37.595-.777c.444-.718.275-.882-.449-.435-.7.432-1.533-.204-2.091-1.596-.552-1.377-.954-1.686-.992-.764-.035.853.477 2.09 1.137 2.75 1.473 1.473 1.513 1.473 2.395.045zM97 150.622c0-.207-.787-.995-1.75-1.75-1.586-1.243-1.621-1.208-.378.378 1.307 1.666 2.128 2.195 2.128 1.372zm49.128-1.372c1.243-1.586 1.208-1.621-.378-.378-.963.755-1.75 1.543-1.75 1.75 0 .823.821.294 2.128-1.372zM107 148.082c0-.505.273-1.63.607-2.5.502-1.308-.23-1.582-4.222-1.582h-4.829l3.472 2.451c3.768 2.66 4.972 3.055 4.972 1.63zm-9-2.582l-2.349-2.5 6.925-.19 6.924-.188-5.888-.365c-8.232-.51-9.532.135-6.587 3.27 1.278 1.36 2.549 2.473 2.824 2.473.275 0-.557-1.125-1.849-2.5zm44.5.5l3-1.987-3.75-.007c-3.086-.005-3.75.348-3.75 1.994 0 2.497.729 2.497 4.5 0zm3.628.25c1.243-1.586 1.208-1.621-.378-.378-.963.755-1.75 1.543-1.75 1.75 0 .823.821.294 2.128-1.372zm4 0c1.243-1.586 1.208-1.621-.378-.378-.963.755-1.75 1.543-1.75 1.75 0 .823.821.294 2.128-1.372zm-57.058-1.676c-1.254-1.334-1.98-2.91-1.616-3.5.411-.665-.374-1.074-2.062-1.074h-2.725l3.916 3.458c4.585 4.049 5.72 4.558 2.487 1.116zm17.613-1.762c-.32-.797-.556-.56-.604.605-.043 1.054.193 1.644.525 1.312.332-.332.368-1.195.08-1.917zm20 0c-.32-.797-.556-.56-.604.605-.043 1.054.193 1.644.525 1.312.332-.332.368-1.195.08-1.917zm27.234-2.562c.229-.138-.81-.25-2.31-.25-1.638 0-2.468.416-2.08 1.044.355.574.058 1.811-.66 2.75-.719.938.03.581 1.663-.794 1.634-1.375 3.157-2.612 3.387-2.75zM87 143.622c0-.207-.787-.995-1.75-1.75-1.586-1.243-1.621-1.208-.378.378 1.307 1.666 2.128 2.195 2.128 1.372zm29.794-3.266c-.291-1.375-.543-1.123-.97.97-.372 1.825-.232 2.482.394 1.856.533-.533.793-1.805.576-2.826zM148.5 143c-.347-.561-4.214-.918-8.809-.814l-8.191.187 8.5.627c4.675.345 8.64.711 8.809.814.17.102.03-.264-.309-.814zm-21.732-.715c-1.503-.228-4.203-.232-6-.01-1.797.223-.568.41 2.732.415 3.3.006 4.77-.176 3.268-.405zM83.362 139.5c.347-.905.005-1.5-.862-1.5s-1.209.595-.862 1.5c.317.825.705 1.5.862 1.5.157 0 .545-.675.862-1.5zm53.406.785c-1.503-.228-4.203-.232-6-.01-1.797.223-.568.41 2.732.415 3.3.006 4.77-.176 3.268-.405zm14.501.06c-.677-.275-2.027-.292-3-.038-.973.254-.419.478 1.231.498 1.65.02 2.446-.187 1.769-.461zM161.5 139c-.34-.55-3.854-.919-7.809-.82l-7.191.18 7.5.64c4.125.352 7.64.72 7.809.82.17.099.03-.27-.309-.82zm-20.738-.687c-.956-.25-2.756-.26-4-.02-1.244.239-.462.444 1.738.455 2.2.01 3.218-.185 2.262-.435zm-8.079-2.5c-.32-.798-.556-.561-.604.604-.043 1.054.193 1.644.525 1.312.332-.332.368-1.195.08-1.917zm-7.76-1.063c-.04-.688-.626-2.773-1.3-4.635l-1.224-3.385-1.06 4.635c-1.032 4.504-.995 4.635 1.3 4.635 1.298 0 2.327-.563 2.285-1.25zm5.422-.293c-.326-.849-.807-1.329-1.069-1.067-.262.262-.18.957.183 1.543.986 1.596 1.562 1.286.886-.476zm-9.43-7.457c-.037-.99-.348-.819-.915.5-1.181 2.75-1.181 4.328 0 2.5.533-.825.945-2.175.914-3zm2.727-4.39l-1.394-2.686-.468 2.447c-.336 1.76-.09 2.302.876 1.93.74-.283 1.344.058 1.344.759 0 .7.233 1.04.518.755.285-.284-.11-1.727-.876-3.204zm3.041 1.203c-.32-.798-.556-.561-.604.604-.043 1.054.193 1.644.525 1.312.332-.332.368-1.195.08-1.917zm1.312-2.525c-1.09-1.7-1.118-1.697-.57.044.316 1.007.61 2.357.654 3 .057.843.216.83.57-.044.271-.667-.023-2.017-.654-3zm-4.722-6.353c-.662-2.53-.943-2.44-1.5.474-.312 1.631-.063 2.256.773 1.935.678-.26 1.005-1.344.727-2.409zm.453-4.915c-1.268-1.811-1.564-1.884-2.09-.513-.358.931-.198 1.34.383.982.547-.339 1.273.107 1.612.99.339.884.831 1.392 1.095 1.129.263-.263-.187-1.428-1-2.588zm40.402 93.23c1.243-1.586 1.208-1.621-.378-.378-.962.755-1.75 1.543-1.75 1.75 0 .823.821.294 2.128-1.372zm-12.464.081c-.367-.368.12-1.605 1.084-2.75l1.752-2.081-2.312 1.96c-1.271 1.08-4.421 2.257-7 2.617l-4.688.656 5.917.133c3.254.074 5.615-.167 5.247-.535zM78 200.687c0-.172-1.462-1.635-3.25-3.25L71.5 194.5l2.937 3.25c2.738 3.03 3.563 3.71 3.563 2.937zm15-.072c0-.212-1.238-1.138-2.75-2.06l-2.75-1.674 2.36 2.06c2.305 2.01 3.14 2.455 3.14 1.674zm-38.993-5.9L49.61 190.5l3.945 4.563c2.169 2.51 4.147 4.407 4.395 4.216.248-.191-1.527-2.245-3.944-4.563zm177.655 2.035c-.277-.688-.504-.125-.504 1.25s.227 1.938.504 1.25c.278-.688.278-1.813 0-2.5zm-74.534.5c1.243-1.586 1.208-1.621-.378-.378-.962.755-1.75 1.543-1.75 1.75 0 .823.821.294 2.128-1.372zM23 194.5l2.5-3-2.75 2.424c-1.512 1.334-2.75 2.871-2.75 3.417 0 .546.113.805.25.576.137-.23 1.375-1.767 2.75-3.417zm176.263-3.178c.367-2.91.18-4.043-.618-3.73-.63.246-1.23 2.801-1.334 5.678-.214 5.935 1.125 4.598 1.952-1.948zM87 196.687c0-.172-1.462-1.635-3.25-3.25L80.5 190.5l2.937 3.25c2.738 3.03 3.563 3.71 3.563 2.937zM163.5 192c2.148-2.2 3.68-4 3.406-4-.275 0-2.258 1.8-4.406 4-2.148 2.2-3.68 4-3.406 4 .275 0 2.258-1.8 4.406-4zm21.876-.29c.343.342.592-1.14.554-3.293l-.071-3.917-1.427 3.895c-.785 2.142-1.766 4.413-2.18 5.047-.414.634-.02.363.874-.602s1.907-1.474 2.25-1.13zm-10.248.54c1.243-1.586 1.208-1.621-.378-.378-.963.755-1.75 1.543-1.75 1.75 0 .823.821.294 2.128-1.372zM71 192.622c0-.207-.787-.995-1.75-1.75-1.586-1.243-1.621-1.208-.378.378 1.307 1.666 2.128 2.195 2.128 1.372zm160.73-10.35c-.217-2.074-.397-.622-.402 3.228-.004 3.85.173 5.548.394 3.772.22-1.775.224-4.925.008-7zM80 189.655c0-.19-1.012-1.202-2.25-2.25L75.5 185.5l1.905 2.25c1.79 2.114 2.595 2.705 2.595 1.905zm98.128-1.405c1.243-1.586 1.208-1.621-.378-.378-.963.755-1.75 1.543-1.75 1.75 0 .823.821.294 2.128-1.372zm5.162-.251c.288-1.101.115-1.75-.383-1.441-.499.308-.907 1.208-.907 2.001 0 2.07.68 1.775 1.29-.56zm-140.79-.496c.55-.19-1.475-.374-4.5-.409-3.025-.035-6.082.306-6.793.757-1.193.757 9.003.443 11.293-.348zm126.628-2.253c1.243-1.586 1.208-1.621-.378-.378-.963.755-1.75 1.543-1.75 1.75 0 .823.821.294 2.128-1.372zm12.618-1.53c.08-1.07.044-1.783-.083-1.583-.126.2-.77 1.076-1.43 1.946-.945 1.246-.928 1.584.083 1.584.706 0 1.35-.876 1.43-1.947zm17.54-.706c.29-1.11.174-1.798-.259-1.531-.432.267-1.023 1.393-1.313 2.503-.29 1.11-.174 1.798.259 1.531.432-.267 1.023-1.393 1.313-2.503zm2.683-.514c0-.55-.436-.325-.969.5-.533.825-.97 1.95-.97 2.5s.437.325.97-.5c.533-.825.97-1.95.97-2.5zM76 184.622c0-.207-.787-.995-1.75-1.75-1.586-1.243-1.621-1.208-.378.378 1.307 1.666 2.128 2.195 2.128 1.372zm-39.75-1.284c-.688-.278-1.813-.278-2.5 0-.688.277-.125.504 1.25.504s1.938-.227 1.25-.504zm8.72-8.573c-.017-.696-.527-.365-1.134.735-.607 1.1-2.056 3.146-3.22 4.546-1.164 1.4-.653 1.07 1.134-.735 1.788-1.805 3.236-3.85 3.22-4.546zm144.545 3.485c.96-1.512 1.181-2.223.493-1.578-.688.644-1.984.94-2.88.656-1.295-.411-1.346-.316-.25.466.758.54 1.069 1.483.691 2.094-.378.612-.487 1.112-.243 1.112s1.23-1.238 2.189-2.75zm13.48-1.25c.05 1.152.312 1.076 1.127-.325.584-1.004.795-2.091.47-2.417-.326-.325-.592-.04-.592.634s-.427.962-.95.639c-.522-.323-1.422.296-2 1.375-1.591 2.974-1.187 3.957.45 1.094.876-1.532 1.455-1.92 1.495-1zm-3.613.448c.341-.89.173-1.291-.393-.94-.544.335-.989 1.033-.989 1.551 0 1.438.717 1.121 1.382-.61zm32.362-23.698c-.185-4.537-.337-.825-.337 8.25s.152 12.787.337 8.25c.185-4.537.185-11.963 0-16.5zm-55.937 19.724c-.308-.308-.867.247-1.243 1.233-.542 1.425-.428 1.54.56.56.684-.679.99-1.486.683-1.793zm9.876-.661c-.32-.798-.556-.561-.604.604-.043 1.054.193 1.644.525 1.312.332-.332.368-1.195.08-1.917zm16.05-1c-1.577-1-5.475-1.042-6.074-.063-.253.413 1.288.772 3.423.798 2.237.028 3.36-.284 2.65-.735zM189 166.45c0-.382-.675-.134-1.5.551s-1.5 1.672-1.5 2.194.675.274 1.5-.551c.825-.825 1.5-1.812 1.5-2.194zm-143.985-6.496l-1.071-2.453.514 2.5c.283 1.375.582 3.4.665 4.5.146 1.948.16 1.947.556-.047.224-1.126-.075-3.15-.664-4.5zm11.647-.203c-.277-.688-.504-.125-.504 1.25s.227 1.938.504 1.25c.278-.688.278-1.813 0-2.5zm123-2c-.277-.688-.504-.125-.504 1.25s.227 1.938.504 1.25c.278-.688.278-1.813 0-2.5zm9.073-11.5c-.206-2.612-.375-.475-.375 4.75s.169 7.362.375 4.75.206-6.888 0-9.5zm-124.03 2.5c-.238-1.238-.433-.225-.433 2.25s.195 3.487.434 2.25c.238-1.238.238-3.263 0-4.5zm-45.393-2.374c2.271-2.516 2.521-3.226 1.3-3.694-.955-.367-1.332-.117-1.026.682.267.694-.431 2.091-1.55 3.104-1.12 1.013-2.036 2.297-2.036 2.854 0 .556.113.822.25.59.138-.232 1.515-1.823 3.062-3.536zm160.35-2.626c-.277-.688-.504-.125-.504 1.25s.227 1.938.504 1.25c.278-.688.278-1.813 0-2.5zm-146.854.315c-.664-1.065-1.636-1.671-2.16-1.348-.523.324-.122 1.195.892 1.936 2.47 1.807 2.698 1.701 1.268-.588zm23.854-3.315c-.277-.688-.504-.125-.504 1.25s.227 1.938.504 1.25c.278-.688.278-1.813 0-2.5zM16 140.674c0-.179-1.238-1.416-2.75-2.75L10.5 135.5l2.424 2.75c2.266 2.57 3.076 3.209 3.076 2.424zm14-.757c4.78-1.098 10-5.224 10-7.904 0-2.135-1.965-4.013-4.2-4.013-2.056 0-2.376-2.024-.6-3.8.933-.933.6-1.2-1.5-1.2-3.763 0-3.63-3.21.194-4.654 9.32-3.517 6.978-16.923-3.564-20.402-4.352-1.437-11.243.858-14.32 4.77-2.287 2.908-2.583 7.947-.618 10.536 1.826 2.405 4.608 2.243 4.608-.269 0-1.654-.452-1.906-2.5-1.392-2.175.546-2.5.298-2.5-1.913 0-4.954 7.067-4.26 9.023.885 1.124 2.956-.184 6.924-2.725 8.269-1.175.621-3.011.556-5.298-.19-2.666-.868-3.784-1.974-4.694-4.64l-1.193-3.5-.057 5.25L10 121h4c3.333 0 4 .333 4 2 0 1.1-.563 2.052-1.25 2.115-.688.064-1.925.176-2.75.25-.986.089-1.608 1.445-1.815 3.956-.27 3.284.187 4.293 3.251 7.184 1.961 1.85 4.803 3.55 6.315 3.779 1.512.229 2.974.473 3.249.542.275.069 2.525-.34 5-.909zm-19.967-6.284c-1.435-1.435-1.295-6.967.217-8.504 1.002-1.02.953-1.208-.25-.95-1.317.282-1.531-6.653-1.758-56.929L7.984 10H230l.242 58.75.242 58.75.266-58.442c.146-32.143-.103-58.811-.554-59.262-1.07-1.07-221.35-1.043-222.419.027-1.143 1.143-1.006 123.615.14 124.76.045.046.773.084 1.616.084 1.056 0 1.211-.323.5-1.034zm165.962-3.345c-1.09-1.7-1.118-1.697-.57.044.316 1.007.61 2.357.654 3 .057.843.216.83.57-.044.271-.667-.023-2.017-.654-3zM40.05 126.722l-2.338-2.222 1.894 2.652c1.042 1.459 2.094 2.459 2.338 2.222.245-.236-.607-1.43-1.894-2.652zm-2.3-6.329c0-1.433-.281-2.176-.625-1.65-.344.527-1.3 1.214-2.125 1.528-1.195.455-1.144.587.25.65.962.043 1.75.529 1.75 1.079 0 .55.169 1 .375 1s.375-1.173.375-2.607zm-16.622-4.143c1.192-1.52 1.175-1.604-.128-.634-.825.613-2.175 1.365-3 1.67-1.255.465-1.234.569.128.635.895.043 2.245-.709 3-1.671zM169 117.655c0-.19-1.012-1.202-2.25-2.25l-2.25-1.905 1.905 2.25c1.79 2.114 2.595 2.705 2.595 1.905zm-153-1.033c0-.207-.787-.995-1.75-1.75-1.586-1.243-1.621-1.208-.378.378 1.307 1.666 2.128 2.195 2.128 1.372zm66-5.122c2.987-3.025 5.207-5.5 4.932-5.5-.275 0-2.945 2.475-5.932 5.5-2.987 3.025-5.207 5.5-4.932 5.5.275 0 2.945-2.475 5.932-5.5zm96 3.122c0-.207-.787-.995-1.75-1.75-1.586-1.243-1.621-1.208-.378.378 1.307 1.666 2.128 2.195 2.128 1.372zm-136.98-9.656l-1.076-2.466.514 2.5c.283 1.375.596 4.075.696 6l.182 3.5.38-3.534c.208-1.944-.105-4.644-.697-6zm-28.337 5.846c-.32-.797-.556-.56-.604.605-.043 1.054.193 1.644.525 1.312.332-.332.368-1.195.08-1.917zM175 110.688c0-.172-1.462-1.635-3.25-3.25l-3.25-2.937 2.937 3.25c2.738 3.03 3.563 3.71 3.563 2.937zM75.5 105c2.148-2.2 3.68-4 3.406-4-.275 0-2.258 1.8-4.406 4-2.148 2.2-3.68 4-3.406 4 .275 0 2.258-1.8 4.406-4zm84.5 3.655c0-.19-1.012-1.202-2.25-2.25l-2.25-1.905 1.905 2.25c1.79 2.114 2.595 2.705 2.595 1.905zm-147.317-4.843c-.32-.797-.556-.56-.604.605-.043 1.054.193 1.644.525 1.312.332-.332.368-1.195.08-1.917zM167 102.656c0-.19-1.012-1.202-2.25-2.25L162.5 98.5l1.905 2.25c1.79 2.114 2.595 2.705 2.595 1.905zM38 99.5c-1.292-1.375-2.745-2.5-3.23-2.5-.833 0 4.252 4.901 5.154 4.968.234.018-.632-1.093-1.924-2.468zm110.559.968c-1.068-.807-2.418-1.452-3-1.433-.583.02.066.679 1.441 1.465 3.24 1.852 4.028 1.836 1.559-.032zM89 94.311c0-.722-6.086 3.107-7.327 4.609-.645.781.74.159 3.077-1.383 2.338-1.541 4.25-2.993 4.25-3.226zm73 4.311c0-.207-.787-.995-1.75-1.75-1.586-1.243-1.621-1.208-.378.378 1.307 1.666 2.128 2.195 2.128 1.372zM32 96c-.825-.533-3.3-.909-5.5-.834l-4 .134 4.5.7c2.475.385 4.95.76 5.5.834.55.075.325-.3-.5-.834zm106.73.396c-.333-.332-1.196-.368-1.917-.08-.798.32-.561.557.604.605 1.054.043 1.644-.193 1.312-.525zm-26.48-1.058c-.688-.278-1.813-.278-2.5 0-.688.277-.125.504 1.25.504s1.938-.227 1.25-.504zm22.48.058c-.333-.332-1.196-.368-1.917-.08-.798.32-.561.557.604.605 1.054.043 1.644-.193 1.312-.525zm-8.98-1.124c-2.063-.216-5.438-.216-7.5 0-2.063.215-.375.392 3.75.392s5.813-.177 3.75-.392zm30.25.254c0-.607-5.64-3.54-6.7-3.484-.44.023.775.904 2.7 1.958 3.941 2.158 4 2.18 4 1.526zm-16.27-7.13c-.333-.332-1.196-.368-1.917-.08-.798.32-.561.557.604.605 1.054.043 1.644-.193 1.312-.525zm-26.48-1.058c-.688-.278-1.813-.278-2.5 0-.688.277-.125.504 1.25.504s1.938-.227 1.25-.504zm21 0c-.688-.278-1.813-.278-2.5 0-.688.277-.125.504 1.25.504s1.938-.227 1.25-.504zm-8.482-1.053c-1.503-.228-4.203-.232-6-.01-1.797.223-.568.41 2.732.415 3.3.006 4.77-.176 3.268-.405zM243.438 28c0-15.125.14-21.313.31-13.75.17 7.563.17 19.938 0 27.5-.17 7.563-.31 1.375-.31-13.75z"/></svg>