<svg xmlns="http://www.w3.org/2000/svg" width="244" height="420" viewBox="0 0 244 420"><path d="M6.165 418.502c.667-.667 235.979-.692 236.646-.025.287.288-52.953.523-118.311.523s-118.61-.224-118.335-.498zm-1.11-10.485c-1.675-.398-2.699-1.562-3.252-3.698-.445-1.715-.694-91.7-.555-199.968L1.5 7.5l114.25-.254c108.334-.241 114.252-.164 114.283 1.5.542 29-.086 398.752-.678 398.907-2.038.53-222.095.888-224.3.364zm222.866-3.767c-.047-1.045-.282-1.247-.583-.5C226.627 405.511 5 405.594 5 403.833c0-.641-.27-.896-.6-.566C1.85 405.817 9.353 406 116.559 406c105.498 0 111.437-.093 111.362-1.75zm-6.671-2l3.75-.469v-26.57l-94.25.247c-51.837.136-101.157.314-109.599.395L5.802 376l.52 13.25c.284 7.287.554 13.38.598 13.537.136.487 210.343-.04 214.33-.538zm-186-5.912c-1.702-.687-1.581-3.274.185-3.951.79-.303 2.841-3.467 4.56-7.03 3.854-7.992 6.255-8.335 9.755-1.395l2.25 4.462v-3.19c0-4.794 2.818-6.11 13.147-6.14 4.755-.014 9.03-.094 9.5-.178.469-.084 2.315-.1 4.103-.034 2.768.1 3.25.488 3.25 2.618 0 1.808-.537 2.5-1.941 2.5-1.068 0-2.22-.45-2.559-1-.34-.55-1.379-.971-2.309-.937-1.225.046-1.071.313.559.968 2.915 1.172 2.943 4.554.044 5.313-3.15.823-1.264 2.156 3.05 2.156 3.245 0 3.692.31 3.972 2.75l.317 2.75H74.95c-7.839 0-8.16-.089-7.63-2.114l.553-2.115-2.251 2.115C63.67 395.719 62.16 396 54.245 396c-5.07 0-9.405-.45-9.752-1.01-.395-.64-1.416-.457-2.781.5-2.17 1.52-4.152 1.78-6.462.848zm5.676-3.749c.644-.776.79-1.647.323-1.935-.467-.289-1.393.346-2.057 1.41-1.39 2.225-.02 2.639 1.734.525zm17.064 0c-1.39-1.388-1.237-8.942.21-10.389 1.835-1.835-.291-1.427-2.371.455-1.168 1.057-1.829 3.045-1.829 5.5 0 5.416-2.09 4.931-5.464-1.267l-2.783-5.112-2.34 2.862c-1.288 1.574-2.357 3.286-2.377 3.803-.02.518.574.107 1.32-.912 1.82-2.491 4.644-1.312 4.644 1.94 0 1.929-.535 2.555-2.25 2.63-2.16.096-2.15.133.25.91 3.6 1.164 14.23.822 12.99-.42zm18.51.52c-3.632-.553-4.029-.908-4.313-3.859-.272-2.813-.003-3.254 2-3.282 2.136-.03 2.18-.133.563-1.36-.963-.73-1.75-1.841-1.75-2.468s-.787-1.14-1.75-1.14c-1.487 0-1.75.976-1.75 6.5v6.5l5.5-.142c5.225-.135 5.3-.172 1.5-.75zM63 389.892c0-.491 1.125-.893 2.5-.893 2.002 0 2.5-.5 2.5-2.508 0-2.259-.2-2.384-2-1.26-1.608 1.005-2.41.993-4.097-.06-2.746-1.715-3.284-1.015-2.486 3.236.472 2.518 1.068 3.343 2.12 2.94.805-.31 1.463-.964 1.463-1.455zm3.343-7.643c.253-.412-.883-.8-2.525-.86-1.982-.074-2.537.173-1.652.734 1.664 1.055 3.57 1.112 4.177.126zm10.907-1.912c-.688-.278-1.813-.278-2.5 0-.688.277-.125.504 1.25.504s1.938-.227 1.25-.504zm19.04 13.412c-1.133-1.238-2.352-3.215-2.71-4.395-.857-2.834 2.202-9.146 4.85-10.009 2.476-.806 25.44-.809 26.247-.002.31.31.264 1.756-.102 3.215-.505 2.011-1.137 2.528-2.62 2.14-1.443-.378-1.955-.004-1.955 1.426 0 1.066-.675 2.197-1.5 2.513-1.667.64-2.072 3.362-.5 3.362.55 0 1 .9 1 2 0 1.724-.667 2-4.833 2-5.669 0-6.453-.523-5.077-3.381.67-1.393.287-1.176-1.118.631-2.803 3.604-8.614 3.853-11.683.5zm3.734-1.221c-.726-.875-1.08-3.51-.872-6.5.191-2.767.247-5.03.124-5.03-.435.002-3.276 5.913-3.276 6.816 0 1.067 3.885 6.185 4.695 6.185.302 0 0-.662-.671-1.471zm5.418.564c.309-.498-.34-.671-1.44-.383-2.336.61-2.63 1.29-.561 1.29.793 0 1.693-.408 2.001-.907zm9.748-2.593c-.25-2.142.021-3.5.7-3.5.61 0 1.11-.675 1.11-1.5s-.45-1.5-1-1.5-1-.696-1-1.547c0-1.243-1.07-1.488-5.443-1.25-3.433.187-5.095.648-4.5 1.247.518.523.943 2.687.943 4.809 0 2.318.4 3.612 1 3.241.55-.34 1-2.18 1-4.09 0-2.208.562-3.689 1.543-4.065 2.188-.84 2.382-.403 2.648 5.965.186 4.426.59 5.69 1.823 5.69 1.222 0 1.49-.8 1.176-3.5zm-11.718-.454c.79-1.278-.456-6.046-1.58-6.046-.49 0-.892 1.575-.892 3.5 0 3.34 1.21 4.586 2.472 2.546zm7.211-3.233c-.32-.798-.556-.561-.604.604-.043 1.054.193 1.644.525 1.312.332-.332.368-1.195.08-1.916zm8.567-6.475c-.688-.278-1.813-.278-2.5 0-.688.277-.125.504 1.25.504s1.938-.227 1.25-.504zm21.25 14.507c-1.1-.601-2.563-1.799-3.25-2.66-1.833-2.298-1.53-8.618.537-11.17 1.74-2.15 2.339-2.207 23.25-2.232 11.804-.014 23.996.004 27.09.04l5.629.065.69 5.527c.477 3.817.279 6.387-.641 8.306-1.164 2.428-1.899 2.779-5.818 2.779H183.5l.144-4.537.143-4.537-3.47.406c-3.825.446-5.207 2.391-3.317 4.668 2.314 2.788.424 4.5-4.969 4.5-4.364 0-5.031-.265-5.031-2 0-1.1.45-2 1-2s.922-2.134.825-4.75l-.174-4.75-.383 4.243c-.305 3.387-1.045 4.748-3.67 6.75-3.781 2.884-5.583 3.083-9.513 1.051-2.12-1.096-2.97-2.425-3.443-5.381-.471-2.946-1.191-4.077-2.885-4.53-4.033-1.081-4.757-.72-4.757 2.367 0 2.946 1.282 3.971 2.5 2 1.153-1.865 4.5-1.121 4.5 1 0 4.603-5.935 7.342-10.5 4.845zm7.5-3.242c0-.179-1.173-.101-2.606.173-3.102.592-4.357-.977-4.379-5.476-.01-2.005.639-3.581 1.735-4.22 1.643-.957 1.645-1.021.023-1.05-2.493-.043-5.124 4.435-4.37 7.437.786 3.133 5.386 5.716 7.84 4.403.966-.517 1.757-1.087 1.757-1.267zm26.75 1.317c-1.808-1.053-2.413-5.392-.884-6.337 1.214-.75.147-5.583-1.233-5.584-.74 0-1.012 1.743-.785 5.03.208 2.99-.146 5.625-.872 6.5-1.034 1.246-.705 1.466 2.152 1.44 2.775-.024 3.062-.21 1.622-1.05zm-16-.61c-2.058-.537-3.15-4.125-2.535-8.323.43-2.929.353-2.987-3.947-2.987-2.412 0-4.134.408-3.826.906.308.498 1.398.687 2.421.42 1.893-.496 3.093 1.833 3.123 6.064.016 2.141 2.765 4.588 5.014 4.462 1.05-.059.976-.22-.25-.541zM187 392c0-.55-.45-1-1-1s-1 .45-1 1 .45 1 1 1 1-.45 1-1zm-24-5.967c0-.948-.857-2.499-1.905-3.447-1.83-1.656-1.933-1.601-2.589 1.386-.835 3.804.996 6.686 3.127 4.918.752-.624 1.367-1.91 1.367-2.857zm27.85-.694c-1.133-1.205-1.76-2.674-1.396-3.265.931-1.506-.723-1.336-4.09.42-1.575.821-2.283 1.496-1.572 1.5 1.268.006 2.679.956 6.03 4.061 2.548 2.361 3.48-.104 1.027-2.716zM181.5 383c0-.733-.466-1.489-1.036-1.679-.57-.19-1.035.566-1.035 1.679s.466 1.868 1.035 1.679c.57-.19 1.036-.946 1.036-1.679zm-3.77-2.604c-.333-.332-1.196-.368-1.917-.08-.798.32-.561.557.604.605 1.054.043 1.644-.193 1.312-.525zM3.661 376.75c-.277-.688-.504-.125-.504 1.25s.227 1.938.504 1.25c.278-.688.278-1.813 0-2.5zM4.5 374c.34-.55.141-1-.441-1S3 373.45 3 374s.198 1 .441 1 .72-.45 1.059-1zm10.268-.715c-1.503-.228-4.203-.232-6-.01-1.797.223-.568.41 2.732.415 3.3.006 4.77-.176 3.268-.405zm24.482-.028c-3.987-.19-10.512-.19-14.5 0-3.987.19-.725.346 7.25.346s11.238-.156 7.25-.346zm20 .08c-.688-.277-1.813-.277-2.5 0-.688.278-.125.505 1.25.505s1.938-.227 1.25-.504zm61.48-.941c-.333-.332-1.196-.368-1.917-.08-.798.32-.561.557.604.605 1.054.043 1.644-.193 1.312-.525zm40.576-.142c-6.156-.175-16.506-.176-23-.001-6.493.174-1.456.318 11.194.318 12.65.001 17.963-.142 11.806-.317zm20.456.059c-.956-.25-2.756-.26-4-.02-1.244.239-.462.444 1.738.455 2.2.01 3.218-.185 2.262-.435zm43.234-30.792c-.004-28.55-.033-28.972-1.834-26.021-1.006 1.65-3.688 4.287-5.96 5.861-3.795 2.629-4.722 2.831-11.42 2.493-5.66-.286-8.03-.894-10.594-2.72-3.517-2.505-3.87-2.436-5.59 1.098-.608 1.247-3.128 3.288-5.601 4.535-2.974 1.499-4.795 3.192-5.377 5-2.575 7.993-13.789 12.034-19.948 7.19-4.946-3.891-4.338-14.25.913-15.568 2.127-.534 2.21-.775.948-2.737-3.52-5.471-3.093-14.074 1-20.104 1.724-2.542 2.291-4.4 1.863-6.108-.978-3.894.43-8.993 3.265-11.828l2.612-2.612h-5.893c-3.241 0-7.465-.502-9.387-1.115-1.921-.613-8.893-1.45-15.493-1.859-9.619-.596-12.695-1.168-15.5-2.881-2.456-1.5-5.145-2.139-9.018-2.141-4.122-.003-6.398-.596-9-2.344-4.823-3.242-12.471-5.66-17.91-5.662-5.93-.002-11.055-2.627-13.567-6.948-3.59-6.177-9.943-11.669-16.391-14.17C53.75 241.578 51 240 51 239.378c0-.623-1.008-1.802-2.24-2.62-1.933-1.284-2.102-1.881-1.234-4.35.576-1.638 2.565-3.736 4.651-4.906l3.645-2.045-2.353-4.978c-3.003-6.352-3-7.084.047-9.08 2.646-1.734 8.737-1.403 12.64.686 3.036 1.625 7.844 8.96 7.844 11.967 0 2.093.851 3.254 3.557 4.85 4.465 2.635 7.62 2.666 9.943.099.995-1.1 2.37-2 3.055-2s-.285-1.53-2.155-3.4c-7.699-7.699-1.667-14.546 12.85-14.589 2.062-.006 3.75-.405 3.75-.886s1.36-1.147 3.024-1.48c4.17-.834 4.779-3.172 1.593-6.124-2.969-2.751-3.35-5.646-1.046-7.95 1.404-1.403 1.407-1.571.029-1.571-.849 0-3.921-1.052-6.828-2.337-5.056-2.236-9.711-6.057-14.482-11.886-2.09-2.554-2.36-2.621-5-1.245-1.534.8-4.419 1.458-6.41 1.462-3.34.006-3.66-.255-4.169-3.385-.302-1.864-.16-5.118.316-7.23.654-2.899.512-4.231-.58-5.438-1.864-2.059-1.832-3.858.106-6 1.328-1.467 1.553-5.903 1.558-30.672.003-15.926-.282-30.103-.634-31.504-.363-1.447-.17-2.836.446-3.217.6-.37.81-1.764.47-3.117-.375-1.495.012-3.4.997-4.903.885-1.352 1.61-3.283 1.61-4.293 0-1.01.488-2.323 1.084-2.92 1.542-1.54 4.916-.41 4.916 1.648 0 .951.718 3.17 1.597 4.93.899 1.802 1.336 4.236 1.001 5.571-.367 1.465-.118 2.53.654 2.79.997.335.997 1.12-.002 3.904-.743 2.072-1.25 8.47-1.25 15.785 0 11.053.159 12.17 1.566 11.002 1.286-1.067 1.476-2.926 1.06-10.373-.28-4.99-.533-9.747-.563-10.572-.128-3.453 1.198-11.57 2.034-12.45.497-.522.903-1.948.903-3.168C89 79.654 90.103 78 92.588 78c1.785 0 2.515.682 2.942 2.75.313 1.512 1.056 4.4 1.652 6.417.596 2.016.865 4.806.599 6.2-.316 1.65.027 2.729.98 3.095.985.378 1.253 1.296.816 2.8-.358 1.231-.895 4.213-1.195 6.627l-.544 4.39 6.066-5.277c5.06-4.4 5.967-5.669 5.47-7.646-.354-1.412.057-3.365 1.016-4.828 1.924-2.936 2.006-4.79.411-9.201-1.016-2.81-.954-3.507.41-4.571.884-.691 1.848-3.056 2.142-5.256 1.384-10.372 3.098-13.45 5.918-10.629 1.606 1.607 3.693 10.218 3.087 12.743-.325 1.356.062 2.333 1.08 2.724 1.298.498 1.468 1.61.938 6.12-.445 3.788-.257 5.98.603 7.017.725.873 1.032 2.877.73 4.766-.464 2.899.021 3.767 4.385 7.853 2.698 2.527 4.906 4.23 4.906 3.785 0-.445-.717-2.921-1.593-5.502-1.458-4.294-1.458-4.769 0-5.585.98-.548 1.593-2.226 1.593-4.355 0-1.905.423-4.246.94-5.2.516-.956 1.2-2.974 1.519-4.487.381-1.81 1.217-2.75 2.445-2.75 2.081 0 5.096 7.59 5.096 12.83 0 1.705.635 3.2 1.5 3.532 1.688.647 2.033 4.19.5 5.138-1.591.983-1.26 16.04.383 17.403 1.07.889 1.523.785 2-.46.922-2.402.71-13.032-.417-20.823-.645-4.46-.653-7.293-.022-8.052.535-.645.714-2.16.398-3.368-.326-1.247.125-3.263 1.042-4.663.889-1.357 1.616-3.832 1.616-5.502 0-2.57.382-3.035 2.5-3.035 2.01 0 2.5.498 2.5 2.535 0 1.395.726 3.644 1.614 4.998.937 1.431 1.431 3.705 1.179 5.427-.267 1.818.054 3.151.831 3.45.951.364 1.021 1.307.282 3.788-.577 1.937-.897 16.643-.773 35.58.146 22.472-.125 32.614-.894 33.383-.805.805-.574 1.82.853 3.75 1.784 2.412 1.836 2.997.588 6.618-1.246 3.616-1.719 4-5.274 4.288-2.149.174-4.298.701-4.778 1.172-1.198 1.175-3.628.106-3.628-1.596 0-2.48-2.684-1.478-4.975 1.857-2.81 4.091-9.41 9.113-14.192 10.8l-3.668 1.292 2.418 1.902c3.166 2.49 3.058 5.257-.328 8.396l-2.746 2.544 2.356 1.908c1.296 1.05 2.982 1.908 3.746 1.908 1.99 0 1.717 3.714-.361 4.897-1.397.795-1.524 1.36-.628 2.8 1.193 1.92 3.463 2.05 13.146.751 3.817-.511 6.434-.268 9.5.886 2.328.875 7.326 2.076 11.108 2.668 9.756 1.528 12.87 3.458 21.779 13.504 1.46 1.647 4.539 4.344 6.842 5.994 2.304 1.65 5.947 4.902 8.096 7.228l3.907 4.227v-2.894c0-1.592.417-3.044.926-3.228.51-.183 1.222-1.526 1.584-2.985.585-2.36.315-2.728-2.45-3.335-10.263-2.254-13.811-14.713-6.622-23.256l2.384-2.835-3.433.401c-9.442 1.102-15.442-7.846-10.673-15.919.943-1.597 1.956-2.91 2.25-2.92.294-.007 1.157-.409 1.918-.89 1.114-.707.84-1.59-1.411-4.54-2.339-3.067-2.786-4.608-2.74-9.453.064-6.826 1.972-11.011 6.642-14.573 2.42-1.846 3.548-3.642 3.978-6.334 1.026-6.417 10.056-13.194 17.581-13.194 4.007 0 9.645 2.786 10.913 5.393.712 1.462 1.039-19.245 1.068-67.643l.042-69.75H116.085c-98.354 0-108.93.153-109.478 1.582C6.273 14.452 6 95.23 6 193.09v177.925l109.5-.237 109.5-.237-.004-29.02zM3.933 189.323c.012-97.723.396-178.052.853-178.51.457-.456 50.867-.714 112.023-.572C177.964 10.384 228 10.162 228 9.75S177.63 9 116.067 9H4.135l-.795 2.25c-.437 1.238-.714 76.5-.616 167.25.214 199.306.172 188.5.732 188.5.25 0 .465-79.955.477-177.677zm158.984 149.416c-.23-.143-1.542-1.156-2.917-2.25l-2.5-1.989 1.905 2.25c1.048 1.238 2.36 2.25 2.917 2.25.556 0 .824-.117.595-.26zm7.853-3.29c1.218-.853 2.688-2.436 3.266-3.517.932-1.74.514-2.196-3.658-3.984-2.59-1.11-5.287-2.79-5.994-3.733-1.153-1.54-1.227-1.485-.718.535.318 1.26.107 2.25-.478 2.25-1.523 0-4.188 2.91-4.188 4.571 0 2.37 3.82 5.429 6.777 5.429 1.528 0 3.775-.698 4.993-1.551zm6.018-4.586c-.25-.749-.703-.295-1.057 1.057-.435 1.663-.305 2.054.437 1.312.582-.582.86-1.647.62-2.369zm-12.44-10.207c-1.566-1.84-3.04-3.185-3.275-2.99-.433.36 4.955 6.334 5.713 6.334.226 0-.87-1.505-2.438-3.344zm20.615.878c2.555-2.313 2.613-5.702.136-7.944-1.522-1.377-2.065-1.458-2.725-.405-.453.723-.695 2.103-.536 3.065.211 1.286-.391 1.75-2.275 1.75-2.181 0-2.563-.447-2.563-3 0-4.36 3.364-7.365 7.496-6.694l3.27.53.463-5.583c.398-4.802.947-6.027 3.928-8.758l3.465-3.175-2.561-1.429c-2.526-1.409-7.061-.544-7.061 1.346 0 .42-.9.763-2 .763-1.5 0-2-.667-2-2.671 0-3.385-2.623-6.329-5.64-6.329-1.28 0-3.76 1.28-5.51 2.844-3.893 3.477-4.307 8.143-1.017 11.434l2.167 2.166v-2.199c0-1.21 1.064-2.896 2.365-3.749 5.01-3.282 10.424 2.282 7.808 8.024-1.596 3.503-7.038 4.25-12.233 1.68l-4.08-2.018-1.926 3.159c-1.06 1.737-1.928 4.839-1.93 6.891-.003 3.058.8 4.573 4.443 8.374l4.448 4.642 6.015-.435c3.96-.287 6.711-1.065 8.053-2.28zm24.306.81c-.677-.274-2.027-.29-3-.037-.973.254-.419.478 1.231.498 1.65.02 2.446-.187 1.769-.461zm-15.403-6.26c-1.851-2.153-3.704-3.953-4.116-4-.412-.046-.698 1.379-.634 3.166.064 1.788.322 2.463.573 1.5.618-2.365 1.535-2.205 4.311.75 3.69 3.927 3.594 2.921-.134-1.415zm22.843-.326c4.667-4.667 5.728-11.93 2.422-16.574-2.47-3.47-6.275-4.712-9.364-3.059l-2.193 1.173 2.283.845c2.693.996 2.632 4.533-.107 6.25-2.693 1.688-5.194-.443-5.56-4.737-.424-4.985 3.424-8.656 9.074-8.656 3.28 0 4.647.676 7.854 3.882l3.882 3.883v-4.224c0-4.045-.166-4.274-3.907-5.395-2.173-.651-5.246-2.695-6.922-4.604l-3.014-3.432-1.019 2.923c-1.208 3.467-6.434 6.926-10.638 7.042-1.65.046-2.438.31-1.75.587 1.93.78 1.48 3.145-.835 4.383-4.786 2.562-6.403 12.794-2.754 17.433 3.857 4.903 7.742 6.678 13.66 6.24 4.502-.334 5.872-.944 8.888-3.96zM219.5 317c.995-1.1 1.585-2 1.31-2-.275 0-1.315.9-2.31 2-.995 1.1-1.585 2-1.31 2 .275 0 1.315-.9 2.31-2zm-58.817-3.188c-.32-.797-.556-.56-.604.605-.043 1.054.193 1.644.525 1.312.332-.332.368-1.195.08-1.916zm23.63-2.603c1.445.276 2.389.117 2.098-.353-1.37-2.216-7.411-.148-7.411 2.535 0 .545.605.164 1.344-.846.927-1.269 2.157-1.682 3.97-1.336zm-23.65-4.459c-.278-.688-.505-.125-.505 1.25s.227 1.938.504 1.25c.278-.688.278-1.813 0-2.5zm63.03-2.481c-.254-.973-.478-.419-.498 1.231-.02 1.65.187 2.446.46 1.769.275-.677.292-2.027.038-3zm2 0c-.254-.973-.478-.419-.498 1.231-.02 1.65.187 2.446.46 1.769.275-.677.292-2.027.038-3zm-48.424-1.925c-.677-.274-2.027-.29-3-.037-.973.253-.419.478 1.231.498 1.65.02 2.446-.187 1.769-.461zm32.103-.136c.27-.436-.39-.859-1.463-.94-1.074-.08-1.69.276-1.372.793.709 1.146 2.17 1.222 2.835.147zM181 298.5c0-1.31-.338-2.59-.75-2.845-.412-.255-.75 1.025-.75 2.845 0 1.82.338 3.1.75 2.845.412-.254.75-1.535.75-2.845zm-3.906 1.45c1.079-.578 1.698-1.478 1.375-2-.89-1.44-2.469-1.136-2.469.477 0 .784-.787 1.632-1.75 1.884-.963.251-1.158.51-.434.573.723.064 2.199-.357 3.278-.934zm45.03-1.217c-.988-.98-1.102-.865-.56.56.376.986.935 1.541 1.243 1.233.308-.307 0-1.114-.683-1.793zM193 297c.589-1.1.845-2 .57-2s-.981.9-1.57 2c-.589 1.1-.845 2-.57 2s.981-.9 1.57-2zm17.374-3.944c-.236-.245-1.43.607-2.652 1.894l-2.222 2.338 2.652-1.894c1.459-1.042 2.459-2.094 2.222-2.338zm-44.69.757c-.32-.798-.557-.561-.605.604-.043 1.054.193 1.644.525 1.312.332-.332.368-1.195.08-1.916zM196 288.606c0-.216-.698-.661-1.552-.989-.89-.341-1.291-.173-.94.393.586.95 2.492 1.406 2.492.596zm29.25-1.27c-.688-.277-1.813-.277-2.5 0-.688.278-.125.505 1.25.505s1.938-.227 1.25-.504zm-20.83-2.453c2.058-1.618 2.618-2.833 2.385-5.173-.411-4.122-2.805-4.858-2.805-.862 0 3.291-2.425 4.786-5.949 3.667-3.985-1.265-3.82-8.867.229-10.496 1.794-.722 1.875-.905.42-.957-.99-.035-3.127-.75-4.75-1.589-2.51-1.297-2.95-2.114-2.95-5.464 0-4.136 1.812-6.01 5.812-6.01 1.069 0 2.449-.61 3.067-1.354 1.603-1.932-4.365-9.466-10.736-13.554-2.745-1.761-6.869-5.315-9.165-7.897l-6.098-6.858c-2.457-2.764-9.982-5.337-15.608-5.337-2.404 0-5.777-.727-7.495-1.615-4.237-2.192-14.793-1.882-14.77.432.013 1.295 6.622 5.183 8.808 5.183 1.278 0 4.38 2.115 7.438 5.073 5.725 5.535 6.93 5.747 16.307 2.863 4.907-1.508 8.275-.787 12.354 2.645 2.524 2.124 2.887 2.923 2.042 4.5-1.354 2.532-2.806 2.42-5.901-.452-1.405-1.303-3.8-3.16-5.322-4.126-2.356-1.495-2.678-1.524-2.168-.194.454 1.183-.451 1.837-3.733 2.699-2.383.625-7.482 2.71-11.332 4.63-6.313 3.152-7.933 3.52-16.512 3.765-5.231.15-10.57.838-11.864 1.53-1.293.693-3.763 1.014-5.488.715-6.28-1.09-14.172-3.179-15.636-4.139-3.875-2.54-23.905-8.88-28.25-8.942-3.523-.05-4.751-.454-4.755-1.567-.003-.941-1.263-.196-3.38 2-1.856 1.925-3.177 3.838-2.936 4.25.759 1.297-1.539.814-2.38-.5-.44-.687-2.149-1.757-3.799-2.377-1.65-.62-3.788-1.455-4.75-1.857-.963-.401-1.75-.337-1.75.142 0 .48 2.224 1.662 4.942 2.628 5.422 1.925 15.546 10.464 16.623 14.019.915 3.02 4.452 6.708 6.36 6.632 1-.04.754-.394-.675-.968-3.331-1.34-2.728-1.967.892-.928 1.729.496 3.498.682 3.931.414.434-.268 1.052-.062 1.373.457.32.52-.436 1.14-1.681 1.38-1.246.24-.015.445 2.735.456 2.75.01 4.1-.198 3-.464-1.1-.266-3.01-1.416-4.246-2.554-1.235-1.14-2.548-1.77-2.917-1.4-.369.368-.07.67.663.67.733 0 1.044.29.69.642-.353.354-1.325.076-2.16-.618-.836-.693-2.422-1.024-3.526-.735-1.262.33-1.763.13-1.35-.537.36-.583.21-.786-.333-.45-.543.335-.988-.045-.988-.846 0-.8.375-1.456.834-1.456.458 0 .833.45.833 1s.86 1 1.912 1c1.281 0 1.8-.577 1.576-1.75-.184-.963-.37-2.087-.411-2.5-.043-.412-.977-.75-2.077-.75s-2-.45-2-1c0-1.763 1.959-1.091 8.742 3 3.647 2.2 7.11 3.986 7.695 3.968 1.536-.046-2.283-2.851-6.937-5.096-2.2-1.06-5.787-3.016-7.971-4.346s-4.099-2.29-4.254-2.134c-.648.647 2.89 6.457 4.25 6.98.811.31 1.475.995 1.475 1.52s-1.341.286-2.98-.532c-3.2-1.596-4.811-3.36-3.07-3.36.714 0 .675-.628-.12-1.9-.652-1.045-1.736-1.69-2.407-1.432-1.386.532-2.352-.703-2.94-3.756-.286-1.486.006-1.938 1.006-1.555.885.34 1.22.048.9-.785-.512-1.334 4.294-3.223 5.396-2.12.301.301-.175.548-1.06.548-.884 0-1.929.52-2.322 1.158-.49.793-.037.98 1.442.593 1.235-.323 1.908-.16 1.573.382-.35.566.499.675 2.106.272 1.48-.372 2.98-.277 3.333.21.354.487 2.33 1.665 4.393 2.619 2.88 1.332 3.75 2.317 3.75 4.25 0 1.384.499 2.516 1.108 2.516.708 0 .861-.986.425-2.723-.638-2.545-.564-2.624 1.142-1.21 1.004.831 3.4 2.279 5.325 3.216 3.468 1.69 5.09 2.641 10.063 5.905 1.414.928 4.756 1.828 7.426 2 2.82.181 5.031.849 5.277 1.593.48 1.459-1.886 1.237-3-.281-.449-.61-.741-.486-.75.317-.01.86-.71 1.098-2.016.683-1.147-.364-2-.18-2 .433 0 .587 1.538 1.067 3.418 1.067 1.88 0 4.204.301 5.164.67 1.14.437 1.51.288 1.066-.431-.374-.605-.254-1.364.267-1.686.52-.322 1.23-.128 1.575.43.345.56 1.726 1.017 3.069 1.017 2.834 0 2.76-.216 1.327 3.896-.923 2.647-.827 3.512.557 5.041 1.013 1.12 2.461 1.64 3.68 1.32 1.422-.371 1.698-.836.943-1.59-.586-.587-1.051-1.54-1.033-2.117.019-.577.909 0 1.979 1.284 1.48 1.777 2.607 2.2 4.716 1.773 1.525-.309 3.828.03 5.118.753 2.099 1.175 1.588 1.3-4.82 1.187-3.942-.07-7.387.228-7.656.663-.268.434 2.718.79 6.637.79 6.896 0 11.56-1.273 10.565-2.884-.266-.43.171-.783.972-.783.8 0 1.238.218.972.485-.267.266.296 1.128 1.25 1.915 1.615 1.332 1.596 1.386-.266.79-1.54-.494-1.73-.369-.822.546.649.653 4.37 1.416 8.271 1.695 6.41.459 7.029.342 6.433-1.212-.363-.946-.935-1.344-1.271-.886-.336.459-1.286.773-2.111.7-.825-.075-2.85-.24-4.5-.367-1.818-.14-2.31-.411-1.25-.688.963-.252 1.75-.89 1.75-1.42 0-.59.747-.562 1.934.074 2.446 1.309 4.066 1.323 4.066.035 0-.55-.675-1-1.5-1s-1.5-.675-1.5-1.5c0-.91-.885-1.472-2.25-1.43-2.147.067-2.158.11-.25.93 1.875.806 1.852.864-.357.93-1.864.055-2.206-.296-1.637-1.68 1.504-3.653 1.69-5.25.61-5.25-.614 0-1.116.45-1.116 1s-1.462 1.067-3.25 1.15c-3.025.14-3.06.179-.5.566 1.965.298 2.75.999 2.75 2.457 0 1.45-.458 1.865-1.582 1.434-.87-.334-2.22-.607-3-.607-.78 0-1.47-1.012-1.534-2.25-.087-1.693-.23-1.817-.573-.5-.252.963-1.235 1.75-2.184 1.75-.95 0-2.333.563-3.074 1.25-1.08 1.003-1.202.995-.614-.044.403-.711.223-1.909-.401-2.66-.78-.94-.807-1.57-.087-2.016.577-.356 1.049-.171 1.049.411s.388 1.059.861 1.059c.474 0 .647-1.125.384-2.5l-.478-2.5h9.723c8.233 0 9.636.23 9.148 1.5-.316.825-.14 1.5.393 1.5s.969-.675.969-1.5c0-.85.896-1.5 2.066-1.5 1.136 0 2.888-.44 3.893-.978 1.385-.741 2.7-.385 5.438 1.472 5.343 3.627 14.845 7.977 16.887 7.732 2.436-.293 3.3 2.467 1.428 4.561-4.181 4.677-1.001 12.213 5.153 12.213 1.576 0 4.076-.952 5.555-2.116zm-64.914-16.864c-.648-2.041-2.37-2.274-3.85-.52-.492.583-.612.276-.287-.735.483-1.506.293-1.572-1.437-.5-1.633 1.012-2.165.964-2.947-.265-1.576-2.476-1.15-3 2.442-3 2.422 0 3.56.513 3.884 1.75.435 1.667.463 1.667.573 0 .064-.963.552-1.75 1.085-1.75.532 0 .737.603.454 1.34-.283.737.181 1.917 1.031 2.622 1.721 1.428 2.046 3.038.613 3.038-.513 0-1.215-.89-1.56-1.98zM225 273c0-12.16-.124-13-1.923-13-2.636 0-7.553 4.32-9.062 7.963-2.378 5.74.96 13.082 7.485 16.468 1.65.856 3.112 1.56 3.25 1.563.137.003.25-5.844.25-12.994zm-37.817 9.783c-.717-.717-1.183-.776-1.183-.15 0 1.335 1.183 2.518 1.85 1.85.284-.284-.016-1.049-.667-1.7zm-3.754-4.576c-1.053-.939-1.355-1.055-.672-.257.684.797 1.236 2.147 1.228 3-.014 1.366-.13 1.372-.985.05-.85-1.314-.971-1.304-.985.083-.025 2.63 1.386 3.185 2.388.94.722-1.618.495-2.505-.974-3.816zm25.233 2.543c-.277-.688-.504-.125-.504 1.25s.227 1.937.504 1.25c.278-.688.278-1.813 0-2.5zM175 278.378c0-.758.927-1.378 2.059-1.378 1.302 0 1.797.425 1.346 1.155-.422.682-.277.884.355.493.588-.363 1.297-.095 1.576.596.278.69.542.243.585-.994.043-1.238.642-2.257 1.329-2.265.833-.01.75-.339-.25-.985-.825-.533-1.95-.97-2.5-.97s-.325.437.5.97c1.65 1.067.901 1.304-3.25 1.03-1.512-.1-2.75.33-2.75.954 0 .624-.338.925-.75.67-.412-.254-.75.58-.75 1.856 0 1.743.311 2.062 1.25 1.283.688-.571 1.25-1.658 1.25-2.415zm25.73 2.018c-.333-.332-1.196-.368-1.917-.08-.798.32-.561.557.604.605 1.054.043 1.644-.193 1.312-.525zm-12.1-2.916c-.338-.884-.973-1.386-1.409-1.117-.436.27-.792-.302-.792-1.27s.535-1.76 1.19-1.76c.655 0 .96.6.679 1.334-.282.733.013 1.333.654 1.333s.912-.412.6-.915c-.31-.503-.122-1.065.42-1.25.54-.184-.357-1.102-1.995-2.038-2.49-1.425-2.977-1.466-2.977-.25 0 .799-.562 1.46-1.25 1.468-.905.011-.87.256.128.889.758.48 1.088 1.342.733 1.916-.354.574.348 1.739 1.562 2.589 2.5 1.75 3.361 1.425 2.458-.93zm23.3.437c.038.779.306 1.18.594.893.287-.288.225-1.3-.14-2.25-.525-1.37-.838-1.451-1.508-.394-.465.734-.82 2.009-.79 2.834.036.99.347.819.914-.5.508-1.181.888-1.42.93-.583zM199.384 275c.97-1.303.887-1.32-.634-.128-.963.755-1.714 2.105-1.671 3 .066 1.362.17 1.383.634.128.306-.825 1.058-2.175 1.671-3zm9.932 1.901c.301-1.154.283-1.833-.042-1.509-.324.325-1.167.112-1.872-.474-1.037-.86-1.055-.572-.092 1.501 1.435 3.093 1.33 3.068 2.006.482zM170 277c-1.213-.784-1.07-.972.75-.985 1.238-.008 2.25-.465 2.25-1.015 0-1.82-3.91-1.037-5 1-.926 1.73-.762 1.998 1.215 1.985 1.842-.013 1.994-.204.785-.985zm-42.527-4.295c-2.6-1.707-7.473-3.788-7.473-3.191 0 .562 7.082 4.221 8.473 4.377.534.06.084-.474-1-1.186zm40.48-.149c.982-1.183.824-1.415-.877-1.287-2.117.16-2.603.871-1.41 2.064.89.89.91.883 2.287-.777zM175 273c0-.55-.787-.993-1.75-.985-1.496.013-1.532.157-.25.985 1.887 1.22 2 1.22 2 0zm29.25.338c-.688-.278-1.813-.278-2.5 0-.688.277-.125.504 1.25.504s1.938-.227 1.25-.504zm6.528-8.338c1.44-3.495 4.435-6.431 8.115-7.956 4.31-1.785 6.289-6.353 5.91-13.647-.274-5.29-.556-5.946-2.913-6.77-8.692-3.044-16.947 8.213-10.48 14.29 1.387 1.301 3.193 2.062 4.25 1.79 1.476-.381 1.388-.498-.441-.591-5.476-.278-3.2-6.116 2.384-6.116 2.774 0 3.471.448 4.005 2.574 1.612 6.422-5.613 10.682-11.95 7.045-1.61-.925-3.002-1.555-3.091-1.4-1.904 3.303-2.2 5.563-.953 7.268 2.029 2.774 1.7 5.183-.984 7.208l-2.37 1.788 3.12 1.02c2.875.94 3.169.823 3.744-1.491.343-1.382 1.087-3.637 1.654-5.012zm.915 4.269c-.254-.973-.478-.419-.498 1.231-.02 1.65.187 2.446.46 1.769.275-.677.292-2.027.038-3zM174 270c-.825-.533-2.175-.945-3-.914-.99.036-.819.347.5.914 2.75 1.181 4.328 1.181 2.5 0zm-60-.632c0-.347-1.607-2.147-3.571-4-3.1-2.924-3.298-3.368-1.5-3.368 1.336 0 2.043-.621 1.992-1.75-.047-1.045-.282-1.247-.583-.5-.278.688-1.169 1.25-1.98 1.25-.812 0-1.23-.399-.928-.887.301-.487-.235-1.5-1.191-2.25-1.605-1.258-1.623-1.216-.239.54 1.7 2.159 1.688 2.554-.117 3.67-1.42.877-4.363-2.534-4.376-5.073-.01-2.196-3.424-5.246-5.136-4.589-.811.311-1.214.144-.895-.372.319-.516-.333-1.427-1.448-2.024-2.263-1.211-2.696-.135-.778 1.932 1 1.077 1 1.205 0 .64-2.056-1.16-1.424-.091 1.47 2.489 1.496 1.333 2.115 1.636 1.377.674-.738-.963-.892-1.75-.342-1.75 1.453 0 3.351 2.56 2.517 3.395-.391.39-.012.443.842.115.99-.38 1.553-.037 1.553.947 0 1.9-.076 1.9-3.717.017-2.001-1.035-2.95-1.156-2.95-.377 0 .82-.427.793-1.5-.097-1.22-1.013-1.5-.964-1.5.26 0 1.823 3.712 2.996 4.373 1.384.258-.63.505-.357.548.606.043.962.556 1.75 1.138 1.75.582 0 .78-.45.441-1-.34-.55-.141-1 .441-1s1.059.477 1.059 1.059.45.78 1 .441c.55-.34 1.007-.029 1.015.691.013 1.06.177 1.055.861-.025.676-1.066.973-1.003 1.478.314.347.906 1.085 1.367 1.639 1.024.554-.342 1.007-.097 1.007.544s.675.907 1.5.59c.825-.316 1.5-.214 1.5.227 0 1.574-1.337 2.1-2.624 1.032-.72-.597-1.886-.872-2.592-.61-.763.282-.208.904 1.369 1.532 1.459.582 2.948 1.535 3.309 2.12.696 1.126 5.538 1.501 5.538.43zm52.73.028c-.333-.333-1.196-.368-1.917-.08-.798.32-.561.557.604.605 1.054.043 1.644-.193 1.312-.525zm16.36-.788c-1.293-1.558-5.41-2.934-4.532-1.515.308.499-.254.914-1.249.922-1.534.013-1.58.163-.309.985.825.533 2.793.976 4.372.985 2.342.012 2.66-.242 1.718-1.377zm-3.277-.291c.721-.289 1.584-.254 1.916.079.332.332-.258.568-1.312.525-1.165-.048-1.402-.285-.604-.604zM125.5 268c-.34-.55-.124-1 .48-1 .707 0 .639-.496-.19-1.39-.871-.937-1.508-1.041-1.96-.32-1.121 1.79-4.072 1.782-3.384-.009.505-1.317.352-1.359-.965-.265-1.724 1.43-1.043 2.534 2.019 3.27 3.457.832 4.639.747 4-.286zm76.5.607c0-.216-.698-.661-1.552-.989-.89-.341-1.291-.173-.94.393.586.95 2.492 1.406 2.492.596zM117 267c0-.55-.477-1-1.059-1s-.78.45-.441 1c.34.55.816 1 1.059 1s.441-.45.441-1zm44 0c0-.55-.477-1-1.059-1s-.78.45-.441 1c.34.55.816 1 1.059 1s.441-.45.441-1zm10.636-.506c-3.359-1.752-3.636-1.795-3.636-.567 0 .917 2.105 1.739 5 1.95.825.061.211-.562-1.364-1.383zm-5.367-.15c-.677-.274-2.027-.29-3-.037-.973.253-.419.478 1.231.498 1.65.02 2.446-.187 1.769-.461zm30.978-1.832c-.262-1.369-.875-2.242-1.364-1.94-.503.311-.438 1.39.15 2.489 1.399 2.615 1.785 2.44 1.214-.55zm5.753.37c0-.55-.45-.722-1-.382-.55.34-1 1.068-1 1.618s.45.722 1 .382c.55-.34 1-1.068 1-1.618zm10.382.566c.341-.89.173-1.291-.393-.94-.544.335-.989 1.033-.989 1.551 0 1.438.717 1.121 1.382-.61zM175 265.287c-.825-.306-2.175-1.058-3-1.671-1.303-.97-1.32-.887-.128.634.755.963 2.105 1.714 3 1.671 1.362-.066 1.383-.17.128-.634zm29.706-1.612c-.298-.776-1.69-1.63-3.094-1.898-1.403-.269-2.314-.103-2.023.367.291.471 1.402.856 2.47.856 1.145 0 1.941.684 1.941 1.667 0 .916.28 1.386.624 1.043.342-.343.38-1.259.082-2.035zM101 264c-.825-.533-2.175-.945-3-.914-.99.036-.819.347.5.914 2.75 1.181 4.328 1.181 2.5 0zm46.73.396c-.333-.332-1.196-.368-1.917-.08-.798.32-.561.557.604.605 1.054.043 1.644-.193 1.312-.525zm6.539-.052c-.677-.274-2.027-.29-3-.037-.973.253-.419.478 1.231.498 1.65.02 2.446-.187 1.769-.461zm-40.019-1.006c-.688-.278-1.813-.278-2.5 0-.688.277-.125.504 1.25.504s1.938-.227 1.25-.504zm101.878-2.088c1.243-1.586 1.208-1.621-.378-.378-.963.755-1.75 1.543-1.75 1.75 0 .823.821.294 2.128-1.372zm-20.602-1.057c-.307-.308-1.114 0-1.793.683-.98.988-.865 1.102.56.56.986-.376 1.541-.935 1.233-1.243zm32.467-4.943l-.007-5.75-1.973 2.994c-1.841 2.793-1.857 3.04-.243 3.68 1.529.606 1.497.707-.27.872-1.707.159-1.743.253-.25.643.962.252 1.75 1.1 1.75 1.884 0 .785.225 1.427.5 1.427s.497-2.588.493-5.75zM90 258.099c0-.496-1.533-1.806-3.407-2.911-3.265-1.927-3.426-1.934-3.886-.174-.296 1.13-.032 1.664.685 1.39.64-.247 2.052.222 3.137 1.042 2.27 1.716 3.471 1.942 3.471.653zM206.688 251c1.077 0 1.144-.446.3-2.02-.594-1.112-.765-2.532-.38-3.155.43-.695.254-.858-.453-.42-.635.392-1.155 1.78-1.155 3.083 0 1.303-.654 3.023-1.452 3.822-.8.798-1.145 1.76-.769 2.136.376.376 1.099-.246 1.605-1.381.507-1.136 1.544-2.065 2.304-2.065zm12.44 2.25c1.27-1.619 1.222-1.64-.628-.283-1.1.807-2.188 1.594-2.417 1.75-.229.156.054.283.628.283s1.662-.787 2.417-1.75zM201 250.622c0-.207-.787-.995-1.75-1.75-1.586-1.243-1.621-1.208-.378.378 1.307 1.666 2.128 2.195 2.128 1.372zm16.358-3.515c-.466-.59-3.358 2.007-3.358 3.015 0 .483.825.09 1.833-.872 1.009-.963 1.695-1.927 1.525-2.143zm-129.55 1.818c-.197-.591-.78-1.008-1.294-.926-.515.082-1.26-.672-1.655-1.675-.636-1.616-.726-1.576-.789.343-.064 1.967 1.013 3.04 3.263 3.254.459.043.672-.405.475-.996zm36.395-.947c1.263-.563 5.672-1.404 9.797-1.87 6.363-.72 4.848-.85-10-.861-12.873-.01-16.16.211-12.429.836 2.79.467 6.164 1.286 7.5 1.82 1.336.533 2.52.999 2.632 1.034.112.035 1.237-.397 2.5-.96zM83 246.513c0-.639-6.919-3.52-8.372-3.487-.62.015.672.878 2.872 1.92 4.226 2 5.5 2.362 5.5 1.567zm65-1.559c1.095-.741.69-.834-1.5-.344-3.677.823-4.475 1.395-1.917 1.375 1.054-.008 2.592-.472 3.417-1.03zm5.25-2.346c.963-.73 1.75-1.657 1.75-2.058 0-1.413-5.513-8.508-6.628-8.529-.62-.011-1.687-.696-2.372-1.521-.685-.825-2.283-1.5-3.551-1.5-1.268 0-3.1-.787-4.072-1.75-1.681-1.667-1.734-1.667-1.102 0 .436 1.153.18 1.75-.749 1.75-.87 0-1.264-.762-1.029-1.984.21-1.091-.23-2.329-.977-2.75-.747-.421-1.507-1.436-1.69-2.254-.181-.818-1.604-2.05-3.162-2.736-1.592-.702-3.33-2.568-3.97-4.265-1.048-2.777-4.143-4.899-5.365-3.678-.283.284-.212 1.474.16 2.644.494 1.556 1.009 1.851 1.916 1.098.926-.768 2.349.643 5.602 5.555 2.398 3.621 5.639 7.53 7.202 8.685 1.563 1.156 2.618 2.683 2.346 3.393-.302.786.274 1.292 1.472 1.292 1.083 0 1.969.477 1.969 1.059s-.427.795-.949.473c-.521-.323-10.084-.612-21.25-.643-25.42-.07-26.287-.042-25.433.812.82.82 45.249 1.398 47.983.624 1.346-.381 1.55-.823.75-1.624-1.775-1.775-1.31-4.701.746-4.701 3.032 0 9.153 6.663 9.153 9.965 0 1.577-.563 3.095-1.25 3.373-.688.277-.8.525-.25.551.55.026 1.788-.55 2.75-1.281zm-6.377-.27l2.373-.636-2.373-1.315c-1.794-.995-8.35-1.294-26.873-1.226-13.475.049-22.7.391-20.5.76 2.2.368 4.9 1.198 6 1.844 2.147 1.26 37 1.743 41.373.572zM99 241.616c0-.211-1.111-.596-2.47-.856-1.358-.26-2.232-.087-1.94.383.511.829 4.41 1.246 4.41.473zm82-1.002c0-.212-1.238-1.138-2.75-2.06l-2.75-1.674 2.36 2.06c2.305 2.01 3.14 2.455 3.14 1.674zm-88.684-1.7c-1.596-1.595-.38-4.915 1.8-4.915 1.505 0 2.56-2 1.715-3.25-.093-.138.365-1.247 1.017-2.466 1.06-1.98.871-2.378-1.782-3.75-3.812-1.971-5.457-1.937-1.816.038 3.196 1.734 3.549 3.406.866 4.108-1.18.308-1.717 1.129-1.439 2.194.245.936-.621 2.853-1.925 4.26-2.36 2.546-2.362 2.56-.31 3.588 2.828 1.419 3.13 1.45 1.874.194zm68.413.48c-.332-.331-1.195-.367-1.917-.078-.797.32-.56.556.605.604 1.054.043 1.644-.193 1.312-.525zm-12.729-.86c0-.255-1.012-.955-2.25-1.555-2.16-1.047-2.173-1.029-.309.465 2.04 1.634 2.559 1.855 2.559 1.09zm19-.535c1.828-1.181.25-1.181-2.5 0-1.319.567-1.49.878-.5.914.825.03 2.175-.38 3-.914zm-104-.477c0-.262-1.1-1.198-2.446-2.08-1.898-1.243-2.851-1.35-4.25-.475-1.566.979-1.491 1.041.571.473 1.507-.416 2.145-.282 1.744.366-.347.562-.066 1.25.625 1.529 1.677.676 3.756.78 3.756.187zm3-.456c0-.513.924-1.225 2.053-1.584 2.819-.894 1.131-2.76-4.414-4.877-3.07-1.172-5.034-1.386-6.736-.733l-2.403.921 2.5.997c1.375.548 3.59 2.17 4.924 3.603 2.486 2.672 4.076 3.325 4.076 1.673zm144.369.145c.268-.433-.718-.854-2.191-.934-2.338-.128-2.424-.037-.678.717 1.1.476 2.086.896 2.191.935.105.038.41-.285.678-.718zm17.314-1.4c-.32-.797-.556-.56-.604.605-.043 1.054.193 1.644.525 1.312.332-.332.368-1.195.08-1.917zM54.75 234c.87 0 1.336-.247 1.035-.549-.302-.301-1.77-.242-3.262.133-1.978.496-2.349.907-1.368 1.516.766.476 1.488.42 1.678-.132.184-.532 1.046-.968 1.917-.968zm29.167 1.676c-4.14-3.218-6.824-4.597-6.303-3.239.403 1.05-.008 1.61-1.257 1.705-1.021.078-.057.464 2.143.858 5.62 1.006 5.884 1.04 5.417.676zm2.465-1.228c.341-.89.173-1.291-.393-.94-.544.335-.989 1.033-.989 1.551 0 1.438.717 1.121 1.382-.61zM147 235.655c0-.19-1.012-1.202-2.25-2.25l-2.25-1.905 1.905 2.25c1.79 2.114 2.595 2.705 2.595 1.905zm58-.038c0-.211-.9-.62-2.001-.907-1.101-.288-1.75-.115-1.441.383.538.871 3.442 1.313 3.442.524zm-132-1.995c0-.207-.787-.995-1.75-1.75-1.586-1.243-1.621-1.208-.378.378 1.307 1.666 2.128 2.195 2.128 1.372zm127 .033c0-.19-1.012-1.202-2.25-2.25l-2.25-1.905 1.905 2.25c1.79 2.114 2.595 2.705 2.595 1.905zm13.5-1.126c2.2-.793 3.243-1.461 2.317-1.485-2.042-.053-3.218-3.31-2.388-6.616.474-1.891 1.268-2.428 3.59-2.428 2.314 0 2.981.447 2.981 2 0 1.216-.667 2-1.7 2-1.23 0-1.398.302-.607 1.093 1.647 1.646 5.308-.687 5.3-3.378-.008-2.588-2.868-7.239-5.65-9.187-3.713-2.601-8.77-2.861-13.06-.672-7.992 4.077-9.603 11.024-3.883 16.744 3.813 3.813 6.694 4.237 13.1 1.929zM52.033 230.5c1.357-1.85 1.336-1.897-.283-.628-.963.755-1.75 1.843-1.75 2.417 0 .574.127.857.283.628.156-.23.943-1.317 1.75-2.417zM225 231.7c0-.923-1.084-1.154-3.75-.797l-3.75.501 3.5.666c1.925.367 3.612.726 3.75.798.138.073.25-.453.25-1.167zm-152.345-1.529c-.91-1.006-1.655-2.742-1.655-3.859 0-2.432-7.174-10.863-9.835-11.559-1.76-.46-1.788-.304-.419 2.44.805 1.613 1.256 4.017 1.003 5.342-.397 2.073.14 2.64 3.846 4.054 2.369.905 5.074 2.493 6.011 3.528.937 1.036 1.929 1.883 2.204 1.883.275 0-.245-.823-1.155-1.829zm60.234-.06c-1.979-1.602-2.489-1.673-3.372-.466-.82 1.122-3.571 1.363-13.028 1.139-10.706-.254-11.974-.471-11.85-2.034.177-2.232.157-2.226-2.639.75l-2.349 2.5h17.785c17.592 0 17.76-.02 15.453-1.888zm-58.67-1.361c-.565-.688-1.234-2.375-1.487-3.75l-.46-2.5-.136 2.55c-.075 1.403.404 3.09 1.064 3.75 1.582 1.582 2.328 1.545 1.018-.05zm29.884-5c2.92-3.443 3.975-5.127 2.349-3.75-5.225 4.425-6.965 5.058-8.815 3.209-.9-.9-1.637-1.146-1.637-.546 0 .6.685 1.66 1.523 2.356.879.73 1.273 2.05.932 3.122-.95 2.994.032 2.23 5.648-4.391zM64 228c-.825-.533-1.95-.97-2.5-.97s-.325.437.5.97c.825.533 1.95.97 2.5.97s.325-.437-.5-.97zm63-.5c0-.825-.177-1.5-.393-1.5-.216 0-.652.675-.969 1.5-.316.825-.14 1.5.393 1.5s.969-.675.969-1.5zm51 1.155c0-.19-1.012-1.202-2.25-2.25l-2.25-1.905 1.905 2.25c1.79 2.114 2.595 2.705 2.595 1.905zm-68.618-3.207c.341-.89.173-1.291-.393-.94-.544.335-.989 1.033-.989 1.551 0 1.438.717 1.121 1.382-.61zm12.102-3.698c-3.273-7.09-5.563-7.388-8.08-1.054-1.047 2.637-2.054 5.134-2.237 5.55-.184.414 2.608.754 6.204.754h6.537zm105.84 4.458c.285.71.522-.733.527-3.208.006-3.18-.22-3.915-.77-2.507-.712 1.824-.918 1.724-2.422-1.186-.905-1.75-2.099-3.46-2.654-3.804-.554-.343-.057.99 1.106 2.96 1.257 2.13 1.92 4.59 1.638 6.069-.367 1.92-.187 2.247.79 1.435.904-.75 1.415-.68 1.785.241zm-120.196-1.958c1.243-1.586 1.208-1.621-.378-.378-.963.755-1.75 1.543-1.75 1.75 0 .823.821.294 2.128-1.372zm-50.006-1.925c-1.179-2.027-1.463-1.378-.498 1.136.342.894.834 1.415 1.091 1.157.258-.257-.01-1.29-.593-2.293zm46.789-3.733c3.202-3.304 3.24-3.44 1.261-4.5-1.122-.6-4.034-1.092-6.471-1.092-8.943 0-12.881 7.481-4.112 7.81 2.032.077 3.93.376 4.22.665.984.985 1.799.525 5.102-2.883zm7.089 2.8c0-.827-1.942-1.295-2.387-.575-.289.467.13.85.931.85.8 0 1.456-.124 1.456-.275zm13.756-3.027c-1.001-2.199-2.756-2.356-2.756-.247 0 .55.526.675 1.17.277.76-.47.969-.2.595.774-.33.86-.017 1.498.733 1.498 1.001 0 1.062-.539.258-2.302zm34.494 1.973c-.688-.278-1.813-.278-2.5 0-.688.277-.125.504 1.25.504s1.938-.227 1.25-.504zm-71.588-3.588c-.277-.688-.504-.125-.504 1.25s.227 1.938.504 1.25c.278-.688.278-1.813 0-2.5zM70 218.674c0-.179-1.238-1.416-2.75-2.75L64.5 213.5l2.424 2.75c2.266 2.57 3.076 3.209 3.076 2.424zm45.354-5.03c1.314.112 1.46-.164.62-1.176-.725-.873-2.312-1.125-4.67-.742-2.796.453-3.466.274-3.08-.823.27-.772 1.26-1.336 2.2-1.253.94.082 1.453-.106 1.14-.419-.312-.313.22-1.444 1.184-2.514 1.433-1.59 1.076-1.514-1.956.419-4.07 2.595-4.589 3.958-2.246 5.902.85.705 1.305 1.909 1.011 2.674-.294.766-.12 1.136.385.824.506-.313 1.27-.003 1.696.688.533.862.969.475 1.389-1.234.378-1.541 1.265-2.435 2.327-2.345zm30.896 3.65c-1.238-.238-3.263-.238-4.5 0-1.238.239-.225.434 2.25.434s3.487-.195 2.25-.434zm-89.92-2.877c-.398-1.038.355-1.448 2.813-1.533 1.846-.064 2.534-.329 1.528-.589-3.178-.82-6.671.59-6.671 2.693 0 1.284.49 1.761 1.437 1.398a1.533 1.533 0 0 0 .893-1.969zm168.64-29.27l-.05-29.854-2.46.47c-1.97.376-2.46.06-2.46-1.59 0-4.501-8.109-6.72-13.802-3.775-3.622 1.872-5.898 4.526-6.725 7.837-.578 2.319-.292 2.883 1.882 3.71 4.16 1.582 6.645 4.726 6.645 8.409 0 6.076-7.204 11.042-10.8 7.446-1.658-1.658-1.504-5.303.287-6.79 1.905-1.58 4.508-.599 4.528 1.709.012 1.384.208 1.478.878.42 2.451-3.869-3.455-9.014-7.725-6.73-8.08 4.326-7.947 18.16.218 22.53 5.921 3.169 14.153-1.994 12.93-8.11-.546-2.729-.381-2.974 1.791-2.667 2.148.303 2.387.82 2.332 5.056-.054 4.181.23 4.823 2.5 5.642 8.07 2.91 11.675 12.99 6.71 18.76l-2.35 2.733 2.6 2.292c1.43 1.26 2.718 2.306 2.86 2.323.143.018.237-13.402.21-29.822zM98.761 211.312c-.956-.25-2.756-.26-4-.02-1.244.239-.462.444 1.738.455 2.2.01 3.218-.185 2.262-.435zm5.967.083c-.332-.332-1.195-.368-1.917-.08-.797.32-.56.557.605.605 1.054.043 1.644-.193 1.312-.525zm23.29-.919c1.057-1.273.995-1.42-.378-.893-.902.347-1.641 1.032-1.641 1.523 0 1.286.579 1.105 2.019-.63zm81.617-.226c1.725-.244 4.142.095 5.37.753 1.662.889 2.05.896 1.515.03-.399-.645.107-1.833 1.129-2.656 1.718-1.382 1.685-1.408-.464-.364-1.779.865-2.683.82-3.913-.195-1.26-1.04-1.687-1.054-2.019-.069-.69 2.047-3.445 1.43-6.696-1.5l-3.05-2.75 2.496 2.83c2.477 2.81 2.48 2.843.496 4.385l-2 1.554 2-.787c1.1-.433 3.411-.986 5.136-1.23zm-88.175-1.904c1.133.434.958-.213-.64-2.375-2.635-3.565-3.19-3.653-4.523-.722-.713 1.57-.686 2.783.09 4.014 1.024 1.624 1.207 1.634 2.314.124.672-.916 1.89-1.375 2.76-1.041zm81.969.54c-.814-1.317-2.144-1.075-2.748.5-.373.97.042 1.237 1.382.886 1.052-.275 1.667-.9 1.366-1.387zm-7.68.424c-.963-.252-2.538-.252-3.5 0-.963.251-.175.457 1.75.457s2.712-.206 1.75-.457zm2.084-5.955c-.21-1.1-1.273-1.91-2.61-1.99-2.084-.122-2.094-.097-.139.334 1.642.361 2.01 1.025 1.64 2.959-.308 1.61-.133 2.15.493 1.523.533-.533.81-1.805.616-2.826zm16.431-2.172c2.745.392 3.525 3.472 1.042 4.116-1.557.403-1.524.484.243.584 5.03.285 6.042-5.984 1.645-10.197-3.54-3.392-7.496-3.477-10.74-.232-3.035 3.034-3.148 6.821-.284 9.49l2.17 2.022 1.855-3.05c1.327-2.182 2.485-2.96 4.07-2.733zm.261 2.01c-.307-.309-1.114-.002-1.793.682-.98.988-.865 1.102.56.56.986-.376 1.541-.935 1.233-1.243zm-28.833-2.925c-.254-.973-.478-.419-.498 1.231-.02 1.65.187 2.446.46 1.769.275-.677.292-2.027.038-3zm5.976-2.972c2.02-1.324 3.106-1.443 5.368-.59 2.234.844 2.947.776 3.367-.318.403-1.05-.5-1.389-3.713-1.389-5.745 0-8.734 2.206-8.541 6.307.143 3.055.168 3.073.568.421.233-1.539 1.545-3.51 2.951-4.431zm9.713 4.151c.355-.926.179-1.294-.437-.914-.568.351-1.8.045-2.739-.68-1.299-1.005-1.252-.787.199.913 2.267 2.657 2.222 2.647 2.977.681zm-85.03-2.973c-.376-.98-1.35-1.263-2.956-.86-1.96.493-2.396.219-2.396-1.507 0-1.637.615-2.105 2.75-2.093 2.143.012 2.419.23 1.25.985-1.297.838-1.275.971.167.985.916.008 1.843-.516 2.06-1.165.216-.649 1.119-.901 2.005-.561 1.81.694 1.304 4.72-.599 4.771-.623.017-.355.484.595 1.038 1.259.733 2.413.558 4.25-.646 3-1.965 3.212-3.825.641-5.626-1.034-.724-2.107-2.212-2.384-3.306-.454-1.797-.514-1.772-.619.26-.158 3.066-5.614 3.28-6.406.25-.287-1.1-1.127-1.964-1.866-1.921-1.01.06-1.034.204-.094.583 1.94.783 1.473 3.046-.75 3.628-2.963.775-2.522 4.373.746 6.085 3.085 1.616 4.442 1.277 3.606-.9zm104.772-1.742c-.988-.98-1.102-.865-.56.56.376.986.935 1.541 1.243 1.233.308-.307 0-1.114-.683-1.793zm-31.693-2.636c-.263-.263-1.255.333-2.205 1.324-1.65 1.722-1.628 1.744.479.479 1.212-.729 1.989-1.54 1.726-1.803zm30.569.525c0-.207-.787-.995-1.75-1.75-1.586-1.243-1.621-1.208-.378.378 1.307 1.666 2.128 2.195 2.128 1.372zm-25-2.926c0-.167-1.688-1.854-3.75-3.75l-3.75-3.446 3.446 3.75c3.208 3.49 4.054 4.21 4.054 3.446zm13.02-1.22c1.838-2.215.792-2.47-1.27-.31-.963 1.009-1.355 1.834-.872 1.834.482 0 1.446-.686 2.142-1.524zm-88.77-1.138c-.688-.278-1.813-.278-2.5 0-.688.277-.125.504 1.25.504s1.938-.227 1.25-.504zM107.5 188c-2.75-1.181-4.328-1.181-2.5 0 .825.533 2.175.945 3 .914.99-.036.819-.347-.5-.914zm-4.5-1.393c0-.216-.698-.661-1.552-.989-.89-.341-1.291-.173-.94.393.586.95 2.492 1.406 2.492.596zm10.757-.835c-.225-.676-1.5-1.238-2.833-1.25-1.487-.014-2.316-.538-2.145-1.358.153-.735-.635-1.575-1.75-1.867-2.435-.636-2.622-2.984-.433-5.404 1.513-1.67 1.196-1.76-6.023-1.695-4.19.037-7.86.459-8.156.937-.841 1.36 5.57 6.835 11.083 9.462 5.426 2.587 10.938 3.218 10.257 1.175zm12.808-.662c4.164-1.892 11.435-7.686 11.435-9.113 0-.438-2.025-.957-4.5-1.154-4.744-.377-5.45.124-3.021 2.14 1.848 1.533.225 5.224-1.934 4.396-.798-.306-1.995.369-2.725 1.537-.716 1.146-2.291 2.084-3.502 2.084-1.21 0-2.478.45-2.818 1-.977 1.58 2.624 1.127 7.065-.89zM96 182.687c0-.172-1.462-1.635-3.25-3.25L89.5 176.5l2.937 3.25c2.738 3.03 3.563 3.71 3.563 2.937zm28.128-1.437c1.243-1.586 1.208-1.621-.378-.378-.963.755-1.75 1.543-1.75 1.75 0 .823.821.294 2.128-1.372zM138 180.5c1.292-1.375 2.124-2.5 1.849-2.5-.275 0-1.557 1.125-2.849 2.5-1.292 1.375-2.124 2.5-1.849 2.5.275 0 1.557-1.125 2.849-2.5zm-23 .714c0-.432-.9-.785-2-.785s-2 .353-2 .785c0 .432.9.786 2 .786s2-.354 2-.786zm6.389-2.895c.848.325 1.616-.23 1.919-1.388.456-1.746-.058-1.931-5.37-1.931-4.812 0-5.771.272-5.3 1.5.317.825 1.428 1.5 2.469 1.5s1.893.505 1.893 1.122c0 .78.454.746 1.487-.111.818-.68 2.124-.99 2.902-.692zm-10.66.077c-.332-.332-1.195-.368-1.917-.08-.797.32-.56.557.605.605 1.054.043 1.644-.193 1.312-.525zm17 0c-.332-.332-1.195-.368-1.917-.08-.797.32-.56.557.605.605 1.054.043 1.644-.193 1.312-.525zm71.561-4.397c.288-1.101.115-1.75-.383-1.441-.499.308-.907 1.208-.907 2.001 0 2.07.68 1.775 1.29-.56zm-119.547-.408c.416-.417.307-.667-.243-.556-2.352.475-3.62-.174-4.469-2.285-.84-2.09-.909-2.034-.968.783-.054 2.611.284 3.018 2.43 2.924 1.37-.06 2.833-.45 3.25-.866zM88.71 173c-.287-1.1-.115-2 .384-2 .498 0 .906.479.906 1.064 0 .733 9.095 1 29.203.859 21.247-.15 29.307.107 29.585.942.21.631.837.867 1.392.524 1.417-.876-4.156-4.354-7.18-4.482l-2.5-.106 2.5-.715c1.375-.394 2.65-.349 2.833.1.618 1.509 2.54.83 5.396-1.905 2.558-2.45 3.058-2.585 5.055-1.359 2.16 1.327 2.171 1.31.45-.626-1.692-1.906-1.678-2.098.346-4.671 1.161-1.476 1.857-3.346 1.547-4.154-.635-1.655-2.627-2.011-2.627-.471 0 .55-.9 1-2 1s-2 .657-2 1.46c0 1.686-4.923 6.54-6.633 6.54-.634 0-1.412.675-1.729 1.5-.336.877-1.835 1.5-3.607 1.5-2.436 0-3.058-.441-3.167-2.25l-.136-2.25-.434 2.25c-.414 2.15-.908 2.26-11.114 2.454l-10.68.204 13 .592 13 .592-14 .322c-7.7.178-14.265.294-14.588.258-.324-.035-4.701-.147-9.728-.25-5.316-.107-8.9-.572-8.567-1.112.315-.51 1.993-.674 3.728-.364 2.772.496 2.872.442.822-.44-1.283-.551-3.39-.737-4.681-.413-1.597.4-2.834 0-3.864-1.252-4.295-5.22-5.713-6.699-5.122-5.341.359.825-.242.487-1.334-.75-1.093-1.238-2.554-2.25-3.248-2.25-.693 0-1.971-.64-2.84-1.424-1.358-1.225-1.846-1.227-3.497-.016-1.837 1.348-1.844 1.492-.156 3.357 1.274 1.408 1.597 2.87 1.164 5.266-.565 3.131-.534 3.177.567.817 1.656-3.55 1.656-4.28-.003-6.256-.81-.966-1.283-1.947-1.05-2.181.915-.914 12.706 11.533 12.467 13.16-.137.937.24 2.266.84 2.952 1.558 1.785 1.897 1.609 1.3-.675zm-.71-4c0-.55.675-1 1.5-1s1.5.45 1.5 1-.675 1-1.5 1-1.5-.45-1.5-1zm70.105 2.225c.523-1.376.713-2.74.423-3.03-.29-.29-.528.018-.528.686s-1.153 2.283-2.563 3.59c-2.368 2.194-2.4 2.332-.423 1.815 1.177-.308 2.568-1.685 3.09-3.061zM85 171.49c0-1.062-2.937-1.098-3.342-.04-.347.904.103 1.164 1.417.82 1.059-.277 1.925-.628 1.925-.78zm142.706-5.74c-.239-1.238-.434-.225-.434 2.25s.195 3.487.434 2.25c.238-1.238.238-3.263 0-4.5zM80 170.107c0-.491-.675-1.152-1.5-1.469-.914-.35-1.5-.002-1.5.893 0 .808.675 1.469 1.5 1.469s1.5-.402 1.5-.893zm74.46-.454c1.097-.803 1.431-1.602.825-1.977-.56-.346-1.823.26-2.806 1.348-2.037 2.25-.782 2.649 1.981.629zm-69.46.05c0-.163-1.77-2.025-3.931-4.136-2.327-2.272-3.837-3.19-3.699-2.251.306 2.084 3.674 5.775 4.695 5.144.438-.27 1.08-.035 1.425.524.586.949 1.51 1.388 1.51.719zm-5.128-3.453c-1.243-1.586-1.208-1.621.378-.378.963.755 1.75 1.543 1.75 1.75 0 .823-.821.294-2.128-1.372zm30.896 2.035c-1.503-.228-4.203-.232-6-.01-1.797.223-.568.41 2.732.415 3.3.006 4.77-.176 3.268-.405zM192 166.5c1.292-1.375 2.124-2.5 1.849-2.5-.275 0-1.557 1.125-2.849 2.5-1.292 1.375-2.124 2.5-1.849 2.5.275 0 1.557-1.125 2.849-2.5zM94.152 136c.341-27.95.31-28.5-1.652-28.5-1.952 0-2 .664-1.993 27.5.006 26.322.496 32.455 2.428 30.417.478-.504 1.026-13.742 1.217-29.417zM134 165c0-.63-6.686-1-18.059-1-11.785 0-17.844.347-17.441 1 .374.605 7.51 1 18.059 1 10.96 0 17.441-.372 17.441-1zm7.075-5.75c.567-43.735.4-51.75-1.075-51.75-1.295 0-1.522 3.934-1.663 28.75-.138 24.183.06 28.75 1.25 28.75 1.045 0 1.432-1.497 1.488-5.75zM148.5 161c.995-1.1 1.585-2 1.31-2-.275 0-1.315.9-2.31 2-.995 1.1-1.585 2-1.31 2 .275 0 1.315-.9 2.31-2zm-16.5.14l-4.5-.51 4.5-.665 4.5-.665-5.5-.313-5.5-.313L131 158l5.5-.674-7.678-.163-7.677-.163.55-5.336c.699-6.766-.71-9.664-4.695-9.664-3.63 0-5.038 2.355-4.893 8.184l.107 4.316.952-4.25c.787-3.513 1.356-4.25 3.284-4.25 2.517 0 3.402 2.092 3.176 7.5-.105 2.492-.592 3.054-2.876 3.316-1.719.198-2.75-.158-2.75-.95 0-.985-.267-1-1.2-.066-.713.713-4.15 1.2-8.473 1.2h-7.272l-.307-14.25-.307-14.25-.22 15.168c-.122 8.343.052 15.88.386 16.75.528 1.377 3.156 1.56 20.25 1.407 10.804-.096 17.618-.404 15.143-.685zm-24.75-.83c.963-.25 2.538-.25 3.5 0 .963.252.175.458-1.75.458s-2.712-.206-1.75-.457zm12.563.007c.721-.29 1.584-.254 1.916.079.332.332-.258.568-1.312.525-1.165-.048-1.402-.285-.605-.604zm-1.063-1.98c.688-.277 1.813-.277 2.5 0 .688.278.125.505-1.25.505s-1.938-.227-1.25-.505zM150.314 157c1.422 0 1.675-1.059 1.616-6.75-.053-5.038-.312-6.243-1.02-4.75-.822 1.728-.877 1.66-.406-.5 1.586-7.281 1.72-8.441.89-7.667-.492.459-.894 1.246-.894 1.75s-.45.911-1 .904c-.55-.007-1.013-.903-1.028-1.992-.016-1.088-.466-1.87-1-1.737-.535.133-.86.58-.722.992.137.412-.2.75-.75.75s-1-.675-1-1.5.562-1.507 1.25-1.515c.774-.01.87-.295.25-.75-.55-.404-1.119-1.41-1.264-2.235-.178-1.008.246-.844 1.293.5.856 1.1 1.875 2 2.264 2 .389 0 .594.338.457.75-.433 1.3 1.513.812 1.993-.5.642-1.757 1.015-36.342.385-35.711-.284.284-.605 6.691-.715 14.238-.15 10.414-.508 13.723-1.484 13.723-.707 0-1.993.707-2.858 1.571-1.428 1.429-1.571 1.429-1.571 0 0-.864.623-1.571 1.383-1.571 2.47 0 2.447-3.45-.035-5.322-2.022-1.525-2.348-1.557-2.348-.225 0 .851.563 1.579 1.25 1.617.688.039.35.457-.75.93-1.85.795-1.817.865.441.93 2.284.066 2.324.156.616 1.405-1.468 1.073-1.798 2.583-1.682 7.697.08 3.499.521 6.61.983 6.915.462.304 1.136 3.815 1.498 7.803.552 6.084.416 7.25-.849 7.25-.967 0-1.507.958-1.507 2.674v2.675l2.314-2.175c1.273-1.196 3.073-2.174 4-2.174zm-2.294-27.524c.696-.838 1.47-1.318 1.723-1.067.693.694-.716 2.591-1.924 2.591-.664 0-.588-.574.201-1.524zM88 158c0-1.111-.667-2-1.5-2-1.029 0-1.495-1.021-1.485-3.25.015-3.07 1.763-7.394 2.122-5.25.092.55.272 1.45.4 2s.284 2.087.348 3.417c.063 1.329.382 2.15.707 1.824.326-.326.273-4-.117-8.167-.51-5.437-1.1-7.574-2.092-7.574-.76 0-1.383.45-1.383 1s-.338 1-.75 1-.834-1.53-.936-3.4c-.143-2.614.262-3.517 1.751-3.907 1.066-.278 1.705-.13 1.42.331-.285.46-.06 1.12.499 1.466.59.364 1.016-.474 1.016-1.998 0-2.172-.347-2.517-2-1.992-1.192.378-2 .18-2-.492 0-.62.427-.862.95-.539 1.335.825 3.082-2.817 2.827-5.894-.22-2.654-1.777-3.678-1.777-1.169 0 .914-.7 1.224-2 .884-1.942-.508-2-.031-2 16.593C82 157.16 82.095 158 83.941 158c1.068 0 2.22.45 2.559 1 .959 1.55 1.5 1.19 1.5-1zm-5-30.035c0-1.433 2.118-2.247 3.153-1.212.639.639.26 1.167-1.087 1.52-1.136.297-2.066.158-2.066-.308zm144.683 28.848c-.32-.798-.556-.561-.604.604-.043 1.054.193 1.644.525 1.312.332-.332.368-1.195.08-1.917zm-90.955-11.563c-.215-2.063-.392-.375-.392 3.75s.177 5.813.392 3.75c.216-2.063.216-5.438 0-7.5zM80 127.5c0-23.778-.203-27.5-1.5-27.5-1.294 0-1.5 3.507-1.5 25.566 0 22.986.555 29.434 2.535 29.434.256 0 .465-12.375.465-27.5zm29.364 23.142c-.43-3.137-.143-5.05 1.023-6.83.891-1.36 1.43-2.66 1.198-2.892-.232-.23 1.904-.272 4.746-.09 6.387.406 7.669 1.887 7.669 8.861V155h11v-5.531c0-3.503-.459-5.708-1.25-6.012-1.809-.695-1.883-5.457-.085-5.457.8 0 1.175-.45.835-1-.34-.55-3.066-1-6.059-1-2.993 0-5.441-.45-5.441-1s-.642-1-1.427-1c-.784 0-1.655-.787-1.935-1.75-.308-1.062-.436-.804-.323.657.102 1.324-.44 2.62-1.204 2.88-.845.287-1.116.03-.691-.657.398-.645.065-1.13-.778-1.13-.811 0-1.679.563-1.928 1.25-.357.986-.931.966-2.717-.092-1.72-1.02-2.441-1.057-2.997-.158-.556.899-1.253.861-2.896-.158-1.84-1.141-2.304-1.119-3.093.15-.739 1.188-1.18 1.239-2.17.25-1.976-1.977-2.386-1.502-2.386 2.758 0 2.2.437 4 .972 4 .535 0 .433.54-.227 1.2-.66.66-1.2 3.585-1.2 6.5v5.3h11.962zm-7.552-8.325c.722-.289 1.585-.253 1.917.079.332.332-.258.568-1.312.525-1.165-.048-1.402-.285-.605-.604zm23.688-2.331c1.863-.483-2.05-.783-10.326-.791-7.33-.007-13.592-.28-13.917-.604-.325-.325 5.983-.591 14.017-.591 8.035 0 14.857.403 15.161.895.717 1.16-1.876 2.137-5.267 1.987-2.659-.118-2.658-.121.332-.896zm-8.793 9.776c-.239-1.244-.444-.462-.455 1.738-.01 2.2.185 3.218.435 2.262s.26-2.756.02-4zm28.128 3.64c.366.227.513-2.246.326-5.495-.467-8.153-2.18-7.46-2.082.843.043 3.712.307 6.185.585 5.494.279-.691.806-1.07 1.171-.843zM75.748 112.81c-.17-7.871-.308-1.711-.308 13.689s.138 21.84.307 14.31c.17-7.529.17-20.129.001-28zm80.237 12.939c.012-19.941-.267-25.75-1.235-25.75-.969-.001-1.193 4.78-.995 21.25.14 11.687.26 23.95.265 27.25.007 4.241.295 5.56.98 4.5.56-.868.976-12.352.985-27.25zm1.762-10.058c-.173-6.706-.314-.942-.313 12.808 0 13.75.141 19.236.314 12.192.172-7.045.171-18.295-.001-25zM223 151.655c0-.19-1.012-1.202-2.25-2.25l-2.25-1.905 1.905 2.25c1.79 2.114 2.595 2.705 2.595 1.905zm4.662-2.905c-.277-.688-.504-.125-.504 1.25s.227 1.938.504 1.25c.278-.688.278-1.813 0-2.5zM208 147.714c1.296-.48 1.288-.567-.059-.635-.857-.043-2.432.62-3.5 1.476-1.91 1.53-1.909 1.54.059.635 1.1-.506 2.675-1.17 3.5-1.476zm5.73-1.318c-.333-.332-1.196-.368-1.917-.08-.798.32-.561.557.604.605 1.054.043 1.644-.193 1.312-.525zm13.976-8.646c-.239-1.238-.434-.225-.434 2.25s.195 3.487.434 2.25c.238-1.238.238-3.263 0-4.5zm-139.79-.033c-.228-.156-1.316-.943-2.416-1.75-1.85-1.357-1.897-1.336-.628.283.755.963 1.843 1.75 2.417 1.75.574 0 .857-.127.628-.283zm41.334-3.38c-.688-.277-1.813-.277-2.5 0-.688.278-.125.505 1.25.505s1.938-.227 1.25-.504zm5 0c-.688-.277-1.813-.277-2.5 0-.688.278-.125.505 1.25.505s1.938-.227 1.25-.504zm-32.567-2.524c-.32-.798-.556-.561-.604.604-.043 1.054.193 1.644.525 1.312.332-.332.368-1.195.08-1.917zm6 0c-.32-.798-.556-.561-.604.604-.043 1.054.193 1.644.525 1.312.332-.332.368-1.195.08-1.917zm-7.698-2.122c.008-.445-.435-.53-.985-.191-.55.34-.993 1.379-.985 2.309.014 1.457.15 1.484.985.191.533-.825.976-1.864.985-2.309zm5.377 1.809c.316-.825.14-1.5-.393-1.5s-.969.675-.969 1.5.177 1.5.393 1.5c.216 0 .652-.675.969-1.5zm5.321-.688c-.32-.797-.556-.56-.604.605-.043 1.054.193 1.644.525 1.312.332-.332.368-1.195.08-1.917zm17.699.636c.341-.89.173-1.291-.393-.94-.544.335-.989 1.033-.989 1.551 0 1.438.717 1.121 1.382-.61zm6.118.552c.34-.55.141-1-.441-1s-1.059.45-1.059 1 .198 1 .441 1 .72-.45 1.059-1zm2.162-2.25c-.277-.688-.504-.125-.504 1.25s.227 1.938.504 1.25c.278-.688.278-1.813 0-2.5zm-18.86-.214c.71-1.56.767-2.685.153-3.064-.533-.33-1.19.105-1.462.965-.271.86-.704 2.238-.962 3.063-.772 2.47 1.06 1.693 2.27-.964zm5.58.912c.341-.89.173-1.291-.393-.94-.544.335-.989 1.033-.989 1.551 0 1.438.717 1.121 1.382-.61zm-9.17-1.777c.391-2.046.133-2.264-2.133-1.8-1.862.383-2.093.633-.829.903.963.205 1.75 1.015 1.75 1.8 0 2.215.718 1.68 1.212-.903zm-6.088-.938c-.988-.98-1.102-.865-.56.56.376.986.935 1.541 1.243 1.233.308-.307 0-1.114-.683-1.793zm23.417.334c-.362-.587-1.42-1.015-2.35-.951-1.525.105-1.519.161.059.573.962.252 1.75.95 1.75 1.551s.27.823.6.493c.33-.33.304-1.08-.059-1.666zM100 126.607c0-.216-.675-.652-1.5-.969-.825-.316-1.5-.14-1.5.393s.675.969 1.5.969 1.5-.177 1.5-.393zm24.73-.211c-.333-.332-1.196-.368-1.918-.08-.797.32-.56.557.605.605 1.054.043 1.644-.193 1.312-.525zm-10.656-2.986c1.559-1.877 6.832-1.819 7.562.084.316.822.998 1.232 1.517.912.518-.321 1.709-.265 2.645.125.936.39 2.99.83 4.564.98 2.743.263 2.617.025-3-5.66-4.043-4.092-5.962-5.456-6.185-4.393-.516 2.459-4.977 1.95-5.357-.611-.287-1.93-1.022-1.545-7.07 3.69-3.712 3.213-6.75 6.094-6.751 6.403-.003 1.201 10.962-.188 12.075-1.53zm-12.824-.66c1.238-1.238 2.126-2.621 1.975-3.074-.15-.454.086-.602.526-.33.44.272 3.248-1.537 6.239-4.02 5.419-4.5 5.443-4.51 7.122-2.436 1.418 1.75 1.779 1.837 2.275.544.325-.846.176-1.282-.33-.97-1.11.686-4.19-3.439-3.456-4.627.284-.46 1.56-.837 2.833-.837 1.741 0 2.456.7 2.881 2.825.363 1.815 2.825 4.81 6.882 8.372l6.318 5.546.093-3.878c.085-3.54-.394-4.276-5.507-8.457l-5.601-4.58 5.428 5.075c2.985 2.79 5.126 5.377 4.756 5.746-.37.37-1.49-.069-2.491-.975-1.46-1.32-2.096-1.401-3.208-.41-1.16 1.033-1.19.97-.174-.381.962-1.283.933-1.85-.14-2.742-.746-.618-1.651-.903-2.013-.632-.362.27-.436.194-.164-.17.271-.362-.348-1.249-1.376-1.969-2.401-1.682-3.314-5.08-1.547-5.759.743-.285 3.234 1.055 5.536 2.978 5.53 4.62 8.05 5.986 7.264 3.934-.322-.838-.926-1.523-1.343-1.523-1.483 0-11.007-8.36-11.58-10.164-.32-1.01-1.128-1.836-1.795-1.836-.666 0-1.86-.9-2.653-2-1.389-1.927-3.688-2.923-2.57-1.113.301.487-.078 1.406-.843 2.04-.765.636-1.669 2.262-2.008 3.614-.34 1.352-1.075 2.459-1.635 2.459-.94 0-13.944 9.96-13.944 10.68 0 1.057 2.022-.124 5.51-3.218 7.573-6.715 12.672-7.936 12.258-2.935-.106 1.281-.546 2.11-.977 1.844-1.133-.7-12.355 8.71-11.958 10.025.184.607 0 .77-.408.363-1.094-1.095-3.425 1.195-3.425 3.363 0 2.425.512 2.366 3.25-.372zM132 120c0-.55.477-1 1.059-1s.78.45.441 1c-.34.55-.816 1-1.059 1s-.441-.45-.441-1zm-19-17.3c0-3.618 4.684-4.812 7.345-1.871 2.475 2.735 2.084 3.171-2.845 3.171-3.026 0-4.5-.426-4.5-1.3zm-16.31 14.55c-.252-.963-.458-.175-.458 1.75s.206 2.712.457 1.75c.252-.963.252-2.538 0-3.5zm131.003 1.019c-.254-.973-.478-.419-.498 1.231-.02 1.65.187 2.446.46 1.769.275-.677.292-2.027.038-3zM88.728 109.25c-.215-2.063-.392-.375-.392 3.75s.177 5.813.392 3.75c.216-2.063.216-5.438 0-7.5zm18.5 1.96c2.6-2.315 4.464-4.21 4.141-4.21C110.14 107 98 117.225 98 118.26c0 1.095.579.653 9.228-7.05zm29.434 4.54c-.277-.688-.504-.125-.504 1.25s.227 1.938.504 1.25c.278-.688.278-1.813 0-2.5zm-54.979.063c-.32-.798-.556-.561-.604.604-.043 1.054.193 1.644.525 1.312.332-.332.368-1.195.08-1.917zm62.033-5.563c-.229-1.512-.416-.275-.416 2.75s.187 4.263.416 2.75c.23-1.512.23-3.987 0-5.5zm-47.027-3c-.251-.963-.457-.175-.457 1.75s.206 2.712.457 1.75c.252-.963.252-2.538 0-3.5zm39.973-.5c-.277-.688-.504-.125-.504 1.25s.227 1.938.504 1.25c.278-.688.278-1.813 0-2.5zm-54.979-2.938c-.32-.797-.556-.56-.604.605-.043 1.054.193 1.644.525 1.312.332-.332.368-1.195.08-1.917zm13.079.5c-.956-.25-2.756-.258-4-.02-1.244.24-.462.445 1.738.456 2.2.01 3.218-.185 2.262-.435zm48 0c-.956-.25-2.756-.258-4-.02-1.244.24-.462.445 1.738.456 2.2.01 3.218-.185 2.262-.435zm-49.033-1.916c-.332-.332-1.195-.368-1.916-.08-.798.32-.561.557.604.605 1.054.043 1.644-.193 1.312-.525zm48.54-.052c-.677-.274-2.027-.29-3-.037-.973.254-.419.478 1.231.498 1.65.02 2.446-.187 1.769-.46zm15.393-2.594c-.277-.688-.504-.125-.504 1.25s.227 1.938.504 1.25c.278-.688.278-1.813 0-2.5zm-61.451-1c-1.162-1.404-1.127-6.815.039-6.095 1.242.767.782-2.03-.642-3.905-.73-.963-2.404-1.702-3.718-1.644-2.317.104-2.305.14.389 1.204 1.72.679 2.578 1.621 2.25 2.475-.291.758-.529 2.692-.529 4.297C94 97.296 93.535 98 92.073 98c-1.06 0-2.094-.787-2.3-1.75-.257-1.21-.546-.9-.934 1-.546 2.675-.439 2.75 3.922 2.75 3.472 0 4.25-.282 3.45-1.25zm47.989.05c-.66-.66-1.2-3.12-1.2-5.465 0-3.21-.484-4.524-1.958-5.313-1.573-.841-2.163-.664-3 .9-1.498 2.799-1.4 4.836.158 3.278 2.262-2.262 3.8-1.332 3.8 2.3 0 3.676-2.137 4.865-3.706 2.062-.634-1.135-1.048-.923-1.955 1-1.14 2.416-1.105 2.438 3.955 2.438 3.971 0 4.84-.267 3.906-1.2zM82 98c0-.55-1.462-.947-3.25-.882l-3.25.119 3 .763c1.65.42 3.112.817 3.25.882.138.065.25-.332.25-.882zm74.269-.656c-.677-.274-2.027-.29-3-.037-.973.254-.419.478 1.231.498 1.65.02 2.446-.187 1.769-.46zM113 95.5c0-.825-.45-1.5-1-1.5s-1 .675-1 1.5.45 1.5 1 1.5 1-.675 1-1.5zm7.541-.433c-.362-.587-1.1-1.067-1.64-1.067-.539 0-.4.63.31 1.4 1.435 1.557 2.356 1.327 1.33-.333zm3.947-1.087c-.56-.907-.932-.879-1.547.115-1.054 1.706-.019 3.382 1.285 2.08.55-.55.668-1.538.262-2.195zM82.5 91c-.454-.735-3.14-.711-7 .063-.55.11.575.504 2.5.875 3.802.733 5.335.414 4.5-.937zm37.37-.13c-1.85-1.85-1.972-1.853-3.869-.086-1.92 1.79-1.884 1.826 1.91 1.91 3.807.083 3.838.055 1.958-1.825zm37.693-.516c-.852-1.805-1.208-1.952-1.87-.771-.448.802-1.187 1.23-1.641.949-.454-.28-1.286.048-1.848.729-.781.946-.143 1.249 2.694 1.281 3.498.04 3.655-.09 2.665-2.188zM122 90c0-.55-.477-1-1.059-1s-.78.45-.441 1c.34.55.816 1 1.059 1s.441-.45.441-1zm-44.29-4c-.34-1.3-.03-2 .884-2 .773 0 1.438.787 1.476 1.75.06 1.484.191 1.446.865-.25l.795-2 .52 2c.513 1.979.52 1.979.634-.027.064-1.116-.505-2.916-1.264-4-.759-1.085-1.589-2.873-1.845-3.973l-.465-2-.734 2c-.403 1.1-1.412 3.26-2.242 4.802C74.757 85.23 75.122 88 77.085 88c.656 0 .924-.858.625-2zm42.02 1.396c-.333-.332-1.196-.368-1.918-.08-.797.32-.56.557.605.605 1.054.043 1.644-.193 1.312-.525zm-26-2c-.333-.332-1.196-.368-1.918-.08-.797.32-.56.557.605.605 1.054.043 1.644-.193 1.312-.525zm25.52-1.058c-.688-.278-1.813-.278-2.5 0-.688.277-.125.504 1.25.504s1.938-.227 1.25-.504zm36.806-.803c.85.525.861.179.044-1.349-.605-1.13-1.152-3.322-1.215-4.87-.106-2.598-.173-2.545-.865.684-.412 1.925-1.12 4.4-1.572 5.5-.725 1.762-.627 1.84.821.664.904-.735 2.158-1.018 2.787-.63zm-62.327-.14c-.332-.331-1.195-.367-1.916-.078-.798.32-.561.556.604.604 1.054.043 1.644-.193 1.312-.525zM118.083 82c2.154 0 3.917-.45 3.917-1s-.45-1.05-1-1.111c-4.862-.54-8.033.648-7.921 2.968.05 1.038.265 1.182.583.393.283-.701 2.224-1.25 4.421-1.25zm109.624-8.238c-.239-1.244-.444-.462-.455 1.738-.01 2.2.185 3.218.435 2.262s.26-2.756.02-4zm-108.16-3.301c-.779-5.188-2.547-6.938-2.547-2.52 0 1.744-.537 3.088-1.25 3.127-.688.037-.237.556 1 1.152 1.238.597 2.286 2.03 2.329 3.183.045 1.185.307 1.526.604.784.289-.721.227-3.298-.137-5.726zM227.661 53.75c-.277-.688-.504-.125-.504 1.25s.227 1.938.504 1.25c.278-.688.278-1.813 0-2.5zm.021-5.938c-.32-.797-.556-.56-.604.605-.043 1.054.193 1.644.525 1.312.332-.332.368-1.195.079-1.917zm.006-17.562c-.251-.962-.457-.175-.457 1.75s.206 2.712.457 1.75c.252-.963.252-2.538 0-3.5z"/></svg>