<svg xmlns="http://www.w3.org/2000/svg" width="245" height="420" viewBox="0 0 245 420"><path d="M169.813 418.317c.721-.289 1.584-.253 1.916.079.332.332-.258.568-1.312.525-1.165-.048-1.402-.285-.604-.604zm10 0c.721-.289 1.584-.253 1.916.079.332.332-.258.568-1.312.525-1.165-.048-1.402-.285-.604-.604zm12.437-.056c3.163-.198 8.338-.198 11.5 0 3.163.198.575.36-5.75.36s-8.912-.162-5.75-.36zm21.563.056c.721-.289 1.584-.253 1.916.079.332.332-.258.568-1.312.525-1.165-.048-1.402-.285-.604-.604zm4.949-.024c1.244-.24 3.044-.23 4 .02s-.062.446-2.262.435c-2.2-.011-2.982-.216-1.738-.455zm8.988-.016c1.788-.222 4.713-.222 6.5 0 1.788.221.325.403-3.25.403s-5.037-.182-3.25-.403zm14.063.04c.721-.289 1.584-.253 1.916.079.332.332-.258.568-1.312.525-1.165-.048-1.402-.285-.604-.604zM8.834 410.324c-3.865-1.017-3.658 10.656-4.022-226.547-.203-132.55.014-174.004.915-174.905C7.32 7.28 232.586 6.186 234.163 7.762c.664.665.97 7.549.839 18.892-.428 37.19-.287 199.456.25 287.94.307 50.653.254 92.587-.117 93.188-1.894 3.064-7.346 3.21-115.441 3.096-60.057-.064-109.943-.313-110.859-.554zm6.415-3.064c-4.947-.281-6.25-.693-6.25-1.974 0-.89-.28-1.339-.624-.996-.342.343-.357 1.318-.03 2.167.458 1.195 2.01 1.5 6.873 1.35l6.281-.192zm19 .078c-.688-.278-1.813-.278-2.5 0-.688.277-.125.504 1.25.504s1.938-.227 1.25-.504zm32.48.058c-.333-.332-1.196-.368-1.918-.08-.797.32-.56.557.605.605 1.054.043 1.644-.193 1.312-.525zm26 0c-.333-.332-1.196-.368-1.918-.08-.797.32-.56.557.605.605 1.054.043 1.644-.193 1.312-.525zm122 0c-.333-.332-1.196-.368-1.917-.08-.798.32-.561.557.604.605 1.054.043 1.644-.193 1.312-.525zm17.68-.252c.292-.47-.582-.643-1.94-.383-1.359.26-2.47.645-2.47.856 0 .773 3.899.356 4.41-.473zm-2.66-2.453c.898-.581 1.25-4.595 1.25-14.25V377h-13c-7.15 0-13-.338-13.001-.75-.001-.412 2.474-.596 5.5-.407 3.025.188 5.501-.078 5.501-.592s-2.336-1.016-5.192-1.118c-10.427-.369-5.786-1.125 6.528-1.064 13.324.067 17.444 1.592 5.914 2.19l-6.75.35 7.308.195 7.308.196-.532-23.25c-.293-12.788-.812-94.575-1.154-181.75l-.622-158.5-108.55.197c-77.493.14-108.867.512-109.655 1.299-1.249 1.247-1.265 4.686-.767 157.504.185 56.65.703 101.781 1.152 100.291C12.94 265.318 20.066 259 25.416 259c1.675 0 3.556-1.018 5.016-2.716l2.336-2.715-2.104-1.05c-5.22-2.602-8.02-10.821-5.734-16.834.778-2.047.46-2.896-1.955-5.21C19.92 227.55 17 220.448 17 215.949c0-4.072 2.776-11.105 5.51-13.957l2.43-2.538-3.573-2.852c-8.733-6.968-8.402-18.941.706-25.539 7.668-5.555 16.094-3.136 20.71 5.946 2.672 5.256 2.29 8.214-1.586 12.288-1.975 2.076-3.437 2.72-5.678 2.5-2.867-.281-3.019-.522-3.019-4.796 0-4.478.018-4.502 3.75-4.81 2.063-.171 3.75-.718 3.75-1.216 0-1.719-6.23-7.994-8.504-8.564-2.433-.61-7.313 1.46-9.418 3.996-2.295 2.766-3.07 8.678-1.598 12.2 2.056 4.921 4.952 6.288 13.02 6.145 12.436-.22 20.109 3.705 24.734 12.654 2.995 5.796 2.986 15.78-.018 20.66l-2.195 3.565 4.304 3.033C64.88 237.875 68 243.067 68 247.441c0 3.289-3.413 10.131-5.69 11.405-1.321.74-1.642 2.099-1.432 6.063.367 6.913-1.333 11.496-5.556 14.977l-3.532 2.911 2.355 3.185c1.992 2.694 2.355 4.369 2.355 10.852 0 6.85-.297 8.054-2.788 11.31-1.534 2.005-4.136 4.203-5.782 4.885-1.647.682-2.791 1.443-2.543 1.691.248.248 2.092-.328 4.098-1.28 3.184-1.51 5.55-1.642 18.637-1.032 8.244.383 15.64.947 16.434 1.252 2.269.87 1.687 3.332-.806 3.41-1.655.052-1.193.478 1.75 1.612 5.443 2.097 30.137 3.118 31.817 1.315.938-1.007.717-1.157-1.067-.727-1.237.299-2.25.085-2.25-.475 0-.662 1.309-.717 3.75-.156 5.736 1.317 16.064.713 18.833-1.102 1.852-1.213 2.36-2.34 2.168-4.81-.223-2.862.117-3.335 2.997-4.183 3.845-1.132 4.98-3.81 3.107-7.327-.834-1.567-.97-2.68-.355-2.896 3.99-1.405 6.052-3.264 6.901-6.225.858-2.99.689-3.605-1.466-5.354-2.075-1.684-3.397-1.89-8.935-1.384-6.867.626-9.655-.208-8.733-2.612.444-1.157 2.091-1.358 8.011-.979 5.108.328 7.681.108 8.181-.701 1.125-1.82-.26-5.87-2.211-6.472-.962-.296-8.279-.747-16.26-1.001-14.812-.472-18.137-1.139-23.023-4.618-1.526-1.086-3.703-1.975-4.839-1.975-3.459 0-9.953 3.984-12.065 7.402-3.966 6.416-5.3 7.02-16.391 7.418-5.594.2-11.702.435-13.575.522-1.955.09-3.587-.375-3.833-1.093-.245-.713.143-1.042.904-.765.734.268 5.834.068 11.334-.442l10-.929-11 .328c-6.353.19-9.733.004-8-.438 1.65-.422 7.388-.82 12.75-.885 10.595-.128 11.493-.541 14.886-6.843 1.03-1.915 3.62-4.01 7-5.665l5.364-2.625-11.502.498c-10.193.44-11.867.275-14.723-1.462-3.606-2.193-5.159-6.251-3.264-8.534.995-1.199 4.264-1.49 16.861-1.502 8.596-.008 16.134-.346 16.753-.75 2.066-1.35 2.946-13.03 4.387-58.235.552-17.325 1.333-35.1 1.735-39.5l.73-8 .542 5.5c.52 5.271.575 5.105 1.33-4 .433-5.225.627-14.45.432-20.5-.34-10.491-.366-10.318-.569 3.75-.116 8.112-.55 14.75-.962 14.752-.412 0-.468-8.662-.123-19.25 1.078-33.066 1.003-46.95-.25-46.176-.72.445-.915 2.457-.542 5.607.453 3.82.25 5.04-.914 5.486-1.955.75-5.34-2.327-7.078-6.432-1.2-2.838-1.175-3.66.197-6.314 2.136-4.131 1.586-9.295-1.04-9.763-5.652-1.009-8.48-3.353-9.929-8.232-1.324-4.458-3.064-8.828-5.86-14.712-1.286-2.705-7.237-6.627-8.693-5.727-1.959 1.21-.993 4.095 1.956 5.836 4.11 2.428 10.41 12.095 9.687 14.862-.337 1.292.215 3.235 1.39 4.883 2.396 3.366 2.61 7.93.372 7.93-1.054 0-.571.846 1.46 2.555C95.063 78.232 104 90.985 104 92.85c0 .594-.787 1.494-1.75 1.999-2.439 1.279-15.119-2.968-17.447-5.843-2.027-2.503-2.406-4.495-.648-3.41.699.433.883.276.467-.397-.777-1.257-3.622-.492-3.622.975 0 2.266 2.33 4.955 5.849 6.75 2.08 1.061 5.98 4.502 8.667 7.647 4.115 4.817 4.907 6.407 5.032 10.097.1 2.958.847 5.124 2.3 6.671 2.54 2.704 2.687 3.973.653 5.661-1.179.979-2.408.99-5.75.055-7.68-2.15-16.223-3.915-16.689-3.45-.62.62 2.703 6.322 5.477 9.396 5.537 6.136 8.246 15.815 5.261 18.8-1.813 1.813-2.24 1.574-6.129-3.416l-3.596-4.615.213 8.145c.225 8.661-.606 10.38-4.764 9.842-1.49-.193-2.16-1.334-2.721-4.644-.935-5.5-1.316-5.863-3.797-3.618-1.936 1.753-2.076 1.753-4.006.006-2.788-2.523-2.496-6.326.897-11.676l2.896-4.567-4.373 2.444c-5.892 3.293-8.92 2.83-8.92-1.364 0-1.74-.338-3.503-.75-3.917-1.209-1.214-.805-4.764.782-6.861C59.734 120.647 59.438 117 57 117c-1.502 0-2-.667-2-2.679 0-1.473-.532-4.151-1.183-5.95-.94-2.6-1.813-3.333-4.25-3.571-2.045-.2-3.396-1.05-4.054-2.55-.565-1.287-1.87-2.25-3.05-2.25-5.146 0-6.288-6.485-1.463-8.306 2.502-.944 3-1.683 3-4.445 0-3.997 2.598-5.519 4.645-2.72C49.863 86.196 50 86.21 50 84.678c0-.938.395-2.487.878-3.442.483-.955 1.6-3.424 2.484-5.486.883-2.063 2.09-3.75 2.68-3.75.592 0 .755.563.362 1.25-.392.688.594.073 2.191-1.366 1.598-1.439 3.805-3.113 4.905-3.72 1.1-.607 1.41-1.117.691-1.134-.732-.017-.994-.54-.596-1.185.443-.715.275-.883-.44-.44-.645.398-1.173.135-1.195-.596-.022-.72-.711-.072-1.532 1.441-.82 1.512-2.265 2.786-3.21 2.829-1.043.048-1.227.277-.468.583 2.439.984 1.207 2.153-1.5 1.423-2.526-.681-2.77-1.184-3.001-6.163-.468-10.113-.696-11.42-2.188-12.566-1.306-1.002-1.248-1.596.474-4.812 2.547-4.756 4.825-6.77 9.315-8.234l3.65-1.19-3.836.567c-3.57.528-3.813.407-3.5-1.742.431-2.964 4.587-4.222 11.526-3.49 2.854.302 5.45.127 5.769-.389.318-.515-.892-1.078-2.69-1.251-3.798-.366-4.939-3.502-2.25-6.19 1.777-1.778 9.01-2.208 11.427-.68.91.576 2.208.493 3.5-.223 1.945-1.079 1.895-1.168-.946-1.69-2.542-.467-3-1.009-3-3.542 0-2.34.49-3.06 2.25-3.31 1.711-.243 2.25.176 2.25 1.75 0 1.382.645 2.07 1.941 2.07 2.593 0 3.538-1.71 1.321-2.388-.969-.297-.613-.41.79-.252 1.405.158 3.134-.334 3.844-1.094 1.937-2.074 5.547-1.17 5.924 1.484.208 1.466 1.007 2.25 2.295 2.25 1.087 0 3.1 1.125 4.476 2.5 1.375 1.375 2.886 2.5 3.357 2.5.472 0 2.237 1.688 3.921 3.75 2.94 3.598 3.065 3.649 3.082 1.25.026-3.702 5.151-13 7.165-13 2.406 0 6.884 8.108 6.884 12.463v3.607l3.104-3.535c2.417-2.753 3.86-3.535 6.524-3.535 2.808 0 3.612.493 4.485 2.75 1.767 4.573 2.211 9.154 1.025 10.584-1.234 1.486-.55 2.666 1.548 2.666.945 0 1.162-.757.721-2.513-.346-1.382-.337-4.465.02-6.852.49-3.267 1.287-4.68 3.224-5.716 1.415-.757 2.961-2.399 3.436-3.648 1.1-2.895 2.733-2.904 3.845-.021.801 2.077.925 2.108 1.612.404.553-1.374 1.432-1.709 3.432-1.309 1.701.34 3.86-.175 5.88-1.404C172.2 18.3 174 18.456 174 21.475c0 2.244.24 2.384 2.565 1.5 3.197-1.215 8.137-1.267 8.862-.093.3.486-.34 2.01-1.423 3.386l-1.97 2.504 3.06 1.267c2.223.92 2.927 1.771 2.577 3.11-.366 1.402.273 2.037 2.674 2.656 2.179.562 3.255 1.502 3.48 3.04.311 2.143.06 2.217-6.626 1.945-7.023-.286-8.597-1.503-5.129-3.964 1.085-.77.947-.844-.57-.307-4.692 1.66-5.23 1.62-5.768-.437-.688-2.629-.122-2.915 4.595-2.324 4.021.503 5.938 2.827 3.569 4.328-.91.575.347.857 3.604.808 4.622-.069 4.767-.142 1.917-.97-1.787-.518-3.568-1.96-4.238-3.431-.956-2.098-1.634-2.432-3.918-1.934-2.142.468-2.425.36-1.261-.478 1.247-.899 1.27-1.229.14-1.958-.75-.483-2.3-.632-3.447-.332-2.022.528-2.027.568-.14 1.307 1.776.694 1.743.768-.369.832-1.273.038-3.243-.426-4.377-1.033-1.335-.715-2.28-.756-2.684-.116-.343.543-1.523 1.25-2.623 1.57-1.1.32-.088.415 2.25.21 2.337-.204 4.25.036 4.25.534 0 .498-.675.905-1.5.905s-1.5.45-1.5 1 .614 1 1.365 1 2.551.933 4 2.073c1.45 1.14 2.635 1.853 2.635 1.585s1.56.893 3.465 2.58c1.905 1.687 3.183 3.561 2.84 4.165-.344.603-.257.763.193.356.45-.408 1.432-.232 2.182.39 1.127.936 1.012 1.379-.667 2.554-1.805 1.265-1.864 1.589-.53 2.924.826.825 1.975 1.208 2.553.85.578-.357 1.707-.105 2.508.56 1.585 1.315 1.783.978.851-1.45-.332-.866-1.077-1.284-1.654-.927-.605.374-.754.17-.352-.48.391-.633-1.136-3.12-3.473-5.655-2.294-2.489-3.593-4.525-2.887-4.525 2.427 0 10.958 10.31 10.965 13.25.007 3.165-1.446 3.497-4.415 1.007-1.583-1.327-1.512-1.101.298.95 4.78 5.415-.324 8.067-5.377 2.793-2.989-3.12-2.32-4.087 1.059-1.532 3.136 2.373 3.735 1.754 1.433-1.48-1.18-1.656-2.53-2.774-3-2.483-.47.29-1.15.048-1.512-.537-.46-.744-1.07-.723-2.029.072-1.1.913-1.29.72-.963-.978.262-1.359.013-1.872-.695-1.434-.71.439-.815.216-.293-.628.57-.921.421-1.07-.5-.5-.836.517-1.067.417-.638-.276.369-.597.144-1.411-.5-1.81-.731-.451-.903-.29-.457.431.394.638.153 1.155-.537 1.155-.688 0-.377.639.69 1.42 1.068.78 1.942 2.018 1.942 2.75 0 .731.675 1.33 1.5 1.33s1.501.45 1.503 1c.002.55 1.21 2.578 2.683 4.507 5.245 6.862 7.588 14.23 4.822 15.16-2.462.827-.746 18.31 2.24 22.833 1.74 2.634 3.5 11 2.314 11-.381 0-1.598-.484-2.703-1.076-1.812-.97-1.904-.877-.935.935.592 1.105 1.076 4.488 1.076 7.518 0 5.173-.137 5.482-2.25 5.077-1.237-.237-2.7-1.038-3.25-1.78-.55-.742-1.578-1.155-2.284-.917-.706.238-1.873-.057-2.593-.655s-.2 1.157 1.158 3.899c2.588 5.23 2.508 6.263-1.072 13.788-.599 1.26-1.116 3.735-1.15 5.5-.037 2.012-.526 3.118-1.309 2.961-1.304-.26-1.549 1.384-1.267 8.5.098 2.47-.282 4.25-.907 4.25-.592 0-1.076 1.125-1.076 2.5 0 3.73-3.727 3.378-5.36-.506l-1.265-3.007-2.29 4.075c-1.325 2.359-2.826 3.868-3.565 3.584-.702-.27-1.742-.024-2.311.545-1.27 1.27-3.209.211-3.209-1.75 0-.793-.45-1.441-1-1.441s-1-.942-1-2.094c0-1.252-.803-2.303-2-2.616-2.621-.686-2.524-1.998.583-7.891 1.421-2.694 2.006-4.336 1.3-3.649-1.853 1.805-3.883 1.536-3.883-.515 0-.97.874-3.396 1.943-5.39 1.069-1.994 1.669-3.9 1.333-4.235-.335-.336.086-.61.935-.61 2.153 0 4.046 2.552 3.488 4.702-.376 1.447-.49 1.37-.583-.393-.185-3.498-1.825-3.584-3.019-.159-1.446 4.149-1.403 4.33.653 2.755.963-.736 1.434-.963 1.048-.503-.387.46-.05 1.49.75 2.288.798.8 1.42 2.208 1.382 3.131-.063 1.49-.15 1.479-.773-.1-.547-1.383-1.272-.546-3.271 3.781-2.763 5.981-1.765 7.126 1.274 1.46 1.012-1.887 1.84-2.846 1.84-2.13 0 .714-.496 2.227-1.103 3.36-.832 1.555-.796 2.252.145 2.834.687.425.987 1.455.667 2.29-.323.842.057 1.764.854 2.07 1.084.416 1.437-.327 1.437-3.024 0-2.705.352-3.441 1.443-3.022 1.03.395 1.56-.36 1.85-2.643.314-2.456.385-2.27.308.803-.056 2.2.349 4.088.899 4.196.55.107.884-1.018.742-2.5-.357-3.724.62-7.4 1.776-6.685.545.337.688-.114.331-1.043-.449-1.17-.837-1.297-1.363-.445-.97 1.568-2.186-.339-1.446-2.266.516-1.345 3.42-2.087 3.286-.84-.229 2.123.336 3.108 1.424 2.482.688-.396.941-.376.564.043-.378.42-.276 1.842.225 3.16.576 1.515.552 2.398-.064 2.398-.536 0-.975-.375-.975-.833 0-.459-.675-.834-1.5-.834-1.916 0-1.958-.12 1.133 3.216 1.449 1.563 3.417 2.9 4.374 2.97 1.467.108 1.722-.71 1.617-5.194-.079-3.38-.559-5.322-1.315-5.323-.655-.001-1.479-.467-1.83-1.036-.401-.649.319-.86 1.931-.568 2.513.456 2.539.404 1.141-2.3-1.717-3.32-4.875-3.857-4.018-.681.497 1.84.435 1.88-.528.346-.79-1.26-.778-2.318.045-3.857.864-1.615.84-2.393-.104-3.263-.94-.867-1.068-.84-.529.115.39.691-.034 2.002-.943 2.911-1.54 1.539-1.635 1.521-1.373-.257.46-3.12-1.104-6.412-3.046-6.412-2.615 0-3.95-2.073-3.888-6.035.03-1.906-.194-5.24-.499-7.41-.445-3.17-.172-4.214 1.389-5.307 1.069-.749 1.943-2.322 1.943-3.496 0-2.083-.034-2.088-1.411-.204-.777 1.061-1.2 2.272-.941 2.691.258.419.042.761-.482.761s-1.209-.67-1.523-1.488c-.323-.84-.063-1.384.598-1.25.642.13 1.195-.212 1.229-.762.109-1.796 1.647-3.546 2.6-2.957.511.316.93-.215.93-1.18 0-1.366-.768-1.01-3.461 1.6-1.904 1.844-3.259 3.682-3.011 4.082.714 1.155-2.318 3.203-3.584 2.42-.732-.452.913-2.784 4.581-6.49 4.77-4.82 5.782-6.46 6.068-9.836.289-3.412.086-3.953-1.289-3.425-1.716.658-1.305-.599 1.213-3.714.667-.825 1.476-3.227 1.8-5.338.474-3.108.307-3.732-.877-3.277-1.266.485-1.259.166.048-2.362 1.781-3.444 1.96-5.418.405-4.457-.747.462-.906-.088-.488-1.69.34-1.307-.375-.464-1.59 1.874-1.215 2.337-2.585 4.25-3.043 4.25-1.943 0-1.702-3.004.607-7.558 2.514-4.96 2.551-8.042.057-4.752-2.281 3.008-1.58.103 1.111-4.605 1.74-3.043 2.202-4.736 1.488-5.45-.569-.569-1.035-2.043-1.035-3.276 0-2.275-1.48-3.996-2.25-2.615-.233.416-.263.136-.069-.621.195-.757-.354-1.894-1.218-2.526-.953-.697-1.311-1.828-.91-2.873.81-2.113 2.81-2.218 4.778-.25 1.3 1.3 1.547 1.287 2.081-.106.443-1.153 1.328-1.4 3.272-.911 2.442.613 2.546.522 1.24-1.081-1.27-1.56-1.229-1.677.378-1.075 1.122.42 1.562.287 1.166-.353-.35-.566-1.498-.756-2.552-.421-1.071.34-1.916.137-1.916-.46 0-.587.525-1.067 1.167-1.067 2.784 0-1-1.609-4.524-1.923-.471-.043-.6-.745-.287-1.562.473-1.233.244-1.282-1.348-.288-2.856 1.783-3.58.195-1.703-3.74.914-1.918 1.22-3.487.679-3.487a.985.985 0 0 0-.984.98c0 .54-1.125 1.264-2.5 1.61-1.375.344-2.5 1.301-2.5 2.125 0 .922-.578 1.277-1.5.923-.825-.316-2.175-.316-3 0-2.141.822-1.858 3.362.375 3.362 1.297 0 2.066.956 2.496 3.103.672 3.363.042 5.27-1.44 4.354-.512-.316-.931-.098-.931.484 0 1.425 1.318 1.337 2.867-.191 2.174-2.144 4.394 1.953 3.743 6.905-.41 3.126-.176 4.297.945 4.728 1.302.5 1.312.999.08 3.95-.777 1.859-1.185 4.572-.906 6.029.278 1.457.022 3.233-.57 3.946-.591.713-.817 2.285-.5 3.494.362 1.387.119 2.198-.659 2.198-.78 0-1.056.929-.75 2.524.265 1.388.074 2.776-.425 3.084-.498.308-.62 1.46-.271 2.561.425 1.34-.116 2.8-1.634 4.416-1.273 1.355-1.727 2.415-1.035 2.415.678 0 .912.52.52 1.155-.479.774-.251.89.69.35 2.345-1.34 5.905-4.798 5.905-5.735 0-.485-1.087.381-2.415 1.924s-2.666 2.555-2.974 2.249c-.307-.307 1.5-2.782 4.014-5.5 2.515-2.719 3.923-3.818 3.13-2.443-1.497 2.59-1.31 5 .387 5 .537 0 .655-.52.263-1.155-.422-.682-.277-.884.355-.493.588.363 1.297.095 1.576-.596.34-.842.532-.745.585.294.12 2.36-2.022 4.111-3.513 2.874-.899-.746-1.404-.513-1.835.845-.327 1.031-2.395 2.887-4.594 4.123-3.456 1.942-3.968 2.67-3.764 5.353.13 1.707-.267 3.272-.883 3.478-.616.205-.878 1.297-.582 2.427.303 1.16-.046 2.415-.8 2.88-1.086.672-1.104 1.338-.095 3.55.865 1.9.923 3.042.193 3.772-1.851 1.851-1.12 2.638 1.388 1.495 1.34-.61 3.252-.797 4.249-.415 1.608.618 1.503.884-.937 2.364-3.39 2.057-3.517 3.794-.336 4.593 2.738.687 2.865 3.204.26 5.11-2.827 2.066-2.066 3.989.828 2.093 2.4-1.572 3.322-1.056 1.75.98-.412.533.038.123 1-.912 2.93-3.15 2.176.68-.839 4.263-1.424 1.692-2.234 3.077-1.8 3.077.434 0 .23.559-.453 1.242-1.949 1.949-3.49-1.217-1.607-3.299 1.29-1.424 1.205-1.593-.757-1.522-3.224.116-5.006-5.062-2.4-6.968 1.706-1.247 1.724-1.478.228-2.974-.892-.892-1.622-2.265-1.622-3.05 0-.786-.9-1.429-2-1.429-2.088 0-2.754-2.416-.97-3.519.6-.37.761-2.076.387-4.07-.354-1.888-.227-3.99.282-4.672 1.23-1.648 3.56-11.317 3.52-14.616-.018-1.443.658-3.707 1.502-5.032.843-1.325 1.688-4.367 1.876-6.76.189-2.393.822-5.246 1.408-6.34.586-1.095.809-1.991.495-1.991-.314 0-.06-.953.563-2.119.988-1.845 1.424-7.31 1.052-13.19-.225-3.552-2.069-.518-2.735 4.499-.792 5.976-2.871 8.436-7.932 9.386l-3.663.687.695 8.336c.682 8.19.647 8.379-2.039 10.868-2.948 2.732-5.364 3.289-5.57 1.283-.209-2.044-.459-6.88-.671-13-.158-4.529-.54-5.75-1.805-5.75-1.264 0-1.526.833-1.232 3.916.206 2.154.028 3.702-.395 3.44-.422-.26-.841-2.36-.931-4.665-.155-3.977-.197-3.91-.837 1.309-.579 4.723-.697 4.06-.837-4.691-.148-9.227-1.074-12.73-2.888-10.917-.326.325-.684 7.008-.797 14.85-.259 17.974-.232 17.687-1.478 15.758-.72-1.115-.944-.602-.869 2 .056 1.925.307 2.712.558 1.75.252-.963.769-1.75 1.149-1.75 1.143 0 .41 11.417-.758 11.807-1.287.429-1.463 3.193-.204 3.193 1.032 0 2.058 10.537 1.306 13.412-.51 1.95-.529 1.951-1.238.034-.396-1.07-.713 1.879-.703 6.554.01 4.675.336 7.62.724 6.543 1.289-3.571 2.023 14.216 2.029 49.166.003 19.696.477 37.515 1.116 42 1.278 8.961 4.055 18.296 6.412 21.548 1.536 2.12 1.595 1.774 1.07-6.257-.307-4.675-.814-25.375-1.128-46-.314-20.625-.975-41.775-1.469-47-1.188-12.58-2.124-66.489-1.076-62l.818 3.5.217-4 .218-4 .926 3c1.452 4.701.973 26.741-.569 26.15-.905-.348-1.154.642-.904 3.586.435 5.132 1.352 6.199 1.445 1.68.058-2.818.221-3.066.93-1.416.473 1.1.813 9.425.757 18.5-.073 11.853-.29 14.67-.77 10-.733-7.148-.268 28.657.648 49.81.975 22.524 1.3 14.096.564-14.593-.384-14.97-.361-27.219.051-27.218.413 0 .807 6.863.878 15.251.07 8.387.284 16.375.476 17.75s.731 16.868 1.198 34.428c.844 31.699.866 31.94 3.133 33.445 1.73 1.148 5.587 1.55 15.924 1.655 7.503.076 14.654.469 15.891.873 3.088 1.007 3.011 5.535-.143 8.499-2.28 2.142-2.89 2.215-12.901 1.544-5.78-.387-12.123-.4-14.097-.03l-3.589.673 3.457 3.456c1.9 1.902 4.077 3.457 4.835 3.457 2.81 0 4.925 3.719 4.521 7.95-.212 2.227-.109 4.05.23 4.05 1.03 0 2.937 4.934 2.937 7.597 0 2.896-2.169 7.468-4.434 9.348-.883.733-1.566 2.848-1.566 4.849 0 3.515-2.27 7.206-4.43 7.206-.617 0-2.01 1.875-3.096 4.167-1.498 3.163-2.817 4.429-5.474 5.25-3.215.995-3.592 1.53-4.63 6.583-.623 3.025-1.611 6.703-2.197 8.173-.828 2.079-.75 2.934.355 3.85 2.3 1.908 2.971 7.768 1.125 9.808-.871.963-2.083 4.077-2.693 6.92-2.864 13.356-11.862 13.541-14.836.304-.525-2.335-1.892-5.244-3.04-6.465-2.68-2.853-2.624-4.33.326-8.672 2.4-3.532 2.403-3.569.75-9.583-.913-3.32-2.335-6.865-3.16-7.878-.825-1.012-.969-1.522-.32-1.133.65.39 1.464.251 1.81-.308.41-.663-2.428-.956-8.181-.843l-8.809.172 6.5.655c6.188.623 6.02.662-3.5.805-10.274.155-11.078-.054-20.76-5.4-3.882-2.144-17.178-3.218-16.55-1.337.252.76 2 1.695 3.885 2.08 4.905 1 8.925 6.12 8.925 11.368 0 4.677-4.276 12.308-8.417 15.022-3.552 2.327-10.32 3.682-14.697 2.943-5.354-.905-11.472-6.547-13.601-12.542-1.576-4.437-2.06-4.94-4.77-4.943-10.153-.012-15.808-12.893-9.09-20.704 1.99-2.313 2.079-2.965 1.084-7.95-.757-3.788-1.88-6.095-3.72-7.635-1.449-1.214-4.023-4.864-5.72-8.112l-3.084-5.905.257 61.905.258 61.905 21 .5c34.424.82 196.897.566 198.25-.309zm-46.238-6.653c-1.938-.359-3.118-1.253-3.357-2.546-.204-1.095-.884-2.628-1.513-3.405-.92-1.138-1.239-.75-1.642 2-.444 3.028-.882 3.45-3.886 3.736-3.098.297-3.338.127-2.82-2l.565-2.323-1.552 2.25c-1.158 1.68-2.534 2.25-5.429 2.25-4.637 0-7.85-2.733-7.937-6.75-.054-2.533-.232-2.403-2.25 1.637-1.205 2.413-2.529 4.326-2.941 4.25-.412-.075-2.067-.137-3.677-.137-2.51 0-3.398-.817-6.25-5.75l-3.323-5.75-.32 4.498c-.175 2.474-1.033 5.287-1.905 6.25-1.95 2.155-8.535 2.348-10.235.3-1.31-1.58-.525-5.548 1.099-5.548.552 0 .297-.707-.568-1.571-2.335-2.336-1.948-6.136.809-7.942 1.853-1.214 4.676-1.496 12.75-1.273l10.37.286.579 3.5c.571 3.455 1.419 2.86 2.13-1.5.297-1.815 1.02-1.98 7.81-1.793 4.114.113 7.931.193 8.481.178.55-.016 6.661-.214 13.58-.439 11.236-.366 12.796-.21 14.583 1.455 1.954 1.82 2.03 1.82 3.191-.04.877-1.402 2.064-1.807 4.512-1.537 5.154.568 5.634 1.26 5.634 8.113 0 7.647-1.21 8.98-8.414 9.265-2.797.11-7.336.356-10.086.545-2.75.19-6.345.095-7.988-.209zm1.171-3.225c-.32-.798-.556-.561-.604.604-.043 1.054.193 1.644.525 1.312.332-.332.368-1.195.08-1.916zm-51.206-1.137c.846-1.292 1.45-4.179 1.359-6.5-.157-4.001-.298-4.176-3.377-4.176-1.768 0-3.732.624-4.365 1.387-.91 1.096-.516 1.922 1.877 3.935 3.52 2.962 4.092 6.678 1.029 6.678-1.145 0-2-.667-2-1.559 0-.857.45-1.28 1-.941.55.34 1 .168 1-.382 0-1.992-1.872-2.098-2.493-.141-1.376 4.335 3.36 5.683 5.97 1.699zm35.06-.749c1.01-1.95 1.355-4.143.947-6-.55-2.504-.342-2.927 1.437-2.927 1.564 0 2.079.634 2.079 2.559 0 1.451-.433 2.292-1 1.941-.55-.34-1 .11-1 1s.45 1.34 1 1c.585-.362 1 .676 1 2.5 0 1.824.415 2.862 1 2.5.55-.34 1-2.166 1-4.059 0-2.044.507-3.473 1.25-3.52 1-.063 1-.18 0-.583-.688-.278-1.25-1.385-1.25-2.461 0-1.693-.6-1.918-4.449-1.667-2.809.183-4.099.64-3.5 1.24 1.186 1.188 1.216 7.58.044 9.43-.55.87-2.004 1.214-3.931.93-1.682-.246-2.83-.08-2.552.37.278.451 1.818.82 3.421.82 2.244 0 3.282-.708 4.505-3.073zM189.5 389.5c0-5.448-.275-6.5-1.698-6.5-1.442 0-1.544.44-.68 2.919.678 1.946.687 4.112.028 6.5-.848 3.073-.752 3.581.68 3.581 1.389 0 1.67-1.096 1.67-6.5zm7.855.972c.848-2.49 1.112-4.26.587-3.936-.526.325-1.213-.078-1.526-.895-.314-.818-1.298-1.766-2.187-2.107-1.43-.549-1.422-.405.077 1.252 1.937 2.14 2.205 6.39.594 9.4-.657 1.229-.695 1.805-.093 1.434.553-.343 1.7-2.66 2.548-5.148zm10.43-2.409c-.255-4.075-.561-4.595-2.87-4.864-1.501-.174-3.166.399-3.968 1.365-1.21 1.457-1.03 1.967 1.435 4.088 2.275 1.957 2.687 2.939 2.142 5.108-.672 2.677-.667 2.68 1.436.776 1.666-1.508 2.05-2.87 1.825-6.473zm-25.313 2.598c-.485-3.234-.26-4.73.885-5.875 1.381-1.381 1.297-1.536-.831-1.536-1.707 0-2.205.424-1.784 1.52.32.835-.161 2.063-1.07 2.728-1.52 1.11-1.492 1.355.337 3.01 1.095.991 1.991 2.407 1.991 3.147 0 .74.253 1.345.561 1.345.309 0 .269-1.953-.09-4.34zM203 394.559c0-1.055-1.92-1.499-2.49-.575-.345.559.073 1.016.931 1.016.857 0 1.559-.198 1.559-.441zm-51.342-3.119c.816-1.725.648-2.05-1.037-2-1.43.043-2.285-.879-2.96-3.19-.857-2.93-1.324-3.25-4.754-3.25h-3.804l3.073 5.35c2.574 4.481 3.515 5.334 5.79 5.25 1.696-.062 3.084-.875 3.692-2.16zM143 387.88c0-.548.498-.69 1.107-.313.76.47.878-.06.376-1.69-.822-2.669-.281-2.392 1.306.667.885 1.706.743 2.067-.865 2.188-1.058.08-1.924-.304-1.924-.852zm21.508-2.704c-.873-.874-2.474 1.936-2.493 4.375-.008 1.127.548 2.617 1.235 3.31 1.002 1.011 1.312.435 1.563-2.903.172-2.291.035-4.443-.305-4.782zm-4.914-1.79c-.292-.761-1.333-1.333-2.313-1.269-1.664.108-1.661.147.042.587 1.522.394 1.715 1.112 1.168 4.348-.36 2.131-.28 4.455.177 5.162.948 1.467 1.792-6.573.926-8.827zM193 390c0-1.65-.45-3-1-3-1.112 0-1.38 4.286-.333 5.333 1.13 1.13 1.333.774 1.333-2.333zm-38.317-6.188c-.32-.797-.556-.56-.604.605-.043 1.054.193 1.644.525 1.312.332-.332.368-1.195.08-1.916zM28.64 397.307c-1.248-1.249-.612-3.08 1.24-3.564 1.035-.27 3.393-3.355 5.25-6.867 1.854-3.506 4.01-6.375 4.79-6.375.781 0 2.469 1.983 3.75 4.407 1.541 2.914 2.331 3.726 2.331 2.396 0-1.106 1.104-3.202 2.452-4.657 3.318-3.58 10.143-3.814 11.517-.396l.904 2.25.064-2.25c.06-2.126.473-2.25 7.504-2.25 7.903 0 9.305.737 7.57 3.98C74.901 386.052 72 386.79 72 385c0-.55-.505-1-1.122-1-.78 0-.746.454.111 1.487 1.507 1.816.636 4.513-1.458 4.513-.89 0-1.531.882-1.531 2.107 0 1.614.41 1.939 1.75 1.387 4.983-2.052 8.25-1.207 8.25 2.134 0 1.141-4.089 1.361-23.405 1.26-12.872-.068-23.834.142-24.36.467-.526.325-1.244.303-1.596-.049zm4.09-1.91c-.332-.332-1.195-.368-1.917-.08-.797.32-.56.557.605.605 1.054.043 1.644-.193 1.312-.525zm38.54-.052c-.677-.274-2.027-.29-3-.037-.973.253-.419.478 1.231.498 1.65.02 2.446-.187 1.769-.461zm-26.892-3.594c-.92-1.788-2.34-4.272-3.154-5.52l-1.48-2.27-2.371 3.214c-1.305 1.768-2.354 3.69-2.332 4.27.022.58.711-.181 1.532-1.694.82-1.512 1.912-2.75 2.425-2.75 1.275 0 3.003 3.415 3.003 5.934 0 1.408.645 2.066 2.026 2.066 1.962 0 1.973-.102.351-3.25zm3.968 1.707c-.326-.849-.807-1.329-1.069-1.067-.262.262-.18.957.183 1.543.986 1.596 1.562 1.286.886-.476zm3.507-.322c-.851-1.363-.882-2.975-.114-6 1.09-4.296.432-5.25-1.782-2.582-1.659 1.999-1.659 6.895 0 8.894 1.813 2.185 3.303 1.94 1.896-.312zm9.955-.661c-.308-.308-.867.247-1.243 1.233-.542 1.425-.428 1.54.56.56.684-.679.99-1.486.683-1.793zm3.49.276c-.235-1.238-.004-4.127.514-6.421.767-3.398.686-4.073-.435-3.643-1.538.59-2.028 12.314-.515 12.314.474 0 .67-1.012.435-2.25zm-26.047.588c-.688-.278-1.813-.278-2.5 0-.688.277-.125.504 1.25.504s1.938-.227 1.25-.504zm17.808-1.908c.716-.863 2.121-1.355 3.122-1.093 1.478.386 1.817-.117 1.805-2.68-.012-2.388-.248-2.792-.97-1.657-.81 1.272-1.28 1.298-3.102.168-2.486-1.541-3.66-.697-3.938 2.832-.356 4.525.672 5.335 3.083 2.43zm-17.696-.93c-.317-.825-.705-1.5-.862-1.5-.157 0-.545.675-.862 1.5-.347.905-.005 1.5.862 1.5s1.209-.595.862-1.5zM69 387c0-.55-.45-1-1-1s-1 .45-1 1 .45 1 1 1 1-.45 1-1zm-12.27-4.604c-.333-.332-1.196-.368-1.917-.08-.798.32-.561.557.604.605 1.054.043 1.644-.193 1.312-.525zm30.879 13.511c-3.663-2.882-3.734-9.96-.133-13.297 2.3-2.132 3.409-2.306 15.536-2.44 13.99-.157 15.384.352 13.03 4.752-1.31 2.446-3.302 2.675-5.042.578-.685-.825-1.752-1.464-2.372-1.421-.709.05-.663.266.122.583 1.478.597 1.705 6.338.25 6.338-.55 0-1 .675-1 1.5s.483 1.5 1.073 1.5.922.788.737 1.75c-.29 1.502-1.7 1.782-9.965 1.98-8.404.2-9.959-.031-12.236-1.823zm4.21-1.157c-2.126-1.7-2.832-5.217-1.782-8.878.746-2.602.662-2.867-.583-1.834-3.06 2.54-.783 11.962 2.892 11.962.57 0 .333-.563-.527-1.25zm6.352-.405c2.126-1.924 2.504-8.538.579-10.14-.98-.816-1.176.128-.908 4.375.31 4.902.12 5.505-2 6.355-1.288.516-1.702.967-.92 1.002.781.035 2.243-.682 3.25-1.592zm3.21.103c.342-.89.174-1.291-.392-.94-.544.335-.989 1.033-.989 1.551 0 1.438.717 1.121 1.382-.61zm5.603-6.438c.85-.525.741-.901-.383-1.333-.912-.35-1.32-1.244-.977-2.14.352-.917.043-1.538-.767-1.539-1.041 0-1.263 1.453-.953 6.25.36 5.555.488 5.875 1.15 2.873.41-1.859 1.279-3.709 1.93-4.111zm-11.484.907c0-2.37-.46-3.417-1.5-3.417-1.601 0-2.538 3.655-1.579 6.156 1.015 2.643 3.079.806 3.079-2.74zm-.25-6.58c-.688-.277-1.813-.277-2.5 0-.688.278-.125.505 1.25.505s1.938-.227 1.25-.504zm16.019.007c-.677-.274-2.027-.29-3-.037-.973.253-.419.477 1.231.498 1.65.02 2.446-.187 1.769-.461zM185 376c-1.333-.862-1.333-.97 0-.97.825 0 2.175.437 3 .97 1.333.862 1.333.97 0 .97-.825 0-2.175-.437-3-.97zm7.128.539c.918-.918 9.872-1.317 9.872-.44 0 .496-2.325.901-5.167.901-2.841 0-4.959-.207-4.705-.461zM11 373.977c0-2.016.293-2.023 75.25-1.767 41.388.141 82 .507 90.25.814 13.524.503 12.195.6-13.5.99l-28.5.432L159 375c13.478.305-14.3.654-61.75.777-85.989.222-86.25.217-86.25-1.8zm116.269.367c-.677-.274-2.027-.29-3-.037-.973.253-.419.478 1.231.498 1.65.02 2.446-.187 1.769-.461zm67.481-1.067c1.788-.222 4.713-.222 6.5 0 1.788.221.325.403-3.25.403s-5.037-.182-3.25-.403zm-66.427-61.878c-.733-1.909 1.389-3.511 4.177-3.155 1.21.155 2.126 1.144 2.32 2.506.272 1.918-.138 2.25-2.782 2.25-1.92 0-3.335-.61-3.715-1.6zm-8.094-3.587c.618-1.854 2.771-2.161 2.771-.395 0 .87-.713 1.583-1.583 1.583-.871 0-1.406-.534-1.188-1.188zm8.807-8.268c-2.264-2.729 1.117-4.574 5.382-2.937 3.202 1.229 1.13 4.393-2.877 4.393-.713 0-1.84-.655-2.505-1.456zm4.214-1.206c-.688-.278-1.813-.278-2.5 0-.688.277-.125.504 1.25.504s1.938-.227 1.25-.504zM123 289.03c0-.532.675-.71 1.5-.393.825.317 1.5.753 1.5.969 0 .216-.675.393-1.5.393s-1.5-.436-1.5-.969zm51.401-56.775c-1.602-1.102-1.315-4.256.388-4.256 1.18 0 1.22-.283.211-1.5-.685-.825-2.427-1.486-3.872-1.468-2.27.027-2.412.198-1.04 1.25 2.096 1.608 2.03 4.718-.1 4.718-3.587 0-6.92-7.688-4.091-9.436 1.758-1.087 10.452.785 12.32 2.652 2.576 2.577 2.106 8.179-.717 8.54-1.1.14-2.494-.085-3.099-.5zm-6.122-5.296c-.293-1.121-.756-1.816-1.03-1.543-.54.541.415 3.583 1.126 3.583.24 0 .198-.918-.096-2.04zm4.99-3.616c-.677-.274-2.027-.29-3-.037-.973.254-.419.478 1.231.498 1.65.02 2.446-.187 1.769-.461zm-24.687 7.681c-4.494-.877-6.582-3.177-6.582-7.248 0-3.106 2.42-4.756 4.267-2.91.623.623 2.563 1.133 4.31 1.133 3.999 0 5.648 1.944 5.241 6.176-.353 3.67-1.243 4.02-7.236 2.85zM151.5 226c-.34-.55-1.829-.993-3.309-.985-2.105.012-2.364.227-1.191.985 1.976 1.277 5.29 1.277 4.5 0zm-6.941-1.905c-.313-.506 1.314-.74 3.69-.533l4.251.372-4-.86c-2.2-.472-4.338-.655-4.75-.407-1.123.676-.904 2.333.309 2.333.582 0 .807-.407.5-.905zm-73.046 5.162c-4.552-.464-5.476-1.464-5.498-5.948-.02-4.037.705-4.446 6.468-3.656 4.034.553 4.908 1.1 6.246 3.904 1.785 3.744 1.145 6.52-1.448 6.275-.98-.093-3.575-.351-5.768-.575zM78 226.122c0-1.032-.787-2.473-1.75-3.201-1.489-1.127-1.563-1.115-.5.077 2.196 2.463 1.374 3.868-2.5 4.274l-3.75.392 4.25.168c3.55.14 4.25-.14 4.25-1.71zM75.5 225c-.34-.55-1.743-1-3.118-1-1.412 0-2.231.435-1.882 1 .34.55 1.743 1 3.118 1 1.412 0 2.231-.435 1.882-1zm-4.25-3.662c-.688-.278-1.813-.278-2.5 0-.688.277-.125.504 1.25.504s1.938-.227 1.25-.504zm20.716 7.757c-4.959-.996-5.968-1.828-5.95-4.904.026-4.625 1.054-5.304 6.492-4.288 5.406 1.01 7.731 3.275 7.284 7.096-.325 2.78-2.08 3.25-7.826 2.096zm2.074-1.995c-3.662-.493-4.584-1.047-5.15-3.1-.578-2.092-.707-2.165-.79-.45-.151 3.101 1.865 4.466 6.35 4.3l4.05-.15zm1.46-2.1c-.34-.55-1.829-.968-3.309-.93-2.403.063-2.477.163-.691.93 2.778 1.194 4.738 1.194 4 0zm1.079-1.774c-1.722-1.65-1.744-1.628-.479.479.729 1.212 1.54 1.989 1.803 1.726.263-.263-.333-1.255-1.324-2.205zM86 217c-.825-.533-2.722-.976-4.215-.985-3.176-.018-5.059-2.81-4.597-6.814.294-2.548.567-2.681 4.805-2.356 6.828.523 8.007 1.509 8.007 6.69 0 4.573-.977 5.419-4 3.465zm2.64-4.27c.1-1.122-.012-1.235-.303-.31-.253.802-1.445 1.642-2.649 1.866-1.802.335-1.749.39.303.31 1.616-.062 2.547-.718 2.649-1.866zM80.5 211c0-1.65-.338-3-.75-3-.928 0-.997 4.42-.083 5.333.366.367.704.667.75.667.046 0 .083-1.35.083-3zm4.75.338c-.688-.278-1.813-.278-2.5 0-.688.277-.125.504 1.25.504s1.938-.227 1.25-.504zm77.25 6.176c-.55-.192-2.637-.623-4.639-.957-2.785-.464-3.919-1.283-4.834-3.49-1.444-3.488.179-7.586 2.631-6.645.828.318 2.819.578 4.424.578 4.076 0 7.115 3.298 6.727 7.3-.291 2.998-1.773 4.104-4.309 3.214zm2.364-4.264c-.112-2.265-.211-2.364-.562-.56-.283 1.459-1.322 2.326-3.114 2.6-2.427.37-2.372.425.562.56 2.945.136 3.237-.108 3.114-2.6zM158 214.607c0-.216-.698-.661-1.552-.989-.89-.341-1.291-.173-.94.393.586.95 2.492 1.406 2.492.596zm4-2.607c-1.976-1.277-5.29-1.277-4.5 0 .34.55 1.829.993 3.309.985 2.105-.012 2.364-.227 1.191-.985zm-6.71-2.001c.288-1.101.115-1.75-.383-1.441-.499.308-.907 1.208-.907 2.001 0 2.07.68 1.775 1.29-.56zm3.789-59.582c.048-1.165.285-1.402.604-.605.289.722.253 1.585-.079 1.917-.332.332-.568-.258-.525-1.312zm-3.75-111.001c-.327-.853-.115-2.03.471-2.616 1.463-1.463 4.297-.218 3.606 1.585-.83 2.164-3.393 2.813-4.077 1.03zM160 36.56c0-.173.622-.832 1.383-1.463 1.055-.875 1.504-.834 1.89.173.302.785-.259 1.379-1.383 1.463-1.04.079-1.89 0-1.89-.173zm73.707 363.202c-.239-1.244-.444-.462-.455 1.738-.01 2.2.185 3.218.435 2.262s.26-2.756.02-4zM122 364.287c-.825-.306-2.175-1.058-3-1.671-1.303-.97-1.32-.887-.128.634.755.963 2.105 1.714 3 1.671 1.362-.066 1.383-.17.128-.634zm2-5.978c0-.73-1.107-1.309-2.5-1.309-2.748 0-3.084 1.041-1.368 4.246 1.095 2.048 1.175 2.055 2.5.243.752-1.03 1.368-2.46 1.368-3.18zm108.723-4.559c-.221-1.788-.403-.325-.403 3.25s.182 5.037.403 3.25c.222-1.788.222-4.713 0-6.5zm-115.444 5.21c-.293-1.121-.756-1.816-1.03-1.543-.54.541.415 3.583 1.126 3.583.24 0 .198-.918-.096-2.04zm5.073-4.127c3.802 0 4.394-.321 5.373-2.916l1.101-2.917h-7.381c-6.602 0-7.316.185-6.758 1.75.343.963 1 2.241 1.46 2.842.46.6.502 1.46.094 1.91-.407.45-.16.484.548.075.71-.409 3.213-.744 5.563-.744zm-2.602-2.495c.688-.278 1.813-.278 2.5 0 .688.277.125.504-1.25.504s-1.938-.227-1.25-.504zm112.912-5.588c-.277-.688-.504-.125-.504 1.25s.227 1.938.504 1.25c.278-.688.278-1.813 0-2.5zm-120.305.737c-.32-.832-.025-2.182.654-3 1.58-1.905 14.926-2.092 16.96-.237.754.688.369-.08-.856-1.707-1.441-1.912-2.029-3.75-1.664-5.202.532-2.122.22-2.265-5.694-2.6l-6.257-.356 6.643-.192c7.021-.204 7.857-.808 7.857-5.681 0-1.86-.45-2.247-2.25-1.935-1.775.307-1.67.14.5-.787 1.512-.647 2.75-1.921 2.75-2.832 0-1.454-.698-1.544-5.75-.743-3.163.502-6.954.677-8.427.389-2.398-.47-2.63-.269-2.23 1.936.245 1.353-.013 2.46-.573 2.46-.561 0-1.013.787-1.005 1.75.011 1.22.251 1.379.794.524 1.012-1.592 15.191-1.329 15.191.282 0 .771-1.713.877-5.625.346-6.112-.83-9.7.412-8.915 3.084 1.72 5.854 1.63 6.753-.993 9.87-2.248 2.672-2.83 6.144-1.03 6.144.275 0 .239-.68-.08-1.513zm6.41-11.212c1.798-.222 4.498-.218 6 .01 1.504.229.033.41-3.267.405-3.3-.006-4.53-.192-2.732-.415zm-1.04-3.997c1.776-.22 4.926-.224 7-.008 2.075.217.623.397-3.227.402-3.85.004-5.548-.173-3.772-.394zm1.023-5.94c.688-.278 1.813-.278 2.5 0 .688.277.125.504-1.25.504s-1.937-.227-1.25-.504zm-63.988 19.975c-.956-.25-2.756-.26-4-.02-1.244.239-.462.444 1.738.455 2.2.01 3.218-.185 2.262-.435zm74.132.247c-.73-.73-13.861-.926-14.57-.218-.361.362 2.868.658 7.176.658s7.635-.198 7.394-.44zM45 344.622c0-.207-.787-.995-1.75-1.75-1.586-1.243-1.621-1.208-.378.378 1.307 1.666 2.128 2.195 2.128 1.372zm19.563-2.872l2.937-3.25-3.495 3c-1.922 1.65-3.685 3.112-3.917 3.25-.232.138.02.25.558.25.539 0 2.302-1.462 3.917-3.25zm62.166 2.646c-.332-.332-1.195-.368-1.916-.08-.798.32-.561.557.604.605 1.054.043 1.644-.193 1.312-.525zm-63.545-5.393c5.144-5.337 6.262-9.643 3.488-13.437-1.646-2.251-6.305-2.362-8.466-.2-1.487 1.486-1.467 1.723.252 2.98 1.19.87 1.628 1.989 1.208 3.083-.931 2.426-3.82 1.555-5.632-1.698-1.402-2.518-1.378-3.028.29-5.952 1.74-3.052 1.743-3.257.059-4.489-5.465-3.995-16.885 2.992-16.68 10.205.222 7.835 7.415 14.46 15.73 14.488 4.62.016 5.241-.301 9.75-4.98zm169.509 1.266c-.254-.973-.478-.419-.498 1.231-.02 1.65.187 2.446.46 1.769.275-.677.292-2.027.038-3zM41 340.622c0-.207-.787-.995-1.75-1.75-1.586-1.243-1.621-1.208-.378.378 1.307 1.666 2.128 2.195 2.128 1.372zm191.741-20.833c-.195-3.459-.357-.889-.36 5.711-.001 6.6.159 9.43.357 6.29.198-3.142.2-8.542.004-12zM35.995 331.288c-1.09-1.7-1.118-1.697-.57.044.316 1.007.61 2.357.654 3 .057.843.216.83.57-.044.271-.667-.023-2.017-.654-3zM29 328.607c0-.216-.698-.661-1.552-.989-.89-.341-1.291-.173-.94.393.586.95 2.492 1.406 2.492.596zm41-1.496c0-.49-.906-1.952-2.014-3.25L65.97 321.5l1.765 3.244c1.85 3.401 2.264 3.834 2.264 2.367zm-45-.456c0-.19-1.012-1.202-2.25-2.25L20.5 322.5l1.905 2.25c1.79 2.114 2.595 2.705 2.595 1.905zm9.393-1.237c1.19-3.1.626-4.418-1.893-4.418-2.914 0-3.385-2.405-.758-3.875 1.97-1.103 2.038-1.009-2.872-3.959l-3.63-2.18-1.62 2.471c-2.645 4.037-2.038 7.053 2.108 10.47 4.065 3.351 7.71 3.978 8.665 1.491zm-13.686-8.656c-.239-1.244-.444-.462-.455 1.738-.01 2.2.185 3.218.435 2.262s.26-2.756.02-4zm38.323 3.294c-.573-1.07-1.535-2.25-2.14-2.623-.603-.374-.324.501.621 1.944 2.002 3.055 3.038 3.518 1.519.679zm23.17-1.075c-1.814-1.107-3.025-2.455-2.69-2.996.368-.596-1.094-.926-3.701-.835-3.352.116-3.652.247-1.35.586 1.627.24 4.249 1.523 5.826 2.85 1.578 1.328 3.396 2.412 4.042 2.41.645-.002-.312-.909-2.126-2.015zM40 317.5c1.064-1.282.763-1.5-2.069-1.5-3.128 0-3.205.082-1.372 1.468 1.067.808 1.998 1.483 2.069 1.5.07.018.687-.643 1.372-1.468zm15.344-1.25c.253-.412-1.183-.822-3.191-.91-3.155-.138-3.312-.05-1.153.65 3.398 1.102 3.81 1.126 4.344.26zm85.34-1.438c-.32-.797-.557-.56-.605.605-.043 1.054.193 1.644.525 1.312.332-.332.368-1.195.08-1.916zm-56.955.584c-.332-.332-1.195-.368-1.917-.08-.797.32-.56.557.605.605 1.054.043 1.644-.193 1.312-.525zm-16.479-1.058c-.688-.278-1.813-.278-2.5 0-.688.277-.125.504 1.25.504s1.938-.227 1.25-.504zM23.51 311l1.99-2.5-2.25 1.905c-1.238 1.048-2.25 2.36-2.25 2.917 0 .556.117.824.26.595.144-.23 1.157-1.542 2.25-2.917zm22.983 1.011c.35-.566-.051-.734-.941-.393-1.732.665-2.05 1.382-.611 1.382.518 0 1.216-.445 1.552-.989zm186.256-59.261c-.161-11.137-.293-2.025-.293 20.25s.132 31.387.293 20.25c.16-11.137.16-29.363 0-40.5zM42.152 310.975c2.132-.593 5.148-2.672 7.25-4.998 4.051-4.484 4.735-9.32 2.183-15.429-1.176-2.814-5.293-6.542-5.94-5.379-.102.182-1.172 2.448-2.38 5.035-2.626 5.63-5.73 7.869-11.864 8.56-2.514.283-4.801 1.116-5.083 1.85-.819 2.134 3.698 8.485 7.083 9.958 3.793 1.652 4.187 1.67 8.75.403zM143 311c.825-.533 1.05-.97.5-.97s-1.675.437-2.5.97c-.825.533-1.05.97-.5.97s1.675-.437 2.5-.97zM7.683 308.812c-.32-.797-.556-.56-.604.605-.043 1.054.193 1.644.525 1.312.332-.332.368-1.195.08-1.916zM29 310.623c0-.207-.787-.995-1.75-1.75-1.586-1.243-1.621-1.208-.378.378 1.307 1.666 2.128 2.195 2.128 1.372zM50.5 309c.995-1.1 1.585-2 1.31-2-.275 0-1.315.9-2.31 2-.995 1.1-1.585 2-1.31 2 .275 0 1.315-.9 2.31-2zm-25.304-5.75c-.29-1.512-.72-2.173-.956-1.467-.425 1.272.336 4.217 1.09 4.217.216 0 .156-1.238-.134-2.75zm123.487-.438c-.32-.797-.556-.56-.604.605-.043 1.054.193 1.644.525 1.312.332-.332.368-1.195.08-1.916zM32.25 296.339c-.688-.278-1.813-.278-2.5 0-.688.277-.125.504 1.25.504s1.938-.227 1.25-.504zm23.433-1.526c-.32-.797-.556-.56-.604.605-.043 1.054.193 1.644.525 1.312.332-.332.368-1.195.08-1.916zm-30.933-.03c-.14-.685 1.282-1.503 3.25-1.868 3.346-.622 3.292-.657-1.215-.782-3.768-.106-5.476-.785-8.5-3.382-4.648-3.99-2.348-.505 2.63 3.985 4.055 3.659 4.18 3.726 3.835 2.047zm16.146-4.808c1.157-2.22 2.086-4.36 2.064-4.755-.022-.395-.711.518-1.532 2.031-.82 1.512-2.147 2.75-2.949 2.75-.93 0-1.384.876-1.256 2.428.257 3.099 1.059 2.563 3.673-2.454zm-5.646 1.364c-.688-.278-1.813-.278-2.5 0-.688.277-.125.504 1.25.504s1.938-.227 1.25-.504zm1.473-3.31c4.37-2.665 5.362-6.73 2.258-9.244-3.216-2.605-6.481-1.992-6.481 1.216 0 1.833-.533 2.5-2 2.5-2.72 0-3.295-4.964-.883-7.629 1.666-1.842 1.67-2.114.075-4.816-.93-1.575-1.692-3.807-1.692-4.96 0-4.596-7.767-.874-11.687 5.601-2.826 4.668-2.909 7.814-.318 12.063 4.23 6.938 13.941 9.406 20.728 5.268zm16.401-.295c-.988-.98-1.102-.865-.56.56.376.986.935 1.541 1.243 1.233.308-.307 0-1.114-.683-1.793zm99.382-2.727c-1.582-1.748-2.923-1.98-10.411-1.8l-8.595.205 8.766.334c7.334.279 8.961.646 9.962 2.249.658 1.053 1.398 1.713 1.645 1.467.246-.247-.369-1.352-1.367-2.455zM48.666 282.5c0-.825-.539-1.5-1.198-1.5-.659 0-2.496-.99-4.083-2.2-2.592-1.977-2.707-1.994-1.135-.171.962 1.116 1.75 2.524 1.75 3.13 0 .606 1.012 1.297 2.25 1.535 1.237.239 2.287.495 2.333.57.046.075.084-.539.084-1.364zm-18.32-3.043c-.327-.849-.808-1.329-1.07-1.067s-.18.957.183 1.543c.986 1.596 1.562 1.286.886-.476zm55.249-1.707l1.905-2.25-2.5 1.99c-1.375 1.093-2.688 2.106-2.917 2.25-.229.143.039.26.595.26.557 0 1.87-1.012 2.917-2.25zm-30.521-3.888c.623-1.165 1.199-4.327 1.28-7.028.136-4.569-.132-5.148-3.854-8.32-5.76-4.91-8.825-6.036-12.401-4.555-3.942 1.633-6.745 4.887-7.57 8.789-.584 2.76-.237 3.698 2.315 6.25C36.495 270.649 38.77 272 39.9 272c2.448 0 5.394-4.071 4.545-6.282-.79-2.06-3.512-3.05-4.812-1.75-1.63 1.628-3.633 1.205-3.633-.768 0-4.646 6.56-5.732 10.545-1.745 3.536 3.535 2.896 10.43-1.191 12.845-1.957 1.155-1.67 2.25.896 3.42 2.74 1.25 7.114-.663 8.824-3.858zm-17.456.747c.065-.06-1.285-1.214-3-2.565-2.553-2.011-2.788-2.073-1.295-.34 1.764 2.046 1.764 2.15 0 3.22-1.498.907-1.288.987 1.177.45 1.65-.36 3.053-.705 3.118-.765zm112.744-.109c-.317-.825-1.033-1.5-1.591-1.5-.586 0-.489.635.229 1.5.685.825 1.4 1.5 1.591 1.5.19 0 .087-.675-.23-1.5zM13.29 272.999c.288-1.101.115-1.75-.383-1.441-.499.308-.907 1.208-.907 2.001 0 2.07.68 1.775 1.29-.56zm31.838-.749c1.243-1.586 1.208-1.621-.378-.378-1.666 1.307-2.195 2.128-1.372 2.128.207 0 .995-.787 1.75-1.75zm51.372-5.09c2.2-1.14 3.645-2.092 3.21-2.116-1.691-.094-8.311 3.863-10.203 6.1l-1.993 2.356 2.493-2.135c1.371-1.174 4.293-3.066 6.493-4.205zm45.25 5.15c-.963-.25-2.538-.25-3.5 0-.963.252-.175.458 1.75.458s2.712-.206 1.75-.457zm-16.982-1.025c-1.503-.228-4.203-.232-6-.01-1.797.223-.568.41 2.732.415 3.3.006 4.77-.176 3.268-.405zm8.982.026c-2.27-.594-2.207-1.196.424-3.997 1.759-1.871 1.87-2.314.584-2.314-.875 0-1.833-.563-2.128-1.25-.295-.688-.359.009-.14 1.548.316 2.238-.123 3.034-2.197 3.978l-2.592 1.181 2.4.672c1.32.37 3.074.664 3.899.655.987-.01.902-.172-.25-.473zm6.076-1.914c-1.12-1.12-2.313-1.368-3.964-.823l-2.362.779 2.5.724c4.571 1.323 5.64 1.134 3.826-.68zm-12.991-.274c.778-.493-.783-.642-3.745-.358-3.26.314-5.62.04-6.585-.76-.906-.753-1.505-.837-1.505-.21 0 .57.563 1.265 1.25 1.543 2.069.835 9.156.691 10.585-.215zm13.854-1.925c-2.188-2.284-2.454-3.061-1.437-4.202 1.065-1.194.985-1.2-.54-.043-1.689 1.28-1.636 1.517.936 4.202 1.5 1.565 2.951 2.845 3.226 2.845.275 0-.708-1.261-2.185-2.802zm-109.344.259c-.326-.849-.807-1.329-1.069-1.067-.262.262-.18.957.183 1.543.986 1.596 1.562 1.286.886-.476zm79.262-.986c.119-.809-.082-1.505-.445-1.548-.364-.042-1.45-.227-2.412-.411-2.19-.42-2.215.317-.09 2.665 1.749 1.932 2.59 1.73 2.947-.706zM7.662 264.75c-.277-.688-.504-.125-.504 1.25s.227 1.938.504 1.25c.278-.688.278-1.813 0-2.5zM18 265.5c1.292-1.375 2.124-2.5 1.849-2.5-.275 0-1.557 1.125-2.849 2.5-1.292 1.375-2.124 2.5-1.849 2.5.275 0 1.557-1.125 2.849-2.5zm105.8 1.3c.66-.66 1.155-2.123 1.1-3.25-.083-1.72-.21-1.65-.794.445-1 3.597-4.106 3.942-4.106.456 0-2.133.278-2.465 1.333-1.59 1.01.838 1.334.747 1.334-.377 0-.888-.937-1.484-2.334-1.484-1.91 0-2.333.528-2.333 2.917 0 3.738 3.303 5.38 5.8 2.883zM45.5 263c-.995-1.1-2.24-2-2.766-2-.525 0 .107.885 1.405 1.967 3.056 2.546 3.648 2.56 1.361.033zm57.93 1.113c.301-.487-.235-1.5-1.191-2.25-1.536-1.204-1.594-1.177-.498.229.683.876.946 1.888.584 2.25-.362.362-.385.658-.05.658.334 0 .854-.399 1.155-.887zm17.026-4.82c8.146.172 13.961.724 14.626 1.389.804.804 1.823.728 3.76-.283 3.036-1.584 18.158-1.95 18.158-.44 0 .528-3.712 1.112-8.25 1.297l-8.25.337 10 .188c6.822.129 9.523-.123 8.5-.791-1.082-.707-.22-.938 3.093-.829 4.922.162 7.233-.682 6.65-2.43-.25-.754-14.987-1.188-48.302-1.42-46.758-.328-47.888-.29-45.778 1.516 1.933 1.656 3.544 1.803 15.16 1.383 12.413-.448 13.058-.374 14.32 1.648 1.3 2.082 1.334 2.085 2.056.133.69-1.864 1.547-1.966 14.257-1.698zm48.321 2.15c1.223-.856 2.223-2.067 2.223-2.69 0-.625-.584-.336-1.299.641-.714.977-2.852 2.142-4.75 2.589-2.844.67-3.006.83-.924.915 1.39.056 3.528-.599 4.75-1.455zM31 261c0-.55-.198-1-.441-1s-.72.45-1.059 1c-.34.55-.141 1 .441 1S31 261.55 31 261zM7.75 114.826c-.148-27.13-.27-5.226-.27 48.674s.122 76.097.27 49.326c.148-26.77.148-70.87 0-98zm65.784 144.211c-.979-1.08-1.503-2.676-1.167-3.552.353-.919.193-1.331-.378-.978-.544.336-.989 1.112-.989 1.723 0 1.135 2.904 4.77 3.81 4.77.275 0-.3-.883-1.276-1.963zm18.735 1.307c-.677-.274-2.027-.29-3-.037-.973.253-.419.478 1.231.498 1.65.02 2.446-.187 1.769-.461zm-57.254-5.837c2.397-2.887 2.402-2.923.142-1.011-1.288 1.09-2.806 2.887-3.372 3.993-1.088 2.124-.752 1.814 3.23-2.982zM62.5 256c.995-1.1 1.585-2 1.31-2-.275 0-1.315.9-2.31 2-.995 1.1-1.585 2-1.31 2 .275 0 1.315-.9 2.31-2zm-1.623-2.099c3.127-3.356 3.442-6.56 1.062-10.796-2.28-4.058-6.479-7.105-9.788-7.105-3.535 0-6.917 4.06-7.607 9.13-.627 4.606-.614 4.633 2.564 5.1 2.24.328 3.747-.085 5.043-1.381C53.168 247.832 54.81 247 55.8 247c3.668 0 5.624 4.574 2.916 6.82-1.777 1.475-3.938-.077-3.11-2.234.531-1.386.85-1.474 1.518-.42.647 1.022.849.924.86-.416.01-1.05-.734-1.75-1.862-1.75-1.032 0-2.495.787-3.25 1.75-1.266 1.615-1.226 1.635.522.258 1.754-1.382 1.844-1.332 1.206.676-.487 1.536-.165 2.472 1.106 3.211 2.514 1.463 2.962 1.377 5.171-.994zm36.907.365c-2.595-.205-7.095-.207-10-.005-2.906.203-.784.371 4.716.374 5.5.003 7.878-.163 5.284-.369zm38.061-.124l2.346-.66-2.038-1.843c-1.12-1.014-2.626-1.609-3.345-1.32-.85.34-.696.55.442.602.963.043 1.75.515 1.75 1.048 0 .532-.63.727-1.399.431-.77-.295-1.696-.056-2.059.532-.363.587-2.883 1.068-5.601 1.068-4.07 0-4.927-.309-4.862-1.75.047-1.045.282-1.247.583-.5.299.74 2.338 1.25 4.99 1.25 4.076 0 4.458-.205 4.168-2.24-.176-1.232-.995-2.287-1.82-2.346-.865-.061-.971.07-.25.313 2.815.945.968 1.797-3 1.383-3.705-.385-3.93-.536-1.75-1.176 1.706-.501.355-.766-4.25-.834-4.662-.07-6.76-.487-6.78-1.35-.017-.687-.541-.35-1.165.75s-1.623 2.33-2.22 2.735c-.752.51-.72.74.106.75.655.008 1.47-.435 1.809-.985.34-.55 2.504-.964 4.809-.921 2.305.043 3.629.306 2.941.583-.688.278-1.243 1.255-1.235 2.171.014 1.442.147 1.464.985.167.835-1.292.971-1.266.985.193.011 1.267-1.052 1.788-4.235 2.075-2.337.21.7.416 6.75.458 6.05.04 12.055-.222 13.345-.584zm25.905.115c-4.263-.188-11.238-.188-15.5 0-4.263.187-.775.34 7.75.34s12.012-.153 7.75-.34zm-51.168-1.506c.276-.276-.639-.72-2.034-.986-1.456-.279-3.014.091-3.66.87-.912 1.099-.53 1.284 2.035.986 1.736-.203 3.383-.594 3.66-.87zM65.914 249c-.036-.99-.347-.819-.914.5-1.181 2.75-1.181 4.328 0 2.5.533-.825.945-2.175.914-3zM117 251.43c0-1.042-.73-1.462-2.172-1.25-3.201.472-3.544 2.82-.411 2.82 1.68 0 2.583-.549 2.583-1.57zm-82.27-.034c-.333-.332-1.196-.368-1.917-.079-.798.32-.561.556.604.604 1.054.044 1.644-.193 1.312-.525zm11.539-.052c-.677-.274-2.027-.29-3-.037-.973.253-.419.478 1.231.498 1.65.02 2.446-.187 1.769-.461zM31 250.622c0-.207-.787-.995-1.75-1.75-1.586-1.243-1.621-1.208-.378.378 1.307 1.666 2.128 2.195 2.128 1.372zm7.504-2.626c1.498-1.656 1.616-2.438.676-4.5-1.314-2.884-3.608-3.42-2.725-.637.706 2.224-1.783 4.613-3.942 3.784-2.047-.785-1.94-6.073.166-8.18 1.203-1.202 2.742-1.536 5.425-1.176 3.076.413 4.16.058 6.07-1.987 1.28-1.37 3.52-3.111 4.98-3.87 10.547-5.49 8.355-24.558-3.519-30.616-10.575-5.395-23.669 2.415-23.613 14.084.026 5.415 2.966 12.49 5.827 14.021 2.94 1.574 7.767 1.322 9.589-.5 2.008-2.008 1.156-3.419-2.067-3.419-2.031 0-2.45-.43-2.19-2.25.26-1.836.953-2.25 3.763-2.25 2.816 0 3.784.581 5.307 3.19 1.69 2.893 1.725 3.456.38 6.055-1.69 3.268-5.36 5.255-9.71 5.255-3.34 0-4.321 1.56-4.321 6.872 0 2.457.757 4.038 2.756 5.758 3.363 2.893 4.794 2.966 7.148.366zm3.303-.522c-.308-.308-.867.247-1.243 1.233-.542 1.425-.428 1.54.56.56.684-.679.99-1.486.683-1.793zM109.247 215c.291-11.132.19-15.314-.255-10.5-.407 4.4-.958 16.1-1.225 26-.288 10.685-.184 14.952.256 10.5.407-4.125.958-15.825 1.224-26zm-43.564 29.813c-.32-.798-.556-.561-.604.604-.043 1.054.193 1.644.525 1.312.332-.332.368-1.195.08-1.917zm59.737-.674c-.767-1.536-2.029-6.583-2.805-11.216-1.109-6.617-1.433-7.507-1.513-4.148-.086 3.607-1.693 9.417-4.489 16.225-.497 1.21.428 1.542 4.792 1.716l5.408.216zM111.566 239c.344-2.475 1.225-6.975 1.96-10 .734-3.025 1.637-10.675 2.008-17 .37-6.325.821-13.075 1.003-15 .18-1.925.652-7.438 1.046-12.25.409-4.99 1.168-8.75 1.767-8.75.717 0 .708-.342-.027-1.077-.654-.654-.79-2.353-.345-4.323.402-1.786.827-27.626.944-57.423.18-46.13.002-54.177-1.202-54.177-1.59 0-2.65 13.092-2.79 34.5-.043 6.6-.439 14.025-.879 16.5l-.8 4.5-.26-5.5-.258-5.5-.714 5c-.45 3.152-.308 5.597.384 6.615 1.184 1.743-.233 58.446-2.296 91.885-1.958 31.73-2.196 39.598-1.148 38 .54-.825 1.264-3.525 1.607-6zm23.162-3.75c-.215-2.063-.392-.375-.392 3.75s.177 5.813.392 3.75c.216-2.063.216-5.438 0-7.5zM116.6 237.5c2.933-9.208 4.376-17.927 4.515-27.29.129-8.611-.32-11.339-1.646-10.012-1.042 1.042-1.337 4.802-.376 4.802.615 0 .636.648.055 1.75-1.432 2.717-2 12.247-.73 12.265.595.008.407.452-.418.985-1.333.862-1.333.973 0 1 1.256.026 1.273.175.104.914-.767.486-1.119 1.605-.781 2.485.338.88.178 1.601-.354 1.601-1.197 0-.83 2.235.53 3.235.638.468.587.74-.14.75-1.162.015-2.408 3.5-2.865 8.015-.14 1.375-.571 3.625-.96 5-1.317 4.656 1.362-.15 3.066-5.5zM43 242.607c0-.766-.668-1.65-1.485-1.963-1.243-.477-1.285-.249-.26 1.393 1.456 2.33 1.745 2.425 1.745.57zM61.5 238c-1.58-1.65-3.247-3-3.703-3-.808 0 5.272 5.912 6.14 5.97.24.017-.856-1.32-2.437-2.97zm-34.817-.188c-.32-.797-.556-.56-.604.605-.043 1.054.193 1.644.525 1.312.332-.332.368-1.195.08-1.917zm98.327-4.312c-.584-2.996-.809-3.33-.895-1.332-.109 2.529.82 6.255 1.403 5.625.15-.161-.08-2.093-.508-4.293zm-92.006-.758c3.494-.422 3.493-.422-.554-.582-2.228-.088-4.68-.723-5.452-1.41-1.187-1.059-1.205-.99-.114.456.71.942.94 2.286.51 3-.61 1.014-.465 1.04.668.126.795-.643 3.02-1.358 4.942-1.59zm19.996.29c0-.533-.675-.71-1.5-.394-.825.317-1.5.753-1.5.969 0 .216.675.393 1.5.393s1.5-.436 1.5-.969zm70.683-6.22c-.32-.797-.556-.56-.604.605-.043 1.054.193 1.644.525 1.312.332-.332.368-1.195.08-1.917zm-83.663-3.288c-.696-.838-2.222-1.463-3.392-1.388-1.976.127-1.963.168.183.578 1.271.243 2.564 1.1 2.874 1.907.309.806.796 1.232 1.081.946.285-.285-.05-1.205-.746-2.043zm82.642-2.774c-.277-.688-.504-.125-.504 1.25s.227 1.938.504 1.25c.278-.688.278-1.813 0-2.5zm-63.969-3.481c-.254-.973-.478-.419-.498 1.231-.02 1.65.187 2.446.46 1.769.275-.677.292-2.027.038-3zm-39-3c-.254-.973-.478-.419-.498 1.231-.02 1.65.187 2.446.46 1.769.275-.677.292-2.027.038-3zm1.597-5.27c.288-1.101.115-1.75-.383-1.441-.499.308-.907 1.208-.907 2.001 0 2.07.68 1.775 1.29-.56zm34.834-1.266c-.988-.98-1.102-.865-.56.56.376.986.935 1.541 1.243 1.233.308-.307 0-1.114-.683-1.793zm-4.835-5.758c-2.316-2.186-4.791-3.973-5.5-3.971-.71.002.061.837 1.711 1.857 1.65 1.019 3.857 2.817 4.905 3.996 1.048 1.179 2.173 2.132 2.5 2.118.327-.014-1.3-1.814-3.616-4zm-26.161.275c1.243-1.586 1.208-1.621-.378-.378-.963.755-1.75 1.543-1.75 1.75 0 .823.821.294 2.128-1.372zM32 197.714c.825-.306.113-.592-1.583-.635-2.06-.053-3.084.401-3.084 1.367 0 .994.495 1.192 1.584.635A34.642 34.642 0 0 1 32 197.714zM121.6 194c0-5.138-.95-6.597-1.908-2.932-.435 1.665.913 7.932 1.706 7.932.111 0 .202-2.25.202-5zM26 196.607c0-.216-.698-.661-1.552-.989-.89-.341-1.291-.173-.94.393.586.95 2.492 1.406 2.492.596zm10.73-.211c-.333-.332-1.196-.368-1.917-.08-.798.32-.561.557.604.605 1.054.043 1.644-.193 1.312-.525zm4.132-8.73c.827-.996.773-1.333-.211-1.333-.725 0-1.318.6-1.318 1.334 0 .733.095 1.333.211 1.333.116 0 .71-.6 1.318-1.333zm80.929-15.916l-.21-16.25-.54 15c-.507 14.047-.395 17.5.566 17.5.216 0 .299-7.313.184-16.25zm-85.265 11.443c-.307-.308-1.114 0-1.793.683-.98.988-.865 1.102.56.56.986-.376 1.541-.935 1.233-1.243zm6.136-1.443c-.277-.688-.504-.125-.504 1.25s.227 1.938.504 1.25c.278-.688.278-1.813 0-2.5zm-24.979-.938c-.32-.797-.556-.56-.604.605-.043 1.054.193 1.644.525 1.312.332-.332.368-1.195.08-1.917zm93.024-6.05c-.239-1.244-.444-.462-.455 1.738-.01 2.2.185 3.218.435 2.262s.26-2.756.02-4zM40 175.655c0-.19-1.012-1.202-2.25-2.25L35.5 171.5l1.905 2.25c1.79 2.114 2.595 2.705 2.595 1.905zm-12.946-4.551c1.546-.618 1.843-1 .807-1.04-.902-.036-2.498.724-3.547 1.686-1.05.963-1.413 1.43-.807 1.04.605-.39 2.201-1.149 3.547-1.686zm84.63-13.292c-.32-.797-.557-.56-.605.605-.043 1.054.193 1.644.525 1.312.332-.332.368-1.195.08-1.917zm61 0c-.32-.797-.557-.56-.605.605-.043 1.054.193 1.644.525 1.312.332-.332.368-1.195.08-1.917zm-92.108-9.823l.075-7.489-.37 7.282c-.203 4.004-.769 7.035-1.256 6.733-.488-.301-1.196-.047-1.574.565-.433.7.005.98 1.18.756 1.619-.31 1.88-1.36 1.945-7.847zm-4.471.011c-.487-2.475-.935-3.544-.995-2.375-.141 2.731 1.132 9.155 1.557 7.86.178-.542-.075-3.01-.562-5.485zm2.005-6.038c-.922-2.308-.987-2.235-1.047 1.163-.034 1.994.275 5.144.687 7 .75 3.371.75 3.37 1.046-1.163.163-2.496-.146-5.646-.686-7zm-10.427 3.85c-.32-.797-.556-.56-.604.605-.043 1.054.193 1.644.525 1.312.332-.332.368-1.195.08-1.917zm22.56-.476c-.69-.279-1.047-.843-.793-1.255.254-.411-.186-.748-.978-.748-1.087 0-1.169.328-.334 1.334.609.733 1.614 1.297 2.234 1.254.703-.05.654-.27-.128-.585zm-17.545-6.97c-.303-.304-1.259.818-2.124 2.491-2.262 4.374-1.908 5.217.568 1.351 1.159-1.81 1.86-3.54 1.556-3.843zm1.843 4.567c1.076-1.741-.15-2.11-1.52-.457-.79.95-.866 1.524-.202 1.524.584 0 1.36-.48 1.722-1.067zm13.33-4.875c-.565-1.618-1.731-3.527-2.593-4.242-1.373-1.14-1.472-.993-.804 1.192.666 2.176 3.295 5.992 4.129 5.992.161 0-.169-1.324-.733-2.942zm-3.526.399c-.326-.849-.807-1.329-1.069-1.067-.262.262-.18.957.183 1.543.986 1.596 1.562 1.286.886-.476zm94.873-5.592c2.151-1.33 1.223-8.362-2.016-15.264-3.213-6.848-3.816-10.623-.75-4.694 1.73 3.344 2.883 4.183 1.847 1.343-.573-1.571-.416-1.555 1.531.155 2.14 1.879 2.17 1.877 2.17-.139 0-1.28-.61-1.992-1.633-1.905-.898.077-1.766-.707-1.93-1.742-.164-1.034-.846-2.384-1.514-3-.926-.852-1.027-.76-.423.381.658 1.245.556 1.279-.603.2-.768-.714-1.419-2.454-1.445-3.866l-.048-2.566 2.11 2.366c2.446 2.74 4.678 3.53 3.845 1.36-.313-.816-1.084-1.174-1.714-.796-.63.377-.544-.056.191-.962 1.706-2.105.572-4-1.92-3.21-1.09.347-1.916.138-1.916-.483 0-.601-1.125-1.52-2.5-2.043-2.414-.918-3.664-5-1.531-5 .532 0 .68.749.33 1.664-.464 1.208-.276 1.44.686.846.88-.545 1.085-.433.61.335-.392.635-.263 1.155.287 1.155s1.357-.563 1.794-1.25c.803-1.265.973-1.82 1.199-3.905.075-.696.92-.436 2.125.655 2.426 2.196 2.474 1.724.359-3.56-1.006-2.515-1.922-3.648-2.366-2.929-.481.78-1.465.134-2.927-1.919-2.4-3.37-1.819-4.083 1.143-1.403 1.784 1.615 1.827 1.582.97-.75-.51-1.39-1.858-2.582-3.13-2.77-2.135-.318-2.22-.06-1.892 5.751.189 3.346.085 6.083-.23 6.082-.316-.001-1.076 2.699-1.69 6-.91 4.894-.852 6.51.317 8.75 1.889 3.62 1.861 7.248-.054 7.248-.825 0-1.5.675-1.5 1.5s-.45 1.5-1 1.5-1 .986-1 2.191c0 2.009.105 2.048 1.262.466 1.165-1.595 1.413-1.603 3.25-.11 1.863 1.515 1.869 1.578.093 1.01-2.31-.738-5.605 1.998-5.605 4.657 0 1.047.45 1.626 1 1.286.55-.34 1-.067 1 .608 0 .674.29.936.642.583.354-.354.074-1.329-.622-2.167-.72-.868-.828-1.524-.25-1.524.56 0 1.286.704 1.616 1.563.33.86 1.048 1.287 1.595.948.575-.355.744.041.4.937-.39 1.02-.024 1.552 1.071 1.552 1.067 0 1.396-.45.915-1.25-.48-.8-.122-.74.996.168.96.78 2.245 2.355 2.855 3.5.959 1.8.905 1.913-.396.84-.828-.682-1.826-.92-2.217-.53-.39.391-.536.05-.322-.758.214-.809.2-1.13-.032-.714-.232.416-.878.474-1.436.13-.58-.36-.52.296.14 1.531.636 1.187.876 3.154.535 4.37-.427 1.52-.331 1.796.305.88.747-1.077 1.049-1.016 1.559.313.347.906 1.096 1.36 1.664 1.009.567-.35.967-.267.888.187-.475 2.738.437 2.256 1.277-.674.552-1.925 1.467-3.786 2.035-4.137zm-4.517-7.529c.427-1.111.254-1.426-.52-.948-.77.476-.947.167-.53-.92.502-1.31.796-1.37 1.473-.302 1.143 1.804 1.094 3.834-.093 3.834-.532 0-.68-.749-.33-1.664zM174 90.845c0-.88-.675-2.16-1.5-2.845s-1.5-2.177-1.5-3.317c0-1.744.395-1.536 2.5 1.317 1.375 1.864 2.5 2.776 2.5 2.028 0-.749.27-1.09.602-.76.331.332-.119 1.632-1 2.89-1.182 1.688-1.602 1.868-1.602.687zM71.128 137.25c1.243-1.586 1.208-1.621-.378-.378-.963.755-1.75 1.543-1.75 1.75 0 .823.821.294 2.128-1.372zm9.555-2.438c-.32-.797-.556-.56-.604.605-.043 1.054.193 1.644.525 1.312.332-.332.368-1.195.08-1.917zm-19.006.485c-1.108-.287-1.603-1.047-1.262-1.936.315-.821.128-1.196-.426-.854-1.896 1.172-1.028 3.495 1.261 3.377 1.804-.093 1.889-.21.427-.587zm16.506-4.797c.377-4.756 2.064-4.922 2.935-.29.442 2.347.656 2.628.75.981.073-1.27.577-2.034 1.12-1.698.544.336-.019-.969-1.25-2.899-1.475-2.313-3.025-3.524-4.547-3.552-1.5-.027-2.059.363-1.594 1.116.506.818.011.95-1.69.45-4.578-1.347-5.413-1.353-6.909-.053-.826.718-2.7 1.761-4.165 2.318-4.7 1.788-4.234-1.35.87-5.842 2.533-2.23 4.376-4.286 4.094-4.567-.282-.282-1.081.174-1.777 1.012-.696.838-2.222 1.53-3.392 1.54-1.451.01-1.727.27-.867.815.937.595.616 1.405-1.25 3.159-2.938 2.76-3.185 4.797-.795 6.544 1.446 1.058 2.23.831 4.981-1.436 3.375-2.782 9.035-3.622 8.539-1.267-.205.973.212 1 1.856.12 2.073-1.11 2.105-1.015 1.413 4.207-.487 3.674-.385 5.03.326 4.342.57-.55 1.178-2.8 1.352-5zm-9.94-.55c2.059-1.347 3.746-2.772 3.75-3.166.011-1.131-6.51 3.012-8.602 5.464-1.075 1.261-1.244 1.772-.391 1.185.825-.568 3.184-2.135 5.243-3.483zm4.324-.06c.374-.603-.501-.324-1.944.621-1.443.946-2.623 1.908-2.623 2.14 0 .723 3.854-1.606 4.567-2.76zm7.116-1.078c-.32-.797-.556-.56-.604.605-.043 1.054.193 1.644.525 1.312.332-.332.368-1.195.08-1.917zM70 119.404c0-.275-2.025.893-4.5 2.596s-4.5 3.321-4.5 3.596c0 .275 2.025-.893 4.5-2.596s4.5-3.321 4.5-3.596zm3.746 1.18c1.729-2.054 1.724-2.059-.327-.332-1.145.964-2.337 1.496-2.65 1.184-.313-.313-.819-.164-1.125.33-1.14 1.847 2.415.82 4.102-1.183zM79 119c0-2.967 2.145-4.193 3.5-2 .34.55 1.154.993 1.809.985.783-.01.719-.315-.187-.889-.758-.48-1.1-1.322-.76-1.871.339-.55-.165-.937-1.12-.862-1.39.11-1.748-.718-1.801-4.168-.042-2.695.454-4.596 1.324-5.083.917-.513.41-.779-1.487-.779-2.073 0-2.916.513-3.016 1.834-.076 1.008.227 1.833.674 1.833 1.884 0-.634 6.54-2.975 7.725-2.449 1.24-2.45 1.246-.192 1.26 1.919.013 2.172.4 1.642 2.515-.475 1.89-.236 2.5.98 2.5 1.121 0 1.609-.91 1.609-3zm23.168-.232c-.742-.742-.872-.351-.437 1.312.354 1.352.807 1.806 1.057 1.057.24-.722-.038-1.787-.62-2.369zM95 120c-1.333-.862-1.333-.975 0-1.02.908-.03.513-.615-1-1.48-1.375-.786-3.175-1.409-4-1.383-.825.025-.15.7 1.5 1.502l3 1.457-4-.478-4-.479 4 1.364c4.804 1.637 6.543 1.837 4.5.517zm4.73-.604c-.333-.332-1.196-.368-1.917-.08-.798.32-.561.557.604.605 1.054.043 1.644-.193 1.312-.525zm63.794-3.819c.013-2.428-.324-4.2-.75-3.937-1.376.85-.795 8.412.643 8.357.045-.002.094-1.99.107-4.42zm24.414-3.059c-.455-3.29-1.306-6.14-1.89-6.335-.583-.195-.862-.675-.619-1.068s-.48-1.29-1.605-1.993c-1.978-1.235-1.993-1.2-.435 1.023 2.547 3.636 1.864 4.672-.893 1.355-1.807-2.174-1.53-1.363 1.005 2.941 1.924 3.268 3.499 6.68 3.499 7.584 0 1.502 1.034 3.32 1.55 2.725.12-.137-.156-2.942-.612-6.232zm-125.576 3.397c1.879.251 2.578-.267 5.627-4.165l3.323-4.25-4.52 4.325c-3.817 3.652-4.623 4.058-5.18 2.607-.362-.945-.423-1.954-.136-2.242.288-.288.524-.043.524.543 0 .587 1.913-.8 4.25-3.083 4.83-4.717 8.885-5.946 8.22-2.492-.224 1.162-.084 1.79.311 1.394.396-.395.734-1.693.753-2.885.018-1.192.4-2.76.85-3.484.449-.724.546-1.586.216-1.916-.33-.33-.6-.075-.6.566 0 .642-.477 1.167-1.059 1.167s-.738-.52-.346-1.155c.433-.699.276-.883-.397-.467-.61.377-.863 1.46-.56 2.404.394 1.23.29 1.356-.367.444-.717-.994-1.292-.86-2.624.612-.939 1.037-3.48 2.685-5.65 3.663-2.168.978-3.77 2.058-3.558 2.4.21.341-.251 1.49-1.028 2.551-1.008 1.38-1.415 1.519-1.426.49-.013-1.216-.167-1.207-.985.058-.837 1.295-.971 1.271-.985-.177-.008-.922.547-1.865 1.235-2.096.721-.242.615-.375-.25-.313-2.106.15-2.627 4.586-.538 4.586.88 0 1.874.713 2.209 1.584.429 1.118.82 1.24 1.33.414.397-.643 1.01-1.13 1.36-1.083zm8.388.902c-.138-.651.988-1.8 2.5-2.555 1.512-.754 2.75-2.11 2.75-3.013 0-1.188-.966-.705-3.5 1.751-3.54 3.431-4.324 5-2.5 5 .55 0 .887-.532.75-1.183zm25.809-.349c-1.068-.807-2.418-1.452-3-1.433-.583.02.066.679 1.441 1.465 3.24 1.852 4.028 1.836 1.559-.032zm25.148-3.706c-.239-1.244-.444-.462-.455 1.738-.01 2.2.185 3.218.435 2.262s.26-2.756.02-4zm64.27 2.988c-.011-.688-.942-2.375-2.066-3.75-1.642-2.007-1.842-2.082-1.013-.381.567 1.165.723 2.427.346 2.804-.377.377-.024 1.104.785 1.616 1.902 1.203 1.975 1.192 1.949-.289zm-33.45-1.557c-.308-.308-1.115 0-1.794.683-.98.988-.865 1.102.56.56.986-.376 1.541-.935 1.233-1.243zm-57.514-2.175c-2.41-3.385-5.82-6.018-7.792-6.018-2.168 0 1.211 4.106 5.532 6.721 4.76 2.882 4.803 2.869 2.26-.703zm-7.52.993c.35-.566-.051-.734-.941-.393-1.732.665-2.05 1.382-.611 1.382.518 0 1.216-.445 1.552-.989zm-15.365-2.761c1.243-1.586 1.208-1.621-.378-.378-.963.755-1.75 1.543-1.75 1.75 0 .823.821.294 2.128-1.372zm12.072.55c-.66-.66-1.2-1.835-1.2-2.61 0-.908.736-.568 2.06.95l2.059 2.36-1.669-2.741c-1.907-3.134-3.45-2.776-3.45.8 0 1.63.564 2.441 1.7 2.441 1.322 0 1.433-.267.5-1.2zm12.408-2c-.907-.507-1.434-1.272-1.17-1.699.263-.427-1.414-2.537-3.728-4.688L87.503 98.5 91 102.306c1.925 2.093 3.373 4.015 3.22 4.272-.155.257.52 1.54 1.5 2.852.978 1.312 1.95 1.914 2.158 1.34.209-.575-.363-1.461-1.27-1.97zm70.682 1.2c.287-1.1.115-2-.384-2-.498 0-.906.9-.906 2s.173 2 .383 2c.211 0 .62-.9.907-2zM73 99.537c.825-.708 2.274-1.16 3.219-1.005.945.155 1.62-.182 1.5-.75-.12-.568.406-1.26 1.17-1.537.883-.32 1.122-.072.656.682-.991 1.604.266 6.308 1.484 5.555.534-.33.971-2.111.971-3.958 0-1.846.5-3.524 1.11-3.727.71-.237.561-.825-.411-1.632-1.177-.977-1.69-.99-2.264-.059-.472.763-.321.942.41.49.635-.393 1.155-.237 1.155.345S81.325 95 80.5 95s-1.5-.69-1.5-1.535c0-1.646-1.525-1.116-5.5 1.912-1.965 1.497-1.961 1.514.25.957 1.379-.348 2.25-.112 2.25.608 0 .647-.403.927-.897.622-.884-.547-12.28 7.294-13.522 9.305-.636 1.029 8.55-4.87 11.419-7.332zm-9.872 3.713c1.243-1.586 1.208-1.621-.378-.378-.963.755-1.75 1.543-1.75 1.75 0 .823.821.294 2.128-1.372zm21.426-2.349c-.811-1.87-1.493-2.86-1.515-2.198-.048 1.48 2.151 6.44 2.639 5.953.194-.195-.312-1.884-1.124-3.755zm4.426 2.575c-.696-.838-1.525-1.264-1.844-.946-.318.318.084.997.893 1.51 2.117 1.338 2.394 1.174.95-.564zm8.02 1.211c0-.172-1.462-1.635-3.25-3.25L90.5 98.5l2.937 3.25c2.738 3.03 3.563 3.71 3.563 2.937zm-46-1.07c0-.211-.9-.62-2.001-.907-1.101-.288-1.75-.115-1.441.383.538.871 3.442 1.313 3.442.524zm114.662-2.867c-.277-.688-.504-.125-.504 1.25s.227 1.938.504 1.25c.278-.688.278-1.813 0-2.5zm24.462.983c-.988-.98-1.102-.865-.56.56.376.986.935 1.541 1.243 1.233.308-.307 0-1.114-.683-1.793zM60.84 100.507c.331.33-.06 1.02-.869 1.532-.809.512-.964.937-.343.946 1.639.022 3.654-2.72 2.897-3.944-.425-.687-1.259-.719-2.432-.09-2.393 1.28-3.928-.362-3.319-3.552.62-3.244 3.273-2.788 5.023.863.722 1.506 1.738 2.738 2.258 2.738 1.138 0 1.282-9.674.154-10.37-.435-.27-.61 1.054-.39 2.94.452 3.873-.322 4.195-3.571 1.485-2.243-1.871-2.231-3.884.04-6.817.7-.903 1.341-.96 2.256-.202.911.757 1.491.716 2.021-.142.455-.735.322-.942-.341-.532-.597.369-1.368.213-1.714-.346-.36-.582.413-1.016 1.809-1.016 1.34 0 3.032-.787 3.76-1.75 1.127-1.489 1.115-1.563-.077-.5-.771.688-2.1 1.234-2.952 1.215-.985-.023-.657-.53.9-1.392 1.347-.747 2.977-1.155 3.622-.907.65.25 1.393-.704 1.668-2.144.444-2.319.325-2.444-1.122-1.18-.89.776-3.282 2-5.315 2.717-2.033.717-3.463 1.682-3.178 2.143.285.461-.526 2.117-1.803 3.68-1.277 1.562-2.984 3.802-3.793 4.979-1.556 2.264-5.603 2.916-6.24 1.006-.233-.699-1.25-.856-2.656-.41-2.147.682-2.183.83-.608 2.57.932 1.03 1.338 2.385.918 3.064-.482.78-.334.96.411.499 1.606-.992 5.146.263 5.146 1.825 0 2.137 4.23 3.497 5.848 1.88.765-.765 1.661-1.12 1.992-.788zM54.1 98.75c-.46-1.237-.623-2.813-.362-3.5.897-2.355 1.762-1.25 1.762 2.25 0 4.09-.26 4.32-1.4 1.25zM50.5 95c-.34-.55-.141-1 .441-1S52 94.45 52 95s-.198 1-.441 1-.72-.45-1.059-1zm71.19 3.25c-.252-.963-.458-.175-.458 1.75s.206 2.712.457 1.75c.252-.963.252-2.538 0-3.5zM50.5 101c.34-.55.141-1-.441-1S49 100.45 49 101s.198 1 .441 1 .72-.45 1.059-1zm137.39-3.787c-.49-1.289-.89-3.664-.89-5.278 0-2.268-.454-2.935-2-2.935-1.1 0-2-.477-2-1.059s.419-.8.93-.484c.513.317 1.257.049 1.655-.595.474-.767.289-.902-.538-.391-.936.578-1.095.166-.618-1.596.585-2.159.504-2.129-.9.327-1.577 2.762-1.261 4.266 2.493 11.873.86 1.744-1.45 2.014-3.96.463-.825-.51-.633.154.465 1.61 1.56 2.069 2.23 2.307 4.061 1.442 1.795-.847 2.032-1.46 1.303-3.377zm-119.263-1.79c.122-3.758.108-3.776-.331-.432-.252 1.92-.985 3.867-1.627 4.326-.797.57-.692.707.331.432.98-.264 1.544-1.765 1.627-4.326zM44.73 98.396c-.332-.332-1.195-.368-1.916-.08-.798.32-.561.557.604.605 1.054.043 1.644-.193 1.312-.525zm134.773-.637c.45.407.49.171.09-.525-.402-.697-1.226-.96-1.831-.586-.704.435-.875.092-.475-.952.345-.898.084-1.944-.58-2.324-.663-.381-.872-.324-.465.126.408.45.257 1.402-.336 2.116-1.46 1.76-.16 3.842 1.526 2.443.69-.572 1.621-.706 2.071-.298zm-139.03-.803c-.354-.574-.068-1.811.637-2.75 1.197-1.593 1.161-1.596-.532-.052-1.551 1.415-1.525 3.846.041 3.846.275 0 .21-.47-.145-1.044zM60 96.441c0-.857-.45-1.28-1-.941-.55.34-1 1.041-1 1.559s.45.941 1 .941 1-.702 1-1.559zm6.69-3.191c-.252-.963-.458-.175-.458 1.75s.206 2.712.457 1.75c.252-.963.252-2.538 0-3.5zM44.5 96c.34-.55-.11-1-1-1s-1.34.45-1 1c.34.55.79 1 1 1 .21 0 .66-.45 1-1zm44 0c-.34-.55-1.379-.968-2.309-.93-1.379.058-1.321.23.309.93 2.676 1.15 2.71 1.15 2 0zm41.193-3.731c-.254-.973-.478-.419-.498 1.231-.02 1.65.187 2.446.46 1.769.275-.677.292-2.027.038-3zm-55.858.695c2.235-1.653 2.683-2.656 2.372-5.32l-.383-3.282-2.912 2.72C71.14 88.737 70 90.821 70 92.402c0 3.13.302 3.174 3.835.562zm-11.71-2.23c-.989-.98-1.103-.866-.56.56.375.985.934 1.54 1.242 1.232.308-.307 0-1.114-.683-1.793zm32.597.773c-2.629-.723-6.004-2.088-7.5-3.035-2.5-1.58-2.592-1.582-1.119-.029 1.831 1.932 8.425 4.491 11.397 4.424 1.1-.025-.15-.637-2.778-1.36zm-46.157-1.844c2.089.802 1.756-1.063-.565-3.163-1.134-1.026-2-1.31-2-.655 0 .635.54 1.155 1.2 1.155.933 0 .933.267 0 1.2-.66.66-1.164 1.673-1.121 2.25.043.58.297.515.565-.144.267-.656 1.131-.946 1.92-.643zm7.486-1.758c.807-1.51.694-1.744-.603-1.247-1.024.393-1.529.116-1.405-.772.724-5.18-1.298-5.976-3.105-1.223-1.937 5.095 2.586 7.964 5.113 3.242zm-4.4.627c-.31-.807-.227-1.676.185-1.93.412-.255.814.405.894 1.467.173 2.297-.298 2.499-1.08.463zm18.261-1.356c1.245-1.038 1.264-1.166.088-.594-2.86 1.391-3.975 2.65-3.306 3.732.443.716.836.592 1.151-.363.264-.798 1.194-2.047 2.067-2.775zm9.42-.764c-.561-4.102-.427-4.566 1.27-4.385a27.18 27.18 0 0 0 3.77.088c1.572-.096 1.667-.363.593-1.657-.888-1.07-1.6-1.224-2.323-.5-.573.573-1.347 1.042-1.72 1.042-1.26 0-3.156-5.95-2.464-7.732.642-1.658.774-1.647 2.113.173 1.154 1.567 1.429 1.636 1.429.357 0-2.582-3.047-3.05-5.023-.772-1.28 1.477-1.916 1.692-2.255.765-.375-1.026-.704-1.036-1.605-.05-.624.684-.834 1.025-.467.76 1.166-.846 3.35 1.665 3.365 3.871.013 1.74.192 1.855.985.628.646-1 .974-1.083.985-.25.03 2.397-.305 2.748-2.388 2.51-1.967-.227-1.957-.182.153.717 1.46.622 2.25 1.819 2.25 3.409 0 2.463.891 5.614 1.588 5.614.205 0 .09-2.065-.255-4.588zM95 88.09c-5.039-3.231-9-4.69-9-3.312 0 1.734 3.615 4.174 7.55 5.096 6.14 1.438 6.255 1.298 1.45-1.784zm72.73.98c-.08-1.063-.482-1.723-.894-1.469-.412.255-.495 1.124-.185 1.931.78 2.036 1.252 1.834 1.08-.463zM98.5 87c-1.58-1.65-3.577-2.971-4.437-2.937-1.107.045-.979.303.437.882 1.1.45 2.857 1.772 3.905 2.937 1.048 1.165 2.144 2.118 2.437 2.118.293 0-.761-1.35-2.342-3zm39.46-1c.08 1.193.31 1.14 1.125-.258 1.47-2.526.05-4.294-1.65-2.052-.754.996-1.354 2.485-1.333 3.31.025.977.338.802.898-.5.585-1.36.892-1.52.96-.5zM70 84.43c0-.275-.9-.019-2 .57s-2 1.295-2 1.57c0 .275.9.019 2-.57s2-1.295 2-1.57zm38 1.511c0-.582-.465-.771-1.034-.42-1.007.622-.854-1.553.475-6.78.493-1.94.408-1.905-.632.259-1.699 3.534-1.81 3.611-2.848 1.971-.762-1.205-.933-1.124-.946.45-.016 1.986 2.65 5.579 4.14 5.579.465 0 .845-.477.845-1.059zm73.299-1.605c-.453-1.18-.269-1.435.63-.88 1.003.62 1.031.338.136-1.335-1.348-2.518-2.273-2.828-1.364-.457.453 1.18.269 1.435-.63.88-1.003-.62-1.031-.338-.136 1.335 1.348 2.518 2.273 2.828 1.364.457zM58.457 82.931c-.316-.512-1.279-.931-2.138-.931-1.272 0-1.333.278-.328 1.489 1.291 1.556 3.468 1.063 2.466-.558zM109.86 78c0-.945-.317-.76-.859.5-.473 1.1-.86 2.675-.86 3.5 0 .945.318.76.86-.5.473-1.1.86-2.675.86-3.5zm25.824 2.813c-.32-.798-.556-.561-.604.604-.043 1.054.193 1.644.525 1.312.332-.332.368-1.195.08-1.916zm43.187-.507c1-1.925.902-2.147-.807-1.818-1.36.262-1.782-.056-1.4-1.05.3-.785 1.019-1.135 1.596-.778.618.382.753.168.326-.522-.398-.644-1.143-.911-1.656-.594-1.396.863-3.245-4.628-1.983-5.89.561-.561 1.157-.826 1.323-.587C178.547 72.329 183 80.4 183 81.267c0 2.035 1.983-.72 2.953-4.104.656-2.286.602-3.006-.187-2.518-.7.432-.885.108-.505-.884.331-.862-.028-2.398-.798-3.414-2.466-3.255-1.486-3.958 1.183-.847 1.415 1.65 2.387 2.55 2.159 2-2.255-5.434-5.74-11.104-9.396-15.282-2.425-2.773-4.409-5.683-4.409-6.469 0-1.602-3.863-3.666-5.684-3.036-.89.308-.823 1.575.266 5.098 2.357 7.63 3.31 12.415 3.753 18.861.309 4.485.976 6.64 2.542 8.205 1.168 1.168 2.123 2.648 2.123 3.29 0 1.4.362 1.04 1.87-1.86zm1.547-6.056a509.063 509.063 0 0 0-5.543-9.566C171.483 59 171.282 58.04 174 60.5c1.1.995 2 1.46 2 1.033 0-1.837 3.25 2.153 5.38 6.603 1.273 2.66 2.501 4.65 2.73 4.42.228-.227.441 1.129.473 3.015.032 1.886-.292 3.429-.72 3.429s-1.98-2.138-3.446-4.75zM181.5 71c-.853-1.65-1.776-3-2.051-3-.275 0 .198 1.35 1.051 3s1.776 3 2.051 3c.275 0-.198-1.35-1.051-3zm-6.973-13.956c-.325-.526-1.252-.703-2.059-.393-.807.31-1.468.105-1.468-.456 0-1.313 2.672-.923 4.21.615.655.655.902 1.19.549 1.19s-.907-.43-1.232-.956zm-4.903-4.843c-.408-.661-.24-1.201.376-1.201.615 0 .843-.445.507-.989-.35-.566.051-.734.941-.393.854.328 1.552 1.024 1.552 1.548s-.412.698-.915.387c-.503-.311-1.095-.022-1.317.642-.312.937-.567.939-1.144.006zM90.5 79.415c-3.954-3.313-6.5-4.712-6.5-3.573 0 1.045 2.236 3.037 5.357 4.77 3.682 2.047 4.274 1.426 1.143-1.197zm4.5 1.272c0-.172-1.462-1.635-3.25-3.25L88.5 74.5l2.937 3.25C94.175 80.78 95 81.46 95 80.687zm19.718-6.423c-.23-1.52-.424-.514-.432 2.236-.008 2.75.18 3.994.418 2.764.237-1.23.243-3.48.014-5zM60.5 79.234c.55-.403 1.138-1.373 1.306-2.153.248-1.149.022-1.183-1.186-.18-.82.68-2.758 1.618-4.306 2.082l-2.814.845 3 .07c1.65.04 3.45-.26 4-.663zm21.798-.567c.281-.734-.078-1.334-.798-1.334-.72 0-1.08.6-.798 1.334.282.733.64 1.333.798 1.333.157 0 .516-.6.798-1.333zm39.385-.855c-.32-.797-.556-.56-.604.605-.043 1.054.193 1.644.525 1.312.332-.332.368-1.195.08-1.916zm18 0c-.32-.797-.556-.56-.604.605-.043 1.054.193 1.644.525 1.312.332-.332.368-1.195.08-1.916zm31.147-1.33c1.339.51 1.422.387.42-.623-.688-.692-1.257-2.181-1.265-3.309-.008-1.127-.346-2.566-.75-3.196-.404-.63-.771 1.62-.815 5-.045 3.38.104 5.1.33 3.82.297-1.692.865-2.153 2.08-1.691zM64.38 71.58c1.585-1.395 3.241-2.313 3.681-2.041.44.272 1.066.065 1.39-.46.916-1.48-4.402-.21-6.817 1.629-1.174.894-3.259 3.006-4.634 4.692l-2.5 3.066 3-2.175c1.65-1.197 4.296-3.316 5.88-4.711zm3.974 3.969C69.809 74.199 71 72.66 71 72.13c0-.532.273-1.79.606-2.798.334-1.008-.29-.442-1.387 1.257-1.096 1.698-3.23 4.061-4.741 5.25C63.76 77.189 63.289 78 64.219 78c.819 0 2.68-1.104 4.135-2.452zm44.353-3.786c-.239-1.244-.444-.462-.455 1.738-.01 2.2.185 3.218.435 2.262s.26-2.756.02-4zm-45.58.488c1.244-1.586 1.21-1.621-.377-.378-.963.755-1.75 1.543-1.75 1.75 0 .823.821.294 2.128-1.372zm20.509.163l2.864-1.587-2.834.627c-1.558.345-2.589.23-2.29-.254.3-.484-.9-1.939-2.665-3.231-1.856-1.359-2.632-1.637-1.839-.66.851 1.05.959 1.692.282 1.692-.6 0-1.761-1.237-2.582-2.75-.82-1.513-1.51-2.143-1.532-1.401C76.996 66.332 82.643 72 84.165 72c.524 0 .675.45.335 1-.854 1.381-.194 1.258 3.136-.587zm-5.129-2.402c-.35-.566.051-.734.941-.393 1.732.665 2.05 1.382.611 1.382-.518 0-1.216-.445-1.552-.989zm53.176-.198c-.32-.798-.556-.561-.604.604-.043 1.054.193 1.644.525 1.312.332-.332.368-1.195.08-1.916zM76.696 68.76c1 1.242.951.81-.173-1.511-.866-1.787-2.211-3.25-2.99-3.25-.778 0-1.69-.445-2.026-.989-.351-.568.054-.733.952-.388 1.136.435 1.394.158.945-1.012-.34-.886-.12-1.611.489-1.611S75 60.54 75 61.2c0 .933.267.933 1.2 0 .66-.66 2.076-1.2 3.146-1.2 1.798 0 1.764-.175-.45-2.304-1.318-1.267-2.476-2.729-2.574-3.25-.098-.52-.648-2.071-1.222-3.446-.89-2.133-.982-1.839-.62 2 .382 4.042.282 4.31-.979 2.625-1.309-1.747-1.39-1.68-1.202 1 .11 1.581-.249 2.96-.799 3.066-.55.105-1.237 1.197-1.528 2.426-.716 3.035-2.211 3.324-5.07.981-2.082-1.705-2.235-2.241-1.152-4.02 1.486-2.438 1.603-3.414.314-2.618-.574.355-.6-.59-.07-2.44.77-2.684.624-3.035-1.314-3.156-2.164-.135-2.164-.14.07-.57 1.237-.238 2.25-1.077 2.25-1.864V46.5c0-.275-.334-.388-.743-.25s-.647.925-.53 1.75c.15 1.042.04 1.102-.357.197-.432-.983-.893-.864-1.882.489-.721.986-1.026 2.247-.678 2.803 1.046 1.673 1.006 7.923-.06 9.261-.709.89-.549 1.25.555 1.25.852 0 2.371 1.044 3.376 2.321 1.522 1.936 2.323 2.186 4.822 1.505 4.198-1.143 5.862-.376 4.54 2.093-.574 1.072-1.013 2.317-.975 2.765.037.449.553-.192 1.148-1.423 1.012-2.098 1.168-2.13 2.48-.5zM74.5 58c.34-.55 1.041-1 1.559-1s.941.45.941 1-.702 1-1.559 1-1.28-.45-.941-1zm47.183 10.813c-.32-.798-.556-.561-.604.604-.043 1.054.193 1.644.525 1.312.332-.332.368-1.195.08-1.916zm-34.702-1.336c-.717-.863-2.693-2.544-4.392-3.735-2.733-1.914-2.916-1.941-1.589-.235 2.076 2.67 6.417 6.405 6.893 5.932.215-.215-.195-1.098-.912-1.962zm.552-2.257l-2.861-2.72 2.414 3.118c1.328 1.715 2.615 2.94 2.861 2.72.246-.22-.84-1.622-2.414-3.118zm26.736 3.124c-.677-.274-2.027-.29-3-.037-.973.254-.419.478 1.231.498 1.65.02 2.446-.187 1.769-.46zm34.481-3.625c.688-.53 1.198-1.921 1.134-3.091-.11-2.019-.14-2.025-.597-.128-.742 3.085-2.133 4.066-2.906 2.05-.616-1.605-.817-1.546-1.998.583-.96 1.733-1.322 1.92-1.348.7-.02-.916 1.202-2.64 2.715-3.831 1.669-1.314 2.041-1.941.948-1.595-1.053.333-1.548.16-1.19-.418.557-.904-1.046-1.377-4.258-1.258-.688.026-1.25-.374-1.25-.887 0-.514-1.688-.699-3.75-.41-2.823.393-3.132.32-1.25-.301 4.817-1.587-12.028-2.326-29-1.272l-3.5.217 3.365 1.461c3.765 1.635 7.135 1.912 7.135.587 0-.48 3.487-.859 7.75-.84 6.158.027 6.928.177 3.75.732l-4 .698 3.698.142 3.697.142.368 5.25.367 5.25.185-5.616.185-5.615 4.25.92c2.337.506 5.028.924 5.979.93.95.004 1.626.542 1.5 1.195-.126.652.268 1.095.875.985.62-.113 1.058 1.093 1 2.747-.126 3.586-3.056 4.103-3.987.704-.515-1.877-.78-2.001-1.602-.75-.541.825-.96 2.175-.93 3 .036.958.338.777.837-.5.76-1.943.802-1.937 1.488.219.693 2.181.776 2.191 4.898.592 2.305-.895 4.755-2.061 5.442-2.592zm-41.225-3.52c.416-.384.454.651.085 2.301-.49 2.19-.397 2.595.344 1.5.838-1.238 1.018-1.252 1.03-.083.009.779.254 1.179.544.888.29-.29.032-1.828-.575-3.416-1.062-2.782-1.155-2.817-2.528-.948-1.396 1.902-1.425 1.898-1.425-.177 0-1.176.778-2.32 1.75-2.575 1.44-.376 1.387-.478-.3-.573-1.127-.064-2.535-.6-3.127-1.193-.77-.77-2.22-.735-5.075.12-3.232.969-3.998 1.662-3.998 3.617 0 1.67.919 2.893 2.968 3.953 1.632.844 3.226 1.276 3.542.96.315-.315.144-.573-.38-.573-1.414 0-1.483-4.315-.084-5.204 2.537-1.613 3.607-.634 4.322 3.954l.742 4.75.704-3.3c.387-1.816 1.045-3.616 1.46-4zm-11.513-.176c-.83-1.552-.766-1.866.298-1.457.746.286 1.357 1.176 1.357 1.977 0 1.96-.394 1.835-1.655-.52zm-37.086 4.566c.8-.965.84-1.616.123-2.059-1.397-.863-3.049.237-3.049 2.029 0 1.836 1.415 1.85 2.926.03zm76.099-1.154C136.505 60.544 136.256 60 133 60c-2.762 0-3 .278-3 3.5 0 2.848.377 3.5 2.025 3.5 1.253 0 2.396-.977 3-2.565zm31.086 1.702c.6.94.806.531.667-1.315-.111-1.473-.57-2.451-1.018-2.174-.448.277-.571-.88-.273-2.572.628-3.567.051-3.95-1.521-1.012-.796 1.487-.801 2.43-.018 3.373.598.72.928 1.929.733 2.686-.194.757-.147.989.104.514s.848-.25 1.326.5zm-53.29-5.1c-.218-1.348-.739-1.724-1.622-1.17-1.068.668-1.068 1.326-.002 3.665.952 2.09 1.385 2.402 1.622 1.17.178-.923.179-2.572.002-3.665zm26.782 1.137c-1.506-1.506-1.534-1.425-.366 1.066.695 1.482 1.428 2.215 1.63 1.63.2-.587-.368-1.8-1.264-2.696zM103.29 63c-.288-1.1-.879-2-1.313-2-.434 0-.554.9-.267 2 .288 1.1.879 2 1.313 2 .434 0 .554-.9.267-2zm-43.305-5.437c-.009-.585-.397-.462-.862.272-.466.735-1.134 1.297-1.485 1.25-2.015-.27-2.683.034-2.11.959.354.574.06 1.811-.654 2.75-.714.938.148.384 1.914-1.231 1.767-1.615 3.205-3.415 3.197-4zm108.708 1.706c-.254-.973-.478-.419-.498 1.231-.02 1.65.187 2.446.46 1.769.275-.677.292-2.027.038-3zM68 61c0-.55-.45-1-1-1s-1 .45-1 1 .45 1 1 1 1-.45 1-1zm17 .607c0-.216-.698-.661-1.552-.989-.89-.341-1.291-.173-.94.393.586.95 2.492 1.406 2.492.596zm1.662-3.857c-.277-.688-.504-.125-.504 1.25s.227 1.938.504 1.25c.278-.688.278-1.813 0-2.5zm-16.108-1.663c-.37-.598-1.15-1.087-1.735-1.087-.727 0-.71.426.05 1.342.612.738.963 1.582.779 1.875-.185.293.095.178.621-.255s.654-1.277.285-1.875zM81.404 54C77.504 48.569 77 48.18 77 50.6c0 1.496 6.081 8.4 7.398 8.4.33 0-1.018-2.25-2.993-5zm69.247 3.532c-.31-.807-.133-1.734.393-2.059 1.84-1.137.931-2.17-1.984-2.252-1.93-.055-3.12.493-3.464 1.598-.288.924-.38.457-.205-1.039.176-1.496-.065-2.482-.535-2.19-1.279.79-1.032 4.022.394 5.18.688.558 2.15 1.236 3.25 1.506s2.16.544 2.357.608c.196.064.103-.545-.206-1.352zm-94.155-6.529c.827-.686 1.504-.907 1.504-.49 0 1.073 3.53-3.66 4.298-5.763.352-.962.251-1.75-.222-1.75-.92 0-2.499 3.002-2.235 4.25.088.413-.178.66-.591.55-.413-.11-2.325.789-4.25 1.997-1.925 1.207-2.949 2.197-2.275 2.2.812.002 1.066 1.1.753 3.253l-.471 3.25.992-3.124c.546-1.719 1.67-3.686 2.497-4.373zM57.8 55.8c.66-.66 1.2-1.855 1.2-2.655 0-1.155-.412-1.082-2 .355-2.054 1.86-2.617 3.5-1.2 3.5.44 0 1.34-.54 2-1.2zM94.073 54c.51 0 .927-.723.927-1.607 0-1.018.55-1.396 1.5-1.031.825.316 1.5.113 1.5-.452 0-.566.52-.707 1.155-.315.738.457.882.273.398-.509-.415-.672-1.385-.98-2.154-.686-.77.296-1.399.101-1.399-.431 0-.533.563-.976 1.25-.984.833-.01.75-.339-.25-.985-1.707-1.103-1.856-1.065 6-1.517 2.647-.152 3.707.035 2.573.455-1.722.636-1.748.78-.25 1.356.922.354 1.67 1.22 1.662 1.925-.011.908-.324.844-1.076-.219-.943-1.333-1.016-1.333-.652 0 .225.825 1.216 1.657 2.204 1.848 1.487.288 1.717-.183 1.34-2.75-.414-2.822-.21-3.098 2.289-3.098 1.509 0 2.97.563 3.248 1.25.301.747.536.545.583-.5.06-1.322.944-1.75 3.614-1.75 3.27 0 3.452.156 2.423 2.078-.612 1.143-.78 2.83-.376 3.75.404.92.664 2.01.577 2.422-.088.412.543.75 1.4.75.857 0 1.3-.419.984-.93-.317-.513-.118-1.214.44-1.56.56-.345 1.01-1.164 1.002-1.819-.01-.716-.403-.592-.985.309-.862 1.333-.973 1.333-1 0-.027-1.333-.138-1.333-1 0-.828 1.282-.972 1.246-.985-.25-.008-.962.66-1.75 1.485-1.75.825 0 1.5-.41 1.5-.912 0-1.508 8.132-2.493 8.999-1.09.428.693 1.987 1.022 3.626.764 1.581-.249 2.312-.264 1.625-.034-.688.23-1.25 1.013-1.25 1.738 0 1.573 2.709 2.814 3.466 1.589.292-.472 1.854-1.32 3.473-1.884 2.313-.806 2.836-.748 2.444.273-.274.714.231 1.578 1.123 1.92.891.342 1.36 1.044 1.041 1.56-.319.516-.122 1.22.437 1.566.559.345 1.016.201 1.016-.32s.77-.885 1.712-.809c.941.077 1.846-.536 2.01-1.361.354-1.766-7.037-5.2-9.312-4.327-.817.313-2.37-.233-3.454-1.213-1.444-1.307-3.636-1.785-8.213-1.791-4.632-.007-5.469-.193-3.243-.721 1.65-.391 2.377-.765 1.615-.83-.842-.072-.336-.943 1.292-2.224 1.474-1.16 3.518-1.885 4.549-1.616 1.25.327 2.035-.135 2.364-1.394.271-1.036.122-1.884-.332-1.884-.453 0-1.536-.273-2.406-.607-1.023-.392-1.582-.06-1.582.941 0 2.175-2.05 3.197-3.096 1.544-.723-1.14-.877-1.119-.895.122-.027 1.895-2.715-3.174-3.3-6.224-.24-1.252-.491.199-.558 3.224-.075 3.411.206 4.985.74 4.143.608-.961 1.061-1.03 1.553-.233.382.617 1.113.864 1.625.547.512-.316.931-.098.931.484S131.127 39 130.059 39s-2.226.462-2.575 1.026c-.35.565-2.063.98-3.81.923-1.745-.057-6.937.194-11.535.558-5.907.468-8.165.344-7.691-.422.368-.597.22-1.085-.33-1.085s-1.278.45-1.618 1c-.34.55-2.927 1-5.75 1-4.676 0-4.96.126-3.192 1.419 1.869 1.366 1.841 1.443-.752 2.094-1.48.371-3.162.385-3.736.03-.693-.428-.764.11-.211 1.605.458 1.237 1.464 2.458 2.237 2.713 1.142.378 1.124.124-.096-1.359-1.398-1.7-1.36-1.737.546-.55 1.125.7 2.117 2.23 2.205 3.398.114 1.507-.081 1.734-.67.78-1.195-1.933-2.103.089-1.323 2.946.514 1.886.742 2.035 1.025.674.2-.962.78-1.75 1.29-1.75zm4.196-10.693c.973-.254 2.323-.237 3 .037.677.274-.119.481-1.769.461-1.65-.02-2.204-.244-1.231-.498zM8.5 12.119c.55-.537 2.575-1.161 4.5-1.388l3.5-.41-3.5-.146c-6.587-.272-6.491-.622-6.583 24.037L6.334 56.5l.583-21.702C7.248 22.47 7.932 12.673 8.5 12.118zm74.913 40.157c-3.175-4.678-4.051-5.502-2.42-2.276 1.222 2.417 3.988 6 4.632 6 .173 0-.822-1.676-2.212-3.724zm16.733 2.904c1.402-.58 1.439-.871.25-1.97C99.25 52.153 99 52.183 99 53.378c0 .801-.563 1.683-1.25 1.96-.688.278-.8.509-.25.514.55.005 1.74-.297 2.646-.671zm34.967-2.089c-.851-.54-1.194-1.885-.889-3.485.678-3.543-.785-3.305-2.053.335-.855 2.452-.747 3.014.652 3.384 2.888.763 3.73.677 2.29-.234zm7.379-2.116c-.47-1.483-1.016-1.85-1.713-1.154-.563.563-1.53.907-2.15.765-.621-.142-.74-.052-.266.199.475.251.25.862-.5 1.358-.92.608-.47.752 1.387.445 1.61-.267 2.75 0 2.75.645 0 .605.266.834.591.509.326-.325.28-1.57-.099-2.767zm23.56-.525c-.484-1.623-.919-2.2-.966-1.282-.096 1.863.971 5.108 1.504 4.575.19-.189-.053-1.67-.537-3.293zm-91.748-3.254c1.866-.901 1.922-1.07.379-1.128-1.353-.05-1.655-.58-1.183-2.068.45-1.42.18-2-.933-2-1.07 0-1.567.94-1.567 2.969 0 2.367-.354 2.858-1.75 2.424-1.667-.518-1.667-.49 0 .581.963.619 1.817 2.116 1.9 3.326.124 1.818.22 1.745.554-.421.222-1.442 1.392-3.099 2.6-3.683zm37.392 2.304c.175-2.676.119-2.74-.523-.593-.396 1.324-1.609 2.78-2.696 3.233-1.719.718-1.65.795.523.593 2.008-.187 2.539-.824 2.696-3.233zm4.033 2.896c-.332-.332-1.195-.368-1.917-.08-.797.32-.56.557.605.605 1.054.043 1.644-.193 1.312-.525zm13.521-.058c-.688-.278-1.25-1.592-1.25-2.921 0-1.33-.45-2.417-1-2.417s-1 1.087-1 2.417c0 2.268 1.183 3.425 3.5 3.425.55 0 .438-.227-.25-.504zm54.425.004c-.362-.362-.181-1.232.4-1.933.792-.954.348-1.71-1.758-2.998-1.55-.948-4.617-2.848-6.817-4.224l-4-2.5 4.5 4.403c2.475 2.423 4.8 4.406 5.167 4.407.366.002 1.041.413 1.5.913.479.524.331.623-.348.234-.65-.372-1.506-.15-1.904.494-.436.705-.292.904.361.5.597-.369 1.368-.213 1.714.346.345.559.901 1.016 1.236 1.016.334 0 .311-.296-.05-.658zM119 49c0-1.65-.45-3-1-3s-1 1.35-1 3 .45 3 1 3 1-1.35 1-3zm-15-.2c0-1.615-.296-1.904-1.113-1.087-.612.612-.81 1.602-.44 2.2C103.48 51.587 104 51.215 104 48.8zm-50.643-.311c-.39-1.017-.118-1.335.83-.97.775.297 2.512-.66 3.861-2.125 2.314-2.516 2.329-2.601.258-1.524-1.207.627-2.476 1.596-2.82 2.152-.343.556-1.02.766-1.505.466-.484-.3-1.37.369-1.966 1.484-.867 1.62-.782 2.028.418 2.028.931 0 1.283-.576.924-1.511zm119.782-3.522c-1.298-1.082-2.873-1.965-3.5-1.962-.626.003.211.87 1.861 1.927 3.897 2.496 4.612 2.512 1.64.035zm-19.011-.63c1.255-1.523 1.159-1.554-1.128-.365-3.352 1.742-3.605 2.028-1.79 2.028.85 0 2.163-.749 2.918-1.664zM167.5 45c-.34-.55-1.154-.993-1.809-.985-.716.01-.592.403.309.985 1.921 1.242 2.267 1.242 1.5 0zm15.5.622c0-.207-.787-.995-1.75-1.75-1.586-1.243-1.621-1.208-.378.378 1.307 1.666 2.128 2.195 2.128 1.372zM56.128 43.25c1.243-1.586 1.208-1.621-.378-.378C54.084 44.18 53.555 45 54.378 45c.207 0 .995-.787 1.75-1.75zm14.23-4.167c-.62-.72-1.175.322-1.82 3.419l-.624 2.998 1.401-3c.77-1.65 1.24-3.188 1.043-3.417zm-.108-1.9c1.895-.217 2.75.14 2.75 1.152 0 1.78 4.635-2.424 7.336-6.653 1.328-2.08 2.502-2.763 4.482-2.607 1.475.117 3.582-.12 4.682-.527 3.702-1.37 4.167-1.362 4.167.062 0 .92-.644 1.215-1.834.837-1.008-.32-1.833-.101-1.833.486s1.012 1.112 2.25 1.167c2.168.096 2.159.13-.25.951l-2.5.852 2.5-.201c2.068-.167 2.499-.72 2.492-3.202-.007-2.856-.216-3.005-4.359-3.107-5.31-.13-11.293 2.914-13.686 6.966-1.657 2.805-1.91 2.881-7.83 2.38-3.364-.284-5.33-.309-4.367-.055 2.342.619 2.234 3.377-.158 4.002-1.776.465-1.794.613-.25 2.171 1.548 1.562 1.724 1.472 2.658-1.342.741-2.235 1.711-3.097 3.75-3.331zm18.996 4.65c-.264-1.008-.6-1.833-.746-1.833-.147 0-.482.825-.746 1.833-.272 1.042.05 1.834.746 1.834s1.018-.792.746-1.834zm52.734.643c-.696-.838-1.47-1.318-1.723-1.067-.693.694.716 2.591 1.924 2.591.664 0 .588-.574-.201-1.524zm7.27.862c-.688-.278-1.813-.278-2.5 0-.688.277-.125.504 1.25.504s1.938-.227 1.25-.504zM162.5 43c-.34-.55-1.154-.993-1.809-.985-.716.01-.592.403.309.985 1.921 1.242 2.267 1.242 1.5 0zm16.5-.465c0-.255-1.012-.955-2.25-1.555-2.16-1.047-2.173-1.029-.309.465 2.04 1.634 2.559 1.855 2.559 1.09zM86.227 39.25c-.567-3.146-1.986-5.25-3.54-5.25-.588 0-.235.61.784 1.355 1.054.77 1.602 2.013 1.27 2.879-.322.837-.08 2.027.537 2.644 1.512 1.512 1.514 1.508.95-1.628zm51.665 1.213c-.985-.984-2.23-1.27-3.464-.796-1.762.677-1.713.8.572 1.437 3.994 1.113 4.527.995 2.892-.64zm-22.642-.683c-1.237-.597-2.25-1.493-2.25-1.992 0-.498.52-.585 1.155-.193.715.443.883.275.44-.44-.392-.635-.274-1.155.263-1.155.536 0 1.177.563 1.423 1.25.247.688.622-1.296.834-4.407.212-3.111.047-5.447-.365-5.19-.412.255-.75 1.788-.75 3.406 0 3.186-.812 3.644-3.002 1.691-1.192-1.063-1.204-.989-.077.5 1.1 1.453 1.097 2.023-.01 3.358-1.135 1.367-1.05 1.818.568 3 1.047.766 2.38 1.362 2.962 1.324.582-.037.046-.556-1.191-1.152zm-14.597-5.19c.143-5.005-.025-5.428-2.334-5.87-2.024-.386-2.4-.135-2.012 1.346 1.108 4.236-5.582 5.805-9.528 2.234-1.292-1.17-2.138-1.341-2.891-.588-.753.753.13 1.592 3.016 2.866 2.245.99 4.34 2.615 4.656 3.611.435 1.37 1.594 1.809 4.757 1.803l4.183-.008.153-5.394zM110 39.559c0-1.055-1.92-1.499-2.49-.575-.345.559.074 1.016.931 1.016.857 0 1.559-.198 1.559-.441zm38.837-4.67c-1.834-1.147-2.357 1.633-.655 3.48 1.13 1.226 1.366 1.14 1.655-.606.186-1.12-.264-2.413-1-2.874zM89.5 38c-.34-.55-1.154-.993-1.809-.985-.716.01-.592.403.309.985 1.921 1.242 2.267 1.242 1.5 0zm30.5-3.573c0-3.816.29-4.519 1.75-4.242 1.277.242 1.833 1.48 2.058 4.574.169 2.332.731 4.241 1.25 4.241 1.48 0 1.104-6.27-.716-11.905l-1.659-5.136-2.341 4.123C117.945 30.302 117.042 39 119 39c.55 0 1-2.058 1-4.573zm31.683 2.386c-.32-.798-.556-.561-.604.604-.043 1.054.193 1.644.525 1.312.332-.332.368-1.195.08-1.917zm81 0c-.32-.798-.556-.561-.604.604-.043 1.054.193 1.644.525 1.312.332-.332.368-1.195.08-1.917zM59.5 37c.34-.55.141-1-.441-1S58 36.45 58 37s.198 1 .441 1 .72-.45 1.059-1zm49.5-2.059c0-.582-.45-.78-1-.441-.55.34-1 .194-1-.324 0-1.543-3.823-2.08-4.384-.616-.317.824.004 1.14.834.82.741-.284 1.645-.036 2.008.552.854 1.381 3.542 1.388 3.542.009zM232.522 11.25l-.56-2.25H147.54c-46.432 0-84.63.338-84.886.75-.255.412 37.631.75 84.191.75H231.5l.479 12.5.479 12.5.312-11c.171-6.05.06-12.012-.248-13.25zM108 30.5c0-.825-.675-1.5-1.5-1.5-1.562 0-1.984 1.183-.833 2.333 1.15 1.151 2.333.729 2.333-.833zm31.77.313c-.617-1.855-2.77-2.162-2.77-.396 0 .87.713 1.583 1.583 1.583.871 0 1.406-.534 1.188-1.188zM75 30.314c-4.936-.815-5.367-1.158-3.863-3.077 1.235-1.575 1.198-1.609-.4-.355-2.464 1.933-.432 4.158 3.635 3.98 2.667-.115 2.76-.196.628-.548zm65.98-1.84c-1.495-1.8-5.199-1.601-5.577.3-.139.701-.024.814.255.25.784-1.58 4.333-1.213 4.997.518.326.849.826 1.31 1.111 1.024.285-.285-.068-1.226-.786-2.091zm28.33 1.09c1.27-.964 1.464-1.587.649-2.09-.638-.395-2.115.237-3.282 1.404-2.464 2.463-.416 2.996 2.633.685zM106.5 28c1.283 0 2.562.461 2.842 1.025.28.564.394.451.255-.25-.14-.701-1.343-1.43-2.675-1.62-1.332-.191-2.944-.775-3.583-1.3-.744-.61-1.393-.576-1.809.096-.356.577-.171 1.049.411 1.049s1.095.787 1.138 1.75c.047 1.045.282 1.247.583.5.278-.688 1.555-1.25 2.838-1.25zm58.628-.75c1.243-1.586 1.208-1.621-.378-.378-1.666 1.307-2.195 2.128-1.372 2.128.207 0 .995-.787 1.75-1.75zM176.5 28c-.34-.55-1.379-.968-2.309-.93-1.379.058-1.321.23.309.93 2.676 1.15 2.71 1.15 2 0zm-96-1c.34-.55-.084-1-.941-1S78 26.45 78 27s.423 1 .941 1 1.22-.45 1.559-1zm102.103-2.73c-.253-.253-1.864-.152-3.58.225-2.5.549-2.893.957-1.98 2.058.961 1.157 1.524 1.122 3.58-.225 1.342-.88 2.233-1.806 1.98-2.059zm-84.292.812c-.37-1.418.11-2.034 1.844-2.364 2.128-.404 2.091-.458-.405-.582-2.053-.101-2.75-.651-2.75-2.167 0-2.367-2.646-3.723-4.211-2.158-.77.77-.426.907 1.203.48 2.071-.54 2.238-.312 1.825 2.504-.25 1.705-.087 2.872.364 2.593.45-.278.819.008.819.636 0 .629-.484.981-1.075.784-.591-.197-1.025-.7-.964-1.119C95.089 22.81 92.453 20 91.5 20c-.354 0-1.318.675-2.143 1.5-.825.825-1.188 1.5-.806 1.5.382 0 .21.582-.38 1.293-.847 1.022-.4 1.217 2.128.93 2.66-.303 4.122-.003 8.357 1.714.086.034-.069-.8-.345-1.855zm73.329-1.546c.139-2.383.118-2.388-3.255-.78-3.491 1.665-3.221 2.656.814 2.99 1.782.146 2.333-.352 2.44-2.21zm-48.322-2.906c.805.451.784.234-.064-.68-1.035-1.115-1.496-1.012-2.718.604-.81 1.07-1.487 2.384-1.504 2.919-.018.534.674-.036 1.536-1.267.865-1.234 2.1-1.942 2.75-1.576zm-63.66-10.395c.637-.404-6.788-.613-16.5-.464-26.708.41-29.113.85-5.658 1.033 11.55.091 21.521-.165 22.158-.57z"/></svg>