<svg xmlns="http://www.w3.org/2000/svg" width="492" height="841" viewBox="0 0 492 841"><path d="M104.57 835.113c-.301-.487.082-1.41.852-2.048.958-.796 1.604-.831 2.048-.114.356.577.145 1.049-.47 1.049s-.84.45-.5 1c.34.55.168 1-.382 1s-1.247-.399-1.548-.887zM24 823.241c-11.31-.533-12.65-2.167-10.921-13.312.736-4.746.905-27.303.527-70.7-.551-63.443-.88-236.718-.732-386.229.042-43.175.07-83.225.061-89-.009-5.775-.033-45.15-.054-87.5-.022-42.35-.116-94.249-.21-115.33-.197-44.218-1.142-40.514 10.582-41.51 3.986-.34 105.933-.693 226.55-.785 169.083-.13 219.578.106 220.5 1.028.92.92 1.249 50.712 1.421 215.397.123 117.81.52 283.05.882 367.2.363 84.15.712 167.264.776 184.698.089 23.83-.186 32.004-1.108 32.927-.937.938-15.67 1.284-62.5 1.468-201.924.793-369.08 1.562-374.274 1.722-3.3.102-8.475.068-11.5-.074zm296-3.762c78.925-.287 145.188-.777 147.25-1.089 3.39-.511 3.761-.87 3.865-3.728.23-6.332-.416-117.345-.72-123.662-.172-3.575-.348-153.875-.392-334-.045-182.95-.466-329.19-.954-331.33-.48-2.105-1.077-4.032-1.326-4.28-.248-.249-22-.387-48.337-.308-26.337.079-126.186.265-221.886.414-95.85.15-175.797.668-178 1.154l-4 .884-.16 226.983c-.087 124.84-.22 228.558-.294 230.483-.103 2.682.809 335.12.928 338.177.014.372.813.904 1.776 1.183.963.278 37.075.311 80.25.074 43.175-.238 143.075-.668 222-.955zm-293.7-3.284c-2.921-.212-4.367-.831-4.748-2.032-1.142-3.597-1.577-52.03-.473-52.712 1.382-.854 326.637-.74 391.921.136 27.225.366 50.513 1.048 51.75 1.515 2.249.848 2.25.863 2.25 25.25 0 26.562-.052 26.805-5.632 26.584-2.837-.113-301.896.929-386.868 1.347-24.2.12-45.89.08-48.2-.088zm194.2-2.82c88-.313 178.9-.863 202-1.222l42-.653-.32-22.986c-.176-12.643-.55-23.218-.833-23.5-1.388-1.39-433.68-2.812-438.847-1.444-1.95.517-1.986 1.137-1.448 25.23.304 13.585.641 24.794.75 24.91.519.549 17.79.943 26.698.609 5.5-.206 82-.631 170-.944zM78.362 798.5c-.926-2.413.395-4.5 2.857-4.51 1.785-.009 3.165-1.584 6.353-7.25 2.239-3.982 5.054-9.378 6.255-11.99 1.856-4.039 2.608-4.75 5.023-4.75 3.663 0 4.97 1.574 10.506 12.661 2.516 5.039 5.727 10.404 7.135 11.924 1.408 1.519 2.4 3.246 2.204 3.839-.197.597-3.552 1.207-7.533 1.37-6.726.275-7.234.147-8.064-2.037-.769-2.02-1.43-2.278-4.992-1.938-3.226.307-4.106.797-4.106 2.286 0 1.692-.806 1.895-7.531 1.895-5.772 0-7.666-.35-8.107-1.5zM91.71 796c-.437-1.671-.004-2.021 2.634-2.129 1.736-.07 4.506-.221 6.156-.334 4.136-.282 5.5.355 5.5 2.57 0 1.605.76 1.893 5 1.893 2.75 0 5-.45 5-1s-.658-1-1.461-1c-.861 0-3.976-4.932-7.58-12-3.365-6.6-6.71-12-7.433-12-.723 0-3.25 3.937-5.615 8.75-6.171 12.558-8.036 15.223-10.661 15.238-1.237.006-2.25.462-2.25 1.012s2.527 1 5.617 1c5.124 0 5.57-.175 5.093-2zm.02-4.603C90.274 789.94 96.083 780 98.39 780c1.394 0 5.61 7.786 5.61 10.36 0 1.333-1.093 1.64-5.833 1.64-3.209 0-6.105-.271-6.436-.603zm9.27-1.967c0-.951-2.403-5.43-2.91-5.424-.325.003-1.342 1.328-2.26 2.943-1.145 2.01-1.314 3.056-.539 3.315 1.197.399 5.709-.26 5.709-.834zm21.5 9.383c-3.396-1.913-7.49-7.046-8.616-10.806-2.165-7.225 2.286-16.177 8.92-17.942 4.287-1.141 13.033-.628 14.512.851.686.686 1.387.505 2.165-.56 1.154-1.577 5.902-1.868 24.269-1.486 5.783.12 6.248.298 6.228 2.38-.027 2.702-3.142 7.01-5.298 7.326-.851.125-2.322-.628-3.269-1.674-.946-1.046-2.889-1.857-4.316-1.802l-2.595.1 2.5.691c2.308.64 2.523 1.209 2.796 7.4.29 6.6.254 6.709-2.25 6.709-1.596 0-2.546.56-2.546 1.5 0 .913.93 1.5 2.378 1.5 1.307 0 2.937-.675 3.622-1.5 1.787-2.153 5.584-1.849 8.492.68 2.823 2.455 3.316 6.296.926 7.213-.87.334-7.808.607-15.418.607-14.624 0-17-.364-17-2.607 0-.988-.581-.812-2 .607-2.27 2.27-10.076 2.74-13.5.813zm11.125-2.585c2.59-2.107 5.846-7.09 5.111-7.825-.294-.294-1.142.202-1.885 1.103-3.94 4.775-5.028 5.494-8.316 5.494-4.522 0-5.535-1.988-5.535-10.863 0-6.966 1.356-10.145 4.321-10.131 3.046.014 8.726 2.248 9.62 3.783.82 1.405 1.004 1.437 1.029.184.016-.84-.67-2.528-1.527-3.75-1.3-1.857-2.5-2.223-7.277-2.223-6.4 0-9.348 1.518-11.672 6.011-3.41 6.594-.865 14.403 5.783 17.743 5.183 2.605 7.592 2.715 10.348.474zm34.67.923c1.588-.627 1.457-.959-1.141-2.88-2.906-2.148-2.954-2.15-4.7-.22-2.125 2.348-6.717 2.543-8.883.378-1.621-1.622-1.993-5.25-.94-9.179.81-3.024 2.167-2.836 3.597.5l1.18 2.75.366-3.345c.49-4.468-.197-5.935-2.963-6.327-1.711-.243-2.311-.977-2.311-2.828 0-2.26.44-2.529 4.588-2.798 3.219-.21 4.973.167 5.881 1.26 1.166 1.405 1.427 1.385 2.63-.2.736-.97 1.352-2.1 1.37-2.512.038-.917-23.373-1.012-24.287-.099-.358.358.097 1.198 1.011 1.867 1.288.941 1.71 3.105 1.87 9.599.28 11.28-.144 12.88-3.421 12.898-2.073.012-2.319.224-1.142.985 1.707 1.103 24.562 1.23 27.295.15zm-26.339-3.678c.694.429 1.044-2.223 1.044-7.914 0-7.114-.325-8.884-1.925-10.484-1.9-1.9-1.918-1.882-1.39 1.373.733 4.518-.967 5.21-6.1 2.488-5.512-2.924-7.58-2.167-7.599 2.783-.008 2.08-.254 4.681-.548 5.781-.293 1.1.085 2.843.84 3.873 1.824 2.485 4.737 1.488 6.925-2.37 1.31-2.307 2.41-3.003 4.75-3.003 2.636 0 3.047.36 3.047 2.671 0 1.47-.787 3.6-1.75 4.733-1.575 1.855-1.579 1.93-.044.743.939-.726 2.176-1.029 2.75-.674zm57.804 4.323c-3.918-2.281-6.119-6.607-7.115-13.983-.695-5.142 2.773-11.772 7.355-14.061 3.855-1.926 13.006-2.354 16.005-.75 1.252.671 2.08.671 2.493 0 1.002-1.62 24.734-1.284 27.014.383 1.852 1.354 1.853 1.48.04 5.5-2.084 4.622-5.193 5.52-7.32 2.115-1.242-1.99-5.232-2.823-5.232-1.094 0 .499.892.674 1.982.388 2.25-.588 4.018 2.798 4.018 7.7 0 4.753-4.875 7.588-6.314 3.67-.235-.64-.256.156-.045 1.77.21 1.614.973 3.64 1.694 4.5 1.663 1.985 1.07 4.734-1.139 5.28-.933.23-4.846.123-8.696-.238-3.85-.362-7.675-.34-8.5.048-3.49 1.645-12.474.965-16.24-1.228zm17.49-4.102c1.512-1.715 2.75-3.896 2.75-4.847 0-2.658 1.986-3.278 2.1-.656.098 2.278.11 2.275.9-.191.655-2.045.819-1.645.9 2.2.074 3.494-.35 4.962-1.65 5.72-1.335.777-.36 1.026 4.107 1.05 5.195.027 5.775-.168 5.129-1.72-.4-.962-.95-3.829-1.222-6.37-.603-5.642 1.118-7.328 3.851-3.774l1.84 2.394.023-4.25c.02-3.9-.189-4.25-2.541-4.25-2.29 0-2.53-.347-2.25-3.25.407-4.221 3.898-4.958 7.491-1.582 2.437 2.288 2.51 2.296 3.903.39.78-1.067 1.419-2.304 1.419-2.75 0-.757-20.324-1.416-22.5-.729-.97.306-2.169.286-12.25-.201-9.319-.45-15.153 5.615-13.838 14.386 1.241 8.274 7.31 13.136 15.088 12.087 2.808-.378 4.82-1.468 6.75-3.657zm-12.713.7c-1.298-1.298-1.552-3.46-1.322-11.25l.285-9.644 3.898-.32c2.443-.2 4.21.174 4.735 1 .46.726.843 5.494.852 10.595.015 9.042-.05 9.299-2.55 10.25-3.438 1.307-4.023 1.244-5.899-.631zm6.252-9.5c.223-5.841-.061-7.875-1.237-8.85-3.189-2.647-4.386-.597-4.173 7.146.22 8.034.96 10.083 3.464 9.605 1.337-.256 1.713-1.78 1.946-7.9zm9.323-7.548c-1.346-2.953-.721-4.346 1.947-4.346 1.474 0 1.941.696 1.941 2.893 0 3.791-2.412 4.693-3.888 1.453zM222 792.759c0-1.205-.557-.909-2.595 1.383-1.898 2.134-1.897 2.136.345.76 1.238-.761 2.25-1.725 2.25-2.143zm52.235 1.991c-1.573-2.337-4.345-7.284-6.16-10.992-2.966-6.06-3.697-6.848-7.246-7.804-3.658-.985-3.925-1.298-3.638-4.259l.309-3.195 15.271-.276c13.216-.24 15.354-.062 15.883 1.317.337.877.055 2.633-.624 3.904-1.03 1.924-.95 2.748.482 4.932.945 1.443 1.88 2.623 2.077 2.623.198 0 1.034-1.305 1.859-2.9 1.336-2.583 1.333-3.037-.023-4.162-.837-.695-1.387-2.202-1.223-3.35.283-1.983.894-2.088 12.156-2.088h11.859l6.156 11.5c3.386 6.325 6.6 11.38 7.142 11.235 1.321-.356.584-15.103-.871-17.434-1.702-2.725.37-5.242 4.612-5.606 2.578-.22 3.923.213 4.899 1.578.74 1.036 3.08 3.873 5.201 6.305l3.857 4.422-.722-3.5c-.397-1.925-1.17-4.057-1.718-4.737-.548-.68-.75-1.88-.45-2.664.437-1.136 3.401-1.442 14.573-1.503 7.714-.042 15.067.32 16.341.804 1.275.485 3.767 2.236 5.54 3.892 1.773 1.656 3.223 2.562 3.223 2.014 0-.549.93-2.304 2.068-3.902 1.877-2.635 2.607-2.904 7.878-2.904 6.597 0 8.254 1.226 8.565 6.334.108 1.789.713 4.215 1.343 5.393 2.83 5.288.219 15.558-4.614 18.144-1.026.55-4.763.916-8.303.814l-6.437-.185-.31-3.736c-.235-2.84.244-4.284 2-6.023 2.139-2.117 2.189-2.406.67-3.904-1.515-1.493-1.685-1.336-2.229 2.069-.346 2.162-2.076 5.423-4.188 7.89L375.844 799h-10.222c-6.617 0-10.645-.423-11.422-1.2-.933-.933-1.467-.933-2.4 0-2.631 2.631-5.575 1.262-10.856-5.05l-5.229-6.25.696 5.602.696 5.602-6.2.648c-11.279 1.179-14.699.879-15.407-1.352-.437-1.376-1.513-2-3.45-2-1.976 0-2.973.597-3.34 2-.461 1.764-1.364 2-7.648 2-5.674 0-7.253-.333-7.753-1.636-.708-1.845.843-4.864 2.5-4.864 1.695 0 2.705-1.416 6.993-9.806l3.99-7.807-2.607.307c-2.24.263-3.377 1.885-8.076 11.518-3.008 6.167-6.063 11.44-6.79 11.719-1.991.764-4.169-.382-4.86-2.558-.58-1.828-.735-1.792-2.61.592-2.78 3.533-4.314 3.187-7.614-1.715zm59.919-3.812c-.28-3.993-.01-5.056 1.425-5.607 1.328-.51 3.086.778 7.013 5.134 7.451 8.265 8.213 7.608 8.598-7.413l.31-12.056-2.95.002c-2.294.001-2.683.269-1.75 1.202 1.732 1.732 1.548 9.453-.242 10.14-.902.346-3.504-1.675-6.947-5.394-3.45-3.727-6.312-5.946-7.665-5.946-1.694 0-1.988.378-1.364 1.75.438.963.961 6.078 1.164 11.368.351 9.166.267 9.645-1.792 10.184-2.94.769-5.124-1.79-11.332-13.287-4.797-8.883-5.344-9.51-8.622-9.892-3.756-.438-7.458-.516-12.941-.275-3.227.143-3.32.24-1.502 1.57 1.902 1.39 1.887 1.527-.758 6.92-3.189 6.502-4.863 6.722-8.32 1.096-2.621-4.267-3.226-8.425-1.229-8.45.837-.01.754-.342-.25-1.006-1.753-1.16-23.248-1.06-25.15.115-.965.596-.792.96.678 1.435 5.725 1.844 6.684 2.75 9.817 9.29 4.06 8.472 7.55 14.182 8.67 14.182.467 0 1.123-.858 1.456-1.908 1.017-3.204 3.672-3.445 5.987-.543l2.094 2.627 5.818-12.077 5.818-12.077 3.92.153c2.156.085 4.327.644 4.825 1.244.568.685-.345 3.786-2.463 8.358-4.314 9.315-6.956 12.982-9.74 13.52-1.227.237.63.492 4.127.567 5.111.11 6.25-.142 5.813-1.281-.679-1.77 1.349-2.583 6.437-2.583 3.17 0 4.11.441 4.795 2.25.8 2.111 1.34 2.23 8.726 1.933l7.872-.318zM306 789.204c0-3.357 2.152-8.215 4.1-9.258 1.575-.843 2.227-.464 3.916 2.272 1.114 1.805 1.903 4.407 1.755 5.782-.241 2.227-.789 2.533-5.021 2.805-4.112.264-4.75.048-4.75-1.601zm7.216-.753c.627-.627-1.408-5.431-2.305-5.443-.931-.013-2.844 4.726-2.177 5.392.75.751 3.747.785 4.482.05zm62.918 5.929c3.012-2.724 5.866-8.803 5.866-12.495 0-2.432-.965-4.113-4.042-7.04-3.47-3.301-4.708-3.856-8.75-3.922-2.59-.042-5.608-.245-6.708-.452-1.1-.206-3-.126-4.22.178-2.012.5-2.074.7-.662 2.112 2.12 2.12 1.655 20.838-.552 22.2-1.723 1.063 2.518 1.6 11.212 1.42 4.126-.087 6.371-.658 7.856-2zm-11.056-1.235c-1.193-2.228-.545-19.078.784-20.407 1.884-1.884 4.95.397 7.029 5.23 2.663 6.19 2.789 13.107.28 15.377-2.464 2.23-6.85 2.122-8.093-.2zm5.722-1.345c1.64-1.64 1.51-8.123-.249-12.332-2.366-5.662-3.551-4.205-3.551 4.365 0 9.08.868 10.9 3.8 7.967zm29.683-.767c1.901-3.677 1.932-6.996.088-9.628-.786-1.122-1.573-3.793-1.75-5.937-.29-3.52-.643-3.962-3.641-4.57-4.668-.948-7.032-.086-8.72 3.18-2.083 4.028-1.845 5.383 1.54 8.768 1.65 1.65 3 3.242 3 3.537 0 .295-1.077 1.567-2.393 2.827-1.316 1.26-2.71 3.347-3.098 4.639-.604 2.009-.424 2.259 1.247 1.728 1.075-.34 3.032-.214 4.35.281 3.172 1.194 7.386-.975 9.377-4.825zM391 792.76c0-1.308.586-3.18 1.303-4.16 1.162-1.59 1.44-1.617 2.576-.246 1.953 2.352 1.01 6.09-1.629 6.465-1.792.254-2.25-.165-2.25-2.06zm2.662-3.011c-.277-.688-.504-.125-.504 1.25s.227 1.938.504 1.25c.278-.688.278-1.813 0-2.5zM356 783.467c0-4.017-.288-8.053-.64-8.97-1.367-3.563-2.33 1.17-2.339 11.503-.009 9.923.073 10.343 1.485 7.636.927-1.778 1.494-5.634 1.494-10.169zm27.683-4.654c-.32-.798-.556-.561-.604.604-.043 1.054.193 1.644.525 1.312.332-.332.368-1.195.08-1.917zm-9.015-20.468c-.092-.085-79.563-.415-176.602-.734-97.04-.319-176.776-.924-177.193-1.345-.417-.421-.844-61.721-.95-136.222-.144-103.015.092-135.549.985-135.847.874-.291.845-.79-.116-1.949-1.048-1.263-1.26-41.842-1.123-214.989.16-203.439.392-232.671 1.894-238.652L22.217 26l103.641.05c57.003.026 155.693-.163 219.31-.42 95.623-.388 115.986-.238 117.5.87 1.765 1.29 1.84 9.205 2.074 215.17.156 137.276-.101 213.024-.718 211.58-1.13-2.65-2.21-3.035-1.405-.5.646 2.03-2.122-.9-7.906-8.371-2.083-2.69-5.318-5.94-7.188-7.222-5.586-3.827-14.68-7.108-19.775-7.133-3.972-.02-4.75-.332-4.75-1.902 0-1.032.746-2.495 1.658-3.25 2.927-2.421 5.297-9.12 5.32-15.033.03-7.688-3.148-15.509-8.944-22.012-2.612-2.93-4.828-5.777-4.924-6.327-.097-.55 1.526-1.274 3.607-1.608l3.783-.608-3.75-.142c-2.98-.113-3.75-.536-3.75-2.059 0-1.054.563-2.143 1.25-2.42.83-.336.73-.532-.3-.584-2.207-.112-3.95 1.936-3.95 4.64 0 1.991-.389 2.244-2.75 1.791-2.41-.463-2.35-.372.476.731 4.624 1.805 12.968 10.278 15.29 15.527 1.484 3.357 1.984 6.683 1.984 13.21 0 8.108-.212 9.014-3.006 12.872-2.371 3.273-3.64 4.15-6 4.15-3.222 0-4.016 1.394-1.372 2.408 1.202.462 1.467 1.396 1.025 3.607-.731 3.655.101 3.742 3.321.35 2.194-2.311 3.027-2.542 7.508-2.08 10.832 1.118 23.047 9.774 29.235 20.715 1.4 2.475 3.387 5.719 4.416 7.209 1.668 2.413 1.877 4.834 1.92 22.224l.048 19.515-3.655 5.776c-2.01 3.177-4.619 6.932-5.797 8.344-1.179 1.412-.082.4 2.436-2.25 4.522-4.757 6.936-6.004 6.905-3.568-.009.688.263 37.925.604 82.75.34 44.825.685 100.625.766 124l.146 42.5h-45.832c-25.207 0-45.907-.07-46-.155zM464.333 738c-.092-4.125-.503-56.574-.913-116.554l-.746-109.055-4.337 4.216c-8.056 7.83-18.38 11.073-25.617 8.05-2.875-1.202-3.72-2.118-3.72-4.035 0-5.182 4.762-6.67 7.807-2.438 4.02 5.588 18.468-3.522 22.89-14.434.836-2.062 1.921-3.75 2.412-3.75 1.345 0 1.14-36.728-.211-37.563-.606-.375-1.703-2.119-2.437-3.876-2.437-5.834-10.719-15.751-15.892-19.032-6.298-3.994-14.097-6.686-17.151-5.919-1.272.32-3.022 1.663-3.888 2.985-2.849 4.347-8.406 2.032-7.149-2.978.41-1.635.125-2.592-.888-2.981-3.635-1.395-.392-7.374 3.354-6.185 4.173 1.325 8.153-6.141 8.153-15.297 0-12.904-8.632-23.704-21.299-26.648-4.576-1.064-5.8-1.01-8.76.387-2.192 1.034-3.804 2.709-4.441 4.615-1.454 4.35-2.388 5.492-4.492 5.492-2.173 0-3.443-3.13-2.613-6.44 1.42-5.656 11.74-11.376 18.18-10.075 8.019 1.619 8.425 1.572 8.425-.975 0-4.417 7.042-6.067 9.398-2.201.882 1.447.703 2.116-.898 3.353-1.939 1.498-1.924 1.524.5.855 4.705-1.298 11.433-6.06 14.183-10.04 8.93-12.92 8.137-33.508-1.71-44.358-1.806-1.99-5.74-5.099-8.741-6.908-4.657-2.806-6.716-3.378-14.027-3.894-7.46-.526-9.29-.312-14.149 1.66-7.574 3.074-11.498 8.059-12.276 15.594-.325 3.156-1.137 5.82-1.856 6.097-.851.326-.259 1.401 1.771 3.215 2.646 2.364 2.955 3.158 2.333 5.989-.394 1.795-1.355 3.508-2.135 3.807-1.898.729-4.393-1.459-4.393-3.85 0-1.297-1.388-2.557-4.25-3.856-5.582-2.534-6.979-2.464-12.558.626-6.39 3.541-7.668 4.812-11.291 11.23-2.954 5.235-3.106 6.007-2.668 13.61.304 5.274 1.085 9.098 2.26 11.061 4.755 7.947 17.21 13.793 24.974 11.72 4.473-1.193 5.533-.88 5.533 1.639 0 3.129-2.21 4.141-9.043 4.141-12.567 0-22.314-5.185-27.254-14.5-1.78-3.358-2.128-5.765-2.162-15-.039-10.379.124-11.282 2.875-16 4.066-6.97 6.063-8.985 10.889-10.98 2.307-.955 5.39-2.362 6.85-3.128 3.09-1.621 7.972-1.79 12.686-.438 2.702.775 3.124.709 2.242-.354-3.039-3.661-.583-13.903 4.473-18.653 3.141-2.95 3.077-3.57-.445-4.275-5.188-1.037-8.31-4.683-8.853-10.34-.985-10.25 4.786-16.063 14.974-15.084 6.172.593 8.768 2.915 8.768 7.842 0 5.535-1.44 8.435-4.9 9.868-3.772 1.563-9.746.607-10.941-1.751-1.163-2.292.434-7.837 2.483-8.623 3.007-1.154 5.598.38 5.094 3.014-.555 2.905.789 3.158 2.252.425.84-1.57.642-2.393-.965-4-2.412-2.412-3.241-2.479-6.951-.56-4.96 2.565-5.713 9.1-1.437 12.464 3.033 2.386 12.475 2.891 16.843.901 3.81-1.735 6.644-7.08 7.24-13.649.438-4.84.115-6.576-2.008-10.765-5.017-9.9-16.787-17.414-27.278-17.414-9.529 0-25.554 9.49-29.383 17.399-2.59 5.351-2.555 7.147.243 12.101 1.609 2.85 3.02 4.089 4.907 4.31 1.462.17 3.365 1.402 4.248 2.75.88 1.342 2.399 2.44 3.376 2.44 2.304 0 4.177 1.91 4.177 4.259 0 1.022.414 1.603.92 1.29 1.984-1.226 3.838 2.614 4.499 9.32 1.15 11.679-3.353 17.753-13.975 18.849-6.736.695-10.444-1.3-10.444-5.619 0-5.02 6.122-7.215 6.806-2.44.648 4.525 6.994 3.357 10.184-1.874 3.49-5.724 2.48-10.331-3.49-15.919-3.852-3.604-9.755-3.914-13.186-.692-3.032 2.849-2.92 4.767.43 7.44 2.647 2.11 2.682 2.258.975 4.143-3.6 3.98-9.723.053-9.715-6.23.005-3.664 2.992-8.823 6.406-11.06l2.505-1.642-2.075-2.162c-10.3-10.735-3.807-28.328 13.746-37.24 7.609-3.864 7.892-3.923 18.82-3.923 9.882 0 11.705.286 16.683 2.62 12.07 5.661 19.511 18.255 18.75 31.737-.307 5.426-.944 7.793-2.755 10.243-1.295 1.752-1.852 2.875-1.238 2.495 1.747-1.08 13.105 1.33 17.633 3.74 10.662 5.677 16.372 12.68 19.295 23.665 2.988 11.23 2.734 15.744-1.574 28-3.916 11.14-10.783 17.706-20.404 19.51l-3.611.678 3.92 4.039c9.821 10.12 12.376 27.94 5.406 37.712l-2.54 3.561 5.348.6c10.184 1.144 20.961 7.834 27.828 17.276 2.15 2.956 2.96 3.507 3.416 2.321 1.109-2.89-.217-417.751-1.339-418.873-.699-.699-20.636-.992-60.881-.896-32.914.078-130.793.239-217.51.357-86.716.118-158.003.552-158.414.963-1.938 1.937-2.314 31.589-2.31 182.252.002 89.1-.067 169.425-.152 178.5-.753 79.708-.697 85.44.88 89.698 1.26 3.401 1.324 4.636.335 6.5-.95 1.792-1.123 31.753-.776 135.14.245 73.06.624 133.015.84 133.232.218.218 50.06.516 110.762.663 60.7.147 109.613.122 108.693-.055-1.804-.346-4.1-4.272-16.483-28.178-4.416-8.525-9.857-18.875-12.092-23-2.235-4.125-4.075-8.503-4.09-9.728-.014-1.226 4.8-11.666 10.697-23.2l10.722-20.97-2.106-2.3c-4.08-4.46-5.617-8.806-4.99-14.107.323-2.721 1.217-5.91 1.988-7.086 2.315-3.534 2.61-6.93 3.123-36.109.271-15.4.788-41.793 1.148-58.65.648-30.345.633-30.675-1.477-32.94-2.571-2.76-2.954-9.982-.631-11.91 2.33-1.933 1.792-2.798-1.75-2.818-8.009-.046-21.776-9.564-23.051-15.937-.478-2.388-1.281-3.214-3.63-3.73-4.77-1.047-7.707-5.438-9.078-13.57-.662-3.923-.949-8.407-.637-9.964.488-2.441.083-3.115-2.943-4.901-3.387-1.998-7.072-8.202-5.95-10.018.29-.467-.146-2.458-.968-4.424-.821-1.965-1.493-4.93-1.493-6.586 0-3.638 2.826-11.052 4.212-11.052.547 0-.354-1.536-2.003-3.414-3.925-4.472-4.909-8.008-5.615-20.192-.58-10.03-.563-10.137 2.39-14.214 3.45-4.761 7.054-6.878 13.161-7.73 2.395-.334 8.18-1.557 12.855-2.716 4.675-1.16 11.633-2.362 15.463-2.671l6.963-.563.129-3.836c.095-2.821.82-4.41 2.742-6l2.613-2.164.213-62.5.213-62.5-2.164-3.5c-4.306-6.963-2.336-17.272 4.492-23.5l2.192-2-10.928-22.29C219.918 151.951 215 141.132 215 140.168c0-1.691 5.11-10.385 19.371-32.958 4.608-7.293 11.195-18.621 11.898-20.46 1.349-3.532 4.572-1.998 7.355 3.5 2.592 5.119 13.448 24.756 15.342 27.75 4.897 7.74 11.034 20.431 11.034 22.814 0 1.757-4.418 11.713-10.953 24.683l-10.953 21.738 3.121 3.883c3.636 4.525 4.786 12.162 2.882 19.149-1.503 5.52-1.942 22.63-2.103 82.094l-.133 48.862 2.23 2.374c1.336 1.422 2.278 3.76 2.35 5.836.066 1.904.433 3.774.815 4.157.383.382 5.812 1.012 12.067 1.399 10.451.647 11.727.95 15.774 3.74 5.421 3.735 14.094 12.806 16.27 17.016.996 1.924 6.03 6.275 13.08 11.303 12.101 8.63 16.543 12.511 23.053 20.139 5.276 6.18 7.68 6.818 11.246 2.983 4.65-5 9.196-7.162 15.07-7.166 6.555-.005 9.184 1.292 9.184 4.531 0 2.886-2.264 3.247-6.518 1.04-3.55-1.842-6.32-.794-10.912 4.13-5.62 6.025-6.348 11.837-2.47 19.755 2.814 5.749 11.491 9.51 16.773 7.272 4.896-2.075 7.127-4.821 7.127-8.771 0-8.957-11.21-14.672-12.184-6.211-.244 2.122-.914 2.82-2.935 3.054-3.415.396-4.263-2.536-2.026-6.996 4.002-7.98 16.193-7.698 21.185.49 1.334 2.187 1.954 5.014 1.956 8.917.003 4.948-.405 6.182-3.046 9.19-1.677 1.91-4.715 4.009-6.75 4.664-5.172 1.666-5.868 2.416-6.48 6.986-.35 2.606-2.029 5.997-4.762 9.617-4.836 6.404-5.524 7.114-13.175 13.589-4.023 3.403-6.54 6.634-8.829 11.332-2.953 6.063-3.166 7.167-2.743 14.24.72 12.073 5.328 18.897 15.781 23.378 6.597 2.828 13.637 2.525 20.685-.89 5.026-2.435 6.2-3.564 8.573-8.25 4.532-8.947 3.36-19.087-2.764-23.904-7.102-5.586-15.762-5.034-21.379 1.364-4.019 4.577-4.785 7.786-2.639 11.06 1.589 2.426 1.797 2.48 3.527.913 2.285-2.067 6.005-.5 6.005 2.531 0 3.552-3.436 5.922-7.696 5.31-5.982-.86-8.304-4.146-8.304-11.753 0-7.518 2.416-11.86 8.497-15.27 4.92-2.76 15.03-3.963 19.875-2.364 4.786 1.58 11.665 9.87 12.74 15.355 1.357 6.914-.007 15.571-3.337 21.187-3.9 6.577-6.26 8.194-15.334 10.515-12.868 3.291-24.065 1.007-31.991-6.527-5.455-5.185-9.252-6.111-14.865-3.628-5.632 2.49-7.646 5.626-8.258 12.854-.433 5.114-.164 6.28 2.317 10.04 1.954 2.96 4.1 4.747 7.06 5.877 9.978 3.81 17.796 1.076 17.796-6.225 0-2.914.44-3.945 1.798-4.214 2.84-.564 4.702 1.731 4.702 5.796 0 4.584-2.879 8.517-7.715 10.537-5.262 2.199-15.984 1.92-20.564-.535-2.81-1.506-4.748-1.85-7.735-1.372-3.728.596-3.986.48-3.986-1.79 0-1.335.545-2.973 1.211-3.64.948-.947.739-1.683-.965-3.387-1.997-1.997-2.399-2.058-4.875-.739-3.497 1.864-6.858 9.159-5.44 11.808 1.274 2.38 3.011 3.052 5.553 2.146 3.152-1.122 5.516-.032 5.516 2.544 0 2.668-3.401 5.44-6.675 5.44-1.227 0-3.432.547-4.9 1.216-2.405 1.096-2.879.958-4.797-1.392-2.68-3.283-5.116-2.542-9.318 2.836-3.455 4.423-4.09 6.4-4.92 15.34-1.396 15.032 5.202 23.438 20.176 25.704 6.633 1.004 13.55-.095 19.175-3.045 5.898-3.095 8.25-9.683 3.748-10.495-1.609-.29-1.75-.11-.739.939 2.072 2.15 1.468 4.804-1.248 5.486-3.984 1-5.502-.132-5.502-4.103 0-9 11.275-11.655 15.424-3.633 2.344 4.533.585 9.845-4.924 14.868-5.527 5.04-9.408 6.266-19.846 6.273-15.13.011-24.425-4.335-29.454-13.77-2.884-5.412-3.2-6.85-3.2-14.576 0-14.373 6.147-26.114 15.07-28.787 3.579-1.072 3.899-1.48 4.522-5.758 1.312-9.001 7.057-16.089 13.051-16.1 2.316-.003 3.357-1.747 3.357-5.625 0-3.132 3.114-9.233 6.166-12.08 3.157-2.945 9-5.298 13.155-5.298h3.386l-1.353-5.218c-.745-2.87-1.354-8.237-1.354-11.928v-6.71l-5.25.533c-3.822.388-6.941-.04-11.468-1.572-7.504-2.54-9.184-2.575-16.333-.34-4.748 1.484-7.91 1.639-21.837 1.072-8.957-.365-17.371-.936-18.699-1.27-2.298-.576-2.413-.377-2.417 4.164-.002 2.913-.74 5.977-1.895 7.872-1.77 2.902-1.9 5.772-2.013 44.5-.067 22.768-.372 49.947-.678 60.397-.455 15.509-.265 20.103 1.034 25 1.918 7.235 1.257 13.162-1.954 17.514l-2.299 3.115 10.902 21.686c5.996 11.927 10.903 22.231 10.904 22.9.001.667-2.545 5.842-5.658 11.5-3.114 5.656-8.356 15.46-11.65 21.785-3.293 6.325-6.82 12.694-7.838 14.154-1.018 1.46-1.851 2.903-1.851 3.206 0 .304-1.338 2.822-2.974 5.596L245.052 755l2.724.012c100.54.459 214.85 1.37 215.224 1.714.748.69 1.523-10.198 1.333-18.726zM99 507.5c0-.825.675-1.5 1.5-1.5s1.5.675 1.5 1.5-.675 1.5-1.5 1.5-1.5-.675-1.5-1.5zm263.5-122.66c-9.035-4.678-11.945-10.351-11.35-22.126.308-6.11.904-8.266 3.397-12.3 3.628-5.867 9.424-9.546 14.453-9.173 2.772.205 3.567.727 3.82 2.509.276 1.949-.129 2.25-3.028 2.25-4.722 0-7.53 2.352-10.308 8.633-3.08 6.964-3.263 11.694-.678 17.553 2.182 4.944 4.323 6.77 10.444 8.907 2.866 1 3.75 1.85 3.75 3.608 0 1.936-.513 2.292-3.25 2.255-1.788-.025-5.05-.976-7.25-2.116zm7.5-.267c0-.234-2.492-1.567-5.538-2.962-5-2.289-5.785-3.092-8.069-8.257-2.102-4.754-2.414-6.578-1.842-10.788.735-5.402 4.677-14.192 7.338-16.363 1.382-1.126 1.297-1.161-.593-.248-3.006 1.454-8.296 12.812-8.296 17.812 0 4.69 2.34 11.832 4.776 14.575.948 1.068 3.974 2.998 6.724 4.29 5.417 2.544 5.5 2.574 5.5 1.941zm.269-41.229c-.677-.274-2.027-.29-3-.037-.973.253-.419.478 1.231.498 1.65.02 2.446-.187 1.769-.461zm.231 36.94c-8.216-1.987-11.161-15.795-5.073-23.778 2.88-3.775 6.413-4.609 8.562-2.019 1.635 1.97.628 4.328-2.327 5.451-4.269 1.623-4.874 6.658-1.412 11.743 1.636 2.404 3.009 3.307 5.031 3.312 3.171.008 4.547 2.304 2.708 4.52-1.219 1.469-3.594 1.713-7.489.771zm5-2.284c.34-.55-.272-1-1.36-1-5.09 0-8.14-4.071-8.14-10.869 0-5.373.805-7.097 3.886-8.327 1.562-.623 2.097-1.234 1.33-1.518-1.67-.619-3.97 1.338-5.855 4.982-2.771 5.36.527 14.53 6.027 16.752 2.85 1.151 3.39 1.148 4.112-.02zM219.328 79.925c-3.416-1.014-5.096-4.931-3.827-8.927.582-1.836 1.182-1.98 5.824-1.388 7.836.997 8.837 1.788 8.48 6.704-.293 4.019-.445 4.193-3.805 4.37-1.925.1-4.928-.242-6.672-.76zm8.187-2.973c.819-2.58-1.106-4.983-3.887-4.852-1.88.088-1.836.18.372.795 1.551.431 2.5 1.42 2.5 2.605s-.949 2.174-2.5 2.605l-2.5.696 2.683.1c1.877.07 2.877-.515 3.332-1.949zM219 73.8c0-1.615-.296-1.904-1.113-1.087-.612.612-.81 1.602-.44 2.2C218.48 76.587 219 76.215 219 73.8zm5 1.759c0-.243-.45-.72-1-1.059-.55-.34-1-.141-1 .441S222.45 76 223 76s1-.198 1-.441zm14.5 4.55c-3.964-.603-4.003-.652-4.305-5.359L233.89 70l3.305.006c1.818.003 4.993.474 7.055 1.047 3.616 1.004 3.75 1.2 3.75 5.494 0 4.941-.122 4.987-9.5 3.561zm1.509-2.399c-3.62-1.832-3.789-4.466-.318-4.988 2.688-.404 2.669-.429-.441-.572-2.823-.13-3.25.172-3.25 2.3 0 2.47 2.227 4.476 5 4.505.825.008.379-.552-.991-1.245zm5.81-1.882c-.175-1.194-.823-2.337-1.438-2.54-.706-.232-.94.57-.633 2.172.59 3.087 2.522 3.43 2.072.368zm15.681 4.453c-2.2-.21-4.563-1.121-5.25-2.023-1.84-2.414-1.553-7.035.5-8.066 2.36-1.186 9.226-.382 12 1.405 3.647 2.35 2.785 9.54-1.107 9.235-1.179-.093-3.943-.34-6.143-.551zm2.75-1.943c-.688-.278-1.813-.278-2.5 0-.688.277-.125.504 1.25.504s1.938-.227 1.25-.504zm-4.67-2.588c-.068-1.914.435-2.25 3.375-2.25 2.833 0 3.58.45 4.15 2.5.583 2.094.712 2.167.795.45.146-3.006-1.814-4.45-6.041-4.45-4.312 0-5.4 1.12-3.87 3.98 1.385 2.588 1.688 2.544 1.59-.23zm5.15-.354c-.333-.332-1.196-.368-1.918-.08-.797.32-.56.557.605.605 1.054.043 1.644-.193 1.312-.525zm11.02 4.915c-1.724-.45-2.527-2.404-3.006-7.311-.227-2.326.1-2.522 4.69-2.812 2.713-.172 5.992-.047 7.285.278 2.71.68 4.66 4.89 3.817 8.245-.512 2.04-1.141 2.276-5.805 2.173-2.877-.064-6.018-.322-6.98-.573zM286 76.7c0-3.386-1.874-4.7-6.7-4.7-3.58 0-4.3.323-4.3 1.929C275 77 277.787 79 282.071 79c3.433 0 3.929-.29 3.929-2.3zm-8.333.633c-.367-.366-.667-1.518-.667-2.56 0-1.577.628-1.842 3.75-1.583 3.012.249 3.813.753 4.07 2.56.277 1.955-.127 2.25-3.084 2.25-1.871 0-3.703-.3-4.07-.667zm4.583-1.995c-.688-.278-1.813-.278-2.5 0-.688.277-.125.504 1.25.504s1.938-.227 1.25-.504zm-58.632-7.628c-1.289-.942-1.677-2.356-1.44-5.25.318-3.914.369-3.96 4.322-3.887 8.785.16 10.973 1.814 9.848 7.438-.572 2.857-.826 2.989-5.782 2.989-2.851 0-5.978-.58-6.948-1.29zm3.81-1.475c-.591-.404-1.364-1.522-1.72-2.485-.545-1.478-.039-1.75 3.257-1.75 3.49 0 3.946.291 4.319 2.75l.416 2.75.15-2.781c.16-2.952-.214-3.208-6.1-4.186-3.445-.573-3.75-.433-3.75 1.722 0 2.463 1.672 4.756 3.45 4.73.713-.01.706-.251-.023-.75zm18.322 1.685c-2.196-1.28-2.35-7.177-.243-9.285 1.566-1.565 7.176-1.287 10.731.533 2.29 1.173 3.214 5.118 1.812 7.739-.898 1.678-2.056 2.087-5.835 2.063-2.593-.017-5.502-.49-6.465-1.05zm9.94-2.556c1.092-2.844-1.103-4.864-5.285-4.864-4.377 0-5.635 2.128-2.884 4.879 2.135 2.134 7.348 2.125 8.17-.015zm-7.51-.648c-1.651-1.989.21-3.914 3.429-3.546 2.11.24 2.977.937 3.21 2.58.27 1.897-.143 2.25-2.627 2.25-1.62 0-3.426-.578-4.012-1.284zm4.55-1.32c-.333-.332-1.196-.368-1.918-.08-.797.32-.56.557.605.605 1.054.043 1.644-.193 1.312-.525zm13.83 3.67c-1.347-1.488-1.678-2.95-1.258-5.54.52-3.209.334-3.567-2.115-4.06-7.17-1.44-7.674-1.819-7.976-5.985-.397-5.485 1.78-6.821 8.44-5.178 4.806 1.186 4.852 1.236 5.164 5.598.203 2.844-.15 4.696-1 5.235-.817.518.389.845 3.185.863 7.003.047 9.5 1.764 9.5 6.53V68.5l-6.056.293c-5.036.243-6.365-.048-7.885-1.728zm3.64-1.266c-.66-.66-1.2-2.037-1.2-3.06 0-1.539.65-1.807 3.75-1.55 2.969.245 3.814.763 4.06 2.483.227 1.6-.3 2.289-2 2.613-2.14.41-2.116.452.323.578 1.836.095 2.788-.452 3.142-1.807.722-2.76-2.277-5.057-6.604-5.057-3.364 0-3.671.237-3.671 2.833 0 2.993.667 4.167 2.367 4.167.618 0 .551-.482-.167-1.2zm4.3-1.8c.34-.55-.335-1-1.5-1s-1.84.45-1.5 1c.34.55 1.015 1 1.5 1 .485 0 1.16-.45 1.5-1zm-13.75-10.08c-3.84-2.236-.856-6.118 3.082-4.01 1.332.713 1.814 1.728 1.461 3.077-.295 1.13-.036 2.013.59 2.013 1.912 0 1.246-4.86-.817-5.965-2.782-1.488-7.037-1.274-7.674.387-.785 2.045 1.379 5.583 3.393 5.548 1.598-.029 1.596-.1-.035-1.05zm-22.25 4.408c-1.1-.242-3.26-.929-4.799-1.526-2.576-.999-2.775-1.453-2.5-5.694l.299-4.608 4.948.32c6.523.424 8.216 1.461 8.815 5.402.87 5.733-.957 7.383-6.763 6.106zm3.33-7.883c-.732-.708-2.905-1.434-4.83-1.616-3.034-.285-3.545-.014-3.835 2.036-.436 3.084.886 4.293 5.534 5.06 3.469.573 3.83.417 4.13-1.783.182-1.327-.268-2.99-1-3.697zM235.2 53.8c-2.431-2.431-1.37-3.935 2.55-3.61 3.012.249 3.813.753 4.07 2.56.267 1.885-.147 2.25-2.55 2.25-1.579 0-3.41-.54-4.07-1.2zm4.53-1.404c-.333-.332-1.196-.368-1.918-.08-.797.32-.56.557.605.605 1.054.043 1.644-.193 1.312-.525zm8.916-6.37c-4.71-.91-5.744-2.35-5.407-7.526l.261-4 4 .333c6.374.532 8.953 2.189 9.318 5.99.327 3.392-1.186 6.266-3.19 6.062-.62-.063-2.862-.45-4.982-.86zM255 42.121c0-2.532-2.095-4.1-6.41-4.801-3.343-.543-3.59-.405-3.59 1.998 0 3.05 2.263 4.609 6.75 4.65 2.523.024 3.25-.389 3.25-1.847zm-7.62-.574c-.864-2.25.327-3.327 3.096-2.797 3.511.67 3.505 4.249-.007 4.249-1.393 0-2.783-.653-3.089-1.452zm.6 702.702c2.403-4.263 6.83-12.475 9.839-18.25 3.008-5.775 8.104-15.17 11.325-20.876 3.22-5.707 5.856-10.83 5.856-11.387 0-1.204-18.819-38.816-20.107-40.187-1.569-1.669-.962-5.645 1.357-8.896 1.854-2.6 2.194-4.21 1.93-9.154-.176-3.3-.226-35.219-.11-70.931.202-62.122.295-65.073 2.14-68.2 1.512-2.562 1.78-4.25 1.245-7.818l-.682-4.551 3.363-.102 3.364-.103-3.343-.79c-5.451-1.289-5.625-1.83-5.382-16.78.192-11.82.473-13.933 2.022-15.225.989-.825 2.848-3.368 4.13-5.652 3.264-5.814 11.06-9.763 17.783-9.01 5.83.654 15.885 2.316 19.29 3.187l2.5.64-2.5-1.543c-1.375-.849-3.175-1.818-4-2.153-6.974-2.834-15.378-7.227-16.785-8.775-.943-1.036-4.19-5.972-7.215-10.967-8.102-13.38-7.778-13.226-27.823-13.23-9.172-.002-14.652.223-12.177.5 3.64.407 4.5.88 4.5 2.473 0 1.098-1.107 2.531-2.5 3.236-3.47 1.755-1.655 1.603 4.675-.393 3.598-1.134 5.682-1.356 6.36-.678.555.555 1.735 3.87 2.622 7.368 1.613 6.354 1.612 6.36-.721 8.25-1.911 1.547-3.645 1.833-9.544 1.569-3.964-.177-6.998.016-6.74.428.256.413 1.452.757 2.657.765 1.781.013 1.91.197.691.985-1.16.75-.818.99 1.5 1.062 2.89.088 2.854.14-1 1.428-3.876 1.296-3.901 1.332-.804 1.174 1.758-.09 3.122.286 3.03.836-.092.55-.732.87-1.423.712-.69-.16-2.328.413-3.637 1.271-2.789 1.827-14.954 4.112-27.18 5.104-5.04.408-9.191 1.261-9.98 2.05-1.458 1.457-.917 4.76 2.17 13.252l1.596 4.39 8.614-.582c9.13-.616 15.883-2.575 26.748-7.761l6.676-3.186-3.076-1.294c-4.733-1.99-6.993-8.297-4.034-11.256 2.077-2.077 2.669-1.313 1.463 1.886-1.07 2.84-.935 3.282 1.705 5.553 2.069 1.78 3.602 2.314 5.5 1.916 1.448-.303 3.271-.14 4.052.36 1.095.705.295 1.641-3.5 4.096-2.706 1.751-3.907 2.885-2.67 2.519 3.692-1.09 2.728 1.923-1.75 5.47-2.641 2.092-4 3.97-4 5.527 0 2.907 3.376 5.433 6.315 4.726 2.866-.689 1.047 1.262-2.048 2.197-1.637.494-2.906.002-4.75-1.842-4.342-4.343-3.051-8.729 3.578-12.157 1.598-.826 2.905-1.72 2.905-1.985 0-.265-3.487 1.256-7.75 3.381-10.223 5.096-12.726 5.997-19.167 6.898-2.98.417-5.59 1.278-5.802 1.913-.676 2.028 5.81 8.326 11.199 10.876 6.339 2.999 6.304 2.997 6.7.257.24-1.658 1.266-2.405 4.112-2.993 2.086-.432 6.58-2.167 9.987-3.858l6.195-3.073-2.487 2.71-2.487 2.711 2.592-1.655c1.425-.91 4.034-3.45 5.797-5.644 5.514-6.862 6.211-5.825 5.89 8.761l-.279 12.75-10.75.284-10.75.284V482c0-4.731.232-5.204 3.5-7.132 4.638-2.737 4.477-3.398-.25-1.03-2.063 1.033-4.987 2.176-6.5 2.54-1.912.459-2.75 1.297-2.75 2.75 0 1.8-.486 2.034-3.5 1.682-1.924-.224-3.161-.077-2.75.328.413.405 2.775.877 5.25 1.049 3.653.254 4.555.7 4.794 2.368.162 1.13-.626 2.888-1.75 3.905-2.609 2.361-2.611 5.717-.005 8.075 2.016 1.824 2.032 2.43 1.474 52.905-.74 66.837-1.026 73.887-3.12 77.084-.915 1.396-1.411 2.791-1.102 3.1.309.31 1.277-.822 2.152-2.514 1.79-3.46 5.716-5.816 11.884-7.129 3.498-.745 3.163-.8-2.077-.337-5.587.494-6.261.356-6.355-1.296-.217-3.833.265-93.395.568-105.655.175-7.044.627-13.119 1.006-13.5.379-.381 5.04-.974 10.36-1.317l9.671-.623-10.5-.011c-13.474-.015-12.742.109-14.068-2.368-.826-1.544-.841-2.778-.056-4.5 1.06-2.327 1.349-2.374 14.48-2.374 10.285 0 13.67.326 14.565 1.404 1.445 1.742.433 6.206-1.785 7.87-1.465 1.098-1.675 6.178-2.006 48.552-.424 54.184-1.174 75.73-2.63 75.552-.55-.067-2.35-.404-4-.748-2.855-.597-2.82-.53.732 1.386 4.6 2.482 7.117 7.066 7.128 12.984.01 5.774-1.99 9.84-6.258 12.713-6.339 4.267-16.41 2.326-20.526-3.956-.843-1.287-1.94-4.796-2.437-7.798l-.905-5.459-.117 4.602c-.088 3.443.507 5.458 2.362 8 4.901 6.72 5.007 7.293 2.317 12.574C219.178 680.446 214 690.918 214 691.669c0 .489 3.039 1.67 6.753 2.628 3.715.957 8.102 2.628 9.75 3.715 3.414 2.25 1.3 2.662-2.503.488-1.375-.786-2.95-1.425-3.5-1.42-.55.006 1.025 1.14 3.5 2.523 2.475 1.382 3.698 2.27 2.717 1.973-13.084-3.954-15.817-4.928-16.383-5.844-.435-.705-.007-.818 1.252-.332 1.053.407 3.264.942 4.914 1.189 1.693.253.604-.419-2.5-1.542-3.025-1.095-5.612-2.003-5.75-2.019-.795-.09-.045 2.553 1.104 3.893 1.489 1.736 7.998 13.945 20.7 38.829 4.563 8.937 8.58 16.25 8.926 16.25.347 0 2.597-3.488 5-7.75zm-5.757.117c-1.967-1.613-2.476-3.566-3.741-14.367-.806-6.875-1.424-13.625-1.374-15l.091-2.5.801 2.5c.624 1.947.823 2.076.9.583.16-3.073.944-1.453 3.634 7.504 1.92 6.396 2.46 10.18 2.246 15.78l-.28 7.368zM241.582 729l-1.484-6.5.587 6c.323 3.3.716 6.675.874 7.5.159.825.394 2.4.525 3.5.14 1.192.387.788.609-1 .205-1.65-.295-5.925-1.111-9.5zm-1.899-9.188c-.32-.797-.556-.56-.604.605-.043 1.054.193 1.644.525 1.312.332-.332.368-1.195.08-1.917zm-4.433-17.501c.963-.252 1.743-1.212 1.735-2.134-.014-1.448-.148-1.472-.985-.177-.784 1.213-.972 1.07-.985-.75-.019-2.801 2.613-2.997 3.482-.259.845 2.662-.144 4.034-2.806 3.893-1.692-.09-1.792-.22-.441-.573zm11.086-1.878c-.784-2.044 1.078-3.841 4.117-3.974 1.33-.059 3.03-.615 3.78-1.237.749-.622 4.04-1.623 7.314-2.225 3.274-.603 7.115-1.338 8.536-1.635 1.952-.408 2.584-.137 2.584 1.11 0 2.11-4.136 4.24-10.867 5.596-2.915.587-6.997 1.712-9.07 2.5-4.779 1.815-5.653 1.797-6.394-.135zm9.664-3.135c1.549-.883 1.739-1.17.5-.753-1.1.37-3.462 1.094-5.25 1.61-1.788.517-3.25 1.151-3.25 1.411 0 .772 5.306-.732 8-2.268zm7.75-1.987c-.963-.252-2.538-.252-3.5 0-.963.251-.175.457 1.75.457s2.712-.206 1.75-.457zm4.743-1.3c.35-.566-.051-.734-.941-.393-1.732.665-2.05 1.382-.611 1.382.518 0 1.216-.445 1.552-.989zM235 695.06c0-.518.445-1.216.989-1.552.566-.35.734.051.393.941-.665 1.732-1.382 2.05-1.382.611zm3.429-229.359c-2.848-1.594-1.61-5.394 2.821-8.654 5.822-4.285 9.138-3.892 9.556 1.13.279 3.347-.012 3.828-3.241 5.36-1.951.926-3.37 1.972-3.152 2.324.569.92-4.286.79-5.984-.16zm6.598-3.392c1.36-.93 2.769-2.127 3.13-2.66.797-1.172-.037-3.648-1.23-3.648-1.21 0-7.927 6.02-7.927 7.104 0 1.466 3.373 1.02 6.027-.796zm7.656-8.253c-1-1.7-2.145-2.888-2.545-2.64-.401.248-.709-.68-.684-2.063.05-2.732 2.858-5.352 5.737-5.352 1.574 0 1.8.879 1.739 6.75-.046 4.411-.346 6.057-.865 4.75-.736-1.851-.824-1.864-1.18-.177-.316 1.494-.713 1.265-2.202-1.268zm2.317-5.177c0-2.62-.234-2.928-1.455-1.915-1.165.966-1.217 1.59-.26 3.122 1.586 2.54 1.715 2.45 1.715-1.207zm-54.8 5.922c-.66-.66-1.2-2.235-1.2-3.5 0-1.766.562-2.3 2.418-2.3 4.15 0 5.582 1.054 5.582 4.107 0 2.502-.379 2.893-2.8 2.893-1.54 0-3.34-.54-4-1.2zm3.78-2.324c-.696-.838-1.525-1.264-1.844-.946-.318.318.084.997.893 1.51 2.117 1.338 2.394 1.174.95-.564zm9.06 1.072c-1.922-2.316-.854-5.048 1.974-5.048 2.074 0 2.538.539 2.8 3.25.256 2.658-.04 3.25-1.628 3.25-1.068 0-2.483-.653-3.146-1.452zm46.076-7.798c-.064-2.063.348-3.75.916-3.75.568 0 1.44-1.012 1.937-2.25.894-2.223.905-2.22.968.3.035 1.403-.5 3.18-1.187 3.952-1.057 1.186-.99 1.205.44.127.93-.702 1.876-2.48 2.1-3.952l.41-2.677.15 2.8c.083 1.54-.593 4.237-1.502 5.993-1.497 2.896-1.718 3.008-2.365 1.2-.712-1.988-.715-1.988-1.232.007-.313 1.207-.565.512-.635-1.75zm-20.03-3.663c-2.597-2.598-2.622-4.136-.12-7.317 2.37-3.012 7.27-5.203 10.027-4.482 1.307.342 2.007.034 2.007-.882 0-1.977 3.017-1.752 4.608.344 1.756 2.313 1.88 12.58.146 12.001-.686-.228-1.519-2.089-1.851-4.134-.333-2.045-1.177-4.258-1.876-4.918-1.024-.965-1.053-.773-.15.985 2.034 3.956 1.374 6.313-2.182 7.8-6.504 2.716-8.387 2.824-10.608.603zm10.763-3.603c1.127-1.047 1.067-1.683-.37-3.876l-1.719-2.623-3.63 2.205c-4.74 2.88-5.347 3.912-3.497 5.957 1.26 1.391 2.093 1.505 4.699.641 1.742-.578 3.775-1.615 4.517-2.304zm5.84-3.234c-.251-.963-.457-.175-.457 1.75s.206 2.712.457 1.75c.252-.963.252-2.538 0-3.5zm-1.344-3.793c-.326-.849-.807-1.329-1.069-1.067-.262.262-.18.957.183 1.543.986 1.596 1.562 1.286.886-.476zm13.142 6.367c-.279-.728.128-3.349.904-5.824.776-2.475 1.463-3.6 1.525-2.5.096 1.678.277 1.758 1.122.5.728-1.085.931-.119.734 3.491-.209 3.83-.68 5.068-2.025 5.324-.964.183-1.981-.263-2.26-.991zm2.175-4.074c-.277-.688-.504-.125-.504 1.25s.227 1.937.504 1.25c.278-.688.278-1.813 0-2.5zm4.026 1.604c-1.026-1.025-.83-3.354.28-3.354.533 0 .682.749.33 1.664-.429 1.119-.255 1.427.532.941.644-.398 1.117-2.609 1.052-4.914-.112-3.959-.161-4.025-.882-1.191l-.763 3-.119-3.25c-.08-2.193.343-3.25 1.299-3.25 1.897 0 2.286 1.504 1.631 6.313-.525 3.855-1.897 5.505-3.36 4.041zm-9.438-2.09c-1.572-.542-1.636-3.907-.092-4.861.807-.5.973.011.55 1.69-.582 2.301-.545 2.321.842.466 1.502-2.01 1.815-1.246.63 1.538-.374.879-1.243 1.404-1.93 1.167zm-10.171-7.847c.048-1.165.285-1.402.604-.605.289.722.253 1.585-.079 1.917-.332.332-.568-.258-.525-1.312zm2 0c.048-1.165.285-1.402.604-.605.289.722.253 1.585-.079 1.917-.332.332-.568-.258-.525-1.312zM272.486 424c.607-2.456.588-2.465-1.069-.5-1.495 1.773-1.614 1.792-1.052.168.35-1.007.635-2.02.635-2.25 0-.23.675-.418 1.5-.418 1.738 0 1.93 1.84.42 4-.81 1.157-.91.928-.434-1zm-20.32-6.654c-1.194-1.29-3.166-6.639-3.166-8.59 0-.416.698-.756 1.551-.756 2.024 0 4.651 6.294 3.688 8.835-.638 1.684-.921 1.754-2.072.51zm-.17-5.058c-1.09-1.7-1.119-1.697-.572.044.317 1.007.612 2.357.655 3 .057.843.216.83.57-.044.271-.667-.023-2.017-.654-3zm-1.778 232.557c3.641-2.593 4.783-4.873 4.775-9.53-.017-9.943-10.529-15.608-18.677-10.065-4.558 3.101-6.43 7.313-5.359 12.06 2.146 9.515 11.398 13.134 19.261 7.535zm-13.967-1.382c-3.299-2.31-4.714-8.667-2.768-12.43 2.31-4.468 6.478-6.277 11.74-5.094 5.35 1.202 7.777 4.088 7.777 9.249 0 5.741-4.232 9.812-10.2 9.812-2.396 0-5.342-.691-6.549-1.537zm12.294-2.918c1.35-1.35 2.455-3.539 2.455-4.865 0-2.452-3.422-7.68-5.027-7.68-.485 0 .222 1.105 1.572 2.455C252.127 635.036 249.385 642 243 642c-7.726 0-9.542-10.322-2.3-13.076 1.417-.539 2.329-1.229 2.024-1.533-.742-.742-4.923 1.544-6.442 3.522-1.857 2.42-1.514 6.522.79 9.452 2.784 3.539 8.032 3.622 11.473.18zm-2.115-2.749c1.316-1.879 1.344-2.504.185-4.25-1.866-2.81-6.623-2.755-7.675.088-.981 2.652 1.388 6.366 4.06 6.366 1.038 0 2.581-.992 3.43-2.204zm6.058-23.436c.206-2.123.62-15.335.918-29.36.298-14.025.837-37.902 1.196-53.06.36-15.157.341-28.544-.041-29.75-.632-1.988-1.359-2.189-7.878-2.175-3.95.008-7.818.417-8.593.908-1.179.746-1.487 10.426-1.878 58.828l-.467 57.935 5.377-.426c2.958-.234 6.503.009 7.878.54 1.375.532 2.638.844 2.807.693.168-.15.475-2.01.681-4.133zm75.723-4.25c4.21-1.601 10.588-7.92 11.31-11.206 1.48-6.742-6.435-11.018-10.084-5.448-.885 1.35-1.319 2.926-.964 3.5 1.16 1.879 2.107 1.098 2.066-1.706-.031-2.217.456-2.808 2.513-3.047 1.585-.185 3.25.473 4.392 1.735 1.677 1.853 1.713 2.363.412 5.781-3.305 8.683-18.257 13.415-31.356 9.925-9.194-2.45-13.447-5.602-17.063-12.644-2.262-4.405-2.306-17.314-.082-24.396.845-2.693 1.148-4.493.671-4-1.841 1.906-3.921 12.99-3.58 19.077.886 15.764 12.734 24.873 31.067 23.883 4.407-.238 9.22-.893 10.698-1.454zm-28.347-50.189c.947-.046 1.133-.283.441-.565-1.84-.748-4.935 1.302-7.386 4.892-2.19 3.206-2.167 3.198 1.544-.498 2.07-2.063 4.501-3.786 5.401-3.829zM312.51 561c1.71 0 3.982-.712 5.05-1.582 1.914-1.559 1.913-1.571-.059-.886-4.76 1.654-5.485 1.574-7.944-.885-1.406-1.406-2.556-3.692-2.556-5.081 0-3.95 2.93-10.29 5.55-12.007 3.059-2.004 7.868-1.998 9.879.012 1.86 1.86 2.07 6.53.371 8.229-1.545 1.545-.325 1.545 2.15 0 1.578-.986 2.803-.79 6.839 1.101 2.703 1.266 5.77 2.084 6.813 1.817 1.587-.406 1.523-.505-.392-.602-3.42-.173-9.69-3.674-11.484-6.412-.87-1.326-2.214-4.584-2.988-7.24-1.067-3.66-1.539-4.334-1.944-2.783-.365 1.395-1.684 2.263-4.136 2.723-7.174 1.346-11.658 7.87-11.658 16.962 0 3.083-.341 3.644-2.25 3.697l-2.25.064 2.272.912c1.25.502 2.547 1.629 2.883 2.504.433 1.128.921 1.28 1.678.524.587-.587 2.466-1.067 4.176-1.067zm40.355-10.737c3.698-2.746 5.664-6.514 4.621-8.856-.693-1.556-.953-1.19-1.417 1.993-.702 4.822-3.852 7.375-10.632 8.617l-4.936.905 4.864-.351c2.785-.201 5.991-1.188 7.5-2.308zm-28.853-22.302c1.412-5.245 5.478-9.687 10.489-11.459 2.2-.778 3.19-1.434 2.2-1.458-4.307-.105-11.841 6.164-13.167 10.956-.38 1.375-.911 3.287-1.18 4.25-.268.962-.25 1.75.041 1.75.29 0 1.018-1.818 1.617-4.04zm42.759-.993c-6.546-1.102-12.578-4.682-16.446-9.76-4.249-5.578-5.797-10.97-5.8-20.208-.004-6.448.413-8.256 2.97-12.887 1.635-2.963 4.78-7.013 6.99-9 7.936-7.14 15.294-14.833 16.45-17.2.885-1.815.617-1.67-1.08.587-2.489 3.307-7.95 8.838-14.854 15.045-2.475 2.225-5.85 5.711-7.5 7.747-2.97 3.665-3.08 3.704-11 3.919-4.4.12-9.125-.126-10.5-.545-2.33-.71-2.364-.673-.5.536 1.187.77 5.047 1.298 9.5 1.298h7.5l.132 6.5c.073 3.575.632 9.425 1.243 13 .61 3.575 1.113 6.837 1.117 7.25.004.412-1.454.8-3.242.86-2.912.098-2.787.2 1.198.981 2.656.52 5.274 1.835 6.5 3.262 4.914 5.722 12.366 9.519 18.552 9.45 3.044-.033 2.884-.142-1.23-.835zm11.499.376c-.677-.274-2.027-.29-3-.037-.973.253-.419.478 1.231.498 1.65.02 2.446-.187 1.769-.461zm8.208-2.442c.538-.526-.587-.427-2.5.22-4.478 1.513-5.347 2.366-1.477 1.448 1.65-.391 3.44-1.142 3.977-1.668zm8.824-8.719c2.227-4.084 2.824-6.521 2.917-11.91.12-6.997-.994-10.224-5.273-15.273-2.445-2.886-1.598-1.061 1.859 4 2.145 3.14 2.347 4.321 1.969 11.5-.46 8.72-2.274 13.498-6.609 17.397-2.612 2.35-2.615 2.368-.164.91 1.375-.819 3.76-3.799 5.3-6.624zM440.5 523c-.34-.55-1.488-1-2.55-1-1.063 0-2.495-.9-3.182-2-1.59-2.546-2.768-2.558-2.768-.029 0 1.365 1 2.26 3.25 2.91 4.414 1.275 5.986 1.31 5.25.119zm7.54-2.02c2.178-1.111 3.96-2.246 3.96-2.52 0-.276-1.688.346-3.75 1.38-2.063 1.036-4.425 2.134-5.25 2.442-.99.37-1.061.587-.21.639.71.043 3.072-.83 5.25-1.941zm-76.201-14.48c.287-1.618.107-1.761-.942-.75-3.668 3.535-8.897-.618-8.897-7.067 0-7.108 6.87-13.296 16.287-14.672 4.67-.682 4.819-.774 1.43-.886-4.431-.146-10.218 2.063-13.548 5.173-5.763 5.38-7.004 13.958-2.65 18.312 3.067 3.067 7.766 3.005 8.32-.11zm-114.162-13.1c1.01-2.633-1.65-3.37-12.177-3.37-10.526 0-13.187.737-12.177 3.37.514 1.34 2.497 1.6 12.177 1.6s11.663-.26 12.177-1.6zM304 485.056c2.406-1.061 2.387-1.08-.5-.494-1.65.335-6.375.619-10.5.63-4.64.012-6.546.289-5 .725 3.471.98 12.988.467 16-.861zm84.559.411c-1.068-.807-2.643-1.448-3.5-1.423-.858.025-.209.663 1.441 1.419 3.923 1.796 4.43 1.797 2.059.004zm-133.771-10.93l.288-9.824-6.095 5.643c-3.352 3.104-6.675 5.643-7.383 5.643-2.138 0-4.78 3.68-4.428 6.168.294 2.079.98 2.386 6.33 2.834 3.3.276 7.125.245 8.5-.07 2.433-.556 2.508-.836 2.788-10.395zM281 484.948c-2.475-.44-6.525-.767-9-.725l-4.5.076 4.5.7c2.475.385 6.525.71 9 .725l4.5.025-4.5-.801zm25.407-3.887c7.353-2.567 11.86-2.577 17.452-.04 2.954 1.34 6.52 1.978 11.061 1.978h6.702l12.633-12.25c13.27-12.868 16.735-17.43 16.741-22.051.003-2.296-.672-3.08-3.746-4.35-7.635-3.153-11.418-9.271-11.621-18.796-.137-6.416-.775-7.513-4.382-7.538-2.183-.014-6.102-3.506-16.098-14.341-2.392-2.594-8.692-7.717-14-11.385-9.913-6.85-14.337-10.916-16.637-15.289-2.023-3.844-14.895-15.82-17.604-16.379-1.324-.272-6.683-.765-11.908-1.094-5.225-.329-10.4-.695-11.5-.813-1.794-.192-2.03.465-2.292 6.379-.395 8.923.279 9.416 11.012 8.047 7.715-.984 14.804-.48 17.607 1.253.645.399 1.173 1.878 1.173 3.286 0 2.542-.048 2.557-6.25 1.938-3.438-.343-8.275-.54-10.75-.44-7.653.312-11.143-.03-21.824-2.139-12.594-2.486-22.977-2.721-23.814-.538-.732 1.906-2.265 1.894-6.16-.049-4.233-2.112-15.067-1.631-16.552.734-.773 1.23-.675 2.399.36 4.335 1.818 3.396 5.374 5.21 11.006 5.617 4.035.291 4.605.054 5.785-2.407.761-1.59 2.12-2.73 3.254-2.73 1.586 0 1.945.702 1.945 3.8 0 2.09-.54 4.34-1.2 5-2.433 2.433-17.48.896-21.78-2.225-.815-.591-.011.81 1.786 3.115 2.01 2.577 5.554 5.333 9.205 7.158 5.79 2.893 6.23 2.955 17.713 2.51 27.265-1.056 28.467-1.002 32.776 1.463 3.084 1.765 5.347 4.558 9.881 12.198 3.235 5.45 6.61 10.502 7.5 11.226 2.476 2.016 9.177 5.37 13.485 6.749 2.126.68 4.748 2.12 5.827 3.2 1.079 1.078 2.575 1.725 3.324 1.438.75-.288 3.853.352 6.898 1.422 7.22 2.538 10.978 2.454 18.716-.419 7.117-2.643 9.42-2.532 7.862.378-.545 1.018-1.814 2.113-2.82 2.432-1.082.343-1.797 1.48-1.751 2.784.058 1.649-1.054 2.763-4.422 4.428-2.475 1.224-5.4 2.27-6.5 2.327-1.275.064-.005 1.107 3.5 2.875 5.459 2.753 7.358 5.75 3.5 5.523-3.762-.221-11.998-2.779-13.95-4.331-1.67-1.328-1.634-1.136.25 1.334 3.955 5.186 2.039 14.615-2.97 14.615-1.694 0-1.983-.505-1.638-2.856.33-2.241.075-2.765-1.184-2.436-1.198.314-2.054-1.012-3.392-5.258-2.068-6.559-1.48-7.759 3.855-7.874 1.938-.042 3.524-.41 3.526-.82.005-1.204-8.125-6.815-12.997-8.97-2.663-1.179-6.64-1.983-9.742-1.971-2.883.011-5.497-.392-5.809-.897-1.055-1.707-10.776-1.016-14.083 1-3.308 2.018-8.366 7.997-8.366 9.891 0 .616-.9 1.602-2 2.191-1.836.983-2 2.094-2 13.56v12.49l2.75 1.107c4.193 1.69 21.888 3.644 29.75 3.285 3.85-.175 9.658-1.246 12.907-2.38zM242 395.5c-.652-1.715-1.71-2.5-3.368-2.5-2.566 0-3.632-1.638-3.632-5.582 0-1.727.555-2.418 1.941-2.418 1.068 0 2.239.482 2.603 1.07.406.658 2.165.817 4.559.413l3.897-.659v4.154c0 7.299-3.944 10.929-6 5.522zm3.914-5.5c-.038-1.731-.264-2.032-.734-.979-.374.837-1.13 1.473-1.68 1.414-1.783-.192-4.979-1.762-5.826-2.862-.523-.679-.685-.522-.44.427.211.825 1.82 2.144 3.575 2.93 1.755.787 3.198 2.137 3.206 3 .014 1.379.134 1.387.985.07.533-.825.945-2.625.914-4zM263 371.023c0-2.764 3.843-4.98 9.874-5.694 4.76-.564 5.126-.455 5.126 1.532 0 1.486-.622 2.139-2.04 2.139-1.122 0-3.804.9-5.96 2-4.966 2.534-7 2.54-7 .023zm10-3.093c3.17-.634 3.236-.71.7-.815-2.61-.107-8.7 2.305-8.7 3.446 0 .28 1.012-.04 2.25-.711 1.238-.671 3.825-1.535 5.75-1.92zm47.083 114.326c-2.302-.942-4.26-.983-8.061-.167-2.762.592-5.022 1.152-5.022 1.244 0 .092 3.627.167 8.061.167 7.391 0 7.809-.103 5.022-1.244zm-103.73-5.227c-2.831-1.623-6.094-4.155-7.25-5.625-1.157-1.47-2.103-2.247-2.103-1.726 0 2.072 10.806 10.324 13.5 10.309.55-.003-1.316-1.334-4.147-2.958zm-2.944-15.259c3.24-.404 6.16-1.025 6.49-1.378.33-.353-2.099-.299-5.399.122-13.17 1.676-17.812.243-18.997-5.868-.336-1.73-1.124-5.295-1.752-7.922-1.047-4.376-.964-4.956.99-6.91 2.138-2.138 4.152-2.497 15.176-2.71 8.593-.165 5.56-.837-6.64-1.47-13.853-.719-16.41-2.132-18.347-10.134l-.725-3-.103 3.382c-.08 2.654.666 4.106 3.47 6.75 1.963 1.852 4.213 3.368 5 3.368 1.72 0 1.892 3.136.261 4.767-.889.889-.844 2.876.188 8.347 1.545 8.188 4.431 12.43 9.312 13.688 2.266.584 3.287 1.51 3.588 3.257.398 2.31.452 2.28 1.01-.556.551-2.811.953-3.043 6.478-3.733zm104.587 1.289c-.007-2.927-3.884-8.059-6.088-8.059-1.53 0-1.952.444-1.51 1.593.335.876.907 2.772 1.268 4.213.6 2.393.725 2.45 1.426.658.756-1.936.77-1.935.908.036l.14 2 .928-2c.704-1.519.86-.962.647 2.313-.241 3.718-.103 4.07 1.003 2.559.705-.965 1.28-2.456 1.278-3.313zM227 458c.825-.533 1.05-.97.5-.97s-1.675.437-2.5.97c-.825.533-1.05.97-.5.97s1.675-.437 2.5-.97zm8-3.5c2.475-1.325 4.05-2.41 3.5-2.41-.55 0-3.025 1.085-5.5 2.41-2.475 1.325-4.05 2.41-3.5 2.41.55 0 3.025-1.085 5.5-2.41zm92.5 1.448c-1.1-.504-3.237-1.362-4.75-1.907-4.254-1.534-3.687-4.775.99-5.652 2.057-.386 5.481-1.481 7.61-2.434 3.372-1.51 3.64-1.861 2.086-2.73-1.564-.876-1.3-1.254 2.14-3.068 2.158-1.138 3.572-2.088 3.14-2.113-.43-.024-3.003 1.081-5.716 2.456-5.825 2.952-15.58 3.409-21.346 1-5.74-2.398-7.633-1.75-2.86.979 5.187 2.965 10.206 7.815 10.206 9.86 0 .855 1.818 2.138 4.25 2.999 4.694 1.661 7.388 2.048 4.25.61zm-11.758-9.828c-.52-1.986-.197-2.112 5.102-1.988 5.2.12 5.374.196 2.156.928-3.303.752-3.235.787 1.204.615 6.3-.244 4.684 1.086-2.32 1.909-5.13.603-5.633.483-6.142-1.464zm58.774 4.095c.326-2.043 1.022-4.502 1.547-5.465.744-1.364.566-1.752-.805-1.76-.967-.005-4.137-1.117-7.044-2.47-4.288-1.997-5.652-3.268-7.228-6.74-1.068-2.354-1.952-3.559-1.964-2.678-.042 3.065 4.508 8.276 9.315 10.67l4.838 2.409-.338 5.316c-.378 5.956.764 6.444 1.679.718zM246 446c.825-.533 1.05-.97.5-.97s-1.675.437-2.5.97c-.825.533-1.05.97-.5.97s1.675-.437 2.5-.97zm137.559-4.574c1.067-.866 1.343-1.268.613-.893s-2.53 1.045-4 1.488c-2.144.648-2.265.824-.613.893 1.132.047 2.932-.622 4-1.488zm7.122-10.093c.236-2.828-.139-5.858-.903-7.303-1.697-3.207-7.408-7.03-10.503-7.03-2.853 0-8.276 5.03-8.273 7.673 0 1.137.661.51 1.75-1.662 3.317-6.62 10.191-6.168 15.049.989 2.8 4.124 2.618 10.654-.396 14.29l-1.83 2.21 2.35-2.167c1.679-1.545 2.468-3.55 2.756-7zm-169.931 3.978c-.963-.252-2.538-.252-3.5 0-.963.251-.175.457 1.75.457s2.712-.206 1.75-.457zm10.64-2.302c.752-.751.19-.779-1.913-.094-1.637.533-3.877 1.206-4.977 1.496-1.1.29-.239.332 1.914.094 2.152-.238 4.392-.91 4.977-1.496zm-12.824-.072c3.264-.585 7.586-1.493 9.604-2.017l3.67-.954-2.477-4.432c-1.882-3.367-2.403-5.585-2.17-9.233.293-4.577.516-4.906 4.769-7.051 2.454-1.238 4.254-2.259 4-2.27-.254-.011-7.887-.191-16.962-.4-9.075-.21-19.063-.71-22.196-1.112-5.452-.7-5.826-.6-8.75 2.324-3.452 3.452-3.709 5.597-1.627 13.588 2.66 10.212 4.26 11.436 15.573 11.91 4.125.172 8.205.402 9.066.511.862.11 4.237-.28 7.5-.864zm-14.87-3.977c-3.211-3.755-2.777-12.96.61-12.96 1.995 0 5.917 8.148 5.535 11.5-.425 3.74-3.56 4.485-6.146 1.46zm3.737-3.21c-.387-1.238-1.04-2.475-1.452-2.75-.412-.275-.974-1.4-1.25-2.5-.363-1.455-.53-1.204-.615.921-.064 1.607.629 3.744 1.539 4.75 2.183 2.413 2.629 2.307 1.778-.421zm156.759-15.32c3.058-2.887 5.67-4.477 7.5-4.566 2.382-.116 2.465-.202.542-.572-2.757-.53-7.898 2.561-11.097 6.672-1.944 2.499-3.084 3.036-6.44 3.036-3.681 0-4.593-.558-9.387-5.75-2.92-3.163-5.31-6.049-5.31-6.414 0-.75-11.694-10.118-14-11.215-.825-.393-.15.3 1.5 1.54 1.65 1.239 7.344 6.723 12.653 12.187 8.04 8.276 10.295 10.042 13.5 10.572 3.78.627 3.848.716 3.918 5.109.129 8.075.742 8.602 1.34 1.152.575-7.14.704-7.428 5.28-11.75zM247.18 422.22c.926-.926.148-8.071-1.099-10.089-.94-1.52-9.747-.322-11.656 1.587-1.701 1.701-1.85 5.62-.32 8.477.975 1.823 1.748 1.997 6.642 1.492 3.046-.315 5.94-.975 6.433-1.467zm-63.68-7.29c0-6.884-.035-6.984-1.342-3.78-1.05 2.572-1.096 4.114-.21 7.07.623 2.079 1.227 3.78 1.342 3.78.116 0 .21-3.182.21-7.07zm47.211 3.678c-.363-2.237-.005-4.195 1.05-5.75l1.6-2.358-2.18 1.905c-2.155 1.882-2.755 4.937-1.574 8.013 1.052 2.743 1.677 1.719 1.104-1.81zm-41.903-16.462c-.72-.215-2.883-1.799-4.808-3.519l-3.5-3.127 3.242 3.54c3.124 3.41 3.181 3.624 1.589 5.898l-1.653 2.36 3.219-2.38c1.994-1.474 2.721-2.529 1.91-2.772zM379 406c-.825-.533-2.175-.945-3-.914-.99.036-.819.347.5.914 2.75 1.181 4.328 1.181 2.5 0zm-162.84-3.897c-5.108-1.862-14.16-10.914-14.16-14.16 0-1.68.454-2.058 1.99-1.656 1.843.482 1.88.365.5-1.606-2.164-3.088-1.905-8.995.488-11.161 1.705-1.543 3.113-1.7 10.176-1.132 4.509.363 8.794 1.154 9.522 1.758.977.81 1.324.776 1.324-.131 0-1.508 18.92-.786 29 1.105 3.575.671 11 1.282 16.5 1.357 5.5.075 11.463.505 13.25.955 2.103.53 3.25.452 3.25-.22 0-1.677-7.39-2.442-16.373-1.694-12.245 1.02-12.776.578-12.415-10.324.28-8.461.356-8.702 2.81-8.988 2.325-.272 2.491-.625 2.124-4.5-.232-2.447-1.354-5.344-2.682-6.926l-2.284-2.72.428-64.78c.373-56.276.64-65.332 2.03-68.987 2.064-5.423 1.155-10.618-2.708-15.484-1.611-2.03-2.93-4.404-2.93-5.275 0-.871 1.603-4.766 3.561-8.656 1.96-3.89 3.19-6.842 2.735-6.561-.454.28-2.369 3.7-4.254 7.597-2.858 5.907-3.834 7.086-5.867 7.086h-2.438l.526-12.75.525-12.75-1.308 10-1.309 10 .165-14.287c.132-11.484.458-14.474 1.664-15.235 1.968-1.243.795-1.23-2.51.026-2.513.955-2.613 1.262-2.043 6.25.33 2.885.792 9.296 1.026 14.246.447 9.435.412 9.357-2.381-5.25-.747-3.904-.793-3.503-.258 2.25 1.134 12.213.87 16.92-.972 17.282-1.088.213-2.674-1.458-4.728-4.98-1.7-2.916-3.097-4.852-3.105-4.302-.01.55.878 2.35 1.971 4 2.83 4.273 2.49 6.632-1.51 10.51-4.39 4.254-5.828 9.005-4.377 14.458.59 2.218 1.768 4.81 2.617 5.763 1.373 1.538 1.475 8.878.919 65.961l-.626 64.232-2.512 2.328c-1.867 1.731-2.511 3.345-2.511 6.288V355l-5.75.042c-3.163.024-8.225.699-11.25 1.5-4.11 1.09-4.489 1.316-1.5.893 2.2-.31 7.788-.82 12.419-1.13 10.24-.686 10.715-.268 10.246 9.04l-.336 6.655h-3.248c-4.327 0-14.581-2.094-14.581-2.978 0-1.595-5.9-3.195-12.964-3.515l-7.536-.34 6 .908c3.3.5 6.555 1.121 7.233 1.38 1.908.726.405 3.294-2.33 3.98-8.954 2.247-8.447 15.025.983 24.817 5.227 5.427 4.832 6.709-2.136 6.934-4.886.159-4.473.271 2.75.75 4.675.31 9.62.379 10.987.152 2.205-.365 1.998-.59-1.827-1.985zm33.6-28.677c-.316-.315-3.653-.878-7.417-1.25l-6.843-.676v-8c0-6.845-.275-8.144-1.902-9-3.179-1.671-4.136-4.025-2.815-6.922.81-1.778 1.956-2.578 3.696-2.578 2.47 0 3.383-1.349 1.643-2.425-.483-.298-.74-7.862-.569-16.809.17-8.946.43-35.841.578-59.766.147-23.925.447-44.466.665-45.647.364-1.963 1.006-2.142 7.55-2.098 3.935.027 8.617-.296 10.404-.717 2.43-.572 3.285-.42 3.388.598.501 4.94-.434 124.505-.978 125.073-.373.39-4.724.868-9.67 1.061l-8.99.352 10.758.073c11.863.08 13.872.86 13.106 5.083-.758 4.181-2.234 5.21-7.736 5.39-4.33.142-4.544.23-1.378.56l3.75.393V374h-3.333c-1.834 0-3.592-.258-3.907-.574zm5.24-8.301v-6.875l-3.125-.625c-1.719-.344-5.535-.625-8.48-.625-4.786 0-5.42.25-5.946 2.345-.323 1.29-.444 4.103-.269 6.25l.32 3.905 6.37.702c3.502.387 6.615.95 6.916 1.25.3.302 1.372.548 2.38.548 1.6 0 1.834-.875 1.834-6.875zm-10.25-10.814c-.963-.252-2.538-.252-3.5 0-.963.251-.175.457 1.75.457s2.712-.206 1.75-.457zm14.327-2.994c.654-.65.913-1.901.576-2.78-.526-1.368-2.441-1.557-13.383-1.317-11.91.261-12.77.412-12.77 2.235 0 2.546 2.385 3.045 14.565 3.045 6.223 0 10.258-.433 11.012-1.183zm-4.065-18.567c.007-5.088.298-32.425.647-60.75l.636-51.5h-17.286l-.093 32c-.05 17.6-.267 40.1-.48 50-.699 32.265-.699 37.265-.004 38.39.41.662 3.89 1.11 8.627 1.11h7.94l.013-9.25zm-17.25-117.723c-7.925-6.233-7.354-18.834 1.113-24.588 5.88-3.995 13.816-2.744 19.125 3.015 2.172 2.357 2.5 3.631 2.494 9.712-.006 6.8-.112 7.096-3.735 10.416-3.43 3.144-4.242 3.418-10.11 3.418-4.836 0-6.986-.477-8.887-1.973zm16.78-3.368c3.726-3.727 5.006-7.34 4.007-11.318-.367-1.462-2.17-4.162-4.008-6-2.803-2.803-4.07-3.341-7.864-3.341-5.68 0-10.187 3.467-11.67 8.976-1.282 4.76-.123 8.18 4.119 12.141 2.453 2.292 4.007 2.883 7.58 2.883 3.762 0 5.038-.544 7.835-3.341zm-15.619-1.582c-2.16-2.16-2.923-3.873-2.923-6.566 0-7.134 3.25-10.433 10.327-10.48 4.025-.026 5.313.455 7.75 2.892 2.292 2.293 2.923 3.82 2.923 7.077 0 6.072-4.124 10-10.5 10-3.81 0-5.184-.53-7.577-2.923zm13-1.666c3.88-3.265 4.118-7.46.622-10.956-4.548-4.55-13.03-2.384-13.892 3.545-1.214 8.36 6.813 12.844 13.27 7.411zm-9.7.032c-2.86-2.003-3.092-8.347-.394-10.788 2.463-2.23 7.456-2.102 9.58.244 5.77 6.377-2.152 15.471-9.186 10.544zm6.948-2.098c3.872-3.504.708-9.393-4.209-7.833-2.6.825-2.754 6.927-.212 8.408 2.304 1.342 2.303 1.342 4.421-.575zm-21.921 197.95c-1.238-.24-3.263-.24-4.5 0-1.238.238-.225.433 2.25.433s3.487-.195 2.25-.434zM197 403c-.825-.533-2.625-.945-4-.914-2.29.05-2.332.127-.5.914 1.1.473 2.9.884 4 .914 1.65.046 1.738-.114.5-.914zm7.376-5.243c-4.52-3.968-8.354-11.882-8.362-17.257-.007-4.904 3.175-10.5 5.971-10.5 1.108 0 2.015-.45 2.015-1 0-.556-2.667-1-6-1-5.241 0-6-.242-6-1.912 0-1.453.9-2.033 3.75-2.416 7.478-1.005 22.25.633 22.25 2.466 0 1.155 3.305 2.411 8.75 3.325 3.422.574 4.25.422 4.25-.781 0-.98-.66-1.322-1.915-.994-1.3.34-2.46-.33-3.61-2.086-3.08-4.702.754-7.968 3.968-3.38l1.557 2.223v-2.615c0-1.439-.574-2.836-1.276-3.106-1.675-.643-20.37 1.062-24.224 2.21-1.65.49-5.433 1.181-8.406 1.534-6.357.755-9.558 2.264-13.414 6.32-2.802 2.949-2.816 3.03-2.227 12.801.572 9.465.977 10.757 4.947 15.762 1.527 1.925 8.091 3.295 16.885 3.524l4.785.125zm-24.805-8.328c-.367-1.466-.893-2.44-1.168-2.165-.275.275-.2 1.7.168 3.165s.894 2.44 1.17 2.164c.274-.275.198-1.699-.17-3.164zm191.421 2.597c-8.707-1.124-13.025-2.977-18.184-7.802-5.623-5.26-7.072-9.37-6.993-19.846.08-10.444 4.252-18.404 12.185-23.238 1.925-1.173 3.05-2.133 2.5-2.133-4.939 0-14.89 12.747-16.065 20.578-.882 5.882.338 15.058 2.58 19.405 4.158 8.063 14.985 14.062 24.985 13.845l4.5-.097-5.508-.712zM324 390.622c0-.207-.787-.995-1.75-1.75-1.586-1.243-1.621-1.208-.378.378 1.307 1.666 2.128 2.195 2.128 1.372zm-104.238-1.31c-.956-.25-2.756-.258-4-.02-1.244.24-.462.445 1.738.456 2.2.01 3.218-.185 2.262-.435zm4.656.081c.94-.36 1.535-1.68 1.466-3.25-.09-2.053-.22-2.196-.584-.643-.258 1.1-1.192 2.563-2.075 3.25-1.746 1.358-1.298 1.6 1.193.643zm168.177-7.29c1.972-1.55 4.282-2.15 8.79-2.283 5.95-.176 5.981-.19 1.181-.563-2.713-.21-5.941-.129-7.172.18-3.233.812-8.408 6.347-8.312 8.89.068 1.814.31 1.653 1.46-.973.759-1.731 2.583-4.093 4.053-5.25zm-179.678 6.538c-.23-.198-1.767-.662-3.417-1.03-2.19-.49-2.595-.398-1.5.343 1.35.914 5.92 1.552 4.917.687zm102.82-4.737c-2.62-2.245-6.053-5.957-7.63-8.248-3.274-4.759-12.994-14.468-16.35-16.332-4.33-2.404-4.114-1.302.297 1.523 5.239 3.355 14.013 12.448 16.324 16.918 1.426 2.756 9.858 10.246 11.516 10.229.333-.004-1.538-1.844-4.157-4.09zm-136.875-7.487c-.151-6.549 1.704-9.703 7.732-13.15 3.984-2.279 4.055-3.184.09-1.142-6.637 3.418-9.696 8.589-8.958 15.14.722 6.403 1.293 5.977 1.136-.848zm251.558-.468c2.646-1.678 4.532-3.33 4.192-3.67-.341-.341-1.63.302-2.866 1.429-1.235 1.127-3.596 2.76-5.246 3.63-1.65.87-2.526 1.6-1.946 1.622.58.022 3.22-1.333 5.866-3.011zm10.559-14.621c1.15-3.075 1.895-5.787 1.656-6.026-.24-.24-.98 1.282-1.647 3.381-.666 2.1-2.286 5.842-3.6 8.317-1.892 3.567-1.985 4.025-.444 2.209 1.069-1.26 2.884-4.807 4.035-7.881zM217 367c0-.55-.477-1-1.059-1s-.78.45-.441 1c.34.55.816 1 1.059 1s.441-.45.441-1zm-21.25-6.69c-.963-.25-2.538-.25-3.5 0-.963.252-.175.458 1.75.458s2.712-.206 1.75-.457zm5.98-.914c-.333-.332-1.196-.368-1.917-.08-.798.32-.561.557.604.605 1.054.043 1.644-.193 1.312-.525zm4-1c-.333-.332-1.196-.368-1.917-.08-.798.32-.561.557.604.605 1.054.043 1.644-.193 1.312-.525zm81.187-.77c-.23-.207-5.142-.615-10.917-.907-6.016-.305-8.792-.206-6.5.232 4.144.793 18.151 1.335 17.417.674zm157.216-11.656c-.016-3.41-.278-6.448-.581-6.752-.304-.303-.552 2.749-.552 6.782 0 4.033.262 7.072.581 6.752.32-.32.568-3.371.552-6.782zM383 344.05c0-5.31-14.732-10.356-19.5-6.68-1.848 1.426-1.713 1.457 1.774.411 5.673-1.7 14.486 1.233 15.902 5.295 1.183 3.393 1.824 3.736 1.824.975zm57.433-15.02c-2.872-6.399-8.848-12.74-14.569-15.46-1.85-.879-2.525-1.03-1.5-.334 10.404 7.056 14.745 12.656 17.26 22.264.527 2.015.904 2.434 1.148 1.277.2-.948-.852-4.434-2.34-7.748zm-80.546 4.86c3.064-1.069 7.161-6.913 7.08-10.1-.018-.71-.963.82-2.1 3.397-1.518 3.442-2.878 4.97-5.117 5.75-6.326 2.206-10.736 1.063-10.78-2.794-.028-2.43-.12-2.488-1.147-.72-.917 1.58-.714 2.247 1.142 3.75 2.572 2.083 6.3 2.328 10.922.717zm22.903-12.46c.578-1.062 2.794-3.618 4.924-5.68 5.549-5.376 12.92-7.17 23.504-5.72 4.353.596 8.56 1.331 9.348 1.634.789.302 1.434.294 1.434-.018 0-.814-7.166-2.632-11.98-3.04-4.928-.418-5.842-1.153-4.232-3.404 2.675-3.742 3.562-6.992 3.602-13.202.108-16.777-13.065-29.915-30.89-30.808-3.85-.193-7.986.022-9.19.478-1.425.54 1.022.835 7 .845 11.306.02 17.504 2.44 23.986 9.37 6.033 6.45 8.105 12.272 7.479 21.017-.876 12.235-5.372 16.675-16.703 16.49-10.676-.174-15.535-3.867-14.396-10.943 1.296-8.053 6.907-11.419 13.8-8.278 3.06 1.394 4.021 4.392 2.604 8.118-.819 2.154-1.676 2.711-4.172 2.711-2.811 0-3.091-.262-2.663-2.5.594-3.106-1.808-3.452-2.777-.4-.863 2.72.5 4.004 4.36 4.114 4.04.115 5.963-1.583 6.79-5.992.579-3.083.299-3.897-2.03-5.9-7.344-6.317-18.995 1.364-17.132 11.296.697 3.717 4.542 7.232 8.853 8.094 4.148.83 4.337 2.789.672 6.963C381.35 320.81 379 325.77 379 329.3c0 4.561 1.506 3.827 2.119-1.034.34-2.7 1.092-5.777 1.67-6.838zm-40.6-3.01c-2.676-1.874-2.72-2.96-.303-7.697 1.037-2.036 1.441-3.426.897-3.09-1.066.66-3.784 6.645-3.784 8.335 0 1.446 4.036 5.33 4.773 4.592.333-.333-.379-1.296-1.583-2.14zm23.895-6.735c-1.295-1.295-1.504 1.117-.344 3.983.652 1.613.782 1.55 1.085-.533.189-1.301-.145-2.854-.741-3.45zM362 308.652c0-.742-1.8-2.16-4-3.152s-4-2.317-4-2.945c0-.628-1.455-1.572-3.234-2.098-4.199-1.242-7.703-7.279-7.813-13.457-.071-4.033-.183-4.24-1.079-2-1.505 3.766-.197 8.424 3.662 13.043 1.905 2.28 3.464 4.311 3.464 4.513 0 .201-1.012 1.313-2.25 2.47l-2.25 2.105 2.815-1.066c4.318-1.634 7.074-1.29 10.787 1.35 4.151 2.949 3.898 2.869 3.898 1.237zm-14.5-32.766c2.728-3.338 8.322-7.47 14.147-10.449 2.67-1.364 3.728-2.196 2.353-1.847-5.197 1.317-13.27 6.81-17.063 11.61-2.166 2.739-3.921 5.502-3.902 6.14.02.638.582.223 1.25-.923.668-1.146 2.115-3.185 3.215-4.53zm-105.445-99.942c-1.722-14.378-3.213-23.452-3.984-24.248-.868-.896-14.416-6.572-14.84-6.217-.147.124 2.665 6.157 6.25 13.408 3.586 7.25 6.519 13.45 6.519 13.776 0 1.03 6.197 11.473 6.58 11.09.202-.201-.035-3.716-.525-7.81zm21.505-11.982c5.902-11.75 9.416-19.77 8.5-19.4-.858.347-2.01.726-2.56.842-.55.116-4.41 1.24-8.577 2.498l-7.577 2.287.077 5.155c.042 2.836-.287 10.444-.732 16.906-.445 6.463-.445 11.748 0 11.746.445-.002 5.336-9.017 10.87-20.034zm-29.274 10.022c-.29-1.108-.993-2.303-1.561-2.654-.569-.352-.809-.232-.534.265.275.498.78 1.693 1.123 2.655.86 2.415 1.618 2.208.972-.266zm31.113-6.734c.909-1.788 1.427-3.25 1.152-3.25-.576 0-3.551 5.544-3.551 6.617 0 1.044.542.283 2.398-3.367zm-36.275-3.517c-.988-.98-1.102-.865-.56.56.376.986.935 1.541 1.243 1.233.308-.307 0-1.114-.683-1.793zm14.882-12.986c.272-.224 2.069-.9 3.994-1.5l3.5-1.093-4.25.55-4.25.552-.125-5.378-.125-5.378-.69 4.231c-.38 2.328-.989 4.531-1.355 4.897-.365.366-3.214-.31-6.33-1.503-3.116-1.192-5.84-1.994-6.053-1.78-.213.212 2.365 1.416 5.728 2.674 6.716 2.511 7.844 4.084 8.097 11.296.131 3.729.213 3.567.756-1.487.334-3.12.83-5.856 1.103-6.08zm26.962 5.812c.018-.518-.629-.068-1.436 1-.808 1.067-1.483 2.365-1.5 2.882-.018.518.629.068 1.436-1 .808-1.067 1.483-2.365 1.5-2.882zm-46.54-2.7c-1.488-2.937-3.078-6.639-3.533-8.225-.822-2.867-.805-2.881 2.889-2.34 3.164.464 3.382.386 1.466-.527-2.682-1.278-2.947-3.438-.5-4.078 1.148-.3.861-.497-.833-.573-4.612-.207-4.516-.762 1.887-10.866.784-1.238 1.183-2.25.886-2.25-.297 0-2.527 3.273-4.956 7.273-4.941 8.14-5.027 6.536 1.07 19.983 1.935 4.266 3.7 7.573 3.924 7.35.223-.224-.811-2.81-2.3-5.747zm27.265.41c-.254-.973-.478-.419-.498 1.231-.02 1.65.187 2.446.46 1.769.275-.677.292-2.027.038-3zM272.92 152c1.122-2.357 1.102-2.39-.365-.559-.855 1.068-1.555 2.38-1.555 2.917 0 1.27.462.703 1.92-2.358zm-16.42-5.062l2-.921-2 .278c-1.1.153-2.536-.414-3.192-1.259-1.02-1.314-1.17-1.212-1.037.714.165 2.405 1.05 2.653 4.229 1.188zm-8.082-.545c1.1-.422 1.582-1.906 1.582-4.878 0-5.016 2.069-7.533 4.52-5.499 1.08.896 1.336 2.233.888 4.622-.734 3.912-.751 3.908 7.076 1.465l5.985-1.868-6.171-1.732c-6.055-1.698-8.367-3.834-6.344-5.857.693-.693 2.735-.479 6.37.667 2.944.928 6.1 1.687 7.014 1.687.914 0 2.562.9 3.662 2s2 1.62 2 1.155c0-.465-.9-1.66-2-2.655-1.1-.995-2-2.214-2-2.708 0-.493-2.779-5.711-6.175-11.595-3.396-5.883-7.48-13.326-9.074-16.54-1.594-3.213-3.016-5.688-3.16-5.5-.143.189.1 3.493.541 7.343.441 3.85 1.107 10.977 1.479 15.838l.676 8.839-2.393-.339c-2.255-.318-2.458-.918-3.496-10.338-.606-5.5-1.168-8.605-1.25-6.9-.081 1.704-.44 6.553-.797 10.775-.536 6.344-.406 7.587.75 7.161 2.062-.76 4.284 1.019 3.576 2.863-.338.88-1.705 1.601-3.039 1.601-2.806 0-3.638 1.62-3.638 7.082 0 3.94.505 4.429 3.418 3.311zm29.537-6.27c.048-1.476-7.76-16.123-8.595-16.123-.275 0 1.384 3.413 3.686 7.584 3.215 5.824 3.912 7.854 3.003 8.75-.904.89-1.49.752-2.477-.584-.71-.963-1.918-1.743-2.682-1.735-1.113.013-1.09.209.11.985 1.333.862 1.333.973 0 1-1.172.024-1.216.21-.202.854.847.538-.99 1.442-5.294 2.608-3.625.98-6.404 1.971-6.176 2.2.23.229 3.686-.49 7.681-1.597 7.947-2.203 9.342-1.995 8.542 1.27-.306 1.245.083.89.914-.835.795-1.65 1.465-3.62 1.49-4.377zm-38.025.01c.059-1.983-.294-2.265-2.18-1.742-1.238.343-4.89.915-8.115 1.271l-5.865.647 5.381 1.665c2.96.916 6.274 2.166 7.365 2.78 2.213 1.242 3.283-.205 3.414-4.62zm13.315.367c.263-1.375.09-2.5-.384-2.5-.473 0-.861 1.125-.861 2.5s.173 2.5.383 2.5c.211 0 .599-1.125.862-2.5zm-22.995-3.162c-.688-.278-1.813-.278-2.5 0-.688.277-.125.504 1.25.504s1.938-.227 1.25-.504zm38.75.2c0-.253-1.913-.955-4.25-1.559a393.276 393.276 0 0 1-6.25-1.663c-1.1-.31-1.7-.247-1.335.142 1.101 1.169 11.835 3.963 11.835 3.08zm-34.27-1.142c-.333-.332-1.196-.368-1.917-.08-.798.32-.561.557.604.605 1.054.043 1.644-.193 1.312-.525zm10.27-3.587c0-.445-.45-.809-1-.809s-1 .675-1 1.5c0 1.043-1.142 1.54-3.75 1.632l-3.75.131 3.5.677c3.351.649 6-.734 6-3.131zm-11.211 1.125c3.793-.73 6.628-1.849 7.145-2.822.472-.886 1.176-5.212 1.565-9.612.39-4.4 1.33-11.344 2.09-15.43.761-4.087 1.165-7.65.897-7.917-.267-.267-.486-.019-.486.553 0 .572-4.944 9.244-10.987 19.272-9.102 15.104-10.603 18.14-8.75 17.699 1.23-.293 5.067-1.077 8.525-1.743zm10.917-10.184c-.239-1.238-.434-.225-.434 2.25s.195 3.487.434 2.25c.238-1.238.238-3.263 0-4.5zm8.001.012c-.239-1.244-.444-.462-.455 1.738-.01 2.2.185 3.218.435 2.262s.26-2.756.02-4zM229 122c.589-1.1.845-2 .57-2s-.981.9-1.57 2c-.589 1.1-.845 2-.57 2s.981-.9 1.57-2zm19.666-13.73c.641-.21 1.41.432 1.71 1.425.3.993.32-2.02.047-6.695-.349-5.962-.192-8.052.525-7 .863 1.267 1.024 1.276 1.037.059.01-1.043.44-.905 1.553.5.846 1.067.283-.415-1.25-3.295-2.751-5.166-4.288-6.563-4.288-3.899 0 .751-1.001 2.638-2.224 4.193-1.852 2.355-1.93 2.715-.463 2.152 2.596-.996 3.02 1.245 1.701 8.987-.637 3.741-1.337 9.053-1.554 11.803-.36 4.556-.287 4.429.822-1.425.67-3.534 1.743-6.597 2.384-6.806zM267 119c-.589-1.1-1.295-2-1.57-2-.275 0-.019.9.57 2s1.295 2 1.57 2c.275 0 .019-.9-.57-2zm-35-2c.589-1.1.845-2 .57-2s-.981.9-1.57 2c-.589 1.1-.845 2-.57 2s.981-.9 1.57-2zm19.69-2.75c-.252-.963-.458-.175-.458 1.75s.206 2.712.457 1.75c.252-.963.252-2.538 0-3.5zM235 112c.589-1.1.845-2 .57-2s-.981.9-1.57 2c-.589 1.1-.845 2-.57 2s.981-.9 1.57-2zm26.5-3c-.853-1.65-1.776-3-2.051-3-.275 0 .198 1.35 1.051 3s1.776 3 2.051 3c.275 0-.198-1.35-1.051-3zm-23.5-2c.589-1.1.845-2 .57-2s-.981.9-1.57 2c-.589 1.1-.845 2-.57 2s.981-.9 1.57-2zm19-6c-.589-1.1-1.295-2-1.57-2-.275 0-.019.9.57 2s1.295 2 1.57 2c.275 0 .019-.9-.57-2zm-14-2c.589-1.1.845-2 .57-2s-.981.9-1.57 2c-.589 1.1-.845 2-.57 2s.981-.9 1.57-2zm247.158 113c0-1.375.227-1.938.504-1.25.278.688.278 1.813 0 2.5-.277.688-.504.125-.504-1.25zm0-30c0-1.375.227-1.938.504-1.25.278.688.278 1.813 0 2.5-.277.688-.504.125-.504-1.25zm-.079-10.583c.048-1.165.285-1.402.604-.604.289.721.254 1.584-.079 1.916-.332.332-.568-.258-.525-1.312zm0-5c.048-1.165.285-1.402.604-.604.289.721.254 1.584-.079 1.916-.332.332-.568-.258-.525-1.312zm.116-7.917c.02-1.65.244-2.204.498-1.231.254.973.237 2.323-.037 3-.274.677-.481-.119-.461-1.769zm.077-15.5c0-2.475.195-3.487.434-2.25.238 1.238.238 3.263 0 4.5-.239 1.238-.434.225-.434-2.25zm.07-19.5c.005-4.4.18-6.076.391-3.724.212 2.352.209 5.952-.007 8-.214 2.048-.387.124-.384-4.276zm.126-65.5c0-31.625.127-44.563.281-28.75.155 15.813.155 41.688 0 57.5-.154 15.813-.28 2.875-.28-28.75z"/></svg>