<svg xmlns="http://www.w3.org/2000/svg" width="246" height="420" viewBox="0 0 246 420"><path d="M212.75 418.338c.688-.278 1.813-.278 2.5 0 .688.277.125.504-1.25.504s-1.938-.227-1.25-.504zM64.397 394.833c-.283-.458-2.963-.833-5.956-.833-3.543 0-5.441-.416-5.441-1.191 0-.665-.552-.452-1.25.481-.844 1.13-1.71 1.382-2.669.778-1.21-.764-1.162-1.567.333-5.481 2.053-5.376 4.143-5.87 6.014-1.42 1.246 2.963 1.376 3.027 2.02 1 .73-2.3 4.88-3.064 6.082-1.118.448.725 1.056.71 1.972-.05.728-.605 3.613-.94 6.41-.744 4.369.304 5.088.1 5.088-1.45 0-2.333 3.043-2.356 3.652-.028.381 1.459 1.368 1.726 5.497 1.488 4.259-.246 5.109.005 5.534 1.63.276 1.056 1.36 2.145 2.41 2.419 1.901.497 2.622 3.126 1.112 4.06-.437.27-2.687.237-5-.073-3.025-.406-4.183-1.019-4.126-2.183.05-1.035.26-1.168.583-.368.57 1.414 5.338 1.733 5.338.357 0-.491-.704-1.163-1.563-1.493-.86-.33-1.316-1-1.014-1.49.302-.488-1.2-.913-3.339-.942-3.125-.043-3.824.277-3.563 1.632.18.927.36 2.05.402 2.495.043.445.527.53 1.077.191.55-.34 1-.141 1 .441S83.164 394 80.92 394c-4.041 0-4.074-.03-3.561-3.25.47-2.952.416-2.909-.591.476-.957 3.216-1.428 3.646-3.439 3.142-1.28-.322-2.329-.161-2.329.357 0 1.163-5.892 1.26-6.603.108zm-4.151-4.002c-.45-1.72-.224-2.037 1.093-1.531.914.35 1.661.276 1.661-.165 0-1.38-1.139-2.019-2.598-1.46-1.448.557-1.91 3.483-.735 4.658 1.073 1.074 1.18.798.579-1.502zm4.416-1.081c-.277-.688-.504-.125-.504 1.25s.227 1.938.504 1.25c.278-.688.278-1.813 0-2.5zm3.088 2.157c-.138-.601.55-1.614 1.528-2.25 1.405-.914 1.98-.841 2.735.343.603.946.962 1.05.972.281.009-.724.69-.959 1.679-.58.994.382 1.414.234 1.042-.367-.342-.554-2.666-1.084-5.164-1.178-4.228-.16-4.542.001-4.542 2.336 0 1.38.45 2.508 1 2.508s.887-.492.75-1.093zM75 392c0-.55-.198-1-.441-1s-.72.45-1.059 1c-.34.55-.141 1 .441 1S75 392.55 75 392zm-20.97-2.942c-.621-1.163-1.558-1.85-2.08-1.527-1.47.908-1.122 2.469.55 2.469.825 0 1.5.525 1.5 1.167 0 .641.261.905.581.585.32-.32.072-1.532-.55-2.694zm26.632-.308c-.277-.688-.504-.125-.504 1.25s.227 1.938.504 1.25c.278-.688.278-1.813 0-2.5zm-56.778 6.014c-.064-.145-.218-2.627-.341-5.514-.214-4.975-.096-5.25 2.24-5.25 2.208 0 2.404.315 1.867 3-.668 3.34-.097 3.714 2.325 1.523 1.743-1.578 3.601-1.934 8.775-1.681 2.997.146 3.25.422 3.25 3.551 0 3.159-1.283 4.607-4.082 4.607-1.746 0-.91-1.769 1.082-2.29 3.258-.852 2.488-3.71-1-3.71-1.686 0-3-.532-3-1.214 0-.78-.585-.63-1.637.422-1.774 1.775-1.218 4.84.856 4.713 1.003-.062 1.01-.188.031-.583-.687-.278-1.25-1.242-1.25-2.144 0-1.25.381-1.095 1.602.648.881 1.258 1.444 2.441 1.25 2.63-.44.425-11.809 1.654-11.968 1.292zm3.845-2.368c-.332-.332-1.195-.368-1.917-.08-.797.32-.56.557.605.605 1.054.043 1.644-.193 1.312-.525zm-2.04-6.146c-.251-.963-.457-.175-.457 1.75s.206 2.712.457 1.75c.252-.963.252-2.538 0-3.5zm76.534 7.193C97.877 390.4 100.454 383 105.86 383c2.58 0 4.04 2.826 2.083 4.035-.74.458-1.675.63-2.076.383-.4-.248-1.05.069-1.442.703-.403.653.28 1.902 1.575 2.879 4.083 3.08.469 5.417-3.777 2.443zm4.506-1.047c-.332-.332-1.195-.368-1.917-.08-.797.32-.56.557.605.605 1.054.043 1.644-.193 1.312-.525zm62.84 1.715c-.339-.547-2.855-.843-5.592-.657-2.917.199-4.977-.08-4.977-.674 0-.557-.884-.782-1.965-.5-2.265.593-3.55-2.083-2.535-5.28.812-2.559-1.968-2.764-3.393-.25-.934 1.648-1.073 1.64-2.401-.158-1.388-1.878-1.452-1.878-4.027 0-1.439 1.05-2.63 2.32-2.648 2.825-.017.504.27.615.638.247.368-.367 1.533.114 2.59 1.07 1.827 1.654 1.987 1.65 3.25-.078 1.277-1.745 1.41-1.736 3.374.227 1.124 1.124 1.642 2.293 1.15 2.597-.492.304-1.167.113-1.5-.425-.393-.637-1.506-.636-3.19.005-1.706.648-2.996.643-3.788-.015-.805-.668-1.556-.644-2.273.072-2.25 2.25-4.505.518-4.887-3.755-.418-4.66 1.402-7.099 4.342-5.818 2.584 1.125 8.508 1.147 10.432.038 1.971-1.136 4.796.763 4.894 3.29.043 1.102.356.9.968-.622 1.068-2.657 3.962-3.02 3.984-.5.008.962.421 2.39.917 3.174.624.986.85.373.734-2-.145-2.99.137-3.424 2.225-3.424 3.025 0 5.097 2.912 3.33 4.68-.98.98-1.588.881-2.942-.473-.94-.939-1.199-1.707-.577-1.707.622 0 1.358.563 1.636 1.25.301.747.536.545.583-.5.043-.963-.521-1.75-1.254-1.75-1.958 0-2.513.873-1.942 3.058.395 1.51 1.389 1.942 4.461 1.942 3.489 0 3.916.255 3.634 2.172-.35 2.373-2.274 3.52-3.252 1.939zm-27.962-3.611c-.334-.825-.91-2.253-1.28-3.174-.52-1.288-.277-1.52 1.051-1.011 1.027.394 1.478.262 1.115-.326-1.463-2.368-3.493-.91-3.493 2.511 0 2.548.437 3.5 1.607 3.5 1.032 0 1.39-.537 1-1.5zm27.662.844c-.677-.274-2.027-.29-3-.037-.973.253-.419.478 1.231.498 1.65.02 2.446-.187 1.769-.461zm-8.607-3.594c-.277-.688-.504-.125-.504 1.25s.227 1.938.504 1.25c.278-.688.278-1.813 0-2.5zM109 391.59c0-5.234 2.81-7.296 5.912-4.34 1.071 1.02 1.187.835.631-1.005-.483-1.598-.21-2.435.936-2.875 1.877-.72 4.406 2.125 4.56 5.13l.102 2 .859-2c.608-1.415.91-1.561 1.03-.5.093.825.472.418.842-.905.82-2.932 3.674-4.97 5.001-3.573 1.538 1.62-1.013 10.478-3.017 10.478-.93 0-1.916-.563-2.194-1.25-.403-1-.52-1-.583 0-.043.688-.754 1.25-1.579 1.25s-1.507-.563-1.515-1.25c-.01-.86-.245-.908-.75-.155-.404.602-2.873 1.168-5.485 1.258-4.406.151-4.75-.012-4.75-2.263zm4.985-2.34c.025-2.045-2.708-1.418-3.275.751-.288 1.101-.115 1.75.383 1.441.499-.308.914.03.922.749.02 1.722 1.948-1.156 1.97-2.941zM129 392c0-1.1.6-2 1.333-2 1.881 0 2.619.962 1.991 2.598-.816 2.127-3.324 1.676-3.324-.598zm50.661.25c-.251-.412-.615-2.55-.809-4.75-.306-3.482-.07-4.04 1.834-4.311 1.866-.266 2.244.246 2.582 3.5l.396 3.811.168-3.75c.136-3.027.553-3.75 2.168-3.75 1.62 0 2 .667 2 3.5 0 2.503.444 3.5 1.559 3.5.857 0 1.28.45.941 1-.34.55-.167 1 .383 1 .551 0 1.14-1.913 1.31-4.25.298-4.132.404-4.25 3.807-4.25 3.193 0 3.504.257 3.549 2.933.027 1.613.59 3.113 1.25 3.333 2.298.766 1.255 3.234-1.366 3.234-2.075 0-2.451-.368-1.96-1.916.335-1.054.145-2.202-.42-2.552-.635-.392-.786.055-.394 1.166.52 1.473.39 1.574-.712.552-2.087-1.937-3.316-1.474-1.33.5 1.68 1.669 1.583 1.765-2.076 2.07-2.393.198-4.152-.178-4.674-1-.633-1-.84-1.017-.852-.07-.008.688-.45 1.25-.984 1.25-.532 0-.681-.787-.33-1.75.608-1.667.543-1.667-1.36 0-2.117 1.854-3.924 2.24-4.68 1zm2.557-1.5c-.564-.688-1.233-2.375-1.486-3.75l-.46-2.5-.136 2.55c-.075 1.403.404 3.09 1.064 3.75 1.582 1.582 2.328 1.545 1.018-.05zM198 385.941c0-.582-.45-.78-1-.441-.55.34-1 .067-1-.608 0-.674-.27-.955-.6-.625-.768.768.424 2.733 1.659 2.733.518 0 .941-.477.941-1.059zm5 5.681c0-2.7 3.105-8.754 4.292-8.367.665.216 1.822 1.652 2.572 3.192.75 1.54 2.181 3.014 3.18 3.275 1 .261 2.06 1.106 2.355 1.877.41 1.07-.492 1.401-3.814 1.401-3.51 0-4.453-.386-4.875-2-.595-2.275.299-2.587 2.15-.75 1.01 1.003 1.117.855.545-.75-1.26-3.533-1.686-3.836-2.952-2.105-.683.934-1.012 2.577-.73 3.651.35 1.344.005 1.954-1.106 1.954-.89 0-1.617-.62-1.617-1.378zm-57-3.122c0-1.375.45-2.5 1-2.5s1 1.125 1 2.5-.45 2.5-1 2.5-1-1.125-1-2.5zm6.158.5c0-1.375.227-1.938.504-1.25.278.688.278 1.813 0 2.5-.277.688-.504.125-.504-1.25zm-31.044-3.93c-.86-.53-.962-1.046-.29-1.461.57-.353 1.339-.154 1.707.441.919 1.486.188 2.012-1.417 1.02zm-2.364-5.19c-.963-.539-1.75-2.06-1.75-3.38 0-1.32.787-2.865 1.75-3.432 1.526-.9 1.558-1.16.25-2.034-1.287-.86-1.251-1.006.25-1.019.963-.008 1.75.646 1.75 1.454 0 .894.586 1.243 1.5.893 1.049-.403 1.5.076 1.5 1.59 0 1.191-.354 1.948-.786 1.68-.432-.267-.785.412-.785 1.509 0 1.732.149 1.79 1.134.442.624-.854 1.368-1.318 1.654-1.033.285.286.3-.621.034-2.015-.357-1.868-.059-2.535 1.132-2.535.89 0 1.63.787 1.647 1.75.027 1.53.177 1.5 1.198-.25 1.13-1.936 1.19-1.92 1.87.5.585 2.083.72 2.16.802.46.095-1.94.762-2.047 13.535-2.185l13.434-.145.64 2.91c.837 3.812.01 4.96-3.568 4.96-2.407 0-2.927-.409-2.862-2.25.043-1.238.306-1.688.583-1 .713 1.768 4.338 1.559 4.338-.25 0-.825-.477-1.5-1.06-1.5-.582 0-.737.52-.345 1.155.453.731.274.882-.49.41-.927-.573-.907-1.099.088-2.298 1.128-1.36.976-1.459-1.2-.789-1.372.422-3.066 1.225-3.766 1.786-.941.753-1.123.628-.697-.482.439-1.144-.149-1.474-2.475-1.391-3.01.108-4.462 1.609-1.555 1.609.825 0 1.5.727 1.5 1.617 0 1.139.607 1.457 2.057 1.078 1.309-.342 1.915-.111 1.667.634-.71 2.135-3.835 1.964-4.412-.242-.653-2.5-2.526-2.827-2.106-.367.256 1.496-.778 1.749-7.956 1.95-5.871.164-8.255-.116-8.265-.97-.01-.802-.305-.743-.889.178-1.075 1.699-6.972 2.33-9.346 1.002zm15.6-3.348c.31-.807.132-1.734-.394-2.059-.526-.325-.956.336-.956 1.468 0 2.415.556 2.658 1.35.591zm-96.25 2.09c-.81-.979-.846-2.14-.121-4 .561-1.442.909-2.96.771-3.372-.137-.413.953-.889 2.423-1.059 2.119-.245 2.764.17 3.114 2l.44 2.309.137-2.25c.093-1.538.769-2.25 2.136-2.25 1.61 0 2 .667 2 3.418 0 1.88.273 4.13.607 5 .714 1.86-2.552 2.237-4.294.495-.783-.783-1.275-.783-1.76 0-.94 1.523-4.086 1.355-5.452-.291zm4.15-1.284c-.688-.278-1.813-.278-2.5 0-.688.277-.125.504 1.25.504s1.938-.227 1.25-.504zm5.44-4.088c-.252-.963-.458-.175-.458 1.75s.206 2.712.457 1.75c.252-.963.252-2.538 0-3.5zm-5.856 1.874c1.067-.677 1.007-.971-.302-1.473-.9-.346-1.385-.222-1.078.275.307.497-.007 1.131-.698 1.41-.69.278-.806.535-.256.57.55.035 1.6-.317 2.334-.782zm9.256 3.484c-.675-.812-1.083-2.97-.908-4.793.251-2.62.818-3.386 2.705-3.652 1.313-.186 2.768.264 3.235 1 .633.998.851 1.02.863.087.009-.724 1.302-1.25 3.074-1.25 1.87 0 2.808.406 2.414 1.044-.355.574-.09 1.712.588 2.53 1.907 2.298-.405 6.659-3.31 6.244-2.91-.415-3.49-3.392-.8-4.095 1.127-.295 2.049-.16 2.049.297 0 .458-.787 1.04-1.75 1.29-1.317.345-1.193.487.5.574 2.438.126 2.975-1.759 1.05-3.684-1.758-1.758-3.798-1.464-3.815.55-.013 1.493-.156 1.53-.969.25-.712-1.12-.898-.75-.735 1.46.249 3.362-2.16 4.596-4.191 2.148zm3.41-3.441c0-1.559-.45-2.834-1-2.834s-1 1.275-1 2.834c0 1.558.45 2.833 1 2.833s1-1.275 1-2.833zM69.153 375c-.033-4.253.244-5 1.855-5 1.04 0 2.351.787 2.912 1.75.92 1.579 1.022 1.539 1.05-.406.022-1.555.519-2.03 1.78-1.7 1.433.374 1.687 1.354 1.403 5.406-.369 5.276-2.193 6.612-4.118 3.016-1.374-2.567-1.306-3.34.215-2.465.688.396.9.334.471-.136-1.067-1.173-3.721-1.484-3.721-.436 0 .47.45 1.131 1 1.471 1.72 1.063 1.091 3.5-.904 3.5-1.613 0-1.91-.764-1.943-5zm7.51-3.25c-.278-.688-.505-.125-.505 1.25s.227 1.938.504 1.25c.278-.688.278-1.813 0-2.5zm2.695 6.74c-.284-.74-.368-2.376-.187-3.637.287-1.998.95-2.314 5.177-2.47 2.666-.098 5.343-.674 5.95-1.28C92.34 369.058 94 369.908 94 373c0 1.65.372 3 .827 3 .455 0 .628-1.35.386-3-.333-2.268-.05-3 1.162-3 2.878 0 5.625 3.264 5.625 6.685v3.24l-5.5-.066c-5.156-.062-5.5-.22-5.5-2.521 0-1.383-.437-2.186-1-1.838-.55.34-1 1.454-1 2.476 0 1.538-.783 1.857-4.563 1.857-2.899 0-4.752-.49-5.08-1.344zM83.5 376c0-.81-.787-1.624-1.75-1.81-1.228-.236-1.75.304-1.75 1.81s.522 2.046 1.75 1.81c.963-.186 1.75-1 1.75-1.81zm-2.5 0c0-.55.45-1 1-1s1 .45 1 1-.45 1-1 1-1-.45-1-1zm19.168-1.232c-.742-.742-.872-.351-.437 1.312.354 1.352.807 1.806 1.057 1.057.24-.722-.038-1.787-.62-2.369zm-7.475-1.499c-.254-.973-.478-.419-.498 1.231-.02 1.65.187 2.446.46 1.769.275-.677.292-2.027.038-3zM98.29 375c-.288-1.1-.696-2-.907-2-.21 0-.383.9-.383 2s.408 2 .906 2c.499 0 .671-.9.384-2zm10.446 4.307c-.677-1.208.65-10.807 1.495-10.807.402 0 1.445 1.02 2.318 2.267.873 1.246 2.055 1.978 2.626 1.625.688-.426.63-.895-.175-1.392-.873-.54-.901-.943-.1-1.438.613-.379 1.354-.063 1.648.702.767 1.999-1.336 6.985-2.613 6.196-.643-.397-.942.077-.752 1.19.216 1.26-.37 1.948-1.839 2.157-1.185.17-2.359-.056-2.608-.5zm5.264-4.7c0-.216-.675-.652-1.5-.969-.825-.316-1.5-.14-1.5.393s.675.969 1.5.969 1.5-.177 1.5-.393zm52.333 4.143c-1.497-2.383-1.252-7.573.42-8.928 1.186-.961 1.426-.98.88-.072-.477.794-.161 1.25.867 1.25.89 0 1.34-.45 1-1-.34-.55.057-1 .882-1s1.752.408 2.06.906c.308.499 1.46.671 2.559.384 1.785-.467 1.999-.03 1.999 4.093 0 3.437-.383 4.617-1.5 4.617-.884 0-1.506-.923-1.515-2.25-.01-1.3-.326-1.782-.75-1.142-.404.61-1.448.998-2.318.863-.871-.135-1.584.317-1.584 1.005 0 .755.788 1.044 1.99.73 1.34-.351 1.756-.143 1.274.636-.954 1.544-5.277 1.48-6.264-.092zm12.078-2.248c-1.067-4.252.038-5.44 4.804-5.163 2.372.138 4.777.538 5.346.89.569.351 1.673.244 2.453-.238a2.305 2.305 0 0 1 2.702.189c.955.792 1.284.65 1.284-.558 0-2.18 2.922-2.076 3.604.128.298.963.974 2.556 1.503 3.54.528.986.694 2.223.368 2.75-.926 1.5-4.282 1.127-5.238-.58-.521-.932-1.526-1.286-2.544-.896-.925.355-1.396 1.107-1.048 1.67.35.566.023.822-.728.572-.75-.25-1.619-1.544-1.933-2.875-.323-1.366-1.424-2.555-2.528-2.73-1.622-.256-1.7-.131-.456.73 1.333.923 1.333 1.048 0 1.124-1.01.058-.847.366.5.945l2 .86-2 .14-2 .14 2 .913c1.802.822 1.753.89-.494.68-1.881-.176-2.65-.969-3.131-3.233l-.638-3-.119 3.25c-.143 3.942-2.772 4.475-3.707.752zm2.282-2.233c-.254-.973-.478-.419-.498 1.231-.02 1.65.187 2.446.46 1.769.275-.677.292-2.027.038-3zm15.97-.519c-.278-.688-.505-.125-.505 1.25s.227 1.938.504 1.25c.278-.688.278-1.813 0-2.5zM194.14 375c.537 0 .699-.45.359-1-.34-.55-1.293-1-2.118-1s-1.246.412-.935.915c.311.503.225 1.104-.19 1.336-.417.232-.158.27.575.085.732-.185 1.771-.336 2.309-.336zM22.838 361.426c-.2-2.516-.122-4.967.175-5.447.296-.48 3.34-.833 6.763-.784l6.224.088v3.418c0 1.946.416 3.16.967 2.82.532-.33.701-1.931.375-3.56-.507-2.538-.289-2.961 1.533-2.961 1.848 0 2.125.58 2.125 4.441 0 2.443-.45 4.72-1 5.059-.55.34-1 .156-1-.41 0-.565-.72-.75-1.6-.413-.881.338-2-.014-2.486-.781-.661-1.045-.887-1.074-.899-.114-.008.705.997 1.69 2.235 2.187 2.123.853 2.134.908.2.968-1.127.035-2.57-.458-3.208-1.095-.872-.872-1.498-.874-2.542-.009-1.694 1.407-2.723.526-2.63-2.25.07-2.053.084-2.054.992-.083.863 1.874.906 1.88.68.083-.422-3.343-2.742-3.06-2.742.334 0 2.362-.444 3.083-1.9 3.083-1.535 0-1.968-.875-2.262-4.574zm2.851-3.176c-.251-.963-.457-.175-.457 1.75s.206 2.712.457 1.75c.252-.963.252-2.538 0-3.5zm5.973-.5c-.277-.688-.504-.125-.504 1.25s.227 1.938.504 1.25c.278-.688.278-1.813 0-2.5zM28.5 358c.34-.55.141-1-.441-1S27 357.45 27 358s.198 1 .441 1 .72-.45 1.059-1zm13.5 2.5V355h5c4.986 0 5 .009 5 3.287 0 2.6.43 3.32 2.056 3.442 1.735.13 2.009-.344 1.75-3.037-.28-2.921-.04-3.218 2.819-3.496 1.896-.185 3.763.335 4.75 1.321 1.456 1.457 1.625 1.462 1.625.052 0-1.33 1.35-1.534 8.75-1.321l8.75.252-.16 3.36c-.177 3.747 1.302 3.05 1.825-.86.266-1.981.985-2.563 3.47-2.805 2.947-.286 3.162-.078 3.61 3.5.262 2.093.033 4.668-.51 5.723-.939 1.827-1.048 1.804-2.325-.5-.944-1.705-1.35-1.934-1.375-.777-.037 1.737-4.125 2.636-9.285 2.043-2.49-.287-2.761-.714-2.866-4.5-.064-2.301-.31-3.462-.545-2.579-.237.883-1.534 2.197-2.884 2.92-1.35.722-2.455 1.687-2.455 2.144 0 1.412 1.754.916 2.362-.669.836-2.18 2.638-1.838 2.638.5 0 1.704-.667 2-4.5 2-2.925 0-4.505-.437-4.515-1.25-.012-.927-.236-.901-.87.097-1.132 1.788-11.117 1.755-12.256-.041-.634-1-.832-1.012-.844-.056-.008.688-.69 1.25-1.515 1.25-1.509 0-1.881-1.019-1.552-4.25.098-.962-.3-1.75-.885-1.75S46 360.575 46 362.5c0 2.833-.381 3.5-2 3.5-1.758 0-2-.667-2-5.5zm13.73 2.896c-.333-.332-1.196-.368-1.917-.08-.798.32-.561.557.604.605 1.054.043 1.644-.193 1.312-.525zm6.763-.385c.35-.566-.051-.734-.941-.393-1.732.665-2.05 1.382-.611 1.382.518 0 1.216-.445 1.552-.989zm6.572-2.017c.42-.279.128-1.377-.65-2.441-1.305-1.785-1.409-1.63-1.336 2.006.043 2.167.336 3.266.65 2.441.314-.825.915-1.728 1.336-2.006zm11.62-1.915c.05-1.437-.113-1.804-.37-.829-.254.963-.783 1.75-1.176 1.75-.392 0-.78.891-.863 1.98-.115 1.527.133 1.717 1.084.829.678-.634 1.274-2.312 1.324-3.73zm8.998 2.733c-.32-.797-.556-.56-.604.605-.043 1.054.193 1.644.525 1.312.332-.332.368-1.195.08-1.916zM76.69 358.25c-.251-.963-.457-.175-.457 1.75s.206 2.712.457 1.75c.252-.963.252-2.538 0-3.5zm-31.996.019c-.254-.973-.478-.419-.498 1.231-.02 1.65.187 2.446.46 1.769.275-.677.292-2.027.038-3zm4.99 1.543c-.32-.797-.556-.56-.604.605-.043 1.054.193 1.644.525 1.312.332-.332.368-1.195.08-1.917zm11 0c-.32-.797-.556-.56-.604.605-.043 1.054.193 1.644.525 1.312.332-.332.368-1.195.08-1.917zM87.725 359c.086-1.143-.466-2-1.287-2-1.752 0-1.852 1.186-.238 2.8.66.66 1.24 1.2 1.287 1.2.048 0 .155-.9.238-2zM63 358c0-.55-.477-1-1.059-1s-.78.45-.441 1c.34.55.816 1 1.059 1s.441-.45.441-1zm34.714 6.38c-1.157-1.156-.817-6.877.486-8.18 1.638-1.638 5.297-1.511 6.746.235.655.789 1.047 2.926.872 4.75-.288 3-.653 3.343-3.854 3.613-1.944.163-3.857-.024-4.25-.417zm6.286-.763c0-.211-1.111-.596-2.47-.856-1.358-.26-2.232-.087-1.94.383.511.829 4.41 1.246 4.41.473zm-1-3.117c0-.825-.45-1.5-1-1.5s-1 .675-1 1.5.45 1.5 1 1.5 1-.675 1-1.5zm1.218-2.682c-.626-.626-.766.031-.393 1.856.426 2.093.678 2.345.97.97.216-1.021-.044-2.293-.577-2.826zm2.782 2.125v-5.058l4.25.307c3.264.237 4.25.714 4.25 2.058 0 .963-.45 1.705-1 1.65-.55-.055-.876-.538-.725-1.074.15-.536-.187-.69-.75-.341-.564.348-1.025.081-1.025-.593 0-.674-.261-.964-.581-.644-.32.32-.118 1.447.449 2.505 1.598 2.987.302 6.247-2.485 6.247-2.197 0-2.383-.396-2.383-5.058zm2.693-1.674c-.254-.973-.478-.419-.498 1.231-.02 1.65.187 2.446.46 1.769.275-.677.292-2.027.038-3zm14.307 4.16c0-1.49-.787-3.29-1.75-4.001-2.607-1.926-.318-3.63 4.36-3.246 2.737.225 3.97.831 4.205 2.068.205 1.08-.285 1.75-1.28 1.75-1.16 0-1.53.769-1.323 2.75.23 2.198-.164 2.814-1.962 3.07-1.858.263-2.25-.153-2.25-2.39zm7.37.321c.331-1.238.609-3.448.616-4.911.013-2.488.292-2.651 4.26-2.5l4.244.161.128 4.75.128 4.75h-4.99c-4.686 0-4.953-.137-4.386-2.25zM142 360c0-4.098.316-4.999 1.75-4.992 2.33.01 4.42 4.4 2.872 6.032-.853.9-.61 1.03 1.01.543 1.393-.42 2.321-.147 2.68.79.795 2.069-.157 2.627-4.479 2.627H142zm2.69-1.75c-.252-.963-.458-.175-.458 1.75s.206 2.712.457 1.75c.252-.963.252-2.538 0-3.5zm12.31 5.71c0-1.835 4.005-8.96 5.037-8.96.547 0 1.746 1.575 2.664 3.5.918 1.925 2.086 3.5 2.596 3.5.516 0 .635-1.547.269-3.5-.577-3.073-.407-3.5 1.389-3.5 1.125 0 2.045.505 2.045 1.122 0 .742.545.67 1.608-.212 1.367-1.134 1.818-1.048 3 .569 1.66 2.27 1.752 3.98.357 6.587-.858 1.602-2.131 1.934-7.417 1.934-4.17 0-6.556-.433-6.886-1.25-.403-1-.52-1-.583 0-.095 1.499-4.079 1.704-4.079.21zm17.02-1.484c1.838-2.215.792-2.47-1.27-.31-.963 1.009-1.355 1.834-.872 1.834.482 0 1.446-.686 2.142-1.524zm-10.676-2.27c-.582-2.224-2.344-3.099-2.344-1.164 0 .99 2.266 3.97 2.71 3.563.116-.106-.049-1.185-.366-2.399zm15.901 2.965c.263-1.006-.134-2.667-.883-3.691-2.85-3.898-1.86-4.48 7.638-4.48 8.333 0 9 .148 9 2 0 1.1-.45 2-1 2s-1 1.35-1 3c0 2.533-.389 3-2.5 3-1.97 0-2.5-.507-2.5-2.393 0-1.979-1.617-3.607-3.582-3.607-.23 0-.418 1.35-.418 3 0 2.569-.376 3-2.617 3-2.042 0-2.511-.401-2.138-1.829zm11.444-4.921c-.251-.963-.457-.175-.457 1.75s.206 2.712.457 1.75c.252-.963.252-2.538 0-3.5zM189 357c0-.55-.198-1-.441-1s-.72.45-1.059 1c-.34.55-.141 1 .441 1s1.059-.45 1.059-1zm5 0c0-.55-.45-1-1-1s-1 .45-1 1 .45 1 1 1 1-.45 1-1zm2.667 7.333c-.367-.366-.667-2.616-.667-5 0-3.666.308-4.333 2-4.333 1.625 0 2 .667 2 3.559 0 1.957.375 3.327.833 3.044.459-.283.632-1.885.387-3.559-.378-2.573-.12-3.044 1.667-3.044 1.78 0 2.113.599 2.113 3.8 0 2.09-.54 4.34-1.2 5-1.283 1.283-6.029 1.638-7.133.533zm5.678-1.083c.255-.412-.575-.75-1.845-.75s-2.1.338-1.845.75c.254.412 1.085.75 1.845.75s1.59-.338 1.845-.75zm3.655.23c0-.722.563-1.503 1.25-1.734.932-.314.967-.78.136-1.833-2.058-2.611-1.29-4.937 1.56-4.72 1.436.11 3.07-.085 3.63-.431 1.855-1.146 3.108.678 3.746 5.45l.63 4.712-5.476-.065c-3.822-.046-5.476-.463-5.476-1.38zm7.25-1.403c.412-.043.714-1.314.671-2.827l-.079-2.75-1.042 2.863c-.678 1.862-1.3 2.445-1.782 1.666-.544-.88-.89-.803-1.31.289-.386 1.007-.029 1.38 1.111 1.16.925-.179 2.019-.36 2.431-.401zm-65.583-3.744c-1.218-1.218-.69-3.333.833-3.333.833 0 1.5.889 1.5 2 0 1.992-1.066 2.601-2.333 1.333zM112 304.573c0-33.22.224-39.573 1.398-39.573 1.942 0 2.835 19.335 2.424 52.487-.295 23.806-.469 26.015-2.072 26.323-1.643.316-1.75-2.086-1.75-39.237zm1.723 28.177c-.221-1.788-.403-.325-.403 3.25s.182 5.037.403 3.25c.222-1.788.222-4.713 0-6.5zm-.06-61c-.278-.688-.505-.125-.505 1.25s.227 1.938.504 1.25c.278-.688.278-1.813 0-2.5zM43 325.206c0-1.485 7.137-15.266 12.019-23.206 1.294-2.105 13.776-24.568 16.67-30C78.953 258.361 83 253.21 83 257.599c0 .97-3.547 8.096-7.881 15.833-15.311 27.329-24.642 44.123-26.619 47.91-2.384 4.565-5.5 6.755-5.5 3.864zM47 321c.589-1.1.845-2 .57-2s-.981.9-1.57 2c-.589 1.1-.845 2-.57 2s.981-.9 1.57-2zm4.5-8c.853-1.65 1.326-3 1.051-3-.275 0-1.198 1.35-2.051 3-.853 1.65-1.326 3-1.051 3 .275 0 1.198-1.35 2.051-3zm4.5-8c.589-1.1.845-2 .57-2s-.981.9-1.57 2c-.589 1.1-.845 2-.57 2s.981-.9 1.57-2zm6.5-12c.853-1.65 1.326-3 1.051-3-.275 0-1.198 1.35-2.051 3-.853 1.65-1.326 3-1.051 3 .275 0 1.198-1.35 2.051-3zm4.5-8c1.122-2.2 1.816-4 1.54-4-.274 0-1.418 1.8-2.54 4s-1.816 4-1.54 4c.274 0 1.418-1.8 2.54-4zm4.942-8.626c1.177-1.994 1.976-3.79 1.776-3.989-.199-.2-1.371 1.432-2.604 3.626-2.8 4.983-2.084 5.297.828.363zM79 263.723c0-1.23-.05-1.171-2.362 2.777l-1.757 3 2.06-2.36c1.132-1.3 2.059-2.837 2.059-3.417zm103.684 61.527c-.24-.412-7.531-12.9-16.205-27.75-21.595-36.97-22.912-39.478-21.46-40.865.891-.851 1.418-.76 2.108.365.505.825 4.552 7.8 8.992 15.5 4.44 7.7 10.347 17.825 13.126 22.5 2.78 4.675 5.938 10.075 7.017 12a956.622 956.622 0 0 0 5.85 10.174c2.139 3.671 3.888 7.159 3.888 7.75 0 1.216-2.65 1.476-3.316.326zm.531-3.5c-1.071-1.788-3.86-6.513-6.195-10.5-2.336-3.987-4.448-7.25-4.693-7.25-.245 0-.256.338-.024.75 4.622 8.239 11.94 20.25 12.337 20.25.288 0-.353-1.462-1.425-3.25zM170.5 300c-.853-1.65-1.776-3-2.051-3-.275 0 .198 1.35 1.051 3s1.776 3 2.051 3c.275 0-.198-1.35-1.051-3zm-4-7c-.853-1.65-1.776-3-2.051-3-.275 0 .198 1.35 1.051 3s1.776 3 2.051 3c.275 0-.198-1.35-1.051-3zm-5.578-9.75c-1.233-2.063-2.675-4.2-3.204-4.75-1.097-1.14.865 2.877 3.053 6.25 2.43 3.746 2.553 2.519.15-1.5zm-5.563-9.22c-.965-1.632-1.926-2.796-2.136-2.586-.428.428 2.756 5.556 3.449 5.556.242 0-.348-1.336-1.313-2.97zM152 268c-.589-1.1-1.295-2-1.57-2-.275 0-.019.9.57 2s1.295 2 1.57 2c.275 0 .019-.9-.57-2zm-4.184-7.504c-.627-1.378-1.33-2.316-1.56-2.086-.467.467 1.561 4.59 2.258 4.59.244 0-.07-1.127-.698-2.504zm-7.331 45.754c-3.225-11.8-4.395-15.94-6.569-23.239-2.488-8.355-2.991-14.101-1.286-14.7.622-.219 1.383.86 1.693 2.396.309 1.536 1.459 5.943 2.554 9.793 1.096 3.85 2.706 9.7 3.578 13 .872 3.3 2.288 8.346 3.147 11.213 1.502 5.015 1.304 7.287-.633 7.287-.502 0-1.62-2.587-2.484-5.75zm.415-6.65c-.575-2.083-1.226-3.608-1.446-3.388-.22.22.07 2.105.646 4.188.575 2.083 1.226 3.608 1.446 3.388.22-.22-.07-2.105-.646-4.188zm-7.847-28.15c-.485-1.623-.92-2.2-.967-1.282-.096 1.863.971 5.108 1.504 4.575.19-.189-.053-1.67-.537-3.293zM84.1 308.75c.154-3.491 1.48-7.267 2.489-7.09.5.088.969-1.86 1.04-4.328.143-5.039 1.448-7.15 3.15-5.098.798.961.732 2.53-.243 5.792-.735 2.46-1.85 6.387-2.477 8.724-1.217 4.54-4.137 6.014-3.96 2zM100 293c0-1.506.522-2.046 1.75-1.81.963.186 1.75 1 1.75 1.81s-.787 1.624-1.75 1.81c-1.228.236-1.75-.304-1.75-1.81zm24.695.303c-.269-.442-.807-4.224-1.196-8.406-.581-6.256-.443-7.704.777-8.173 1.492-.572 2.595 4.194 3.051 13.183.16 3.141-1.491 5.271-2.632 3.396zm.394-11.366c-.512-2.615-.91-3.41-.966-1.937-.104 2.705.91 7.3 1.484 6.727.194-.194-.039-2.35-.518-4.79zm-35.088 8.565c-1.252-1.509-.628-5.007.742-4.162.416.256.825-1.753.91-4.466.083-2.713.571-5.482 1.084-6.154.513-.67 1.487-3.8 2.166-6.953 1.165-5.42 2.514-7.684 3.805-6.392 1.15 1.15-1.944 12.625-3.404 12.625-.782 0-1.133.468-.78 1.04.75 1.213-1.518 14.838-2.579 15.494-.395.244-1.27-.22-1.944-1.032zm2.682-7.69c-.32-.797-.556-.56-.604.605-.043 1.054.193 1.644.525 1.312.332-.332.368-1.195.08-1.916zm3-12c-.32-.797-.556-.56-.604.605-.043 1.054.193 1.644.525 1.312.332-.332.368-1.195.08-1.916zm-17.24 15.537c.769-3.095 4.701-13.349 7.687-20.044 1.028-2.307 1.87-4.67 1.87-5.25 0-.58.9-1.055 2-1.055 1.95 0 2.705 1.961 1.298 3.368-.386.386-2.8 6.199-5.366 12.917-3.26 8.537-5.196 12.32-6.431 12.564-1.48.292-1.653-.113-1.059-2.5zm3.526-3.849c0-.55-.436-.325-.969.5-.533.825-.97 1.95-.97 2.5s.437.325.97-.5c.533-.825.97-1.95.97-2.5zm3.96-10c0-.55-.643.125-1.429 1.5s-1.43 2.95-1.43 3.5c0 .55.644-.125 1.43-1.5.786-1.375 1.43-2.95 1.43-3.5zm4.04-10c0-.55-.436-.325-.969.5-.533.825-.97 1.95-.97 2.5s.437.325.97-.5c.533-.825.97-1.95.97-2.5zm11.39 24.992c-.318-.829-.23-3.191.195-5.25.47-2.27.936-3.049 1.186-1.98.226.97.827 1.505 1.336 1.191.508-.314.924 1.256.924 3.488 0 2.978-.408 4.059-1.531 4.059-.843 0-1.792-.678-2.11-1.508zm45.78-2.986c-.696-1.922-.978-3.958-.627-4.525.35-.567.084-.907-.59-.756-1.268.284-7.86-14.3-7.9-17.475-.012-.963.653-1.75 1.478-1.75s1.5.503 1.5 1.117c0 .615 2.25 6.274 5 12.577 2.75 6.302 5 12.1 5 12.882 0 2.776-2.617 1.373-3.862-2.07zm1.206-2.05c-.326-.848-.807-1.328-1.069-1.066-.262.262-.18.957.183 1.543.986 1.596 1.562 1.286.886-.476zm-6.928-16.373c-.917-2.291-1.831-4.002-2.031-3.802-.2.2.376 2.249 1.28 4.552.906 2.304 1.82 4.015 2.032 3.803.212-.213-.364-2.261-1.281-4.553zM35 282.45c0-1.291 12.479-14.738 30.29-32.64 3.95-3.97 5.71-4.735 5.71-2.483 0 1.774-4.455 5.886-5.377 4.964-.4-.401-.454-.013-.118.861.58 1.515-.967 2.735-4.347 3.425-.738.15-1.424.42-1.525.599-.1.179-3.997 4.374-8.658 9.323-10.231 10.862-9.482 10.467 2.373-1.252 4.867-4.81 8.692-8.237 8.5-7.614C61.296 259.428 37.286 284 36.083 284c-.595 0-1.083-.698-1.083-1.55zm7.526-6.256c-.307-.308-1.114 0-1.793.683-.98.988-.865 1.102.56.56.986-.376 1.541-.935 1.233-1.243zM64 254c0-.55-.198-1-.441-1s-.72.45-1.059 1c-.34.55-.141 1 .441 1S64 254.55 64 254zm121.541 22.762c-3.172-3.444-10.966-11.535-17.32-17.98-9.349-9.484-11.218-11.846-9.803-12.389 1.284-.493 3.452 1.018 8.165 5.69 3.53 3.497 6.417 6.81 6.417 7.361 0 .551-3.263-2.135-7.25-5.97l-7.25-6.972 7.977 8.249c7.225 7.473 10.74 10.626 7.523 6.749-.685-.825-1.033-1.5-.775-1.5.989 0 20.627 20.48 20.115 20.977-.297.288-2.243-1.39-4.326-3.727-2.082-2.337-4.156-4.25-4.608-4.25-.452 0 1.156 2.016 3.573 4.479 2.418 2.464 4.156 4.72 3.863 5.013-.294.293-3.129-2.285-6.3-5.73zm-5.908-9.393c-2.548-2.584-4.633-4.304-4.633-3.822 0 1.158 8.246 9.54 8.82 8.966.245-.245-1.64-2.56-4.187-5.144zM105.3 274c0-3.025.187-4.263.416-2.75.23 1.512.23 3.987 0 5.5-.229 1.512-.416.275-.416-2.75zm-2-1c0-3.025.187-4.263.416-2.75.23 1.512.23 3.987 0 5.5-.229 1.512-.416.275-.416-2.75zM57 275.579c0-2.504 16.276-23.499 18.25-23.541.963-.021 1.747.3 1.743.712-.004.412-3.836 5.925-8.515 12.25C60.386 275.937 57 279.058 57 275.579zm7.86-8.034c4.71-6.557 3.172-5.6-1.935 1.205-2.373 3.163-3.643 5.208-2.822 4.545.821-.663 2.962-3.25 4.757-5.75zm10.102-13.872c.021-.454-.985.446-2.236 2-4.257 5.293-5.028 6.838-1.41 2.827 1.985-2.2 3.626-4.372 3.646-4.827zm46.648 18.856c-.518-2.626-.416-4.094.303-4.333.598-.2 1.094-1.113 1.102-2.03.014-1.44.147-1.463.985-.166.533.825.97 3.3.97 5.5 0 2.7-.288 3.547-.884 2.605-.708-1.117-.964-1.018-1.288.5-.254 1.192-.694.423-1.188-2.076zm38.551-7.433c-4.482-5.997-8.458-11.734-8.835-12.75-.791-2.13 2.592 1.817 8.06 9.404 2.081 2.888 3.981 5.25 4.222 5.25.24 0-2.147-3.688-5.305-8.195-3.159-4.507-5.198-7.858-4.533-7.447 1.341.829 14.34 18.109 16.109 21.416 1.602 2.994 1.384 3.948-.381 1.667-1.253-1.618-1.402-1.65-.893-.191.335.963.406 1.75.158 1.75-.248 0-4.119-4.907-8.602-10.904zm7.839 6.559c0-.19-1.012-1.202-2.25-2.25l-2.25-1.905 1.905 2.25c1.79 2.114 2.595 2.705 2.595 1.905zm48.5-6.826c-3.85-2.25-10.598-6.37-14.997-9.154-9.725-6.157-23.53-14.157-31.753-18.402-2.714-1.4-3.808-4.273-1.627-4.273.886 0 21.68 11.548 29.734 16.513.904.557 3.893 2.318 6.643 3.913 16.452 9.544 21.5 12.864 21.5 14.141 0 2.236-1.951 1.674-9.5-2.738zm.5-2.23c0-.546-6.94-4.607-7.807-4.568-.602.027 6.894 4.95 7.557 4.964.138.003.25-.176.25-.396zm-10.5-6.204c-2.561-1.974-5.5-3.592-5.5-3.028 0 .508 6.258 4.607 7 4.584.275-.008-.4-.708-1.5-1.556zm-7.05-4.235c-1.438-1.271-9.054-5.624-8.247-4.714 1.288 1.454 7.283 5.455 8.247 5.505.6.031.6-.26 0-.791zm-9.45-5.596c0-.394-13.772-8.346-20-11.55-6.13-3.152.004.909 9.276 6.142 10.938 6.173 10.724 6.065 10.724 5.408zm-84 20.377c0-.582-.508-.745-1.13-.36-.673.415-.95.162-.687-.63.744-2.232 2.817-2.258 2.817-.034 0 1.146-.225 2.083-.5 2.083s-.5-.477-.5-1.059zm23.355-.458c-.795-2.072.394-4.732 1.896-4.238.687.226 1.385 1.332 1.552 2.456.362 2.441-2.606 3.975-3.448 1.782zm-125.34-.163c.036-1.893 2.17-3.415 15.485-11.04 7.7-4.41 18.15-10.534 23.222-13.61C54.258 234.678 57.494 233 59.45 233c4.51 0-.958 3.929-25.052 18-24.882 14.532-30.42 17.324-30.383 15.32zm16.235-8.783c2.612-1.5 4.75-2.935 4.75-3.19 0-.588-10.877 5.56-14.085 7.96-2.641 1.978-.632.951 9.335-4.77zM30 251.43c0-.275-.9-.019-2 .57s-2 1.295-2 1.57c0 .275.9.019 2-.57s2-1.295 2-1.57zm11.5-6.728c.55-.567-1.25.228-4 1.766-2.75 1.539-5.45 3.262-6 3.83-.55.567 1.25-.228 4-1.766 2.75-1.539 5.45-3.262 6-3.83zm7.5-4.253c0-.275-1.35.198-3 1.051s-3 1.776-3 2.051c0 .275 1.35-.198 3-1.051s3-1.776 3-2.051zm8.5-4.959c1.1-.914.2-.651-2 .584-2.2 1.235-4.45 2.675-5 3.2-1.57 1.498 4.766-1.927 7-3.784zm-17.054 23.423c-.81-1.312-1.507-.671 12.24-11.28 11.282-8.706 13.729-10.006 13.137-6.977C65.503 242.296 43.7 260 42 260c-.485 0-1.184-.49-1.554-1.087zm7.054-4.523l4-3.58-4.5 3.288a4979.537 4979.537 0 0 0-4.917 3.595c-.229.169-.004.3.5.292.505-.008 2.717-1.626 4.917-3.595zM64 241.284c0-.619-4.982 3.103-9 6.724-1.925 1.735-.688 1.026 2.75-1.574 3.438-2.601 6.25-4.918 6.25-5.15zm109.862 9.56c-6.249-5.034-11.362-9.61-11.362-10.166 0-2.52 2.728-1.276 9.966 4.545 4.294 3.452 9.308 7.402 11.145 8.777 3.064 2.295 4.609 6 2.501 6-.488 0-6-4.12-12.25-9.155zM185 257.656c0-.19-1.012-1.202-2.25-2.25l-2.25-1.905 1.905 2.25c1.79 2.114 2.595 2.705 2.595 1.905zm-5.505-4.664c-.818-1.323-14.196-11.991-15.038-11.991-.581 0 14.6 12.798 15.352 12.941.17.032.028-.395-.314-.95zm-67.778-.241c-.247-.688-.226-2.712.048-4.5.429-2.805.205-3.25-1.634-3.25-1.464 0-2.131-.626-2.131-2 0-1.289-.667-2-1.874-2-3.137 0-10.04-2.8-14.765-5.99-4.835-3.262-7.223-3.004-9.373 1.013-.582 1.087-1.548 1.977-2.146 1.977-.674 0-.566-.665.286-1.75 1.236-1.576 1.203-1.617-.334-.414-.939.735-2.289 1.04-3 .676-.712-.363-.574-.064.305.664.88.728 1.634 1.763 1.675 2.299.042.536.622 1.157 1.29 1.38.697.232.917-.077.516-.725-.94-1.521-.033-1.432 1.599.157.726.709 3.009 2.32 5.071 3.582 3.874 2.37 5.239 3.998 1.816 2.166-2.52-1.348-3.355-1.311-2.477.109.389.63-.754.292-2.54-.75-3.868-2.256-15.064-13.95-15.013-15.68.02-.668 1.185.136 2.59 1.786l2.554 3-2.323-4.182c-1.294-2.33-2.615-3.71-2.983-3.115-.4.65-1.093.257-1.767-1.002-1.581-2.956-1.368-3.928.361-1.642 1.928 2.548 1.93 1.113.006-2.609-1.674-3.237-2.77-3.97-1.795-1.2.481 1.369.34 1.496-.645.587-1.202-1.11-.68-3.349.775-3.326.38.006 2.465 3.39 4.633 7.519s4.691 8.186 5.607 9.014c1.502 1.36 1.96 1.204 4.692-1.59l3.027-3.097-3.418-5.676c-1.88-3.122-3.904-7.478-4.498-9.679a682.912 682.912 0 0 0-1.435-5.252c-.195-.688-1.283-1.25-2.418-1.25-1.205 0-2.44-.936-2.968-2.25-.712-1.771-.918-1.871-.968-.469-.034.98-.738 2.04-1.563 2.357-.825.317-1.5 1.155-1.5 1.862 0 1.583-2.725 2.754-3.499 1.502-.717-1.16.47-6.002 1.472-6.002.415 0 1.529-2.025 2.474-4.5 1.924-5.037 4.023-5.756 5.75-1.969l1.153 2.532 1.184-3.782c.651-2.08 1.71-5.676 2.353-7.991.643-2.316 2.64-6.141 4.435-8.5 4.608-6.053 4.853-6.564 3.54-7.375-.788-.487-.914-.265-.384.68.433.773-1.17-.5-3.563-2.827-2.939-2.86-4.021-4.562-3.337-5.246.685-.685 2.405.404 5.303 3.357l4.29 4.37 5-3.364c2.75-1.85 7.774-4.214 11.165-5.251 6-1.836 6.172-1.986 6.48-5.62.244-2.866-.162-4.068-1.75-5.18-3.63-2.542-2.26-3.334 5.767-3.334 6.297 0 7.834.294 7.834 1.5 0 .825-.592 1.5-1.316 1.5-.926 0-1.282 1.477-1.202 5 .102 4.544.326 5 2.453 5 3.062 0 12.174 4.062 17.807 7.938 3.093 2.128 4.687 2.716 5.183 1.913.485-.785.263-.893-.687-.334-1.708 1.005 2.058-3.675 3.9-4.848.892-.567.99-1.212.308-2.033-.55-.662-.662-1.747-.251-2.412.515-.834 1.956.03 4.645 2.784 2.145 2.195 3.331 3.992 2.637 3.992s-.984.45-.644 1c.953 1.542-.172 1.185-1.988-.63-1.507-1.508-1.852-1.418-4.571 1.187-1.618 1.55-2.941 3.138-2.941 3.53 0 .391 1.576 3.054 3.502 5.916 1.926 2.863 4.194 7.582 5.038 10.487l1.536 5.282 3.4-.767c5.505-1.241 9.224 3.95 6.489 9.06-1.074 2.008-3.965 2.689-3.965.935 0-.55-.477-1-1.059-1s-.78.45-.441 1c.34.55-.271 1-1.358 1-1.086 0-2.171-.563-2.411-1.25-.24-.688-.777.775-1.195 3.25-.98 5.8-2.759 10.059-6.553 15.68-2.289 3.392-2.783 4.856-1.97 5.835 1.448 1.746-.73 3.172-2.35 1.539-.887-.895-.689-1.005.837-.466 1.506.532 1.732.414.916-.475-.82-.893-2.543-.208-7.053 2.804-3.283 2.192-8.154 4.57-10.825 5.284-3.05.816-5.026 1.95-5.314 3.049-.251.962-1.305 1.75-2.34 1.75-1.415 0-1.884.727-1.884 2.918 0 1.605-.273 3.63-.607 4.5-.721 1.88-4.035 2.115-4.676.332zm2.989-8c-.239-1.238-.434-.225-.434 2.25s.195 3.487.434 2.25c.238-1.238.238-3.263 0-4.5zM86 244.615c0-.212-1.238-1.138-2.75-2.06l-2.75-1.674 2.36 2.06c2.305 2.01 3.14 2.455 3.14 1.674zm27-2.115c0-.157-.675-.545-1.5-.862-.905-.347-1.5-.005-1.5.862s.595 1.209 1.5.862c.825-.317 1.5-.705 1.5-.862zm6.472-.287c.407-1.062.014-1.312-1.457-.927-1.108.29-2.015.092-2.015-.439 0-.53-.45-.687-1-.347-.55.34-1 .066-1-.608 0-.674-.302-.924-.67-.555-.826.826 2.714 4.325 4.377 4.328.664 0 1.458-.653 1.765-1.452zM108 238.592c0-.225-4.612-2.973-10.25-6.106-5.638-3.134-11.825-6.85-13.75-8.258l-3.5-2.56 3 3.25c4.385 4.752 11.4 9.674 17.05 11.965 4.792 1.944 7.45 2.553 7.45 1.709zm22.583-3.023c2.796-1.268 7.971-5.118 11.5-8.555 3.53-3.437 4.798-4.92 2.818-3.295-1.979 1.624-7.604 5.123-12.5 7.773-4.895 2.651-9.801 5.473-10.901 6.272-1.879 1.364-1.818 1.411 1 .781 1.65-.369 5.288-1.708 8.083-2.976zm-20.307-32.66c-.977-.935-7.996-4.876-15.598-8.758l-13.822-7.058.663 16.204c.74 18.069.571 17.662 9.185 22.203 2.086 1.1 7.62 4.12 12.295 6.71l8.501 4.708.276-16.155c.245-14.392.082-16.342-1.5-17.855zm-18.326 15.53c-1.852-2.231-2.306-11.425-.713-14.439 1.614-3.054 5.303-3.46 7.893-.87 2.63 2.63 2.657 12.848.041 15.215-2.302 2.083-5.536 2.125-7.221.094zm6.914-5.311l-.136-2.628-.46 2.5c-.253 1.375-.979 3.175-1.614 4-1.004 1.305-.927 1.322.596.128.965-.757 1.689-2.552 1.614-4zm-6.146-4.864c-.23-1.52-.424-.514-.432 2.236-.007 2.75.18 3.994.418 2.764.237-1.23.243-3.48.014-5zm2.465 4.52c-.717-.718-1.183-.777-1.183-.15 0 1.334 1.183 2.517 1.85 1.85.284-.285-.016-1.05-.667-1.7zm.94-5.459c-1.18-2.027-1.464-1.378-.5 1.136.343.894.835 1.415 1.092 1.157.258-.257-.01-1.29-.593-2.293zM132 228.6l14.5-8.354v-9.873c0-5.43-.376-12.932-.835-16.672l-.835-6.798-3.665 2.198c-6.006 3.603-15.892 8.899-16.612 8.899-.37 0-.396-.445-.06-.989.345-.557-.038-.74-.878-.417-.819.314-1.279 1.12-1.022 1.79.258.67-1.116 1.972-3.063 2.9-1.999.953-3.559 2.45-3.596 3.45-.037.971-.196 8.066-.355 15.766-.327 15.846-.46 16.992-1.579 13.5l-.8-2.5-.1 2.75c-.161 4.442 3.045 3.484 18.9-5.65zm-1.75-7.371c-2.49-.407-2.918-2.156-1-4.088 1.002-1.01.903-1.127-.5-.593-1.416.539-1.746.12-1.73-2.191.034-5.1 2.514-12.836 4.22-13.165 1.83-.352 6.76 6.263 6.76 9.072 0 .99-.656 2.05-1.457 2.358-.982.377-1.282 1.433-.92 3.241.649 3.245-2.023 5.913-5.373 5.366zm2.538-5.366c-.25-.749-.703-.295-1.057 1.057-.435 1.663-.305 2.054.437 1.312.582-.582.86-1.647.62-2.369zm-.193-3.018c.465-.751.272-.88-.552-.371-.738.456-1.631.207-2.14-.596-.69-1.09-.876-1.012-.888.372-.017 1.961 2.48 2.376 3.58.595zm3.212-3.371c-.308-.308-.867.247-1.243 1.233-.542 1.425-.428 1.54.56.56.684-.679.99-1.486.683-1.793zm-2.133-2.464c1.718 1.3 1.728 1.274.172-.433-1.683-1.845-3.858-1.43-3.83.732.01.748.353.656.923-.245.776-1.225 1.176-1.233 2.735-.054zM84 232.5c1.292-1.375 2.124-2.5 1.849-2.5-.275 0-1.557 1.125-2.849 2.5-1.292 1.375-2.124 2.5-1.849 2.5.275 0 1.557-1.125 2.849-2.5zm-4.641-29.532c-.68-14.253-1.528-15.71-2.942-5.057-.605 4.561 2.037 20.969 3.19 19.815.24-.24.128-6.88-.248-14.758zm72.279 3.225c.454-4.347.143-7.482-1.152-11.598-.976-3.102-1.893-5.518-2.039-5.368-.146.15-.013 6.059.294 13.13.58 13.354 1.741 14.89 2.897 3.836zm-37.949.057c-.251-.962-.457-.175-.457 1.75s.206 2.713.457 1.75c.252-.962.252-2.537 0-3.5zm49.105-3.894c-.291-1.375-.543-1.123-.97.97-.372 1.825-.232 2.482.394 1.856.533-.533.793-1.805.576-2.826zM160 202.5c0-1.375-.45-2.5-1-2.5-1.117 0-1.37 3.296-.333 4.333 1.102 1.103 1.333.785 1.333-1.833zm-4.338-1.75c-.277-.688-.504-.125-.504 1.25s.227 1.938.504 1.25c.278-.688.278-1.813 0-2.5zm-85.3.75c-.628-1.634-2.362-2.063-2.362-.583 0 .759.7 1.275 2.719 2.004.12.043-.04-.596-.357-1.421zm47.358-.607c4.374-2.439 4.958-2.895 3.697-2.888-1.108.006-9.222 4.92-8.197 4.964.395.017 2.42-.917 4.5-2.076zm-5.72.689c0-.622-6.594-4.583-7.618-4.577-.485.003.918 1.114 3.118 2.469 4.302 2.65 4.5 2.742 4.5 2.108zM126.632 194c.267 0 .157.532-.244 1.182-.65 1.052 7.94-3.403 16.112-8.356 6.374-3.864.992-1.587-6.597 2.79-4.402 2.54-8.228 4.392-8.502 4.118-.275-.275 2.868-2.348 6.985-4.607 7.29-4.001 9.92-6.127 7.577-6.127-.635 0-2.349-.831-3.809-1.847s-5.342-3.307-8.628-5.09c-6.073-3.295-14.705-8.175-15.419-8.717-.215-.164.196-1.006.915-1.872 1.113-1.341.985-1.66-.858-2.141-1.782-.466-2.161-1.296-2.149-4.7.01-2.641.32-3.652.861-2.8.679 1.072.967 1.018 1.463-.273.339-.885 1.64-2.06 2.889-2.61 1.936-.855 1.773-.925-1.103-.477-1.856.29-4.309.527-5.45.527-1.614 0-1.808.267-.875 1.2 1.453 1.453 1.563 6.714.214 10.262-.909 2.39-.83 2.51 1 1.53 1.506-.805 1.986-.75 1.986.232 0 .712-6.525 4.878-14.5 9.259-7.975 4.38-14.5 8.224-14.5 8.541 0 .318 1.912 1.556 4.25 2.752 2.337 1.196 8.975 4.788 14.75 7.982l10.5 5.808 6.323-3.283c3.477-1.806 6.541-3.283 6.809-3.283zm-15.94-.7c-1.184-.307-1.702-1.217-1.5-2.635.17-1.19-.49-2.84-1.467-3.665-1.443-1.219-1.652-2.391-1.114-6.25.705-5.066 2.074-5.922 4.922-3.074 1.349 1.349 2.042 1.446 3.558.5 3.341-2.087 4.62-1.38 5.31 2.936.704 4.394-.441 6.83-3.273 6.967-1.037.05-1.174.262-.378.583 1.78.718 1.549 4.01-.332 4.731-1.708.656-2.91.636-5.726-.094zm6.074-6.864c2.095-1.726 2.325-2.398 1.404-4.118-.605-1.13-.778-2.411-.385-2.847.393-.435.151-.467-.538-.07-.956.55-.986 1.22-.123 2.83.928 1.734.794 2.356-.747 3.484-1.053.771-2.974 1.13-4.377.816-2.09-.467-2.213-.384-.75.505.963.585 1.786 1.829 1.829 2.764.064 1.375.184 1.413.63.2.304-.825 1.68-2.429 3.057-3.564zm-5.548-5.451c.894-.011.829-.302-.218-.964-1.557-.984-2.852.814-2.866 3.979-.004.825.4.487.897-.75.498-1.238 1.482-2.257 2.187-2.265zM115 184c1.165-.753.872-.973-1.309-.985-1.621-.009-2.548.408-2.191.985.767 1.242 1.579 1.242 3.5 0zm-13 11.945c-2.53-1.729-11.551-6.239-10.702-5.351 1.146 1.2 10.015 6.174 11.202 6.283.55.05.325-.369-.5-.932zm-12-6.425c0-.264-1.8-1.398-4-2.52s-4-1.817-4-1.544c0 .273 1.688 1.387 3.75 2.476 4.243 2.24 4.25 2.242 4.25 1.588zm-9.618-4.072c.341-.89.173-1.291-.393-.94-.544.335-.989 1.033-.989 1.551 0 1.438.717 1.121 1.382-.61zM147 184.33c0-.369-2.587-3.118-5.75-6.109-6.125-5.793-12.547-9.543-18.25-10.657-4.391-.859-3.547-.224 8.918 6.703 5.18 2.879 10.58 6.45 12 7.936 2.813 2.944 3.082 3.13 3.082 2.127zm-49.756-11.354c5.36-2.926 9.564-5.5 9.344-5.72-1.929-1.93-18.346 7.06-23.088 12.642l-3 3.53 3.5-2.565c1.925-1.412 7.885-4.96 13.244-7.887zM83 172.687c0-.172-1.462-1.635-3.25-3.25L76.5 166.5l2.937 3.25c2.738 3.03 3.563 3.71 3.563 2.937zm68.292-2.776c1.696 1.028 1.526.614-.73-1.786-1.614-1.719-3.167-3.125-3.45-3.125-.281 0 .027.539.686 1.198.93.93.584 1.878-1.55 4.246l-2.748 3.049 2.792-2.46c2.481-2.187 3.04-2.312 5-1.122zm-35.63-13.161c-.277-.688-.504-.125-.504 1.25s.227 1.938.504 1.25c.278-.688.278-1.813 0-2.5zm3.088 96.588c.688-.278 1.813-.278 2.5 0 .688.277.125.504-1.25.504s-1.938-.227-1.25-.504zm-18.938-1.021c.722-.289 1.585-.253 1.917.079.332.332-.258.568-1.312.525-1.165-.048-1.402-.285-.605-.604zm20-1c.722-.289 1.585-.253 1.917.079.332.332-.258.568-1.312.525-1.165-.048-1.402-.285-.605-.604zm-20.062-.98c.688-.277 1.813-.277 2.5 0 .688.278.125.505-1.25.505s-1.938-.227-1.25-.504zm-7.769-.997c.567-.281.777-.922.466-1.425-.31-.503-.051-.915.577-.915 1.484 0 .724 2.302-.862 2.612-.666.131-.748.009-.18-.272zm44.405-.155c.344-.558.061-1.225-.63-1.483-.844-.315-.66-.715.561-1.218 2.846-1.174 4.345 1.091 1.67 2.523-1.226.656-1.946.736-1.601.178zm7.073-5.252c-.363-.586-.42-1.306-.126-1.6.717-.716 2.667.546 2.667 1.726 0 1.278-1.726 1.193-2.541-.126zm5.791-4.595c-2.047-.826-1.417-2.194.75-1.628 1.1.288 2 .92 2 1.407 0 .953-.78 1.016-2.75.22zM29 237.117c0-1.036.787-2.121 1.75-2.412.963-.29 6.663-2.593 12.667-5.116C49.422 227.065 55.16 225 56.167 225c2.114 0 2.4 1.328.583 2.696C55.143 228.905 31.212 239 29.953 239c-.524 0-.953-.848-.953-1.883zm6-1.617c1.375-.786 2.05-1.43 1.5-1.43-.55 0-2.125.644-3.5 1.43-1.375.786-2.05 1.43-1.5 1.43.55 0 2.125-.644 3.5-1.43zm6-2.5c.825-.533 1.05-.97.5-.97s-1.675.437-2.5.97c-.825.533-1.05.97-.5.97s1.675-.437 2.5-.97zm10.095-4.136c2.731-1.175 4.797-2.305 4.59-2.512-.206-.207-2.807.729-5.78 2.079-6.654 3.02-5.663 3.381 1.19.433zm137.405 5.694c-4.433-1.84-7.877-3.852-7.725-4.514.176-.763-.43-.971-1.676-.575-2.347.744-9.099-1.885-9.099-3.543 0-1.417 4.669-.644 9.33 1.545 1.743.819 4.97 2.124 7.17 2.9 2.414.851 3.873 1.95 3.679 2.77-.236.995-.02 1.063.803.255 1.402-1.375 8.018 1.358 8.018 3.312 0 1.876-1.576 1.553-10.5-2.15zm7.5.942c-1.375-.786-2.95-1.43-3.5-1.43-.55 0 .125.644 1.5 1.43 1.375.786 2.95 1.43 3.5 1.43.55 0-.125-.644-1.5-1.43zm-9.865-4.04c-1.85-.803-3.65-1.444-4-1.425-1.3.073 4.424 2.894 5.865 2.89.825-.002-.014-.66-1.865-1.464zm-10-4c-1.85-.803-3.65-1.444-4-1.425-1.3.073 4.424 2.894 5.865 2.89.825-.002-.014-.66-1.865-1.464zm-21.656 5.506c-.388-.627-.138-1.664.555-2.303.99-.913 1.117-.757.59.728-.593 1.675-.477 1.732 1.016.5 1.446-1.193 1.618-1.187 1.21.047-.626 1.894-2.486 2.46-3.371 1.028zM5 231.743c0-1.323 4.84-3.15 14-5.287 3.025-.705 9.775-2.494 15-3.975 18.074-5.12 20-5.396 20-2.856 0 1.278-.651 1.495-3.05 1.015-1.815-.363-2.813-.227-2.464.337.321.52-2.019 1.668-5.2 2.55-3.183.883-6.911 1.997-8.286 2.477-5.043 1.757-9.29 2.275-8.527 1.04.53-.859-.304-.989-3.125-.486-5.223.93-6.644 2.48-1.762 1.923 3.639-.415 3.703-.38.914.487C8.983 233.173 5 233.804 5 231.743zm5.5-.743c1.26-.542 1.445-.86.5-.86-.825 0-2.4.387-3.5.86-1.26.542-1.445.86-.5.86.825 0 2.4-.387 3.5-.86zm24.23-6.604c-.333-.332-1.196-.368-1.917-.08-.798.32-.561.557.604.605 1.054.043 1.644-.193 1.312-.525zM40.5 223c1.26-.542 1.445-.86.5-.86-.825 0-2.4.387-3.5.86-1.26.542-1.445.86-.5.86.825 0 2.4-.387 3.5-.86zm12.23-3.604c-.333-.332-1.196-.368-1.917-.08-.798.32-.561.557.604.605 1.054.043 1.644-.193 1.312-.525zm162.77 11.453c-3.679-1.2-11.006-3.162-23.5-6.29-15.073-3.774-17.122-4.348-17.746-4.972-.323-.323.19-.587 1.138-.587.95 0 1.488-.385 1.197-.856-.29-.47.683-.624 2.163-.34 2.425.463 2.496.59.72 1.285-1.085.424-1.446.802-.804.84.643.04 1.954.372 2.914.74 1.19.458 1.516.299 1.023-.5-.977-1.58 1.902-1.436 6.895.347 2.2.786 5.94 1.721 8.31 2.079 3.089.466 4.16 1.04 3.781 2.028-.595 1.55.968 1.9 1.882.42.325-.525 1.28-.691 2.123-.368.842.323 4.984 1.316 9.204 2.207 5.712 1.205 7.759 2.066 8.01 3.368.385 1.999-2.338 2.222-7.31.599zm-2-2.783c-1.1-.443-3.575-1.072-5.5-1.397-3.45-.582-3.444-.57.5.793 4.291 1.485 8.419 1.984 5 .604zm-15-3.978c-3.494-1.373-9.012-2.198-7.969-1.191.993.957 4.414 1.774 7.969 1.903l2 .073zM63 215c0-1.111.667-2 1.5-2s1.5.889 1.5 2-.667 2-1.5 2-1.5-.889-1.5-2zm-40.81-.75c.217-1.126 1.403-1.839 3.324-2 1.642-.137 6.361-.687 10.486-1.222 13.363-1.734 16.655-1.97 14.5-1.035-1.1.476-3.8.93-6 1.007-2.2.077-4.9.524-6 .992-1.268.54.56.718 5 .487 6.531-.34 6.665-.307 2 .488-20.443 3.484-23.769 3.667-23.31 1.283zm8.81-.857c0-.216-.675-.393-1.5-.393s-1.5.436-1.5.969c0 .532.675.71 1.5.393.825-.317 1.5-.753 1.5-.969zM200 215c-1.19-.77-.983-.976 1-1 2.022-.025 2.213-.227 1-1.059-1.186-.813-.98-.967.99-.734 3.331.392 4.083 3.8.833 3.778-1.278-.009-2.998-.452-3.823-.985zm-9-1c-1.272-.822-1.225-.972.309-.985.995-.008 1.53-.465 1.191-1.015-.37-.597.859-1 3.048-1 2.932 0 3.544.317 3.059 1.582-.334.87-.607 1.77-.607 2 0 .826-5.532.367-7-.582zm-27.921-2.583c.048-1.165.285-1.402.604-.604.289.721.253 1.584-.079 1.916-.332.332-.568-.258-.525-1.312zm14.671.867c-1.527-.232-2.75-1.054-2.75-1.85 0-.915.996-1.409 2.75-1.364 2.405.062 2.499.172.75.88-1.706.692-1.485.9 1.5 1.416 1.925.333 4.85.77 6.5.97 1.725.21 1.088.364-1.5.364-2.475 0-5.737-.187-7.25-.416zm5.514-2.002c1.52-.23 3.77-.223 5 .014 1.23.237-.014.425-2.764.418-2.75-.008-3.756-.202-2.236-.432zM5 203c0-1.442.628-1.968 2.25-1.884 1.693.087 1.817.23.5.573-2.649.693-2.096 2.126 1 2.595 2.56.387 2.525.427-.5.566-2.633.122-3.25-.23-3.25-1.85zm239.272-2c0-2.475.195-3.487.434-2.25.238 1.238.238 3.263 0 4.5-.239 1.238-.434.225-.434-2.25zm-193.708 1.293c-.542-1.425-.428-1.54.56-.56.684.679.99 1.486.683 1.793-.308.308-.867-.247-1.243-1.233zm128.186-.955c.688-.278 1.813-.278 2.5 0 .688.277.125.504-1.25.504s-1.938-.227-1.25-.504zm9.063-.021c.721-.289 1.584-.253 1.916.079.332.332-.258.568-1.312.525-1.165-.048-1.402-.285-.604-.604zm3.937.02c.688-.277 1.813-.277 2.5 0 .688.278.125.505-1.25.505s-1.938-.227-1.25-.504zm22.063-.02c.721-.289 1.584-.253 1.916.079.332.332-.258.568-1.312.525-1.165-.048-1.402-.285-.604-.604zm10 0c.721-.289 1.584-.253 1.916.079.332.332-.258.568-1.312.525-1.165-.048-1.402-.285-.604-.604zm-58.618-5.817c.02-1.65.244-2.204.498-1.231.254.973.237 2.323-.037 3-.274.677-.481-.119-.461-1.769zM49 196.094l2.5-.707-2.5-.68c-1.375-.374-3.175-.679-4-.678-1.333.001-1.333.11 0 .971 1.086.702.206.974-3.191.985-5.453.017-6.753-1.142-3.333-2.972 1.971-1.055 3.505-1.045 8.466.056 6.588 1.461 8.452 4.004 2.808 3.831-3.009-.092-3.065-.152-.75-.806zm12.604-.684c-.76-1.978.062-3.41 1.955-3.41.87 0 1.441.99 1.441 2.5 0 2.796-2.423 3.446-3.396.91zm101.554-.41c0-1.375.227-1.938.504-1.25.278.688.278 1.813 0 2.5-.277.688-.504.125-.504-1.25zm14.342 0l4-.716-3.5-.205c-3.255-.191-3.335-.272-1.142-1.15 2.733-1.095 8.236-.89 7.514.278-.27.436.324.8 1.319.808 1.534.013 1.58.163.309.985-.825.533-3.975.912-7 .843-5.401-.125-5.428-.14-1.5-.843zM29 194l-3.5-.737 4-.231c3.548-.205 3.717-.322 1.5-1.032-2.438-.78-2.425-.801.5-.83 1.65-.016 3.9.357 5 .83 1.89.812 1.872.863-.309.93-1.272.038-2.031.52-1.691 1.07.68 1.1-.272 1.1-5.5 0zm159.729-.065c-2.554-1.526-1.167-2.935 2.889-2.935 2.246 0 3.262.386 2.834 1.077-.462.749.818.862 4.191.372 6.079-.883 7.287-1.807 1.691-1.294-2.291.21-3.952.036-3.69-.387.876-1.419 9.356-.885 9.356.59 0 .912-1.886 1.565-5.75 1.992-3.163.35-6.65.862-7.75 1.14-1.1.276-2.797.027-3.771-.555zM22 191.5c0-1.613 4.482-2.146 5.41-.644.292.47-.694.66-2.19.421-2.13-.34-2.395-.203-1.22.63 1.295.917 1.26 1.064-.25 1.078-.962.008-1.75-.66-1.75-1.485zm140.177-1.056c.357-1.71 2.09-2.14 2.59-.642.175.523-.41 1.23-1.297 1.571-1.114.428-1.515.14-1.293-.93zM63.09 188.94c-.05-1.407.513-3.383 1.25-4.39 1.163-1.592 1.416-1.628 1.935-.276.329.856.176 2.831-.34 4.39-.927 2.803-.932 2.799-.461-.415.262-1.788.275-3.25.03-3.25-.246 0-.87 1.462-1.385 3.25-.852 2.95-.947 3.014-1.029.691zm181.196-2.441c.008-2.75.202-3.756.432-2.236.23 1.52.223 3.77-.014 5-.237 1.23-.425-.014-.418-2.764zm-199.786.933a564.41 564.41 0 0 0-11.5-2.916c-3.575-.864-7.4-1.985-8.5-2.492-1.1-.506-4.677-1.445-7.95-2.085-3.272-.64-6.984-1.636-8.25-2.213C5.984 176.671 5.093 174 7.058 174c1.676 0 10.243 2.081 12.443 3.023 1.1.47 4.925 1.53 8.5 2.353 18.468 4.252 26 6.652 26 8.284 0 1.633-2.843 1.565-9.5-.227zm7-.433c-1.1-.473-2.675-.86-3.5-.86-.945 0-.76.318.5.86 1.1.473 2.675.86 3.5.86.945 0 .76-.318-.5-.86zm-11-2.934c-3.117-1.257-9.08-2.383-8.3-1.567.751.788 6.342 2.271 8.8 2.335.88.023.674-.294-.5-.768zm-9.77-2.67c-.333-.332-1.196-.368-1.917-.08-.798.32-.561.557.604.605 1.054.043 1.644-.193 1.312-.525zm-5.23-1.31c-3.884-1.53-8.04-2.268-7-1.241.952.938 4.248 1.798 7.5 1.955.827.04.603-.28-.5-.715zM10.5 176c-2.75-1.181-4.328-1.181-2.5 0 .825.533 2.175.945 3 .914.99-.036.819-.347-.5-.914zM173 187.193c0-1.699 1.315-2.348 8.25-4.071 4.537-1.128 12.192-3.12 17.01-4.426 7.21-1.954 8.957-2.14 9.864-1.047.82.988.752 1.431-.261 1.733-.75.224-4.288 1.327-7.863 2.453-3.575 1.125-8.3 2.357-10.5 2.736-2.2.38-4.45 1.022-5 1.429-.55.407-2.72 1.05-4.821 1.428-2.102.38-4.464.936-5.25 1.238-.948.363-1.429-.132-1.429-1.473zm3.73-.797c-.333-.332-1.196-.368-1.917-.08-.798.32-.561.557.604.605 1.054.043 1.644-.193 1.312-.525zm15.27-4.117c.86-.882-6.45.885-7.415 1.791-.503.473.847.379 3-.21 2.153-.588 4.14-1.3 4.415-1.581zm11-2.727c2.475-.78 3.6-1.414 2.5-1.409-2.086.01-9.75 2.66-8 2.766.55.033 3.025-.577 5.5-1.357zm-42.326 7.714c-.255-.421.164-1.346.931-2.055 1.146-1.06 1.395-1.025 1.395.19 0 1.7-1.633 3.009-2.326 1.865zm-94.254-4.564c-.782-.842-.536-2.086.893-4.509 1.086-1.84 2.263-2.88 2.615-2.31.378.612 1.18.174 1.955-1.068 1.149-1.84 1.11-2.026-.307-1.482-1.31.502-1.436.273-.654-1.188.533-.995 1.742-2.447 2.687-3.227 1.575-1.3 1.62-1.232.532.81-1.004 1.883-.951 2.136.342 1.64.943-.362.281 1.315-1.727 4.377a789.96 789.96 0 0 0-4.256 6.542c-.753 1.188-1.267 1.29-2.08.415zm3.516-5.202c0-.55-.66-.126-1.468.941-.807 1.068-1.468 2.391-1.468 2.941 0 .55.66.127 1.468-.94.808-1.068 1.468-2.392 1.468-2.942zM41 176.173c-14.252-5.824-14.8-6.146-12.567-7.395 2.19-1.226 27.567 8.744 27.567 10.83 0 2.206-2.718 1.584-15-3.435zM54 179c-.825-.533-1.95-.97-2.5-.97s-.325.437.5.97c.825.533 1.95.97 2.5.97s.325-.437-.5-.97zm-5-2c-.825-.533-1.95-.97-2.5-.97s-.325.437.5.97c.825.533 1.95.97 2.5.97s.325-.437-.5-.97zm-10-4c-.825-.533-1.95-.97-2.5-.97s-.325.437.5.97c.825.533 1.95.97 2.5.97s.325-.437-.5-.97zm-7-3c-.825-.533-1.95-.97-2.5-.97s-.325.437.5.97c.825.533 1.95.97 2.5.97s.325-.437-.5-.97zm138.19 9.25c.225-1.17 3.808-3.167 10.823-6.03a2939.317 2939.317 0 0 0 12.802-5.25c3.425-1.435 5.376-1.19 5.008.629-.203 1.005-5.256 3.605-13.603 7-7.304 2.97-13.75 5.401-14.323 5.401-.574 0-.892-.787-.707-1.75zm5.727-1.885c1.372-1.201-1.883-.086-3.476 1.19-1.83 1.467-1.798 1.487.559.365 1.375-.655 2.688-1.355 2.917-1.555zM188 173c.825-.533 1.05-.97.5-.97s-1.675.437-2.5.97c-.825.533-1.05.97-.5.97s1.675-.437 2.5-.97zm5-2c.825-.533 1.05-.97.5-.97s-1.675.437-2.5.97c-.825.533-1.05.97-.5.97s1.675-.437 2.5-.97zm-37.334 6.614c-2.283-3.486-2.04-4.644.367-1.753 2.377 2.852 2.588 2.016.352-1.396-.888-1.356-1.349-2.465-1.023-2.465 1.543 0 3.746 4.984 2.884 6.525-.796 1.423-1.127 1.306-2.58-.911zm54.344-.102c-1.377-1.66-1.4-1.645 5.49-3.452 5.37-1.408 6.5-1.332 6.5.44 0 .825-.477 1.5-1.059 1.5s-.78-.45-.441-1c.34-.55-.07-1-.91-1-.947 0-1.308.57-.952 1.5.415 1.081-.082 1.48-1.781 1.43-2.21-.066-2.232-.124-.357-.93l2-.86h-2c-1.1 0-2.9.387-4 .86-1.785.767-1.806.867-.191.93.995.038 1.53.52 1.191 1.07-.87 1.409-2.053 1.243-3.49-.488zM244.479 88.5c0-48.4.121-68.346.27-44.325.15 24.02.15 63.62 0 88-.148 24.379-.27 4.725-.27-43.675zM58.208 172.25c-.706-.963-1.014-1.188-.686-.5.328.688.096 1.25-.516 1.25-1.215 0-14.744-7.674-36.427-20.662C12.923 147.752 6.285 144 5.83 144c-.456 0-.829-.9-.829-2s.393-2 .874-2c.734 0 17.053 9.222 26.304 14.866C40.732 160.084 58.392 170 59.131 170c.478 0 .869.9.869 2 0 2.444-.168 2.467-1.792.25zM56 170.526c0-.261-1.35-1.173-3-2.026-3.76-1.945-3.988-1.1-.25.928 3.143 1.705 3.25 1.741 3.25 1.098zm-7.55-4.393c-1.612-1.472-33.023-19.36-31.8-18.109 1.12 1.145 31.403 18.917 32.3 18.956.247.011.022-.37-.5-.847zM15 146.585c0-.227-2.138-1.603-4.75-3.056-2.612-1.452-4.075-1.966-3.25-1.142.825.825 2.85 2.197 4.5 3.05 3.267 1.689 3.5 1.765 3.5 1.148zm151.177 24.775c.178-.902 5.048-4.323 10.823-7.603 13.54-7.691 15.761-8.966 32.442-18.63 7.668-4.442 14.19-7.83 14.492-7.527.302.303-.216.978-1.15 1.501-.936.524-1.502 1.502-1.258 2.175.262.724-3.534 3.43-9.292 6.623-9.926 5.506-22.968 13.028-36.02 20.776-7.764 4.61-10.564 5.359-10.037 2.685zM173 168.45c0-.275-1.35.198-3 1.051s-3 1.776-3 2.051c0 .275 1.35-.198 3-1.051s3-1.776 3-2.051zm13.5-7.761c.55-.557-1.7.46-5 2.26-3.3 1.8-6.45 3.74-7 4.312-.55.572 1.7-.445 5-2.26 3.3-1.815 6.45-3.756 7-4.312zm5.5-3.258c0-.275-.9-.019-2 .57s-2 1.295-2 1.57c0 .275.9.019 2-.57s2-1.295 2-1.57zm6.934-3.58c2.786-1.732 5.066-3.35 5.066-3.594 0-.508-9.002 4.555-10.45 5.877-1.975 1.803.5.753 5.384-2.282zM209 147.91c1.66-1.358 1.828-1.697.5-1.01-3.262 1.685-5.07 3.07-4 3.062.55-.004 2.125-.927 3.5-2.051zm7-4c1.66-1.358 1.828-1.697.5-1.01-3.262 1.685-5.07 3.07-4 3.062.55-.004 2.125-.927 3.5-2.051zM54 159.882c-4.125-3.288-8.994-7.125-10.819-8.527-1.825-1.402-3.075-2.793-2.777-3.091.298-.298 2.129.669 4.069 2.148 1.94 1.48 3.527 2.446 3.527 2.146 0-.3-1.868-1.897-4.15-3.55-2.283-1.654-3.52-3.005-2.75-3.004 1.556.004 24.196 17.384 24.73 18.985.944 2.835-5.188.188-11.83-5.107zm9.45 4.298C59.72 160.957 49 152.93 49 153.357 49 154.009 62.973 165 63.802 165c.329 0 .17-.37-.352-.82zm17.133.178c-.346-.904-.507-1.706-.357-1.783.15-.077 1.174-.8 2.274-1.607 1.894-1.39 1.92-1.364.5.47-1.382 1.785-1.347 1.88.444 1.207 1.896-.712 1.898-.68.095 1.313-2.225 2.46-2.168 2.451-2.956.4zm92.507-6.97c6.232-4.736 12.024-8.828 12.87-9.092 1.916-.599-.15 1.162-12.267 10.455-5.199 3.987-10.011 7.25-10.694 7.25-.682 0 3.858-3.876 10.09-8.612zm-11.027 5.863c.076-.895 20.9-16.404 22.938-17.084 1.882-.627-3.625 4.06-13.692 11.655-8.146 6.145-9.367 6.862-9.246 5.429zm-75.605-2.182c.363-.587.093-1.068-.599-1.068-2.803 0 1.179-2.345 4.36-2.568 1.805-.126 4.406-.505 5.781-.842 1.375-.337 1.825-.32 1 .039-.825.358-3.683 1.744-6.351 3.079-2.668 1.335-4.554 1.947-4.191 1.36zM89.5 159c.34-.55.168-1-.382-1s-1.278.45-1.618 1c-.34.55-.168 1 .382 1s1.278-.45 1.618-1zm-39.004-15.966C33.406 125.972 30.136 122 33.186 122 34.87 122 71 158.08 71 159.76c0 3.074-3.668.082-20.504-16.726zM70 159.74c0-.144-8.196-8.356-18.214-18.25-10.017-9.895-17.877-17.54-17.466-16.99.998 1.337 35.083 35.5 35.418 35.5a.262.262 0 0 0 .262-.26zm66.441-.295c-1.864-1.494-1.852-1.512.309-.465 1.238.6 2.25 1.3 2.25 1.555 0 .765-.519.544-2.559-1.09zm19.987-.56c-.404-.655 6.602-8.408 16.918-18.724 14.032-14.032 17.86-17.355 18.85-16.365.99.99-2.302 4.793-16.216 18.724-9.602 9.614-17.774 17.48-18.16 17.48-.386 0-1.012-.502-1.392-1.116zM175.5 141c9.338-9.35 16.753-17 16.478-17-.275 0-8.14 7.65-17.478 17-9.338 9.35-16.753 17-16.478 17 .275 0 8.14-7.65 17.478-17zm-45 16.011c-1.621-.688-1.403-.816 1.153-.68 1.733.093 2.944.507 2.69.919-.559.908-1.237.866-3.843-.239zm-29.934-2.118c.473-.766-.356-.924-2.69-.512-3.285.58-3.3.566-.593-.487 3.035-1.18 6.216-.51 5.221 1.099-.342.554-1.072 1.007-1.622 1.007s-.692-.498-.316-1.107zm24.1.44c-1.221-1.222-.687-2.334 1.084-2.254 1.056.048 1.252.28.494.585-.691.279-1.002.918-.691 1.421.656 1.063.087 1.222-.886.248zM65.08 142.997C56.902 132.319 55.208 129 57.938 129c.746 0 11.384 12.922 17.004 20.655 2.093 2.88 2.156 5.345.136 5.345-.443 0-4.942-5.401-9.998-12.003zm8.92 7.625c0-.207-.787-.995-1.75-1.75-1.586-1.243-1.621-1.208-.378.378 1.307 1.666 2.128 2.195 2.128 1.372zM66.419 141c-2.593-3.3-4.928-6-5.189-6-.538 0-.095.616 5.212 7.25 2.09 2.612 4 4.75 4.245 4.75.245 0-1.676-2.7-4.268-6zM61 133.622c0-.207-.787-.995-1.75-1.75-1.586-1.243-1.621-1.208-.378.378 1.307 1.666 2.128 2.195 2.128 1.372zm68.813 20.695c.721-.289 1.584-.253 1.916.079.332.332-.258.568-1.312.525-1.165-.048-1.402-.285-.604-.604zm19.918-.576c-.542-1.413 17.083-24.1 19.026-24.491 2.834-.57.767 3.336-7.507 14.18-8.494 11.132-10.511 12.938-11.52 10.31zm7.13-7.196c4.708-6.557 3.17-5.6-1.936 1.205-2.373 3.163-3.643 5.208-2.822 4.545.821-.662 2.962-3.25 4.757-5.75zm8.719-11.295c2.101-2.612 2.782-3.85 1.512-2.75-2.384 2.066-6.572 7.5-5.78 7.5.246 0 2.166-2.138 4.268-4.75zM77.63 146.744a3144.4 3144.4 0 0 1-8.083-14.244c-3.418-6.05-11.24-19.694-17.381-30.32C46.025 91.552 41 82.215 41 81.43c0-3.946 3.45-.384 8.545 8.82 9.039 16.33 10.014 18.069 12.039 21.451C71.659 128.534 82 147.128 82 148.413c0 2.671-2.395 1.756-4.369-1.67zM80 146c-.589-1.1-1.295-2-1.57-2-.275 0-.019.9.57 2s1.295 2 1.57 2c.275 0 .019-.9-.57-2zm-3-5c-.589-1.1-1.295-2-1.57-2-.275 0-.019.9.57 2s1.295 2 1.57 2c.275 0 .019-.9-.57-2zm-6.076-10.75c-3.948-7.26-7.673-12.751-4.916-7.25 2.957 5.902 8.203 15 8.648 15 .266 0-1.413-3.487-3.732-7.75zM62 115c-.589-1.1-1.295-2-1.57-2-.275 0-.019.9.57 2s1.295 2 1.57 2c.275 0 .019-.9-.57-2zm-3.5-6c-.853-1.65-1.776-3-2.051-3-.275 0 .198 1.35 1.051 3s1.776 3 2.051 3c.275 0-.198-1.35-1.051-3zm-6.122-10.75c-1.49-2.612-3.134-5.2-3.657-5.75-1.105-1.164 1.889 4.946 4.042 8.25 2.644 4.055 2.382 2.356-.385-2.5zM46.5 88c-.853-1.65-1.776-3-2.051-3-.275 0 .198 1.35 1.051 3s1.776 3 2.051 3c.275 0-.198-1.35-1.051-3zm96.5 60.413c0-1.532 16.553-31.448 32.678-59.06C180.681 80.787 184 77.23 184 80.434c0 .755-3.973 8.278-8.83 16.72-4.856 8.44-11.096 19.621-13.867 24.846-7.316 13.795-15.61 27.3-17.053 27.764-.688.221-1.25-.387-1.25-1.351zm3-2.413c.589-1.1.845-2 .57-2s-.981.9-1.57 2c-.589 1.1-.845 2-.57 2s.981-.9 1.57-2zm4-7c.589-1.1.845-2 .57-2s-.981.9-1.57 2c-.589 1.1-.845 2-.57 2s.981-.9 1.57-2zm4.5-8c.853-1.65 1.326-3 1.051-3-.275 0-1.198 1.35-2.051 3-.853 1.65-1.326 3-1.051 3 .275 0 1.198-1.35 2.051-3zm4-7c.853-1.65 1.326-3 1.051-3-.275 0-1.198 1.35-2.051 3-.853 1.65-1.326 3-1.051 3 .275 0 1.198-1.35 2.051-3zm3.5-6c.589-1.1.845-2 .57-2s-.981.9-1.57 2c-.589 1.1-.845 2-.57 2s.981-.9 1.57-2zm5.059-9.25c1.09-2.063 1.786-3.75 1.547-3.75-.524 0-5.612 8.989-5.59 9.876.02.86 1.68-1.654 4.043-6.126zM171.5 101c.853-1.65 1.326-3 1.051-3-.275 0-1.198 1.35-2.051 3-.853 1.65-1.326 3-1.051 3 .275 0 1.198-1.35 2.051-3zm4.5-8c.589-1.1.845-2 .57-2s-.981.9-1.57 2c-.589 1.1-.845 2-.57 2s.981-.9 1.57-2zm4.926-8.5c1.235-2.2 1.498-3.1.584-2-1.857 2.234-5.282 8.57-3.784 7 .525-.55 1.965-2.8 3.2-5zm-96.064 57.75c-3.208-7.522-4.98-11.541-6.39-14.491-.756-1.583-.921-2.981-.39-3.31.504-.311.911-1.103.903-1.758-.01-.779-.32-.711-.893.194-.703 1.111-1.096.976-1.985-.684-1.516-2.834-1.39-5.201.28-5.201 1.45 0 2.671 2.238 7.094 13 1.469 3.575 3.537 8.33 4.595 10.566 2.33 4.925 2.417 6.434.368 6.434-.906 0-2.403-1.986-3.582-4.75zm3.483 2.207c-.326-.849-.807-1.329-1.069-1.067-.262.262-.18.957.183 1.543.986 1.596 1.562 1.286.886-.476zm-3.727-8.119c-.846-1.56-1.556-2.522-1.578-2.135-.068 1.189 2.259 5.832 2.7 5.39.23-.23-.276-1.693-1.122-3.255zm-7.273-16.881c-.326-.849-.807-1.329-1.069-1.067-.262.262-.18.957.183 1.543.986 1.596 1.562 1.286.886-.476zM135 144.723c0-1.253.61-3.166 1.356-4.25.745-1.085 2.155-4.448 3.132-7.473.977-3.025 2.09-5.95 2.472-6.5.383-.55 1.476-3.113 2.43-5.695 1.215-3.29 2.164-4.53 3.172-4.143 2.403.922 2.334 1.164-5.159 17.99-.772 1.732-1.418 3.532-1.437 4-.076 1.89-3.557 7.865-4.72 8.098-.703.141-1.246-.742-1.246-2.027zm6.646-12.41c-.432-.433-3.69 7.273-3.575 8.457.038.402.948-1.248 2.02-3.666 1.073-2.417 1.773-4.574 1.555-4.791zm4.323-9.813c0-.55-.436-.325-.969.5-.533.825-.97 1.95-.97 2.5s.437.325.97-.5c.533-.825.97-1.95.97-2.5zm-51.523 18.065c-.676-3.603.208-6.33 1.59-4.902.444.46 1.118 2.524 1.497 4.587.557 3.03.389 3.75-.876 3.75-.993 0-1.802-1.258-2.21-3.435zM128 141.5c0-2.693.934-3.166 2.722-1.378 1.395 1.395.544 3.878-1.329 3.878-.82 0-1.393-1.03-1.393-2.5zm-25-.21c0-.907-.542-3.147-1.204-4.979-1.028-2.842-.958-3.577.476-5.011 2.165-2.166 2.345-1.891 3.159 4.822.556 4.59.396 5.73-.875 6.218-1.02.392-1.556.03-1.556-1.05zm2-3.731c0-.243-.45-.72-1-1.059-.55-.34-1-.141-1 .441s.45 1.059 1 1.059 1-.198 1-.441zM111 101c0-35.778.191-41 1.5-41s1.5 5.222 1.5 41-.191 41-1.5 41-1.5-5.222-1.5-41zm1.749-20.25c-.161-11.137-.293-2.025-.293 20.25s.132 31.387.293 20.25c.16-11.137.16-29.363 0-40.5zm6.85 55c.754-8.269 1.2-9.682 2.44-7.722.78 1.235.933 1.19.946-.278.008-.963-.435-1.75-.985-1.75-1.278 0-1.278-6.023 0-8 .75-1.161.995-.822 1.084 1.5.115 2.978.122 2.981.993.5.956-2.723.244 13.057-.74 16.382-.45 1.525-.736 1.62-1.507.5-.642-.933-.743-.326-.311 1.868.503 2.554.305 3.25-.924 3.25-1.313 0-1.473-1.005-.995-6.25zM223 140c1.958-1.266 3.282-1.266 2.5 0-.34.55-1.379.993-2.309.985-1.457-.014-1.484-.15-.191-.985zm-92.837-1.656c-.748-.81-1.034-2.195-.649-3.145.68-1.68 2.8-9.639 6.443-24.199 3.478-13.902 3.885-15.242 4.949-16.306 2.195-2.195 2.243.467.172 9.496-4.505 19.634-5.1 21.98-5.977 23.62-.497.93-1.225 3.833-1.618 6.452-.81 5.398-1.415 6.143-3.32 4.082zm2.751-7.344c-.036-.99-.347-.819-.914.5-1.181 2.75-1.181 4.328 0 2.5.533-.825.945-2.175.914-3zm5-18.5c.03-.55-.38-.325-.914.5-.533.825-.945 2.175-.914 3 .058 1.584 1.724-1.606 1.828-3.5zm3-12.5c-.036-.99-.347-.819-.914.5-1.181 2.75-1.181 4.328 0 2.5.533-.825.945-2.175.914-3zm-48.3 34.928c-.254-.786-1.424-4.803-2.601-8.928-1.178-4.125-2.788-9.612-3.58-12.194C84.994 109.101 82 95.69 82 93.935c0-.514.655-.935 1.455-.935.894 0 1.715 1.445 2.13 3.75.372 2.063 1 4.2 1.396 4.75.396.55 1.304 3.925 2.018 7.5.714 3.575 1.683 7.26 2.153 8.19.509 1.007.449 1.939-.15 2.308-1.577.975-1.17 2.503.498 1.864 1.066-.41 1.513.106 1.544 1.781.024 1.296.684 4.156 1.467 6.354 1.233 3.462 1.232 4.189-.007 5.428-1.239 1.238-1.492 1.239-1.89.003zm.47-6.033c-.526-1.317-.986-1.87-1.02-1.227-.085 1.56 1.08 4.522 1.581 4.02.219-.219-.033-1.475-.56-2.793zm-4-14c-.526-1.317-.986-1.87-1.02-1.227-.085 1.56 1.08 4.522 1.581 4.02.219-.219-.033-1.475-.56-2.793zm-1.4-5.083c-.32-.797-.557-.56-.605.605-.043 1.054.193 1.644.525 1.312.332-.332.368-1.195.08-1.917zm13.035 19.543c-.355-.576-.953-4.716-1.327-9.2-.582-6.986-.458-8.155.868-8.155 1.103 0 1.703 1.364 2.09 4.75.299 2.612.849 6.499 1.222 8.636.453 2.592.332 3.673-.361 3.244-.572-.353-1.221-.1-1.443.565-.266.799-.62.853-1.049.16zm.27-11.855c-.645-4.467-.736-4.61-.855-1.332-.119 3.254.725 7.41 1.344 6.625.128-.161-.093-2.543-.49-5.293zm23.911-3.25l-.1-2.75-.8 2.5-.8 2.5-.1-2.75c-.066-1.822.406-2.75 1.4-2.75 1 0 1.5 1 1.5 3 0 3.761-.964 3.98-1.1.25z"/></svg>