<svg xmlns="http://www.w3.org/2000/svg" width="247" height="421" viewBox="0 0 247 421"><path d="M62.327 419.25c34.006-.146 89.356-.146 123 0 33.645.146 5.823.266-61.827.266s-95.178-.12-61.173-.266zm-32.752-10.023c-10.879-.156-19.444-.703-20.145-1.285-.672-.557-1.485-2.46-1.808-4.228-.943-5.16-.876-393.86.068-394.804.471-.471 51.654-.893 113.74-.939 91.866-.067 113.037.16 113.711 1.223.456.718.835 90.758.844 200.087.012 158.131-.24 198.873-1.235 199.23-1.437.514-176.715 1.126-205.175.716zm-17.786-3.626c-.709-.77-1.447-1.25-1.64-1.067-.592.564.911 2.466 1.95 2.466.539 0 .4-.63-.31-1.4zm31.52.149c-.445-.688-1.068-6.425-1.384-12.75l-.575-11.5-.175 12.167c-.124 8.66-.535 12.312-1.425 12.67-.688.278.014.54 1.559.584 2.023.057 2.583-.27 2-1.171zm166.456.682c-.686-.686-33.924-.606-34.614.083-.266.267 7.54.485 17.349.485 9.808 0 17.578-.256 17.265-.568zm6.985-.121c-.963-.252-2.538-.252-3.5 0-.963.251-.175.457 1.75.457s2.712-.206 1.75-.457zm10-.027c-1.512-.23-3.987-.23-5.5 0-1.512.229-.275.416 2.75.416s4.263-.187 2.75-.416zm6.774-28.867l.024-28.917-.29 28.45c-.215 21.148-.607 28.676-1.524 29.327-.9.638-.828.765.266.466 1.289-.351 1.503-4.484 1.524-29.326zM39 390.108c0-13.833-.01-13.894-2.402-14.494-1.322-.332-3.764-.33-5.428.002l-3.025.605 2.62 2.253c2.179 1.874 2.62 3.098 2.62 7.272 0 7.107-2.368 10.465-7.094 10.06-3.994-.34-6.509-2.989-4.626-4.871.806-.806 1.682-.82 3.123-.049 1.518.813 2.283.733 3.164-.328.946-1.14.78-1.3-.893-.863-1.13.295-3.181-.2-4.557-1.102-4.428-2.901-2.962-9.876 2.498-11.884.825-.303-.303-.587-2.507-.63-2.203-.043-5.466-.498-7.25-1.01L12 374.14v13.349c0 7.342.273 14.06.607 14.93.51 1.33 2.666 1.582 13.5 1.582H39zm160-.624v-14.517l-77.25.267-77.25.266-.307 10c-.17 5.5-.03 11.912.31 14.25l.62 4.25H199zm-145.554 4.429c-.37-.598-.17-1.588.441-2.2C54.5 391.1 55 388.67 55 386.312c0-3.77-.255-4.26-2.109-4.05-1.947.22-4.916-2.573-3.856-3.628.555-.552 7.747-.845 17.715-.723 6.554.08 7.25.281 7.25 2.089 0 2.901 3.765 2.676 4.18-.25.23-1.611 1.101-2.34 3.07-2.566l2.75-.317v7.15c0 5.28.327 7.039 1.25 6.725 1.188-.402 1.52-6.405.621-11.242-.314-1.695.24-2.042 3.629-2.278 2.96-.206 3.61-.015 2.5.734-1.222.826-1.072 1.016.809 1.029 1.397.009 2.046-.41 1.644-1.062-.431-.697.342-.961 2.19-.75 4.711.54 3.688 3.362-1.143 3.157-2.2-.094-3.438.056-2.75.333 1.586.64 1.644 6.039.07 6.564-.657.219-.893 1.14-.534 2.077.538 1.4 1.062 1.495 3.117.558 3.345-1.524 5.818-.436 5.417 2.384-.294 2.07-.913 2.278-7.57 2.548-6.327.256-7.25.073-7.25-1.441 0-1.62-.086-1.617-1.306.05-.803 1.099-2.248 1.654-3.75 1.442-2.16-.305-2.41-.78-2.15-4.095.27-3.457.087-3.75-2.339-3.75-2.515 0-2.601.176-1.955 4l.676 4h-8.06l.587-7c.578-6.89-.012-8.29-2.46-5.842-.877.876-1.532.847-2.7-.123-1.356-1.124-1.543-.668-1.543 3.76 0 2.982.481 5.199 1.18 5.432.659.22.893 1.14.531 2.083-.746 1.945-8.138 2.426-9.265.603zm5.719-7.41C58.98 382.925 58.456 380 58 380c-.456 0-.98 2.926-1.165 6.502-.271 5.262-.049 6.502 1.165 6.502s1.436-1.24 1.165-6.502zm12.755 3.786c-.567-1.491-.824-3.629-.57-4.75.253-1.121.084-2.939-.375-4.039-.568-1.361-.857.157-.905 4.75-.055 5.315.244 6.75 1.405 6.75 1.191 0 1.277-.522.445-2.711zm23.349 2.055c-.677-.274-2.027-.29-3-.037-.973.253-.419.478 1.231.498 1.65.02 2.446-.187 1.769-.461zm-5.58-11.094c-.251-.963-.457-.175-.457 1.75s.206 2.712.457 1.75c.252-.963.252-2.538 0-3.5zm-26.439-1.912c-.688-.278-1.813-.278-2.5 0-.688.277-.125.504 1.25.504s1.938-.227 1.25-.504zm5.48.058c-.333-.332-1.196-.368-1.917-.08-.798.32-.561.557.604.605 1.054.043 1.644-.193 1.312-.525zm40.018 15.018c-.322-.322-.332-3.042-.022-6.045.37-3.592.114-6.3-.75-7.913-1.62-3.03-1.386-3.272 3.531-3.651 3.208-.248 4.02.048 4.32 1.575.203 1.034-.237 2.291-.979 2.794-.954.646-.617.827 1.152.62 1.744-.205 2.494-.899 2.48-2.294-.03-2.8 1.316-3.082 16.114-3.393 11.098-.233 13.348-.023 14.75 1.38 1.47 1.47 1.656 1.48 1.656.084 0-2.64 5.414-1.978 7.597.929 2.331 3.104 3.127 3.12 5.491.115 1.809-2.3 2.378-2.389 15.894-2.499l14.018-.113v2.391c0 2.755-2.177 3.993-4.005 2.278-.995-.933-1.132.317-.676 6.135l.574 7.307-3.696-.307-3.697-.307.344-6.281c.189-3.455-.036-6.214-.5-6.132-2.195.39-3.347-.238-3.374-1.837-.029-1.616-.112-1.61-1.097.085-.598 1.027-.798 3.665-.455 6 1.279 8.694 1.242 8.96-1.257 9.159-1.287.102-2.974-.45-3.75-1.226-1.215-1.214-1.411-1.183-1.411.227 0 1.197-.74 1.553-2.75 1.321-2.285-.263-2.803-.86-3.061-3.536-.282-2.913-.497-3.105-2.25-2.01-1.524.952-2.368.943-3.944-.041-1.866-1.166-1.988-1.026-1.75 2.01.225 2.88-.037 3.261-2.245 3.261-2.45 0-2.493-.133-2.155-6.632.19-3.648-.073-6.89-.583-7.206-1.044-.645-1.254.48-1.553 8.338-.24 6.327-2.52 7.667-3.911 2.3-1.196-4.617-2.798-5.09-2.798-.828 0 2.338-.547 3.8-1.567 4.192-2.288.878-3.318-.648-3.486-5.166-.285-7.66-.802-8.998-3.472-8.998-1.361 0-2.475.338-2.475.75s.45.75 1 .75 1 .873 1 1.941-.45 2.22-1 2.559c-.55.34-1 1.275-1 2.078 0 1.07.689 1.287 2.579.813 2.37-.595 2.552-.414 2.25 2.23-.318 2.783-.512 2.879-5.829 2.879h-5.5l.317-4.914c.371-5.74-.407-9.586-1.94-9.586-.711 0-.962 2.49-.73 7.25l.353 7.25-2.843.325c-2.78.319-2.836.23-2.5-4 .305-3.85.095-4.36-1.911-4.645-2.975-.423-3.993 2.337-1.77 4.794.946 1.045 1.424 2.378 1.063 2.963-.689 1.114-6.781 1.488-7.791.477zm12.945-5.145c-.254-.973-.478-.419-.498 1.231-.02 1.65.187 2.446.46 1.769.275-.677.292-2.027.038-3zm13.036 3.127c-.332-.332-1.195-.368-1.917-.08-.797.32-.56.557.605.605 1.054.043 1.644-.193 1.312-.525zM113 391.559c0-.243-.45-.72-1-1.059-.55-.34-1-.141-1 .441s.45 1.059 1 1.059 1-.198 1-.441zm17.355-3.81c-.275-8.09-.358-8.749-1.105-8.751-.412-.001-.6 2.924-.415 6.5.366 7.097 1.755 9.154 1.52 2.251zm44.856-.998c-.484-8.803-.931-9.636-1.075-2.001-.075 3.987.202 7.25.614 7.25.412.001.62-2.362.461-5.25zm11.954-1.249l-.336-6.502 2.836-.079c1.56-.043 2.253-.312 1.542-.598-.711-.285-2.319-.26-3.573.054-2.092.525-2.274 1.11-2.207 7.097.04 3.634.516 6.527 1.073 6.528.599 0 .865-2.607.665-6.5zm-38.482 3.31c-.32-.797-.556-.56-.604.605-.043 1.054.193 1.644.525 1.312.332-.332.368-1.195.08-1.916zm23.217-4.562c-.062-4.206-.354-5.84-.774-4.336-.372 1.328-.593 4.028-.492 6 .247 4.832.29 5.086.866 5.086.275 0 .455-3.038.4-6.75zm-8.368.715c1.013-1.12 2.433-1.809 3.155-1.532.88.338 1.313-.37 1.313-2.151v-2.656l-2.805 2.687c-3.462 3.317-4.672 3.354-7.566.232l-2.275-2.455.073 3.355c.04 1.846.407 3.152.815 2.902s1.533.006 2.5.568c2.427 1.414 2.7 1.36 4.79-.95zm-15.558-5.391c-.632-.632-.974-.201-.974 1.226 0 1.778-.576 2.2-3 2.2-1.65 0-3 .388-3 .861 0 .474 1.072.657 2.383.406 1.331-.254 2.738.12 3.189.849.563.912 1.041.422 1.59-1.632.456-1.701.376-3.346-.188-3.91zm-29.705 3.77c-.677-.274-2.027-.29-3-.037-.973.253-.419.478 1.231.498 1.65.02 2.446-.187 1.769-.461zm-5.907-2.844c.347-.905.005-1.5-.862-1.5s-1.209.595-.862 1.5c.317.825.705 1.5.862 1.5.157 0 .545-.675.862-1.5zm9.321-.688c-.32-.797-.556-.56-.604.605-.043 1.054.193 1.644.525 1.312.332-.332.368-1.195.08-1.916zm15.567-1.518c-1.238-.238-3.263-.238-4.5 0-1.238.239-.225.434 2.25.434s3.487-.195 2.25-.434zm8.48.102c-.333-.332-1.196-.368-1.917-.08-.798.32-.561.557.604.605 1.054.043 1.644-.193 1.312-.525zm38 0c-.333-.332-1.196-.368-1.917-.08-.798.32-.561.557.604.605 1.054.043 1.644-.193 1.312-.525zm47.023-169.646L230.5 13.5l-109.136-.253-109.136-.252-.424 2.889c-.39 2.654-.372 56.115.027 83.021.167 11.265.193 11.383 2.132 9.629 1.99-1.802 5.698-1.413 4.531.475-.348.563-1.164.705-1.813.315-.8-.48-.773-.204.081.851 1.027 1.268.991 1.785-.19 2.765-.8.664-1.212 1.96-.918 2.883.458 1.436.38 1.461-.544.177-.594-.825-1.086-1.013-1.095-.417-.033 2.382 1.37 2.186 4.134-.578 2.575-2.575 2.893-3.564 2.799-8.705-.059-3.19-.576-7.038-1.15-8.55-.75-1.98-.718-3.14.11-4.14.82-.987.873-2.63.185-5.69-.531-2.367-.726-5.504-.432-6.973.307-1.535-.176-4.043-1.136-5.9-1.563-3.021-1.562-3.35.021-5.098.93-1.028 4.58-3.75 8.109-6.05 3.53-2.3 6.265-4.64 6.078-5.2-.187-.56-1.868-1.838-3.736-2.84-1.868-1.002-3.697-2.393-4.063-3.09-1.133-2.157-1.994-9.683-1.385-12.109.73-2.911 5.306-5.66 9.421-5.66 1.739 0 4.08-.491 5.202-1.092 2.69-1.44 9.8.322 14.678 3.636C55.104 39.076 57.88 40 60.224 40c2.676 0 4.119.576 5.008 2 .687 1.1 1.81 2 2.494 2 .685 0 2.414 1.766 3.843 3.925 1.429 2.159 3.187 4.151 3.908 4.428.72.276 2.355 2.593 3.63 5.148 2.724 5.452 4.304 6.858 3.186 2.833-.714-2.571-.771-5.058-.316-13.687.27-5.112 1.761-7.647 4.498-7.647C88.761 39 89 38.615 89 34.934c0-2.236.466-4.936 1.035-6 1.209-2.258 3.79-2.555 4.568-.526 1.107 2.884 8.02 4.515 21.502 5.074 15.636.648 22.862 4.908 27.123 15.99 2.218 5.77 3.915 6.479 9.025 3.772 5.544-2.936 7.389-2.834 9.127.506.788 1.513 2.599 4.1 4.025 5.75 1.426 1.65 2.593 3.493 2.594 4.095 0 .602.846 1.86 1.878 2.794 3.488 3.156 3.522 10.391.133 27.611-2.474 12.57-1.632 210.502.943 221.5.515 2.2 1.253 10.863 1.64 19.25.671 14.553.8 15.255 2.805 15.368 3.648.206 5.042-.235 7.27-2.302 2.243-2.08 5.31-1.963 11.332.434 1.375.547 3.625 1.09 5 1.204 1.375.115 3.366.587 4.424 1.05 1.544.677 1.799.519 1.292-.801-.806-2.1 1.773-4.714 4.605-4.667 3.446.056 19.037 5.54 19.474 6.848.63 1.893-1.824 4.116-4.546 4.116-1.378 0-4.95-1.398-7.937-3.107-5.718-3.272-5.944-3.262-7.743.34-.995 1.991-1.919 2.277-7.6 2.347-4.366.053-7.7-.517-10.257-1.754-3.713-1.797-3.83-1.794-5.938.17-1.183 1.102-2.629 2.025-3.213 2.051-.583.026 1.414 1.355 4.439 2.953 5.495 2.903 5.516 2.906 24.298 2.953l18.797.047-.297 6.25-.298 6.25-12.25.28-12.25.282V404H231.005l-.252-195.25zm-16.244 180.358c-3.049-.464-4.3-1.253-5.296-3.339-2.015-4.22-.175-6.769 4.888-6.769 6.3 0 7.899 1.323 7.899 6.535 0 4.877.258 4.754-7.491 3.573zm3.76-1.764c-.677-.274-2.027-.29-3-.037-.973.253-.419.478 1.231.498 1.65.02 2.446-.187 1.769-.461zm-6.258-1.831c-.68-.818-.965-2.192-.634-3.052.345-.9.18-1.305-.388-.954-1.344.83-1.245 2.837.211 4.293 1.7 1.7 2.287 1.492.81-.287zm7.961-3.047c-.67-.806-1.724-1.452-2.344-1.436-.62.017-.34.49.622 1.05.963.56 1.786 1.785 1.829 2.72.05 1.095.262 1.243.594.416.284-.706-.032-1.943-.7-2.75zM218 384c-1.983-1.282-6.292-1.282-5.5 0 .34.55 2.054.993 3.809.985 2.428-.012 2.832-.247 1.691-.985zM14.25 98.333c-.688-.275-1.25-2.068-1.25-3.986 0-3.01.297-3.442 2.172-3.167 2.754.406 3.516 2.502 1.133 3.12-1.725.447-1.724.473.018.584 1.135.072 1.701.746 1.5 1.783-.355 1.833-1.648 2.436-3.573 1.666zm0-8.995c-1.715-.692-1.582-3.338.168-3.338C16.931 86 19 87.177 19 88.607c0 1.37-2.293 1.722-4.75.73zm3.75-.721c0-.211-.9-.62-2.001-.907-1.101-.288-1.75-.115-1.441.383.538.871 3.442 1.313 3.442.524zm-4.41-7.473c-.292-.47.582-.643 1.94-.383 1.359.26 2.47.645 2.47.856 0 .773-3.899.356-4.41-.473zm2-2.29c.243-.393-.015-.998-.574-1.344C14.457 77.165 14 76.2 14 75.368c0-1.982 3.491-1.34 3.526.648.015.816.32 1.95.677 2.52.361.575-.173 1.035-1.203 1.035-1.02 0-1.654-.322-1.41-.716zM9.723 393.75c-.221-1.788-.403-.325-.403 3.25s.182 5.037.403 3.25c.222-1.788.222-4.713 0-6.5zm192.02-12.458c-.193-3.736-.353-.942-.354 6.208-.002 7.15.156 10.206.35 6.792.195-3.415.196-9.265.003-13zM30.127 392.25c1.243-1.586 1.208-1.621-.378-.378-.963.755-1.75 1.543-1.75 1.75 0 .823.821.294 2.128-1.372zm-20.445-4.438c-.32-.797-.556-.56-.604.605-.043 1.054.193 1.644.525 1.312.332-.332.368-1.195.08-1.916zm16.825-.689c-2.292-.49-3.14-1.339-3.631-3.631-.596-2.784-.649-2.815-.759-.442-.15 3.246 1.586 4.982 4.832 4.832 2.373-.11 2.342-.163-.442-.759zm4.175-1.31c-.32-.798-.556-.561-.604.604-.043 1.054.193 1.644.525 1.312.332-.332.368-1.195.08-1.916zM28 382.94c0-1.068-.675-1.941-1.5-1.941-1.483 0-2.097 3.07-.86 4.306 1.042 1.043 2.36-.278 2.36-2.365zm2.683-1.128c-.32-.798-.556-.561-.604.604-.043 1.054.193 1.644.525 1.312.332-.332.368-1.195.08-1.916zM42.5 374c.34-.55-.11-1-1-1s-1.34.45-1 1c.34.55.79 1 1 1 .21 0 .66-.45 1-1zm-12.52-.951c-.843-.494-3.07-.526-5-.072-3.352.788-3.297.82 1.52.89 3.367.049 4.504-.219 3.48-.818zm183.857-.115c11.598-.173 16.701-1.818 6.472-2.087-35.2-.926-47.457-.667-45.832.967.606.61 26.164 1.986 27.597 1.486.315-.11 5.608-.275 11.763-.366zm-177.108-.538c-.332-.332-1.195-.368-1.917-.08-.797.32-.56.557.605.605 1.054.043 1.644-.193 1.312-.525zm12 0c-.332-.332-1.195-.368-1.917-.08-.797.32-.56.557.605.605 1.054.043 1.644-.193 1.312-.525zm75.271-.38c-23.375-.284-42.354-.865-42.175-1.291.179-.426.102-1.326-.171-2-.273-.674-.532-.225-.575.997-.077 2.168-.408 2.229-13.829 2.53-7.563.17 11.675.303 42.75.295l56.5-.014-42.5-.517zm-77.495-1.393C73.89 370.868 78 370.605 78 368.61c0-1.968 5.78-5.701 9.807-6.333 2.031-.319 4.059-1.196 4.505-1.95.447-.754 2.247-2 4-2.767 2.44-1.068 2.712-1.415 1.158-1.477-1.116-.045-3.543-1.686-5.392-3.646l-3.362-3.565-3.63 3.545c-2.672 2.61-4.704 3.649-7.705 3.94-2.241.219-5.156 1.091-6.478 1.94-3.844 2.466-9.942 3.502-16.403 2.788-4.51-.499-7.144-.237-10.604 1.054-4.959 1.85-8.118 1.533-15.38-1.544-2.537-1.075-4.112-1.307-4.334-.64-.192.575-.95 1.046-1.684 1.046-.735 0-2.745.788-4.467 1.75-3.018 1.687-3.182 1.68-4.58-.191C12.123 360.784 12 361.09 12 366.15v5.533l4.255-.646c2.34-.355 15.953-.541 30.25-.414zm57.495-.368c0-.415-1.688-.758-3.75-.762-2.063-.004-6.338-.345-9.5-.759-3.487-.455-5.75-.378-5.75.197 0 .977 3.288 1.435 13.25 1.843 3.163.13 5.75-.104 5.75-.52zm3.73.14c-.333-.331-1.196-.367-1.918-.078-.797.32-.56.556.605.604 1.054.043 1.644-.193 1.312-.525zm58.712-.302c.309-.498-.34-.671-1.44-.383-2.336.61-2.63 1.29-.561 1.29.793 0 1.693-.408 2.001-.907zm-11.192-1.288c-4.142-.755-5.25-1.356-5.25-2.846 0-3.062 3.58-4.19 12.08-3.804 7.502.34 7.813.268 7.317-1.711-.39-1.551.183-2.398 2.292-3.391l2.811-1.324-3.39-1.424c-2.388-1.004-3.703-1.112-4.45-.365-.583.583-2.135 1.06-3.45 1.06-1.314 0-3.137.914-4.05 2.03-.946 1.157-3.38 2.27-5.66 2.586-2.2.305-6.228 1.72-8.952 3.142-4.334 2.264-6.216 2.596-15.096 2.664-7.224.056-10.62-.317-11.798-1.294-2.677-2.222-1.968-5.01 1.846-7.26 1.925-1.136 3.5-2.184 3.5-2.328 0-.663-5.712.906-7.5 2.06-1.1.709-3.35 1.254-5 1.21-5.147-.137-15.862 5.871-11.25 6.308 1.794.17 1.817.168 6.622-.619l4.372-.716-.421 3.608-.421 3.609 25.549-.119c19.552-.09 24.317-.343 20.299-1.076zm22.555-.577c-1.997-.26-2.559-.788-2.169-2.04.44-1.406.27-1.373-1.012.195-1.176 1.438-2.318 1.74-4.832 1.273-3.01-.559-3.104-.505-1.088.627 1.304.733 4.165 1.046 7 .767 3.229-.317 3.915-.586 2.1-.822zm8.445.11c-.688-.278-1.813-.278-2.5 0-.688.277-.125.504 1.25.504s1.938-.227 1.25-.504zm21.154-.188c.22-.357-2.481-.67-6.002-.693-3.521-.023-6.402.27-6.402.65 0 .878 11.867.919 12.404.043zM223 368c-1.09-.704-1.142-.974-.191-.985.72-.008 1.03-.465.691-1.015-.34-.55-1.604-.993-2.809-.985-1.636.012-1.842.237-.813.889.758.48 1.069 1.373.691 1.984-.429.695.18 1.106 1.622 1.097 1.858-.013 2.016-.205.809-.985zm-123.858-1.147c-1.934-.556-3.57-1.775-3.858-2.874-.416-1.592-.72-1.686-1.835-.571-.743.743-2.582 1.144-4.143.903-2.6-.4-2.659-.34-.806.833 1.956 1.237 8.016 2.571 12 2.64 1.1.02.489-.4-1.358-.93zM107 367c0-.55-.787-.993-1.75-.985-1.496.013-1.532.157-.25.985 1.887 1.22 2 1.22 2 0zm56-.046c1.095-.741.69-.834-1.5-.344-3.677.823-4.475 1.395-1.917 1.375 1.054-.008 2.592-.472 3.417-1.03zm28 .605c0-.243-.45-.72-1-1.059-.55-.34-1-.141-1 .441s.45 1.059 1 1.059 1-.198 1-.441zm27.2-.759c-2.101-2.101-1.328-2.687 4.05-3.063 2.888-.202-2.036-.45-10.941-.552-15.77-.18-19.616.51-15.403 2.765 2.558 1.369 4.393 1.343 3.532-.05-.494-.8-.119-.8 1.376 0 2.746 1.47 5.245 1.394 4.936-.15-.175-.873 1.335-1.25 5.008-1.25 3.645 0 5.119.364 4.805 1.187-.249.653.31 1.389 1.242 1.634.932.246 1.897.5 2.145.563.247.064-.09-.424-.75-1.084zm-61.838-1.3c-.424-1.105.177-1.53 2.281-1.616 1.721-.07 2.155-.3 1.09-.577-.971-.253-3.12.137-4.774.866-2.918 1.287-2.94 1.347-.733 1.977 1.25.358 2.372.696 2.493.75.12.055-.04-.575-.357-1.4zm16.056-.107c.87-.334 1.582-1.32 1.582-2.191 0-1.441-.113-1.442-1.25-.008-.688.867-1.925 1.817-2.75 2.112-.825.295-.974.572-.332.615.643.043 1.88-.194 2.75-.528zm-6.149-1.049c-.677-.274-2.027-.29-3-.037-.973.253-.419.478 1.231.498 1.65.02 2.446-.187 1.769-.461zm19.728-1.541c1.131-.353.918-.778-.87-1.735-1.303-.697-2.092-.82-1.753-.273.759 1.23-1.521 2.163-5.706 2.337l-3.168.131 3.5.677c1.925.372 4.175.373 5 .003.825-.37 2.174-.884 2.997-1.14zM192.5 364c-.34-.55-1.379-.968-2.309-.93-1.379.058-1.321.23.309.93 2.676 1.15 2.71 1.15 2 0zm-70.5-2c-1.197-.774-.995-.993 1-1.084l2.5-.115-2.5-.707c-2.245-.635-2.015-.83 2.25-1.915 4.631-1.178 5.836-2.39 3.691-3.715-.98-.606-8.376 3.813-9.544 5.702-.794 1.286.532 2.836 2.412 2.819 1.457-.014 1.484-.15.191-.985zm21.8-2.099c1.816-1.042 5.14-2.188 7.388-2.547 2.444-.39 4.91-1.6 6.136-3.012 1.425-1.638 2.68-2.171 4.113-1.747 2.005.595 2.01.57.15-.847-1.225-.935-1.674-2.08-1.249-3.187.825-2.148 2.93-1.562 3.634 1.013.402 1.465 1.484 1.953 4.528 2.037 2.2.061 3.438-.089 2.75-.333-.912-.324-1.09-2.242-.658-7.111.33-3.72.1-8.656-.517-11.167-.61-2.475-1.562-21.15-2.117-41.5-1.447-53.108-2.121-71.67-2.585-71.207-.224.224-.436 4.298-.47 9.053-.052 6.974-.387 8.833-1.733 9.619-1.539.898-1.532.977.08 1.005 1.43.024 1.75.946 1.75 5.03 0 5.088-.832 6.113-2.92 3.597-.89-1.073-.872-1.5.078-1.816.849-.283.735-.608-.36-1.028-1.648-.633-1.737.277-.342 3.497.417.963 1.443 1.75 2.28 1.75 1.257 0 1.4.91.829 5.225-.382 2.874-1.122 5.742-1.647 6.373-.524.632-.647 1.946-.273 2.92.446 1.162.022 2.257-1.233 3.184-1.845 1.364-1.848 1.45-.078 2.453 1.317.746 1.663 1.722 1.225 3.465-.477 1.902-.118 2.623 1.666 3.34 1.726.693 1.853.929.525.977-1.264.045-1.75.897-1.75 3.063 0 2.415-.439 3.02-2.25 3.1-2.206.097-2.203.113.156.773 2.279.637 2.314.764.678 2.4-.95.95-1.245 1.727-.655 1.727.589 0 1.07.675 1.07 1.5 0 1.726-3.086 2.013-4.665.434-.755-.755-1.224-.463-1.607 1-.359 1.374-.063 2.066.886 2.066 1.02 0 1.27.783.883 2.75-.495 2.511-.456 2.554.449.5.545-1.237 1.567-2.257 2.273-2.265.897-.011.832-.306-.218-.985-1.282-.828-1.246-.972.25-.985.962-.008 1.75.498 1.75 1.125s-.788 1.752-1.75 2.5c-1.667 1.297-1.667 1.411 0 2.41.962.577 1.75 1.752 1.75 2.611 0 1.243-.714 1.428-3.5.905-3.465-.65-3.5-.621-3.5 2.889 0 2.828.388 3.545 1.918 3.545 3.955 0 5.085 1.106 4.966 4.857-.064 2.004-.322 2.856-.573 1.894-.463-1.772-4.884-3.511-6.024-2.371-.89.89.175 1.704 2.454 1.875 2.299.174 1.912 3.503-.627 5.387-1.257.933-1.307 1.42-.27 2.67 1.045 1.259.95 1.73-.539 2.683-1.468.94-1.494 1.06-.138.644.919-.283 1.915.133 2.219.924.303.79.067 1.437-.524 1.437-.592 0-.817.675-.5 1.5.422 1.102-.131 1.5-2.085 1.5-2.56 0-2.587.056-.718 1.5 1.842 1.424 1.814 1.457-.56.638-2.47-.852-2.505-1.026-3-14.75-.274-7.639-.826-13.736-1.226-13.55-.4.185-1.638.575-2.75.866-2.608.682-2.625 2.296-.023 2.296 1.111 0 2 .667 2 1.5 0 .933-.944 1.5-2.5 1.5-1.375 0-2.5.413-2.5.918 0 .505-.253 1.577-.561 2.381-.378.984.44 1.812 2.5 2.53 3.614 1.26 4.053 3.171.728 3.171-3.091 0-3.81.866-2.597 3.131.775 1.448.654 1.869-.535 1.869-.844 0-1.52.563-1.503 1.25.043 1.691 2.523 4.862 3.242 4.143.316-.317 1.534-.271 2.706.1 2.953.938 1.933 3.078-1.282 2.69-2.51-.303-2.624-.113-2.536 4.25.05 2.512.562 4.567 1.136 4.567 1.773 0 4.702 3.211 4.702 5.155 0 2.235-.893 2.303-4.636.352-1.73-.902-4.095-1.264-5.975-.915-2.628.489-3.202.23-3.697-1.663-.329-1.255.05-3.15.86-4.308 1.906-2.72 1.828-5.17-.28-8.737-1.449-2.454-1.52-3.257-.442-4.983.84-1.345.952-2.464.323-3.23-.529-.644-1.17-2.071-1.425-3.171-.263-1.133-.38-.808-.269.75.107 1.512-.1 2.75-.459 2.75-.36 0-.455 1.35-.213 3 .46 3.136-1.364 4.265-2.425 1.5-.981-2.556-2.125-1.66-2.552 2-.407 3.485-.003 3.902 3.44 3.552 1.464-.149 1.75.668 1.75 5.002 0 4.883-.129 5.145-2.25 4.576-1.238-.331-2.813-.609-3.5-.616-.688-.008-1.25-.689-1.25-1.514 0-.825.627-1.5 1.393-1.5 2.355 0 2.869-3.119.611-3.71-1.6-.417-2.004-1.361-2.004-4.675 0-3.445.468-4.445 2.75-5.875l2.75-1.723-2.5.242c-2.219.214-2.535-.18-2.81-3.509l-.31-3.75h10.119l-.25-3.371c-.15-2.035-.7-3.199-1.388-2.936-.627.24-.926 1.256-.663 2.259.588 2.25-1.063 3.384-3.707 2.545-2.586-.82-2.567-3.534.03-4.213 2.799-.732.639-3.284-2.78-3.284-2.422 0-2.49-.17-1.863-4.75.357-2.612 1.09-4.899 1.627-5.08.537-.182.306-1.002-.514-1.822-2.3-2.3-1.824-4.348 1.009-4.348 1.375 0 2.5-.45 2.5-1s-1.087-1-2.417-1c-1.329 0-2.643-.563-2.92-1.25-.278-.688-.54-.263-.584.943-.09 2.476-3.633 5.415-5.612 4.656-.717-.275-1.774-2.154-2.348-4.175l-1.043-3.674.341 4c.188 2.2.595 5.013.905 6.25.389 1.554.117 2.25-.88 2.25-.793 0-1.442.425-1.442.945s2.137 1.083 4.75 1.25c3.97.255 4.75.631 4.75 2.291 0 1.196-.796 2.134-2 2.358-3.27.607-4.706 2.202-3.4 3.777 1.422 1.712-.988 2.825-4.617 2.131-2.291-.438-2.472-.196-2.347 3.137.092 2.441.28 2.863.577 1.303.58-3.035 3.472-2.499 4.393.813.382 1.372.74 4.483.794 6.913.055 2.43.604 7.31 1.219 10.844.99 5.684 1.44 6.537 3.9 7.394 1.53.534 3.013 1.86 3.298 2.947.402 1.537 1.068 1.839 2.99 1.356 3.236-.812 4.382 1.123 2.136 3.604-2.264 2.502-1.876 2.448 4.49-.624 6.536-3.153 8.477-2.689 7.572 1.81-1.177 5.846-1.491 6.38-4.767 8.085-2.564 1.335-2.718 1.558-.738 1.073 1.375-.337 3.985-1.464 5.8-2.506zm7.856-5.651c-1.9-3.085-.24-18.25 1.997-18.25.806 0 1.19.445.854.989-.345.558.04.739.884.414.822-.315 1.663-1.322 1.868-2.238.205-.916.419.922.475 4.085.09 5.095-.123 5.75-1.875 5.75-1.087 0-1.699.45-1.359 1 .34.55 1.491 1 2.559 1 2.366 0 2.497 2.222.326 5.535-1.54 2.351-4.746 3.31-5.729 1.715zm4.594-4.912c-.688-.278-1.813-.278-2.5 0-.688.277-.125.504 1.25.504s1.938-.227 1.25-.504zm-3.588-4.588c-.277-.688-.504-.125-.504 1.25s.227 1.938.504 1.25c.278-.688.278-1.813 0-2.5zM165 346c0-1.111.667-2 1.5-2s1.5.889 1.5 2-.667 2-1.5 2-1.5-.889-1.5-2zm-4.244-.664c.691-.279 1.002-.918.691-1.421-.31-.503-.088-.915.494-.915s1.059.675 1.059 1.5-.787 1.464-1.75 1.421c-1.056-.048-1.252-.28-.494-.585zm-13.944-5.02c.722-.288 1.585-.252 1.917.08.332.332-.258.568-1.312.525-1.165-.048-1.402-.285-.604-.604zM159 335.5c0-.833.889-1.5 2-1.5s2 .667 2 1.5-.889 1.5-2 1.5-2-.667-2-1.5zm6.667-4.167c-1.151-1.15-.729-2.333.833-2.333.825 0 1.5.675 1.5 1.5 0 1.562-1.183 1.984-2.333.833zM165 323.5c0-.825.787-1.493 1.75-1.485 1.37.012 1.454.203.387.88-1.151.728-1.151.947 0 1.405.95.378.833.566-.387.621-.963.043-1.75-.596-1.75-1.421zm-5-2.333c0-.459.675-.834 1.5-.834s1.5.375 1.5.834c0 .458-.675.833-1.5.833s-1.5-.375-1.5-.833zm-41.188-4.85c.722-.289 1.585-.253 1.917.079.332.332-.258.568-1.312.525-1.165-.048-1.402-.285-.605-.604zM165.5 313c.34-.55.816-1 1.059-1s.441.45.441 1-.477 1-1.059 1-.78-.45-.441-1zm-.957-3.93c-.683-1.106.894-2.3 1.818-1.376.95.95.773 2.306-.302 2.306-.518 0-1.2-.419-1.516-.93zM158 306.5c0-.825.675-1.5 1.5-1.5s1.5.675 1.5 1.5-.675 1.5-1.5 1.5-1.5-.675-1.5-1.5zm-36.467-5.447c-.88-1.423.242-3.053 2.1-3.053.875 0 1.377.703 1.19 1.667-.39 2.009-2.386 2.85-3.29 1.386zM164 288.03c0-.532.675-.71 1.5-.393.825.317 1.5.753 1.5.969 0 .216-.675.393-1.5.393s-1.5-.436-1.5-.969zm0-4.146c0-1.14.528-1.876 1.188-1.656 1.851.617 2.061 2.461.354 3.116-1.08.415-1.542-.022-1.542-1.46zm14.73 77.51c-.333-.331-1.196-.367-1.917-.078-.798.32-.561.556.604.604 1.054.043 1.644-.193 1.312-.525zm-160.711-1.918c1.057-1.273.995-1.42-.378-.893-.902.347-1.641 1.032-1.641 1.523 0 1.286.579 1.105 2.019-.63zm18.71.919c-.332-.332-1.195-.368-1.916-.08-.798.32-.561.557.604.605 1.054.043 1.644-.193 1.312-.525zm63.797-2.203c-.307-.308-1.114 0-1.793.683-.98.988-.865 1.102.56.56.986-.376 1.541-.935 1.233-1.243zm36.83.69c1.565-.712 2.604-2.159 2.874-4 .233-1.585.27-2.883.083-2.883-.605 0-4.617 2.43-8.665 5.25L127.7 360h3.603c1.982 0 4.706-.502 6.054-1.117zM22.513 356.18c-.794-.795-2.514 1.01-1.903 1.997.415.672.93.57 1.462-.29.451-.73.65-1.499.441-1.707zm18.988.688c3.073-1.813 4.392-2.011 8.807-1.326 8.308 1.29 14.055.818 17.789-1.458 1.872-1.142 4.844-2.077 6.604-2.08 2.567-.002 3.945-.894 6.962-4.503 4.788-5.727 7.353-5.853 12.8-.624 2.221 2.132 5.256 4.16 6.744 4.508l2.707.632-.473-13.758c-.26-7.567-.908-18.708-1.44-24.758-.53-6.05-1.177-14.63-1.437-19.065-.26-4.436-.935-9.282-1.5-10.77-.917-2.412-1.247-2.567-3.058-1.436-1.672 1.044-2.513.997-4.767-.266-4.534-2.54-5.409-7.169-5.945-31.432-.367-16.607-.829-22.457-1.89-23.972-.771-1.102-1.403-2.752-1.403-3.666 0-.915-1.17-2.43-2.6-3.367-2.205-1.445-2.5-2.184-1.94-4.865.771-3.69 2.12-22.02 2.886-39.234l.538-12.072-3.192-.088c-5.44-.15-10.136-1.409-11.442-3.064-.816-1.034-1.25-5.147-1.25-11.835 0-5.638-.4-10.497-.89-10.8-1.104-.683-2.104-6.02-2.764-14.762-.338-4.468-1.042-7.128-2.118-8-.92-.745-1.317-.814-.926-.16.378.63.104 1.368-.608 1.641-.84.322-1.294-.354-1.294-1.925 0-1.75.43-2.275 1.55-1.89.852.292.488-.369-.81-1.47-1.3-1.101-1.835-2.002-1.192-2.002.644 0 .892-.45.552-1-.34-.55-1.041-1-1.559-1-1.117 0-1.27 4.338-.191 5.417 1.086 1.085.979 2.968-.217 3.818-.629.447-.446.746.467.765 1.204.025 1.237.198.166.876-1.067.677-1.007.971.302 1.473 1.087.417 1.396.24.92-.53-.478-.774-.163-.947.948-.52 1.134.435 1.664.117 1.664-.997 0-.9.266-1.37.591-1.044 1.04 1.04-.672 4.742-2.194 4.742-.807 0-2.669.787-4.137 1.75-3.542 2.32-22.846 3.044-28.76 1.08-3.631-1.207-4.029-1.68-4.314-5.134l-.313-3.804-2.01 2.554c-2.56 3.255-3.48 3.218-4.331-.175-.524-2.086-.2-3.122 1.377-4.398 1.679-1.36 1.788-1.775.589-2.236-.81-.31-1.367-.244-1.236.149.13.393-.212.714-.762.714s-1.278 3.825-1.619 8.5c-.76 10.458-.472 236.742.303 237.518.678.677 5.81-1.51 7.637-3.256 1.712-1.634 2.488-1.593 6.961.368 3.046 1.336 10.152 4.153 10.91 4.326.107.024 1.82-.916 3.808-2.089zm8.574.753c-1.271-.567-2.877-.567-4.148 0-1.685.752-1.297.925 2.074.925 3.37 0 3.76-.173 2.074-.925zm128.207-.931c-.32-1.673.202-2.649 1.889-3.531 1.281-.671 1.506-.98.498-.689-1.007.292-2.392.531-3.077.531-.814 0-1.092 1.037-.804 3 .242 1.65.777 3 1.188 3 .411 0 .549-1.04.306-2.311zM110 353.336c0-.25-.5-.145-1.112.233-.611.378-1.504.067-1.984-.69-.679-1.072-.877-.963-.889.488-.01 1.296-.56 1.724-1.8 1.4-1.172-.307-1.786.09-1.786 1.151 0 1.447.401 1.42 3.785-.254 2.082-1.03 3.786-2.078 3.786-2.328zm4.429 1.093c1.824-1.825 2.048-3.429.477-3.429-.601 0-1.322.876-1.602 1.946-.28 1.071-1.25 2.144-2.157 2.384-1.502.4-1.5.448.032.554.923.064 2.385-.591 3.25-1.455zm-37.679-.118c-.963-.252-2.538-.252-3.5 0-.963.251-.175.457 1.75.457s2.712-.206 1.75-.457zm22.75-1.022c-1.1-.264-3.575-1.9-5.5-3.634l-3.5-3.155 3.446 3.75c2.005 2.181 4.305 3.701 5.5 3.634 2.008-.113 2.01-.127.054-.595zm125.839-.039c.251-.412-1.747-1.46-4.441-2.327S216 349.483 216 349.65c0 .405 7.313 4.25 8.191 4.306.38.024.897-.294 1.148-.706zm-104.07-.906c-.677-.274-2.027-.29-3-.037-.973.253-.419.478 1.231.498 1.65.02 2.446-.187 1.769-.461zm7.731-.834c0-.152-.866-.503-1.925-.78-1.315-.344-1.764-.084-1.417.82.405 1.058 3.342 1.022 3.342-.04zm66.942.542c-1.408-.427-3.545-1.304-4.75-1.95-1.206-.645-2.192-.946-2.192-.67 0 .96 5.51 3.488 7.5 3.442 1.564-.036 1.443-.215-.558-.822zM88.505 347c1.488 0 1.634-.261.678-1.217-.955-.955-2.018-.37-4.95 2.726-2.45 2.588-2.684 3.006-.678 1.217 1.68-1.5 3.907-2.726 4.95-2.726zm22.943-.433c-1.335-11.155-1.362-12.567-.238-12.567.645 0 .392-.57-.562-1.268-.954-.698-1.856-2.405-2.004-3.793-.148-1.388-.624-3.097-1.057-3.798-.433-.7-.493-1.569-.133-1.929.36-.36 1.073.007 1.585.817.78 1.234.933 1.189.946-.279.008-.963-.383-1.75-.868-1.75-1.335 0-1.934-4.576-.851-6.51.679-1.214.49-2.162-.657-3.31-1.479-1.478-1.607-1.044-1.585 5.356.014 3.83.437 8.764.941 10.964.504 2.2 1.055 8.32 1.226 13.602.278 8.648.473 9.499 1.966 8.567 1.12-.699 1.539-2.03 1.29-4.102zm96.235 2.246c-.32-.798-.556-.561-.604.604-.043 1.054.193 1.644.525 1.312.332-.332.368-1.195.08-1.916zm-84.321-.313c-.317-.825-1.177-1.5-1.912-1.5-.735 0-2.037-1-2.893-2.223-1.554-2.218-1.557-2.217-1.557.834 0 3.77.583 4.389 4.135 4.389 2.08 0 2.654-.387 2.227-1.5zm63.164-.307c-.307-.308-1.114 0-1.793.683-.98.988-.865 1.102.56.56.986-.376 1.541-.935 1.233-1.243zm-72.444-11.939c-.75-1.287-.907-.156-.59 4.246.598 8.316.821 8.81 1.245 2.754.202-2.885-.093-6.035-.655-7zm27.475 8.033c-.307-.798-.575-2.201-.596-3.119-.022-.917-.697-.154-1.5 1.697-1.828 4.209-1.855 4.05.596 3.41 1.285-.336 1.847-1.082 1.5-1.988zm4.172 2.109c-.332-.332-1.195-.368-1.917-.08-.797.32-.56.557.605.605 1.054.043 1.644-.193 1.312-.525zm-40.023-6.646c-.239-1.238-.434-.225-.434 2.25s.195 3.487.434 2.25c.238-1.238.238-3.263 0-4.5zm127.977 3.063c-.32-.798-.556-.561-.604.604-.043 1.054.193 1.644.525 1.312.332-.332.368-1.195.08-1.916zm-101.465-4.995c-.626-.626-.766.031-.393 1.856.426 2.093.678 2.345.97.97.216-1.021-.044-2.293-.577-2.826zm8.35-5.816c-.378-3.849-.324-7.561.122-8.25.445-.689.9-3.502 1.01-6.252.45-11.249.518-11.495 3.258-11.563 2.515-.063 2.518-.073.292-.968-2.436-.98-3.268-5.957-1-5.984.954-.012.967-.196.053-.777-1.933-1.228-.087-2.97 3.95-3.728 3.599-.675 3.747-.593 3.747 2.075 0 4.441 1.327 1.878 1.418-2.738.076-3.88.324-4.244 3.442-5.056 1.847-.481 3.168-1.067 2.933-1.3-.234-.235-1.852-.018-3.596.482-1.743.5-3.382.566-3.642.146-.26-.42-.472-5.461-.472-11.204v-10.44l-4.434-4.628c-4.304-4.492-7.266-10.619-9.905-20.485-.825-3.084-1.68-4.332-2.966-4.332-2.323 0-5.472-5.186-6.324-10.416-.366-2.246-1.445-4.984-2.398-6.084-2.816-3.25-6.16-16.714-7.147-28.767-.505-6.178-1.33-14.148-1.832-17.711-.502-3.563-.678-6.86-.39-7.324.287-.465-.312-.325-1.332.312-1.677 1.047-1.83 2.426-1.6 14.324.14 7.241.194 13.841.12 14.666-.626 6.958.351 19.036 1.806 22.326 1.455 3.291 1.49 3.953.255 4.735-1.18.746-1.124.911.314.924 1.283.01 1.75.834 1.75 3.085 0 2.61-.336 3.021-2.25 2.75-1.648-.235-2.25-.989-2.25-2.82 0-1.375-.764-3.264-1.697-4.197-2.781-2.781-3.763-8.566-4.738-27.927-.51-10.107-1.4-19.726-1.979-21.376-.82-2.336-.939-.897-.54 6.5.283 5.225.694 14.9.913 21.5.22 6.6.866 15.15 1.437 19 .57 3.85 1.53 16.225 2.13 27.5.602 11.275 1.309 22.75 1.57 25.5.263 2.75.891 9.5 1.397 15s.94 10.113.963 10.25c.024.138.52.25 1.103.25.582 0 .743-.512.356-1.137-1.145-1.852-3.35-36.144-3.384-52.613-.024-11.862.258-15.25 1.269-15.25 2.854 0 3.7 2.497 3.7 10.918 0 13.683 2.095 46.5 3.03 47.476.483.503.613-.044.297-1.25-.414-1.583-.107-2.144 1.173-2.144 1.24 0 1.585.568 1.21 2-.287 1.1-.059 2 .509 2 .62 0 .784-1.237.41-3.102-.757-3.787-2.796-25.29-2.514-26.516.111-.485-.144-1.675-.568-2.645-.453-1.036-.262-2.375.464-3.25.857-1.033.891-1.487.111-1.487-.617 0-1.122-.9-1.122-2 0-1.479.717-2.039 2.75-2.15l2.75-.15-2.86-.427c-2.621-.391-2.807-.691-2.236-3.6.343-1.745 1.302-3.68 2.132-4.3 1.2-.896 1.291-1.697.445-3.922-1.395-3.671-.537-5.67 2.265-5.27 1.81.258 2.212.895 2.043 3.237-.116 1.604-.791 3.284-1.5 3.734-.952.604-.832.821.461.833.962.008 1.75.69 1.75 1.515s-.477 1.5-1.059 1.5-.738-.52-.346-1.155c.446-.72.274-.882-.457-.43a1.375 1.375 0 0 0-.453 1.885c.706 1.14.841 2.95 1.157 15.45.138 5.463.402 6.25 2.097 6.25 1.538 0 2.081.953 2.63 4.61.435 2.903.299 4.854-.368 5.266-1.204.744.408 10.124 1.74 10.124.429 0 1.035 2.474 1.347 5.498.4 3.873 1.505 6.887 3.741 10.2 3.15 4.669 3.169 4.766 2.422 13.253-1.025 11.64-1.108 20.143-.203 20.702.414.256.752 1.788.752 3.406s.283 2.941.63 2.941c.345 0 .318-3.149-.061-6.998zM144 289.07c0-2.63.369-3.07 2.566-3.07 2.21 0 2.523.382 2.25 2.75-.226 1.969-.955 2.84-2.566 3.07-1.914.271-2.25-.14-2.25-2.75zm1.384-5.512c-.9-2.347.014-5.011 1.842-5.363 1.828-.352 3.503 3.817 2.31 5.748-.948 1.533-3.507 1.296-4.152-.385zM133.875 257c-.069-.55-.181-1.413-.25-1.917s-.463-1.254-.875-1.666c-.412-.413-.75-2.28-.75-4.15 0-3.119.227-3.374 2.75-3.083 2.274.261 2.803.864 3.057 3.482.23 2.373-.145 3.283-1.5 3.634-1.659.43-1.663.478-.057.584 2.553.17 2.314 4.116-.25 4.116-1.1 0-2.056-.45-2.125-1zm-12.397-31.75c.85-4.552.882-4.588 3.341-3.807 1.335.423 2.1 1.742 2.375 4.09.392 3.357.296 3.467-3.006 3.467-3.399 0-3.408-.013-2.71-3.75zm-4.816 109.5c-.277-.688-.504-.125-.504 1.25s.227 1.938.504 1.25c.278-.688.278-1.813 0-2.5zm-3-6c-.277-.688-.504-.125-.504 1.25s.227 1.938.504 1.25c.278-.688.278-1.813 0-2.5zm-8.929-10.974c-.21-2.352-.387-.676-.39 3.724-.004 4.4.169 6.324.384 4.276s.218-5.648.007-8zm48.96 7.493c-.254-.973-.478-.419-.498 1.231-.02 1.65.187 2.446.46 1.769.275-.677.292-2.027.038-3zm-38.01-2.457c-.32-.797-.556-.56-.604.605-.043 1.054.193 1.644.525 1.312.332-.332.368-1.195.08-1.916zM132.5 322c.34-.55.141-1-.441-1s-1.059.45-1.059 1 .198 1 .441 1 .72-.45 1.059-1zm13.23-1.604c-.333-.332-1.196-.368-1.917-.08-.798.32-.561.557.604.605 1.054.043 1.644-.193 1.312-.525zm7.953-1.584c-.32-.797-.556-.56-.604.605-.043 1.054.193 1.644.525 1.312.332-.332.368-1.195.08-1.916zM111 317c0-.55-.45-1-1-1s-1 .45-1 1 .45 1 1 1 1-.45 1-1zm.345-6.543c-.326-.849-.807-1.329-1.069-1.067-.262.262-.18.957.183 1.543.986 1.596 1.562 1.286.886-.476zm4.055.144c-.295-.77-.056-1.696.532-2.059 1.748-1.08 1.215-3.27-.932-3.832-2.276-.595-2.748 2.024-.965 5.356 1.194 2.23 2.161 2.61 1.365.535zm31.85.737c-.688-.278-1.813-.278-2.5 0-.688.277-.125.504 1.25.504s1.938-.227 1.25-.504zm-10.329-3.588c-.043-1.238-.306-1.688-.583-1-.278.688-1.705 1.205-3.171 1.15l-2.667-.1 2.5-.8c2.247-.72 2.285-.81.372-.9-1.17-.055-2.663.546-3.318 1.336-.994 1.197-.558 1.5 2.627 1.831 2.1.218 3.932.472 4.069.565.138.092.214-.845.171-2.082zm15.797-4.486c-.23-1.52-.424-.514-.432 2.236-.007 2.75.18 3.994.418 2.764.237-1.23.243-3.48.014-5zm-49-1c-.23-1.52-.424-.514-.432 2.236-.008 2.75.18 3.994.418 2.764.237-1.23.243-3.48.014-5zm2.695 4.245c-.432-1.72-.163-2.668.87-3.064 1.72-.66 1.218-3.785-.891-5.535-1.155-.958-1.392-.38-1.392 3.386 0 4.3.719 7.704 1.626 7.704.227 0 .13-1.12-.213-2.49zM111 306.5c0-.825-.436-1.5-.969-1.5-.532 0-.71.675-.393 1.5.317.825.753 1.5.969 1.5.216 0 .393-.675.393-1.5zm11.269-1.156c-.677-.274-2.027-.29-3-.037-.973.253-.419.478 1.231.498 1.65.02 2.446-.187 1.769-.461zM134 303.878c0-.776.464-.738 1.5.122 1.008.837 1.5.883 1.5.141 0-1.035-1.843-1.708-6.464-2.363-1.213-.172-2.1.39-2.323 1.472-.28 1.365.316 1.75 2.714 1.75 1.69 0 3.073-.505 3.073-1.122zm16-2.09c0-.434-1.152-.788-2.559-.788-1.407 0-2.299.421-1.98.936.687 1.113 4.539.986 4.539-.149zm-40.008-5.507c-1.083-1.688-1.113-1.685-.568.05.317 1.008.628 2.583.692 3.5.105 1.504.16 1.499.567-.05.248-.945-.063-2.52-.691-3.5zM133 298c0-.55-.675-1-1.5-1s-1.5.45-1.5 1 .675 1 1.5 1 1.5-.45 1.5-1zm-1.731-2.656c-.677-.274-2.027-.29-3-.037-.973.253-.419.478 1.231.498 1.65.02 2.446-.187 1.769-.461zm-8.664-1.514c.48-.777.186-.964-.876-.556-.88.337-1.818.076-2.085-.58-.268-.657-.522-.407-.565.556-.089 1.967 2.414 2.379 3.526.58zm-15.105-.595c-.55-.404-1.092-4.11-1.204-8.235-.112-4.125-.478-9.075-.814-11-.335-1.925-.705-7.325-.822-12-.26-10.468-2.658-37.317-3.392-38-.749-.696.552 31.452 1.74 43 .537 5.225 1.245 13.438 1.574 18.25.495 7.255.881 8.747 2.258 8.735.95-.01 1.232-.33.66-.75zm2.193-2.966c-.254-.973-.478-.419-.498 1.231-.02 1.65.187 2.446.46 1.769.275-.677.292-2.027.038-3zM161 291.607c0-.216-.698-.661-1.552-.989-.89-.341-1.291-.173-.94.393.586.95 2.492 1.406 2.492.596zm-58.307-4.338c-.254-.973-.478-.419-.498 1.231-.02 1.65.187 2.446.46 1.769.275-.677.292-2.027.038-3zm25.489-.699c.22-1.886.044-3.21-.391-2.94-.783.483-1.153 6.37-.4 6.37.214 0 .57-1.543.79-3.43zm2.606-.707c-.25-.749-.703-.295-1.057 1.057-.435 1.663-.305 2.054.437 1.312.582-.582.86-1.647.62-2.369zm26.212-.922c0-.518-.45-.941-1-.941s-1 .702-1 1.559.45 1.28 1 .941c.55-.34 1-1.041 1-1.559zM114.88 266c-.517-9.075-1.15-16.95-1.406-17.5-.595-1.279.419 24.599 1.187 30.296 1.086 8.049 1.16 3.73.219-12.796zm12.607 12.841c-.143-1.673-.986-3.768-1.873-4.656-1.485-1.485-1.613-1.377-1.6 1.35.02 4.546 1.04 7.382 2.457 6.838.734-.282 1.165-1.779 1.015-3.532zm34.43 2.517c.229-.197-.532-.358-1.691-.358-1.16 0-2.386-.45-2.726-1-.978-1.582-2.222-1.17-2.768.918-.445 1.7-.087 1.855 3.133 1.359 2-.308 3.823-.721 4.052-.919zm-52.892-4.607c-.44-4.865-.5-4.968-.817-1.396-.3 3.398.193 6.644 1.01 6.646.155 0 .068-2.363-.193-5.25zM8.683 278.813c-.32-.798-.556-.561-.604.604-.043 1.054.193 1.644.525 1.312.332-.332.368-1.195.08-1.916zM93 279c-.825-.533-1.95-.97-2.5-.97s-.325.437.5.97c.825.533 1.95.97 2.5.97s.325-.437-.5-.97zm8.985-2.809c.008-.72-.442-1.026-1.001-.68-.56.345-.758 1.046-.441 1.558.316.512.099.931-.484.931-.582 0-1.059-.9-1.059-2s.45-2 1-2c.554 0 .948-2.34.884-5.25-.064-2.888-.322-4.463-.573-3.5-.255.976-1.42 1.764-2.634 1.782-2.13.03-2.135.064-.236 1.5 1.873 1.417 1.875 1.468.059 1.468-1.744 0-1.758.091-.185 1.25 1.376 1.013 1.52 1.87.756 4.52-.518 1.797-.552 3.028-.076 2.733.477-.295 1.18-.03 1.56.587.787 1.272 2.403-.659 2.43-2.899zM97 275.268c.275-.288-.963-.319-2.75-.069-2.467.345-3.267.075-3.32-1.122-.052-1.152-.302-1.038-.93.423-.508 1.181-.888 1.42-.93.583-.038-.779-.34-1.146-.67-.816-.33.33-.334 1.03-.008 1.558.578.935 7.617.48 8.608-.557zm59.73 1.128c-.333-.332-1.196-.368-1.917-.08-.798.32-.561.557.604.605 1.054.043 1.644-.193 1.312-.525zm0-2c-.333-.332-1.196-.368-1.917-.08-.798.32-.561.557.604.605 1.054.043 1.644-.193 1.312-.525zm-61.98-1.476c-2.56-1.49-2.248-5.784.5-6.889 1.59-.639 1.761-.923.583-.968-1.299-.049-1.666-1.055-1.666-4.563 0-3.907.285-4.518 2.166-4.636 2.132-.134 2.13-.143-.083-.57-1.579-.304-2.25-1.14-2.25-2.805 0-1.304-.468-2.66-1.04-3.014-.573-.354-.779-1.471-.457-2.483.32-1.012.768-4.372.993-7.466.312-4.275.061-5.759-1.043-6.182-1.819-.698-1.919-3.344-.126-3.344 1.34 0 1.274-4.733-.111-8-.35-.825-.75-3.525-.889-6-1.657-29.535-2.524-21.308-1.793 17.012.71 37.138 1.208 41.029 5.242 40.958 1.616-.029 1.614-.095-.026-1.05zm64.75.08c-.34-.55-1.829-.947-3.309-.882l-2.691.119 3 .763c1.65.42 3.14.817 3.309.882.17.065.03-.332-.309-.882zm-70.817-3.188c-.32-.797-.556-.56-.604.605-.043 1.054.193 1.644.525 1.312.332-.332.368-1.195.08-1.916zm69.556-1.282c.26-1.358.087-2.232-.383-1.94-.829.511-1.246 4.41-.473 4.41.211 0 .596-1.111.856-2.47zm-50.55-3.28c-.251-.963-.457-.175-.457 1.75s.206 2.712.457 1.75c.252-.963.252-2.538 0-3.5zm19.673 2.25c.316-.825.14-1.5-.393-1.5s-.969.675-.969 1.5.177 1.5.393 1.5c.216 0 .652-.675.969-1.5zM8.73 255.272c-.217-2.074-.397-.622-.402 3.228-.004 3.85.173 5.548.394 3.772.22-1.775.224-4.925.008-7zm115.168 4.478c-.099-5.043-.136-5.112-.956-1.75-.779 3.194-.439 7 .625 7 .238 0 .387-2.362.33-5.25zm32.831 3.646c-.332-.332-1.195-.368-1.917-.08-.797.32-.56.557.605.605 1.054.043 1.644-.193 1.312-.525zm-57.479-1.058c-.688-.278-1.813-.278-2.5 0-.688.277-.125.504 1.25.504s1.938-.227 1.25-.504zm8.44-4.088c-.252-.963-.458-.175-.458 1.75s.206 2.712.457 1.75c.252-.963.252-2.538 0-3.5zm49.04 2.146c-.333-.332-1.196-.368-1.917-.08-.798.32-.561.557.604.605 1.054.043 1.644-.193 1.312-.525zm3.147-2.767c-.659-1.446-1.913-2.593-2.788-2.55-1.127.056-1.207.232-.274.605.723.29 1.748 1.666 2.278 3.06.53 1.393 1.192 2.304 1.472 2.024.28-.28-.03-1.693-.688-3.139zm-8.877.097c0-.517-.668-.684-1.485-.37-.864.331-1.91-.224-2.5-1.327-1.332-2.49-1.284-3.314.14-2.434.72.446.882.274.43-.457-.398-.644-1.106-.934-1.574-.645-.467.289-1.39-1.166-2.051-3.234-.661-2.067-1.631-4.209-2.157-4.759-1.295-1.355 2.68 9.061 4.54 11.902 1.467 2.238 4.657 3.145 4.657 1.324zm-51.27-.33c-.333-.332-1.196-.368-1.918-.08-.797.32-.56.557.605.605 1.054.043 1.644-.193 1.312-.525zm54.539-3.052c-.677-.274-2.027-.29-3-.037-.973.253-.419.478 1.231.498 1.65.02 2.446-.187 1.769-.461zm-47.898-14.7c-.372-6.955-.945-12.644-1.273-12.645-.33 0-.308 4.612.046 10.25s.692 11.563.75 13.168c.058 1.604.342 2.68.63 2.393.287-.288.219-6.213-.153-13.167zM99.3 241.2c-.33-5.08-.869-8.965-1.2-8.634-.33.33-.526.9-.435 1.267.09.367-.302 1.23-.872 1.917-.726.874-.7 1.25.085 1.25 1.873 0 1.253 2.998-.628 3.032-1.633.03-1.629.124.072 1.413 1.762 1.336 1.762 1.396 0 1.862-1.603.423-1.552.568.428 1.204 1.238.397 2.25 1.345 2.25 2.106 0 .76-1.012 1.444-2.25 1.52l-2.25.135 2.25.434c1.238.238 2.25.927 2.25 1.53 0 .604.202.895.45.648.246-.247.18-4.605-.15-9.684zm58.2 7.8c-1.65-.42-4.125-.772-5.5-.782l-2.5-.019 2.5.801c1.375.44 3.85.792 5.5.782l3-.019-3-.763zm-69.794-7.25c-.239-1.238-.434-.225-.434 2.25s.195 3.487.434 2.25c.238-1.238.238-3.263 0-4.5zm-78.981-2.982c-.223-1.797-.41-.568-.415 2.732-.006 3.3.176 4.77.405 3.268.228-1.503.232-4.203.01-6zM151 246c1.333-.862 1.333-.97 0-.97-.825 0-2.175.437-3 .97-1.333.862-1.333.97 0 .97.825 0 2.175-.437 3-.97zm5.73.396c-.333-.332-1.196-.368-1.917-.08-.798.32-.561.557.604.605 1.054.043 1.644-.193 1.312-.525zm0-2c-.333-.332-1.196-.368-1.917-.08-.798.32-.561.557.604.605 1.054.043 1.644-.193 1.312-.525zm4.581-2.698c1.558-.303 1.28-.465-.967-.562-2.813-.121-3.09.109-2.54 2.114.478 1.748.694 1.873.967.561.194-.928 1.337-1.88 2.54-2.113zm-38.628.114c-.32-.797-.556-.56-.604.605-.043 1.054.193 1.644.525 1.312.332-.332.368-1.195.08-1.917zm29.079 1.5c-.956-.25-2.756-.258-4-.02-1.244.24-.462.445 1.738.456 2.2.01 3.218-.185 2.262-.435zm-1-2c-.956-.25-2.756-.258-4-.02-1.244.24-.462.445 1.738.456 2.2.01 3.218-.185 2.262-.435zm-.512-2.018c-1.238-.238-3.263-.238-4.5 0-1.238.239-.225.434 2.25.434s3.487-.195 2.25-.434zm-.488-1.981c-.956-.25-2.756-.26-4-.02-1.244.239-.462.444 1.738.455 2.2.01 3.218-.185 2.262-.435zm-8.079-3.5c-.32-.798-.556-.561-.604.604-.043 1.054.193 1.644.525 1.312.332-.332.368-1.195.08-1.916zm8.58 1.483c-1.23-.237-3.48-.243-5-.014-1.52.23-.513.425 2.237.432 2.75.007 3.994-.18 2.764-.418zm-62.557-6.546c-.239-1.238-.434-.225-.434 2.25s.195 3.487.434 2.25c.238-1.238.238-3.263 0-4.5zM139 234c0-.55-.874-1-1.943-1-1.07 0-2.644-1-3.5-2.223-.856-1.222-1.557-1.758-1.557-1.19 0 1.723 2.381 4.216 4.5 4.713 1.1.257 2.112.52 2.25.584.138.064.25-.334.25-.884zm17.61-.716c-1.04-.267-2.84-1.495-4-2.73-1.481-1.576-3.75-2.428-7.61-2.859-3.984-.445-5.012-.333-3.729.407.974.561 1.51 1.443 1.191 1.96-.319.516-.103.938.479.938s1.059.675 1.059 1.5c0 1.206 1.42 1.477 7.25 1.384 3.987-.064 6.4-.334 5.36-.6zM8.741 214.292c-.192-3.736-.352-.942-.353 6.208-.002 7.15.156 10.206.35 6.792.195-3.415.196-9.265.003-13zm89.722 11.458c-.277-2.888-.553-8.4-.612-12.25-.059-3.85-.308-6.213-.553-5.25-.245.963-1.088 1.75-1.872 1.75-1.528 0-1.53 2.065-.003 3.167.509.366 1.02 3.741 1.138 7.5.192 6.164 1.011 10.333 2.03 10.333.207 0 .15-2.362-.128-5.25zm39.88 2.705c-.29-.758-1.387-1.651-2.436-1.984-1.05-.333-1.908-1.1-1.908-1.705s-.24-.86-.531-.568c-.951.95 2.905 6.596 4.173 6.11.677-.26.994-1.094.702-1.853zm22.82 1.457c1.954-1.046 2-1.608 1.213-14.75-.45-7.514-.76-15.912-.687-18.662.072-2.75.609-25.25 1.192-50 .584-24.75 1.33-48.375 1.658-52.5.515-6.465.316-7.945-1.44-10.723-4.312-6.82-14.024-5.326-19.38 2.983-1.404 2.177-1.546 3.197-.673 4.828.853 1.595.742 2.836-.486 5.424-1.466 3.09-1.458 3.635.096 6.894 1.606 3.368 1.594 3.717-.235 7.203-1.057 2.015-2.689 3.874-3.626 4.132-1.57.432-1.58.659-.12 2.888 1.068 1.629 1.625 4.947 1.705 10.146.11 7.098-.043 7.725-1.881 7.725-1.683 0-2.097-.87-2.612-5.5-.337-3.025-.961-7.638-1.386-10.25-.61-3.748-.481-4.757.612-4.782.956-.022.798-.477-.511-1.468-1.044-.79-2.176-1.264-2.517-1.053-.34.21-.295 3.683.1 7.718 2.238 22.826 2.262 24.448.34 22.855-1.668-1.383-1.74-1.268-1.077 1.75.458 2.083.327 3.23-.37 3.23-.593 0-1.079 1.18-1.079 2.622 0 2.17.249 2.416 1.44 1.427.793-.657 1.212-1.792.932-2.521-.28-.73-.028-1.623.56-1.986 1.291-.798 1.44 4.323.183 6.306-.47.742-1.7 1.187-2.735.988-1.692-.324-1.908-1.525-2.16-11.996-.261-10.785-.418-11.601-2.143-11.15-1.553.406-1.792 1.234-1.442 4.985.357 3.821.126 4.575-1.538 5.01-1.077.282-2.181 1.092-2.453 1.8-.331.863.137 1.123 1.419.788 1.186-.31 2.15.118 2.537 1.126.793 2.066-1.295 4.655-3.173 3.935-.829-.318-1.427.056-1.427.892 0 .793.675 1.44 1.5 1.44s1.5-.43 1.5-.955c0-.526.719-.36 1.598.37 1.126.935 1.437 2.317 1.053 4.68-.65 4.003.052 6.239 1.956 6.239.766 0 1.393.585 1.393 1.3 0 2.14-2.218 3.7-5.259 3.7-1.572 0-2.607.408-2.299.906.308.498 1.462.67 2.564.382 2.634-.689 4.994 1.36 4.994 4.334 0 1.903-.549 2.398-2.75 2.478l-2.75.1 2.5.699c2.105.589 2.514 1.324 2.587 4.65.128 5.863.239 6.172 2.413 6.74 2.096.549 2.714 3.152 1 4.211-1.485.918-1.21 3.5.372 3.5 1.634 0 3.157 7.871 1.788 9.24-.504.504-2.187.769-3.74.588-2.475-.287-2.977-.945-4.067-5.328l-1.243-5 .518 4.5c.867 7.526.98 7.679 5.637 7.585l4.235-.085.3 5.75c.165 3.163.508 5.75.763 5.75s1.298-.521 2.318-1.158c2.487-1.553 5.119-.403 5.119 2.236 0 1.858-.463 2.087-3.5 1.732-1.925-.225-3.5-.049-3.5.39 0 .93 2.314 1.119 10.203.83l5.703-.209 2.157 4.59c2.292 4.875 2.891 5.219 6.1 3.502zM152.5 227c-.34-.55-2.279-.94-4.309-.868l-3.691.131 3.5.737c5.154 1.085 5.17 1.085 4.5 0zm-66.25-1.662c-.688-.278-1.25-1.217-1.25-2.088 0-.87-.28-1.303-.624-.96-.975.976.417 3.719 1.843 3.631 1.003-.062 1.01-.188.031-.583zm44.433-1.526c-.32-.797-.556-.56-.604.605-.043 1.054.193 1.644.525 1.312.332-.332.368-1.195.08-1.917zM140 225c0-.55-.477-1-1.059-1s-.78.45-.441 1c.34.55.816 1 1.059 1s.441-.45.441-1zm-35.338-3.25c-.277-.688-.504-.125-.504 1.25s.227 1.938.504 1.25c.278-.688.278-1.813 0-2.5zm46.1 2.563c-.956-.25-2.756-.26-4-.02-1.244.239-.462.444 1.738.455 2.2.01 3.218-.185 2.262-.435zm-63.638-2.58c-.988-.98-1.102-.865-.56.56.376.986.935 1.541 1.243 1.233.308-.307 0-1.114-.683-1.793zm42.149-1.959c-.557-.7-1.595-3.074-2.306-5.274-.712-2.2-1.484-3.434-1.716-2.743-.488 1.454 3.714 10.611 4.506 9.82.29-.291.073-1.102-.484-1.803zm-28.543-8.502c-.217-2.074-.397-.622-.402 3.228-.004 3.85.173 5.548.394 3.772.22-1.775.224-4.925.008-7zm12.55 7.688c-.294-1.121-.757-1.816-1.03-1.543-.542.541.414 3.583 1.125 3.583.24 0 .198-.918-.096-2.04zm18.351-2.87c-.097-3.64-.621-5.218-2.026-6.1-1.627-1.02-1.801-.943-1.232.54.365.95 1.158 3.695 1.764 6.099.605 2.404 1.219 4.371 1.363 4.371.145 0 .204-2.21.131-4.91zM87 218.094c0-.499-.819-.693-1.82-.43-1.996.521-3.695-1.065-4.456-4.164-.381-1.548-.518-1.39-.608.7-.07 1.611.59 3.112 1.634 3.72 2.19 1.276 5.25 1.377 5.25.174zm46.718-5.83c-.23-1.52-.424-.514-.432 2.236-.007 2.75.18 3.994.418 2.764.237-1.23.243-3.48.014-5zm32.013-8.714c-.132-8.252-.606-14.075-1.106-13.575-.813.813.117 28.025.958 28.025.208 0 .275-6.502.148-14.45zM111.434 190c-.036-13.2.27-24 .683-24 .411 0 1.034-.9 1.383-2 .782-2.464 4.209-2.643 4.776-.25.228.963.371.413.32-1.22-.067-2.076.43-3.077 1.654-3.324 1.296-.261 1.75.3 1.75 2.162 0 1.383.526 2.84 1.17 3.237.798.493.957.168.5-1.023-.369-.96-.706-3.621-.749-5.914-.043-2.292-.306-3.606-.583-2.918-.685 1.698-2.824 1.575-4.338-.25-.685-.825-1.977-1.448-2.872-1.384-1.374.098-1.354.187.122.573 2.3.602 2.232 3.565-.132 5.705-2.065 1.868-6.212 1.403-8.132-.911-.825-.994-.65-1.604.709-2.46 1.105-.698 1.224-.975.305-.716-2.043.576-5-1.064-5-2.773 0-.767 1.012-1.59 2.25-1.828 1.851-.357 1.742-.458-.617-.57-2.501-.119-2.805-.457-2.384-2.66.266-1.388.093-2.765-.383-3.059-.476-.294-.873-2.421-.881-4.726-.008-2.305-.446-4.866-.972-5.691-.674-1.056-.813-.465-.47 2 .934 6.722 2.29 33.275 1.781 34.88-.444 1.403-.368 1.42.566.12.594-.825 1.086-3.187 1.095-5.25.012-3.098.368-3.75 2.046-3.75 1.118 0 2.221.563 2.453 1.25.232.688.902 11.7 1.49 24.471.9 19.58 1.507 26.279 2.383 26.279.079 0 .113-10.8.077-24zm-26.465 18.5c0-1.656-.166-1.742-.969-.5-.533.825-.97 2.4-.97 3.5 0 1.656.167 1.742.97.5.533-.825.97-2.4.97-3.5zm18.123-4.586l-.965-2.414-.064 2.583c-.035 1.421.265 2.912.666 3.313 1.188 1.187 1.403-.88.363-3.482zm-16.362-7.642c-.217-2.074-.397-.622-.402 3.228-.004 3.85.173 5.548.394 3.772.22-1.775.224-4.925.008-7zm10 9.124c-.333-.332-1.196-.368-1.917-.08-.798.32-.561.557.604.605 1.054.043 1.644-.193 1.312-.525zm26.268-7.408c-.557-2.934-1.285-5.595-1.618-5.912-.682-.648.579 9.97 1.334 11.24 1.115 1.874 1.232-.328.284-5.328zm9.125 2.953c-.208-.793-.395-2.004-.417-2.691-.022-.688-.646-1.25-1.389-1.25-.886 0-1.27 1.04-1.118 3.032.163 2.139.683 2.931 1.766 2.69.844-.187 1.365-.99 1.158-1.781zm-50.434-3.691c-.251-.963-.457-.175-.457 1.75s.206 2.712.457 1.75c.252-.963.252-2.538 0-3.5zm15.04 4.146c-.332-.332-1.195-.368-1.917-.08-.797.32-.56.557.605.605 1.054.043 1.644-.193 1.312-.525zM8.69 196.25c-.251-.963-.457-.175-.457 1.75s.206 2.712.457 1.75c.252-.963.252-2.538 0-3.5zm87.875-2.852c-.464-1.848-1.228-2.367-3.333-2.262-2.711.135-2.713.14-.231.625 2.333.456 2.367.542.5 1.293-1.898.764-1.885.809.25.876 2.183.068 3.367 3.07 1.21 3.07-.6 0-.494.592.25 1.4 1.092 1.185 1.341 1.093 1.623-.602.183-1.1.062-3.08-.27-4.4zm2.538-6.718c-.423-5.93-.463-12.8-.089-15.267.374-2.466.368-4.677-.014-4.913-.382-.236-.56-3.145-.394-6.465.208-4.193-.068-6.04-.903-6.05-.82-.01-.77-.289.155-.875.872-.553.987-1.089.321-1.5-.596-.368-.901-3.364-.72-7.066.183-3.73-.196-7.412-.903-8.775-.805-1.552-1.062-5.329-.757-11.133.313-5.97.056-9.54-.803-11.144-.694-1.299-1.003-3.355-.685-4.57.336-1.286.208-1.836-.307-1.316-.776.783.23 25.066 1.465 35.394.23 1.925.903 13.175 1.495 25 1.022 20.43 1.897 30.474 2.593 29.777.174-.173-.03-5.167-.454-11.097zm-4.852 8.658c-.688-.278-1.813-.278-2.5 0-.688.277-.125.504 1.25.504s1.938-.227 1.25-.504zm8.842-4.14c-.608-.203-.928-.668-.713-1.033.215-.366.054-3.59-.357-7.165l-.748-6.5-.137 8.309c-.088 5.317.223 8.087.863 7.691.55-.34 1.061.421 1.136 1.691.133 2.248.148 2.244.598-.158.254-1.357-.035-2.633-.642-2.836zm-18.409 1.614c-.32-.797-.556-.56-.604.605-.043 1.054.193 1.644.525 1.312.332-.332.368-1.195.08-1.917zM82.74 177.25c-.198-3.163-.36-.575-.36 5.75s.162 8.912.36 5.75c.198-3.163.198-8.338 0-11.5zm6.01 13.263c-.137-1.917-.811-3.703-1.499-3.968-2.142-.826-1.402-3.537 1-3.661 1.768-.091 1.865-.216.451-.583-1.537-.399-1.7-1.145-1.122-5.134.373-2.567.792-4.802.932-4.966.14-.165-.148-2.09-.64-4.28-1.202-5.35-.228-8.89 2.487-9.037 2.02-.11 2.028-.143.142-.597-1.1-.265-2.382-.842-2.85-1.283-1.358-1.284.33-5.054 2.688-6.005 2.03-.819 1.996-.876-.54-.936-2.65-.062-2.7-.183-2.537-6.063.128-4.626.518-6.015 1.703-6.063.875-.036.518-.471-.828-1.01-1.75-.701-2.222-1.49-1.818-3.036.3-1.149.356-1.898.122-1.664-.233.233-.624 13.553-.868 29.599-.378 24.89-.232 29.174.992 29.174.79 0 1.436.675 1.436 1.5s.225 1.5.5 1.5c.274 0 .387-1.569.25-3.487zm-80.066.3c-.32-.798-.556-.561-.604.604-.043 1.054.193 1.644.525 1.312.332-.332.368-1.195.08-1.917zm116.562-.313c-.263-1.375-.65-2.5-.862-2.5-.21 0-.383 1.125-.383 2.5s.388 2.5.861 2.5c.474 0 .647-1.125.384-2.5zm-29.976-1.156c-.677-.274-2.027-.29-3-.037-.973.254-.419.478 1.231.498 1.65.02 2.446-.187 1.769-.461zm35.731.273c0-.211-.9-.62-2-.907-1.1-.287-2-.115-2 .384 0 .498.9.906 2 .906s2-.173 2-.383zm-36.75-2.28c-.688-.277-1.813-.277-2.5 0-.688.278-.125.505 1.25.505s1.938-.227 1.25-.504zm70.894-5.488l-.964-3.349-.09 4.083c-.05 2.246.247 4.424.66 4.84 1.212 1.223 1.437-1.953.394-5.574zm-69.894 3.489c-.688-.278-1.813-.278-2.5 0-.688.277-.125.504 1.25.504s1.938-.227 1.25-.504zm28.946-2.088c-.29-1.512-.72-2.173-.956-1.467-.425 1.272.336 4.217 1.09 4.217.216 0 .156-1.238-.134-2.75zm-3.503-3.981c-.254-.973-.478-.419-.498 1.231-.02 1.65.187 2.446.46 1.769.275-.677.292-2.027.038-3zM95.5 181c-.34-.55-2.054-.94-3.809-.868l-3.191.131L92 181c1.925.405 3.64.796 3.809.868.17.073.03-.318-.309-.868zm-.738-2.687c-.956-.25-2.756-.26-4-.02-1.244.239-.462.444 1.738.455 2.2.01 3.218-.185 2.262-.435zm.223-3.563c-.013-1.863-.198-1.992-1.076-.75-.799 1.129-1.187 1.19-1.568.25-.795-1.959-2.341-1.464-2.341.75 0 1.467.667 2 2.5 2 1.93 0 2.497-.513 2.485-2.25zM127 172.452c0-1.181-1.89-1.18-2.344.003-.37.963-.072 1.258.895.887.797-.306 1.449-.706 1.449-.89zm-34.27-1.056c-.333-.332-1.196-.368-1.918-.08-.797.32-.56.557.605.605 1.054.043 1.644-.193 1.312-.525zm26.953-1.583c-.32-.798-.556-.561-.604.604-.043 1.054.193 1.644.525 1.312.332-.332.368-1.195.08-1.916zm-35.99-3.544c-.254-.973-.478-.419-.498 1.231-.02 1.65.187 2.446.46 1.769.275-.677.292-2.027.038-3zm36.97-3.519c-.278-.688-.505-.125-.505 1.25s.227 1.938.504 1.25c.278-.688.278-1.813 0-2.5zM95 162.5c0-1.375-.477-2.5-1.059-2.5s-.78.45-.441 1c.34.55.029 1.007-.691 1.015-.996.012-.968.231.115.917 1.072.678.7 1.009-1.5 1.335l-2.924.433 3.25.15c2.84.131 3.25-.165 3.25-2.35zm-14.768-3.21c1.632-1.477 2.02-1.511 2.843-.25.632.967.91-2.276.826-9.6l-.127-11.06-3.015.442c-2.253.33-2.893.093-2.535-.94.263-.76 1.484-1.342 2.713-1.293 1.82.072 2.151-.346 1.787-2.25-.246-1.289.052-2.384.665-2.439.61-.054-.014-.412-1.389-.795-2.185-.608-2.5-1.252-2.5-5.12 0-3.416.456-4.66 2-5.455 2.194-1.13 2.573-5.502 1.139-13.157-.425-2.27-.825-7.224-.888-11.009l-.115-6.882-3.818.364c-2.1.2-3.818.767-3.818 1.259 0 .492-.624.895-1.386.895-.884 0-1.64-1.692-2.087-4.669-.477-3.177-.972-4.228-1.553-3.29C67.668 86.155 64 82.366 64 78.904c0-1.532-.338-2.995-.75-3.25-.412-.254-.592 1.519-.4 3.941.197 2.47.86 4.405 1.51 4.405 2.592 0 3.573 4.142 3.779 15.951.159 9.095.567 12.39 1.648 13.287.79.656 1.808 2.108 2.261 3.227.627 1.547.84.999.889-2.286.038-2.61-.54-4.925-1.459-5.844-2.385-2.385-.945-11.2 2.302-14.085 2.691-2.393 5.683-2.927 6.747-1.206.355.574.16 1.628-.432 2.342-.593.714-.745 1.63-.338 2.038.407.407-.065 1.328-1.048 2.047-1.543 1.128-1.594 1.502-.37 2.724 3.06 3.062 1.436 21.863-2.084 24.105-1.768 1.126-1.568 3.034.245 2.338 1.02-.391 1.5.054 1.5 1.393 0 1.509-.682 1.969-2.918 1.969-1.605 0-3.582.255-4.394.566-1.776.682-4.59-4.212-5.787-10.066-.585-2.858-.686-1.722-.353 3.979.363 6.223.904 8.417 2.459 9.972 1.808 1.809 1.993 1.831 1.993.24 0-.965.633-1.997 1.406-2.293 1.628-.625 5.594 2.44 5.594 4.324 0 .794 1.326 1.278 3.5 1.278 2.444 0 3.5.452 3.5 1.5 0 .825-.675 1.5-1.5 1.5s-1.5.408-1.5.906c0 .499-.787.788-1.75.644-.963-.145-1.188-.07-.5.167.688.236 1.25 1.297 1.25 2.356 0 1.822-1.772 2.394-6.785 2.19-.997-.04-1.02.266-.108 1.366 1.407 1.695.856 2.423-1.994 2.637-1.162.088-2.113.514-2.113.947 0 .433-.113 1.082-.25 1.442-.416 1.09 2.885 1.197 4.366.143 1.076-.767.995-.861-.366-.424-.962.31-1.75.163-1.75-.326 0-1.436 5.41-2.208 8.06-1.15 1.342.537 1.878 1.004 1.19 1.039-.687.035-1.25.54-1.25 1.122 0 .582.563.735 1.25.339.688-.396.16.477-1.174 1.94-2.73 2.997-.964 3.776 2.156.952zm.58-10.973c.722-.289 1.585-.253 1.917.079.332.332-.258.568-1.312.525-1.165-.048-1.402-.285-.604-.604zm0-2c.722-.289 1.585-.253 1.917.079.332.332-.258.568-1.312.525-1.165-.048-1.402-.285-.604-.604zm-4.928 11.133c.336-.337-.73-.276-2.368.135-1.64.412-3.531.748-4.204.748-.673 0-1.013.342-.755.76.476.769 6.198-.515 7.327-1.643zm38.116.109c0-1.055-1.92-1.499-2.49-.575-.345.559.073 1.016.931 1.016.857 0 1.559-.198 1.559-.441zm-20.338-4.809c-.277-.688-.504-.125-.504 1.25s.227 1.938.504 1.25c.278-.688.278-1.813 0-2.5zm18.018-.404c-.291-.29-1.576-.183-2.855.24l-2.325.767 2.5.638c2.305.588 3.92-.404 2.68-1.645zm5.045-2.29c-.368-1.407.083-2.063 1.633-2.373 1.178-.237.369-.293-1.799-.126-2.773.214-4.329-.194-5.252-1.377-1.214-1.555-1.266-1.548-.692.098.341.978 1.48 2.238 2.53 2.8 1.051.562 1.647 1.45 1.324 1.972-.323.523.167.95 1.089.95 1.167 0 1.521-.59 1.167-1.944zm49.563-26.095c.226-15.36.092-21.494-.339-15.461-.815 11.416-1.18 42.065-.493 41.377.251-.25.625-11.913.832-25.916zm-59.559 24.435c-.332-.332-1.195-.368-1.917-.08-.797.32-.56.557.605.605 1.054.043 1.644-.193 1.312-.525zM93 143.5c0-4.034-.233-4.488-2.25-4.384-1.573.081-1.745.25-.575.559 1.97.52 1.853 5.482-.144 6.148-.974.325-.95.614.106 1.283 2.42 1.533 2.863.975 2.863-3.606zm-20.936 2.56c-1.138-.72-1.184-1.21-.224-2.367.966-1.164.902-1.578-.314-2.045-1.157-.444-1.526.133-1.526 2.383 0 2.167.473 2.965 1.75 2.954 1.437-.013 1.493-.178.314-.924zm34.665.336c-.332-.332-1.195-.368-1.917-.08-.797.32-.56.557.605.605 1.054.043 1.644-.193 1.312-.525zm10-1c-.332-.332-1.195-.368-1.917-.08-.797.32-.56.557.605.605 1.054.043 1.644-.193 1.312-.525zm-5.166-4.77c-.906-2.448-1.109-2.572-1.371-.835-.45 2.97-2.898 3.466-4.665.945-1.5-2.143-1.527-2.145-1.527-.125 0 2.842.58 3.203 4.876 3.035 3.695-.144 3.735-.188 2.687-3.02zm19.992-7.035c-.382-3.058-1.113-5.818-1.625-6.134-.511-.316-.93-1.398-.93-2.405 0-1.129-.67-1.777-1.75-1.69-1.449.114-1.802-.852-2.05-5.612-.227-4.35-.67-5.75-1.821-5.75-.837 0-2.238-.716-3.113-1.59-1.35-1.35-1.377-1.724-.178-2.464.966-.597 1.626-.332 2.091.84.434 1.093.706.355.75-2.036.07-3.724.043-3.75-3.954-3.75-3.672 0-4.078.263-4.625 3-.33 1.65-1.219 3-1.975 3s-1.34.788-1.296 1.75c.047 1.045.282 1.247.583.5.278-.687 1.566-1.25 2.864-1.25 1.82 0 2.271.456 1.974 2-.251 1.305.153 2 1.164 2 .967 0 1.333-.564.974-1.5-.316-.825-.14-1.5.393-1.5s.969.644.969 1.43c0 .787 1.013 1.626 2.25 1.864 1.243.24.395.495-1.893.57-4.033.132-6.687 2.42-4.05 3.492.656.268.18.522-1.057.565-1.237.043-2.25.577-2.25 1.186s.712.834 1.582.5c.87-.334 2.497-.607 3.616-.607 1.543 0 1.909-.484 1.512-2-.392-1.499-.03-2 1.443-2 1.126 0 1.686.451 1.312 1.057-1.517 2.455-1.158 5.906.675 6.487 1.174.373 1.86 1.533 1.86 3.146 0 2.189.221 2.371 1.542 1.275 2.367-1.964 3.394-.086 3.69 6.752.153 3.497.645 5.78 1.143 5.292.48-.472.562-3.36.18-6.418zm-15.523-26.53c-.69-1.29-.702-2.147-.035-2.56.552-.34 1.036-.48 1.077-.31 1.16 4.822.692 6.11-1.042 2.87zm3.78-2.744c.722-.289 1.585-.253 1.917.079.332.332-.258.568-1.312.525-1.165-.048-1.402-.285-.605-.604zm.527 33.289c1.471-2.246 1.452-2.364-.316-1.902-1.112.29-1.664 1.068-1.347 1.895.377.98-.244 1.401-2.069 1.401-2.702 0-3.546-1.454-1.357-2.338.687-.277.237-.54-1-.583-2.494-.088-2.874.897-1.05 2.721 1.957 1.957 5.457 1.372 7.139-1.194zm-12.964-14.659c-.679-15.872-.662-16.06 1.47-16.617 1.748-.457 2.127-1.25 2.005-4.197-.137-3.33-.186-3.387-.586-.68-.532 3.604-2.735 5.37-5.934 4.76-2.181-.418-2.31-.244-1.425 1.914.535 1.305 1.475 8.137 2.089 15.182 1.052 12.09 1.658 15.691 2.644 15.691.233 0 .115-7.224-.263-16.053zm-15.357 8.332c-.975-1.557-1.037-1.498-.498.471.503 1.842.195 2.275-1.703 2.386l-2.317.136 2.25.434c1.238.238 2.311.964 2.386 1.614.075.649.33.18.566-1.041.236-1.222-.072-3.022-.684-4zm11.167-1.45c-.544-2.93-1.065-7.129-1.158-9.329-.093-2.2-.57-5.8-1.062-8-.621-2.777-.734-.536-.37 7.332.46 9.962 1.876 17.03 3.155 15.752.234-.234-.02-2.824-.565-5.755zm14.565 3.482c-.963-.252-2.538-.252-3.5 0-.963.251-.175.457 1.75.457s2.712-.206 1.75-.457zm3.791-1.244c-.362-.587-1.42-1.015-2.35-.951-1.525.105-1.519.161.059.573.962.252 1.75.95 1.75 1.551s.27.823.6.493c.33-.33.304-1.08-.059-1.666zm17.177-4.803c-.23-1.52-.424-.514-.432 2.236-.007 2.75.18 3.994.418 2.764.237-1.23.243-3.48.014-5zm-39.718.01c0-2.534-.165-4.42-.367-4.19-.83.942-1.314 9.837-.508 9.339.481-.298.875-2.614.875-5.149zm24.43 2.403c-.326-.849-2.376-1.35-5.72-1.397l-5.21-.074 4.708.688c2.59.379 5.027 1.007 5.417 1.397 1.076 1.076 1.368.853.805-.614zm-49.509-4.082c-.046-.632-.292-.567-.583.155-.815 2.019-3.328 1.435-4.307-1-.497-1.238-.933-1.709-.968-1.047-.034.662.46 2.352 1.1 3.757 1.096 2.405 1.272 2.457 3 .892 1.01-.914 1.801-2.155 1.758-2.757zm11.424 2.862c-.326-.849-.807-1.329-1.069-1.067-.262.262-.18.957.183 1.543.986 1.596 1.562 1.286.886-.476zM92 124c0-1.65-.174-3-.387-3-.212 0-.584 1.35-.826 3s-.069 3 .386 3 .827-1.35.827-3zm25.486.977c-.274-.443.067-1.065.758-1.382.69-.317.356-.374-.744-.126-2.185.491-4.84-1.108-5.759-3.469-.32-.825-.619.322-.662 2.55-.079 4.048-.079 4.048 3.413 3.64 1.92-.223 3.268-.77 2.994-1.213zm5.514 1.117c0-.499-.9-.671-2-.384-1.1.288-2 .696-2 .907 0 .21.9.383 2 .383s2-.408 2-.906zm-35.225-4.844c1.16-.902 1.237-1.25.276-1.25-1.901 0-3.939 3.138-3.22 4.958.486 1.23.684 1.136.974-.458.2-1.1 1.087-2.563 1.97-3.25zM72 122c0-1.1-.408-2-.906-2-.499 0-.671.9-.384 2 .288 1.1.696 2 .907 2 .21 0 .383-.9.383-2zm4.965-4.95c.053-3.703-1.705-1.216-2.439 3.45-.616 3.916-.597 3.948.887 1.5.834-1.375 1.532-3.603 1.552-4.95zM49 121.585c2.846-1.027 3.526-1.807 3.64-4.174.203-4.24-.558-6.38-2.062-5.802-2.882 1.105-4.529-2.46-4.462-9.658.036-3.826.38-6.762.766-6.524.385.238.512-1.18.281-3.153-.348-2.983-.147-3.482 1.197-2.966.889.341 1.568.299 1.51-.094-.292-1.954.265-2.552 1.13-1.214.71 1.1.952.431.903-2.5l-.066-4-1.37 3.124C48.658 88.75 46 89.847 46 86.47c0-1.673.564-2.479 1.75-2.5 1.667-.028 1.667-.078 0-1.05-2.004-1.166-2.376-4.88-.5-4.998 1-.063 1-.18 0-.583-2.007-.81-1.556-4.544.5-4.148.963.186 1.75 1.006 1.75 1.824 0 2.732 1.852 2.86 3.22.223 1.207-2.325 1.136-2.826-.655-4.617-1.105-1.105-2.359-1.66-2.786-1.233-.427.427.01 1.352.973 2.055 2.415 1.766 2.207 2.862-.252 1.326-1.1-.687-2.026-1.928-2.057-2.759-.031-.83-2.323-3.236-5.093-5.348-3.634-2.769-4.902-4.353-4.554-5.685.276-1.055-.14-2.086-.97-2.404-.799-.307-1.184-.993-.856-1.524.329-.532.02-1.899-.686-3.038-1.061-1.712-1.04-2.223.124-2.947 1.396-.869 5.98.544 7.18 2.214.324.45 1.224.035 2-.922 1.038-1.279 1.065-1.53.099-.949-.785.473-2.073.102-3.205-.923-1.27-1.149-3.036-1.579-5.367-1.307-1.911.223-3.284.097-3.05-.28.233-.378-.22-.934-1.008-1.236-2.319-.89-2.409 2.616-.133 5.172 1.283 1.442 1.55 2.206.701 2-.756-.182-1.604.299-1.884 1.07-.374 1.03.083 1.247 1.724.817 1.228-.32 1.98-.33 1.67-.02-.311.31-.115 1.405.435 2.432 1.538 2.874-.197 5.02-7.524 9.305-3.64 2.128-6.869 4.277-7.177 4.777-.31.5-.082 2.118.505 3.597.587 1.48 1.246 5.155 1.465 8.167.362 4.983.613 5.479 2.78 5.5 1.867.018 2.381.563 2.381 2.523 0 1.935-.5 2.483-2.21 2.425-2.766-.094-2.938.568-2.219 8.575.321 3.575.661 5.713.756 4.75.236-2.388 4.173-2.341 4.173.05 0 2.355-1.883 4.182-3.622 3.515-.758-.291-1.44.082-1.518.828-.58 5.63-.422 9.01.446 9.546 3.809 2.354 20.081 2.921 25.694.896zm-20.667-10.041c0-.8.375-1.224.834-.941.458.283.833.938.833 1.456s-.375.941-.833.941c-.459 0-.834-.655-.834-1.456zm10.429.749c1.244-.24 3.044-.23 4 .02s-.062.446-2.262.435c-2.2-.011-2.982-.216-1.738-.455zm-8.687-2.713c-1.254-1.528-1.093-8.58.196-8.58.59 0 1.807.563 2.705 1.25.899.688.372.092-1.171-1.323-2.472-2.267-2.804-3.277-2.794-8.5C29.03 82.315 29.909 79 32.571 79c1.271 0 2.608-.48 2.971-1.068.363-.588 1.313-.818 2.111-.512.861.33 1.185.128.798-.5-.36-.58-1.283-.815-2.052-.52-.77.296-1.399.075-1.399-.49 0-.566-.445-.753-.989-.417-.566.35-.734-.051-.393-.941.328-.854.098-1.552-.511-1.552-1.82 0-1.25 3.816.643 4.31 1.102.289.755.5-.938.574-2.186.094-2.666-.304-2.573-2.134.063-1.238.54-2.813 1.06-3.5 1.25-1.652 9.833-1.605 12.119.066 2.408 1.761 1.659 5.099-1.238 5.511-2.996.427-2.616 4.262.56 5.656 2.157.946 2.24 1.462 2.191 13.75L44.881 110h-3.557c-3.12 0-3.49-.258-3.008-2.099.301-1.154.283-1.833-.042-1.509-.324.325-1.306.054-2.182-.602-1.333-1-1.389-.966-.342.208.687.771 1.25 1.936 1.25 2.588 0 1.558-5.78 2.387-6.925.994zM33 107.94c0-.582.483-.76 1.074-.395.59.365.493-.266-.216-1.401-.924-1.48-1.507-1.722-2.058-.855-1.089 1.713-.981 3.71.2 3.71.55 0 1-.477 1-1.059zm10-2.5c0-1.56-.417-2.301-1.068-1.899-.588.363-.818 1.313-.512 2.111.311.81.12 1.181-.431.84-.544-.336-.989-.134-.989.448 0 .582.675 1.059 1.5 1.059.943 0 1.5-.951 1.5-2.559zm-1.53-6.791c1.116-.428 1.53-2.071 1.53-6.073 0-4.427-.454-5.94-2.352-7.838-1.294-1.294-2.618-3.002-2.942-3.796-.49-1.2-.772-1.157-1.67.258-.594.935-1.745 2.365-2.558 3.178-.954.954-1.478 3.474-1.478 7.103 0 4.626.486 6.233 2.733 9.05l2.733 3.426 1.237-2.36c.68-1.299 1.925-2.625 2.767-2.948zm1.294-23.859c-.222-.665-2.172-1.347-4.334-1.516-3.89-.303-3.904-.291-1.43 1.174 3.043 1.802 6.315 1.996 5.764.342zM24 102.573c0-.865.563-1.58 1.25-1.588.926-.012.9-.237-.098-.87-1.738-1.101-1.082-4.615.862-4.615 2.308 0 2.058 7.863-.264 8.31-1.068.205-1.75-.277-1.75-1.237zM24 85.5c0-.833.889-1.5 2-1.5s2 .667 2 1.5-.889 1.5-2 1.5-2-.667-2-1.5zm-1-4.941c0-3.148 1.77-4.217 3.733-2.255 1.953 1.954.96 4.696-1.702 4.696C23.544 83 23 82.346 23 80.559zm18.667 1.774C40.29 80.957 41.073 79 43 79c1.333 0 2 .667 2 2 0 1.927-1.957 2.71-3.333 1.333zM25 75c0-.55.45-1 1-1s1 .45 1 1-.45 1-1 1-1-.45-1-1zm-1.766-3.38c.954-.725 1.442-1.61 1.084-1.969-.358-.358-.126-.651.515-.651.642 0 1.167.36 1.167.8 0 1.162-2.225 3.205-3.45 3.168-.578-.017-.27-.624.684-1.349zm106.45 47.192c-.32-.797-.557-.56-.605.605-.043 1.054.193 1.644.525 1.312.332-.332.368-1.195.08-1.917zm-60.302-.364c.341-.89.173-1.291-.393-.94-.544.335-.989 1.033-.989 1.551 0 1.438.717 1.121 1.382-.61zm21.79-8.37l-.398-9.923 2.863-.428L96.5 99.3l-3.097-.15c-2.099-.102-3.48-.876-4.281-2.4-.846-1.607-.983-1.679-.482-.25.386 1.1.866 5.825 1.067 10.5.34 7.904.966 13 1.597 13 .147 0 .087-4.465-.132-9.923zm22.517 3.172c-.251-.963-.457-.175-.457 1.75s.206 2.712.457 1.75c.252-.963.252-2.538 0-3.5zm-45.34 1.218c-.793-2.067-1.349-1.824-1.349.591 0 1.132.43 1.793.956 1.468.526-.325.703-1.252.393-2.059zm-2.626-7.718c-.221-1.788-.403-.325-.403 3.25s.182 5.037.403 3.25c.222-1.788.222-4.713 0-6.5zM130 113.5c0-.157-.675-.545-1.5-.862-.905-.347-1.5-.005-1.5.862s.595 1.209 1.5.862c.825-.317 1.5-.705 1.5-.862zm-67.27-.104c-.333-.332-1.196-.368-1.917-.08-.798.32-.561.557.604.605 1.054.043 1.644-.193 1.312-.525zm36.828-8.012c1.982.76 1.815.315-.808-2.15l-2.25-2.116.19 5.191c.281 7.688.624 8.786 1.048 3.356.29-3.707.715-4.705 1.82-4.281zm40.492 4.523c.616-1.151.846-3.183.512-4.516-.484-1.927-1.114-2.33-3.085-1.973-2.255.41-2.477.132-2.477-3.1 0-3.094.265-3.482 2.061-3.012 2.469.645 4.227-2.873 2.676-5.356-.69-1.104-.48-2.6.7-5.012l1.683-3.438-2.038 2.5c-1.12 1.375-2.048 2.837-2.06 3.25-.012.412-.697.75-1.522.75-2.897 0-.998-8.768 2.708-12.502 1.26-1.27 2.79-2.915 3.399-3.654C144.75 71.24 149 68.025 149 69.007c0 .546.505.993 1.122.993.776 0 .738-.464-.122-1.5-.997-1.201-.988-1.5.044-1.5.71 0 1.019-.27.688-.601-.33-.33-2.095.539-3.92 1.931-1.827 1.393-4.556 3.003-6.066 3.577-1.865.709-2.756 1.773-2.778 3.318-.037 2.674-2.156 5.775-3.945 5.775-.748 0-1.052-.78-.753-1.925.35-1.34.088-1.766-.865-1.4-1.028.394-1.11 1.008-.329 2.467 1.35 2.522.786 9.084-.826 9.614-.689.226-1.264-.412-1.28-1.423-.028-1.657-.124-1.674-.998-.176-1.238 2.122-4.618 1.306-5.293-1.278-.279-1.065-1.108-1.811-1.843-1.658-.879.184-1.254-.576-1.095-2.221l.24-2.5-1.041 2.476c-.82 1.947-.712 2.718.509 3.61 2.914 2.131 1.813 3.551-2.199 2.837-4.83-.86-4.48-.859-6.422-.005-2.306 1.015-5.828-1.071-5.828-3.453 0-1.08-.645-1.965-1.433-1.965s-1.748-1.012-2.134-2.25c-.387-1.238-1.035-2.475-1.442-2.75-.407-.275-1.049-2.075-1.426-4-.468-2.385-.377-3.05.284-2.088.822 1.198 1.222 1.16 2.632-.25 1.55-1.55 1.548-1.662-.017-1.662-1.186 0-1.482-.513-1.01-1.75.496-1.295.124-1.166-1.431.5-2.6 2.784-3.515 2.813-5.365.173-1.365-1.95-1.476-1.766-1.806 3-.256 3.697.004 5.078.957 5.078.72 0 1.03-.451.691-1.001-.34-.55-.029-1.007.691-1.015.951-.011.899-.28-.191-.985-1.27-.821-1.222-.972.317-.985 1.365-.011 1.66.483 1.183 1.985-.682 2.148.997 2.833 1.838.75.277-.688.54-.338.583.777.043 1.115 1.35 3.419 2.904 5.12 1.553 1.701 3.395 4.469 4.091 6.15 1.214 2.93 5.438 7.687 5.04 5.675-.74-3.737 1.955-4.623 5.821-1.915 2.033 1.423 2.66 1.208 2.341-.807-.065-.412.384-.75.999-.75.638 0 .883.89.573 2.079-.415 1.584-.174 1.937 1.012 1.482.856-.329 3.073-.049 4.927.622 2.691.973 3.371 1.762 3.371 3.91 0 1.482.675 2.952 1.5 3.269 1.74.667 1.857 1.548.485 3.638-.876 1.333-1.094 1.333-1.97 0-.754-1.148-.988-.746-1 1.719-.011 2.453.342 3.081 1.485 2.643.825-.317 1.507-1.09 1.515-1.719.008-.629.459-1.818 1-2.643.85-1.295 1.111-1.304 1.909-.064.762 1.185 1.197 1.209 2.488.137 1.3-1.079 1.666-1.034 2.165.266.75 1.957-.244 3.661-2.136 3.661-.793 0-1.441.45-1.441 1 0 1.822 2.91 1.036 4.05-1.093zm-7.8-8.57c-1.758-.709-1.562-3.337.25-3.337.833 0 1.5.889 1.5 2 0 1.1-.113 1.964-.25 1.921a42.475 42.475 0 0 1-1.5-.583zM117 91c0-.55.477-1 1.059-1s.78.45.441 1c-.34.55-.816 1-1.059 1s-.441-.45-.441-1zm-56.011 17.75c-.027-5.54-1.277-9.592-3.106-10.07-2.482-.65-2.41-2.73.117-3.39 2.702-.707 2.539-2.266-.25-2.39-2.21-.098-2.208-.111.15-.771l2.399-.672-2.65-1.207C55.072 89.075 55 89.133 55 92.382c0 1.836-.284 5.41-.63 7.94-.587 4.275-.445 4.687 2 5.8 1.452.662 2.63 2.022 2.63 3.039 0 1.011.45 1.839 1 1.839s.995-1.013.989-2.25zm28.011.917c0-.734-.668-1.334-1.484-1.334-1.124 0-1.215.324-.378 1.334.609.733 1.277 1.333 1.484 1.333.208 0 .378-.6.378-1.333zm-39.338-2.917c-.277-.688-.504-.125-.504 1.25s.227 1.938.504 1.25c.278-.688.278-1.813 0-2.5zm75.056-3.486c-.23-1.52-.424-.514-.432 2.236-.008 2.75.18 3.994.418 2.764.237-1.23.243-3.48.014-5zm2.634 1.236c.41-3.366.312-4.346-.301-3-.866 1.901-1.462 9.294-.68 8.417.205-.23.647-2.667.981-5.417zm-14.645-1.738c-.239-1.244-.444-.462-.455 1.738-.01 2.2.185 3.218.435 2.262s.26-2.756.02-4zm-39.463-.512C72.55 95.779 72 95.595 72 101.833c0 2.842.395 5.167.877 5.167.483 0 .648-2.138.367-4.75zm14.449.019c-.254-.973-.478-.419-.498 1.231-.02 1.65.187 2.446.46 1.769.275-.677.292-2.027.038-3zm6.895-.014c-1.092-1.092-1.841.645-1.057 2.452.744 1.713.798 1.712 1.212-.035.239-1.006.169-2.093-.155-2.417zm-31.895-.986c-.254-.973-.478-.419-.498 1.231-.02 1.65.187 2.446.46 1.769.275-.677.292-2.027.038-3zm20.996-1.019c-.251-.963-.457-.175-.457 1.75s.206 2.712.457 1.75c.252-.963.252-2.538 0-3.5zm-8.027.5c-.277-.688-.504-.125-.504 1.25s.227 1.938.504 1.25c.278-.688.278-1.813 0-2.5zm32.544-.39c.33-2.829-.09-4.153-1.89-5.954C105.041 93.133 104 91.61 104 91.02c0-.589-1.671-3.31-3.713-6.045-3.312-4.436-4.124-4.974-7.5-4.974-2.083 0-3.787.47-3.787 1.044 0 .574.563.97 1.25.881 5.388-.7 6.676 2.376 1.5 3.583l-3.25.758 2.918.617c3.707.784 4.547 3.048 1.437 3.877l-2.355.627 2.5.598c1.53.365 2.62 1.417 2.807 2.711.451 3.106 6.868 9.304 9.632 9.304 1.95 0 2.413-.61 2.767-3.64zm-11.87-9.927c-.907-2.364 1.22-4.046 3.122-2.468.848.704 1.542 1.9 1.542 2.657 0 1.901-3.923 1.742-4.664-.19zM52.942 92.19c.034-1.334-.375-2.041-.968-1.675-.564.349-.902 1.838-.75 3.31.173 1.674-.178 2.585-.938 2.436-.668-.13-1.005.432-.75 1.25 1.497 4.802 1.786 4.913 2.56.988.434-2.2.815-5.04.846-6.309zm70.023 7.875c1.4-2.615 1.302-3.382-.35-2.748-.762.292-2.262-.083-3.334-.833-1.66-1.164-1.948-1.152-1.948.075 0 .792.825 1.44 1.834 1.44 2.556 0 2.292 1.88-.417 2.969-2.173.873-2.157.906.465.968 1.706.04 3.1-.656 3.75-1.871zm-58.24-7.298c-.223-1.797-.41-.568-.415 2.732-.006 3.3.176 4.77.405 3.268.228-1.503.232-4.203.01-6zM118 99.27c-.825-.314-1.83-1.066-2.235-1.67-.453-.68-.74-.43-.75.649-.01 1.176.723 1.724 2.235 1.671 1.503-.053 1.752-.268.75-.65zM86.607 96.53c-.119-.81-.495-1.75-.836-2.092-.481-.48-.387 1.549.152 3.313.296.965.858-.038.684-1.221zm8.122-.133c-.332-.332-1.195-.368-1.916-.08-.798.32-.561.557.604.605 1.054.043 1.644-.193 1.312-.525zm72.933-2.646c-.277-.688-.504-.125-.504 1.25s.227 1.938.504 1.25c.278-.688.278-1.813 0-2.5zM76.5 95c.34-.55.141-1-.441-1S75 94.45 75 95s.198 1 .441 1 .72-.45 1.059-1zm17.23-.604c-.333-.332-1.196-.368-1.917-.08-.798.32-.561.557.604.605 1.054.043 1.644-.193 1.312-.525zm22 0c-.333-.332-1.196-.368-1.917-.08-.798.32-.561.557.604.605 1.054.043 1.644-.193 1.312-.525zM88.603 91.27c-1.016-1.017-1.855.514-1.021 1.863.63 1.02.866 1.02 1.204.004.232-.695.15-1.535-.183-1.867zm.872-1.947c-1.112-.222-2.607-1.723-3.321-3.336-1.297-2.93-1.3-2.93-3.404-.97-1.158 1.078-1.776 2.29-1.374 2.692.403.403 1.15.07 1.662-.739.687-1.086.934-1.128.946-.162.008.72.46 1.034 1.004.698.566-.35.734.051.393.941-.471 1.227.108 1.523 2.761 1.416 1.905-.077 2.482-.311 1.333-.54zM78.466 86c.752 0 1.519-.338 1.704-.75.185-.412 1.645-1.875 3.244-3.25 1.6-1.375 2.587-1.941 2.193-1.258-.393.683-.249 2.033.322 3 .75 1.27.919-.81.61-7.496C86.07 66.024 85.747 65 82.993 65 81.088 65 76 59.297 76 57.164c0-.63-.926-1.713-2.057-2.406-1.131-.692-2.968-2.72-4.081-4.508-1.114-1.788-2.663-3.25-3.444-3.25-1.876 0-1.82 1.632.082 2.362.868.333 1.5 1.828 1.5 3.548 0 3.118-1.507 5-2.28 2.846-.249-.69-.393.175-.322 1.925.072 1.75.505 3.55.961 4 .457.45.676-.034.486-1.077-.19-1.043.154-2.072.763-2.286.662-.233 1.065.793 1 2.548-.06 1.615-.414 2.75-.789 2.52-.374-.23-.963.039-1.309.598-.95 1.536 4.067 1.231 5.359-.326.612-.738.818-1.638.456-2-.362-.362-.246-.658.258-.657.504 0 1.02 4.163 1.144 9.25.317 12.935 1.244 19.552 2.44 17.416.513-.917 1.548-1.667 2.3-1.667zm-2.576-2.25c-.06-.138-.232-1.713-.383-3.5-.211-2.514.117-3.25 1.448-3.25 1.275 0 1.755.907 1.853 3.5.092 2.472-.3 3.5-1.338 3.5-.809 0-1.52-.113-1.58-.25zm-.361-8.704c-.744-1.202.243-5.054 1.288-5.03 1.773.04 3.344 1.908 3.02 3.592-.405 2.102-3.3 3.069-4.308 1.438zm2.154-2.234c-.32-.797-.556-.56-.604.605-.043 1.054.193 1.644.525 1.312.332-.332.368-1.195.08-1.916zm.86-3.743c-.317-.512-.193-1.167.274-1.456.467-.289.85.13.85.931 0 1.686-.316 1.833-1.124.525zm-3.903-1.843c-.932-1.508.52-5.226 2.043-5.226.984 0 1.348.86 1.133 2.673-.319 2.694-2.17 4.182-3.176 2.553zm2.043-3.413c-.32-.798-.556-.561-.604.604-.043 1.054.193 1.644.525 1.312.332-.332.368-1.195.08-1.916zM69.5 61c.34-.55.816-1 1.059-1s.441.45.441 1-.477 1-1.059 1-.78-.45-.441-1zm-8.701 23.368c.164-.073-.033-1.423-.438-3l-.737-2.868-.603 2.5c-.38 1.572-1.423 2.619-2.812 2.82-1.384.2-2.209 1.023-2.209 2.203 0 1.808.13 1.816 3.25.18 1.788-.936 3.384-1.762 3.549-1.835zm1.451 2.97c-.688-.278-1.813-.278-2.5 0-.688.277-.125.504 1.25.504s1.938-.227 1.25-.504zM169 85.5c0-1.54-.568-2.5-1.479-2.5-1.214 0-1.274.447-.339 2.5.626 1.375 1.292 2.5 1.479 2.5.186 0 .339-1.125.339-2.5zm-96.31-3.25c-.252-.963-.458-.175-.458 1.75s.206 2.712.457 1.75c.252-.963.252-2.538 0-3.5zM109 86c0-.55.338-.934.75-.853 1.503.294 9.167-1.407 9.091-2.018-.349-2.815.393-3.903 2.573-3.773 1.764.105 2.145.47 1.414 1.35-.55.664-.672 1.737-.272 2.385.491.794 1.143.405 1.999-1.193.698-1.305 1.057-2.716.798-3.135-.68-1.102 1.035-.938 2.45.233.663.548.605.305-.126-.54-1.04-1.202-1.916-1.316-4.004-.522-1.485.565-2.673.618-2.673.12 0-1.455 5.94-2.349 7.424-1.117 1.585 1.316 2.576-.524 2.576-4.783 0-2.187-.76-3.012-4.118-4.466-5.08-2.2-6.272-1.371-2.432 1.69 1.588 1.267 2.565 2.789 2.185 3.404-.442.715.037.974 1.338.723 1.115-.215 2.027.007 2.027.493 0 1.712-1.673 1.884-4.427.456-2.504-1.3-2.722-1.283-2.167.162.506 1.318.12 1.491-2.145.965-1.797-.418-2.287-.326-1.404.264 1.103.736 1.114 1.055.059 1.707-.76.47-1.46.315-1.69-.375-.216-.647-1.143-1.17-2.06-1.162-1.008.01-1.247.306-.604.75 1.157.801-.577 5.205-2.186 5.548-.482.103-.752.558-.601 1.011.15.454-.208.526-.799.161-.6-.37-.712-1.175-.255-1.824.955-1.355.895-12.855-.075-14.425-.363-.587-.218-2.23.322-3.652.756-1.988.671-2.584-.368-2.584-.742 0-2.826-.295-4.63-.656-2.357-.471-3.08-.33-2.566.5.393.636 1.772 1.156 3.065 1.156 2.33 0 2.339.041 1.025 5.02-.728 2.762-2.317 5.826-3.53 6.809-1.847 1.495-2.083 2.348-1.444 5.229.646 2.912.874 3.134 1.482 1.442.566-1.574.874-1.095 1.447 2.25.4 2.338 1.137 4.25 1.639 4.25s.912-.45.912-1zm-1.303-4.348c-.358-.932-.16-1.526.464-1.39.599.13 1.284-.29 1.522-.935s-.606-1.371-1.875-1.614c-2.05-.391-2-.456.442-.577 3.041-.15 3.546 1.393 1.41 4.313-1.203 1.646-1.402 1.667-1.963.203zM126.5 70c-1.08-1.192-1.33-2-.624-2 .653 0 1.445.672 1.76 1.494.316.822 1.046 1.203 1.623.846.613-.38.753-.169.336.505-.931 1.508-.977 1.495-3.095-.845zm1.766 14.032c.396 2.12.48 2.168.598.34.075-1.17-.539-2.687-1.364-3.372-1.223-1.015-1.5-.96-1.5.296 0 .847-.256 2.365-.57 3.372-.312 1.008.094.721.903-.636l1.47-2.468zm11.746-1.782c2.055-3.49 2.07-3.624.198-1.935C138.51 81.85 136.527 86 137.495 86c.169 0 1.302-1.688 2.517-3.75zm-46.743 1.094c-.677-.274-2.027-.29-3-.037-.973.254-.419.478 1.231.498 1.65.02 2.446-.187 1.769-.46zM144.5 81c.995-1.1 1.585-2 1.31-2-.275 0-1.315.9-2.31 2-.995 1.1-1.585 2-1.31 2 .275 0 1.315-.9 2.31-2zM8.718 75.264c-.23-1.52-.424-.514-.432 2.236-.007 2.75.18 3.994.418 2.764.237-1.23.243-3.48.014-5zm48.894 3.93c.062-1.178-.283-1.897-.766-1.599-.483.299-.623.957-.31 1.463.312.505-.136.65-.995.32-1.148-.441-1.395-.16-.93 1.053.86 2.24 2.862 1.413 3.001-1.238zM70.13 78c1.094 0 1.723-.43 1.398-.956-.325-.526-1.252-.703-2.059-.393-1.064.408-1.468-.169-1.468-2.094 0-1.46-.746-4.096-1.658-5.857-.912-1.76-1.815-4.936-2.008-7.058-.424-4.68-1.284-6.34-2.372-4.58-.449.725-.117 2.298.77 3.651 1.303 1.989 1.348 2.77.277 4.77-1.105 2.066-.989 2.886.855 6.012C65.04 73.485 66 75.952 66 76.975c0 1.024.333 2.686.741 3.693.664 1.642.775 1.598 1.07-.418.214-1.47 1.018-2.25 2.318-2.25zm92.671.333c-3.182-3.182-4.236-3.644-7.983-3.497-2.374.093-4.467.618-4.65 1.166-.184.55-.971.998-1.75.998-.78 0-1.417.427-1.417.949s1.56.297 3.468-.5c5.435-2.27 8.784-1.84 12.032 1.551 1.58 1.65 3.12 3 3.42 3 .3 0-1.103-1.65-3.12-3.667zm6.925-4.565c-.223-1.797-.41-.568-.415 2.732-.006 3.3.176 4.77.405 3.268.228-1.503.232-4.203.01-6zm-3.063-1.44c-.264-.263-1.638-.332-3.053-.153l-2.575.325 2.733 3.49 2.733 3.492.32-3.337c.177-1.836.105-3.553-.158-3.816zM58.849 75c1.56 0-1.875-6.812-4.743-9.405C52.948 64.547 52 62.672 52 61.428c0-2.01-.495-2.261-4.46-2.261-2.454 0-4.929-.29-5.5-.643-.572-.353-1.04-.053-1.038.667.001.72 2.363 2.865 5.25 4.767 2.886 1.902 6.483 4.572 7.993 5.933 2.558 2.305 2.643 2.63 1.25 4.756-2.032 3.103-1.881 4.013.334 2.008 1.006-.91 2.365-1.655 3.02-1.655zm78.16-5.88c-.925-2.03-1.323-2.236-2.062-1.068-1.127 1.78-1.236 4.245-.16 3.58.434-.269.855.717.935 2.19.128 2.338.037 2.424-.717.678-1.028-2.38-1.31-.46-.315 2.135.571 1.487.93 1.21 2.078-1.6 1.078-2.644 1.132-3.96.24-5.915zm12.781 3.801c.95-.044 1.179-.295.515-.565-1.739-.707-5.085 1.345-6.386 3.917-.953 1.884-.719 1.803 1.518-.523 1.454-1.513 3.413-2.786 4.353-2.829zM89.97 50.353c-1.534-7.388-2.705-7.46-2.577-.157.069 3.94.555 6.287 1.357 6.554 1.733.578 1.577 4.25-.18 4.25-.787 0-1.626-1.012-1.864-2.25-.321-1.665-.469-1.424-.57.929-.075 1.748.571 3.885 1.436 4.75.864.864 1.47 2.584 1.345 3.821-.124 1.238.182 3.6.679 5.25 1.393 4.623 1.735-16.587.374-23.147zM72 71.358c0-1.389-.484-2.363-1.075-2.166-.591.197-1.041.684-1 1.083.041.399.075 1.652.075 2.784s.45 1.78 1 1.441c.55-.34 1-1.754 1-3.142zm61.236-4.608c-.195-.412-.985-.75-1.756-.75s-2.3-.964-3.398-2.143c-1.386-1.487-3.615-2.293-7.29-2.636l-5.292-.495 1.863 2.09c1.024 1.15 1.97 3.47 2.103 5.158.133 1.687.59 3.395 1.015 3.797.426.4.57-.733.32-2.521-.25-1.788-.056-3.25.431-3.25s.612-.443.277-.985c-1.034-1.674 5.878.09 7.284 1.859.711.894 1.611 1.401 2 1.126.389-.275.9 1.3 1.137 3.5l.43 4 .615-4c.338-2.2.455-4.338.26-4.75zm-72.114 4.575c-1.179-2.027-1.463-1.378-.498 1.136.342.894.834 1.415 1.091 1.157.258-.257-.01-1.29-.593-2.293zM120 73.559c0-.243-.45-.72-1-1.059-.55-.34-1-.141-1 .441S118.45 74 119 74s1-.198 1-.441zm-3.56-3.22c.855.328 1.175-.343.985-2.069-.342-3.116-2.872-5.974-3.866-4.366-.391.634.086 1.13 1.132 1.175 1.23.054 1.372.252.446.621-1.145.455-1.147.676-.008 1.38 1.079.666 1.102 1.09.113 2.078-.683.683-1.19 1.94-1.126 2.792.084 1.123.246 1.047.588-.273.26-1.003 1.04-1.605 1.737-1.338zm41.81.955c-1.238-.238-3.263-.238-4.5 0-1.238.239-.225.434 2.25.434s3.487-.195 2.25-.434zm-16.655-1.449c.471-.761.271-.88-.586-.35-1.003.62-1.146.14-.624-2.096.426-1.828.346-2.405-.219-1.56-.702 1.052-1.619.709-4.28-1.603-3.509-3.05-7.156-5.262-8.57-5.2-.449.019.309.657 1.684 1.418 1.375.761 2.393 1.758 2.261 2.215-.131.457.401.837 1.183.844 1.844.016 6.556 4.445 6.556 6.161 0 1.632 1.626 1.74 2.595.171zM154 69c0-.55-.45-1-1-1s-1 .45-1 1 .45 1 1 1 1-.45 1-1zm7.5-.945c-2.2-1.041-3.362-1.93-2.583-1.974.779-.045 1.146-.351.816-.681-.33-.33-1.102-.29-1.715.089-.8.495-.749 1.14.183 2.287 1.11 1.365 1.048 1.504-.419.955-.945-.354-1.984-.213-2.309.313-.348.563 1.589.945 4.718.93l5.309-.026-4-1.893zm-58.604-2.67c2.351-1.006 2.094-1.112-2.646-1.088-2.888.015-5.25.185-5.25.378 0 .194.544 1.223 1.209 2.288.967 1.549 1.495 1.696 2.645.736.79-.66 2.61-1.7 4.042-2.314zM167.268 67c-.942-1.1-1.795-2-1.897-2-.1 0 .052.9.34 2 .287 1.1 1.14 2 1.896 2 1.052 0 .972-.469-.339-2zM60.673 62.34c-.143-.143-1.238-.005-2.432.307-2.09.547-2.107.656-.457 2.858l1.716 2.29.717-2.597c.394-1.429.6-2.715.456-2.858zm94.453-.496c3.207-.96 3.641-1.41 2.829-2.929-.867-1.62-1.227-1.655-3.708-.36-1.51.788-3.422 1.474-4.247 1.523-.825.05-3.04 1.882-4.924 4.071l-3.425 3.98 4.843-2.575c2.663-1.416 6.548-3.085 8.632-3.71zM8.745 43.797c-.186-4.563-.339-1.097-.34 7.703-.001 8.8.15 12.534.337 8.297.187-4.236.188-11.436.003-16zM92.662 62.75c-.277-.688-.504-.125-.504 1.25s.227 1.938.504 1.25c.278-.688.278-1.813 0-2.5zm64.102 2.406c.955-.464 2.767-1.38 4.027-2.034 1.26-.654 2.835-.877 3.5-.495.665.383.084-.615-1.291-2.216-1.375-1.6-2.617-3.103-2.76-3.338-.144-.235.025 1.003.375 2.75.49 2.447.288 3.177-.875 3.177-2.21 0-8.583 2.914-6.476 2.96.97.022 2.545-.34 3.5-.804zM84.693 60.27c-.254-.973-.478-.419-.498 1.231-.02 1.65.187 2.446.46 1.769.275-.677.292-2.027.038-3zm54.092-3.027c-.266-3.717-1.248-8.237-2.183-10.044-3.304-6.39-13.678-10.35-26.315-10.045-4.283.103-9.7-.154-12.037-.57L94 35.823v5.466c0 6.241 2.092 12.113 4.713 13.227.983.418 7.637.865 14.787.994 11.14.2 13.692.56 17.835 2.512 2.66 1.253 5.356 3.11 5.99 4.127.636 1.018 1.333 1.85 1.55 1.85.217 0 .176-3.041-.09-6.758zm10.215.492c2.233-.412 2.174-.476-.559-.598-3.296-.147-5.89-1.736-6.747-4.136-.295-.825-.553 1.425-.574 5l-.039 6.5 2.71-3.152c1.49-1.734 3.834-3.36 5.209-3.614zm-91.801 2.54c1.28.14 2.165-.418 2.335-1.472.23-1.425-.03-1.51-1.605-.525-1.537.96-2.123.84-3.215-.654-1.18-1.613-1.278-1.375-.838 2.025.274 2.119.67 3.075.88 2.126.233-1.056 1.181-1.638 2.443-1.5zm43.53 2.122c-.332-.332-1.195-.368-1.916-.08-.798.32-.561.557.604.605 1.054.043 1.644-.193 1.312-.525zM95.75 60.92c-.963-.56-1.75-1.672-1.75-2.47 0-.797-.436-1.45-.969-1.45-1.168 0-.112 3.202 1.396 4.235.59.404 1.523.728 2.073.72.55-.009.212-.474-.75-1.035zm15.652-2.87c-12.774-.539-15.137-1.148-17.637-4.55-.415-.565-.741-.238-.75.75-.008.962.435 1.75.985 1.75s1 .787.998 1.75c-.001 1.608 1.197 1.714 14.75 1.301l14.752-.448zm-70.519-5.3c-1.157-.962-2.49-1.75-2.962-1.75-1.24 0 .181 3.295 2.01 4.665 2.55 1.909 3.448-.84.952-2.915zm6.906 2.86c-.837-.902-1.516-1.026-1.938-.354-.366.585-.86.21-1.134-.86-.41-1.607-.503-1.553-.601.354-.091 1.773.422 2.25 2.423 2.25 2.12 0 2.327-.23 1.25-1.39zm11.274-4.406c.535-3.937.368-4.272-3.5-7.031-2.235-1.594-5.534-3.65-7.331-4.57-2.882-1.475-3.337-1.494-3.849-.16-.354.924-2.5 1.769-5.504 2.167-8.133 1.08-6.991 3.13 1.378 2.476 1.728-.135 2.98.368 3.356 1.35.33.86 1.363 1.564 2.294 1.564C47.919 47 50 48.88 50 50.7c0 .715-.775 1.3-1.723 1.3-1.396 0-1.29.303.562 1.6 2.102 1.472 2.432 1.464 4.16-.098 2.15-1.946 4.212-1.216 3.298 1.166-.42 1.093-.166 1.456.794 1.137.775-.257 1.662-2.328 1.972-4.601zM55 51c-.989-.611-1.15-1.25-.483-1.917.62-.62 1.563-.652 2.483-.083.989.611 1.15 1.25.483 1.917-.62.62-1.563.652-2.483.083zm7.097.066c.643.978.88-.233.745-3.804-.187-4.944-.962-6.295-1.428-2.492-.605 4.931-1.096 10.344-.707 7.796.343-2.254.666-2.602 1.39-1.5zM159.5 55c-.34-.55-1.379-.968-2.309-.93-1.379.058-1.321.23.309.93 2.676 1.15 2.71 1.15 2 0zM28.667 51.5c0-.825-.488-1.507-1.084-1.515-.596-.009-.483-.396.25-.861 1.075-.68 1.026-.964-.25-1.453-1.918-.737-2.2 2.311-.383 4.129 1.498 1.498 1.467 1.504 1.467-.3zM66 51.559c0-.243-.45-.72-1-1.059-.55-.34-1-.141-1 .441S64.45 52 65 52s1-.198 1-.441zm26.683-2.746c-.32-.798-.556-.561-.604.604-.043 1.054.193 1.644.525 1.312.332-.332.368-1.195.08-1.917zm46.441-3.08c-.988-.98-1.102-.865-.56.56.376.986.935 1.541 1.243 1.233.308-.307 0-1.114-.683-1.793zM29.002 42.25c-.928-1.48-.997-1.384-.443.625.441 1.599.297 2.154-.44 1.698-.703-.434-.867-.08-.459.985.583 1.516.716 1.521 1.539.051.562-1.004.488-2.267-.197-3.359zm-3.309.019c-.254-.973-.478-.419-.498 1.231-.02 1.65.187 2.446.46 1.769.275-.677.292-2.027.038-3zm66.17-2.019c-.083-2.321-.3-2.893-.569-1.5-.332 1.723-1.12 2.25-3.364 2.25-1.611 0-2.93.388-2.93.861 0 .474 1.072.657 2.383.406 1.31-.25 2.687.037 3.059.639 1.18 1.91 1.562 1.2 1.422-2.656zM138 43.655c0-.19-1.012-1.202-2.25-2.25L133.5 39.5l1.905 2.25c1.79 2.114 2.595 2.705 2.595 1.905zM32.25 40.338c-.688-.278-1.25-.944-1.25-1.48 0-.537.457-.693 1.017-.348.559.346 2.921.791 5.25.99 2.996.257 3.623.117 2.146-.476C36.27 37.76 31.8 37.534 29 38.495l-2.5.858 2.5.724c2.872.831 5.11 1.011 3.25.26zm21.75.197c0-.255-1.013-.955-2.25-1.555-2.16-1.047-2.173-1.029-.309.465C53.481 41.079 54 41.3 54 40.535zm-12.5-3.727c-2.313-.567-1.97-.653 1.5-.373 3.656.294 4.09.17 2.316-.66-1.263-.59-3.796-.706-6-.273l-3.816.748 3.5 1.244c1.925.683 3.95.974 4.5.646.55-.329-.35-.928-2-1.332zm77.284-1.542c-2.595-.205-7.095-.207-10-.004-2.906.202-.784.37 4.716.373 5.5.002 7.878-.163 5.284-.369zm-22.756-2.39c-1.36-.537-2.815-1.516-3.234-2.176-.498-.782-.768-.504-.777.8-.01 1.557.707 2.039 3.235 2.175 3.082.167 3.122.126.776-.8zM17.102 10.21c-3.52-.172-6.762.048-7.205.488-.444.441 2.436.582 6.398.313l7.205-.488zM233 11c0-.64-7.105-.922-19.75-.783l-19.75.218L213 11c10.725.311 19.613.663 19.75.783.137.12.25-.233.25-.783zm-200.25-.716c-1.512-.23-3.987-.23-5.5 0-1.512.229-.275.416 2.75.416s4.263-.187 2.75-.416z"/></svg>