<svg xmlns="http://www.w3.org/2000/svg" width="244" height="419" viewBox="0 0 244 419"><path d="M3.25 409.962L1 409.064V6l13.75-.048c7.563-.027 39.625-.291 71.25-.588s76.842-.613 100.482-.702l42.982-.162 1.164 2.5c.867 1.863 1.288 52.973 1.652 200.7.45 182.517.359 198.316-1.146 199.664-1.392 1.247-13.053 1.556-78.634 2.083-42.35.34-92.75.797-112 1.016-19.418.22-36.002-.002-37.25-.5zm59.56-2.486c-.288-.288-13.175-.532-28.637-.541-23.903-.016-28.343-.248-29.646-1.55-1.367-1.368-1.505-22.705-1.28-198.709L3.5 9.5l23-.538 23-.538-23.5.038L2.5 8.5l-.252 197.811c-.173 135.218.075 198.425.785 199.75.99 1.852 2.372 1.939 30.669 1.939 16.297 0 29.396-.236 29.108-.524zm14.47-.207c-2.32-.21-6.37-.212-9-.006-2.629.207-.73.379 4.22.382 4.95.003 7.101-.166 4.78-.376zm35.45.127c-.333-.332-1.196-.368-1.918-.08-.797.32-.56.557.605.605 1.054.043 1.644-.193 1.312-.525zm16.02-.131c-2.612-.206-6.888-.206-9.5 0s-.475.374 4.75.374 7.362-.168 4.75-.374zm32-.993c-2.063-.216-5.438-.216-7.5 0-2.063.215-.375.392 3.75.392s5.813-.177 3.75-.392zm68.223-.739c.932-1.124 1.208-18.24 1.18-73.109-.02-39.403-.288-71.893-.595-72.2-.307-.306-.558 31.863-.558 71.487 0 58.84-.245 72.247-1.334 73.151-.893.741-11.237 1.2-31.25 1.388l-29.916.28 30.628.235c25.9.199 30.815.008 31.845-1.232zm-90.798-1.777c47.672-.15 86.994-.592 87.383-.98.945-.946 1.544-119.993.611-121.502-.421-.683-3.692-1.28-7.77-1.42-6.275-.216-7.733.117-13.389 3.06-3.49 1.817-10.884 4.76-16.428 6.542-10.583 3.398-15.48 5.62-23.264 10.557l-4.71 2.987h4.99c6.085 0 19.63-3.824 30.549-8.625 5.27-2.317 9.026-3.387 10.73-3.058 16.066 3.101 21.052 5.312 18.087 8.02-1.674 1.53-11.207 4.663-14.186 4.663-1.095 0-4.981.655-8.635 1.456a802.781 802.781 0 0 1-14.143 2.93c-12.396 2.435-28.255 6.58-29.671 7.756-1.927 1.6-1.655 5.63.421 6.227 1.757.506 27.092 5.77 39.25 8.155 3.575.7 6.688 1.095 6.917.875.229-.22-.109-.399-.75-.399-.642 0-1.167-.708-1.167-1.573 0-.97.672-1.435 1.75-1.212.963.199 1.693 1.1 1.623 2.003-.162 2.087 3.518 3.478 10.946 4.136 6.396.567 8.681 1.853 8.681 4.885 0 1.608-.436 1.86-2.25 1.297-1.238-.384-5.4-1.304-9.25-2.044-3.85-.741-11.05-2.234-16-3.318-15.25-3.34-15.339-3.34-8.781-.187 6.506 3.13 9.706 7.09 9.092 11.252-.342 2.317-4.31 3.897-13.811 5.5l-5.5.927 3.682 1.652c2.025.908 3.976 2.128 4.336 2.71 1.136 1.84-1.45 3.758-5.81 4.31-2.314.293-5.64.833-7.389 1.2-2.02.425-5.114.026-8.477-1.09-3.138-1.043-7.686-1.674-11.16-1.548-4.12.148-6.634-.294-8.456-1.487-1.969-1.29-4.533-1.657-10.66-1.525-8.574.185-27.23 1.774-31.817 2.71-2.047.418-2.924.109-3.43-1.208-.373-.974-.196-1.931.395-2.128.59-.197.82-1.325.512-2.506-.54-2.065-.592-2.073-1.324-.202-.704 1.799-.767 1.776-.832-.304-.087-2.787 1.927-2.978 2.64-.25.41 1.57 1.364 2 4.438 2 2.557 0 4.114-.52 4.49-1.5.694-1.807 2.71-1.924 5.297-.308 1.405.877 2.819.912 5.355.134 1.895-.582 5.755-.836 8.578-.565l5.132.493v-4.127c0-3.002.409-4.127 1.5-4.127.825 0 1.5.459 1.5 1.019 0 .597 1.072.75 2.587.37 2.275-.571 2.546-.372 2.25 1.653-.418 2.858-2.506 3.7-3.137 1.263-.37-1.426-.492-1.333-.584.445-.09 1.736.428 2.25 2.267 2.25 2.582 0 3.58-2.107 3.603-7.611.013-2.782-.25-3.061-2.486-2.634-3.03.58-3.45-2.047-.799-4.977 1.766-1.952 1.988-8.489.344-10.133-.478-.478-.789-.036-.702.996.125 1.472-.617 1.898-3.593 2.065-2.714.152-3.75-.193-3.75-1.248 0-.802.477-1.458 1.059-1.458s.73.563.328 1.25c-.402.688.36.355 1.691-.74 1.332-1.093 2.516-2.012 2.63-2.04.114-.029-3.756-.158-8.6-.288-4.845-.13-10.336-.674-12.202-1.209-1.866-.535-5.054-.973-7.084-.973-2.03 0-4.959-.487-6.507-1.082-1.548-.596-5.065-1.456-7.815-1.912-2.75-.456-5.627-.981-6.393-1.168-2.103-.51-5.958 14.375-4.278 16.52.492.628 1.179 3.32 1.526 5.983.88 6.748 4.101 13.586 8.17 17.346 2.186 2.02 3.895 4.855 4.667 7.743l1.219 4.555 61.544.257c53.926.226 61.545.444 61.545 1.758 0 1.324-12.917 1.5-110.25 1.5H5l.011 11c.006 6.05.288 12.678.627 14.728l.617 3.729 18.582.271c10.22.15 20.4.166 22.623.036 2.222-.13 43.044-.358 90.715-.508zM26.67 389.64c.385-4.119.21-6.596-.494-7.032-.598-.37-.834-1.333-.524-2.14.423-1.104 2.364-1.468 7.834-1.468 8.719 0 10.485 1.244 8.515 6-1.043 2.517-1.8 3-4.71 3h-3.466l.676 4 .676 4h-9.1zm5.07-1.59c-.364-4.004-.164-6.104.61-6.42.633-.26-.026-.508-1.465-.551-2.495-.075-2.583.097-1.916 3.748.385 2.104.647 5.03.583 6.5-.074 1.699.401 2.673 1.305 2.673 1.13 0 1.311-1.22.882-5.95zm7.761-4.536c0-1.238-.754-2.08-2-2.233-1.1-.135-1.438.008-.75.32 2.04.923 1.424 3.223-1 3.738-1.511.321-1.265.426.75.32 2.273-.12 3-.64 3-2.145zM37 394.36c0-.902.674-2.14 1.499-2.75.824-.61 2.77-3.585 4.326-6.61 3.964-7.71 6.077-7.777 9.49-.298 2.4 5.256 2.648 5.507 2.666 2.683.01-1.713.952-4.301 2.092-5.75 2.039-2.593 2.27-2.635 14.44-2.635 7.24 0 12.628.418 12.993 1.009 1.077 1.744-.558 4.991-2.514 4.991-1.03 0-2.152-.45-2.492-1-.34-.55-1.379-.971-2.309-.937-1.225.046-1.071.313.559.968 2.887 1.16 3.079 4.969.25 4.969-1.1 0-2 .486-2 1.08 0 .672 1.1.837 2.916.438 3.447-.757 7.084 1.16 7.084 3.735 0 1.633-1.416 1.766-18.113 1.697-12.06-.05-18.787-.471-20.13-1.262-1.578-.929-2.117-.915-2.471.062-.257.71-2.144 1.25-4.37 1.25-2.963 0-3.916-.4-3.916-1.64zm6-1.297c0-.515 1.462-1.118 3.25-1.34l3.25-.403-3.643-.16c-2.428-.107-3.835.34-4.219 1.34-.316.825-.14 1.5.393 1.5s.969-.421.969-.937zm11.381.172c-.615-.404-2.338-3.152-3.828-6.107-1.845-3.656-3.036-5.045-3.731-4.35-.696.696-.352 1.692 1.078 3.122 1.155 1.155 2.1 2.91 2.1 3.9 0 2.216 1.877 4.205 3.95 4.185 1.01-.01 1.16-.271.431-.75zm12.369-.221c.688-.008 1.25-.904 1.25-1.993 0-1.74-.296-1.843-2.47-.853-3.404 1.551-5.734-.451-5.331-4.578.246-2.516.852-3.198 3.301-3.717 2.953-.626 2.958-.638.323-.755-2.955-.13-6.823 3.826-6.823 6.978 0 2.67 4.092 6.116 6.495 5.47 1.103-.296 2.568-.545 3.255-.552zm7.21-2.156c-1.025-3.57-.408-5.244 1.641-4.458.77.296 1.399.101 1.399-.431 0-.533-.675-.969-1.5-.969s-1.5-.734-1.5-1.632c0-1.326.748-1.53 4-1.095 2.2.295 4 .13 4-.368S79.075 381 75.5 381c-3.667 0-6.5.436-6.5 1 0 .55.563.887 1.25.75.884-.177 1.25 1.434 1.25 5.502 0 4.72.301 5.751 1.68 5.75 1.408-.002 1.534-.51.78-3.144zm7.77 2.538c-.333-.332-1.196-.368-1.917-.08-.798.32-.561.557.604.605 1.054.043 1.644-.193 1.312-.525zM47.361 388.5c-.317-.825-.705-1.5-.862-1.5-.157 0-.545.675-.862 1.5-.347.905-.005 1.5.862 1.5s1.209-.595.862-1.5zm18.435-1.354c1.033-.655.973-1.092-.292-2.142-1.797-1.491-4.224.024-3.059 1.909.797 1.29 1.598 1.346 3.351.233zm30.936 7.104c-3.423-3.798-2.922-10.929.968-13.774.995-.727 6.012-1.241 12.961-1.328 10.553-.132 11.338-.009 11.338 1.773 0 4.334-3.048 7.025-4.338 3.829-.277-.688-.54-.035-.583 1.45-.043 1.485-.867 3.173-1.829 3.75-1.667 1-1.667 1.1 0 2.1.962.577 1.75 1.702 1.75 2.5 0 2.338-18.131 2.07-20.267-.3zM108.91 390c.6 0 1.09.9 1.09 2s.45 2 1 2 1-1.575 1-3.5c0-2.444.452-3.5 1.5-3.5.825 0 1.5-.45 1.5-1s-.723-1-1.607-1c-1.018 0-1.396-.55-1.031-1.5.35-.914.002-1.5-.893-1.5-.838 0-1.496.967-1.532 2.25l-.064 2.25-.904-2.25c-.498-1.238-1.102-2.25-1.343-2.25-.241 0-.19 1.012.113 2.25.507 2.064.37 2.023-1.666-.5-1.22-1.512-3.06-2.75-4.089-2.75-3.789 0-6.412 7.243-3.984 11 .694 1.073.974-.003.985-3.781.016-5.648 1.69-7.537 4.9-5.527 1.763 1.103 2.738 7.703 1.43 9.675-.448.675-.068.419.845-.57.913-.988 2.15-1.797 2.75-1.797zm-5.1-1.673c-.408-4.83-2.81-5.751-2.81-1.077 0 1.88.3 3.717.667 4.083 1.588 1.589 2.432.406 2.143-3.006zM120 382c0-.55-1.462-.947-3.25-.882l-3.25.119 3 .763c1.65.42 3.112.817 3.25.882.138.065.25-.332.25-.882zm15.654 8.368c-1.726-3.52-3.558-5.761-5.228-6.396-1.663-.632-2.454-1.595-2.238-2.725.27-1.423 1.6-1.802 7.162-2.045 6.722-.293 9.832.744 9.545 3.181-.326 2.76.189 4.683 1.101 4.12.548-.34.885-2.053.75-3.81l-.246-3.193 5.896-.144c5.184-.126 6.194.176 8.36 2.5 1.357 1.454 2.937 3.769 3.512 5.144.939 2.242 1.093 2.3 1.498.566.25-1.068-.269-2.46-1.157-3.11-.885-.647-1.609-2.14-1.609-3.316 0-1.866.57-2.14 4.443-2.14 3.458 0 4.789.493 6 2.223l1.557 2.222v-2.222c0-2.067.452-2.223 6.435-2.223 3.54 0 7.662.467 9.163 1.037 1.884.716 3.049.716 3.765 0 1.445-1.445 7.185-1.299 8.381.213 1.935 2.443 2.386 11.12.703 13.522-2.054 2.932-10.428 3.314-10.477.478-.03-1.667-.08-1.667-1.05 0-.836 1.435-2.455 1.75-9.003 1.75h-7.984l-2.065-3.5c-1.136-1.925-2.218-3.5-2.404-3.5-.186 0-.083 1.575.23 3.5l.568 3.5h-5.145c-2.83 0-6.038-.558-7.13-1.24-1.582-.988-2.393-.988-3.979.002-1.17.731-5.024 1.199-9.344 1.134l-7.352-.11-2.658-5.419zm11.151 1.059c.933-1.798.787-2.063-1.107-2-1.712.057-2.384-.735-3.116-3.677-.871-3.496-1.188-3.75-4.662-3.75h-3.728l2.904 5.361c2.526 4.663 3.23 5.3 5.404 4.884 1.616-.31 2.5-.024 2.5.805 0 1.504.341 1.197 1.805-1.623zm-7.726-4.177c.055-1.22.243-1.337.621-.387.458 1.151.677 1.151 1.406 0 .676-1.067.867-.983.879.387.008.963-.66 1.75-1.485 1.75-.825 0-1.464-.787-1.421-1.75zM152 393.06c0-.516 1.688-1.084 3.75-1.261l3.75-.323-3.818-.545c-3.018-.431-4.02-.167-4.785 1.262-.643 1.202-.62 1.807.068 1.807.57 0 1.035-.423 1.035-.94zm17-3.06c0-2.2.429-4 .953-4s2.4 1.8 4.167 4c2.495 3.105 3.904 4 6.297 4.002l3.083.002-.335-5.927c-.33-5.84-.293-5.934 2.5-6.352 2.51-.376 2.426-.442-.729-.575l-3.564-.15.434 6c.428 5.917.398 6-2.186 6-2.334 0-2.62-.387-2.62-3.544 0-2.503-.41-3.457-1.393-3.25-.766.162-2.545-.944-3.952-2.456-1.408-1.512-3.481-2.75-4.607-2.75-1.97 0-1.98.068-.252 1.796 1.324 1.324 1.69 2.9 1.395 6-.548 5.74-2.378 5.397-6.809-1.276-3.761-5.665-4.558-5.935-6.54-2.214-1.058 1.984-1.01 2.063.494.822 1.335-1.101 1.961-1.126 3.164-.128.825.685 1.5 1.87 1.5 2.636 0 3.05 2.476 5.364 5.74 5.364 3.137 0 3.26-.151 3.26-4zm23-.955c0-3.334 2.008-3.942 5.568-1.688 4.036 2.557 4.101 5.23.12 4.952-1.503-.106-2.472.232-2.152.75.89 1.44 3.607 1.121 5.57-.655 1.43-1.294 1.558-2.048.677-3.98-.598-1.312-1.918-2.65-2.935-2.972-2.347-.745-2.425-3.457-.098-3.437 1.34.012 1.438.214.416.861-1.057.67-.975.983.393 1.508.95.365 1.963.427 2.25.14.289-.288-.027-.524-.701-.524-.674 0-.946-.453-.604-1.007 1.271-2.057-2.538-2.111-5.129-.073-2.358 1.854-2.878 1.935-4.281.665-1.444-1.307-1.563-1.018-1.243 3.009.214 2.697-.173 5.135-.981 6.18-1.05 1.356-.857 1.318.897-.179 1.228-1.048 2.233-2.645 2.233-3.55zm-12.293-3.283c-.239-1.244-.444-.462-.455 1.738-.01 2.2.185 3.218.435 2.262s.26-2.756.02-4zM188 387.5c0-2.444-.452-3.5-1.5-3.5s-1.5 1.056-1.5 3.5.452 3.5 1.5 3.5 1.5-1.056 1.5-3.5zm10 3.035c0-.255-.9-.946-2-1.535-1.205-.645-2-.688-2-.109 0 .53.787 1.168 1.75 1.42.963.251 1.863.51 2 .573.138.064.25-.093.25-.349zm-41.317-2.722c-.32-.798-.556-.561-.604.604-.043 1.054.193 1.644.525 1.312.332-.332.368-1.195.08-1.916zM152 387c.589-1.1.845-2 .57-2s-.981.9-1.57 2c-.589 1.1-.845 2-.57 2s.981-.9 1.57-2zm-1.206-4.644c-.291-1.375-.543-1.123-.97.97-.372 1.825-.232 2.482.394 1.856.533-.533.793-1.805.576-2.826zM127 350.5c0-.825.675-1.5 1.5-1.5s1.5.675 1.5 1.5-.675 1.5-1.5 1.5-1.5-.675-1.5-1.5zm-34.313-.146c-1.54-1.54-.647-4.354 1.383-4.354 1.555 0 1.99.54 1.75 2.172-.332 2.255-1.94 3.375-3.132 2.182zm7.721-.732c-.809-2.11.327-3.622 2.72-3.622 1.511 0 1.932.557 1.692 2.24-.373 2.614-3.556 3.61-4.412 1.382zm6.592-.712c0-.986-.45-2.07-1-2.41-.55-.34-1-1.716-1-3.059 0-1.818.54-2.441 2.114-2.441 1.77 0 2.043.478 1.682 2.939-.405 2.757-.258 2.903 2.386 2.375 2.383-.477 2.818-.236 2.818 1.561 0 2.282-.09 2.338-4.25 2.632-2.05.145-2.75-.262-2.75-1.597zm10.952-1.824c.936-3.499 4.048-4.096 4.048-.776 0 1.79-.643 2.58-2.37 2.91-2.124.406-2.298.185-1.678-2.134zm11.58-2.033c-.879-1.423.243-3.053 2.1-3.053.876 0 1.378.703 1.191 1.667-.39 2.009-2.386 2.85-3.29 1.386zM94 339.5c0-.825.675-1.5 1.5-1.5s1.5.675 1.5 1.5-.675 1.5-1.5 1.5-1.5-.675-1.5-1.5zm-3.313-5.146c-1.415-1.415-.614-3.354 1.386-3.354 1.398 0 1.968.543 1.75 1.667-.357 1.84-2.064 2.759-3.135 1.687zm41.484-1.023c.194-1.017 1.384-1.978 2.678-2.162 1.803-.257 2.25.082 1.98 1.5-.194 1.017-1.384 1.978-2.678 2.162-1.803.257-2.25-.082-1.98-1.5zM220 332c0-1.333.667-2 2-2s2 .667 2 2-.667 2-2 2-2-.667-2-2zm-10.333.333c-1.346-1.345-.614-3.333 1.226-3.333 1.9 0 3.49 2.283 2.371 3.402-.797.798-2.769.76-3.597-.069zm-105.226-1.429c-1.057-1.71 2.277-4.586 3.685-3.178.627.627.869 1.845.538 2.707-.692 1.803-3.225 2.086-4.223.471zm20.005-.991c-1.03-1.668 1.287-3.58 2.667-2.2 1.154 1.154.432 3.287-1.113 3.287-.485 0-1.184-.49-1.554-1.087zM115 328c0-1.333.667-2 2-2s2 .667 2 2-.667 2-2 2-2-.667-2-2zm-15.831-1.15c.184-1.295 1.145-2.485 2.162-2.679 1.418-.27 1.757.177 1.5 1.98-.184 1.294-1.145 2.484-2.162 2.678-1.418.27-1.757-.177-1.5-1.98zm117.008.597c.452-2.172 2.227-2.305 2.633-.197.21 1.095-.28 1.75-1.31 1.75-.96 0-1.512-.647-1.323-1.553zM192 326.573c0-.927.855-1.573 2.083-1.573 2.437 0 2.093 2.337-.416 2.823-.987.192-1.667-.318-1.667-1.25zM177.5 325c-.837-1.354.292-3 2.059-3 .793 0 1.441.9 1.441 2 0 2.07-2.413 2.76-3.5 1zm43.188.354c-1.374-1.374-.662-3.496 1.062-3.164.963.186 1.75.969 1.75 1.74 0 1.58-1.764 2.472-2.813 1.424zM96 323.074c0-1.432.642-2.074 2.073-2.074s1.97.539 1.739 1.739c-.502 2.606-3.812 2.897-3.812.334zm74.19-.824c.186-.963 1-1.75 1.81-1.75s1.624.787 1.81 1.75c.236 1.228-.304 1.75-1.81 1.75s-2.046-.522-1.81-1.75zM211 321c0-1.111.667-2 1.5-2s1.5.889 1.5 2-.667 2-1.5 2-1.5-.889-1.5-2zm-6-5c0-1.333.667-2 2-2s2 .667 2 2-.667 2-2 2-2-.667-2-2zm17-1.417c0-.87.713-1.583 1.583-1.583 1.766 0 1.459 2.153-.396 2.77-.653.219-1.187-.316-1.187-1.187zM27.25 372.257c-3.987-.19-10.512-.19-14.5 0-3.987.19-.725.346 7.25.346s11.238-.156 7.25-.346zm36.63.29c-.25-.25-6.807-.588-14.572-.75-7.765-.164-13.598.034-12.963.438 1.225.779 28.308 1.085 27.534.311zm6.882-.234c-.956-.25-2.756-.26-4-.02-1.244.239-.462.444 1.738.455 2.2.01 3.218-.185 2.262-.435zm30.238-.295c0-.813-27.004-.242-27.908.589-.224.206 5.964.355 13.75.33 7.787-.025 14.158-.439 14.158-.92zm8.75.266c-1.512-.23-3.987-.23-5.5 0-1.512.229-.275.416 2.75.416s4.263-.187 2.75-.416zm11 0c-1.512-.23-3.987-.23-5.5 0-1.512.229-.275.416 2.75.416s4.263-.187 2.75-.416zm10.98.112c-.333-.332-1.196-.368-1.917-.08-.798.32-.561.557.604.605 1.054.043 1.644-.193 1.312-.525zm5 0c-.333-.332-1.196-.368-1.917-.08-.798.32-.561.557.604.605 1.054.043 1.644-.193 1.312-.525zm16.038-.11c-1.503-.229-4.203-.233-6-.01-1.797.222-.568.409 2.732.414 3.3.006 4.77-.176 3.268-.405zm12.982-.003c-1.512-.229-3.987-.229-5.5 0-1.512.23-.275.417 2.75.417s4.263-.187 2.75-.417zm10.519.06c-.677-.273-2.027-.29-3-.036-.973.253-.419.477 1.231.498 1.65.02 2.446-.187 1.769-.461zm11.46.053c-.332-.333-1.195-.368-1.917-.08-.797.32-.56.557.605.605 1.054.043 1.644-.193 1.312-.525zm4 0c-.332-.333-1.195-.368-1.917-.08-.797.32-.56.557.605.605 1.054.043 1.644-.193 1.312-.525zm4.521-.059c-.688-.277-1.813-.277-2.5 0-.688.278-.125.505 1.25.505s1.937-.227 1.25-.505zm15.03-.068c-2.32-.21-6.37-.212-9-.006-2.629.207-.73.378 4.22.381 4.95.003 7.101-.166 4.78-.375zm7.45.127c-.333-.333-1.196-.368-1.918-.08-.797.32-.56.557.605.605 1.054.043 1.644-.193 1.312-.525zM34 369c1.639-1.639 3.333-2 9.383-2 6.543 0 7.443-.228 7.907-2 .287-1.1 1.24-2 2.116-2 1.89 0 2.128 1.618.344 2.338-.83.335-.73.53.3.583.853.043 2.04-.41 2.637-1.008.598-.598 4.725-1.336 9.172-1.64 4.446-.306 7.846-.942 7.554-1.414-.292-.472-1.404-.859-2.472-.859-2.148 0-2.44-1.198-.965-3.955.778-1.454.558-1.934-1.087-2.364-2.746-.718-2.096-4.077.871-4.5 2.288-.327 3.042-2.567 1.24-3.681-.55-.34-1-2.14-1-4 0-1.86.45-3.66 1-4 .55-.34 1-3.066 1-6.059 0-4.07-.363-5.441-1.441-5.441-2.343 0-3.006-2.2-1.086-3.604 3.358-2.456 1.09-4.195-6.16-4.724-3.747-.273-13.865-1.323-22.485-2.334-12.765-1.497-16.225-2.248-18.658-4.05-3.32-2.459-4.393-1.885-5.551 2.962-.496 2.077-1.26 2.75-3.119 2.75-1.856 0-2.628-.677-3.136-2.75-.372-1.512-1.73-3.741-3.02-4.952L5 308.096v2.952c0 1.957.505 2.952 1.5 2.952.825 0 1.5.648 1.5 1.441 0 2.283-1.769 2.77-3.014.83-1.057-1.646-1.099-1.647-.595-.026.298.96.59 11.197.649 22.75C5.102 351.148 5.537 360 6.073 360c.51 0 .927-.648.927-1.441 0-2.253 2.036-2.951 3.714-1.273 2.053 2.052.812 3.714-2.773 3.714-2.68 0-2.941.303-2.941 3.406 0 2.914.29 3.331 2 2.884 1.432-.375 2-.03 2 1.21s-.568 1.585-2 1.21c-1.1-.287-2-.115-2 .384 0 .498 6.075.906 13.5.906 12.167 0 13.698-.198 15.5-2zm-14-1.427c0-1.935.513-2.573 2.07-2.573 1.571 0 1.992.539 1.75 2.24-.475 3.324-3.82 3.616-3.82.333zm7.537 1.366c.703-1.136 3.463-1.258 3.463-.152 0 .433-.91.856-2.022.94-1.112.083-1.76-.27-1.44-.788zm.653-3.689c.186-.963 1-1.75 1.81-1.75s1.624.787 1.81 1.75c.236 1.228-.304 1.75-1.81 1.75s-2.046-.522-1.81-1.75zM40 362.476c0-1.822.632-2.828 2-3.186 1.1-.288 2-.92 2-1.407 0-.485.9-.883 2-.883 1.467 0 2 .667 2 2.5 0 2.613-2.412 3.512-3.353 1.25-.286-.688-.436-.126-.334 1.247.142 1.897-.353 2.574-2.063 2.82-1.85.265-2.25-.15-2.25-2.341zm-26.831-.627c.184-1.294 1.145-2.484 2.162-2.678 1.418-.27 1.757.177 1.5 1.98-.184 1.294-1.145 2.484-2.162 2.678-1.418.27-1.757-.177-1.5-1.98zm49.02-2.588c.501-2.606 3.811-2.897 3.811-.334 0 1.43-.642 2.073-2.073 2.073s-1.97-.539-1.739-1.739zM51 357.531c0-1.783.416-2.308 1.5-1.893.825.317 1.5 1.428 1.5 2.469S53.325 360 52.5 360c-.928 0-1.5-.941-1.5-2.469zm-23.077.292c-.796-3.365-.587-3.823 1.739-3.823 1.822 0 2.395.464 2.15 1.739-.273 1.418-3.621 3.213-3.889 2.084zM59 354.721c0-.776.91-2.235 2.024-3.242 2.317-2.097 4.396-.916 3.811 2.165-.432 2.277-5.835 3.275-5.835 1.077zm-43-1.22c-.92-1.109-.999-1.902-.264-2.637 1.645-1.645 4.764-.573 4.764 1.636 0 2.484-2.759 3.098-4.5 1zm24-.672c0-.644-.737-1.986-1.638-2.982-1.335-1.475-1.405-2.09-.378-3.328 1.479-1.782 4.016-2.021 4.016-.38 0 .628.73 1.674 1.623 2.327 2.151 1.573.942 5.534-1.69 5.534-1.063 0-1.933-.527-1.933-1.171zm15-8.756c0-1.43.642-2.073 2.073-2.073s1.97.539 1.739 1.739c-.502 2.606-3.812 2.897-3.812.334zm-49-1c0-1.43.642-2.073 2.073-2.073s1.97.539 1.739 1.739C9.31 345.345 6 345.636 6 343.073zm60-.042c0-1.339.48-1.784 1.5-1.393.825.317 1.5 1.203 1.5 1.969S68.325 345 67.5 345s-1.5-.885-1.5-1.969zm-54.588-3.4c-.75-1.956.272-3.631 2.217-3.631.981 0 1.398.76 1.19 2.172-.387 2.637-2.593 3.581-3.407 1.459zM33 339.5c0-.825.675-1.5 1.5-1.5s1.5.675 1.5 1.5-.675 1.5-1.5 1.5-1.5-.675-1.5-1.5zm11.5-.5c-.912-1.475.35-2.995 1.969-2.374a1.516 1.516 0 0 1 .86 1.957c-.633 1.652-1.946 1.845-2.829.417zm-23-2c-.837-1.354.292-3 2.059-3 .793 0 1.441.9 1.441 2 0 2.07-2.413 2.76-3.5 1zm8.836-1.567c-.834-2.172 1.282-4.215 2.797-2.7 1.28 1.28.487 4.267-1.133 4.267-.585 0-1.333-.705-1.664-1.567zm7.797-1.773c-1.523-1.835-.342-4.847 1.743-4.445.961.185 1.624 1.293 1.624 2.715 0 2.835-1.718 3.718-3.367 1.73zM53 332.535c0-1.606 2.966-3.535 5.434-3.535 2.204 0 1.951 2.723-.368 3.965-2.757 1.475-5.066 1.28-5.066-.43zm-32.603-.944c-.791-2.06.344-3.591 2.662-3.591 2.544 0 2.496 2.633-.074 4.008-1.575.843-2.14.752-2.588-.417zM31 325c0-1.111.667-2 1.5-2s1.5.889 1.5 2-.667 2-1.5 2-1.5-.889-1.5-2zm4 0c0-1.333.667-2 2-2s2 .667 2 2-.667 2-2 2-2-.667-2-2zm-27.592-.378c-.809-2.11.327-3.622 2.72-3.622 1.511 0 1.932.557 1.692 2.24-.373 2.614-3.556 3.61-4.412 1.382zM23 323c0-1.111.667-2 1.5-2s1.5.889 1.5 2-.667 2-1.5 2-1.5-.889-1.5-2zm24-.927c0-1.43.642-2.073 2.073-2.073s1.97.539 1.739 1.739c-.502 2.606-3.812 2.897-3.812.334zm13.446.84c-.858-1.389 1.044-3.346 2.423-2.494 1.149.71.413 3.581-.917 3.581-.459 0-1.136-.49-1.506-1.087zM32 320c0-1.506.522-2.046 1.75-1.81.963.186 1.75 1 1.75 1.81s-.787 1.624-1.75 1.81c-1.228.236-1.75-.304-1.75-1.81zm-12.827-1.66c.195-1.012 1.023-1.84 1.84-1.84 2.144 0 1.835 2.906-.354 3.327-1.336.257-1.743-.15-1.486-1.486zm63.156 51.202c-3.03-1.317-5.653-4.548-5.093-6.27.145-.446-.749-2.1-1.986-3.676S73 357.17 73 357.71c0 .54.825 1.726 1.833 2.639 2.322 2.101 2.1 5.774-.41 6.757-1.058.414-4.173.805-6.923.867-2.75.063-7.7.724-11 1.468-5.854 1.321-5.573 1.356 11.5 1.417 15.71.057 17.175-.077 14.329-1.316zm9.94-.198c-.677-.274-2.027-.29-3-.037-.973.253-.419.478 1.231.498 1.65.02 2.446-.187 1.769-.461zm-49.54-.948c-.332-.332-1.195-.368-1.916-.08-.798.32-.561.557.604.605 1.054.043 1.644-.193 1.312-.525zm10 0c-.332-.332-1.195-.368-1.916-.08-.798.32-.561.557.604.605 1.054.043 1.644-.193 1.312-.525zm31.771-.566c-1.1-.61-2.697-1.61-3.549-2.22-.852-.61-.49-.097.806 1.14 1.295 1.238 2.892 2.236 3.549 2.22.657-.017.294-.53-.806-1.14zm-27.77-.434c-.333-.332-1.196-.368-1.917-.08-.798.32-.561.557.604.605 1.054.043 1.644-.193 1.312-.525zm4-1c-.333-.332-1.196-.368-1.917-.08-.798.32-.561.557.604.605 1.054.043 1.644-.193 1.312-.525zm36.27-.378c0-.54-2.07-3.128-4.6-5.75-4.805-4.98-5.827-6.828-7.887-14.268l-1.247-4.5-.801 2.99c-.442 1.645-1.289 3.507-1.884 4.139-3.193 3.391-4.581 5.585-4.581 7.243 0 1.958 5.163 7.974 8.509 9.913 2.433 1.41 12.491 1.598 12.491.233zm-30.75-.68c-.688-.278-1.813-.278-2.5 0-.688.277-.125.504 1.25.504s1.938-.227 1.25-.504zm6 0c-.688-.278-1.813-.278-2.5 0-.688.277-.125.504 1.25.504s1.938-.227 1.25-.504zM98 362.696c0-.167-1.688-1.854-3.75-3.75L90.5 355.5l3.446 3.75c3.208 3.49 4.054 4.21 4.054 3.446zm76.762-2.383c-.956-.25-2.756-.26-4-.02-1.244.239-.462.444 1.738.455 2.2.01 3.218-.185 2.262-.435zm4.967-.917c-.332-.332-1.195-.368-1.917-.08-.797.32-.56.557.605.605 1.054.043 1.644-.193 1.312-.525zM176.582 358c2.998 0 1.226-1.975-2.728-3.04-2.978-.801-5.833-2.853-10.14-7.288-3.297-3.395-5.52-5.497-4.94-4.672.758 1.076.67 2.418-.31 4.75-1.89 4.494-4.863 4.328-7.292-.407l-1.877-3.657-.556 4.907c-.756 6.658.32 7.755 6.806 6.945 3.533-.442 6.375-.175 9.053.849 5.01 1.916 7.572 2.47 9.234 1.994.732-.21 1.97-.381 2.75-.381zm8.418.615c0-.212-1.238-1.19-2.75-2.175-1.991-1.295-2.407-1.37-1.509-.273.683.835.946 1.813.584 2.175-.362.362.317.658 1.508.658 1.192 0 2.167-.173 2.167-.385zm-36-.993c0-.207-.787-.995-1.75-1.75-1.586-1.243-1.621-1.208-.378.378 1.307 1.666 2.128 2.195 2.128 1.372zm11.75-.311c-.963-.252-2.538-.252-3.5 0-.963.251-.175.457 1.75.457s2.712-.206 1.75-.457zm-37.934-1.845c1.12-.935-10.089-.742-11.37.196-1.241.908-.212 1.042 4.734.614 3.476-.3 6.462-.665 6.636-.81zm-49.154-2.716c-.277-.688-.504-.125-.504 1.25s.227 1.938.504 1.25c.278-.688.278-1.813 0-2.5zm60.607 2.594c-.677-.274-2.027-.29-3-.037-.973.253-.419.478 1.231.498 1.65.02 2.446-.187 1.769-.461zm7.481-1.033c-.963-.252-2.538-.252-3.5 0-.963.251-.175.457 1.75.457s2.712-.206 1.75-.457zm30.167-2.594c-.23-.156-1.317-.943-2.417-1.75-1.85-1.357-1.897-1.336-.628.283.755.963 1.843 1.75 2.417 1.75.574 0 .857-.127.628-.283zM179 351c.825-.533 1.05-.97.5-.97s-1.675.437-2.5.97c-.825.533-1.05.97-.5.97s1.675-.437 2.5-.97zm-104.087-6.228c-.454-2.35-.845-4.696-.87-5.213-.023-.518-.69-.068-1.479 1-1.248 1.687-1.248 2.231 0 4.156.79 1.218 1.436 2.932 1.436 3.809 0 .877.391 1.352.87 1.057.483-.299.502-2.437.043-4.81zm81.646 2.935c.273-.71.079-3.073-.431-5.25-.735-3.137-.948-3.405-1.028-1.295-.065 1.744-.61 2.586-1.578 2.444-2.068-.303-6.356-4.508-7.153-7.014-.639-2.01-.692-2.016-1.342-.167-.666 1.897 1.734 5.645 3.143 4.907.368-.193 1.565.787 2.66 2.179 1.374 1.747 2.164 2.137 2.554 1.26.31-.7.525-.371.475.729-.049 1.1-.037 2.337.026 2.75.19 1.24 2.142.844 2.674-.543zM154.71 346c.288-1.1.696-2 .907-2 .21 0 .383.9.383 2s-.408 2-.906 2c-.499 0-.671-.9-.384-2zm29.706 1.1c6.267-1.062 9.978-5.357 5.834-6.752-.963-.324-3.55-1.387-5.75-2.362-5.111-2.265-9.856-3.371-9.08-2.116 1 1.618-.537 4.13-2.527 4.13-2.52 0-2.649-4.683-.143-5.248.977-.22-1.12-1.318-4.75-2.486-3.575-1.15-7.287-2.403-8.25-2.785-.989-.393-1.75-.244-1.75.342 0 .571 1.012 1.182 2.25 1.357 2.506.356 3.676 4.294 1.825 6.145-.791.791.359 2.576 4.166 6.463 5.81 5.932 4.318 5.66 18.175 3.312zm-15.975-2.196c-1.057-1.71 2.277-4.586 3.685-3.178.627.627.869 1.845.538 2.707-.692 1.803-3.225 2.086-4.223.471zm17.032.052c-.325-.526-1.69-.956-3.032-.956-2.609 0-3.208-1.833-1.241-3.8 1.689-1.689 4.8-1.494 4.8.3 0 .825.675 1.5 1.5 1.5s1.5.627 1.5 1.393c0 1.696-2.704 2.894-3.527 1.563zm4.256 3.44c-.332-.332-1.195-.368-1.917-.08-.797.32-.56.557.605.605 1.054.044 1.644-.193 1.312-.525zM80 344.378c0-.758.498-1.378 1.107-1.378s.857-.652.551-1.449c-.336-.876.214-1.693 1.393-2.067 1.66-.527 1.924-1.463 1.78-6.301-.136-4.644-.241-4.959-.572-1.724-.251 2.459-1.325 4.88-2.832 6.387-1.335 1.335-2.434 3.378-2.442 4.54-.018 2.47-1.944 6.085-1.97 3.697-.008-.779-.285-1.146-.615-.816-.33.33-.29 1.102.089 1.715.866 1.402 3.511-.56 3.511-2.604zm116.353 1.86c.26-.42-.148-1.882-.905-3.25-.977-1.766-1.387-2.003-1.413-.82-.02.918-.308 2.38-.642 3.25-.62 1.616 2.017 2.346 2.96.82zM163 343.654c0-.19-1.012-1.202-2.25-2.25l-2.25-1.905 1.905 2.25c1.79 2.114 2.595 2.705 2.595 1.905zm-8.95-11.332c-.492-1.553-1.105-9.383-1.362-17.401-.32-10.016-1.038-16.503-2.293-20.73-1.746-5.882-2.021-6.217-6.292-7.673l-4.466-1.521 3.25 2.9c1.974 1.763 2.826 3.161 2.173 3.565-.59.365-1.357-.074-1.703-.976-.347-.902-1.685-2.041-2.974-2.532-3.052-1.16-2.14-4.379 1.003-3.537 1.162.311 3.07.832 4.237 1.158 1.686.47 2.32.008 3.08-2.243 1.165-3.447.475-43.444-.771-44.755-.53-.559-2.17-.288-4.154.686-1.803.885-4.065 1.848-5.028 2.14-1.226.374-1.75 1.567-1.75 3.983 0 4.96-.893 6.613-3.575 6.613-1.547 0-2.875-.948-3.853-2.75-1.254-2.311-1.497-2.43-1.526-.75-.047 2.724 1.716 9.16 3.836 14 .964 2.2 2.572 6.7 3.575 10 1.003 3.3 2.291 7.022 2.863 8.27.749 1.636.71 2.6-.14 3.45-.733.733-1.18 4.617-1.18 10.258 0 8.347.287 9.677 3.56 16.506 1.957 4.085 4.237 10.148 5.065 13.472.829 3.324 1.866 7.445 2.305 9.158.439 1.713 1.647 3.995 2.684 5.071 1.867 1.938 1.898 1.93 3.11-.791.817-1.838.926-3.685.327-5.571zM141.5 281c.34-.55.816-1 1.059-1s.441.45.441 1-.477 1-1.059 1-.78-.45-.441-1zm-58.542 48.355c.023-1.73.925-6.004 2.005-9.5 1.787-5.787 4.343-16.104 5.722-23.105.377-1.913.127-2.76-.822-2.781-1.887-.044-5.156-4.764-4.493-6.49.298-.778.105-1.685-.43-2.016-1.59-.983.129-2.678 2.173-2.144 1.189.311 1.887-.027 1.887-.913 0-.773-.45-1.406-1-1.406s-1-.927-1-2.059c0-1.132-.42-1.799-.935-1.481-.515.318-1.118-.893-1.34-2.691l-.405-3.269-.16 3.691c-.088 2.03.29 3.97.84 4.309 1.607.993 1.152 2.29-.75 2.139-1.019-.081-1.755.558-1.763 1.53-.007.919-1.707 4.969-3.777 9-4.327 8.428-5.594 15.011-4.394 22.831.465 3.025 1.064 9.927 1.333 15.338l.488 9.837 3.39-3.837c2.278-2.58 3.403-4.869 3.431-6.983zm76.65 6.895c1.879-2.475 1.705-3.25-.73-3.25-1.72 0-1.9.27-.945 1.42.93 1.12.799 1.64-.628 2.469-1.218.708-1.353 1.06-.415 1.08.764.017 1.987-.757 2.718-1.719zM186.5 336c-.34-.55-1.154-.993-1.809-.985-.716.01-.592.403.309.985 1.921 1.242 2.267 1.242 1.5 0zm25.417-.36c-.23-.197-1.767-.66-3.417-1.03-2.19-.49-2.595-.397-1.5.344 1.35.914 5.92 1.552 4.917.687zm-31.188-2.244c-.332-.332-1.195-.368-1.917-.08-.797.32-.56.557.605.605 1.054.043 1.644-.193 1.312-.525zm18-1c-.332-.332-1.195-.368-1.917-.08-.797.32-.56.557.605.605 1.054.043 1.644-.193 1.312-.525zm-3.812-.757c-.23-.198-2.442-.628-4.917-.956-3.005-.397-3.835-.3-2.5.29 1.91.847 8.285 1.418 7.417.666zm-51.923-8.92c-2.222-5.023-3.17-6.105-2.243-2.562.518 1.98.286 2.102-2.843 1.5-2.399-.46-2.964-.363-1.908.33.825.54 2.057.99 2.739.998 2.218.027 5.258 3.4 5.397 5.987.11 2.024.217 2.123.541.497.223-1.116-.535-4.154-1.683-6.75zm17.053 5.403c2.904.652 4.805.498 7.2-.583l3.253-1.47-3.895.604c-3.004.466-3.714.313-3.108-.669.591-.956.018-1.16-2.302-.82-1.7.25-2.893.137-2.653-.251.24-.388-.46-.94-1.553-1.226-1.731-.452-1.974-.045-1.873 3.137.064 2.01.312 2.921.55 2.024.363-1.36 1.095-1.484 4.381-.746zm11.453.401c3.028-.84 4.014-1.397 2.5-1.41-1.375-.013-3.85.595-5.5 1.35-3.852 1.765-3.185 1.778 3 .06zm4.23.873c-.333-.332-1.196-.368-1.917-.08-.798.32-.561.557.604.605 1.054.043 1.644-.193 1.312-.525zM73.92 324.25c-.043-2.063-.336-3.075-.65-2.25-.314.825-1.066 1.83-1.67 2.235-.762.508-.716.74.149.75.688.008 1.25.69 1.25 1.515s.225 1.5.5 1.5.464-1.688.421-3.75zm61.218-1.143c-1.24-.786-5.139-.4-5.139.51 0 .21 1.462.376 3.25.368 2.21-.01 2.814-.292 1.89-.878zm-4.58-1.681c1.067-.866 1.266-1.22.441-.785-.825.434-3.3 1.086-5.5 1.449l-4 .66 3.559.125c1.957.069 4.432-.583 5.5-1.45zM111 320.107c0-.491-.712-1.166-1.582-1.5-2.235-.858-2.418-.79-2.418.893 0 .833.889 1.5 2 1.5 1.1 0 2-.402 2-.893zm3.73.289c-.333-.332-1.196-.368-1.918-.08-.797.32-.56.557.605.605 1.054.043 1.644-.193 1.312-.525zm16.574-2.237c3.192-.997 5.805-2.124 5.807-2.506.002-.382-.528-2.165-1.178-3.963l-1.182-3.268-6.126.708c-3.369.39-7.7 1.22-9.625 1.846-1.925.626-7.242 1.502-11.816 1.947-4.574.445-8.75 1.244-9.282 1.775-.62.62.063.814 1.912.543 1.582-.233 6.434.504 10.781 1.636 6.976 1.817 10.374 2.543 13.905 2.972.55.067 3.612-.694 6.804-1.69zm6.425 1.237c-.332-.332-1.195-.368-1.917-.08-.797.32-.56.557.605.605 1.054.043 1.644-.193 1.312-.525zm-49.347-1.948c.341-.89.173-1.291-.393-.94-.544.335-.989 1.033-.989 1.551 0 1.438.717 1.121 1.382-.61zM104 318c-.825-.533-3.525-.906-6-.828l-4.5.142 5 .686c2.75.377 5.45.75 6 .828.55.078.325-.295-.5-.828zm-32.002-2.47c-.003-1.58-5.148-1.583-10.073-.003l-4.425 1.419 7.25-.192c4.189-.111 7.25-.628 7.248-1.223zm18.668-.957c-.63-1.335-1.303-2.269-1.497-2.076-.62.621.935 4.503 1.804 4.503.461 0 .323-1.092-.307-2.427zm-73.23-6.146c1.78-.447 2.021-1.147 1.717-4.974-.49-6.16 1.701-5.872 4.788.629 1.855 3.908 2.121 5.262 1.152 5.86-.952.59-.853.936.405 1.419 3.12 1.197 4.502.674 4.502-1.706 0-1.29.89-3.15 1.976-4.134 1.087-.983 1.765-2.131 1.506-2.55-.259-.419.225-1.028 1.076-1.355.85-.326 1.327-.24 1.06.193-1.093 1.768 1.265 3.145 6.911 4.037 3.284.52 6.378.697 6.876.394.497-.302.624-.096.282.457-.342.554 1.107 1.524 3.227 2.16 2.117.633 4.407 1.825 5.09 2.648.682.822 1.736 1.495 2.341 1.495.605 0 .098-.702-1.126-1.56-1.764-1.235-2.018-1.948-1.223-3.433.552-1.032 1.004-2.085 1.004-2.342 0-.256-3.938-.623-8.75-.816-7.192-.287-9.327-.76-11.993-2.662-1.784-1.273-3.621-2.08-4.084-1.794-.462.285-.895-.024-.962-.687-.067-.663-.6-3.456-1.183-6.206-.584-2.75-1.128-6.688-1.209-8.75-.08-2.063-.523-3.75-.983-3.75-.46 0-.836-.477-.836-1.059s.45-.78 1-.441c.55.34 1-.07 1-.91 0-.927-.573-1.307-1.458-.968-1 .384-1.656-.334-2.088-2.281-1.167-5.271-1.296-4.865-1.375 4.344-.093 10.864-1.103 14.383-3.915 13.648-1.622-.425-2.062-1.752-2.647-7.993-.58-6.182-.97-7.38-2.25-6.889-1.294.497-1.339.34-.27-.947 2.012-2.425.444-13.515-3.112-22.004-.46-1.1-1.017-3.8-1.236-6-.22-2.2-.263-.71-.097 3.31.43 10.365-.33 14.19-2.814 14.19-1.773 0-1.918.425-1.275 3.75 1.955 10.11 1.977 9.524-.334 8.791-2.03-.645-2.128-.362-2.114 6.142.009 3.75.407 7.435.886 8.19.5.79.46 2.854-.092 4.858-1.162 4.207.419 8.834 3.273 9.58 1.089.285 1.918 1.371 1.918 2.514 0 1.106.33 2.836.733 3.843.584 1.46.926 1.065 1.683-1.945.634-2.52 1.638-3.95 3.02-4.296zM53.5 308c-1.598-.687-1.665-.874-.332-.93.918-.038 2.268-.221 3-.406.733-.185.992-.147.576.085-.416.232-.502.833-.191 1.336.68 1.102-.357 1.073-3.053-.085zm-40.833-2.667c-1.048-1.048-.78-3.333.392-3.333.582 0 .78.45.441 1-.34.55-.141 1 .441 1s1.059.45 1.059 1c0 1.138-1.338 1.329-2.333.333zm-.431-11.833c.257-6.818.336-7.008 3.014-7.316 2.368-.273 2.75.04 2.75 2.25 0 1.411-.498 2.566-1.107 2.566s-.848-.675-.531-1.5c.35-.914.001-1.5-.893-1.5-1.738 0-1.697-.281-.547 3.727.516 1.802.554 4.433.086 5.993-.46 1.529-.882 2.105-.937 1.28-.09-1.333-.213-1.333-1.1 0-.704 1.055-.922-.577-.735-5.5zm1.457-.231c-.254-.973-.478-.419-.498 1.231-.02 1.65.187 2.446.46 1.769.275-.677.292-2.027.038-3zm-4.614 4.148c.048-1.165.285-1.402.604-.604.289.721.253 1.584-.079 1.916-.332.332-.568-.258-.525-1.312zm18 0c.048-1.165.285-1.402.604-.604.289.721.253 1.584-.079 1.916-.332.332-.568-.258-.525-1.312zm2 0c.048-1.165.285-1.402.604-.604.289.721.253 1.584-.079 1.916-.332.332-.568-.258-.525-1.312zM19 295.927c0-2.563 3.31-2.272 3.812.334.23 1.2-.308 1.739-1.739 1.739-1.43 0-2.073-.642-2.073-2.073zm9.18-3.177c.176-1.238.77-2.25 1.32-2.25s1.144 1.012 1.32 2.25c.22 1.548-.192 2.25-1.32 2.25-1.128 0-1.54-.702-1.32-2.25zm-20.473-6.5c-.602-3.147.591-6.195 1.714-4.378.383.62.235 1.128-.33 1.128-.566 0-.775.66-.465 1.468.31.808.926 1.37 1.369 1.25.789-.214 1.005.277 1.005 2.282 0 2.277-2.808.785-3.293-1.75zm19.626-2.794c0-.8.375-1.456.834-1.456.458 0 .833.423.833.941s-.375 1.173-.833 1.456c-.459.283-.834-.14-.834-.941zm27.917 31.882c-.688-.278-1.813-.278-2.5 0-.688.277-.125.504 1.25.504s1.938-.227 1.25-.504zm100.433-1.526c-.32-.797-.556-.56-.604.605-.043 1.054.193 1.644.525 1.312.332-.332.368-1.195.08-1.916zm-108.933.499c-.963-.252-2.538-.252-3.5 0-.963.251-.175.457 1.75.457s2.712-.206 1.75-.457zm7.715-2.197c-3.869-1.523-9.893-3.331-13.387-4.019-5.437-1.07-6.565-1.036-7.834.232-1.309 1.31-.856 1.602 3.887 2.513 2.953.567 8.03 1.326 11.281 1.687 3.252.362 6.852 1.037 8 1.502 1.148.464 2.763.846 3.588.85.825.002-1.666-1.242-5.535-2.765zm-15.736 1.282c-.332-.332-1.195-.368-1.916-.08-.798.32-.561.557.604.605 1.054.043 1.644-.193 1.312-.525zm26 0c-.332-.332-1.195-.368-1.916-.08-.798.32-.561.557.604.605 1.054.043 1.644-.193 1.312-.525zm6.954-2.584c-.32-.797-.556-.56-.604.605-.043 1.054.193 1.644.525 1.312.332-.332.368-1.195.08-1.916zM99 311c0-1.62-.617-1.972-3.25-1.85-3.025.14-3.06.179-.5.566 3.88.588 3.437 2.008-.5 1.603-2.645-.272-2.877-.16-1.25.603 3.406 1.596 5.5 1.245 5.5-.922zm13.427-.397l3.927-1.367-5.084-.699c-3.683-.506-5.864-.29-7.918.786-2.81 1.473-2.792 1.483 2.157 1.135 4.364-.308 4.551-.25 1.491.464-2.824.657-3.017.837-1 .931 1.375.064 4.267-.498 6.427-1.25zm54.823.735c-.688-.278-1.813-.278-2.5 0-.688.277-.125.504 1.25.504s1.938-.227 1.25-.504zM63 310c-.825-.533-2.175-.97-3-.97-1.333 0-1.333.108 0 .97.825.533 2.175.97 3 .97 1.333 0 1.333-.108 0-.97zm102.5-.383l4-1.23-4.545-.646c-2.5-.356-5.313-.941-6.25-1.3-1.338-.514-1.705-.094-1.705 1.952 0 3 1.855 3.267 8.5 1.224zm7.806-.26c-.656-.268-.963-1.087-.682-1.82.622-1.621-1.23-2.982-2.114-1.553-.345.559-.151 1.016.431 1.016s1.006.337.94.75c-.25 1.588.166 2.247 1.369 2.171.929-.059.943-.204.056-.565zM65.5 308c-2.75-1.181-4.328-1.181-2.5 0 .825.533 2.175.945 3 .914.99-.036.819-.347-.5-.914zm6.162-3.25c-.277-.688-.504-.125-.504 1.25s.227 1.938.504 1.25c.278-.688.278-1.813 0-2.5zM118 306.539c6.49-.643 12.006-1.467 13.75-2.055 1.504-.507 1.634-11.62.292-24.984-.674-6.714-1.793-11.032-4.406-17-1.927-4.4-3.81-10.32-4.186-13.156-.578-4.367-1.043-5.224-3.043-5.606-2.754-.527-3.407-.068-3.407 2.394 0 4.02-6.707 20.198-10.932 26.368-1.13 1.65-2.058 3.846-2.061 4.88-.004 1.035-2.305 6.588-5.114 12.34-2.809 5.75-5.33 12.114-5.601 14.14l-.494 3.683 9.851-.23c5.418-.126 12.326-.474 15.351-.774zm11.75.745c-1.512-.23-3.987-.23-5.5 0-1.512.229-.275.416 2.75.416s4.263-.187 2.75-.416zm52.5.054c-.688-.278-1.813-.278-2.5 0-.688.277-.125.504 1.25.504s1.938-.227 1.25-.504zm-112.3-4.588c.563-2.337 2.822-7.85 5.017-12.25 7.234-14.497 9.185-21.565 9.764-35.364.551-13.162.268-14.087-4.33-14.12-1.164-.009-4.17-2.117-6.75-4.734-6.11-6.197-6.184-9.296-.49-20.554 4.287-8.474 8.163-18.215 10.04-25.228.589-2.2 2.467-5.482 4.173-7.294 2.59-2.75 2.857-3.449 1.614-4.234-.818-.518-1.77-.948-2.117-.957-.725-.017-2.155-3.77-3.627-9.515-1.095-4.275-2.303-7.87-5.472-16.281-1.094-2.905-1.765-6.137-1.492-7.183.44-1.682.192-1.787-2.141-.905-1.452.548-3.851 2.318-5.333 3.933-2.998 3.268-4.937 3.662-7.146 1.453-1.31-1.31-1.755-1.196-3.821.983-1.287 1.356-3.096 2.473-4.022 2.483-.925.01-1.942.836-2.26 1.837-.317 1-2.199 2.593-4.181 3.538l-3.604 1.718.667 7.712c.366 4.242 1.369 9.746 2.228 12.232 1.508 4.361 1.47 4.781-1.1 12.016-3.271 9.216-3.98 10.403-5.803 9.704-1.565-.6-6.764-14.216-6.764-17.713 0-1.187.5-3.093 1.112-4.236 1.429-2.67 2.198-16.791.915-16.791-.527 0-2.5-1.355-4.387-3.011l-3.43-3.012-.068-10.738c-.037-5.907-.247-11.975-.467-13.486-.22-1.511.2-3.536.931-4.5.732-.964 1.345-2.675 1.362-3.803.04-2.524 1.852-4.45 4.187-4.45 1.219 0 1.958-1.086 2.422-3.557 1.017-5.424-.235-32.856-1.683-36.86-1.134-3.136-1.013-4.31 1.066-10.31 3.56-10.281 5.79-11.956 8.016-6.023.671 1.787 2.07 5.433 3.109 8.102 1.79 4.596 1.802 5.117.244 9.881-1.22 3.732-1.669 9.062-1.737 20.648-.09 15.25-.041 15.626 2.056 15.925 2.447.349 3.532 3.122 2.172 5.552-.524.935-.549 2.304-.059 3.18 1.346 2.404 3.902-1.062 5.56-7.537 1.62-6.33 3.414-7.895 7.404-6.46 4.06 1.46 6.996.707 7.667-1.967.817-3.256 5.91-5.52 10.226-4.547 1.886.425 4.207.62 5.156.433 7.216-1.42 7.226-1.427 7.226-4.479C92 99.279 91.693 99 88.723 99 84.737 99 81 96.57 81 93.977c0-1.05.756-3.494 1.68-5.43 1.922-4.032 1.66-4.528-2.88-5.448-2.757-.56-3.35-1.166-3.599-3.685-.202-2.044.362-3.614 1.75-4.87 1.127-1.02 2.049-2.65 2.049-3.622 0-2.102 9.343-10.34 13.546-11.943 8.387-3.2 13.862-4 19.625-2.866 5.163 1.016 5.953.935 8.218-.847 1.795-1.412 2.2-2.278 1.426-3.051-.62-.62-.748-1.854-.3-2.898.43-1 .713-2.717.628-3.817-.257-3.34 4.167-9.87 8.13-12 2.047-1.1 3.723-2.562 3.724-3.25.001-.687.987-1.25 2.19-1.25 2.13 0 2.118-.072-.5-2.805-2.948-3.077-3.513-7.264-1.235-9.155 1.818-1.51 5.149-.874 4.752.906-.162.73.675 2.361 1.862 3.624 1.64 1.745 2.067 3.235 1.784 6.207-.318 3.337-.114 3.843 1.388 3.45C146.49 30.9 147 31.35 147 32.78c0 2.138-6.187 8.22-8.362 8.22-2.38 0-.714 5.764 1.853 6.408 3.685.925 4.478 5.592.95 5.592-.793 0-1.441.674-1.441 1.497 0 .824-1.356 4.368-3.014 7.877-2.177 4.608-4.12 7.111-7 9.017-2.192 1.45-3.986 3.26-3.986 4.021 0 .761 1.12 3.342 2.488 5.736 1.368 2.394 2.493 5.217 2.5 6.273.014 2.275-2.735 5.579-4.643 5.579-.74 0-1.345.461-1.345 1.025 0 .563-1.125 1.452-2.5 1.975-3.011 1.145-3.463 5.894-.813 8.544 2.594 2.594 9.897 5.39 15.932 6.099 6.193.728 6.175.708 13.792 14.443 2.955 5.327 5.868 9.238 7.676 10.306 3.427 2.025 3.907 6.117 1.246 10.622-1.556 2.634-1.556 3.113 0 7.188.917 2.402 3.16 6.684 4.986 9.517 1.825 2.833 4.13 7.093 5.12 9.466.99 2.373 2.242 5.271 2.783 6.44.66 1.43.628 2.787-.102 4.15-.831 1.554-.765 2.147.285 2.55.953.366 1.216-.06.865-1.4-.824-3.153.246-2.223 3.54 3.075 1.709 2.75 3.7 5 4.426 5 .725 0 2.503 1.35 3.951 3 1.875 2.137 3.535 3 5.771 3 1.726 0 5.001.9 7.278 2 2.277 1.1 4.73 2 5.452 2 .733 0 1.312 1.103 1.312 2.5 0 1.917-.525 2.507-2.25 2.53-2.01.028-2.063.14-.5 1.05 2.74 1.596 2.252 5.756-.763 6.513-1.398.35-3.138.112-3.921-.538-1.143-.949-1.314-.807-.907.75.846 3.236-2.246 3.304-6.23.138-2.463-1.957-4.846-2.943-7.112-2.943-2.203 0-4.205-.797-5.662-2.254-1.24-1.24-2.965-2.117-3.833-1.95-1.915.369-5.08-2.57-4.237-3.934.84-1.357-3.722-7.985-10.533-15.306-3.205-3.445-7.215-9.226-9.094-13.11-4.068-8.408-6.196-11.338-9.47-13.036-2.73-1.417-3.37-.386-.988 1.59 1.847 1.533 2.075 12.025.3 13.8-.874.874-.888 1.2-.05 1.2 3.15 0 10.664 15.613 12.65 26.285.387 2.082 2.255 6.432 4.152 9.668 1.896 3.236 3.448 6.8 3.448 7.918 0 1.12.514 3.163 1.142 4.541.923 2.026.823 2.993-.523 5.047-.916 1.398-2.442 2.555-3.392 2.573-.95.017-2.532.642-3.517 1.389-1.646 1.249-1.776 3.428-1.621 27.218.127 19.608.53 27.126 1.67 31.091l1.502 5.231 5.62-3.167c10.21-5.754 18.607-9.545 27.046-12.211 4.582-1.448 11.535-4.166 15.452-6.04 5.714-2.736 8.284-3.397 13.004-3.344 4.016.046 6.395.58 7.5 1.684 1.49 1.49 1.584-1.024 1.194-31.882-.233-18.426-.604-78.497-.824-133.492-.22-54.994-.596-100.185-.834-100.424-.238-.238-49.362-.32-109.164-.182-80.263.184-108.916.55-109.438 1.393-.389.63-.744 60.392-.788 132.807-.074 118.038.078 131.724 1.468 132.257 1.257.483 1.356.234.526-1.317-1.513-2.828-1.341-13.316.21-12.799 1.948.65 3.75-3.816 2.832-7.018-.97-3.38-.66-26.455.378-28.134 2.246-3.634 4.52 4.581 5.094 18.408.137 3.3 1.193 8.7 2.347 12 1.154 3.3 2.287 8.925 2.518 12.5.928 14.378 1.867 20.505 2.768 18.069.754-2.037.967-7.246.932-22.819-.008-3.839.227-4.25 2.426-4.25 2.895 0 4.036 3.178 3.043 8.474-.53 2.822-.273 3.695 1.39 4.734 1.68 1.049 2.039 2.318 2.039 7.212 0 5.407 1.064 10.635 2.968 14.58 1.637 3.393 8.286 5.966 15.532 6.01 4.718.029 8.304.66 11 1.935 5.726 2.71 6.306 2.539 7.45-2.195zm97.3 2.588c-.688-.278-1.813-.278-2.5 0-.688.277-.125.504 1.25.504s1.938-.227 1.25-.504zm15.33-.368c1.49-.567 6.131-1.482 10.314-2.035 4.183-.552 10.518-1.71 14.077-2.572 3.559-.862 8.154-1.341 10.21-1.065 4.405.59 7.436-1.65 3.796-2.805-1.17-.372-2.394-.41-2.719-.084-.325.325.159.591 1.075.591.917 0 1.667.498 1.667 1.107 0 .63-.73.827-1.696.456-.932-.358-4.91-1.15-8.838-1.76-6.2-.965-7.592-.886-10.554.596-4.168 2.086-15.97 6.203-21.412 7.47-3.177.738-3.447.95-1.315 1.03 1.477.056 3.904-.363 5.394-.93zm8.15.426c-.333-.332-1.196-.368-1.917-.08-.798.32-.561.557.604.605 1.054.043 1.644-.193 1.312-.525zM4.69 300.25c-.252-.962-.458-.175-.458 1.75s.206 2.712.457 1.75c.252-.963.252-2.538 0-3.5zm171.954 2.956c-1.021-.217-2.293.043-2.826.576-.626.626.031.766 1.856.394 2.093-.427 2.345-.679.97-.97zm20.606 1.132c-.688-.278-1.813-.278-2.5 0-.688.277-.125.504 1.25.504s1.938-.227 1.25-.504zm6.019-.994c-.677-.274-2.027-.29-3-.037-.973.253-.419.478 1.231.498 1.65.02 2.446-.187 1.769-.461zM73.389 299.5c.49-2.19.398-2.595-.343-1.5-.559.825-1.022 2.362-1.03 3.417-.021 2.558.551 1.76 1.374-1.917zm86.739 1.75c1.27-1.619 1.222-1.64-.628-.283-1.1.807-2.187 1.594-2.417 1.75-.229.156.054.283.628.283s1.662-.787 2.417-1.75zm47.601 1.146c-.332-.332-1.195-.368-1.917-.08-.797.32-.56.557.605.605 1.054.043 1.644-.193 1.312-.525zm-115.046-4.584c-.32-.797-.556-.56-.604.605-.043 1.054.193 1.644.525 1.312.332-.332.368-1.195.08-1.916zM192 299c1.828-1.181.25-1.181-2.5 0-1.319.567-1.49.878-.5.914.825.03 2.175-.38 3-.914zm-23-3.57c0-.275-.9-.019-2 .57s-2 1.295-2 1.57c0 .275.9.019 2-.57s2-1.295 2-1.57zm30 .57c.825-.533 1.05-.97.5-.97s-1.675.437-2.5.97c-.825.533-1.05.97-.5.97s1.675-.437 2.5-.97zm-46.317-2.188c-.32-.797-.556-.56-.604.605-.043 1.054.193 1.644.525 1.312.332-.332.368-1.195.08-1.916zm63.586 1.532c-.677-.274-2.027-.29-3-.037-.973.253-.419.478 1.231.498 1.65.02 2.446-.187 1.769-.461zM94.84 292.83c1.103-1.447 1.008-1.602-.71-1.153-1.252.328-2.644-.253-3.779-1.579-2.497-2.916-3.747-2.63-1.759.403.9 1.375 2.261 2.5 3.023 2.5s1.385.525 1.385 1.167c0 .641.127.979.283.75.156-.23.856-1.17 1.557-2.088zM4.732 281.75c-.21-2.337-.383-.425-.383 4.25s.173 6.588.383 4.25c.21-2.337.21-6.162 0-8.5zm202.518 11.588c-.688-.278-1.813-.278-2.5 0-.688.277-.125.504 1.25.504s1.938-.227 1.25-.504zM78 290c.589-1.1.845-2 .57-2s-.981.9-1.57 2c-.589 1.1-.845 2-.57 2s.981-.9 1.57-2zm17.867-3.677c1.302-2.01 2.607-5.491 2.9-7.738.293-2.247.84-4.31 1.215-4.585.812-.595 8.018-12.865 8.018-13.652 0-.3.63-1.964 1.401-3.697 1.632-3.67 3.599-9.573 3.599-10.8 0-.468-.83-.851-1.845-.851-1.015 0-2.663-.904-3.662-2.008-1.626-1.797-1.992-1.85-3.474-.509-1.149 1.04-3.551 1.447-7.826 1.33-3.393-.094-6.364.025-6.603.264-.239.239-.54 6.057-.668 12.929-.128 6.871-.65 13.428-1.159 14.57-.683 1.532-.368 3.066 1.204 5.866 1.172 2.085 2.04 4.976 1.93 6.425-.544 7.206 1.3 8.118 4.97 2.456zm-15.073-2.967c-.291-1.375-.543-1.123-.97.97-.372 1.825-.232 2.482.394 1.856.533-.533.793-1.805.576-2.826zm19.89-2.543c-.32-.798-.557-.561-.605.604-.043 1.054.193 1.644.525 1.312.332-.332.368-1.195.08-1.916zm50.978-1.063c-.277-.688-.504-.125-.504 1.25s.227 1.938.504 1.25c.278-.688.278-1.813 0-2.5zm55.918-.503c-.457-.457-6.58 2.578-6.58 3.262 0 .252 1.57-.29 3.487-1.204 1.919-.915 3.31-1.841 3.093-2.058zm-72.897.566c-.32-.798-.556-.561-.604.604-.043 1.054.193 1.644.525 1.312.332-.332.368-1.195.08-1.916zm-33-3c-.32-.798-.556-.561-.604.604-.043 1.054.193 1.644.525 1.312.332-.332.368-1.195.08-1.916zm31.513-6.563c-.29-1.512-.72-2.173-.956-1.467-.425 1.272.336 4.217 1.09 4.217.216 0 .156-1.238-.134-2.75zm-24.648-5.343c.88-1.701 1.422-3.27 1.205-3.487-.217-.217-1.143 1.174-2.058 3.093-2.056 4.312-1.344 4.642.853.394zm-81.424-.174c-.988-.98-1.102-.865-.56.56.376.986.935 1.541 1.243 1.233.308-.307 0-1.114-.683-1.793zm59.56.08c-.32-.798-.557-.561-.605.604-.043 1.054.193 1.644.525 1.312.332-.332.368-1.195.08-1.916zm143.104-23.063l-.213-17.25-.537 16.5c-.296 9.075-.399 16.837-.229 17.25.972 2.36 1.17-.971.979-16.5zm-115.874 9.75c.03-.55-.38-.325-.914.5-.533.825-.945 2.175-.914 3 .058 1.584 1.724-1.606 1.828-3.5zm11.77-3.688c-.32-.797-.557-.56-.605.605-.043 1.054.193 1.644.525 1.312.332-.332.368-1.195.08-1.917zm9.14-3.376c.179-2.15.854-4.247 1.5-4.658.791-.503.633-.752-.484-.763-1.67-.015-2.88-5-4.854-20.015-.398-3.025-.783-4.721-.855-3.769-.162 2.144-4.283 3.293-6.861 1.913-1.77-.947-1.675-.087 1.23 11.165 1.732 6.705 4.125 13.766 5.32 15.691 1.195 1.925 2.174 3.875 2.176 4.333.002.459.566.649 1.254.423.687-.226 1.396-2.17 1.574-4.32zm-7.745-15.02c.048-1.164.285-1.401.604-.604.289.722.253 1.585-.079 1.917-.332.332-.568-.258-.525-1.312zm2 0c.048-1.164.285-1.401.604-.604.289.722.253 1.585-.079 1.917-.332.332-.568-.258-.525-1.312zm-3.329-8.078c.688-.278 1.813-.278 2.5 0 .688.277.125.504-1.25.504s-1.938-.227-1.25-.504zm-4.693 18.931c-6.093-1.645-6.628-1.59-6.628.676 0 1.462.316 1.682 1.274.886.732-.607 2.77-.777 4.786-.399 2.707.508 3.534 1.164 3.61 2.863.093 2.044.152 2.023.808-.295.652-2.303.348-2.597-3.85-3.73zm-108.395-.519c-.277-.688-.504-.125-.504 1.25s.227 1.938.504 1.25c.278-.688.278-1.813 0-2.5zm73.723-.68c-1.16-2.327-1.427-4.44-.933-7.412.38-2.287.869-6.633 1.087-9.658.233-3.225-.38-1.032-1.483 5.3l-1.882 10.802 2.163 2.25c2.816 2.929 3.023 2.676 1.048-1.282zm8.117 1.689c.45.407.495.179.1-.509-.995-1.728-2.268-1.563-3.018.391-.498 1.298-.344 1.404.735.51.75-.624 1.733-.8 2.183-.392zM103 240c.82-1.53.76-2-.25-2-.727 0-1.321.9-1.321 2s.112 2 .25 2 .732-.9 1.321-2zm5.5-1c-.995-1.1-2.24-2-2.766-2-.525 0 .107.885 1.405 1.967 3.056 2.545 3.648 2.56 1.361.033zm-8.778-7.523c.238-9.13 1.397-12.752 3.788-11.835 1.528.586 1.349 4.701-.526 12.108-.782 3.088-.683 3.25 1.974 3.25 1.538 0 3.357.675 4.042 1.5.685.825 1.71 1.5 2.277 1.5.568 0 .343-.788-.5-1.75-2.49-2.842-3.105-7.747-3.327-26.547-.116-9.789-.492-18.078-.835-18.42-.342-.344-1.746.431-3.119 1.72-2.57 2.414-3.259 5.408-1.496 6.497 1.45.896 1.228 4.5-.277 4.5-.703 0-2.33-.736-3.614-1.636-1.96-1.373-2.253-2.257-1.818-5.5.286-2.126.143-3.632-.316-3.348-.46.283-1.143 2.983-1.52 6-.377 3.016-1.011 5.484-1.41 5.484-1.808 0-3.197 6.304-4.137 18.772-.68 9.013-.686 13.85-.019 14.517 1.125 1.125 1.794-.895 2.917-8.803.637-4.485.984-5.018 3.451-5.302 3.167-.366 3.24.011 1.586 8.243-.96 4.78-.917 5.913.25 6.652.774.49 1.632.893 1.907.895.275.003.6-3.82.722-8.497zm-17.993 6.919c-.332-.332-1.195-.368-1.916-.08-.798.32-.561.557.604.605 1.054.043 1.644-.193 1.312-.525zm41.596-4.646a424.658 424.658 0 0 1-2.903-10.888c-.853-3.409-2.551-6.86-4.296-8.727l-2.885-3.089-.628 3.137c-.345 1.725-.399 3.365-.12 3.643.279.28.507-.243.507-1.16 0-1.96 1.546-2.202 2.665-.416.43.688.648 5.351.484 10.364-.288 8.77-.212 9.143 2.026 9.898 2.38.804 6.199 2.21 6.484 2.388.088.055-.512-2.262-1.334-5.15zM143 236.883c0-.485 1.8-.883 4-.883s4-.379 4-.841c0-1.107-7.873.133-10.75 1.692-2.918 1.581-2.845 1.985.25 1.394 1.375-.263 2.5-.876 2.5-1.362zm-130.317-2.07c-.32-.798-.556-.561-.604.604-.043 1.054.193 1.644.525 1.312.332-.332.368-1.195.08-1.917zm87.98-1.063c-.278-.688-.505-.125-.505 1.25s.227 1.938.504 1.25c.278-.688.278-1.813 0-2.5zm35.993-5.822c-.583-8.2-.481-9.041 1.056-8.745 2.032.391 3.053 3.617 3.188 10.075.097 4.632.16 4.725 2.35 3.5 1.238-.692 2.33-1.264 2.43-1.27.098-.007-.464-3.382-1.25-7.5-1.76-9.232-1.763-8.988.121-8.988 1.549 0 4.449 5.54 4.449 8.5 0 .86.641 3.099 1.425 4.974 1.372 3.285 1.537 3.367 4.509 2.245 1.696-.64 2.946-1.402 2.777-1.692-2.465-4.233-6.259-13.418-6.826-16.527-1.13-6.184-4.895-18.408-4.544-14.75.25 2.595-.056 3.25-1.514 3.25-1.12 0-1.827-.726-1.827-1.878 0-1.032-.675-2.437-1.5-3.122s-1.5-2.288-1.5-3.563c0-2.616-1.575-4.11-2.313-2.193-.266.69-.236 5.418.066 10.506.313 5.278.159 9.25-.36 9.25-.499 0-.743-2.138-.542-4.75.2-2.613.125-4.521-.168-4.242-.293.28-.737 2.755-.986 5.5-.25 2.746-1.004 6.17-1.676 7.61-.988 2.118-.916 4.097.379 10.357.88 4.256 1.6 8.816 1.6 10.132 0 1.316.292 2.393.65 2.393.357 0 .36-4.082.006-9.072zM77 235.655c0-.19-1.012-1.202-2.25-2.25L72.5 231.5l1.905 2.25c1.79 2.114 2.595 2.705 2.595 1.905zM83.325 222c.8-4.125 1.916-8.625 2.483-10 .566-1.375 1.315-3.387 1.664-4.472.415-1.287.882-1.574 1.344-.826.454.735 1.13.25 1.886-1.351.952-2.016.932-2.292-.104-1.433-.705.586-1.578.769-1.94.407-.362-.362-.658-.133-.658.508 0 2.193-2 1.173-2.123-1.083-.068-1.238-.539.653-1.045 4.202-.507 3.548-1.317 6.927-1.8 7.509-1.39 1.675-4.237 18.4-3.367 19.787.813 1.298.91.95 3.66-13.248zm11.561 8.58c.489-2.615.547-4.378.129-3.917-.86.948-2.404 10.06-1.562 9.217.3-.3.944-2.684 1.433-5.3zm44.797 3.232c-.32-.797-.556-.56-.604.605-.043 1.054.193 1.644.525 1.312.332-.332.368-1.195.08-1.917zm-26.6-6.016l-.477-4.296-.562 3.5c-.309 1.925-.246 3.642.14 3.815.387.173.461 1.073.165 2-.362 1.135-.252 1.292.337.48.482-.662.66-3.137.398-5.5zM73.07 228c.511 0 .93-.477.93-1.059s-.338-.85-.75-.596c-.412.255-.75-.626-.75-1.959 0-2.248.1-2.296 1.385-.654 1.315 1.68 1.352 1.676.75-.064-.35-1.007-.635-2.3-.635-2.872 0-.685-.458-.66-1.341.072-.8.664-1.356 3.235-1.378 6.373-.02 2.892.165 4.246.411 3.009.246-1.238.866-2.25 1.378-2.25zm28.613 1.813c-.32-.798-.556-.561-.604.604-.043 1.054.193 1.644.525 1.312.332-.332.368-1.195.08-1.917zm59.105-.95c-.25-.749-.703-.295-1.057 1.057-.435 1.663-.305 2.054.437 1.312.582-.582.86-1.647.62-2.369zm-85.247 1.07c1.026-1.66.105-1.89-1.33-.332-.71.77-.849 1.399-.31 1.399.54 0 1.278-.48 1.64-1.067zm34.627-15.432c-.225-8.5.015-12.501.75-12.501.595 0 1.082-.863 1.082-1.917s.531-2.093 1.18-2.31c.748-.249.892-1.103.393-2.333-.774-1.905-.802-1.904-1.61.06-.727 1.77-.83 1.69-.893-.693-.058-2.213.304-2.62 2.032-2.287 3.269.63 4.898 2.47 4.898 5.531 0 3.618 2.661 6.475 4.562 4.897.743-.616 1.773-.859 2.29-.54 1.43.884 2.114-1.896 1.247-5.073-.67-2.455-1.198-2.793-3.936-2.521-2.726.27-3.165-.005-3.178-2-.012-1.777-.227-1.98-.924-.878-.753 1.19-1.178 1.211-2.485.127-.867-.72-1.576-1.875-1.576-2.569 0-1.399-3.075-2.46-7.191-2.48-1.48-.008-2.97-.464-3.309-1.014-.34-.55-1.746-1-3.125-1-4.687 0-6.214-1.58-6.028-6.238.148-3.693.463-4.252 2.362-4.188 1.205.04 1.962-.297 1.682-.75-.806-1.304-3.032-.961-4.391.676-.685.825-2.202 1.529-3.372 1.563-2.089.063-2.087.08.122.968 2.504 1.007 3.257 5.969.905 5.969-.74 0-2.129.866-3.086 1.924-1.66 1.833-1.655 1.91.095 1.617 1.01-.169 1.74-.761 1.622-1.317-.118-.555.67-1.24 1.75-1.523 2.534-.663 2.516.846-.036 3.031-2.008 1.719-2.93 7.96-1 6.768.567-.35 1.059.6 1.136 2.191.131 2.701.154 2.713.588.309.507-2.81 4.147-7.198 5.352-6.453.432.267 1.114-.084 1.515-.78.401-.697.361-.933-.089-.526-.45.408-1.31.333-1.913-.167-.68-.564-1.83-.37-3.033.509-1.066.78-1.376 1.417-.688 1.417.687 0 .972.45.632 1-1.047 1.694-3.5 1.105-3.5-.84C91 188 94.866 186 99.047 186c3.228 0 4.028 2.366 1.703 5.035-.688.79-.037.374 1.445-.922 1.946-1.703 3.385-2.184 5.181-1.733l2.487.624-.58 16.34c-.485 13.694-.123 21.65.986 21.657.127.001.082-5.624-.1-12.5zm9.36-13.455c-1.062-1.719.377-4.788 2.507-5.345 1.082-.283 1.74-.145 1.46.307-.279.452.058 1.027.749 1.278.949.345.985.916.149 2.335-1.29 2.19-3.917 2.959-4.864 1.425zm38.058 19.112c-1.04-1.04-1.586-1.168-1.586-.372 0 .668.477 1.214 1.059 1.214s.806.41.497.91c-.31.5-.228 1.738.182 2.75.656 1.623.785 1.56 1.09-.538.19-1.308-.37-3.092-1.242-3.964zm72.121-3.396c-.239-1.244-.444-.462-.455 1.738-.01 2.2.185 3.218.435 2.262s.26-2.756.02-4zM80.86 216c0-.945-.317-.76-.859.5-.821 1.911-.863 1.915-.93.083-.038-1.054-.317-1.67-.619-1.368-.301.302-.229 1.823.162 3.38.636 2.535.792 2.626 1.479.869.422-1.08.767-2.639.767-3.464zm73.957-.504c-.627-1.378-1.33-2.316-1.56-2.086-.467.467 1.561 4.59 2.258 4.59.244 0-.07-1.127-.698-2.504zM128 212.5c0-2.721-1.043-3.082-4.13-1.43-1.596.854-1.76 1.358-.812 2.5 2.002 2.413 4.942 1.776 4.942-1.07zm72.01-.864c1.92.199 2.925.098 2.234-.223-.691-.321-1.002-.995-.691-1.498.31-.503.119-.915-.427-.915-.545 0-1.277-.9-1.626-2-.736-2.32-2.167-2.678-2.167-.544 0 .8.488 1.179 1.084.84.595-.34.75-.248.342.202s-.24 1.422.372 2.16c1.793 2.16-.629 1.554-2.631-.658-.995-1.1-2.267-2-2.826-2-.56 0-1.856-.76-2.883-1.69-1.785-1.615-1.825-1.582-.925.75.518 1.342 1.435 2.327 2.038 2.19.603-.138 1.096.249 1.096.858 0 .697-.973.865-2.617.452-1.439-.361-3.904-.914-5.477-1.229-1.574-.315-3.376-1.193-4.006-1.952-1.398-1.684-2.9-1.794-2.9-.212 0 .641.297.87.66.506.363-.363 1.289.237 2.057 1.333.982 1.402 2.534 1.994 5.229 1.994 2.327 0 4.76.766 6.193 1.95 1.903 1.573 2.557 1.697 3.37.639.605-.786 2.411-1.168 4.5-.953zM120.29 211c.322-1.23 1.424-2.045 2.866-2.116 1.771-.088 1.905-.23.546-.583-.989-.256-2.451.076-3.25.739-1.928 1.6-4.452-.407-4.452-3.54 0-1.24-.675-2.815-1.5-3.5-1.95-1.618-1.905-1.235.639 5.411 2.19 5.725 4.222 7.14 5.15 3.589zm12.695-3.473l.015-2.972-1.564 2.233c-.951 1.358-1.3 3.064-.89 4.355.893 2.816 2.417.558 2.439-3.616zm-44.302 2.286c-.32-.798-.556-.561-.604.604-.043 1.054.193 1.644.525 1.312.332-.332.368-1.195.08-1.917zm-6.728-6.263c.027-1.16-.305-1.565-.819-1-1.38 1.519-3.036 7.217-2.309 7.944.804.803 3.065-4.218 3.128-6.944zm70.728 5.263c-.32-.798-.556-.561-.604.604-.043 1.054.193 1.644.525 1.312.332-.332.368-1.195.08-1.917zm-40.02-3.063c-.278-.688-.505-.125-.505 1.25s.227 1.938.504 1.25c.278-.688.278-1.813 0-2.5zm115.826-195.5l-.58-3.25-9.204.201-9.205.201 7.953.345c4.374.19 8.536.829 9.25 1.421 1.044.867 1.345 20.515 1.542 100.704l.245 99.628.29-98c.158-53.9.028-99.463-.291-101.25zm-99.76 197.146c-.332-.332-1.195-.368-1.917-.08-.797.32-.56.557.605.605 1.054.043 1.644-.193 1.312-.525zm-8.729-.837c0-.243-.45-.72-1-1.059-.55-.34-1-.141-1 .441s.45 1.059 1 1.059 1-.198 1-.441zm31.683-1.746c-.32-.798-.556-.561-.604.604-.043 1.054.193 1.644.525 1.312.332-.332.368-1.195.08-1.917zm35.44-1.28c-1.423-3.04-2.086-3.472-5.373-3.5-3.886-.034-5.32 2.15-2.198 3.349.854.327 1.306.197 1.006-.289-.3-.486.18-1.162 1.068-1.503 1.24-.476 1.493-.152 1.09 1.391-.417 1.59.133 2.202 2.629 2.925 1.735.502 3.21.954 3.279 1.004.068.05-.608-1.47-1.5-3.377zm9.627 2.217c-.157-.785.751-1.183 2.442-1.07 3.941.264 2.575-1.87-2.456-3.835-5.472-2.138-11.032-3.133-10.227-1.83.335.542 1.896.985 3.468.985 4.811 0 6.122.865 4.726 3.12-.973 1.57-.917 2.123.297 2.895 1.944 1.237 2.047 1.221 1.75-.265zm-1.75-2.143c0-.216.698-.661 1.552-.989.89-.341 1.291-.173.94.393-.586.95-2.492 1.406-2.492.596zm-19.196-.19c.23-1.456.08-1.589-.63-.554-.715 1.046-1.175.696-1.974-1.5l-1.042-2.863-.079 3.083c-.043 1.696.23 3.393.609 3.771 1.136 1.136 2.792.107 3.116-1.937zM83.97 201.25c-.023-2.77-.272-3.338-.952-2.175-.825 1.41-.368 5.925.599 5.925.21 0 .37-1.688.353-3.75zm50.713.563c-.32-.798-.556-.561-.604.604-.043 1.054.193 1.644.525 1.312.332-.332.368-1.195.08-1.917zm58.317.128c0-.518-.675-.941-1.5-.941-1.546 0-1.987 1.18-.86 2.306.798.8 2.36-.104 2.36-1.365zm-101.755-4.442c-.263-1.375-.849-2.499-1.301-2.499-.453 0-1.01-1.462-1.24-3.25-.23-1.788-.232-1.45-.004.75.227 2.2.464 5.52.526 7.378.096 2.871.292 3.134 1.305 1.75.655-.897.976-2.755.714-4.13zm25.209.323c-.64-2.889-.84-3.061-1.525-1.322-1.11 2.815-1.088 3.717.071 3 .55-.34 1 .159 1 1.108 0 .949.268 1.458.595 1.13.328-.327.264-2.09-.141-3.916zm-17.258.428c-.29-1.512-.72-2.173-.956-1.467-.425 1.272.336 4.217 1.09 4.217.216 0 .156-1.238-.134-2.75zm28.796-1.969c-1.083-1.688-1.113-1.685-.568.05.317 1.008.628 2.583.692 3.5.105 1.504.16 1.499.567-.05.248-.945-.063-2.52-.691-3.5zm2.847.498c-.522-2.322-1.19-4.46-1.483-4.75-.587-.58.646 7.013 1.334 8.221.986 1.729 1.04.491.149-3.471zm46.756 1.971l1.905-2.25-2.5 1.99c-1.375 1.093-2.688 2.106-2.917 2.25-.229.143.039.26.595.26.557 0 1.87-1.012 2.917-2.25zm-89.427-1.982c-.742-.742-.872-.351-.437 1.312.354 1.352.807 1.806 1.057 1.057.24-.722-.038-1.787-.62-2.369zm45.494-.018c-.277-.688-.504-.125-.504 1.25s.227 1.937.504 1.25c.278-.688.278-1.813 0-2.5zm2.021.062c-.32-.797-.556-.56-.604.605-.043 1.054.193 1.644.525 1.312.332-.332.368-1.195.08-1.917zm9 0c-.32-.797-.556-.56-.604.605-.043 1.054.193 1.644.525 1.312.332-.332.368-1.195.08-1.917zM44.888 183.45c-.44-.577-1.106-2.964-1.48-5.304-.474-2.958-1.087-4.1-2.013-3.744-.732.28-1.597.08-1.922-.446-.325-.526.336-.956 1.468-.956 1.3 0 2.053-.645 2.044-1.75-.02-2.33-1.15-3.75-2.985-3.75-2.032 0-2.958 2.371-2.357 6.032.274 1.667-.175 4.983-.997 7.369-1.533 4.45-1.502 4.655 1.939 12.943l1.803 4.344 2.65-6.844c1.458-3.764 2.29-7.316 1.85-7.894zm-7.204 3.8c-.665-1.15.663-3.72 2.066-4 .733-.147 1.25.783 1.25 2.25 0 2.345-2.277 3.547-3.316 1.75zM171 197.622c0-.207-.787-.995-1.75-1.75-1.586-1.243-1.621-1.208-.378.378 1.307 1.666 2.128 2.195 2.128 1.372zm5.909-1.012c.893-1.077.663-2.22-1.022-5.076-1.462-2.48-2.422-3.286-2.93-2.465-.415.673-1.476.946-2.356.608-1.14-.437-1.601-1.91-1.601-5.108 0-5.11-3.273-14.723-5.696-16.728-.892-.737-2.423-3.13-3.403-5.315-1.323-2.952-2.375-3.98-4.091-4-2.174-.025-2.292-.36-2.012-5.687.164-3.114-.146-5.936-.69-6.272-1.372-.848-4.427 2.66-5.925 6.802-1.198 3.315-1 3.946 4.827 15.294 5.605 10.919 9.63 16.18 14.463 18.904 1.042.587 2.413 2.612 3.049 4.5.635 1.888 1.903 3.579 2.817 3.756.913.178 1.661.74 1.661 1.25 0 1.376 1.593 1.122 2.909-.463zm8.091-.051c0-2.013-1.953-3.006-3.287-1.672-.817.817-.728 1.117.337 1.128 1.233.013 1.226.16-.05.985-1.213.784-1.07.972.75.985 1.3.009 2.25-.594 2.25-1.426zm-37.005-3.271c-1.09-1.7-1.118-1.697-.57.044.316 1.007.61 2.357.654 3 .057.843.216.83.57-.044.271-.667-.023-2.017-.654-3zM86.9 190.69c-.095-3.047-.135-3.078-.9-.691-1.15 3.59-1.15 5.21 0 4.5.55-.34.955-2.054.9-3.809zm38.973.93c-.748-1.643-1.67-2.225-2.978-1.883-2.478.648-2.445 2.262.046 2.262 1.068 0 2.22.45 2.559 1 1.19 1.926 1.447.978.373-1.379zM181 193.674c0-.179-1.238-1.416-2.75-2.75l-2.75-2.424 2.424 2.75c2.266 2.57 3.076 3.209 3.076 2.424zm-38.36-9.171c-.62-1.27-1.126-1.544-1.39-.75-.523 1.567-3.893 1.633-4.844.095-.391-.633-.064-1.646.728-2.25.791-.604 1.273-1.907 1.07-2.896-.203-.989.23-2.564.963-3.5 1.168-1.492 1.138-1.55-.245-.472-.868.676-3.343 1.644-5.5 2.15-3.886.91-3.892.92-.703 1.02 2.277.07 3.066.498 2.697 1.46-.77 2.007-5.03 4.002-6.961 3.261-1.423-.546-1.48-.91-.366-2.383 1.117-1.477 1.104-1.55-.087-.488-.771.688-2.212 1.25-3.202 1.25-2.129 0-2.485-3.858-.55-5.954.688-.745.137-.61-1.223.3-2.701 1.807-7.027 2.23-7.027.685 0-1.416-2.748-.129-3.411 1.598-.319.83-.133 1.207.424.863.545-.337 1.429.54 1.964 1.948 1.25 3.287 2.893 3.331 2.268.06-.412-2.151-.113-2.5 2.138-2.5 1.912 0 2.617.516 2.617 1.917 0 1.054-.338 2.105-.75 2.336-.412.23-.188.282.5.115.745-.182 1.25.693 1.25 2.163 0 1.358-.525 2.469-1.167 2.469-.641 0-.91.256-.597.57.703.703 4.764-1.743 4.764-2.87 0-.45-.45-.54-1-.2s-1 .19-1-.334.675-1.211 1.5-1.528c1.12-.43 1.5.156 1.5 2.312 0 1.587.317 3.71.704 4.718.614 1.599.779 1.514 1.291-.668.37-1.579 1.4-2.618 2.796-2.82 1.887-.272 2.22.165 2.288 3l.079 3.32 1.023-2.807c.82-2.25 1.547-2.745 3.671-2.5 2.089.242 2.738.94 3.076 3.307l.427 3 .63-3.5c.348-1.925.192-4.399-.344-5.497zm3.777 4.14c-.8-2.084-2.417-2.14-2.417-.084 0 .857.45 1.28 1 .941.55-.34 1-.067 1 .608 0 .674.236.99.524.702.287-.288.24-1.263-.107-2.167zM118 187.5c.718-.865.815-1.5.23-1.5-.56 0-1.275.675-1.592 1.5-.316.825-.42 1.5-.23 1.5.191 0 .907-.675 1.592-1.5zm46 1.122c0-.207-.787-.995-1.75-1.75-1.586-1.243-1.621-1.208-.378.378 1.307 1.666 2.128 2.195 2.128 1.372zm-42-3.063c0-.243-.45-.72-1-1.059-.55-.34-1-.141-1 .441s.45 1.059 1 1.059 1-.198 1-.441zm-9.25-1.248c-.963-.252-2.538-.252-3.5 0-.963.251-.175.457 1.75.457s2.712-.206 1.75-.457zm-7.191-1.843c-1.824-1.38-9.605-2.18-8.276-.852.676.676 6.34 2.138 8.717 2.25 1.11.052.995-.312-.441-1.398zM159 183.622c0-.207-.787-.995-1.75-1.75-1.586-1.243-1.621-1.208-.378.378 1.307 1.666 2.128 2.195 2.128 1.372zm12.683-2.81c-.32-.797-.556-.56-.604.605-.043 1.054.193 1.644.525 1.312.332-.332.368-1.195.08-1.917zm-61.183-.644c-1.65-.19-3.471-.643-4.047-1.006-.576-.364-.24.084.746.995 1.159 1.071 2.592 1.427 4.047 1.007 2.046-.59 1.978-.682-.746-.996zm22.37-1.034c-.587-.201-1.8.367-2.696 1.263-1.506 1.506-1.425 1.534 1.066.366 1.482-.694 2.215-1.428 1.63-1.63zm-31.59-1.42c.294-.767-.267-1.285-1.394-1.285-1.037 0-1.886.578-1.886 1.285S98.627 179 99.393 179s1.615-.579 1.886-1.286zM130.766 175c.627 0 2.285-.522 3.686-1.16 1.942-.885 2.547-1.907 2.547-4.3 0-1.727-.536-3.676-1.191-4.331-.922-.922-.916-4.418.027-15.45.866-10.127.923-15.998.197-20.259-.562-3.3-1.024-7.013-1.027-8.25-.007-2.662 2.635-3.062 3.305-.5.255.977.505.425.566-1.25.1-2.767-.305-3.136-5.22-4.75-2.932-.963-6.011-1.75-6.844-1.75-2.766 0-9.808-5.877-9.893-8.256-.045-1.24-.607-.23-1.256 2.256-1.02 3.908-.962 4.587.438 5.165.908.374 1.866 2.34 2.195 4.5.32 2.11.88 4.96 1.244 6.335 1.823 6.889 1.765 8.107-.412 8.676-1.864.488-2.04 1.046-1.485 4.689.346 2.274.974 4.81 1.394 5.635.42.825 1.086 3.643 1.479 6.262.392 2.619 1.656 5.959 2.807 7.422 1.292 1.643 2.188 4.413 2.341 7.239.137 2.517.544 6.431.906 8.697.42 2.626.253 4.37-.457 4.81-.613.378-1.114 1.19-1.114 1.803 0 .614 1.041.137 2.314-1.059 1.273-1.196 2.827-2.174 3.453-2.174zm-21.992 1.011c-1.018-1.63-.942-2.578.418-5.25 2.27-4.459 2.902-8.378 3.484-21.592.635-14.42.267-15.951-3.93-16.356-2.476-.239-3.247-.788-3.247-2.313 0-1.1-.563-2.36-1.25-2.8-.688-.44-1.25-1.902-1.25-3.25 0-1.347-.46-2.45-1.021-2.45-.562 0-1.528-1.112-2.147-2.47-1.348-2.957.515-5.991 3.078-5.016.895.34 1.153.247.59-.212-.55-.45-2.573-2.164-4.496-3.81-3.25-2.78-3.329-2.8-1.124-.293 2.469 2.808 2.318 5.801-.292 5.801-.811 0-2.26-1.328-3.218-2.95-1.713-2.901-1.872-2.947-9.605-2.75l-7.862.2 2.548 2.202c1.402 1.211 2.549 2.844 2.549 3.628 0 .784.75 2.043 1.667 2.798 4.97 4.092 9.497 13.872 6.42 13.872-.5 0-1.215 1.798-1.586 3.995s-1.086 4.248-1.588 4.559c-.502.31-.913 1.073-.913 1.696 0 1.715 2.932-2.52 2.968-4.288.023-1.094 1.185-1.583 4.032-1.697 3.979-.158 5.168.91 2.714 2.435-1.588.988-5.714 6.289-5.714 7.341 0 .425.9.536 2 .249 2.654-.694 2.71 2.612.098 5.837-1.898 2.344-1.895 2.355 1.5 6.114 3.748 4.148 4.167 5.879 1.883 7.775-1.238 1.027-1.853.957-3.328-.378-2.538-2.297-3.293-2.043-2.564.862.36 1.437.196 2.5-.387 2.5-.558 0-.78.9-.492 2 .645 2.466 1.137 2.466 4.29 0 2.749-2.15 5.081-2.519 6.563-1.037.617.617 2.28-.28 4.633-2.5 2.019-1.905 4.15-3.463 4.737-3.463 1.839 0 1.157 3.375-1.303 6.45l-2.36 2.948 2.115 1.768c2.723 2.275 2.896 2.256 1.39-.155zm4.701-2.011c.72 0 1.569-.675 1.886-1.5.639-1.665 3.638-2.077 3.638-.5 0 .55-.477 1-1.059 1s-.78.45-.441 1c.34.55 1.243 1 2.007 1 1.117 0 1.179-.603.317-3.076-1.3-3.726.155-6.016 2.555-4.024 1.22 1.012 1.374.871.926-.843-.296-1.131-.887-2.057-1.313-2.057-1.033 0-2.3-4.585-2.59-9.365-.277-4.601-1.98-6.897-3.05-4.112-.427 1.115-.24 2.014.468 2.25.649.217 1.18 1.931 1.18 3.81 0 2.75-.39 3.417-2 3.417-1.1 0-2 .188-2 .418 0 .23-.286 1.243-.635 2.25-.588 1.699-.526 1.693.849-.07 2.831-3.634 5.153.98 2.75 5.468-.573 1.072-2.085 1.934-3.392 1.934-2.464 0-4.07 2.384-2.892 4.291.49.794.8.768 1.086-.09.22-.66.99-1.201 1.71-1.201zM109 166.626c0-.348-1.575 1.112-3.5 3.242-1.925 2.131-3.5 4.159-3.5 4.506 0 .348 1.575-1.112 3.5-3.242 1.925-2.131 3.5-4.159 3.5-4.506zm15.683 4.187c-.32-.798-.556-.561-.604.604-.043 1.054.193 1.644.525 1.312.332-.332.368-1.195.08-1.917zm-8.876-4.34c-.308-.307-.867.248-1.243 1.234-.542 1.425-.428 1.54.56.56.684-.679.99-1.486.683-1.793zm-27.659-4.416c.713 1.024.902 1.058.653.118-.193-.729-.79-1.323-1.326-1.321-1.494.006-4.475-2.998-4.475-4.509 0-1.928 3.044-1.66 4.59.405 1.192 1.591 1.259 1.545.742-.505-.312-1.24-.082-2.841.512-3.557.82-.989.405-1.7-1.729-2.96-2.617-1.547-2.762-1.966-2.127-6.15.375-2.471.345-4.284-.068-4.029-.412.255-.98-.102-1.263-.793-.282-.69-.268.822.033 3.362.641 5.428-.793 6.975-3.923 4.23-2.06-1.807-2.089-1.803-1.323.152.43 1.1.994 2.9 1.253 4 .482 2.05.994 3.405 3.59 9.5.82 1.925 1.876 4.625 2.348 6 .785 2.29.885 2.169 1.183-1.443.247-2.984.57-3.592 1.33-2.5zM81 151.3c0-2.1.267-2.433 1.2-1.5 1.504 1.504 3.152 1.578 2.238.1-.477-.773-.05-.762 1.441.035 2.342 1.253 2.71 2.583 1.01 3.634-.612.378-1.505.067-1.985-.69-.633-.999-.878-1.034-.889-.129-.008.688-.69 1.25-1.515 1.25-.963 0-1.5-.967-1.5-2.7zm85 15.322c0-.207-.787-.995-1.75-1.75-1.586-1.243-1.621-1.208-.378.378 1.307 1.666 2.128 2.195 2.128 1.372zm-27.655-3.165c-.326-.849-.807-1.329-1.069-1.067-.262.262-.18.957.183 1.543.986 1.596 1.562 1.286.886-.476zM147 163c-.589-1.1-1.295-2-1.57-2-.275 0-.019.9.57 2s1.295 2 1.57 2c.275 0 .019-.9-.57-2zm-53 .674c0-.179-1.238-1.416-2.75-2.75L88.5 158.5l2.424 2.75c2.266 2.57 3.076 3.209 3.076 2.424zm29.662-2.924c-.277-.688-.504-.125-.504 1.25s.227 1.938.504 1.25c.278-.688.278-1.813 0-2.5zm19.608-.3c.924-.355 1.26-1.453.948-3.092-.323-1.688-.743-2.126-1.251-1.304-1.183 1.914-4.06.358-3.263-1.766.595-1.587.476-1.63-1.064-.376-.954.776-1.33 1.676-.837 2 .494.323 1.43 1.6 2.082 2.838 1.304 2.476 1.33 2.489 3.385 1.7zm-27.323-4.806c-.963-.888-1.096-.733-.594.688.356 1.007.7 2.357.763 3 .064.642.331.333.594-.688.263-1.021-.08-2.371-.763-3zM139 159.456c0-.116-.675-.771-1.5-1.456-1.217-1.01-1.5-.97-1.5.21 0 .802.675 1.457 1.5 1.457s1.5-.095 1.5-.211zM36 152.5c0-4.833-.242-5.5-2-5.5-1.1 0-2.006.563-2.014 1.25-.007.688-.274 2.22-.592 3.408-.51 1.898 2.367 6.342 4.106 6.342.275 0 .5-2.475.5-5.5zm10.559 3.945c1.91-1.53 1.909-1.54-.059-.635-1.1.506-2.675 1.17-3.5 1.476-1.296.48-1.288.567.059.635.857.043 2.432-.62 3.5-1.476zm109.124-2.632c-.32-.798-.556-.561-.604.604-.043 1.054.193 1.644.525 1.312.332-.332.368-1.195.08-1.917zM47 151.952c0-1.009.403-2.083.896-2.388.893-.552-.011-6.323-1.323-8.446-1.492-2.414-2.084-.812-2.35 6.363-.237 6.365-.05 7.39 1.25 6.891.84-.322 1.527-1.411 1.527-2.42zm5-.223c1.002-.382.753-.597-.75-.65-1.512-.053-2.245.495-2.235 1.671.01 1.08.297 1.328.75.65.404-.605 1.41-1.357 2.235-1.671zm86.683-1.917c-.32-.797-.556-.56-.604.605-.043 1.054.193 1.644.525 1.312.332-.332.368-1.195.08-1.917zm9.02-5.564c1.322-1.239 3.71-2.927 5.304-3.752l2.9-1.499-2.554-2.553c-2.428-2.428-2.622-2.464-3.973-.748-.781.992-2.151 3.154-3.044 4.804-.892 1.65-2.702 4.008-4.02 5.24-2.047 1.913-2.226 2.559-1.227 4.426 1.164 2.175 1.179 2.17 2.689-.74.835-1.61 2.601-3.94 3.924-5.178zm-93.02 4.564c-.32-.797-.556-.56-.604.605-.043 1.054.193 1.644.525 1.312.332-.332.368-1.195.08-1.917zm104.507-5.395c1.406-2.568 1.448-3.084.25-3.084-.792 0-1.193.248-.89.55.302.302-1.161 1.119-3.25 1.815l-3.8 1.266 3.5-.464c2.88-.383 3.235-.247 2 .768-.939.77-1.345 2.354-1.085 4.232.404 2.926.429 2.938 1 .5.322-1.375 1.346-3.887 2.275-5.583zm-129.507 4.395c-.32-.797-.556-.56-.604.605-.043 1.054.193 1.644.525 1.312.332-.332.368-1.195.08-1.917zm38.88-2.062l2.937-3.25-3.055 2.75c-1.68 1.512-3.555 2.75-4.166 2.75-1.835 0-2.067-2.407-.367-3.805 1.346-1.106 1.243-1.138-.675-.208-1.862.903-2.077 1.443-1.215 3.055 1.485 2.773 3.167 2.441 6.54-1.292zm49.075 1.75c.317-.825.279-2.275-.085-3.222-.566-1.475-.794-1.51-1.591-.25-1.252 1.978-1.21 4.972.07 4.972.567 0 1.29-.675 1.606-1.5zM149.5 146c.995-1.1 1.585-2 1.31-2-.275 0-1.315.9-2.31 2-.995 1.1-1.585 2-1.31 2 .275 0 1.315-.9 2.31-2zm-106.677-1.332c.39-2.014-4.34-2.394-5.2-.418-.299.688-.3-.1-.002-1.75.302-1.675.174-2.533-.29-1.942-.457.582-1.956 1.875-3.331 2.873-1.563 1.135-1.816 1.583-.676 1.195 1.004-.341 2.426-.019 3.161.716 1.82 1.82 5.94 1.38 6.338-.674zm9.539.247c.911.122.958-.567.27-4.005-.543-2.714-2.632-3.342-2.632-.792 0 .55.445.725.989.39.572-.355.73.06.376.983-.693 1.807-.673 1.818-2.272-1.255-.648-1.246-.822-2.146-.386-2 1.564.521 1.258-1.27-.52-3.049-1.456-1.456-2.046-1.563-3-.542-1.427 1.527-1.569 2.709-.225 1.879 1.095-.678 5.03 6.475 5.053 9.186.012 1.364.217 1.472.862.455.466-.735 1.134-1.297 1.485-1.25zM64 137.54c0-5.779-1.121-8.09-4.427-9.124-2.94-.92-3.614-.718-6.768 2.03l-3.503 3.053 2.35 2.479c1.291 1.363 2.348 3.305 2.348 4.316 0 1.01.475 2.725 1.056 3.81 1.018 1.902 1.2 1.86 5-1.15 2.535-2.007 3.944-3.941 3.944-5.414zm19 5.959c0-.825-.177-1.5-.393-1.5-.216 0-.652.675-.969 1.5-.316.825-.14 1.5.393 1.5s.969-.675.969-1.5zm7.5-.5c.995-1.1 1.585-2 1.31-2-.275 0-1.315.9-2.31 2-.995 1.1-1.585 2-1.31 2 .275 0 1.315-.9 2.31-2zm-8.815-5.378c-.613-1.599 3.52-1.897 4.519-.326.56.88.77.82.78-.223.01-.785-1.593-3.763-3.56-6.618-3.623-5.262-5.909-12.037-4.379-12.983.46-.285-.149-1.546-1.354-2.804-1.44-1.502-2.605-1.98-3.397-1.391-.664.492-1.645.624-2.181.293-.536-.332-1.257-.145-1.603.414-.345.559-1.52 1.016-2.608 1.016-1.631 0-1.755.241-.704 1.367 1.008 1.08 1.49 1.106 2.29.127 1.465-1.793 5.285-2.478 6.36-1.14 1.832 2.28 2.328 7.626.989 10.653-.729 1.646-1.665 2.993-2.081 2.993-.416 0-.756.675-.756 1.5s.45 1.5 1 1.5 1 1.425 1 3.167c0 4.744.904 2.91 1.344-2.73.378-4.833 1.855-7.357 2.462-4.205.436 2.262-2.11 10.516-3.306 10.718-.55.092-1.293-.871-1.65-2.141-.563-1.998-.664-1.882-.75.858-.055 1.741-.662 3.388-1.35 3.658-.688.27.438.25 2.5-.047 3.187-.459 3.756-.257 3.79 1.341.03 1.452.39 1.235 1.575-.952.845-1.558 1.326-3.378 1.07-4.045zM79 137.5c0-.825.177-1.5.393-1.5.216 0 .652.675.969 1.5.316.825.14 1.5-.393 1.5s-.969-.675-.969-1.5zm67.17-.012c1.774-2.743 3.096-5.639 2.939-6.434-.244-1.23-.04-1.242 1.357-.082 1.498 1.243 1.535 1.124.416-1.332-.914-2.005-1.462-2.369-2.136-1.418-.59.831-.704.339-.323-1.41.717-3.298-.64-4.3-3.652-2.694-2.146 1.143-2.188 1.104-.771-.704 1.387-1.77 1.368-1.81-.25-.542-.963.755-1.782 2.105-1.82 3-.06 1.385-.172 1.404-.75.128-.374-.825-1.37-1.546-2.212-1.603-1.163-.077-1.438.707-1.14 3.26.216 1.849.793 3.609 1.282 3.911.49.303.897 1.761.905 3.241.012 2.105.227 2.364.985 1.191.753-1.165.973-.872.985 1.31.01 1.865.403 2.569 1.17 2.095.744-.46.881-.273.387.528-.553.894-1.072.937-1.855.154-1.748-1.748-2.687-1.266-2.687 1.38 0 3.813 3.328 1.965 7.17-3.98zM145.5 133c.995-1.1 1.969-2 2.163-2 .195 0-.208.9-.895 2s-1.66 2-2.164 2c-.502 0-.1-.9.896-2zm-4.354-2c-.071-2.926.089-3.201.975-1.677 1.026 1.764 1.13 1.764 3.22 0l2.159-1.823-1.884 2.226c-1.036 1.225-2.24 2.007-2.674 1.738-.435-.269-.997.305-1.25 1.274-.253.969-.499.187-.546-1.738zm-108.583 8.698c-2.366-3.675-2.828-8.85-1.147-12.856.844-2.012 2.108-3.89 2.81-4.171.7-.282.313-.549-.863-.592-1.63-.06-2.296.69-2.812 3.171-1.349 6.485-1.572 13.75-.423 13.75.722 0 .631.599-.256 1.692-.781.964-.864 1.387-.191.984.65-.39 1.468-.244 1.819.324.351.568 1.052.777 1.558.464.519-.32.303-1.527-.495-2.766zm36.562-3.922c-.91-3.157-.947-3.094-1.004 1.724-.046 3.808.18 4.589.945 3.276.65-1.117.672-2.878.06-5zm-30.175 2.088c2.353-.126 2.376-.17.3-.57-3.659-.704-2.768-3.294 1.133-3.294 2.787 0 3.466-.428 3.847-2.423.35-1.832-.049-2.565-1.633-3-1.766-.486-1.86-.732-.597-1.562 1.159-.76.818-.984-1.5-.984-2.37 0-2.685.218-1.5 1.038 1.268.878 1.22.991-.303.735-2.94-.496-2.029-2.256 1.514-2.922 3.172-.597 3.139-.623-.935-.75-3.785-.118-4.394.196-5.854 3.019-2.314 4.475-.719 14.546 1.89 11.936.599-.598 2.236-1.148 3.638-1.223zm-5.535-4.002c-.432-.698-.292-.904.345-.51.588.363 1.297.095 1.576-.596.362-.899.529-.917.585-.065.114 1.72-1.656 2.548-2.506 1.17zM37 131.5c0-1.05.975-1.464 3.25-1.382l3.25.119-3 .717-3 .717 3 .515 3 .514-3.25.15c-2.289.106-3.25-.294-3.25-1.35zm-3.5-1.5c-.34-.55-.141-1 .441-1s1.059.45 1.059 1-.198 1-.441 1-.72-.45-1.059-1zm9.5 9c1.828-1.181.25-1.181-2.5 0-1.319.567-1.49.878-.5.914.825.03 2.175-.38 3-.914zm30.364-7.32c.238-2.54 1.179-5.365 2.091-6.278.913-.913 1.407-2.319 1.098-3.124-.309-.805-.833-2.547-1.166-3.87-.681-2.717-1.39-2.962-3.334-1.158-1.094 1.016-1.199.969-.559-.25.652-1.242.498-1.229-.894.077-1.383 1.296-1.487 2.09-.586 4.46 1.35 3.552.413 8.655-1.177 6.41-.781-1.102-.847-.97-.275.553.413 1.1 1.23 3.903 1.817 6.228 1.247 4.95 2.343 3.831 2.985-3.048zm-2.794-.567c-.301-.487.087-1.413.862-2.057 1.153-.956 1.312-.794.873.887-.594 2.271-.92 2.49-1.735 1.17zm3.889-8.18c-.363-.586-.445-1.28-.183-1.543.262-.262.743.218 1.07 1.067.675 1.762.099 2.072-.887.476zM157 136.655c0-.19-1.012-1.202-2.25-2.25l-2.25-1.905 1.905 2.25c1.79 2.114 2.595 2.705 2.595 1.905zm-114.75-1.317c-.688-.278-1.813-.278-2.5 0-.688.277-.125.504 1.25.504s1.938-.227 1.25-.504zm46.342-6.08c-.326-.325-.592-.011-.592.698 0 1.018-.348 1.001-1.66-.084-1.519-1.254-1.542-1.18-.276.852 1.183 1.901 1.511 2 2.252.675.477-.852.601-1.815.276-2.14zm-21.047-1.2c0-2.167-.34-3.405-.757-2.75-.536.844-.757.754-.757-.308 0-.825.436-2.175.969-3 .798-1.235.972-1.25.985-.083.008.779.276 1.155.596.835 1.113-1.113-1.592-4.615-3.829-4.956-1.239-.189-2.149-.868-2.022-1.509.332-1.686-3.579-2.658-5.219-1.296-1.838 1.525-.76 4.223 1.413 3.533.928-.294 2.634.347 3.792 1.426 1.86 1.732 2.176 1.775 2.718.362.337-.879.864-1.347 1.17-1.04.307.306.02 1.562-.637 2.79-.914 1.707-.924 3.14-.041 6.086.635 2.118 1.259 3.852 1.387 3.852.128 0 .232-1.774.232-3.941zm-2.862.755c-.32-.798-.556-.561-.604.604-.043 1.054.193 1.644.525 1.312.332-.332.368-1.195.08-1.917zm50.567 1.2c1.864-.008 2.75-.535 2.75-1.635 0-1.333-.27-1.4-1.508-.371-.918.761-2.877 1.03-5 .685-2.734-.443-3.492-.229-3.492.987 0 1.124.623 1.387 2.25.951 1.238-.331 3.487-.609 5-.616zm-68.928-3.891c-.41-1.568-.84-1.902-1.361-1.058-.42.678-.245 1.796.388 2.484 1.505 1.635 1.699 1.35.973-1.426zm40.658.354c-.696-.838-1.525-1.264-1.844-.946-.318.318.084.997.893 1.51 2.117 1.338 2.394 1.174.95-.564zM63 123.98c0-1.445-.6-1.711-3-1.333-2.376.375-3.024.097-3.116-1.337-.112-1.746-.133-1.746-.585 0-.565 2.18 3.246 5.802 5.282 5.02.78-.299 1.419-1.357 1.419-2.35zm43.98 1.496c-.696-.838-1.525-1.264-1.844-.946-.318.318.084.997.893 1.51 2.117 1.338 2.394 1.174.95-.564zM85 123.655c0-.19-1.012-1.202-2.25-2.25L80.5 119.5l1.905 2.25c1.79 2.114 2.595 2.705 2.595 1.905zm-39.25-1.344c-.962-.252-1.75-.901-1.75-1.443s.419-.727.93-.41c.513.316 1.214.117 1.56-.442.345-.559-.272-1.016-1.372-1.016s-2.278-.45-2.618-1c-.34-.55-1.716-1-3.059-1-1.937 0-2.441.516-2.441 2.5 0 2.015.496 2.5 2.559 2.5 1.754 0 2.339-.393 1.86-1.25-.386-.688.134-.463 1.154.5 1.02.963 2.547 1.698 3.391 1.634 1.157-.087 1.104-.229-.214-.573zm70.857-.893c-.334-.87-.607-2.598-.607-3.84 0-2.574-3.55-4.623-7.797-4.5-1.487.044-2.14.307-1.453.584 2.517 1.016 1.3 3.338-1.75 3.338-1.65 0-3 .498-3 1.107s.725.829 1.611.489c1.052-.404 1.443-.18 1.128.643-.301.784.365 1.261 1.761 1.261 1.56 0 2.087-.458 1.726-1.5-.412-1.187-.249-1.249.78-.297.903.836 1.865.901 3.147.215 1.505-.805 1.847-.624 1.847.977 0 1.244-.827 2.125-2.25 2.4-1.35.26-.706.487 1.607.569 3.136.11 3.744-.16 3.25-1.446zm25.702-2.054c-.435-1.135-.195-1.48.782-1.125.775.28 1.322.942 1.215 1.47-.107.526.435.958 1.206.958 1.492 0 1.267-.586-1.886-4.917-1.101-1.512-2.48-2.743-3.064-2.735-.584.008-.451.403.295.875.937.594 1.145 1.826.67 3.985-.428 1.949-.291 3.125.362 3.125.577 0 .766-.736.42-1.636zm-3.58-5.968c-.332-.332-1.195-.368-1.917-.08-.797.32-.56.557.605.605 1.054.043 1.644-.193 1.312-.525zM105 112.622c0-.207-.787-.995-1.75-1.75-1.586-1.243-1.621-1.208-.378.378 1.307 1.666 2.128 2.195 2.128 1.372zm-8-1c0-.207-.787-.995-1.75-1.75-1.586-1.243-1.621-1.208-.378.378 1.307 1.666 2.128 2.195 2.128 1.372zm35.25-.284c-.688-.278-1.813-.278-2.5 0-.688.277-.125.504 1.25.504s1.938-.227 1.25-.504zm-57.755-1.346c-.343-.555.418-1.427 1.69-1.937 1.524-.611 1.759-.95.687-.992-1.869-.072-4.179 2.297-3.197 3.279 1.005 1.004 1.52.784.82-.35zm33.107-1.744c.056-1.512 1.551-4.998 3.323-7.748 2.966-4.605 3.172-5.453 2.6-10.728-.387-3.583-.189-6.532.53-7.876 1.467-2.74.105-5.937-3.308-7.764-2.19-1.171-3.28-1.073-8.447.761-6.777 2.407-7.687 2.542-6.736 1.003.375-.607-.498-.33-1.94.615-2.85 1.867-3.026 2.306-1.74 4.334.634 1.002 1.01.717 1.469-1.114.498-1.986 1.1-2.367 3.132-1.979 1.65.316 2.515 1.144 2.515 2.407 0 2.643-2.072 4.635-4.235 4.07-1.384-.363-1.656-.042-1.19 1.4C95.526 91.651 100.16 98 102.607 98c.678 0 2.627-.787 4.332-1.75 2.728-1.54 3.218-1.57 4.082-.25 1.6 2.444-4.451 7.364-8.147 6.625-3.931-.787-3.826 1.682.233 5.474 3.84 3.588 4.368 3.605 4.496.149zM98.709 94.23c-.88-.972-1.434-2.66-1.231-3.75.203-1.09.403-2.319.445-2.731.144-1.41 5.138-.754 5.715.75.317.825 1.203 1.5 1.969 1.5s1.393.675 1.393 1.5-.66 1.5-1.469 1.5c-.894 0-1.243.586-.893 1.5.837 2.18-3.908 1.965-5.929-.269zm5.644-3.089c-1.02-.196-2.32-.734-2.89-1.195-.652-.527-1.108.034-1.23 1.514-.184 2.223-.028 2.288 2.89 1.195 2.373-.89 2.656-1.238 1.23-1.514zM101.2 81.8c-2.074-2.074-1.32-3.852 2.268-5.351 4.605-1.924 6.88-1.827 8.877.38 2.512 2.775 2.02 3.976-2.095 5.118-4.921 1.367-7.58 1.324-9.05-.147zm7.3-2.8l2-.86h-2c-1.1 0-2.9.387-4 .86l-2 .86h2c1.1 0 2.9-.387 4-.86zm3.309 29.38c-1.218-1.217-1.747-1.29-2.345-.321-.502.811-.365.998.389.532.654-.404 1.43-.016 1.778.889.339.883.871 1.351 1.183 1.04.312-.313-.14-1.275-1.005-2.14zm-12.883-1.266c-2.368-3.202-1.96-6.689.871-7.434 1.538-.405 1.53-.46-.078-.564-.98-.064-2.04.559-2.357 1.384-.317.825-1.172 1.5-1.9 1.5-.727 0-1.467 1.01-1.642 2.244-.224 1.57-1.22 2.435-3.32 2.881-2.595.552-2.673.654-.579.757 1.332.065 3.167-.556 4.077-1.38 1.487-1.346 1.897-1.243 4.003 1 3.134 3.335 3.55 3.161.925-.388zm-12.197 1.282c-.332-.332-1.195-.368-1.916-.08-.798.32-.561.557.604.605 1.054.043 1.644-.193 1.312-.525zm34.097-2.264c-1.28-1.578-2.515-2.701-2.747-2.496-.423.374 3.922 5.364 4.671 5.364.221 0-.645-1.29-1.924-2.868zm-5.841-2.989c.01-1.716.437-2.195 1.567-1.761.939.36 1.296.18.904-.454-.936-1.514 1.414-6.63 3.376-7.349 2.834-1.038 6.4-3.337 7.21-4.648.934-1.51.29-3.346-2.744-7.82-3.035-4.477-2.91-5.721.952-9.431 2.196-2.11 2.439-2.56.75-1.387-4.109 2.852-4.71 2.938-8.37 1.202-1.93-.916-4.323-1.454-5.32-1.196-1.202.311-.898.508.905.585 1.668.071 3.155.94 3.857 2.251.913 1.706 1.32 1.857 2.02.75 1.081-1.707 1.07-.667-.054 5.115-.996 5.128-.276 10.984 1.087 8.83.463-.731.584-2.741.269-4.465-.813-4.446 1.248-5.157 2.974-1.027.785 1.88 1.904 3.712 2.486 4.072 1.357.839.331 3.59-1.339 3.59-.698 0-1.83.675-2.515 1.5-2.193 2.642-4 1.775-4-1.918 0-3.853-.83-6.582-2-6.582-1.808 0-1.836 3.314-.055 6.636 1.81 3.379 1.823 3.735.232 6.863-.922 1.815-1.84 3.145-2.038 2.956-.5-.476-5.143 5.133-5.124 6.19.008.47.41.233.891-.527.681-1.076 1.034-.88 1.594.882.56 1.763.913 1.958 1.594.882.481-.76.882-2.443.89-3.739zm-6.857-4.893c1.243-1.586 1.208-1.621-.378-.378-.963.755-1.75 1.543-1.75 1.75 0 .823.821.294 2.128-1.372zm-12.32-2.117a85.271 85.271 0 0 1-1.525-2.05c-.156-.229-.283.77-.283 2.219 0 1.951.396 2.483 1.526 2.05 1.243-.477 1.295-.887.282-2.219zm-3.539.211c-.677-.274-2.027-.29-3-.037-.973.254-.419.478 1.231.498 1.65.02 2.446-.187 1.769-.46zm-7.99-2.384c-.293-1.121-.756-1.816-1.03-1.543-.54.541.415 3.583 1.126 3.583.24 0 .198-.918-.096-2.04zM116.2 91.8c-.933-.933-1.2-.667-1.2 1.2s.267 2.133 1.2 1.2c.933-.933.933-1.467 0-2.4zm-73.215-3.015c.022-3.948-3.343-5.54-5.426-2.566-2.212 3.158-1.95 4.512 1.189 6.157 3.164 1.658 4.212.77 4.237-3.59zm43.432.237c-.555-.553-.96.347-1.028 2.282-.103 2.975-.04 3.038.917.913.624-1.384.668-2.642.111-3.195zm4.46 3.402c.69.427.88.105.507-.866-.327-.85-.966-1.316-1.42-1.035-.456.28-1.016-.734-1.246-2.256-.275-1.819-.464-1.225-.553 1.733-.087 2.906.175 4.012.739 3.122.48-.758 1.368-1.072 1.973-.698zm2.468-1.967c-.326-.849-.807-1.329-1.069-1.067-.262.262-.18.957.183 1.543.986 1.596 1.562 1.286.886-.476zm31.274-3.98c-.89-.891-1.619-1.228-1.619-.748 0 1.132 2.236 3.368 2.802 2.802.24-.24-.292-1.164-1.183-2.055zm-32.936-1.665c-.32-.797-.556-.56-.604.605-.043 1.054.193 1.644.525 1.312.332-.332.368-1.195.08-1.916zM37.781 82c.055-1.947-.407-3-1.316-3-.788 0-1.197.657-.934 1.5l.938 3c.73 2.337 1.219 1.778 1.312-1.5zm7.104-2.5c-.07-1.648-.225-1.56-.885.5-.624 1.947-.823 2.076-.9.583-.055-1.054-.366-1.65-.691-1.325-.326.325-.276 1.585.109 2.799.548 1.725.892 1.905 1.576.825.481-.76.837-2.282.791-3.382zm46.032 1.876c1.297-1.17-.797-.992-2.919.248l-2.498 1.46 2.5-.667c1.375-.366 2.688-.835 2.917-1.041zM95.5 81c.34-.55.141-1-.441-1S94 80.45 94 81s.198 1 .441 1 .72-.45 1.059-1zm-54.73-3.5C40.58 75.178 39 73.813 39 75.969c0 .532-.787.683-1.75.334-1.111-.403-.837.144.75 1.498 3.13 2.67 3.018 2.682 2.77-.301zm47.825.38c2.465-2.743 10.134-6.234 18.708-8.516 6.33-1.685 7.112-1.7 11.264-.206 4.441 1.597 4.479 1.591 8.395-1.245 7.697-5.576 7.707-10.444.016-7.906-4.473 1.476-6.988 1.544-17.51.472-6.674-.68-7.194-.58-10.22 1.965-2.763 2.326-3.025 2.94-1.974 4.622.89 1.427.922 2.403.117 3.687-1.47 2.344-5.231 2.827-6.02.772-.54-1.405-.807-1.348-2.061.443-.793 1.132-3.325 3.033-5.626 4.224-4.067 2.105-4.114 2.186-1.684 2.887 3.986 1.15 4.581 1.042 6.595-1.199zm-43.151-3.13c-1.22-3.974-3.51-8.494-3.058-6.037.224 1.218-.221 2.735-.99 3.373-.966.802-1.396.823-1.396.068 0-.61-.739-.808-1.674-.449-1.268.487-1.518.237-1.031-1.031.913-2.379-.01-2.076-1.36.447-.691 1.292-.732 1.872-.104 1.483a1.207 1.207 0 0 1 1.659.38c.889 1.438 5.243 1.264 5.848-.234.277-.688.54-.275.583.917.043 1.191-.483 2.393-1.171 2.67-.688.278-.207.54 1.067.584 1.953.067 2.21-.275 1.627-2.171zm71.753 1.387c.754 1.076.881 1.084.604.038-.193-.729-.63-1.179-.971-1-.341.179-1.649-.575-2.906-1.675l-2.287-2 1.932 2.657c1.062 1.462 2.098 2.199 2.302 1.637.216-.594.77-.45 1.326.343zm-33.766-3.04c-.263-.263-1.255.333-2.205 1.324-1.65 1.722-1.628 1.744.479.479 1.212-.729 1.989-1.54 1.726-1.803zM87.5 71c.995-1.1 1.585-2 1.31-2-.275 0-1.315.9-2.31 2-.995 1.1-1.585 2-1.31 2 .275 0 1.315-.9 2.31-2zm20.75.338c-.688-.278-1.813-.278-2.5 0-.688.277-.125.504 1.25.504s1.938-.227 1.25-.504zm-21.467-2.642c1.034-.935 2.135-1.444 2.448-1.132.313.313.501-.195.419-1.13-.083-.935.637-1.825 1.6-1.978 1-.16 1.75.351 1.75 1.192 0 .808-.41 1.216-.912.906-1.302-.804-.702 2.232.722 3.656 2.31 2.31 3.353-.568 1.552-4.275-.919-1.89-1.796-3.593-1.95-3.786-.585-.733-7.339 5.092-7.13 6.15.12.61-.307 1.13-.949 1.156-.641.025-1.47.349-1.841.72-1.494 1.494 2.544.102 4.291-1.479zm5.76.373c-.683-1.105.894-2.299 1.818-1.375.95.95.773 2.306-.302 2.306-.518 0-1.2-.419-1.516-.93zM40.898 65c.03-1.158-.28-1.079-1.361.347-.77 1.016-1.127 2.558-.793 3.427.515 1.344.718 1.292 1.36-.347.416-1.06.773-2.602.794-3.427zm91.23 2.25c1.243-1.586 1.208-1.621-.378-.378-1.666 1.307-2.195 2.128-1.372 2.128.207 0 .995-.787 1.75-1.75zM98 60.558c0-.204-.9-.135-2 .152-1.1.288-2 .937-2 1.442 0 .507.895.44 2-.152 1.1-.589 2-1.237 2-1.442zm23.269-1.214c-.677-.274-2.027-.29-3-.037-.973.254-.419.478 1.231.498 1.65.02 2.446-.187 1.769-.46zm-6.54-.948c-.332-.332-1.195-.368-1.917-.08-.797.32-.56.557.605.605 1.054.043 1.644-.193 1.312-.525zm11.861-1.047c2.027-1.328 3.183-1.447 5.909-.61 3.938 1.208 4.501.87 4.501-2.706 0-1.448.54-3.173 1.2-3.833.933-.933.878-1.202-.25-1.208-1.605-.008-3.95-4.333-3.95-7.285 0-1.05.887-2.126 1.989-2.414 1.094-.286 1.699-.989 1.345-1.561-.373-.604-.159-.742.511-.327 1.868 1.154 3.442-.354 2.081-1.994-.903-1.088-.857-1.792.202-3.075 1.26-1.527 1.18-1.547-.97-.25-1.288.778-3.98 2.34-5.981 3.471-2.002 1.132-4.499 3.689-5.548 5.682-1.77 3.359-1.789 3.744-.269 5.264 2.04 2.04 2.086 3.389.14 4.135-.825.317-1.5 1.605-1.5 2.862 0 1.257-.675 2.545-1.5 2.862-.825.316-1.5 1.04-1.5 1.607 0 1.415.658 1.301 3.59-.62zm-17.321-.005c-.677-.274-2.027-.29-3-.037-.973.254-.419.478 1.231.498 1.65.02 2.446-.187 1.769-.46zm34.593-22.677c.827-.997.773-1.334-.211-1.334-.725 0-1.318.6-1.318 1.334 0 .733.095 1.333.211 1.333.116 0 .71-.6 1.318-1.333zm-4.72-11.75c-1.434-1.163-2.124-2.521-1.761-3.467.342-.891.175-1.293-.392-.943-.544.336-.989 1.118-.989 1.738 0 1.508 4.186 5.903 4.92 5.165.32-.32-.481-1.442-1.778-2.494zM58.768 8.284c-1.503-.228-4.203-.232-6-.01-1.797.223-.568.41 2.732.415 3.3.006 4.77-.176 3.268-.405zm65.961-.89c-.332-.331-1.195-.367-1.917-.078-.797.32-.56.556.605.604 1.054.043 1.644-.193 1.312-.525zm64.087-.143c-10.276-.163-27.376-.163-38 0-10.624.161-2.216.294 18.684.294 20.9 0 29.592-.132 19.316-.294z"/></svg>